<?xml version="1.0" encoding="UTF-8"?>
<svg id="_圖層_2" data-name="圖層 2" xmlns="http://www.w3.org/2000/svg" viewBox="0 0 332.4 227.84">
  <defs>
    <style>
      .cls-1 {
        fill: #d0d6e5;
      }

      .cls-1, .cls-2, .cls-3 {
        stroke: #543c1a;
        stroke-linecap: round;
        stroke-linejoin: round;
        stroke-width: 2px;
      }

      .cls-2, .cls-4 {
        fill: #fff;
      }

      .cls-3 {
        fill: none;
      }

      .cls-5 {
        isolation: isolate;
      }

      .cls-6 {
        fill: #543c1a;
      }

      .cls-6, .cls-7, .cls-4 {
        stroke-width: 0px;
      }

      .cls-7 {
        fill: #dfa9ca;
      }
    </style>
  </defs>
  <g id="_圖層_2-2" data-name=" 圖層 2">
    <g>
      <path class="cls-4" d="M178.61,143.16c.65-5.77-1.15-11.44-5.2-16.42-5.88-7.23-15.59-11.96-23.92-14.5-.02-1.22-.04-2.45-.06-3.69,0-.46,0-.93-.02-1.39,0-1.1-.03-2.19-.04-3.3,0-.56,0-1.14-.02-1.7,0-1.01-.02-2.03-.03-3.05,0-.63,0-1.27,0-1.91v-1.84c.1-.04.2-.08.3-.12.27-.11.53-.21.79-.32l.51-.21c.42-.18.83-.37,1.22-.56,5.6-2.71,11.85-6.05,15.26-11.37.1-.16.22-.35.35-.57.89-1.53,2.19-4.69,1.86-13.25-.06-1.59-.19-3.42-.44-5.32-.41-3.16-1.16-6.49-2.49-9.17-.31-.62-.63-1.22-.96-1.82-.09-.16-.19-.32-.28-.49-.25-.45-.51-.89-.78-1.33-.1-.16-.2-.33-.3-.49-.29-.47-.59-.93-.89-1.38-.07-.11-.15-.22-.22-.33-5.78-8.49-14.27-15.39-24.75-20.27h0c-.69-.32-1.39-.63-2.09-.94-.1-.04-.19-.08-.29-.12-.61-.26-1.23-.51-1.85-.76-.16-.06-.31-.13-.47-.19-.54-.21-1.09-.41-1.64-.61-.79-.29-1.58-.56-2.38-.83-.05-.02-.09-.03-.14-.05-6.39-2.1-13.31-3.52-20.61-4.18-.07,0-.14-.01-.21-.02-.7-.06-1.4-.12-2.1-.17-.33-.02-.66-.05-1-.07-.47-.03-.94-.05-1.41-.07-.56-.03-1.12-.05-1.67-.07-.3,0-.6-.02-.89-.02-.69-.02-1.38-.03-2.08-.03h-.59c-1.39,0-2.78.03-4.16.09-.22,0-.44.02-.66.03-1.06.05-2.12.12-3.17.2-.7.05-1.4.12-2.1.19-.66.07-1.33.13-1.99.21-15.67,1.82-29.84,7.1-40.4,15.04-.4.3-.79.6-1.18.91-.36.28-.72.57-1.07.86-.74.61-1.45,1.24-2.15,1.87-.2.18-.39.37-.59.55-.77.72-1.51,1.46-2.22,2.22-8.53,9.12-14.78,17.93-19.39,27.42-.66,1.36-1.29,2.73-1.88,4.11C6.91,99.94,3.01,129.85,1.05,150.08.45,156.32-.12,170.85.02,185.49c.26,28.43,2.97,34.31,4,36.52.21.45.44.87.71,1.28.17.27.37.51.57.75.1.13.19.26.29.38.26.29.53.55.82.81l.18.18c.33.28.68.54,1.04.77.03.02.05.04.08.06,1.61,1.03,3.49,1.6,5.42,1.6.15,0,.29-.02.44-.02h134.39c.39,0,.77-.03,1.15-.07h.08c.16-.02.32-.06.48-.09.15-.03.3-.05.45-.08.25-.05.49-.13.72-.2.08-.03.17-.04.26-.07,1-.33,1.92-.81,2.74-1.41.07-.05.13-.11.2-.16.2-.15.39-.31.58-.48.09-.08.17-.17.26-.25.16-.15.31-.3.46-.46.03-.04.07-.07.1-.11.06-.07.11-.14.16-.21.13-.16.26-.31.38-.48.08-.11.16-.23.24-.35.11-.17.22-.34.32-.51.07-.12.14-.24.2-.36.1-.19.19-.38.28-.57.05-.11.1-.22.15-.34.09-.21.16-.43.24-.65.03-.1.07-.2.1-.3.07-.24.13-.49.19-.74.02-.08.04-.17.06-.25.05-.27.09-.54.12-.81,0-.07.02-.14.03-.21.02-.29.03-.58.03-.87v-.18c0-.35-.03-.7-.08-1.05,0-.1-.33-2.59-.81-6.5-.06-.52-.13-1.07-.2-1.63-.1-.85-.22-1.76-.33-2.7-.12-.95-.24-1.94-.36-2.96-.04-.34-.08-.69-.13-1.04-.29-2.38-.6-4.93-.91-7.56,7.14-1.93,10.73-8.39,12.47-11.52.34-.62.69-1.25,1.05-1.84,2.89-4.71,1.41-10.87-3.29-13.75-.25-.15-.5-.29-.75-.42.81-.96,1.72-1.96,2.67-3,4.6-5.05,10.32-11.35,11.35-20.49h-.01Z"/>
      <g>
        <path class="cls-3" d="M138.29,120.03c10.29.96,31.79,9.47,30.39,22.01-.92,8.22-8.46,13.72-13.25,20.07-3.41,4.51-8.48,10.21-10.08,15.84-1.09,3.81.52,6.34,4.58,6.76,5.83.6,7.6-4.87,10.2-9.11"/>
        <g>
          <path class="cls-4" d="M157.71,58.89c-17.77-35.79-85.46-37.03-111.04-9.69-8.01,8.56-14.67,17.66-19.39,28.64-9.72,22.63-13.91,48.8-16.27,73.2-1.14,11.84-2.19,57.51,2.09,66.77h134.85s-5.58-44.48-6.42-56.43c-1.69-23.89-2.23-49.21-2.23-73.17l-.9-.03c3.88-.93,7.1-1.96,9.37-3.06,3.36-1.63,9.06-4.42,11.19-7.76,1.02-1.59,1.11-13.72-1.25-18.47h0Z"/>
          <g>
            <g>
              <path class="cls-7" d="M73.41,87.67c0,1.07-.16,2.1-.44,3.07-8.13-.97-15.61-2.54-21.67-4.87.85-5.28,5.44-9.32,10.99-9.32,6.14,0,11.13,4.98,11.13,11.13h0Z"/>
              <path class="cls-7" d="M159.55,71.78c-.05,2.51-.28,4.47-.66,5.05-2.13,3.34-7.82,6.13-11.19,7.76-.91.44-1.96.86-3.15,1.29-.49-1.22-.74-2.55-.74-3.95,0-6.16,4.98-11.14,11.14-11.14,1.63,0,3.2.36,4.59,1h.01Z"/>
            </g>
            <g>
              <path class="cls-3" d="M13.09,217.82c-4.27-9.26-3.23-54.93-2.09-66.77,2.36-24.4,6.55-50.57,16.27-73.2,4.72-10.98,11.38-20.08,19.39-28.64,25.58-27.34,93.27-26.1,111.04,9.69,2.36,4.75,2.27,16.88,1.25,18.47-2.14,3.34-7.83,6.13-11.19,7.76-15.54,7.53-73.87,11.93-99.4.01"/>
              <path class="cls-3" d="M139.29,88.22c0,23.96.54,49.28,2.23,73.17.85,11.95,6.42,56.43,6.42,56.43"/>
            </g>
          </g>
          <g>
            <path class="cls-6" d="M81.2,76.91c0,2.13-1.73,3.86-3.86,3.86s-3.86-1.73-3.86-3.86,1.73-3.86,3.86-3.86,3.86,1.73,3.86,3.86Z"/>
            <path class="cls-6" d="M144.4,73.05c0,2.13-1.73,3.86-3.86,3.86s-3.86-1.73-3.86-3.86,1.73-3.86,3.86-3.86,3.86,1.73,3.86,3.86Z"/>
          </g>
        </g>
        <g>
          <g>
            <g>
              <ellipse class="cls-3" cx="91.13" cy="172.51" rx="7.42" ry="7.86"/>
              <g>
                <rect class="cls-2" x="97.21" y="184.22" width="18.99" height="4.03" rx="1.38" ry="1.38"/>
                <path class="cls-2" d="M92.19,162.37h29.03c.58,0,1.05.47,1.05,1.05v16.04c0,3.18-2.58,5.75-5.75,5.75h-19.63c-3.18,0-5.75-2.58-5.75-5.75v-16.04c0-.58.47-1.05,1.05-1.05Z"/>
              </g>
            </g>
            <g>
              <path class="cls-1" d="M104.97,154.29c1.27-1.49,3.71-4.35,4.1-6.41.71-3.79-2.08-9.44-6.79-9.93,1.14,1.48,2.17,3.8,1.94,5.65-.29,2.35-2.62,2.99-4,4.53-2.2,2.45-2.27,6.11,0,8.51,1.24,1.3,4.37,2.91,4.37,2.91,0,0-1.25-3.34.38-5.26Z"/>
              <path class="cls-1" d="M112.98,156.33c.88-.84,3.2-2.48,3.57-3.73.68-2.29.35-6.18-3.07-7.39,1.12,4.71-2.09,6.14-3.04,7-1.52,1.37-1.8,3.62-.55,5.25.68.89,2.51,2.08,2.51,2.08,0,0-.55-2.14.58-3.22h0Z"/>
            </g>
          </g>
          <g>
            <path class="cls-6" d="M90.05,173.23c0,3.09-2.51,5.6-5.6,5.6s-5.6-2.51-5.6-5.6,2.51-5.6,5.6-5.6,5.6,2.51,5.6,5.6Z"/>
            <path class="cls-6" d="M31.44,135.26c.94,6.36,3.4,12.65,6.74,18.11,6.57,10.73,17.45,18.23,29.92,20.25,5.26.85,10.63.8,15.88-.14,1.26-.23.73-2.15-.53-1.93-11.1,1.99-22.88-.35-32.13-6.88-7.79-5.5-13.28-13.77-16.21-22.78-.76-2.33-1.38-4.73-1.73-7.16-.19-1.27-2.11-.73-1.93.53h0Z"/>
          </g>
        </g>
      </g>
      <g>
        <path class="cls-4" d="M332.3,55.06l-.13-1.5c-.04-.43-.09-.85-.16-1.27l-.22-1.47c-.12-.77-.27-1.55-.42-2.31l-.13-.62c-.12-.62-.25-1.24-.39-1.86-.36-1.61-.77-3.36-1.36-5.16-.98-2.98-2.4-5.5-3.78-7.76-.43-.71-.88-1.41-1.34-2.09l-.31-.47c-.36-.55-.72-1.09-1.1-1.62l-.17-.24c-.45-.63-.95-1.33-1.59-2.12l-.78-.95c-.32-.39-.66-.76-1.01-1.13l-.16-.17c-.39-.42-.79-.84-1.2-1.25l-.65-.67c-.45-.47-.91-.94-1.36-1.4-.71-.72-1.48-1.49-2.33-2.29l-.09-.09c-.37-.35-.75-.7-1.11-.99l-1.15-.93c-.39-.31-.79-.6-1.2-.88l-.09-.06c-.42-.29-.83-.58-1.29-.87-.77-.48-1.54-.95-2.32-1.41-1.45-.85-3.15-1.83-5.02-2.69-1.29-.59-2.54-1.11-3.75-1.61-1.5-.62-2.91-1.21-4.17-1.84-1.69-.84-3.21-1.52-4.69-2.11l-.19-.08c-.4-.16-.8-.32-1.23-.47l-.18-.06c-.36-.13-.91-.33-1.58-.51l-.11-.03c-.88-.24-1.87-.51-2.94-.74-.65-.14-1.31-.28-1.96-.42-.73-.15-1.46-.3-2.18-.47l-.29-.07c-1.48-.34-3-.69-4.69-.96-1.11-.18-2.21-.34-3.33-.48-2.02-.25-4.12-.46-6.42-.62-1.17-.08-2.25-.11-3.29-.14-.46-.01-.92-.02-1.39-.04l-1.03-.04c-1.07-.05-2.19-.1-3.39-.1-.32,0-.65,0-.98,0-.93.02-1.85.06-2.77.12l-.84.05c-.33.02-.65.04-.98.06l-1.08.05c-1.15.05-2.46.1-3.87.25-.92.1-1.84.21-2.76.34-.81.12-1.62.25-2.43.41-1.56.29-3.17.6-4.83.97-3.32.74-6.34,1.76-9.26,2.75l-1.51.51-1.4.39c-.45.12-.9.26-1.34.41l-2.79.99c-.35.12-.71.25-1.06.39l-2.4.98c-1.34.55-2.59,1.12-3.8,1.68l-.57.26c-.62.28-1.23.59-1.84.9l-.63.32c-.59.3-1.18.62-1.76.94l-.37.21c-.77.42-1.59.88-2.43,1.39l-2.33,1.44c-.33.2-.66.43-.99.67l-1.69,1.19c-.5.35-1,.7-1.49,1.07l-2.12,1.63c-.31.24-.61.5-.95.8l-1.24,1.06c-.52.45-1.02.93-1.52,1.41l-.75.72c-.58.55-1.15,1.09-1.69,1.67l-.69.72c-.85.88-1.72,1.78-2.62,2.81l-1.07,1.22c-.27.29-.53.59-.79.92l-1.59,2c-.44.56-.87,1.11-1.3,1.68l-.31.41c-.37.49-.84,1.1-1.32,1.84l-.31.47c-.48.72-1.02,1.54-1.55,2.47-.77,1.32-1.42,2.56-2,3.78-.6,1.29-1.15,2.62-1.67,4.09-.48,1.35-.9,2.79-1.32,4.54-.13.55-.24,1.11-.34,1.67l-.05.29c-.12.64-.23,1.27-.32,1.93-.29,2.14-.28,4.09-.24,5.56.1,3.67.79,7.17,2.04,10.41.74,1.92,1.66,3.57,2.39,4.82,0,0,.9,1.53.94,1.59.53.87,1.06,1.7,1.53,2.43-.04.09-.48,1.17-.48,1.17-.58,1.45-1.16,2.9-1.73,4.35-.55,1.39-1.1,2.89-1.67,4.57-.38,1.1-.63,2.13-.84,2.96l-.12.47c-.15.59-.39,1.57-.48,2.79-.02.26-.03.52-.03.78v.54c0,.7.09,1.4.24,2.09.12.54.26,1.08.43,1.6.18.56.42,1.13.69,1.65.72,1.45,1.72,2.76,2.95,3.81,2.07,1.85,4.76,2.98,7.65,3.19.34.02.67.04,1.01.04,4.57,0,7.98-2.27,9.09-3.01,1.4-.93,2.51-1.91,3.4-2.7l.94-.84c.38-.34.76-.68,1.13-.99l1.36-1.13c.12-.1.25-.19.37-.28l.31-.23c.3-.23.74-.5,1.17-.76.39.07.77.15,1.16.24l1.6.39c1.02.25,2.05.5,3.07.73,2.06.48,4.01.79,5.89,1.09.96.15,1.91.3,2.86.48,1.96.36,3.92.76,5.87,1.16,1,.2,2.01.41,3.01.61,1.62.32,3.18.57,4.77.81,1.47.23,2.95.45,4.43.65,2.94.39,6.11.79,9.4,1.04,1.73.13,3.46.26,5.2.37,1.17.07,2.71.17,4.3.21l.7.02c.65.02,1.3.05,2.01.05h2.63c1.61-.01,3.24-.06,5.01-.16,1.71-.1,3.43-.21,5.13-.34,1.22-.09,2.84-.22,4.51-.43l1.61-.2c.4-.05.8-.1,1.23-.18l2.68-.5c.82-.15,1.54-.33,2.11-.48l.5-.12c.71-.17,1.41-.35,2.11-.54,1.56-.42,3.11-.85,4.67-1.28,1.68-.47,3.39-.98,5.09-1.51.81-.25,1.6-.54,2.38-.82l1.05-.38c.46-.17.91-.36,1.36-.57l.39-.17c.67-.29,1.43-.62,2.27-1.05l.49-.25c.64-.32,1.28-.65,1.89-1l.68-.39c.69-.39,1.39-.78,2.07-1.2l2.02-1.25c.31-.19.62-.4.92-.61l1.43-.97c.58-.4,1.15-.82,1.71-1.25l.43-.32c.65-.49,1.28-1,1.91-1.52l.18-.15c.37-.3.74-.61,1.15-.99l1.18-1.13c.41-.39.81-.78,1.18-1.18l1.58-1.73c.47-.51.81-.96,1.03-1.25l.3-.38c.44-.54.93-1.16,1.44-1.88l.88-1.24c.46-.65.92-1.35,1.43-2.19.74-1.22,1.43-2.49,2.04-3.77.64-1.33,1.15-2.56,1.56-3.75l.82-2.38c.12-.37.23-.74.34-1.11l.38-1.31c.9-3.11,1.37-6.29,1.4-9.45,0-.84,0-1.97-.1-3.2v.03Z"/>
        <path class="cls-6" d="M263.04,10.3c-1.45-.1-2.91-.11-4.37-.16-1.59-.06-3.18-.16-4.77-.12-.81.02-1.62.05-2.43.1-.64.04-1.28.09-1.92.12-1.45.07-2.9.09-4.35.25-.81.09-1.61.18-2.41.3-.68.1-1.35.21-2.02.34-1.51.28-3.01.57-4.51.9-2.89.64-5.7,1.61-8.5,2.55l-1.5.51c-.51.14-1.02.28-1.52.42-.27.08-.55.14-.82.24-.42.15-.84.3-1.26.45-.49.17-.97.34-1.46.52-.24.08-.48.16-.71.25-.79.32-1.58.65-2.37.97-1.36.56-2.69,1.18-4.03,1.79-.72.33-1.41.71-2.12,1.06-.61.31-1.2.64-1.8.97-.68.37-1.35.75-2.01,1.15-.78.48-1.55.95-2.33,1.43-.16.1-.31.22-.47.33-.44.31-.88.62-1.32.93-.51.36-1.03.71-1.53,1.09-.7.54-1.4,1.08-2.1,1.61-.19.15-.37.31-.55.47-.41.35-.81.7-1.22,1.05-.48.41-.93.86-1.38,1.3-.63.6-1.28,1.2-1.88,1.83-1.01,1.06-2.05,2.1-3.01,3.2-.34.39-.68.77-1.01,1.16-.18.21-.38.41-.55.63-.53.67-1.06,1.33-1.59,2-.37.47-.74.94-1.1,1.43-.43.58-.89,1.15-1.29,1.76-.54.83-1.09,1.64-1.59,2.5-.57.99-1.11,1.98-1.6,3.02-.49,1.03-.91,2.09-1.29,3.17-.41,1.16-.74,2.35-1.02,3.55-.11.48-.19.97-.28,1.45s-.18.95-.24,1.43c-.18,1.31-.19,2.62-.16,3.94.07,2.42.5,4.83,1.37,7.08.45,1.16,1.05,2.28,1.68,3.36,0,0,0-.01,0-.02,0,0,0,.02.02.03h0c.21.37.43.73.65,1.1.06.1.12.2.18.3-.02-.03-.04-.06-.05-.09.55.93,1.13,1.83,1.72,2.73.24.37.49.73.74,1.08.36.5.74.98,1.08,1.48.08.16.15.32.21.49.05.26.09.52.1.79-.03.5-.12.99-.23,1.48-.46,1.59-1.13,3.12-1.75,4.65-.57,1.43-1.14,2.86-1.71,4.29-.54,1.36-1.03,2.74-1.51,4.13-.28.83-.48,1.7-.7,2.56-.1.38-.2.77-.23,1.16v.54c.05.24.11.47.19.71.03.06.07.12.1.18.14.32.34.58.62.8.46.46,1.14.69,1.77.74,1.41.1,2.71-.58,3.84-1.33.92-.61,1.74-1.36,2.57-2.09.68-.6,1.35-1.22,2.05-1.8.45-.38.9-.75,1.36-1.13.34-.29.71-.55,1.07-.82.67-.5,1.37-.94,2.09-1.37.36-.21.73-.42,1.09-.63.55-.32,1.1-.64,1.71-.86.34-.07.69-.11,1.04-.12.91.03,1.82.18,2.72.34.67.12,1.35.25,2.01.41,1.53.37,3.05.75,4.59,1.1,2.74.63,5.55.97,8.31,1.48,3.02.56,6.01,1.19,9.02,1.79,1.44.29,2.89.51,4.34.74,1.41.22,2.82.43,4.23.62,2.94.39,5.89.75,8.86.98,1.69.13,3.38.25,5.07.36,1.31.08,2.62.16,3.93.2.8.02,1.59.07,2.39.07h2.64c1.49,0,2.98-.05,4.47-.14,1.66-.09,3.32-.2,4.98-.33,1.33-.1,2.66-.21,3.98-.37.51-.06,1.02-.13,1.54-.19.24-.03.48-.05.72-.09.9-.17,1.8-.34,2.7-.5.7-.13,1.4-.33,2.09-.49.62-.15,1.23-.3,1.85-.47,1.53-.41,3.07-.84,4.6-1.26,1.6-.44,3.18-.92,4.76-1.42.67-.21,1.32-.45,1.98-.69.35-.13.7-.25,1.05-.38.31-.11.62-.27.93-.4.66-.28,1.31-.56,1.95-.89.66-.34,1.33-.66,1.98-1.02.82-.47,1.65-.92,2.46-1.42.67-.42,1.34-.83,2.01-1.24.24-.15.47-.32.71-.48.43-.29.86-.59,1.29-.88.61-.41,1.19-.87,1.78-1.32.57-.43,1.12-.89,1.68-1.34.19-.16.39-.31.57-.48.36-.35.72-.69,1.09-1.04.29-.28.59-.55.87-.85.3-.33.61-.67.91-1,.22-.24.45-.49.67-.73.24-.27.46-.57.68-.86.45-.56.9-1.11,1.32-1.7.3-.41.59-.83.88-1.24.37-.51.7-1.04,1.03-1.58.57-.94,1.09-1.91,1.57-2.9.42-.87.81-1.78,1.12-2.69.27-.78.54-1.57.81-2.35.09-.27.16-.54.24-.81.11-.39.22-.77.34-1.16.63-2.18.98-4.47,1-6.74,0-.76,0-1.52-.07-2.27-.04-.5-.09-1-.13-1.5-.02-.26-.07-.53-.11-.79-.07-.44-.13-.88-.2-1.32-.1-.65-.23-1.31-.36-1.95-.15-.72-.29-1.44-.44-2.16-.31-1.42-.65-2.82-1.1-4.21-.67-2.03-1.72-3.87-2.82-5.69-.36-.59-.73-1.17-1.11-1.74-.41-.61-.8-1.23-1.22-1.82-.44-.62-.87-1.23-1.35-1.82-.26-.32-.53-.64-.79-.96-.25-.31-.55-.6-.82-.89-.45-.49-.93-.96-1.39-1.44-.52-.54-1.04-1.07-1.56-1.6-.66-.67-1.32-1.33-2-1.97-.23-.22-.46-.45-.71-.65-.38-.3-.75-.61-1.13-.91-.25-.2-.52-.37-.78-.56-.27-.19-.55-.39-.83-.57-.69-.43-1.39-.85-2.09-1.27-1.33-.79-2.69-1.56-4.1-2.21-2.72-1.24-5.53-2.26-8.21-3.59-1.29-.64-2.58-1.24-3.92-1.77-.32-.12-.63-.26-.95-.37-.38-.13-.77-.29-1.16-.39-.86-.23-1.72-.47-2.59-.66-1.4-.31-2.82-.58-4.22-.9-1.45-.33-2.89-.67-4.35-.9-.99-.16-1.98-.3-2.98-.43-1.95-.24-3.9-.43-5.87-.56h0l-.03-.08ZM187.5,95.13c.37-1.06.79-2.12,1.19-3.15.12-.31.25-.62.37-.94.51-1.31,1.02-2.62,1.53-3.92.27-.69.55-1.43.88-2.32.26-.71.49-1.5.7-2.42.24-1.03.28-2.11.11-3.12-.07-.41-.2-.82-.33-1.24-.19-.57-.53-1.08-.86-1.57-.14-.21-.29-.41-.43-.61-.09-.12-.17-.23-.26-.35-.4-.57-.77-1.1-1.12-1.63-.6-.91-1.22-1.91-1.95-3.14l-.7-1.29c-.5-.92-.93-1.94-1.26-3.04-.38-1.47-.58-3.06-.63-4.88,0-1.3.12-2.47.34-3.59l.09-.46c.12-.6.24-1.23.39-1.83.73-2.62,1.8-5.2,3.19-7.67.33-.56.69-1.11,1.04-1.65l.24-.36c.28-.43.59-.86.89-1.27l.08-.11c.1-.14.2-.28.3-.41.23-.32.48-.66.73-.98l.96-1.22.6-.76c.64-.82,1.34-1.62,2.01-2.4l.51-.59c.24-.28.5-.56.76-.82.1-.11.2-.21.31-.32.47-.5.94-1,1.4-1.5.4-.4.8-.79,1.2-1.19.11-.11.22-.22.34-.33.29-.29.59-.59.9-.87l.18-.16,1.61-1.43c.1-.08.2-.16.3-.24l.1-.08,1.17-.93c.91-.72,1.87-1.41,2.79-2.08l.62-.45c.76-.55,1.56-1.05,2.34-1.54.26-.17.53-.33.79-.5l.62-.36,1.22-.71c.46-.26.93-.52,1.39-.76l.46-.24c1.05-.56,2.13-1.09,3.18-1.6l.74-.36c.16-.08.32-.14.47-.21.08-.03.15-.06.22-.1l.77-.34.76-.34.24-.11c.43-.19.87-.38,1.32-.56l1.39-.54,1.38-.53c.45-.18.93-.32,1.38-.46.14-.04.28-.09.42-.13l1.23-.39.93-.25c.89-.24,1.82-.49,2.73-.72l.2-.05c1.5-.38,3.04-.76,4.57-1.13.62-.15,1.29-.3,1.96-.45.2-.04.4-.09.6-.13.47-.1.96-.21,1.44-.29.35-.06.69-.12,1.03-.18,1.11-.19,2.25-.39,3.38-.53l1.49-.17,1.5-.17c.43-.05.87-.08,1.3-.11l.38-.03c1.59-.11,3.22-.22,4.84-.32.72-.04,1.45-.09,2.17-.12h.2l.2.02c.65.04,1.31.07,1.96.1.79.04,1.6.07,2.41.12,1.7.11,3.1.22,4.43.37.49.06.98.11,1.47.18.95.12,1.96.26,3.1.43,1.77.26,3.55.68,5.13,1.06.98.23,1.98.45,2.94.67.72.16,1.43.32,2.15.48.28.08.56.16.85.24.28.08.56.18.82.27l.21.08c.58.21,1.21.46,1.91.77l.31.14c.58.25,1.18.52,1.75.81.34.18.69.36,1.03.54.3.16.6.32.91.47,1.38.71,2.76,1.34,3.92,1.86.75.34,1.5.67,2.25,1.01.7.32,1.26.59,1.76.86l.94.51c1.45.84,2.73,1.62,3.93,2.38.71.45,1.38.97,1.94,1.42l.14.11c.24.19.48.38.71.59l1.09,1c.34.34.68.69,1.02,1.03.41.42.83.84,1.25,1.26l.17.17c.81.81,1.65,1.65,2.4,2.54l.08.09c.36.43.73.87,1.07,1.33l.14.19c.3.42.62.85.91,1.29.76,1.14,1.57,2.35,2.32,3.6.45.78.86,1.57,1.22,2.36.35.76.66,1.6.96,2.63.5,1.84.87,3.75,1.23,5.71.15.83.28,1.67.4,2.49l.03.18c.04.28.06.57.09.85,0,.1.02.21.02.31.06.67.09,1.28.11,1.85-.02,1.85-.28,3.75-.79,5.81l-.16.53-.31,1.06c-.1.33-.21.65-.33.97l-.1.29-.11.33c-.18.51-.36,1.04-.56,1.55-.55,1.4-1.18,2.75-1.89,4.02-.28.48-.59.99-.94,1.48l-.78,1.09-.59.82c-.11.16-.24.31-.36.46-.05.07-.11.13-.16.2l-.64.8-.25.31-.07.09c-.11.13-.21.27-.33.39-.46.5-.92,1.01-1.38,1.51l-.23.22c-.51.49-1.04,1-1.6,1.46l-.66.54-.64.52c-.28.23-.58.45-.88.66-.15.1-.29.21-.44.32l-.2.15c-.24.18-.49.37-.75.54l-.84.57-.84.57c-.56.38-1.15.73-1.72,1.07l-.4.24-.32.18-1.33.75c-.38.22-.78.42-1.16.61l-.28.14-.34.18c-.38.19-.76.39-1.16.56-.69.29-1.37.59-2.06.88-.15.06-.31.12-.46.17-.08.03-.15.05-.23.08l-1.31.47c-.43.16-.88.3-1.32.43l-.34.1c-1.17.37-2.36.71-3.42,1.01-1.4.39-2.79.77-4.19,1.15-.65.18-1.25.33-1.84.47-.22.05-.45.11-.67.17-.48.12-.98.25-1.48.35l-2.71.51c-.14.03-.29.05-.44.06h-.12l-.82.12-.81.1c-1.18.15-2.45.28-4.02.4-1.63.12-2.99.23-4.4.31-1.32.08-2.59.13-4.1.19h.4-.53c-.87,0-1.73.02-2.6.02h-.03c-.47,0-.95-.01-1.41-.03-.27,0-.54-.02-.82-.02-.64-.02-1.27-.04-1.91-.07-1.52-.07-3.01-.15-4.66-.25-1.29-.07-2.69-.18-4.28-.33-.22-.02-.43-.04-.65-.06-.48-.04-.97-.08-1.46-.14l-1.39-.16-1.39-.16c-.38-.04-.76-.09-1.14-.14-.83-.1-1.65-.22-2.48-.33l-.7-.09c-1.59-.22-2.81-.4-3.96-.6-1.58-.27-3.21-.57-4.83-.88-.71-.14-1.43-.28-2.14-.42-.76-.15-1.52-.3-2.27-.45-2.09-.4-4.24-.72-6.31-1.03-.75-.11-1.5-.22-2.25-.34-1.29-.2-2.6-.48-3.86-.75-1.53-.33-3.12-.67-4.7-.87h-.05c-.66-.09-1.44-.17-2.23-.19-.47-.01-.93,0-1.38.05-.57.05-1.13.21-1.61.36-.42.13-.83.35-1.21.56-.1.05-.2.11-.3.16-.56.29-1.11.57-1.67.86-.65.33-1.29.69-1.76.96-.56.32-1.1.69-1.63,1.04l-.23.16c-.17.12-.34.25-.51.38-.08.07-.17.13-.25.2l-.96.73c-.36.28-.72.58-1.07.87-.18.15-.36.3-.54.45l-.2.16c-.66.55-1.34,1.11-2.06,1.62-.16.11-.32.23-.49.33h0c.23-.74.49-1.49.72-2.15h0l.07-.03ZM216.05,19.49s-.08.05-.12.07h0s.09-.05.13-.08h-.01Z"/>
        <g class="cls-5">
          <g class="cls-5">
            <path class="cls-6" d="M219.29,76.04c-.21-.29-.32-.66-.33-1.11-.15-6.6-.41-12.17-.76-16.72-.76-.11-1.3-.16-1.62-.15-1.3.03-2.22.16-2.79.4.04,1.77.24,4.43.61,8,.34,3.78.53,6.47.57,8.05,0,.32-.08.61-.26.88-.18.27-.42.41-.7.42-.41,0-.81-.71-1.19-2.15-.55-2.14-1.07-6.63-1.54-13.47-.33-4.64-.55-9.63-.68-14.96-.05-.98-.1-2.37-.14-4.17-.01-.57.25-.86.79-.87.32,0,.64.06.98.21.34.15.58.32.75.5-.1,1.01-.14,2.2-.11,3.56.03,1.33.13,2.94.3,4.83.15,2.18.23,3.82.26,4.92l.02.85c-.03.25-.03.55-.03.9,0,.32.05.73.12,1.23.19,0,.5-.03.95-.07.44-.04.88-.1,1.32-.17,1.04-.12,1.81-.18,2.32-.2-.06-2.75-.15-5.29-.27-7.62l-.28-7.91-.03-1.28c.41,0,.77.05,1.09.19.32.14.56.31.72.53.29.34.48.94.56,1.79l.03,1.09c.06,2.72.34,7.91.83,15.58.44,6.94.71,12.15.79,15.62,0,.44-.12.84-.38,1.19-.26.35-.58.54-.96.54-.41,0-.72-.13-.94-.43Z"/>
            <path class="cls-6" d="M228.67,75.76c-.34-.28-.53-.62-.57-1.03l-.03-1.23-.02-.95c-.04-.28-.06-.62-.07-.99-.02-.66-.09-1.67-.21-3.03l-.17-3.03c-.04-1.55-.04-3.85-.02-6.92.06-2.75.07-5.06.03-6.92,0-.44-.07-1.1-.19-1.99-.12-.91-.18-1.58-.19-1.99-.05-2.24.58-3.38,1.91-3.41,1.04-.02,2.25.15,3.64.53,1.38.38,2.08.85,2.09,1.42,0,.32-.12.61-.38.89-.26.27-.58.5-.96.66-1.34-.44-2.54-.73-3.62-.87.04.47.07,1.15.09,2.04.03,1.26.04,2.4.03,3.41-.06,1.52-.08,2.66-.06,3.41l.16.76.76-.07c.25-.04.57-.06.95-.07,1.52-.04,2.28.39,2.3,1.28,0,.35-.13.64-.41.89-.28.24-.64.37-1.08.38-.57.01-1.01,0-1.33-.06l-1.18.03c.08.82.14,2.02.18,3.6.04,1.58.05,3,.05,4.27-.05,1.93-.06,3.37-.04,4.31.04,1.77.09,2.65.16,2.65l1.56-.08c.54-.04,1.18-.07,1.94-.09,1.2-.03,1.81.34,1.83,1.1,0,.44-.18.79-.57,1.03-.39.25-.87.38-1.44.39l-4.03.09c-.41,0-.79-.12-1.12-.4Z"/>
            <path class="cls-6" d="M244.14,75.4c-.5.33-1.03.5-1.6.51-.38,0-.71-.15-.98-.47-.28-.33-.42-.68-.43-1.06-.06-2.65-.03-6.19.09-10.62.08-4.71.09-8.23.04-10.57v-.33c-.24-1.99-.37-3.47-.39-4.45-.07-3,.45-4.51,1.55-4.54.32,0,.59.1.84.34.24.23.37.5.38.82,0,.38-.03.98-.1,1.8-.08.79-.11,1.39-.1,1.8.05,2.12.11,4.03.18,5.73.07,1.67.13,3.57.18,5.68-.15.48-.21,1.14-.19,1.99v.57s0,3.75,0,3.75c-.04,1.11-.04,2.37,0,3.79.05,2.18.6,3.26,1.64,3.23.06,0,.17-.01.31-.03.14-.02.34-.03.59-.04.28-.04.65-.06,1.09-.07,1.71-.04,2.57.42,2.59,1.36,0,.32-.13.59-.41.82-.28.23-.62.38-1.03.45-1.15-.35-2.56-.51-4.23-.47Z"/>
            <path class="cls-6" d="M256.84,75.11c-.5.33-1.03.5-1.6.51-.38,0-.71-.15-.98-.47-.28-.33-.42-.68-.43-1.06-.06-2.65-.03-6.19.09-10.62.08-4.71.09-8.23.04-10.57v-.33c-.24-1.99-.37-3.47-.39-4.45-.07-3,.45-4.51,1.56-4.54.31,0,.59.1.84.34s.37.51.37.82c0,.38-.02.98-.1,1.8-.08.79-.11,1.39-.1,1.8.05,2.12.11,4.03.18,5.73.07,1.67.13,3.57.18,5.68-.15.48-.21,1.14-.19,2v.57s0,3.74,0,3.74c-.04,1.11-.04,2.37,0,3.79.05,2.18.6,3.26,1.64,3.23.06,0,.17-.01.31-.03s.34-.03.59-.04c.28-.04.65-.06,1.09-.07,1.71-.04,2.57.42,2.59,1.36,0,.32-.13.59-.41.82-.28.23-.62.38-1.03.45-1.15-.35-2.56-.51-4.23-.47Z"/>
            <path class="cls-6" d="M269.72,74.74c-.71-.5-1.29-1.19-1.75-2.07-.96-1.9-1.58-3.99-1.85-6.26-.33-2.14-.52-4.21-.57-6.2,0-.38,0-.7.03-.95l-.02-.85c0-.16-.02-.24-.05-.24l-.02-.85-.03-3.32c0-1.01.1-2.63.27-4.84.12-1.52.45-3,.99-4.43.21-.64.48-1.13.82-1.46.34-.34.73-.51,1.17-.52,1.26-.03,2.41.17,3.43.61,1.02.44,1.89,1.05,2.6,1.86.65.78,1.21,1.73,1.68,2.88.47,1.14.81,2.36,1.03,3.65.22,1.32.35,2.73.38,4.21v.38c.03.98.07,1.86.12,2.65l.11,2.7c.21,9.1-1.8,13.69-6.03,13.79-.82.02-1.59-.22-2.29-.73ZM273.33,72.76c.46-.47.81-1.1,1.05-1.9.56-1.62.89-3.37.97-5.24.12-1.61.17-3.01.14-4.17-.03-1.42-.19-3.28-.46-5.58-.25-2.43-.38-4.24-.41-5.44l-.02-.85c-.09-1.2-.52-2.23-1.28-3.1-.76-.87-1.68-1.29-2.75-1.26-1.07.03-1.77.66-2.09,1.9-.29.99-.42,2.25-.39,3.8.01.6.04,1.11.08,1.52l.03,1.28-.04,2.18c-.05.67-.06,1.39-.04,2.18.04,1.71.13,3.39.26,5.07.18,2.37.55,4.66,1.11,6.9.56,2.33,1.33,3.48,2.31,3.45.57-.01,1.08-.25,1.55-.72Z"/>
            <path class="cls-6" d="M283.92,74.82c-.34-.34-.51-.76-.53-1.27-.01-.57.16-1.07.53-1.51.37-.43.82-.66,1.36-.67.57-.01,1.04.19,1.41.61.37.42.57.96.58,1.62.03,1.11-.74,1.68-2.28,1.71-.38,0-.74-.16-1.08-.5ZM284.74,66.03c-.3-.81-.47-2.03-.51-3.64-.01-.57,0-1.64.02-3.22.04-1.17.04-2.47,0-3.89l-.27-7.77-.27-7.77c-.01-.51.18-.94.59-1.32.4-.37.86-.57,1.36-.58.32,0,.59.1.81.31.23.22.34.5.35.84.06,2.78,0,6.56-.21,11.33-.23,5.28-.31,9.06-.26,11.33.04,1.67.04,2.88.01,3.63-.03.74-.1,1.24-.2,1.5-.11.26-.27.39-.49.39-.32,0-.62-.38-.93-1.16Z"/>
            <path class="cls-6" d="M293.73,74.59c-.34-.34-.52-.76-.53-1.27-.01-.57.17-1.07.53-1.51.37-.43.82-.66,1.36-.67.57-.01,1.04.19,1.41.61s.57.96.58,1.62c.03,1.11-.74,1.68-2.28,1.71-.38,0-.74-.16-1.08-.5ZM294.54,65.8c-.3-.81-.47-2.03-.51-3.64-.01-.57,0-1.64.02-3.22.04-1.17.04-2.47,0-3.89l-.27-7.77-.27-7.77c-.01-.51.18-.94.59-1.32.4-.37.86-.56,1.36-.58.32,0,.59.1.81.31.23.22.34.5.35.84.06,2.78,0,6.56-.21,11.33-.23,5.28-.31,9.06-.26,11.34.04,1.67.04,2.88.01,3.63-.03.74-.1,1.24-.2,1.5-.1.26-.27.38-.49.39-.32,0-.63-.38-.93-1.16Z"/>
          </g>
        </g>
      </g>
    </g>
  </g>
</svg>