<?xml version="1.0" encoding="UTF-8"?>
<svg id="_圖層_2" data-name="圖層 2" xmlns="http://www.w3.org/2000/svg" viewBox="0 0 260.01 140.27">
  <defs>
    <style>
      .cls-1 {
        fill: #543c1a;
      }

      .cls-1, .cls-2, .cls-3 {
        stroke-width: 0px;
      }

      .cls-2 {
        fill: #fff;
      }

      .cls-3 {
        fill: #f5f5f5;
      }
    </style>
  </defs>
  <g id="_圖層_3" data-name="圖層 3">
    <path class="cls-2" d="M259.21,8.04c-1.18-2.27-3.43-3.65-6.02-3.69L110.81,1.72c-13.67-.25-27.33-.51-40.99-.75-5.45-.1-11.03-.27-16.42-.44-8.5-.26-17.28-.53-25.95-.53-7.43,0-14.02.2-20.14.6-2.92.18-5.24,2.21-5.75,5.04-.08.44-.1.88-.09,1.32-.44.53-.8,1.13-1.05,1.79-.92,2.42-.27,5.08,1.67,6.8,17.46,15.37,36.34,29.69,54.6,43.54,7.61,5.77,15.48,11.74,23.1,17.67,8.03,6.25,16.15,12.7,24.01,18.95,16.27,12.92,33.06,26.27,50.18,38.73.1.75.33,1.5.7,2.19,1.18,2.21,3.53,3.63,6,3.63,1.81,0,3.5-.74,4.76-2.11,5.56-6.08,10.58-12.74,15.44-19.18,1.87-2.48,3.74-4.96,5.63-7.4l1.92-2.47c1.7-2.18,3.4-4.37,5.1-6.57,2.39.72,6.04,1.7,11.7,3.1,0,0,0,0,0,0,1.89.47,4.07,1,6.32,1.49,1.06.7,2.3,1.07,3.6,1.07,3.67,0,6.76-2.98,6.91-6.65.61-16.17-.21-29.25-2.56-40.83l.14-.25c3.27-3.66,6.51-7.33,9.74-11,9.17-10.4,18.65-21.16,28.58-31.17,1.54-1.54,2.21-3.63,1.94-5.65.28-1.55.05-3.19-.69-4.61Z"/>
    <g>
      <path class="cls-1" d="M253.1,9.35c1.83.03,2.35,2.06,1.56,3.22.42.64.46,1.5-.24,2.2-13.61,13.73-25.98,28.37-38.85,42.76l-1.99-1.77c10.81-15.31,23.84-29.28,37.13-42.48-40.12-.74-80.23-1.48-120.35-2.21-20.21-.37-40.43-.74-60.63-1.13-19.15-.37-38.59.09-57.69-1.54l-.68,2.35c-1.28-.37-2.54-.74-3.82-1.11-.92-.27-.89-1.26-.36-1.74-1.08-.49-.97-2.21.45-2.3,20.58-1.37,41.5,0,62.1.37,20.21.36,40.43.74,60.63,1.11,40.9.76,81.82,1.51,122.74,2.27Z"/>
      <path class="cls-3" d="M130.36,11.07c40.12.73,80.23,1.47,120.35,2.21-13.29,13.2-26.32,27.17-37.13,42.48-.18-.12-.4-.22-.65-.28-34.12-8.09-68.22-16.18-102.34-24.24C77.83,23.5,45.11,14.68,12.03,8.4c19.11,1.63,38.54,1.17,57.69,1.54,20.21.39,40.43.76,60.63,1.13Z"/>
      <path class="cls-1" d="M213.98,58.85c3.21,13.84,3.62,28.39,3.09,42.52-.06,1.51-2,2.51-3.12,1.29-.04-.04-.07-.09-.12-.15-2.48-.52-4.94-1.11-7.39-1.72l1.01-3.15c.98.3,1.94.62,2.91.94-3.65-4.34-7.01-8.88-10.02-13.7l-2.38-.77c-16.14-5.2-31.85-12.6-47.64-18.77-15.72-6.13-31.47-12.17-47.27-18.11C73.39,36.1,43.34,25.95,13.77,14.64l.88-2.78c30.64,9.49,60.74,20.99,90.76,32.2,16.26,6.07,32.48,12.23,48.65,18.54,15.23,5.94,31.22,11.18,45.88,18.47.79-.53,1.96-.55,2.63.49,3.34,5.32,6.96,10.33,10.99,15.1.21-12.53-.79-24.82-1.66-37.35l2.09-.46Z"/>
      <path class="cls-1" d="M215.56,57.53s-.03.04-.04.06l-.86,1.54c-.22-.13-.43-.25-.65-.37-.01-.01-.03-.03-.06-.04.01.04.01.09.03.13l-2.09.46h-.01c-34.09-8.17-68.18-16.32-102.26-24.51C76.9,26.93,43.7,20.06,11.35,10.75l.68-2.35c33.08,6.28,65.8,15.1,98.55,22.83,34.12,8.06,68.22,16.15,102.34,24.24.25.06.48.16.65.28l1.99,1.77Z"/>
      <path class="cls-3" d="M211.88,59.31c.88,12.53,1.87,24.82,1.66,37.35-4.02-4.77-7.65-9.78-10.99-15.1-.67-1.04-1.84-1.02-2.63-.49-14.65-7.29-30.64-12.53-45.88-18.47-16.17-6.31-32.4-12.47-48.65-18.54C75.38,32.85,45.29,21.35,14.64,11.86c-2.38-.74-4.75-1.45-7.13-2.17v-.06c1.29.37,2.55.74,3.83,1.11,32.35,9.31,65.55,16.18,98.26,24.05,34.09,8.2,68.18,16.35,102.26,24.51h.01Z"/>
      <path class="cls-3" d="M210.35,98.58c-.97-.31-1.93-.64-2.91-.94-4.45-1.41-8.97-2.72-13.47-3.96,2.17-2.9,4.31-5.82,6.35-8.8,3.01,4.83,6.37,9.37,10.02,13.7Z"/>
      <path class="cls-1" d="M193.98,93.68c2.17-2.9,4.31-5.82,6.35-8.8l-2.38-.77c-6.9,7.76-13.29,16.03-19.73,24.17-5.55,6.99-11.49,13.87-16.72,21.14-.09-.18-.22-.34-.4-.49-25.21-21.04-51.93-40.47-77.89-60.6C60.19,50.45,37.58,31.52,13.77,14.64l.88-2.78c-2.38-.74-4.75-1.45-7.13-2.17-.12-.03-.22-.07-.34-.1-.3-.09-.55-.04-.77.04-1.02-.12-1.94,1.35-1.02,2.17,24.6,21.65,51.62,40.89,77.47,61.02,25.27,19.67,50.08,40.25,76.02,59,.25.18.5.27.76.3-.15.22-.31.45-.46.67-1.04,1.54,1.32,3.37,2.58,2,7.5-8.21,14-17.5,20.81-26.28,3.06-3.93,6.15-7.88,9.19-11.86.01.01.03.01.04.03.69.55,12.28,3.53,14.64,4.11l1.01-3.15c-4.45-1.41-8.97-2.72-13.47-3.96Z"/>
      <path class="cls-3" d="M197.96,84.1c-6.9,7.76-13.29,16.03-19.73,24.17-5.55,6.99-11.49,13.87-16.72,21.14-.09-.18-.22-.34-.4-.49-25.21-21.04-51.93-40.47-77.89-60.6C60.19,50.45,37.58,31.52,13.77,14.64c29.57,11.31,59.62,21.47,89.27,32.59,15.8,5.94,31.55,11.98,47.27,18.11,15.8,6.16,31.5,13.57,47.64,18.77Z"/>
    </g>
  </g>
</svg>