<?xml version="1.0" encoding="UTF-8"?>
<svg id="_圖層_2" data-name="圖層 2" xmlns="http://www.w3.org/2000/svg" viewBox="0 0 539.25 538.36">
  <defs>
    <style>
      .cls-1 {
        fill: #222221;
      }

      .cls-1, .cls-2 {
        stroke-width: 0px;
      }

      .cls-2 {
        fill: #fff;
      }
    </style>
  </defs>
  <g id="OBJECTS">
    <g>
      <path class="cls-2" d="M147.69,454.54c-.07-.43-.14-.85-.25-1.25-2.99-11.7-15.92-17.25-26.89-13.38-1.77.62-3.58,1.56-5.34,2.74-2.01-1.06-4.22-1.73-6.62-1.85-9.47-.47-15.21,6.35-16,13.88-2.35-.47-4.78-.66-7.3-.47-8.01.6-11.17,10.67-4.12,15.2,1.47.94,3.03,1.74,4.65,2.4-2.37,6.53-1.64,13.5,5.61,17.5,4.89,2.7,10.54,1.23,15.06-1.66,4.94,6.31,12.34,10.34,20.56,8.61,6.56-1.39,11.32-6.47,12.75-12.71,7.43-.62,14.1-4.22,16.3-11.81,2.16-7.45-1.58-14.53-8.41-17.18Z"/>
      <path class="cls-1" d="M140.38,457.28c7.42-2.7,14.94,5.44,13.36,13.56-1.68,8.64-10.69,9.91-17.74,7.15,2.14,5.83-.61,13.01-7.17,15.42-9.45,3.48-17.6-3.17-20.19-11.68-3.68,4.82-10.33,7.34-16.24,4.88-7.08-2.93-8.25-11.94-2.87-16.48-5.87-1.27-12.7-4.94-7.97-11.3,3.58-4.81,10.22-5.91,15.31-3.41,0-3.6,2.04-7.39,5.84-8.13,3.04-.6,5.74,1.02,6.96,3.51,4.58-7.23,12.85-12,21.57-8.99,6.55,2.26,10.46,9.02,9.14,15.47ZM150.24,472.97c4.59-7.31-3.29-16.81-10.97-12.52-.13.25-.25.51-.39.76-.41.69-1.28.32-1.36-.31-.6-.35-.93-1.23-.3-1.76.38-.32.77-.59,1.15-.84,2.02-7.52-3.6-14.92-11.78-15.21-7.5-.26-13.3,4.9-16.38,11.32-.5,1.03-2.11.5-2.09-.56-1.66-5.16-4.4-5.78-8.22-1.86-.74,1.37-1.04,2.81-.91,4.31,0,.15-.03.29-.08.4.12.1.24.18.36.27.49.41-.15,1.2-.67.87-3.61-2.3-8.27-2.66-12.09-.6-1.42.77-3.44,2.24-4,3.88-1.93,5.66,6.86,7.07,10,7.32.94.08,1.6,1.52.54,2-8.08,3.63-4.93,14.55,3.51,14.93,4.86.23,9.24-2.54,11.42-6.66-.13-.86-.19-1.72-.2-2.59,0-.8.96-.86,1.29-.3,0-.03,0-.05.02-.08.32-1.36,2.38-.78,2.08.58-.26,1.2-.7,2.34-1.27,3.42,1.9,6.76,6.83,12.77,14.63,12.24,8.07-.55,13.33-10.36,7.38-16.23-.5-.37-.97-.76-1.41-1.18-.98-.94.35-2.73,1.47-1.91.08.06.15.14.24.2h0c.2.18.43.37.64.55.12.11.25.2.37.31,4.9,3.87,13.25,5.24,17.02-.75Z"/>
    </g>
    <g>
      <path class="cls-2" d="M489.67,55.56c-.07-.43-.14-.85-.25-1.25-2.99-11.7-15.92-17.25-26.89-13.38-1.77.62-3.58,1.56-5.34,2.74-2.01-1.06-4.22-1.73-6.62-1.85-9.47-.47-15.21,6.35-16,13.88-2.35-.47-4.78-.66-7.3-.47-8.01.6-11.17,10.67-4.12,15.2,1.47.94,3.03,1.74,4.65,2.4-2.37,6.53-1.64,13.5,5.61,17.5,4.9,2.7,10.54,1.23,15.06-1.66,4.94,6.31,12.34,10.34,20.56,8.61,6.56-1.39,11.32-6.47,12.75-12.71,7.43-.62,14.1-4.22,16.3-11.81,2.16-7.45-1.58-14.53-8.41-17.18Z"/>
      <path class="cls-1" d="M482.37,58.3c7.42-2.7,14.94,5.44,13.36,13.56-1.68,8.64-10.69,9.91-17.74,7.15,2.14,5.83-.61,13.01-7.17,15.42-9.45,3.48-17.6-3.17-20.19-11.68-3.68,4.82-10.33,7.34-16.24,4.88-7.08-2.93-8.25-11.94-2.87-16.48-5.87-1.27-12.7-4.94-7.97-11.3,3.58-4.81,10.22-5.91,15.31-3.41,0-3.6,2.04-7.39,5.84-8.13,3.04-.6,5.74,1.02,6.96,3.51,4.58-7.23,12.85-12,21.57-8.99,6.55,2.26,10.46,9.02,9.14,15.47ZM492.23,73.99c4.59-7.31-3.29-16.81-10.97-12.52-.13.25-.25.51-.39.76-.41.69-1.28.32-1.36-.31-.6-.35-.93-1.23-.3-1.76.38-.32.77-.59,1.15-.84,2.02-7.52-3.6-14.92-11.78-15.21-7.5-.26-13.3,4.9-16.38,11.32-.5,1.03-2.11.5-2.09-.56-1.66-5.16-4.4-5.78-8.22-1.86-.74,1.37-1.04,2.81-.91,4.31,0,.15-.03.29-.08.4.12.1.24.18.36.27.49.41-.15,1.2-.67.87-3.61-2.3-8.27-2.66-12.09-.6-1.42.77-3.44,2.24-4,3.88-1.93,5.66,6.86,7.07,10,7.32.94.08,1.6,1.52.54,2-8.08,3.63-4.93,14.55,3.51,14.93,4.86.23,9.24-2.54,11.42-6.66-.13-.86-.19-1.72-.2-2.59,0-.8.96-.86,1.29-.3,0-.03,0-.05.02-.08.32-1.36,2.38-.78,2.08.58-.26,1.2-.7,2.34-1.27,3.42,1.9,6.76,6.83,12.77,14.63,12.24,8.07-.55,13.33-10.36,7.38-16.23-.5-.37-.97-.76-1.41-1.18-.98-.94.35-2.73,1.47-1.91.08.06.15.14.24.2h0c.2.18.43.37.64.55.12.11.25.2.37.31,4.9,3.87,13.25,5.24,17.02-.75Z"/>
    </g>
    <g>
      <path class="cls-2" d="M109.43,101.06c-4.2-6.18-13.59-8.21-20.62-7.56-1.8.17-3.55.46-5.25.9-1.01-5.53-4.43-10.41-9.96-12.59-8.46-3.33-17.72.77-24.97,7.18-.76-.61-1.58-1.16-2.47-1.64-6.59-3.5-14.94-1.96-19.19,4.36-.92,1.36-1.58,2.8-2.05,4.28-1.42-.72-2.99-1.21-4.61-1.42-6.91-.87-17.38,3.2-19.74,10.31-2.76,8.33,5.28,14.14,12.35,16.1.15.04.29.07.44.11.39,4.83,2.7,9.56,7.3,12.89,4.85,3.52,10.06,4.16,14.64,2.84,3.17,3.39,7.25,5.95,11.68,7.19,9.37,2.62,21.15-1.59,27.24-9.4,5.06,4.18,14.98,1.99,15.04-6.6.01-1.5-.08-2.97-.23-4.42,3.81-.31,7.57-1.16,11.17-2.59,8.16-3.24,15.23-11.13,9.24-19.95Z"/>
      <path class="cls-1" d="M107.52,109.56c1.19,11.51-10.95,13.84-20.32,12.28,1.06,2.75.24,6.29-2.69,8.46-3.61,2.67-8.34,2.17-12.3.62-.67-.26-1.38-.53-2.06-.84-.36,8.65-7.43,16.07-16.81,15.47-8-.5-13.58-6.54-14.61-13.65-3.75,2.42-9.5,3.23-12.99,2.14-7.46-2.32-10.47-11.4-6.15-17.5-3.81-.15-7.8-.73-10.53-3.6-2.34-2.46-3.14-5.94-1.42-8.96,3.78-6.65,13.4-7.49,19.88-4.63.48-4.24,3.86-7.39,8.17-7.72,4.21-.33,7.69,2.29,9.84,5.66,3.57-8.05,11.62-13.28,20.73-12.16,4.3.53,8.98,2.46,11.64,6.02,2.83,3.77,1.53,6.65.65,10.4,9.03-3.64,27.5-6.37,28.97,8.01ZM97.69,119.54c5.8-1.95,9.71-8.15,5.76-13.75-5.83-8.26-16.6-4.55-24.37-2.02-.39.13-.71.06-.94-.12v.02c-.12.85-1.49.62-1.46-.2.11-4.26,2.34-8.46-1.34-12.06-2.96-2.87-7.43-4.2-11.46-4.21-8.15,0-14.72,5.52-17.07,13.14-.26.86-1.67,1.23-2.1.27-2.83-6.42-12.84-10.14-15.08-.95-.06.26-.22.44-.41.57.7.5.03,1.59-.77,1.19-4.84-2.42-10.49-2.69-15.25.12-4.45,2.63-6.04,8.53-.59,11.5,2.76,1.51,6.14,1.42,9.2,1.47.88.01,1.41,1.15.74,1.78-4.68,4.38-3.38,12.1,2.18,15.08,2.63,1.41,6.08,1.45,8.89.62,1.49-.44,3.53-1.45,4.94-2.85.04-1.92.41-3.87,1.16-5.77.29-.77,1.55-1.21,1.98-.26,1.28,2.85.68,5.21-.91,7.04.28,6.48,4.77,12.29,11.98,13.1,8.98,1,15.44-6.25,15.12-14.53-.84-.72-1.46-1.63-1.6-2.86-.03-.25.15-.47.34-.6s.39-.27.58-.4.38-.12.55-.04c.53-.57,1.64-.57,1.89.4.21.85.35,1.71.43,2.55,2.04,1.02,4.78,1.99,4.97,2.02,2.43.62,4.82.4,7.15-.64,3.94-2.2,3.81-5.11-.38-8.74-.27-.11-.53-.22-.78-.33-1.07-.47-.55-2.32.6-2.22,1.4.13,2.55.6,3.47,1.27,4.06,1.32,8.52,1.79,12.58.41Z"/>
    </g>
    <g>
      <path class="cls-2" d="M215.07,5.07c-6.61-5.63-16.37-5.84-24.47-4.12-4.02.85-7.82,2.49-11.17,4.78-8.33-8.43-19.75-3.21-24.99,5.7-8.77-2.92-18.89-2.02-27.42,1.48-4.66,1.91-6.67,5.4-5.93,10.44,1,6.78,7.87,9.4,13.78,10.21,2.2.3,4.39.51,6.59.65-1.53,5.49-1.05,11.03,3.68,14.85,5.02,4.05,10.37,2.72,15.23-.65.21.28.42.57.65.85,4.96,6.02,13.09,8.81,20.74,7.16,9.09-1.95,14.53-10.17,14.94-18.45.4-.08.79-.14,1.19-.23,7.42-1.63,16.48-4.8,20.84-11.47,4.57-6.99,2.49-15.96-3.67-21.2Z"/>
      <path class="cls-1" d="M206.85,11.39c9.29,11.41-1.81,23.45-14.04,23.36,4.45,6.83-2.89,17.16-10.42,18.84-7.97,1.79-14.68-4.09-16.33-11.29-2.7,4.54-7.55,7.57-13.21,5.4-7.59-2.91-6.24-11.6-3.69-17.69-4.46-.06-9.32-.63-12.13-4.49-1.88-2.59-2.03-5.77-.31-8.49,4.49-7.08,15.24-6.49,21.47-2.13-.03-4.43,2.99-8.73,7.81-8.97,4.26-.2,7.49,3.01,8.44,6.82,7.29-9.88,24.36-11.27,32.41-1.36ZM205.01,27.85c4.42-4.62,3.47-11.82-.86-16.17-8.33-8.37-24.37-5.76-29.58,4.67-.43.86-1.95.48-1.85-.5.97-10.43-14.14-9.77-12.96.38.1.79-1.16.98-1.4.3-5.1-3.05-11.28-4.37-16.76-1.28-4.65,2.62-5.1,8.56-.37,11.18,2.85,1.58,6.43,1.45,9.59,1.42.87-.01,1.28.91.94,1.62-2.45,5.09-4.94,14.66,3.03,16.48,6.36,1.46,10.25-4.55,11.16-9.85.29-1.45,2.44-.82,2.2.6-1.37,6.95,3.72,14.8,11.22,14.9,7.33.09,17.89-11.28,9.65-17.52-1.15-.88-.07-2.85,1.17-1.99.17.13.34.26.5.39.1-.02.19-.06.3-.05,5.04.09,10.37-.76,14.02-4.58Z"/>
    </g>
    <g>
      <path class="cls-2" d="M316.85,74.46c1-3.44.89-6.94-.99-10.15-3.32-5.68-11.06-6.53-16.84-4.92-.59.16-1.17.36-1.74.57-.62-1.07-1.32-2.1-2.11-3.07-5.96-7.25-15.55-9.27-24.49-7.97-9.98,1.45-19.88,7.12-24.94,15.25-7.16-.9-14.72,1.21-20.8,6.37-6.99,5.94-8.4,16.42.34,21.56,1.47.87,3.06,1.54,4.73,2.06-1.77,6.93-.25,14.47,6.46,18.47,6.67,3.98,14.07,3.22,20.34-.19,5.85,8.43,16.45,13.81,27.36,12.68,9.52-.99,19.05-5.77,24.04-14.22.67-1.14,1.21-2.3,1.64-3.48.54,0,1.08-.03,1.62-.07,8.51-.68,17.37-6.35,20.04-14.78,3.23-10.18-6.08-16.19-14.66-18.11Z"/>
      <path class="cls-1" d="M327.01,84.94c3.37,4.01,3.59,9.04.45,13.23-5.18,6.94-14.8,8.29-22.21,4.74,3.67,10.4-5.02,21.81-16.32,22.58-13.38.92-24.22-9.84-25.69-22.47-1.36,4.11-3.64,8-7.37,10.15-4.67,2.69-11.45,2.45-16.03-.36-4.4-2.7-5.78-8.01-4.57-12.84,1.14-4.57,4.34-8.01,7.9-10.92-8.73-.42-18.55-4.87-15.04-15.39,3.72-11.16,17.76-10.31,26.15-5.82.07.04.12.09.17.14l1.52.2c-.02.09-.03.18-.04.27-.09.79-1.11.95-1.43.4-.15.27-.43.45-.77.31-7.26-2.95-17.98-4.73-22.67,3.57-6.06,10.73,7.78,14.54,15.63,13.9,1.3-.1,1.44,1.59.6,2.21-3.72,2.72-7.72,5.92-9.36,10.42-1.83,5.05-.21,10.28,4.93,12.37,4.79,1.96,10.88,1.39,14.52-2.53,2.97-3.22,3.78-7.59,5.18-11.58.41-1.19,2.03-.75,1.92.44.1.12.18.27.18.49.17,12.12,8.6,23.91,21.38,24.69,12.13.75,22.92-12.11,14.9-23.16-.86-1.19.95-2.33,1.92-1.48,5.94,5.21,15.67,5.38,21.42-.31,4.67-4.61,3.48-10.91-2.02-14.26-3.51-2.14-7.78-2.59-11.76-3.2-1.23-.19-.93-2.3.29-2.17.03,0,.06,0,.09,0,5.78.65,12.17,1.66,16.13,6.37Z"/>
      <path class="cls-1" d="M310.27,61.86c5,3.7,6.07,12,1.51,16.42-.26.26-.6.33-.9.27-.66-.14-1.2-.85-.74-1.53,2.89-4.18,3.09-9.8-1.21-13.18-4.87-3.83-11.7-.67-14.15,4.31-.56,1.13-2,.42-2.12-.58-1.12-9.1-9.22-16.84-18.59-16.66-9.41.19-16.98,8.25-18.1,17.27l-1.52-.2c.71-10.13,9.22-19,19.62-19.25,9.68-.23,17.82,6.95,20.26,15.92,3.78-4.62,10.79-6.61,15.94-2.79Z"/>
    </g>
    <g>
      <path class="cls-2" d="M423,479.42c-5.93-2.72-11.89-3.09-17.74-2.1-.05-.71-.12-1.43-.24-2.16-1.42-8.17-7.97-14.81-15.91-17.03-10.67-2.99-19.49,1.16-26.12,8.17-4.61-3.43-10.71-4.83-17.31-2.5-6.59,2.33-11.83,7.68-13.95,14.2-2.44.02-4.9,1.16-6.48,3.09-8.28-1.92-16.66-.77-20.11,7.86-2.79,6.97.95,14.16,7.33,17.49,1.55.81,3.06,1.28,4.56,1.52-.01.53,0,1.07.03,1.62.44,6.53,4.33,12.66,10.7,14.81,5.22,1.76,9.71,1.07,13.49-1.07.11.14.22.28.33.42,6.54,8.14,16.05,14.58,26.81,14.63,9.88.05,20.02-5.52,23.21-15.25,0-.02.01-.05.02-.08,5.03,1.43,10.29,2.11,15.69,1.87,11.13-.5,23.36-5.49,28.15-16.23,5.2-11.63-1.38-24.17-12.48-29.26Z"/>
      <path class="cls-1" d="M416.27,479.28c8.53,2.06,17.44,7.13,16.53,17.16-.86,9.51-9.29,16.57-17.86,19.3-7.85,2.5-16.37,1.88-23.77-1.45,1.02,2.6,1.07,5.6.18,8.5-1.78,5.85-6.96,9.3-12.79,10.37-9.94,1.82-25.72-2.35-28.99-12.66-4.32,5.7-14.43,6.65-20.85,3.79-8.04-3.58-12.73-14.34-6.61-20.85-4.07.06-8.21-.4-11.5-2.99-3.2-2.53-4.78-6.53-3.23-10.44,3.48-8.75,12.98-7.65,20.49-5.06l-.46,1.41c-5.82-1.86-12.37-2.84-16.64,2.34-3.85,4.66-.52,10.04,4.51,11.71,3.28,1.08,6.9.8,10.29.61,1.16-.07,1.52,1.58.57,2.13-10,5.86-2.16,17.5,6.03,19.89,5.93,1.72,15.08-.3,16.78-6.8.02-.91.13-1.84.33-2.82.28-1.37,2.32-.98,2.35.32.03,1.08-.07,2.08-.29,3.01.14,10.6,14.92,14.84,23.86,14.37,5.1-.27,10.59-2.22,13.04-7.04,2.19-4.29,1.83-9.94-2.39-12.8-1.27-.88-.07-2.97,1.23-2.09,13.05,9.13,37.82,7.6,42.83-10.44,2.87-10.34-6.51-15.34-14.98-17.28-7.7-1.77-17.19-2.82-23.17,3.45-.46.49-1.05.42-1.46.11-.06.08-.13.16-.19.24-.55.65-1.69-.24-1.18-.91,1.14-1.51,2.27-3.15,3.18-4.89l1.71.55c-.1.17-.19.34-.29.5,6.6-4.04,15.38-3.01,22.74-1.24Z"/>
      <path class="cls-1" d="M395.89,469.32c.83,3.82-.24,7.43-2.07,10.7l-1.71-.55c1.56-2.96,2.47-6.2,1.71-9.58-1.25-5.51-6.62-9.37-12.11-9.67-12.09-.65-18.79,11.36-19.9,21.79-.15,1.38-1.86,1.6-2.36.32-2.45-6.19-7.2-14.89-15.31-11.62-5.92,2.38-6.89,10.08-7.64,15.57-.14,1-1.78,1.17-2.18.28-.22-1.35-1.09-1.84-2.61-1.47.87.19.92,1.05.5,1.59,0,0,.02.01.03.01.68.31.18,1.45-.51,1.2-1.36-.51-2.82-1.05-4.32-1.53l.46-1.41.6.21c-.59-1.1-.57-2.46.54-3.52,2.03-1.93,4.15-.68,5.65,1.07,1.2-6.62,3.78-14.03,11.25-15.11,6.99-1.01,11.4,4.62,14.2,10.33,2.64-11.2,11.16-22.4,24.08-19.72,5.51,1.14,10.48,5.5,11.7,11.11Z"/>
    </g>
    <g>
      <path class="cls-2" d="M180.3,335.89c-1.55-2.51-3.46-4.57-5.63-6.24,2.21-9.37-5.76-14.89-14.26-15.21-.47-.02-.94-.02-1.4,0-.22-3.05-1.67-6.1-4.84-8.98-4.74-4.31-11.84-5.41-17.71-3.06-1.98-3.18-4.95-5.71-8.33-7.47-9.35-4.86-21.48-5.68-31.6-3.08-9.09,2.34-16.97,8.58-21.74,16.44-3.58-4.66-9.41-7.63-15.47-7.21-4.3.3-8.04,2.04-10.94,4.67-4.75,1.1-9.1,3.97-11.93,8.52-7.75-.52-15.56,1.18-21.95,5.54-4.84,3.3-7.61,8.89-5.93,14.74,1.56,5.46,6.54,9.01,11.59,10.92-.02.05-.05.11-.08.16-3.69,8.29-.91,17.89,8.34,20.77,6.52,2.03,12.95.52,18.45-2.97,1.31,3.65,3.49,7.09,6.81,10.18,8.53,7.93,21.08,12.39,32.71,11.72,9.1-.52,17.9-3.94,24.18-10.33,7.19,5.01,16.59,3.72,23.2-2.08,2.4-2.11,4.22-4.48,5.53-7.02,11.15,6.39,26.12,5.86,36.1-2.68,7.97-6.81,10.5-18.25,4.89-27.36Z"/>
      <path class="cls-1" d="M172.16,335.64c10.34,3.25,12.12,16.74,4.77,24.69-10.05,10.89-25.73,6.35-36.9-.2.36,6.82-4.9,13.15-11.84,14.24-7.16,1.13-13.91-3.38-17.39-9.43-1.94,14.74-16.89,23.92-31.34,21.75-11.71-1.76-28.76-12.83-27.55-26.13-5.75,5.65-14.57,7.54-21.72,2.3-7.44-5.46-7.69-16.18-1.05-21.9-8.3-1.13-18.35-5.37-13.78-15.56,4.09-9.13,15.84-10.27,23.31-5.03-.86-7.56,4.69-14.77,12.04-16.65,7.73-1.98,15.33,2.11,19.9,8.21,1.46-14.5,17.14-22.18,30.82-22.09,7.08.05,14.57,2.07,19.68,7.21,5.05,5.08,6.74,12.19,7.85,19.07,2.2-5.8,10.4-9.16,16.16-8.76,8.85.61,9.72,8.1,7.73,14.81,5.24-2.31,11.57-3.13,16.24.77,3.6,3.01,5.44,8.52,3.07,12.7ZM179.35,349.55c.24-5.98-4.05-11.43-10.04-12.19-1.47-.18-1.49-2.5,0-2.33l.6.09c2.09-4.49.26-9.38-4.26-11.56-4.71-2.28-9.96-.56-14.23,1.84-.77.43-2.06-.32-1.66-1.28,2.68-6.34,3.17-15.08-6.29-14.6-5.26.28-13.18,3.68-13.44,9.77-.04.87-1.12,1.01-1.5.44-.58.24-1.29.09-1.42-.71-1.07-6.65-2.12-13.95-6.62-19.28-4.3-5.1-11.08-7.32-17.56-7.63-13.93-.68-31.07,7.13-30.31,23.26.05,1.04-1.47,1.44-1.96.53-3.5-6.56-10.43-11.56-18.15-10.46-7.77,1.1-12.87,8.16-12.36,15.79,0,.12-.02.22-.07.31.19.44-.45.93-.91.57-6.65-5.2-18.27-4.47-21.95,4.07-4.39,10.19,7.71,12.59,14.8,12.96,1.01.05,1.48,1.42.53,1.96-8.26,4.65-7.89,16.11.12,20.82,7.84,4.59,16.83.26,20.91-7.11.68-1.23,2.48-.14,1.87,1.1-7.33,14.79,13.76,27.66,25.88,28.83,13.46,1.31,26.9-8.01,27.52-22.13.02-.44.27-.73.58-.89.13-.47.91-.66,1.19-.15,3.19,5.64,8.34,10.79,15.27,10.83,7.26.04,13.46-7.09,11.53-14.23-.26-.95.83-1.85,1.69-1.3,8.68,5.52,19.29,10.16,29.57,6.2,5.54-2.14,10.42-7.3,10.67-13.52Z"/>
    </g>
    <g>
      <path class="cls-2" d="M521.34,176.79c-3.11-.94-6.32-1.42-9.53-1.47-1.48-7.95-8.17-12.76-16.32-12.35-5.28.26-10.82,1.31-15.59,3.76-1.17-7.35-6.52-13.54-13.39-16.87-14.39-6.96-31.04-1.35-41.16,10-4.91-2.07-10.59-2.51-15.81-.59-4.98,1.84-8.93,5.35-11.37,9.78-2.87-1.04-5.84-1.64-9.02-1.31-5.79.61-11.51,4.11-13.13,10-2.24,8.13,3.1,12.33,9.87,14.02-1.87,5.89-1.61,12.04,3.28,17.46,5.64,6.25,14.84,7.11,22.26,3.93,4.92,22.3,41.98,20.62,55.03,4.64.58-.71,1.1-1.47,1.6-2.24,4.73.69,9.73-.16,14.01-2.29,3.58,2.84,8.31,4.31,13.25,3.37,5.93-1.13,10.03-4.3,12.67-8.51.4.12.8.25,1.22.35,8.74,2.12,24.06-1.13,28.66-9.7,5.82-10.86-7.86-19.37-16.51-21.98Z"/>
      <path class="cls-1" d="M532.9,197.46c.2,7.95-7.91,10.56-14.43,11.76-4.7.86-9.48.49-13.4-1.72.04.74-.05,1.5-.31,2.26-1.11,3.29-4.55,5.01-7.66,5.89-5.86,1.65-14.26.07-15.9-5.94-1.38,2.07-3.58,3.59-6.23,4.13-4.21.86-8-.96-10.95-3.73.41,12.04-12.66,19.19-24.13,18.01-10.95-1.13-21.99-8.31-23.44-19.17-3.83,5.41-11.5,8.03-17.84,4.93-8.45-4.14-9.7-15.15-5.46-22.7-6.27.59-12.94-4.52-12.14-11.32.87-7.48,10.24-10.96,16.19-7.07.16.1.25.25.26.4.05.41-.36.84-.83.58-4.8-2.69-12.28-.31-13.58,5.46-1.51,6.73,6.33,11.54,12.04,9.43,1.07-.39,1.55,1.01.99,1.71-4.84,6.11-4.6,16.72,2.57,21.12,6.77,4.14,16.81-.43,17.93-8.28.03-.15.05-.3.07-.45.23-1.2,2.29-.92,2.14.29-.01.09-.03.19-.05.29h.01c-5.38,28.37,49.43,29.87,42.46,3.44-.35-1.34,1.37-1.89,2.1-.89,2.19,3,5.07,5.38,8.86,5.74,4.5.43,8.48-2.95,8.38-7.49-.03-1.47,2.23-1.46,2.27,0,.01.43-.02.85-.07,1.27.24.18.41.44.4.79-.3,6.16,5.37,8.44,10.64,7.83,1.95-.23,3.97-.65,5.72-1.57,2.11-1.12,4.47-3.85,3.63-6.26-1.01-.8-1.94-1.75-2.76-2.86-.75-1.02.97-2.32,1.74-1.35,4.08,5.17,10.44,6.1,16.6,4.77,6.9-1.49,13.94-4.94,10.81-13.17-3.65-9.56-16-13.33-24.94-9.48-1.2.52-2.46-.84-1.46-1.88,6.78-7.06-1-16.29-8.93-16.82-6.61-.44-13.58,2.68-17.09,8.3-.09.91-.22,1.82-.41,2.74-.32,1.48-2.61.85-2.28-.63,2.66-12.1-6.29-23.55-18.58-24.14-11.92-.57-28.98,5.87-27.31,20.38.13,1.21-1.83,1.43-2.1.28-1.5-6.38-7.07-11.42-13.85-11.32-6.92.11-11.98,5.75-13.5,12.08-.15.64-1.13.58-1.26.03-.01-.06-.02-.13-.01-.2.81-7.17,6.8-13.22,14.08-13.83,6.11-.5,11.6,2.89,14.62,7.9,2.19-12.79,19.1-18.67,31-17.41,11.11,1.17,19.16,10.48,19.66,21.09,5.07-6.45,14.69-9.42,22.41-6.38,6.63,2.61,10.22,10.41,7.32,16.61,11.12-2.45,25.66,3.8,26,16.55Z"/>
    </g>
    <g>
      <path class="cls-2" d="M517.87,366.35c-3.46-2.79-7.32-4.44-11.38-5.36,1.06-4.74-.14-9.41-4.96-12.75-11.56-8.02-28.74-5.4-37.73,5.25-1.17,1.39-2.21,2.86-3.11,4.39-1.59-1.46-3.52-2.44-5.92-2.46-2.79-.03-5.31,1.17-6.98,3.17-1.16-.29-2.32-.57-3.48-.86-6.35-1.61-14.03-2.28-18.14,4.08-4.62,7.15-.99,12.76,5.1,16.46-4.08,5.1-5.96,11.1-2.35,17.11,4.78,7.95,12.58,7.87,19.58,4.46,4.68,8.39,13.56,14.03,24.1,11.97,7.18-1.41,12.38-5.98,15.14-11.71,1.71.66,3.47,1.2,5.3,1.59,10.53,2.25,22.36,0,28.66-9.48,5.59-8.41,4.01-19.52-3.83-25.84Z"/>
      <path class="cls-1" d="M516.82,367.6c4.91,4.43,6.93,11.3,3.58,17.28-5.94,10.59-23.24,13.36-33.32,6.64.95,6.91-6.15,13.62-13.54,14.46-8.77,1-17.81-3.17-19.9-11.05-3.85,5.02-12.16,6.44-18.1,3.52-3.6-1.77-5.96-5.08-5.51-9.2.54-4.89,4.33-8.11,8.19-10.69-4.97-2.64-10.01-7.12-6.51-13.16,3.26-5.65,9.74-5.59,14.82-2.96.63-3.85,3.92-7.04,7.86-7.57,3.99-.54,7.38,2.02,9.28,5.35.32-9.9,11.3-16.98,20.88-16.67,10.01.33,14.52,10.78,10,18.55,7.83-.36,16.18.01,22.27,5.5ZM518.29,383.65c3.72-6.7-1-13.92-7.21-16.9-5.88-2.82-12.76-2.37-19.09-2-1.15.07-1.58-1.39-.89-2.15,3.33-3.65,4.04-8.73.97-12.76-3.11-4.06-7.88-4.36-12.54-3.21-7.58,1.89-14.65,7.79-13.34,16.29.22,1.44-1.94,2.1-2.24.61,0-.07-.02-.13-.03-.21-.08-.04-.16-.09-.21-.17-2.06-2.82-4.35-6.48-8.36-6.29-3.67.17-6.53,3.28-6.81,6.81.15.11.31.21.46.32.69.53.07,1.71-.7,1.21-.15-.1-.31-.19-.46-.28-.55.19-1.25-.07-1.38-.76-4.4-2.16-10.34-2.79-12.99,2.27-3.09,5.89,3.27,9.17,7.48,11.07.78.36.62,1.47,0,1.87-2.75,1.75-5.73,3.61-7.44,6.49-2.63,4.45-.78,8.93,3.66,10.85,5.77,2.51,14.28.39,16.03-5.83.04-.94.15-1.92.37-2.94.27-1.27,2.15-.91,2.18.3.03,1.12-.1,2.16-.36,3.12-.07,8.35,8.2,12.86,16.35,12.55,8-.31,18.24-9.07,10.55-16.85-1.03-1.04.58-2.66,1.61-1.61,1.01,1.03,1.77,2.1,2.29,3.18,8.89,7.45,26.47,5.14,32.1-4.98Z"/>
    </g>
  </g>
</svg>