<?xml version="1.0" encoding="UTF-8"?>
<svg id="_圖層_2" data-name="圖層 2" xmlns="http://www.w3.org/2000/svg" viewBox="0 0 701.26 335.17">
  <defs>
    <style>
      .cls-1 {
        fill: #543c1a;
      }

      .cls-1, .cls-2 {
        stroke-width: 0px;
      }

      .cls-2 {
        fill: #fff;
      }
    </style>
  </defs>
  <g id="_圖層_2-2" data-name="圖層 2">
    <g>
      <path class="cls-2" d="M405.84,38.41c-.09-.09-.18-.17-.27-.26-.36-.36-.73-.7-1.11-1.03-.06-.05-.13-.11-.19-.16-.43-.37-.87-.71-1.32-1.04,0,0-.01,0-.02-.01-1.85-1.35-3.82-2.4-5.84-3.21,0-.07,0-.13,0-.2,0-.55,0-1.09-.04-1.64-.42-6.29-3.56-12.18-8.4-15.76-3.51-2.61-7.7-3.98-12.1-3.98-1.96,0-3.92.28-5.81.8-5.7-7.35-14.39-11.92-23.8-11.92-.23,0-.46,0-.69,0-.62.01-1.23.06-1.84.11-.16.01-.32.03-.49.05-.53.06-1.06.12-1.58.21-.08.01-.16.02-.25.04-.59.1-1.18.22-1.77.36-.15.03-.29.07-.44.11-.48.12-.96.25-1.43.4-.12.04-.24.07-.35.11-.56.18-1.12.38-1.67.59-.12.05-.24.1-.37.15-.45.18-.9.38-1.35.58-.13.06-.26.12-.39.18-.53.26-1.06.52-1.57.81-.09.05-.17.1-.26.15-.44.25-.87.51-1.3.78-.13.08-.26.17-.39.25-.49.32-.98.66-1.46,1.01-.03.02-.05.04-.08.06-.45.34-.89.69-1.32,1.05-.12.1-.24.2-.36.31-.41.35-.8.71-1.19,1.08-.05.04-.09.08-.14.13-.42.41-.83.84-1.23,1.27-.1.11-.21.23-.31.35-.33.37-.65.74-.96,1.13-.07.09-.15.18-.22.27-.37.46-.72.93-1.06,1.41-.08.12-.16.24-.24.35-.27.4-.54.8-.79,1.22-.08.12-.15.24-.23.37-.3.51-.6,1.02-.87,1.55-.02.03-.03.06-.05.09-.58-.1-1.16-.18-1.73-.25-.16-.02-.32-.03-.48-.05-.45-.05-.91-.09-1.36-.12-.17-.01-.35-.02-.52-.03-.6-.03-1.19-.05-1.78-.05-2.12,0-4.16.21-6.08.61-8.33,1.74-14.6,7.14-17.27,15.16-2.18,6.53-1.45,12.94,2.05,18.05.98,1.43,2.18,2.72,3.53,3.88.76.65,1.55,1.27,2.41,1.83-.42,1.04-.78,2.13-1.06,3.28-.44,1.77-.68,3.55-.71,5.3-.09,4.66,1.23,9.12,3.73,12.77.63.91,1.33,1.77,2.09,2.57s1.61,1.54,2.52,2.21c.45.33.92.65,1.41.95,1.47.9,3.07,1.65,4.75,2.23,2.81.97,5.86,1.49,8.92,1.49h0c2.76,0,5.43-.41,7.93-1.19,1.5-.47,2.93-1.08,4.27-1.82,4.34,5.68,10.3,9.93,17.1,12.03,0,0,.01,0,.02,0,.38.12.77.22,1.16.32.24.06.48.14.72.2.85.21,1.71.37,2.58.51,1.72.28,3.48.44,5.28.44h0c.38,0,.76-.03,1.14-.04.38-.01.76-.01,1.14-.04.54-.04,1.08-.09,1.62-.16.01,0,.02,0,.03,0,.16-.02.32-.05.48-.08.93-.14,1.85-.31,2.76-.54.03,0,.06-.02.08-.02,6.88-1.75,13.04-6.08,17.04-12.17,1.61-2.44,2.79-5.05,3.54-7.73,7.19-.37,13.7-3.33,18.41-8.34.67-.71,1.31-1.47,1.9-2.27,5.95-7.94,5.63-18.01-.8-25.66-.4-.48-.82-.93-1.25-1.37Z"/>
      <path class="cls-2" d="M178.94,244.58c-.29-5.64-2.97-11.28-7.67-15.21-3.54-2.96-7.89-4.67-12.64-4.99-.56-1.87-1.38-3.61-2.47-5.17-2.24-3.22-6.58-7.17-14.58-7.72-.54-.04-1.08-.06-1.64-.06-3.51,0-6.78.62-9.72,1.68-1.52-3.21-3.53-6.28-6.25-9.01-6.44-6.47-15.92-10.08-26.71-10.16h-.3c-12.94,0-27.02,5.55-34.76,16.07-3.73-1.75-7.72-2.69-11.74-2.69-2.18,0-4.35.27-6.47.82-7.38,1.89-13.4,6.96-16.76,13.36-.94-.1-1.88-.15-2.82-.15-9.94,0-18.53,5.39-22.41,14.06-2.74,6.11-2.67,12.32.2,17.48,2.02,3.64,5.08,6.21,8.38,8.03-.35,1.81-.5,3.67-.42,5.57.29,7.38,3.89,14.14,9.89,18.54,4.48,3.28,9.71,5.02,15.14,5.01,2.03,0,4.06-.25,6.05-.72,6.64,11.72,21.14,19.65,32.51,21.36,1.89.28,3.82.43,5.74.43,12.64,0,23.98-5.99,30.75-15.25,3.59,1.81,7.52,2.79,11.51,2.79,1.26,0,2.53-.1,3.77-.29,6.76-1.06,12.54-4.96,16.18-10.3,4.71,1.71,10.02,2.94,15.52,2.94,9.04,0,16.93-3.38,22.83-9.77,6.17-6.67,8.57-16.17,6.28-24.8-1.27-4.79-3.84-8.85-7.38-11.84Z"/>
      <path class="cls-2" d="M675.57,133.61c-.24-.93-.54-1.85-.91-2.76-2.38-5.97-7.14-10.73-13.07-13.06-3.19-1.26-6.61-1.89-10.16-1.89s-7.2.68-10.57,1.93c-5.08-8.38-13.82-14.32-23.95-15.39-1.39-.15-2.84-.22-4.31-.22-.97,0-1.94.03-2.91.1-6.82.45-13.76,2.43-19.41,5.59-3.2,1.79-5.97,3.94-8.24,6.36-3.31-1.57-6.92-2.42-10.6-2.42-.67,0-1.34.03-2.03.08-8.13.68-15.29,5.33-19.46,12.05-.34,0-.67.03-1.01.05-.31.01-.63.01-.93.04-.34.03-.66.09-.99.13-.3.04-.61.07-.91.12-.32.06-.64.14-.96.22-.3.07-.6.12-.89.2-.3.08-.6.19-.9.29-.3.09-.6.18-.88.28-.28.11-.56.23-.83.35-.29.12-.59.23-.87.37-.27.13-.53.28-.79.42-.28.15-.56.28-.83.44-.26.15-.5.33-.75.49-.26.17-.53.32-.78.5-.25.17-.47.37-.71.55-.24.19-.49.36-.72.56-.24.21-.46.43-.69.65-.21.19-.43.38-.62.58-.22.23-.43.47-.64.71-.19.21-.39.41-.56.63-.2.24-.38.5-.56.76-.17.23-.35.45-.51.69-.19.29-.36.59-.54.89-.13.22-.27.42-.39.65-.18.33-.34.68-.5,1.02-.1.2-.21.4-.29.6-.17.4-.32.82-.46,1.24-.06.16-.12.31-.17.47-.14.42-.24.86-.35,1.3-.04.16-.09.32-.13.48-.13.6-.23,1.22-.31,1.84-.08.7-.13,1.39-.13,2.08-.05,4.82,1.69,9.44,5.01,13.18.88.99,1.87,1.89,2.93,2.7.64.49,1.3.96,2,1.38-.28,3.53.08,7.09,1.11,10.42,2,6.41,6.33,11.53,12.22,14.41,3.18,1.55,6.6,2.34,10.18,2.34h0c.1,0,.21-.01.31-.01,2.57-.03,5.13-.48,7.55-1.31,1.75,2.29,3.85,4.4,6.28,6.25,5.7,4.35,12.92,7.17,20.33,7.94,1.08.11,2.18.17,3.28.17.08,0,.16,0,.23,0h0c.11,0,.23,0,.34,0,9.17-.09,18.13-3.75,24.02-9.84,1.35-1.4,2.53-2.91,3.51-4.51.86.11,1.73.17,2.61.17h0c.16,0,.33-.02.49-.03,1.21-.03,2.42-.15,3.61-.39.92-.19,1.82-.43,2.68-.74,3.54,2.16,7.95,3.36,12.84,3.36,2.53,0,5-.33,7.34-.99,4.28-1.21,7.81-3.21,10.4-5.84,1.2.14,2.43.21,3.69.21h0c2.07,0,4.21-.2,6.37-.59,8.61-1.58,23-6.53,22.62-21.86-.39-14.77-12.59-24.3-25.68-26.38Z"/>
      <path class="cls-2" d="M535.31,279.21c-5.46-4.92-11.79-6.92-17.44-7.7-.37-2.68-1.23-5.31-2.56-7.72-3.73-6.75-10.7-10.93-18.64-11.2-.31,0-.62-.01-.93-.01-9.12,0-18.8,4.37-24.69,11.67-1.24-.27-2.51-.41-3.8-.41-.8,0-1.61.05-2.4.16-4.43.6-8.41,2.73-11.37,5.83-.6-.05-1.19-.07-1.78-.07-7.16,0-13.3,3.53-16.85,9.67-2.51,4.34-3.16,9-1.87,13.5.5,1.76,1.28,3.42,2.32,4.99-1.68,2.53-3.01,5.6-3.42,9.28-.89,8.1,3.34,15.48,11.04,19.26,3.37,1.65,7.22,2.53,11.16,2.53,2.92,0,5.75-.47,8.38-1.35,5.04,4.72,12.23,7.52,20.29,7.52,1.24,0,2.49-.07,3.71-.21,6.86-.78,13.52-4.54,17.8-10.06.33-.42.64-.86.94-1.29,2.17.4,4.42.6,6.72.6,12.55,0,23.66-5.9,28.99-15.4,5.46-9.75,3.21-21.64-5.61-29.59Z"/>
    </g>
    <g>
      <g>
        <path class="cls-2" d="M399.44,46.22c-3.71-4.42-9.57-5.58-15.05-6.24-.13-.04-.31-.02-.35-.13-.02-.07.03-.15.08-.22h0s.06-.04.09-.07c4.56-4.42,3.49-12.72-1.51-16.42-5.15-3.82-12.16-1.83-15.94,2.79-2.44-8.97-10.58-16.15-20.26-15.92-10.4.25-18.91,9.12-19.62,19.25-.05-.05-.1-.1-.17-.14-8.39-4.49-22.43-5.34-26.15,5.82-3.51,10.52,6.31,14.97,15.04,15.39-3.56,2.91-6.76,6.35-7.9,10.92-1.21,4.83.17,10.14,4.57,12.84,4.58,2.81,11.36,3.05,16.03.36,3.73-2.15,6.01-6.04,7.37-10.15,1.47,12.63,12.31,23.39,25.69,22.47,11.3-.77,19.99-12.18,16.32-22.58,7.41,3.55,17.03,2.2,22.21-4.74,3.14-4.19,2.92-9.22-.45-13.23ZM396.71,59.47c-5.75,5.69-15.48,5.52-21.42.31-.97-.85-2.78.29-1.92,1.48,8.02,11.05-2.77,23.91-14.9,23.16-12.78-.78-21.21-12.57-21.38-24.69,0-.22-.08-.37-.18-.49.11-1.19-1.51-1.63-1.92-.44-1.4,3.99-2.21,8.36-5.18,11.58-3.64,3.92-9.73,4.49-14.52,2.53-5.14-2.09-6.76-7.32-4.93-12.37,1.64-4.5,5.64-7.7,9.36-10.42.84-.62.7-2.31-.6-2.21-7.85.64-21.69-3.17-15.63-13.9,4.69-8.3,15.41-6.52,22.67-3.57.34.14.62-.04.77-.31.32.55,1.34.39,1.43-.4.01-.09.02-.18.04-.27,1.12-9.02,8.69-17.08,18.1-17.27,9.37-.18,17.47,7.56,18.59,16.66.12,1,1.56,1.71,2.12.58,2.45-4.98,9.28-8.14,14.15-4.31,4.3,3.38,4.1,9,1.21,13.18,0,0,0,0,0,0-.21.21-1.01.99-.9,2.03.05.52.34,1.21.83,1.48.12.1.25.17.43.2,3.98.61,8.25,1.06,11.76,3.2,5.5,3.35,6.69,9.65,2.02,14.26ZM396.71,59.47c-5.75,5.69-15.48,5.52-21.42.31-.97-.85-2.78.29-1.92,1.48,8.02,11.05-2.77,23.91-14.9,23.16-12.78-.78-21.21-12.57-21.38-24.69,0-.22-.08-.37-.18-.49.11-1.19-1.51-1.63-1.92-.44-1.4,3.99-2.21,8.36-5.18,11.58-3.64,3.92-9.73,4.49-14.52,2.53-5.14-2.09-6.76-7.32-4.93-12.37,1.64-4.5,5.64-7.7,9.36-10.42.84-.62.7-2.31-.6-2.21-7.85.64-21.69-3.17-15.63-13.9,4.69-8.3,15.41-6.52,22.67-3.57.34.14.62-.04.77-.31.32.55,1.34.39,1.43-.4.01-.09.02-.18.04-.27,1.12-9.02,8.69-17.08,18.1-17.27,9.37-.18,17.47,7.56,18.59,16.66.12,1,1.56,1.71,2.12.58,2.45-4.98,9.28-8.14,14.15-4.31,4.3,3.38,4.1,9,1.21,13.18,0,0,0,0,0,0-.21.21-1.01.99-.9,2.03.05.52.34,1.21.83,1.48.12.1.25.17.43.2,3.98.61,8.25,1.06,11.76,3.2,5.5,3.35,6.69,9.65,2.02,14.26Z"/>
        <path class="cls-1" d="M399.44,46.22c3.37,4.01,3.59,9.04.45,13.23-5.18,6.94-14.8,8.29-22.21,4.74,3.67,10.4-5.02,21.81-16.32,22.58-13.38.92-24.22-9.84-25.69-22.47-1.36,4.11-3.64,8-7.37,10.15-4.67,2.69-11.45,2.45-16.03-.36-4.4-2.7-5.78-8.01-4.57-12.84,1.14-4.57,4.34-8.01,7.9-10.92-8.73-.42-18.55-4.87-15.04-15.39,3.72-11.16,17.76-10.31,26.15-5.82.07.04.12.09.17.14l1.52.2c-.02.09-.03.18-.04.27-.09.79-1.11.95-1.43.4-.15.27-.43.45-.77.31-7.26-2.95-17.98-4.73-22.67,3.57-6.06,10.73,7.78,14.54,15.63,13.9,1.3-.1,1.44,1.59.6,2.21-3.72,2.72-7.72,5.92-9.36,10.42-1.83,5.05-.21,10.28,4.93,12.37,4.79,1.96,10.88,1.39,14.52-2.53,2.97-3.22,3.78-7.59,5.18-11.58.41-1.19,2.03-.75,1.92.44.1.12.18.27.18.49.17,12.12,8.6,23.91,21.38,24.69,12.13.75,22.92-12.11,14.9-23.16-.86-1.19.95-2.33,1.92-1.48,5.94,5.21,15.67,5.38,21.42-.31,4.67-4.61,3.48-10.91-2.02-14.26-3.51-2.14-7.78-2.59-11.76-3.2-1.23-.19-.93-2.3.29-2.17.03,0,.06,0,.09,0,5.78.65,12.17,1.66,16.13,6.37Z"/>
        <path class="cls-1" d="M382.7,23.14c5,3.7,6.07,12,1.51,16.42-.26.26-.6.33-.9.27-.66-.14-1.2-.85-.74-1.53,2.89-4.18,3.09-9.8-1.21-13.18-4.87-3.83-11.7-.67-14.15,4.31-.56,1.13-2,.42-2.12-.58-1.12-9.1-9.22-16.84-18.59-16.66-9.41.19-16.98,8.25-18.1,17.27l-1.52-.2c.71-10.13,9.22-19,19.62-19.25,9.68-.23,17.82,6.95,20.26,15.92,3.78-4.62,10.79-6.61,15.94-2.79Z"/>
      </g>
      <g>
        <path class="cls-2" d="M167.93,249.75c10.34,3.25,12.12,16.74,4.77,24.69-10.05,10.89-25.73,6.35-36.9-.2.36,6.82-4.9,13.15-11.84,14.24-7.16,1.13-13.91-3.38-17.39-9.43-1.94,14.74-16.89,23.92-31.34,21.75-11.71-1.76-28.76-12.83-27.55-26.13-5.75,5.65-14.57,7.54-21.72,2.3-7.44-5.46-7.69-16.18-1.05-21.9-8.3-1.13-18.35-5.37-13.78-15.56,4.09-9.13,15.84-10.27,23.31-5.03-.86-7.56,4.69-14.77,12.04-16.65,7.73-1.98,15.33,2.11,19.9,8.21,1.46-14.5,17.14-22.18,30.82-22.09,7.08.05,14.57,2.07,19.68,7.21,5.05,5.08,6.74,12.19,7.85,19.07,2.2-5.8,10.4-9.16,16.16-8.76,8.85.61,9.72,8.1,7.73,14.81,5.24-2.31,11.57-3.13,16.24.77,3.6,3.01,5.44,8.52,3.07,12.7ZM175.12,263.66c.24-5.98-4.05-11.43-10.04-12.19-1.47-.18-1.49-2.5,0-2.33l.6.09c2.09-4.49.26-9.38-4.26-11.56-4.71-2.28-9.96-.56-14.23,1.84-.77.43-2.06-.32-1.66-1.28,2.68-6.34,3.17-15.08-6.29-14.6-5.26.28-13.18,3.68-13.44,9.77-.04.87-1.12,1.01-1.5.44-.58.24-1.29.09-1.42-.71-1.07-6.65-2.12-13.95-6.62-19.28-4.3-5.1-11.08-7.32-17.56-7.63-13.93-.68-31.07,7.13-30.31,23.26.05,1.04-1.47,1.44-1.96.53-3.5-6.56-10.43-11.56-18.15-10.46-7.77,1.1-12.87,8.16-12.36,15.79,0,.12-.02.22-.07.31.19.44-.45.93-.91.57-6.65-5.2-18.27-4.47-21.95,4.07-4.39,10.19,7.71,12.59,14.8,12.96,1.01.05,1.48,1.42.53,1.96-8.26,4.65-7.89,16.11.12,20.82,7.84,4.59,16.83.26,20.91-7.11.68-1.23,2.48-.14,1.87,1.1-7.33,14.79,13.76,27.66,25.88,28.83,13.46,1.31,26.9-8.01,27.52-22.13.02-.44.27-.73.58-.89.13-.47.91-.66,1.19-.15,3.19,5.64,8.34,10.79,15.27,10.83,7.26.04,13.46-7.09,11.53-14.23-.26-.95.83-1.85,1.69-1.3,8.68,5.52,19.29,10.16,29.57,6.2,5.54-2.14,10.42-7.3,10.67-13.52ZM175.12,263.66c.24-5.98-4.05-11.43-10.04-12.19-1.47-.18-1.49-2.5,0-2.33l.6.09c2.09-4.49.26-9.38-4.26-11.56-4.71-2.28-9.96-.56-14.23,1.84-.77.43-2.06-.32-1.66-1.28,2.68-6.34,3.17-15.08-6.29-14.6-5.26.28-13.18,3.68-13.44,9.77-.04.87-1.12,1.01-1.5.44-.58.24-1.29.09-1.42-.71-1.07-6.65-2.12-13.95-6.62-19.28-4.3-5.1-11.08-7.32-17.56-7.63-13.93-.68-31.07,7.13-30.31,23.26.05,1.04-1.47,1.44-1.96.53-3.5-6.56-10.43-11.56-18.15-10.46-7.77,1.1-12.87,8.16-12.36,15.79,0,.12-.02.22-.07.31.19.44-.45.93-.91.57-6.65-5.2-18.27-4.47-21.95,4.07-4.39,10.19,7.71,12.59,14.8,12.96,1.01.05,1.48,1.42.53,1.96-8.26,4.65-7.89,16.11.12,20.82,7.84,4.59,16.83.26,20.91-7.11.68-1.23,2.48-.14,1.87,1.1-7.33,14.79,13.76,27.66,25.88,28.83,13.46,1.31,26.9-8.01,27.52-22.13.02-.44.27-.73.58-.89.13-.47.91-.66,1.19-.15,3.19,5.64,8.34,10.79,15.27,10.83,7.26.04,13.46-7.09,11.53-14.23-.26-.95.83-1.85,1.69-1.3,8.68,5.52,19.29,10.16,29.57,6.2,5.54-2.14,10.42-7.3,10.67-13.52Z"/>
        <path class="cls-1" d="M167.93,249.75c10.34,3.25,12.12,16.74,4.77,24.69-10.05,10.89-25.73,6.35-36.9-.2.36,6.82-4.9,13.15-11.84,14.24-7.16,1.13-13.91-3.38-17.39-9.43-1.94,14.74-16.89,23.92-31.34,21.75-11.71-1.76-28.76-12.83-27.55-26.13-5.75,5.65-14.57,7.54-21.72,2.3-7.44-5.46-7.69-16.18-1.05-21.9-8.3-1.13-18.35-5.37-13.78-15.56,4.09-9.13,15.84-10.27,23.31-5.03-.86-7.56,4.69-14.77,12.04-16.65,7.73-1.98,15.33,2.11,19.9,8.21,1.46-14.5,17.14-22.18,30.82-22.09,7.08.05,14.57,2.07,19.68,7.21,5.05,5.08,6.74,12.19,7.85,19.07,2.2-5.8,10.4-9.16,16.16-8.76,8.85.61,9.72,8.1,7.73,14.81,5.24-2.31,11.57-3.13,16.24.77,3.6,3.01,5.44,8.52,3.07,12.7ZM175.12,263.66c.24-5.98-4.05-11.43-10.04-12.19-1.47-.18-1.49-2.5,0-2.33l.6.09c2.09-4.49.26-9.38-4.26-11.56-4.71-2.28-9.96-.56-14.23,1.84-.77.43-2.06-.32-1.66-1.28,2.68-6.34,3.17-15.08-6.29-14.6-5.26.28-13.18,3.68-13.44,9.77-.04.87-1.12,1.01-1.5.44-.58.24-1.29.09-1.42-.71-1.07-6.65-2.12-13.95-6.62-19.28-4.3-5.1-11.08-7.32-17.56-7.63-13.93-.68-31.07,7.13-30.31,23.26.05,1.04-1.47,1.44-1.96.53-3.5-6.56-10.43-11.56-18.15-10.46-7.77,1.1-12.87,8.16-12.36,15.79,0,.12-.02.22-.07.31.19.44-.45.93-.91.57-6.65-5.2-18.27-4.47-21.95,4.07-4.39,10.19,7.71,12.59,14.8,12.96,1.01.05,1.48,1.42.53,1.96-8.26,4.65-7.89,16.11.12,20.82,7.84,4.59,16.83.26,20.91-7.11.68-1.23,2.48-.14,1.87,1.1-7.33,14.79,13.76,27.66,25.88,28.83,13.46,1.31,26.9-8.01,27.52-22.13.02-.44.27-.73.58-.89.13-.47.91-.66,1.19-.15,3.19,5.64,8.34,10.79,15.27,10.83,7.26.04,13.46-7.09,11.53-14.23-.26-.95.83-1.85,1.69-1.3,8.68,5.52,19.29,10.16,29.57,6.2,5.54-2.14,10.42-7.3,10.67-13.52Z"/>
      </g>
      <g>
        <path class="cls-2" d="M665.25,143.7c2.9-6.2-.69-14-7.32-16.61-7.72-3.04-17.34-.07-22.41,6.38-.5-10.61-8.55-19.92-19.66-21.09-11.9-1.26-28.81,4.62-31,17.41-3.02-5.01-8.51-8.4-14.62-7.9-7.16.6-13.06,6.46-14.02,13.47,0,0,0,0-.01,0-.04.26-.23.51-.66.22-5.95-3.89-15.32-.41-16.19,7.07-.8,6.8,5.87,11.91,12.14,11.32-4.24,7.55-2.99,18.56,5.46,22.7,6.34,3.1,14.01.48,17.84-4.93,1.45,10.86,12.49,18.04,23.44,19.17,11.47,1.18,24.54-5.97,24.13-18.01,2.95,2.77,6.74,4.59,10.95,3.73,2.65-.54,4.85-2.06,6.23-4.13,1.64,6.01,10.04,7.59,15.9,5.94,3.11-.88,6.55-2.6,7.66-5.89.26-.76.35-1.52.31-2.26,3.92,2.21,8.7,2.58,13.4,1.72,6.52-1.2,14.63-3.81,14.43-11.76-.34-12.75-14.88-19-26-16.55ZM677.07,169.55c-6.16,1.33-12.52.4-16.6-4.77-.77-.97-2.49.33-1.74,1.35.82,1.11,1.75,2.06,2.76,2.86.84,2.41-1.52,5.14-3.63,6.26-1.75.92-3.77,1.34-5.72,1.57-5.27.61-10.94-1.67-10.64-7.83.01-.35-.16-.61-.4-.79.05-.42.08-.84.07-1.27-.04-1.46-2.3-1.47-2.27,0,.1,4.54-3.88,7.92-8.38,7.49-3.79-.36-6.67-2.74-8.86-5.74-.73-1-2.45-.45-2.1.89,6.97,26.43-47.84,24.93-42.46-3.44h-.01c.02-.1.04-.2.05-.29.15-1.21-1.91-1.49-2.14-.29-.02.15-.04.3-.07.45-1.12,7.85-11.16,12.42-17.93,8.28-7.17-4.4-7.41-15.01-2.57-21.12.56-.7.08-2.1-.99-1.71-5.71,2.11-13.55-2.7-12.04-9.43,1.3-5.77,8.78-8.15,13.58-5.46.43.23.7.52,1.22.7.94.34,1.11-.83,1.22-1.37,1.52-6.33,6.58-11.97,13.5-12.08,6.78-.1,12.35,4.94,13.85,11.32.27,1.15,2.23.93,2.1-.28-1.67-14.51,15.39-20.95,27.31-20.38,12.29.59,21.24,12.04,18.58,24.14-.33,1.48,1.96,2.11,2.28.63.19-.92.32-1.83.41-2.74,3.51-5.62,10.48-8.74,17.09-8.3,7.93.53,15.71,9.76,8.93,16.82-1,1.04.26,2.4,1.46,1.88,8.94-3.85,21.29-.08,24.94,9.48,3.13,8.23-3.91,11.68-10.81,13.17ZM677.07,169.55c-6.16,1.33-12.52.4-16.6-4.77-.77-.97-2.49.33-1.74,1.35.82,1.11,1.75,2.06,2.76,2.86.84,2.41-1.52,5.14-3.63,6.26-1.75.92-3.77,1.34-5.72,1.57-5.27.61-10.94-1.67-10.64-7.83.01-.35-.16-.61-.4-.79.05-.42.08-.84.07-1.27-.04-1.46-2.3-1.47-2.27,0,.1,4.54-3.88,7.92-8.38,7.49-3.79-.36-6.67-2.74-8.86-5.74-.73-1-2.45-.45-2.1.89,6.97,26.43-47.84,24.93-42.46-3.44h-.01c.02-.1.04-.2.05-.29.15-1.21-1.91-1.49-2.14-.29-.02.15-.04.3-.07.45-1.12,7.85-11.16,12.42-17.93,8.28-7.17-4.4-7.41-15.01-2.57-21.12.56-.7.08-2.1-.99-1.71-5.71,2.11-13.55-2.7-12.04-9.43,1.3-5.77,8.78-8.15,13.58-5.46.43.23.7.52,1.22.7.94.34,1.11-.83,1.22-1.37,1.52-6.33,6.58-11.97,13.5-12.08,6.78-.1,12.35,4.94,13.85,11.32.27,1.15,2.23.93,2.1-.28-1.67-14.51,15.39-20.95,27.31-20.38,12.29.59,21.24,12.04,18.58,24.14-.33,1.48,1.96,2.11,2.28.63.19-.92.32-1.83.41-2.74,3.51-5.62,10.48-8.74,17.09-8.3,7.93.53,15.71,9.76,8.93,16.82-1,1.04.26,2.4,1.46,1.88,8.94-3.85,21.29-.08,24.94,9.48,3.13,8.23-3.91,11.68-10.81,13.17Z"/>
        <path class="cls-1" d="M691.25,160.25c.2,7.95-7.91,10.56-14.43,11.76-4.7.86-9.48.49-13.4-1.72.04.74-.05,1.5-.31,2.26-1.11,3.29-4.55,5.01-7.66,5.89-5.86,1.65-14.26.07-15.9-5.94-1.38,2.07-3.58,3.59-6.23,4.13-4.21.86-8-.96-10.95-3.73.41,12.04-12.66,19.19-24.13,18.01-10.95-1.13-21.99-8.31-23.44-19.17-3.83,5.41-11.5,8.03-17.84,4.93-8.45-4.14-9.7-15.15-5.46-22.7-6.27.59-12.94-4.52-12.14-11.32.87-7.48,10.24-10.96,16.19-7.07.16.1.25.25.26.4.05.41-.36.84-.83.58-4.8-2.69-12.28-.31-13.58,5.46-1.51,6.73,6.33,11.54,12.04,9.43,1.07-.39,1.55,1.01.99,1.71-4.84,6.11-4.6,16.72,2.57,21.12,6.77,4.14,16.81-.43,17.93-8.28.03-.15.05-.3.07-.45.23-1.2,2.29-.92,2.14.29-.01.09-.03.19-.05.29h.01c-5.38,28.37,49.43,29.87,42.46,3.44-.35-1.34,1.37-1.89,2.1-.89,2.19,3,5.07,5.38,8.86,5.74,4.5.43,8.48-2.95,8.38-7.49-.03-1.47,2.23-1.46,2.27,0,.01.43-.02.85-.07,1.27.24.18.41.44.4.79-.3,6.16,5.37,8.44,10.64,7.83,1.95-.23,3.97-.65,5.72-1.57,2.11-1.12,4.47-3.85,3.63-6.26-1.01-.8-1.94-1.75-2.76-2.86-.75-1.02.97-2.32,1.74-1.35,4.08,5.17,10.44,6.1,16.6,4.77,6.9-1.49,13.94-4.94,10.81-13.17-3.65-9.56-16-13.33-24.94-9.48-1.2.52-2.46-.84-1.46-1.88,6.78-7.06-1-16.29-8.93-16.82-6.61-.44-13.58,2.68-17.09,8.3-.09.91-.22,1.82-.41,2.74-.32,1.48-2.61.85-2.28-.63,2.66-12.1-6.29-23.55-18.58-24.14-11.92-.57-28.98,5.87-27.31,20.38.13,1.21-1.83,1.43-2.1.28-1.5-6.38-7.07-11.42-13.85-11.32-6.92.11-11.98,5.75-13.5,12.08-.15.64-1.13.58-1.26.03-.01-.06-.02-.13-.01-.2.81-7.17,6.8-13.22,14.08-13.83,6.11-.5,11.6,2.89,14.62,7.9,2.19-12.79,19.1-18.67,31-17.41,11.11,1.17,19.16,10.48,19.66,21.09,5.07-6.45,14.69-9.42,22.41-6.38,6.63,2.61,10.22,10.41,7.32,16.61,11.12-2.45,25.66,3.8,26,16.55Z"/>
      </g>
      <g>
        <path class="cls-2" d="M528.62,286.64c4.91,4.43,6.93,11.3,3.58,17.28-5.94,10.59-23.24,13.36-33.32,6.64.95,6.91-6.15,13.62-13.54,14.46-8.77,1-17.81-3.17-19.9-11.05-3.85,5.02-12.16,6.44-18.1,3.52-3.6-1.77-5.96-5.08-5.51-9.2.54-4.89,4.33-8.11,8.19-10.69-4.97-2.64-10.01-7.12-6.51-13.16,3.26-5.65,9.74-5.59,14.82-2.96.63-3.85,3.92-7.04,7.86-7.57,3.99-.54,7.38,2.02,9.28,5.35.32-9.9,11.3-16.98,20.88-16.67,10.01.33,14.52,10.78,10,18.55,7.83-.36,16.18.01,22.27,5.5ZM530.09,302.69c3.72-6.7-1-13.92-7.21-16.9-5.88-2.82-12.76-2.37-19.09-2-1.15.07-1.58-1.39-.89-2.15,3.33-3.65,4.04-8.73.97-12.76-3.11-4.06-7.88-4.36-12.54-3.21-7.58,1.89-14.65,7.79-13.34,16.29.22,1.44-1.94,2.1-2.24.61,0-.07-.02-.13-.03-.21-.08-.04-.16-.09-.21-.17-2.06-2.82-4.35-6.48-8.36-6.29-3.67.17-6.53,3.28-6.81,6.81.15.11.31.21.46.32.69.53.07,1.71-.7,1.21-.15-.1-.31-.19-.46-.28-.55.19-1.25-.07-1.38-.76-4.4-2.16-10.34-2.79-12.99,2.27-3.09,5.89,3.27,9.17,7.48,11.07.78.36.62,1.47,0,1.87-2.75,1.75-5.73,3.61-7.44,6.49-2.63,4.45-.78,8.93,3.66,10.85,5.77,2.51,14.28.39,16.03-5.83.04-.94.15-1.92.37-2.94.27-1.27,2.15-.91,2.18.3.03,1.12-.1,2.16-.36,3.12-.07,8.35,8.2,12.86,16.35,12.55,8-.31,18.24-9.07,10.55-16.85-1.03-1.04.58-2.66,1.61-1.61,1.01,1.03,1.77,2.1,2.29,3.18,8.89,7.45,26.47,5.14,32.1-4.98ZM530.09,302.69c3.72-6.7-1-13.92-7.21-16.9-5.88-2.82-12.76-2.37-19.09-2-1.15.07-1.58-1.39-.89-2.15,3.33-3.65,4.04-8.73.97-12.76-3.11-4.06-7.88-4.36-12.54-3.21-7.58,1.89-14.65,7.79-13.34,16.29.22,1.44-1.94,2.1-2.24.61,0-.07-.02-.13-.03-.21-.08-.04-.16-.09-.21-.17-2.06-2.82-4.35-6.48-8.36-6.29-3.67.17-6.53,3.28-6.81,6.81.15.11.31.21.46.32.69.53.07,1.71-.7,1.21-.15-.1-.31-.19-.46-.28-.55.19-1.25-.07-1.38-.76-4.4-2.16-10.34-2.79-12.99,2.27-3.09,5.89,3.27,9.17,7.48,11.07.78.36.62,1.47,0,1.87-2.75,1.75-5.73,3.61-7.44,6.49-2.63,4.45-.78,8.93,3.66,10.85,5.77,2.51,14.28.39,16.03-5.83.04-.94.15-1.92.37-2.94.27-1.27,2.15-.91,2.18.3.03,1.12-.1,2.16-.36,3.12-.07,8.35,8.2,12.86,16.35,12.55,8-.31,18.24-9.07,10.55-16.85-1.03-1.04.58-2.66,1.61-1.61,1.01,1.03,1.77,2.1,2.29,3.18,8.89,7.45,26.47,5.14,32.1-4.98Z"/>
        <path class="cls-1" d="M528.62,286.64c4.91,4.43,6.93,11.3,3.58,17.28-5.94,10.59-23.24,13.36-33.32,6.64.95,6.91-6.15,13.62-13.54,14.46-8.77,1-17.81-3.17-19.9-11.05-3.85,5.02-12.16,6.44-18.1,3.52-3.6-1.77-5.96-5.08-5.51-9.2.54-4.89,4.33-8.11,8.19-10.69-4.97-2.64-10.01-7.12-6.51-13.16,3.26-5.65,9.74-5.59,14.82-2.96.63-3.85,3.92-7.04,7.86-7.57,3.99-.54,7.38,2.02,9.28,5.35.32-9.9,11.3-16.98,20.88-16.67,10.01.33,14.52,10.78,10,18.55,7.83-.36,16.18.01,22.27,5.5ZM530.09,302.69c3.72-6.7-1-13.92-7.21-16.9-5.88-2.82-12.76-2.37-19.09-2-1.15.07-1.58-1.39-.89-2.15,3.33-3.65,4.04-8.73.97-12.76-3.11-4.06-7.88-4.36-12.54-3.21-7.58,1.89-14.65,7.79-13.34,16.29.22,1.44-1.94,2.1-2.24.61,0-.07-.02-.13-.03-.21-.08-.04-.16-.09-.21-.17-2.06-2.82-4.35-6.48-8.36-6.29-3.67.17-6.53,3.28-6.81,6.81.15.11.31.21.46.32.69.53.07,1.71-.7,1.21-.15-.1-.31-.19-.46-.28-.55.19-1.25-.07-1.38-.76-4.4-2.16-10.34-2.79-12.99,2.27-3.09,5.89,3.27,9.17,7.48,11.07.78.36.62,1.47,0,1.87-2.75,1.75-5.73,3.61-7.44,6.49-2.63,4.45-.78,8.93,3.66,10.85,5.77,2.51,14.28.39,16.03-5.83.04-.94.15-1.92.37-2.94.27-1.27,2.15-.91,2.18.3.03,1.12-.1,2.16-.36,3.12-.07,8.35,8.2,12.86,16.35,12.55,8-.31,18.24-9.07,10.55-16.85-1.03-1.04.58-2.66,1.61-1.61,1.01,1.03,1.77,2.1,2.29,3.18,8.89,7.45,26.47,5.14,32.1-4.98Z"/>
      </g>
    </g>
  </g>
</svg>