<?xml version="1.0" encoding="UTF-8"?>
<svg id="_圖層_2" data-name="圖層 2" xmlns="http://www.w3.org/2000/svg" viewBox="0 0 100.32 93.88">
  <defs>
    <style>
      .cls-1 {
        fill: #ef4444;
        stroke-width: 0px;
      }
    </style>
  </defs>
  <g id="Capa_2" data-name="Capa 2">
    <path class="cls-1" d="m4.86,69.88c0,1.72-.01,3.09,0,4.46.01,1.33-.45,2.38-1.88,2.51-1.44.14-2.22-.89-2.32-2.13-.28-3.39-1.01-6.89-.45-10.16,1.12-6.42,1.3-12.92,2.32-19.32C4.93,30.29,11.62,17.59,23.55,7.95c4.62-3.74,9.89-6.26,15.71-7.58.52-.12,1.03-.29,1.56-.35,1.16-.12,2.18.18,2.53,1.42.4,1.41-.38,2.24-1.64,2.65-1.32.42-2.68.69-3.99,1.14-6.1,2.06-11.21,5.62-15.63,10.25-5.75,6.02-9.9,12.99-12.2,21.12.4-.49.84-.96,1.2-1.47.43-.61.79-1.26,1.19-1.89,6.19-9.8,14.6-16.82,25.57-20.78,20.15-7.29,42.16,1.04,52.92,13.09,9.89,11.08,12.15,23.61,6.53,37.43-2.87,7.06-7.31,13.06-13.35,17.68-15.47,11.83-32.77,16.02-51.83,11.37-11.7-2.86-20.45-9.77-25.98-20.58-.19-.38-.41-.75-.63-1.11-.04-.07-.15-.11-.65-.45Zm41.6,19.26c9.82-.09,19.5-2.65,28.44-7.86,8.15-4.75,14.44-11.28,18.05-20.09,4.88-11.89,2.99-22.74-5.53-32.37-4.02-4.55-9.03-7.77-14.54-10.21-19.55-8.66-41.13-3.45-53.73,13.03-5.22,6.83-9.03,14.44-11.76,22.58-.45,1.36-.63,2.97-.4,4.37,1.94,11.67,7.94,20.51,18.57,26,6.39,3.3,13.26,4.52,20.91,4.56Z"/>
  </g>
</svg>