<?xml version="1.0" encoding="UTF-8"?>
<svg id="_圖層_2" data-name="圖層 2" xmlns="http://www.w3.org/2000/svg" viewBox="0 0 320 200">
  <defs>
    <style>
      .cls-1 {
        fill: #77787b;
      }

      .cls-1, .cls-2, .cls-3, .cls-4 {
        fill-rule: evenodd;
        stroke-width: 0px;
      }

      .cls-2 {
        fill: #543c1a;
      }

      .cls-3 {
        fill: #e9ecf1;
      }

      .cls-4 {
        fill: #a1a3a7;
      }
    </style>
  </defs>
  <g id="_圖層_2-2" data-name=" 圖層 2">
    <path class="cls-4" d="m3.15,194.7c.57.45,1.26.34,1.93.34,27.59-.02,55.17.07,82.75-.12,10.31-.07,20.61-.09,30.93-.26,31.73-.54,63.45-.01,95.18-.33,34.08-.34,68.16-.09,102.24-.16,1.45,0,2.05-.29,1.87-1.69-.11-.9.05-1.84.08-2.77.49,2.24.12,4.48-.07,6.72-.05.77-.65.71-1.2.76-6.85.67-13.73,1.02-20.63,1.04-16.31.02-32.61-.09-48.92-.16-12.27-.06-24.54-.17-36.82-.19-22.19-.06-44.4-.12-66.6-.09-11.26.01-22.53.55-33.79.29-11.14-.24-22.27-.58-33.42-.67-12.38-.1-24.76-.12-37.15.34-8.17.3-16.35.29-24.53.55-3.25.11-6.48-.15-9.74-.23-1.49-.04-2.3-.48-2.07-1.99.07-.45-.05-.91-.08-1.38h.01Z"/>
    <path class="cls-1" d="m157.48,199.64c5.29,0,10.61-.18,15.94-.22-10.86-.04-21.72-.07-32.58-.05-4.18,0-8.39-.19-12.58.24-.33.04-.58.09-.8.17,10.01-.06,20.02-.15,30.03-.15h-.01Z"/>
    <path class="cls-1" d="m188.84,199.73c-.17-.06-.39-.09-.65-.09-1.73-.02-3.47-.17-5.19-.18-1.55,0-3.11,0-4.65-.01,3.07.05,6.14.18,9.19.46.43-.07.86-.13,1.31-.17h-.01Z"/>
    <path class="cls-2" d="m319.87,185.83l.03.04c-.25-10.43-.53-20.86-.77-31.29-.32-14.55-.6-29.09-.92-43.63-.2-8.64-.45-17.26-.66-25.9-.35-15-.72-30.01-1-45.02-.17-9.1-.56-18.18-1.17-27.25-.28-4.2-2.19-7.1-5.96-9.38-3.8-2.3-7.78-3.25-12.34-3.19-20.69.26-41.37-.09-62.07.19-8.13.11-16.26-.06-24.39-.09-9.7-.02-19.39-.11-29.1.07-6.89.13-13.79-.07-20.68-.07-13.91,0-27.81.04-41.72.11-14.19.07-28.37-.28-42.56-.02-9.3.17-18.61.07-27.91-.07C35.89.12,23.1.09,10.32,0,4.74-.04.09,4.25.05,9.39c-.03,4.57-.05,9.15-.05,13.72,0,21.3.01,42.59.05,63.89.04,18.77.12,37.55.17,56.32.04,16.81.07,33.64.12,50.45,0,1.28-.23,2.56,0,3.85.33,1.83.8,2.29,2.83,2.33,2.4.05,4.82.09,7.23.01,9.12-.26,304.85-.28,304.85-.28,0,0,4.1-.48,4.6-3.22.12-.66.16-1.33.16-2-.03-2.88-.07-5.75-.13-8.64Zm-14.94-14.53c-5.92.39-11.86.58-17.8.6-13.28.04-26.56-.17-39.85.1-18.55.39-37.1.38-55.65.62-8.53.11-17.04-.06-25.55.27-6.1.24-12.21.82-18.29.45-8.81-.54-17.59.22-26.38.15-12.88-.11-25.77,0-38.65-.16-7.28-.1-14.54-.54-21.81-.86-14.96-.67-29.92-.18-44.89-.32-2.88-.02-2.84,0-2.88-2.72-.28-15.98-.21-31.98-.46-47.95-.2-12.65,0-25.3-.29-37.95-.36-15.84-.19-31.68-.19-47.51,0-5.28.07-10.56.48-15.84.09-1.11-.11-2.25-.29-3.37-.33-2.03.73-3.56,2.96-3.84,2.43-.3,4.89-.57,7.34-.63,6.44-.15,12.88-.52,19.74-.3l.03.02c12.09-.24,24.58-.49,37.08-.32,6.95.1,13.89.05,20.83-.15,16.87-.46,33.75.11,50.62-.34,7.52-.19,15.01.41,22.5.01,6.23-.33,12.43-.06,18.63.17,31.21,1.17,62.44.34,93.66.49,3.01.01,6.03-.48,9.03.04,4.97.84,8.1,4.12,8.34,8.75.23,4.41.32,8.83.48,13.25.24,6.79.07,13.57.37,20.36.27,5.96.11,11.91.31,17.87.33,10.53.57,21.06,1.04,31.58.39,8.58.81,17.14.98,25.72.17,8.38.39,16.75.64,25.12.15,4.67.46,9.33.6,14.01.07,2.4-.12,2.53-2.67,2.69Z"/>
    <path class="cls-3" d="m318.11,189.71c-.11-8.75-.2-17.48-.35-26.22-.21-12.33-.49-24.67-.66-37-.16-12.33-.31-24.67-.68-37-.4-13.11-.73-26.21-1.12-39.3-.33-11.39-1.21-22.78-1.38-34.19-.04-2.7-.11-5.49-2.05-7.8-3.48-4.13-7.93-6.42-13.8-6.42-83.38.02-166.78-.01-250.16-.02h-16.83c-.61,0-1.24-.07-1.85-.07-6,.01-12.01-.23-18,.12C5.67,2.16,1.62,6.19,1.59,11.31c-.01,2.41.2,4.82.2,7.24.05,31.16.08,62.33.12,93.5,0,4.22.09,8.43.11,12.65.05,14.91-.01,29.82.33,44.74.2,8.42.23,16.85.8,25.27h-.01c.73,1.13,1.97.82,3.03.82,28.58-.17,57.18.38,85.76-.28,10.37-.24,20.73-.12,31.11-.24,33.35-.4,66.71.06,100.07-.32,30.43-.34,60.88-.07,91.33-.07.84,0,1.69.04,2.52-.06.82-.09,1.34-.41,1.28-1.29-.11-1.17.11-2.36-.11-3.53Zm-12.14-16.13c-16.42.27-32.83.49-49.25.84-9.31.19-18.61-.15-27.92-.02-14.8.19-29.59.48-44.39.41-8.29-.04-16.59,0-24.88,0v.51h0c-6.51,0-13,.04-19.51,0-13.85-.1-27.69.46-41.53.22-16.3-.28-32.59-.63-48.89-1.11-12.15-.35-24.32-.55-36.49-.19-1.54.05-1.9-.38-2.01-1.75-.58-8.27-.2-16.54-.4-24.82-.29-12.5-.19-24.99-.25-37.49-.08-13.89.07-27.78-.04-41.67-.12-14.55-.58-29.09-.7-43.64-.03-3.67.12-7.27.76-10.89.27-1.54,1.35-2.13,2.78-2.51,5.17-1.4,10.43-1.86,15.78-1.45,7.94.62,15.89.07,23.84-.06,8.91-.16,17.81-.29,26.72-.22,9.75.07,19.51.43,29.25-.29,3.92-.29,7.84-.06,11.75.01,14.29.27,28.58-.32,42.87-.33,9.8,0,19.62-.27,29.42.11,6.22.24,12.42.55,18.65.55,15.53,0,31.05-.11,46.58.15,11.71.19,23.4-.43,35.12-.45,1.29,0,2.59-.05,3.86.13,5.01.69,7.94,3.73,8.16,8.56.23,5.19.31,10.38.41,15.56.35,16.65.31,33.32,1.12,49.95.84,16.93,1.34,33.88,2.03,50.83.46,11.65.43,23.32,1.46,34.95.27,3.02-.94,4.04-4.3,4.11Z"/>
  </g>
</svg>