<?xml version="1.0" encoding="utf-8"?>
<!-- Generator: Adobe Illustrator 28.0.0, SVG Export Plug-In . SVG Version: 6.00 Build 0)  -->
<svg version="1.1" id="_圖層_2" xmlns="http://www.w3.org/2000/svg" xmlns:xlink="http://www.w3.org/1999/xlink" x="0px" y="0px"
	 viewBox="0 0 320 200" style="enable-background:new 0 0 320 200;" xml:space="preserve">
<style type="text/css">
	.st0{fill-rule:evenodd;clip-rule:evenodd;fill:#A1A3A7;}
	.st1{fill-rule:evenodd;clip-rule:evenodd;fill:#77787B;}
	.st2{fill-rule:evenodd;clip-rule:evenodd;fill:#543C1A;}
	.st3{fill-rule:evenodd;clip-rule:evenodd;fill:#E9ECF1;}
	.st4{fill-rule:evenodd;clip-rule:evenodd;fill:#010101;}
	.st5{fill:none;stroke:#543C1A;stroke-miterlimit:10;}
</style>
<path class="st0" d="M3.1,194.7c0.6,0.5,1.3,0.3,1.9,0.3c27.6,0,55.2,0.1,82.7-0.1c10.3-0.1,20.6-0.1,30.9-0.3
	c31.7-0.5,63.4,0,95.2-0.3c34.1-0.3,68.2-0.1,102.2-0.2c1.4,0,2-0.3,1.9-1.7c-0.1-0.9,0.1-1.8,0.1-2.8c0.5,2.2,0.1,4.5-0.1,6.7
	c-0.1,0.8-0.7,0.7-1.2,0.8c-6.9,0.7-13.7,1-20.6,1c-16.3,0-32.6-0.1-48.9-0.2c-12.3-0.1-24.5-0.2-36.8-0.2
	c-22.2-0.1-44.4-0.1-66.6-0.1c-11.3,0-22.5,0.5-33.8,0.3c-11.1-0.2-22.3-0.6-33.4-0.7c-12.4-0.1-24.8-0.1-37.1,0.3
	c-8.2,0.3-16.3,0.3-24.5,0.5c-3.3,0.1-6.5-0.1-9.7-0.2c-1.5,0-2.3-0.5-2.1-2C3.3,195.6,3.2,195.2,3.1,194.7L3.1,194.7z"/>
<path class="st1" d="M157.5,199.6c5.3,0,10.6-0.2,15.9-0.2c-10.9,0-21.7-0.1-32.6,0c-4.2,0-8.4-0.2-12.6,0.2c-0.3,0-0.6,0.1-0.8,0.2
	C137.5,199.7,147.5,199.6,157.5,199.6L157.5,199.6z"/>
<path class="st1" d="M188.8,199.7c-0.2-0.1-0.4-0.1-0.7-0.1c-1.7,0-3.5-0.2-5.2-0.2c-1.6,0-3.1,0-4.6,0c3.1,0,6.1,0.2,9.2,0.5
	C188,199.8,188.4,199.8,188.8,199.7L188.8,199.7z"/>
<path class="st2" d="M319.9,185.8L319.9,185.8c-0.2-10.4-0.5-20.8-0.7-31.2c-0.3-14.5-0.6-29.1-0.9-43.6c-0.2-8.6-0.5-17.3-0.7-25.9
	c-0.3-15-0.7-30-1-45c-0.2-9.1-0.6-18.2-1.2-27.3c-0.3-4.2-2.2-7.1-6-9.4c-3.8-2.3-7.8-3.3-12.3-3.2c-20.7,0.3-41.4-0.1-62.1,0.2
	c-8.1,0.1-16.3-0.1-24.4-0.1c-9.7,0-19.4-0.1-29.1,0.1c-6.9,0.1-13.8-0.1-20.7-0.1c-13.9,0-27.8,0-41.7,0.1
	c-14.2,0.1-28.4-0.3-42.6,0C67.3,0.6,58,0.5,48.7,0.3C35.9,0.1,23.1,0.1,10.3,0C4.7,0,0.1,4.3,0.1,9.4C0,14,0,18.5,0,23.1
	C0,44.4,0,65.7,0.1,87c0,18.8,0.1,37.5,0.2,56.3c0,16.8,0.1,33.6,0.1,50.4c0,1.3-0.2,2.6,0,3.8c0.3,1.8,0.8,2.3,2.8,2.3
	c2.4,0,4.8,0.1,7.2,0c9.1-0.3,18.2-0.7,27.4-0.8c11.2-0.2,22.4-0.2,33.6-0.3c12.4-0.1,24.9,0.5,37.3,1c4.6,0.2,9.1,0,13.7,0.1
	c0.5-0.1,1-0.1,1.5-0.1c11.2-0.1,22.4-0.2,33.6-0.2c10,0,20.1-0.6,30,0.3c0.7-0.1,1.4-0.2,2.2-0.2c0.9,0,1.7,0.1,2.6,0.1
	c0.5-0.1,1.1-0.1,2.1-0.1c7.3-0.1,14.7-0.1,22-0.1c12.7,0,25.3,0,38,0.1c7.3,0,14.6,0.1,21.9,0.2c8.5,0.1,17,0.2,25.6,0
	c4.5-0.1,8.9-0.5,13.4-0.1c3.1,0.3,4.1-0.5,4.6-3.2c0.1-0.7,0.2-1.3,0.2-2C320,191.6,319.9,188.7,319.9,185.8z M304.9,171.3
	c-5.9,0.4-11.9,0.6-17.8,0.6c-13.3,0-26.6-0.2-39.8,0.1c-18.6,0.4-37.1,0.4-55.7,0.6c-8.5,0.1-17-0.1-25.6,0.3
	c-6.1,0.2-12.2,0.8-18.3,0.5c-8.8-0.5-17.6,0.2-26.4,0.1c-12.9-0.1-25.8,0-38.7-0.2c-7.3-0.1-14.5-0.5-21.8-0.9
	c-15-0.7-29.9-0.2-44.9-0.3c-2.9,0-2.8,0-2.9-2.7c-0.3-16-0.2-32-0.5-48c-0.2-12.6,0-25.3-0.3-37.9c-0.4-15.8-0.2-31.7-0.2-47.5
	c0-5.3,0.1-10.6,0.5-15.8c0.1-1.1-0.1-2.3-0.3-3.4c-0.3-2,0.7-3.6,3-3.8c2.4-0.3,4.9-0.6,7.3-0.6c6.4-0.1,12.9-0.5,19.7-0.3l0,0
	c12.1-0.2,24.6-0.5,37.1-0.3c6.9,0.1,13.9,0,20.8-0.1c16.9-0.5,33.7,0.1,50.6-0.3c7.5-0.2,15,0.4,22.5,0c6.2-0.3,12.4-0.1,18.6,0.2
	c31.2,1.2,62.4,0.3,93.7,0.5c3,0,6-0.5,9,0c5,0.8,8.1,4.1,8.3,8.7c0.2,4.4,0.3,8.8,0.5,13.3c0.2,6.8,0.1,13.6,0.4,20.4
	c0.3,6,0.1,11.9,0.3,17.9c0.3,10.5,0.6,21.1,1,31.6c0.4,8.6,0.8,17.1,1,25.7c0.2,8.4,0.4,16.8,0.6,25.1c0.1,4.7,0.5,9.3,0.6,14
	C307.7,171,307.5,171.1,304.9,171.3z"/>
<path class="st3" d="M318.1,189.7c-0.1-8.7-0.2-17.5-0.3-26.2c-0.2-12.3-0.5-24.7-0.7-37c-0.2-12.3-0.3-24.7-0.7-37
	c-0.4-13.1-0.7-26.2-1.1-39.3c-0.3-11.4-1.2-22.8-1.4-34.2c0-2.7-0.1-5.5-2-7.8c-3.5-4.1-7.9-6.4-13.8-6.4c-83.4,0-166.8,0-250.2,0
	c-5.6,0-11.2,0-16.8,0c-0.6,0-1.2-0.1-1.8-0.1c-6,0-12-0.2-18,0.1c-5.6,0.3-9.6,4.4-9.7,9.5c0,2.4,0.2,4.8,0.2,7.2
	C1.8,49.7,1.9,80.9,1.9,112c0,4.2,0.1,8.4,0.1,12.6c0.1,14.9,0,29.8,0.3,44.7c0.2,8.4,0.2,16.8,0.8,25.3h0c0.7,1.1,2,0.8,3,0.8
	c28.6-0.2,57.2,0.4,85.8-0.3c10.4-0.2,20.7-0.1,31.1-0.2c33.4-0.4,66.7,0.1,100.1-0.3c30.4-0.3,60.9-0.1,91.3-0.1
	c0.8,0,1.7,0,2.5-0.1c0.8-0.1,1.3-0.4,1.3-1.3C318.1,192.1,318.3,190.9,318.1,189.7z M306,173.6c-16.4,0.3-32.8,0.5-49.2,0.8
	c-9.3,0.2-18.6-0.1-27.9,0c-14.8,0.2-29.6,0.5-44.4,0.4c-8.3,0-16.6,0-24.9,0v0.5v0c-6.5,0-13,0-19.5,0c-13.9-0.1-27.7,0.5-41.5,0.2
	c-16.3-0.3-32.6-0.6-48.9-1.1c-12.2-0.4-24.3-0.5-36.5-0.2c-1.5,0-1.9-0.4-2-1.8c-0.6-8.3-0.2-16.5-0.4-24.8
	c-0.3-12.5-0.2-25-0.3-37.5c-0.1-13.9,0.1-27.8,0-41.7C10.3,54,9.8,39.4,9.7,24.9c0-3.7,0.1-7.3,0.8-10.9c0.3-1.5,1.4-2.1,2.8-2.5
	C18.4,10.1,23.7,9.6,29,10c7.9,0.6,15.9,0.1,23.8-0.1c8.9-0.2,17.8-0.3,26.7-0.2c9.7,0.1,19.5,0.4,29.2-0.3c3.9-0.3,7.8-0.1,11.8,0
	c14.3,0.3,28.6-0.3,42.9-0.3c9.8,0,19.6-0.3,29.4,0.1c6.2,0.2,12.4,0.5,18.6,0.5c15.5,0,31.1-0.1,46.6,0.1
	c11.7,0.2,23.4-0.4,35.1-0.5c1.3,0,2.6,0,3.9,0.1c5,0.7,7.9,3.7,8.2,8.6c0.2,5.2,0.3,10.4,0.4,15.6c0.3,16.7,0.3,33.3,1.1,50
	c0.8,16.9,1.3,33.9,2,50.8c0.5,11.6,0.4,23.3,1.5,35C310.5,172.5,309.3,173.5,306,173.6z"/>
<path class="st4" d="M339.5,217.3"/>
<path class="st2" d="M339.7,218.7c-2.7-0.1-5.5-0.1-8.2,0c-10.4,0.3-20.7,0.8-31.1,1c-12.7,0.2-25.5,0.2-38.2,0.4
	c-14.1,0.1-28.2-0.7-42.3-1.3c-5.2-0.2-10.4,0-15.6-0.1c-0.5,0.1-1.1,0.2-1.7,0.2c-12.7,0.1-25.4,0.2-38.1,0.2
	c-11.3,0-22.8,0.8-34.1-0.3c-0.8,0.2-1.6,0.3-2.5,0.3c-1,0-1.9-0.1-2.9-0.1c-0.5,0.1-1.3,0.1-2.4,0.1c-8.3,0.1-16.7,0.2-25,0.2
	c-14.4,0-28.8,0-43.2-0.1c-8.3,0-16.5-0.1-24.8-0.2c-9.7-0.1-19.3-0.3-29,0c-5.1,0.2-10.1,0.6-15.2,0.1c-3.5-0.3-4.7,0.6-5.2,4
	c-0.1,0.6-0.1,1.1-0.2,1.7c0.3,0.1,0.6,0.3,0.9,0.5c0.7,0.4,1.2,0.9,1.7,1.4c2,0.4,3.4,1.4,4.4,2.8c5.6,0.9,11.3,2.1,16.7,2.7
	c1.5-1,3.5-1.5,5.7-1.1c2.6,0.5,5.2,0.9,7.8,1.3c1.2-0.9,2.7-1.6,4.6-1.6c11.4-0.1,22.7,0.7,34,1.9c0,0,0,0,0,0
	c10.4-0.1,20.8-0.7,31.3,0.5c0.2,0,0.3,0.1,0.5,0.1c9.8,0,19.6-0.1,29.4-0.1c0.9,0,1.7,0.1,2.4,0.4c5.7,0.1,11.3,0.3,17,0.5
	c8.3-0.5,16.6-0.7,24.9-0.7c3.6-0.1,7.3-0.1,10.9,0c1.9,0,3.8,0,5.7,0c4.4-0.1,8.9-0.1,13.3-0.1c1.2-1.2,2.9-2,5.1-2
	c2.2,0,4.5,0.1,6.6,0.2c3.4,0.1,6.9,0.2,10.3-0.2c1.2-1.1,2.8-1.9,5-1.9c38.5,0,77.1-1,115.6,0.1c0.6-0.9,1.4-1.8,2.4-2.4
	c1-0.7,2.1-1.1,3.2-1.5c0.2-0.4,0.3-0.7,0.6-1C340,221.7,339.9,218.7,339.7,218.7z"/>
<path class="st0" d="M337.4,223.5c0.3-1.9-0.7-2.4-2.3-2.5c-3.7-0.1-7.3-0.4-11-0.3c-9.2,0.3-18.4,0.3-27.7,0.7
	c-14,0.6-27.9,0.5-41.9,0.4c-12.6-0.1-25.1-0.5-37.7-0.8c-12.7-0.3-25.4,0.3-38.1,0.4c-25,0-50.1,0-75.1-0.1
	c-13.8,0-27.7-0.2-41.5-0.2c-18.4-0.1-36.8-0.2-55.2-0.2c-7.8,0-15.5,0.5-23.3,1.3c-0.6,0.1-1.3,0-1.3,0.9c-0.1,1-0.2,2.1-0.3,3.1
	c0.1,0.1,0.3,0.3,0.4,0.4c0.3-0.6,0.9-0.7,2-0.7c38.4-0.1,76.9,0.2,115.3-0.2c35.8-0.4,71.5,0.3,107.3-0.4
	c11.6-0.2,23.3-0.2,34.9-0.3c31.1-0.2,62.2-0.1,93.3-0.2c0.7,0,1.5-0.1,2.2,0.4l0,0C337.5,224.6,337.3,224.1,337.4,223.5z"/>
<path class="st2" d="M339.7,226.3c-0.1-0.4-0.1-0.8-0.1-1.1c0-0.2,0-0.4,0.1-0.6c-5.3,0.3-76.8,1.9-93.6,1.8c-1.5,0-2.6,0-3.1-0.1
	c-14.2-1.1-27.8-0.1-42,0.5c-22.2,0.9-44.4-0.2-66.7-0.5c-8.5,0.7-16.9,1.3-25.4,1.2c-7.5-0.1-14.9-2.1-22.5-2.3
	c-2.5-0.1-5-0.1-7.4-0.2c-16.8-0.4-33.6-0.8-50.4-0.2c-16.3,0.6-32.3,1.5-48.5-0.2c0,0.2,0.1,0.4,0.1,0.6c0,0.2,0,0.5,0,0.7
	c1.1,2.4,2.9,4.4,5.5,6.1c4.4,2.9,8.9,4.1,14.1,4c23.7-0.3,47.4,0.1,71.1-0.2c9.3-0.1,18.6,0.1,27.9,0.1c11.1,0,22.2,0.1,33.3-0.1
	c7.9-0.2,15.8,0.1,23.7,0.1c15.9,0,31.9,0,47.8-0.1c16.3-0.1,32.5,0.3,48.8,0c10.7-0.2,21.3-0.1,32,0.1c14.6,0.3,29.3,0.3,43.9,0.4
	c5.6,0,10.3-4,11.5-9.3c0-0.1,0-0.2,0-0.3C339.7,226.6,339.7,226.5,339.7,226.3z"/>
<path class="st3" d="M337.6,224.4C337.6,224.4,337.6,224.4,337.6,224.4C315.5,224-4.7,225-17.7,224.8c0.1,0.1,0.1,0.5,0.1,0.7
	c0.2,0.3,0.1,0.2,0.3,0.5c4,5.2,9.1,8,15.8,8c95.5,0,191.1,0,286.7,0h19.3c0.7,0,1.4,0.1,2.1,0.1c6.9,0,13.8,0.3,20.6-0.2
	c5.2-0.3,9.2-3.7,10.5-8.4C337.6,225.1,337.6,224.8,337.6,224.4z"/>
<path class="st3" d="M151.1,230.7"/>
<path class="st3" d="M154.3,226.6"/>
<line class="st5" x1="338.3" y1="223.6" x2="338" y2="226.9"/>
<path class="st5" d="M339.5,224.1c0,1.3,0.1,2.5-0.2,3.8c-0.3,1.2-1.1,2.4-2.2,2.9"/>
</svg>
