<?xml version="1.0" encoding="UTF-8"?>
<svg id="_圖層_2" data-name="圖層 2" xmlns="http://www.w3.org/2000/svg" viewBox="0 0 360 17.62">
  <defs>
    <style>
      .cls-1 {
        fill: none;
        stroke: #543c1a;
        stroke-miterlimit: 10;
      }

      .cls-2 {
        fill: #543c1a;
      }

      .cls-2, .cls-3, .cls-4 {
        fill-rule: evenodd;
        stroke-width: 0px;
      }

      .cls-3 {
        fill: #e9ecf1;
      }

      .cls-4 {
        fill: #a1a3a7;
      }
    </style>
  </defs>
  <g id="_圖層_2-2" data-name=" 圖層 2">
    <path class="cls-2" d="m359.69,0c-2.73-.06-64.73,1.25-77.46,1.37C268.1,1.49,10.48.84,5.4.34,1.92-.01.74.93.18,4.35c-.09.57-.13,1.14-.16,1.71.3.13.6.27.89.46.66.39,1.23.88,1.72,1.43,1.97.37,3.44,1.42,4.4,2.82,5.65.94,11.3,2.13,16.69,2.69,1.52-1.01,3.45-1.5,5.68-1.06,2.6.51,5.2.92,7.82,1.29,1.16-.94,2.69-1.55,4.64-1.56,11.39-.06,22.73.75,34.04,1.88,0,0,.01,0,.02,0,10.44-.08,20.85-.75,31.25.47.16.02.3.07.46.1,9.8,0,19.59-.09,29.39-.1.89,0,1.7.13,2.43.36,5.67.11,11.33.32,17,.52,8.3-.5,16.61-.7,24.92-.75,3.63-.13,7.26-.11,10.9-.01,1.89,0,3.78.02,5.66.03,4.43-.09,8.86-.11,13.29-.06,1.2-1.2,2.88-1.98,5.09-1.97,2.24,0,4.45.07,6.64.24,3.45.14,6.91.18,10.31-.24,1.19-1.14,2.85-1.88,4.98-1.88,38.54-.03,77.08-1.03,115.61.08.62-.92,1.42-1.75,2.4-2.42.98-.67,2.06-1.14,3.18-1.51.16-.36.35-.69.56-1.02,0-2.86-.08-5.84-.31-5.85Z"/>
    <path class="cls-4" d="m357.41,4.82c.25-1.88-.66-2.43-2.34-2.48-3.67-.11-7.31-.43-10.98-.29-9.22.32-18.45.3-27.66.68-13.97.58-27.93.55-41.88.43-12.56-.11-25.11-.53-37.68-.84-12.7-.32-25.4.35-38.1.36-25.02.05-50.06-.03-75.08-.11-13.84-.03-27.67-.17-41.51-.24-18.39-.09-36.76-.23-55.15-.2-7.77.02-15.53.46-23.26,1.29-.61.06-1.29-.02-1.35.94-.08,1.04-.18,2.08-.25,3.12.14.13.28.27.41.41.29-.55.93-.7,1.97-.7,38.43-.09,76.85.23,115.28-.2,35.77-.4,71.53.26,107.31-.41,11.64-.21,23.26-.23,34.88-.32,31.09-.24,62.19-.12,93.29-.15.75,0,1.53-.14,2.17.43v-.02c-.02-.58-.15-1.16-.07-1.72Z"/>
    <path class="cls-2" d="m359.69,7.64c-.06-.37-.09-.75-.09-1.14.02-.18.05-.37.07-.55-5.33.26-76.82,1.95-93.62,1.84-1.52,0-2.6-.03-3.13-.08-14.2-1.12-27.82-.09-42.02.47-22.22.88-44.45-.17-66.68-.53-8.46.71-16.87,1.25-25.36,1.16-7.54-.09-14.87-2.07-22.52-2.25-2.48-.06-4.96-.12-7.44-.18-16.78-.4-33.57-.8-50.35-.2-16.25.59-32.3,1.48-48.54-.16.03.19.05.38.08.57,0,.23-.03.45-.05.68,1.11,2.43,2.9,4.42,5.48,6.11,4.35,2.87,8.92,4.06,14.14,3.98,23.71-.32,47.41.11,71.12-.24,9.31-.14,18.63.08,27.94.11,11.11.03,22.22.14,33.35-.09,7.9-.17,15.8.09,23.7.09,15.93,0,31.87-.05,47.8-.14,16.25-.09,32.51.35,48.76.03,10.65-.21,21.32-.09,31.98.09,14.64.26,29.3.3,43.94.41,5.55.04,10.29-3.99,11.48-9.26,0-.11.01-.21.02-.32-.01-.14-.04-.27-.04-.41Z"/>
    <path class="cls-3" d="m357.62,5.73s0,0,0,0c-22.16-.38-342.28.55-355.35.35.06.13.06.54.11.68.16.26.11.24.3.49,3.99,5.15,9.09,8.01,15.81,8.01,95.55-.03,191.11.02,286.65.03h19.28c.7,0,1.42.09,2.12.09,6.88-.02,13.76.29,20.62-.15,5.18-.34,9.17-3.73,10.52-8.4-.05-.36-.08-.72-.07-1.09Z"/>
    <line class="cls-1" x1="358.26" y1="4.96" x2="358.02" y2="8.18"/>
    <path class="cls-1" d="m359.47,5.46c.05,1.26.09,2.55-.23,3.77-.33,1.22-1.09,2.39-2.24,2.88"/>
  </g>
</svg>