<?xml version="1.0" encoding="UTF-8"?>
<svg id="_圖層_2" data-name="圖層 2" xmlns="http://www.w3.org/2000/svg" viewBox="0 0 262.02 175.01">
  <defs>
    <style>
      .cls-1 {
        fill: none;
        stroke: #543c1a;
        stroke-miterlimit: 10;
      }

      .cls-2 {
        fill: #77787b;
      }

      .cls-2, .cls-3, .cls-4, .cls-5 {
        fill-rule: evenodd;
        stroke-width: 0px;
      }

      .cls-3 {
        fill: #543c1a;
      }

      .cls-4 {
        fill: #e9ecf1;
      }

      .cls-5 {
        fill: #a1a3a7;
      }
    </style>
  </defs>
  <g id="_圖層_2-2" data-name=" 圖層 2">
    <g>
      <path class="cls-3" d="m251.82,152.84l.02.03h.03c-.19-8.58-.4-17.15-.58-25.73-.24-11.96-.45-23.93-.69-35.88-.15-7.1-.34-14.2-.5-21.3-.26-12.33-.54-24.68-.75-37.02-.13-7.49-.42-14.95-.88-22.42-.21-3.46-1.66-5.84-4.5-7.72-2.87-1.89-5.88-2.68-9.32-2.63-15.63.21-31.25-.07-46.88.16-6.14.09-12.28-.05-18.42-.07-7.32-.02-14.65-.09-21.98.06-5.21.11-10.41-.06-15.62-.06-10.5,0-21.01.03-31.51.09-10.71.06-21.43-.23-32.14-.02-7.02.14-14.06.06-21.08-.06C37.34.1,27.67.07,18.02,0c-4.21-.03-7.73,3.5-7.76,7.73-.02,3.76-.04,7.53-.04,11.28,0,17.52,0,35.03.04,52.55.03,15.44.09,30.88.13,46.32.03,13.83.05,27.67.09,41.49,0,1.05-.17,2.1,0,3.17.25,1.5.6,1.88,2.14,1.91,1.82.04,3.64.07,5.46.01,6.89-.21,13.78-.54,20.68-.67,8.47-.16,16.94-.16,25.4-.24,9.4-.08,18.78.45,28.16.83,3.44.14,6.9.03,10.35.07.35-.07.73-.12,1.13-.12,8.46-.05,16.91-.14,25.36-.14,7.54,0,15.17-.51,22.69.21.52-.11,1.05-.18,1.66-.2.64-.02,1.28.06,1.93.09.35-.08.86-.09,1.59-.09,5.55-.06,11.1-.1,16.64-.1,9.57,0,19.14.03,28.71.06,5.51.02,11.01.09,16.51.15,6.44.06,12.87.2,19.31,0,3.38-.1,6.75-.41,10.13-.08,2.32.23,3.1-.39,3.47-2.65.09-.54.12-1.09.12-1.64-.02-2.36-.05-4.73-.1-7.1Zm-11.37-11.93c-4.47.32-8.96.48-13.44.49-10.03.03-20.07-.14-30.1.08-14.02.32-28.02.31-42.04.51-6.44.09-12.87-.05-19.3.22-4.61.2-9.22.67-13.82.37-6.65-.44-13.28.18-19.93.12-9.73-.09-19.46,0-29.2-.13-5.5-.08-10.99-.44-16.47-.71-11.3-.55-22.6-.15-33.91-.26-2.18-.02-2.15,0-2.18-2.23-.21-13.15-.16-26.3-.35-39.44-.15-10.4,0-20.81-.22-31.21-.27-13.03-.14-26.05-.14-39.08,0-4.34.05-8.69.36-13.03.07-.91-.08-1.85-.22-2.78-.25-1.67.55-2.93,2.24-3.16,1.84-.25,3.69-.47,5.55-.52,4.87-.12,9.73-.43,14.91-.25l.02.02.02.03c9.13-.2,18.57-.4,28.01-.26,5.25.08,10.49.04,15.73-.12,12.74-.38,25.49.09,38.23-.28,5.68-.16,11.34.34,17,.01,4.71-.27,9.39-.05,14.08.14,23.58.96,47.16.28,70.75.4,2.28.01,4.55-.39,6.82.03,3.75.69,6.12,3.39,6.3,7.19.17,3.63.24,7.26.36,10.9.18,5.58.05,11.16.28,16.74.2,4.9.08,9.8.23,14.7.25,8.66.43,17.32.78,25.97.29,7.05.61,14.1.74,21.15.13,6.89.29,13.78.48,20.66.11,3.84.35,7.68.45,11.52.05,1.97-.09,2.08-2.02,2.21Z"/>
      <path class="cls-5" d="m12.61,160.13c.43.37.95.28,1.45.28,20.84-.02,41.68.06,62.5-.1,7.79-.06,15.57-.07,23.37-.21,23.97-.44,47.93,0,71.89-.27,25.74-.28,51.49-.07,77.23-.13,1.09,0,1.55-.24,1.41-1.39-.08-.74.04-1.51.06-2.27.37,1.84.09,3.69-.05,5.53-.04.63-.49.58-.9.62-5.18.55-10.37.84-15.58.85-12.32.02-24.63-.07-36.95-.13-9.27-.05-18.54-.14-27.81-.16-16.76-.05-33.54-.1-50.3-.07-8.51,0-17.02.45-25.52.24-8.42-.2-16.82-.48-25.24-.55-9.35-.08-18.7-.1-28.06.28-6.17.25-12.35.24-18.53.45-2.46.09-4.9-.12-7.35-.19-1.12-.03-1.74-.39-1.57-1.63.05-.37-.04-.75-.06-1.13h.01v-.02Z"/>
      <path class="cls-2" d="m129.19,164.2c3.99,0,8.02-.15,12.04-.18-8.21-.03-16.4-.06-24.61-.04-3.16,0-6.34-.16-9.5.2-.25.03-.44.07-.6.14,7.56-.05,15.12-.12,22.68-.12h0Z"/>
      <path class="cls-2" d="m152.87,164.27c-.13-.05-.29-.07-.49-.07-1.3-.02-2.62-.14-3.92-.15-1.17,0-2.35,0-3.51,0,2.32.04,4.64.15,6.94.38.32-.06.65-.11.99-.14h-.01Z"/>
      <path class="cls-3" d="m261.78,162.18c-1.99-.04-3.98-.08-5.97,0-7.54.23-15.08.6-22.62.74-9.26.18-18.52.18-27.79.27-10.28.09-20.54-.5-30.8-.92-3.76-.15-7.55-.03-11.33-.08-.38.08-.8.13-1.24.13-9.25.06-18.49.15-27.74.15-8.25,0-16.59.56-24.82-.23-.57.12-1.15.2-1.81.22-.7.02-1.4-.07-2.11-.1-.38.09-.94.1-1.73.1-6.07.07-12.14.11-18.21.11-10.47,0-20.94-.03-31.41-.07-6.02-.02-12.04-.1-18.06-.17-7.05-.07-14.08-.22-21.12,0-3.7.11-7.39.45-11.08.09-2.53-.25-3.39.43-3.8,2.92-.07.41-.1.83-.11,1.25.22.09.44.2.65.33.48.28.89.64,1.25,1.04,1.43.27,2.5,1.04,3.2,2.05,4.11.69,8.22,1.55,12.15,1.96,1.11-.74,2.51-1.09,4.14-.77,1.89.37,3.79.67,5.69.94.84-.68,1.96-1.13,3.38-1.14,8.29-.05,16.54.54,24.77,1.37h0c7.6-.06,15.17-.54,22.75.34.12,0,.22.05.34.07,7.13,0,14.26-.06,21.39-.07.65,0,1.24.09,1.77.26,4.12.08,8.25.23,12.37.38,6.04-.37,12.09-.51,18.14-.54,2.64-.1,5.28-.08,7.93,0,1.37,0,2.75.02,4.12.02,3.23-.06,6.45-.08,9.68-.04.88-.87,2.1-1.44,3.7-1.44s3.24.05,4.83.17c2.51.1,5.03.13,7.5-.17.87-.83,2.07-1.37,3.62-1.37,28.05-.02,56.1-.75,84.14.06.45-.67,1.03-1.27,1.75-1.76.71-.49,1.5-.83,2.32-1.1.11-.26.25-.5.4-.74,0-2.08-.06-4.25-.23-4.26h0Z"/>
      <path class="cls-5" d="m260.12,165.68c.19-1.37-.48-1.77-1.7-1.8-2.67-.08-5.32-.31-7.99-.21-6.71.23-13.43.22-20.13.5-10.17.42-20.33.4-30.48.31-9.14-.08-18.28-.39-27.42-.61-9.24-.23-18.48.25-27.73.27-18.21.03-36.43-.02-54.64-.08-10.07-.02-20.14-.12-30.21-.18-13.38-.07-26.76-.17-40.14-.14-5.66,0-11.3.33-16.92.94-.45.04-.94,0-.98.69-.06.76-.13,1.51-.18,2.27.1.1.2.19.3.3.21-.4.68-.51,1.43-.51,27.96-.07,55.93.17,83.89-.14,26.04-.29,52.06.19,78.1-.3,8.47-.15,16.92-.17,25.38-.23,22.62-.18,45.26-.09,67.9-.11.54,0,1.11-.1,1.58.31h.01c-.02-.43-.12-.85-.07-1.26v-.02Z"/>
      <path class="cls-4" d="m250.51,156.04c-.08-7.19-.15-14.38-.26-21.56-.16-10.14-.37-20.29-.5-30.43-.12-10.14-.23-20.29-.51-30.43-.3-10.79-.55-21.56-.84-32.33-.25-9.37-.91-18.74-1.04-28.12-.04-2.22-.09-4.52-1.55-6.41-2.62-3.4-5.99-5.28-10.42-5.28-62.99.02-125.98,0-188.97-.02h-12.71c-.46,0-.93-.06-1.39-.06-4.53,0-9.07-.19-13.59.1-4.21.28-7.27,3.6-7.29,7.81-.01,1.98.15,3.97.15,5.95.04,25.63.06,51.26.09,76.9,0,3.47.07,6.93.08,10.4.04,12.26-.01,24.53.25,36.79.15,6.92.17,13.86.6,20.78h-.04c.55.94,1.49.68,2.29.68,21.59-.14,43.19.31,64.78-.23,7.84-.2,15.66-.1,23.5-.2,25.2-.33,50.4.05,75.59-.26,22.99-.28,45.99-.06,68.99-.06.64,0,1.28.03,1.91-.05.62-.07,1.01-.34.96-1.06-.08-.97.08-1.95-.08-2.91Zm-10.06-15.13c-4.47.32-8.96.48-13.44.49-10.03.03-20.07-.14-30.1.08-14.02.32-28.02.31-42.04.51-6.44.09-12.87-.05-19.3.22-4.61.2-9.22.67-13.82.37-6.65-.44-13.28.18-19.93.12-9.73-.09-19.46,0-29.2-.13-5.5-.08-10.99-.44-16.47-.71-11.3-.55-22.6-.15-33.91-.26-2.18-.02-2.15,0-2.18-2.23-.21-13.15-.16-26.3-.35-39.44-.15-10.4,0-20.81-.22-31.21-.27-13.03-.14-26.05-.14-39.08,0-4.34.05-8.69.36-13.03.07-.91-.08-1.85-.22-2.78-.25-1.67.55-2.93,2.24-3.16,1.84-.25,3.69-.47,5.55-.52,4.87-.12,9.73-.43,14.91-.25l.02.02.02.03c9.13-.2,18.57-.4,28.01-.26,5.25.08,10.49.04,15.73-.12,12.74-.38,25.49.09,38.23-.28,5.68-.16,11.34.34,17,.01,4.71-.27,9.39-.05,14.08.14,23.58.96,47.16.28,70.75.4,2.28.01,4.55-.39,6.82.03,3.75.69,6.12,3.39,6.3,7.19.17,3.63.24,7.26.36,10.9.18,5.58.05,11.16.28,16.74.2,4.9.08,9.8.23,14.7.25,8.66.43,17.32.78,25.97.29,7.05.61,14.1.74,21.15.13,6.89.29,13.78.48,20.66.11,3.84.35,7.68.45,11.52.05,1.97-.09,2.08-2.02,2.21Z"/>
      <path class="cls-3" d="m261.78,167.74c-.04-.27-.07-.55-.07-.83.02-.13.04-.27.05-.4-3.88.19-55.91,1.42-68.13,1.34-1.11,0-1.89-.03-2.28-.06-10.33-.81-20.24-.07-30.58.34-16.17.64-32.35-.13-48.53-.38-6.15.52-12.28.91-18.46.84-5.49-.06-10.82-1.5-16.39-1.64-1.81-.04-3.61-.09-5.42-.13-12.21-.29-24.43-.58-36.64-.14-11.83.43-23.51,1.07-35.33-.11.02.14.04.27.06.41,0,.17-.02.33-.03.49.81,1.77,2.11,3.21,3.99,4.45,3.17,2.09,6.49,2.95,10.29,2.9,17.26-.23,34.5.08,51.76-.18,6.78-.1,13.56.06,20.34.08,8.09.02,16.17.1,24.27-.07,5.75-.12,11.5.07,17.25.07,11.6,0,23.19-.03,34.79-.1,11.83-.07,23.66.25,35.49.02,7.75-.15,15.52-.07,23.27.07,10.66.19,21.32.22,31.98.3,4.04.03,7.49-2.91,8.35-6.74,0-.08.01-.15.01-.23,0-.1-.03-.2-.03-.3h0Z"/>
      <path class="cls-4" d="m260.28,166.34h0c-16.13-.28-249.11.4-258.62.25.05.1.04.39.08.49.11.19.08.17.22.35,2.9,3.75,6.61,5.83,11.51,5.83,69.54-.02,139.08,0,208.62.02h14.03c.51,0,1.03.07,1.54.07,5.01,0,10.01.21,15.01-.11,3.77-.25,6.67-2.72,7.66-6.11-.04-.26-.06-.52-.05-.79h0Z"/>
      <line class="cls-1" x1="260.74" y1="165.79" x2="260.57" y2="168.13"/>
      <path class="cls-1" d="m261.42,166.15c.03.92.07,1.85-.17,2.74-.24.89-.79,1.74-1.63,2.09"/>
      <path class="cls-3" d="m244.62,139.4c-.78-9.57-.75-19.17-1.1-28.75-.53-13.93-.91-27.87-1.54-41.8-.61-13.67-.58-27.38-.84-41.08-.08-4.26-.14-8.53-.31-12.8-.16-3.97-2.38-6.47-6.16-7.04-.96-.15-1.95-.11-2.92-.11-8.85.02-17.68.53-26.53.37-11.72-.21-23.45-.12-35.18-.12-4.71,0-9.39-.25-14.09-.45-7.4-.31-14.82-.09-22.22-.09-10.8.01-21.59.49-32.39.27-2.96-.06-5.92-.25-8.88-.01-7.35.59-14.73.3-22.09.24-6.74-.06-13.46.05-20.19.18-6.01.11-12.01.56-18.01.05-4.04-.34-8.02.04-11.92,1.19-1.08.31-1.9.8-2.1,2.06-.48,2.98-.59,5.94-.57,8.96.09,11.96.44,23.93.53,35.89.08,11.42-.03,22.85.03,34.27.05,10.28-.03,20.55.19,30.83.15,6.8-.14,13.61.3,20.41.08,1.13.35,1.48,1.51,1.44,9.19-.29,18.38-.13,27.56.16,12.31.39,24.62.68,36.93.91,10.45.2,20.91-.26,31.37-.18,4.92.03,9.82,0,14.74,0h.02s0-.41,0-.41c6.26,0,12.53-.03,18.79,0,11.18.05,22.35-.18,33.53-.34,7.03-.1,14.06.18,21.09.02,12.4-.29,24.8-.47,37.2-.69,2.54-.05,3.45-.89,3.25-3.38Zm-4.08,1.46c-4.47.32-8.96.48-13.44.49-10.03.03-20.07-.14-30.1.08-14.02.32-28.02.31-42.04.51-6.44.09-12.87-.05-19.3.22-4.61.2-9.22.67-13.82.37-6.65-.44-13.28.18-19.93.12-9.73-.09-19.46,0-29.2-.13-5.5-.08-10.99-.44-16.47-.71-11.3-.55-22.6-.15-33.91-.26-2.18-.02-2.15,0-2.18-2.23-.21-13.15-.16-26.3-.35-39.44-.15-10.4,0-20.81-.22-31.21-.27-13.03-.14-26.05-.14-39.08,0-4.34.05-8.69.36-13.03.07-.91-.08-1.85-.22-2.78-.25-1.67.55-2.93,2.24-3.16,1.84-.25,3.69-.47,5.55-.52,4.87-.12,9.73-.43,14.91-.25l.02.02.02.03c9.13-.2,18.57-.4,28.01-.26,5.25.08,10.49.04,15.73-.12,12.74-.38,25.49.09,38.23-.28,5.68-.16,11.34.34,17,.01,4.71-.27,9.39-.05,14.08.14,23.58.96,47.16.28,70.75.4,2.28.01,4.55-.39,6.82.03,3.75.69,6.12,3.39,6.3,7.19.17,3.63.24,7.26.36,10.9.18,5.58.05,11.16.28,16.74.2,4.9.08,9.8.23,14.7.25,8.66.43,17.32.78,25.97.29,7.05.61,14.1.74,21.15.13,6.89.29,13.78.48,20.66.11,3.84.35,7.68.45,11.52.05,1.97-.09,2.08-2.02,2.21Z"/>
    </g>
  </g>
</svg>