<?xml version="1.0" encoding="utf-8"?>
<!-- Generator: Adobe Illustrator 28.1.0, SVG Export Plug-In . SVG Version: 6.00 Build 0)  -->
<svg version="1.1" id="_圖層_2" xmlns="http://www.w3.org/2000/svg" xmlns:xlink="http://www.w3.org/1999/xlink" x="0px" y="0px"
	 viewBox="0 0 330.2 344.4" style="enable-background:new 0 0 330.2 344.4;" xml:space="preserve">
<style type="text/css">
	.st0{fill:#FFFFFF;}
	.st1{fill:#543C1A;stroke:#543C1A;stroke-width:2.25;stroke-linecap:round;stroke-linejoin:round;}
	.st2{fill:#B4D1E2;}
	.st3{fill:none;stroke:#543C1A;stroke-width:2.45;stroke-linecap:round;stroke-linejoin:round;}
	.st4{fill:#E83541;}
	.st5{fill:none;stroke:#543C1A;stroke-width:2.61;stroke-linecap:round;stroke-linejoin:round;}
	.st6{fill:#EFB072;}
	.st7{fill:#543C1A;stroke:#543C1A;stroke-width:1.33;stroke-linecap:round;stroke-linejoin:round;}
	.st8{fill:none;stroke:#543C1A;stroke-width:2.25;stroke-linecap:round;stroke-linejoin:round;}
	.st9{fill:none;stroke:#543C1A;stroke-width:1.69;stroke-linecap:round;stroke-linejoin:round;}
	.st10{fill:#543C1A;stroke:#543C1A;stroke-width:1.87;stroke-linecap:round;stroke-linejoin:round;}
	.st11{fill:none;stroke:#543C1A;stroke-width:1.57;stroke-linecap:round;stroke-linejoin:round;}
	.st12{fill:#EFD472;}
	.st13{fill:#543C1A;stroke:#543C1A;stroke-width:1.57;stroke-linecap:round;stroke-linejoin:round;}
	.st14{fill:#543C1A;stroke:#543C1A;stroke-width:2.3;stroke-linecap:round;stroke-linejoin:round;}
	.st15{fill:#5B3911;}
	.st16{fill:#FDFCFC;}
	.st17{fill:#FCFCFC;}
	.st18{fill:#FF7980;}
</style>
<g>
	<path class="st0" d="M327.1,129.5c0.9-4.1,0.2-8.3-2.3-11.9c-0.5-0.8-1.1-1.5-1.7-2.1c-2.6-2.8-6.1-4.5-9.9-4.9
		c-0.4-0.5-0.9-1-1.5-1.5c-2.8-2.5-6.5-3.8-10.5-3.8c-0.6,0-1.3,0-1.9,0.1c-0.1,0-0.3,0-0.4,0c-1.5,0.2-5.3,0.7-11.6,6.3
		c-2.5-2.1-5.8-3.7-9.8-4.5c-1.6-0.3-3.2-0.5-4.8-0.5c-3.5,0-6.9,0.8-9.7,2.4c-1.1-1.4-2.2-2.6-3.2-3.9c-2.2-2.6-5-5.9-5.5-7.7
		c-0.5-2.1,0.3-6.3,1-10c1.4-7,3-15.8-1.3-23.5c-4.4-7.8-12.8-10.9-19.6-13.4c-3.3-1.2-7.4-2.7-8.8-4.2c-1.4-1.4-2.8-5.6-3.9-8.9
		c-2.3-6.9-5.2-15.4-13-20c-3.5-2-7.4-3-12.2-3c-3.9,0-7.7,0.7-11.4,1.3c-3,0.5-5.8,1-8,1c-1,0-1.6-0.1-1.9-0.2c0,0-0.1,0-0.1,0
		c-1.8-0.5-5.1-3.3-7.7-5.5c-5.5-4.8-12.4-10.7-21.6-10.7c-9.2,0-16.1,6-21.7,10.7c-2.6,2.2-5.9,5-7.6,5.5c-0.3,0.1-0.9,0.2-1.9,0.2
		c-2.2,0-5-0.5-8-1c-3.7-0.6-7.5-1.3-11.4-1.3c-4.8,0-8.8,1-12.3,3.1C75.2,22.2,72.3,30.7,70,37.5c-1.1,3.4-2.5,7.5-4,9
		c-0.2,0.2-0.7,0.6-1.8,1.2c-0.2,0.1-0.3,0.1-0.5,0.2c-1.8,0.9-4.1,1.7-6.4,2.6c-0.9,0.3-1.9,0.7-2.8,1l-0.8,0.3
		c-5.9,2.3-12.5,5.6-16.2,12.1c-4.3,7.7-2.6,16.4-1.3,23.5c0.7,3.7,1.5,7.9,1,10c-0.5,1.8-3.3,5.1-5.5,7.7
		c-4.7,5.6-10.6,12.5-10.6,21.7c0,6.3,2.9,11.6,6.2,16.1c-7.4,5.2-11,11.5-12.6,16.7c-1,3.3-1.7,6.7-1.9,10.2
		c-2.1,1.8-3.8,4-4.9,6.5c0,0,0,0.1-0.1,0.1c-1.1,2.4-1.6,4.8-1.7,7.2c0,0.1,0,0.1,0,0.2c-0.1,2.6,0.4,4.9,1.3,6.9
		c-2.6,5.9-2.1,11.8-1.2,15.8c-2,5.1-2.8,12.3,1.2,19.9c3.4,6.3,9.2,9.9,16,9.9c0.1,0,0.3,0,0.4,0c1.7,0,3.3-0.3,4.6-0.6
		c1.7,0.5,3.5,0.8,5.3,0.8c0,0,0.1,0,0.2,0c0.3,0,0.6,0,0.9,0c2.7,2.7,6.3,4.6,10.9,4.7c0.1,0,0.5,0,0.6,0c3.6,0,8.9-1.5,13.8-8.5
		c0.4-0.6,0.8-1.3,1.1-2c3.2-5.5,5-12.3,5-18.9c0-1.5-0.1-3-0.2-4.5c0,0,0,0,0.1,0.1c1.4,1.4,2.8,5.6,3.9,8.9
		c1.2,3.7,2.7,7.8,4.9,11.6c-2.1,0.4-4.1,1.1-5.9,2.1c-2.6,1.4-9.4,5.2-22.6,43.5c-0.4,1.1-0.5,2.2-0.5,3.3h-1
		c-9.3,0-12.5-6-13.1-7.4c-0.3-0.9-0.6-1.3-1.1-2.1c-0.4-0.6-0.8-1.2-1.4-1.8l0,0l-0.1-0.2c-3.7-4.5-8.5-6.9-13.6-6.9
		c-5,0-9.6,2.5-12.3,6.8c-2.2,3.4-5.1,11,0.4,23.3c7.5,16.6,25.9,21.9,33.1,23.3c0.3,0.5,0.6,0.9,0.9,1.3c-0.2,1.3-0.4,2.6-0.4,4
		c0,11,8.4,20,19,20.9c3.9,3,8.7,4.7,13.7,4.7c12.5,0,22.7-10.3,22.7-23c0-1.6-0.2-3.3-0.5-4.8c0.8-0.7,1.4-1.5,1.9-2.5h100.7
		c0.2,0.3,0.4,0.5,0.6,0.7c-0.2,1.3-0.4,2.6-0.4,4c0,10.4,7.5,19.1,17.3,20.7c4,3.1,8.9,4.9,14,4.9c12.5,0,22.7-10.3,22.7-23
		c0-1.6-0.2-3.3-0.5-4.8c1-1,1.9-2.2,2.4-3.6c8.3-2.1,23.9-7.8,30.6-22.8c5.1-11.3,2.2-18.8,0-22.2c-3-4.7-8.2-7.5-13.7-7.5
		c-6,0-11.3,3.2-13.8,8.5c-0.7,1.2-6,9.6-13.1,9.6H222c-3.7-8.4-10.2-18.7-20.2-21.5c-3.5-0.9-7.4-1.4-11.5-1.4
		c-1.3,0-2.5,0-3.7,0.1c-1.4-4.9-3.3-10.8-4.9-15c-0.2-0.5-0.4-1-0.6-1.5c1.2,0.2,2.5,0.4,3.8,0.6c3.7,0.6,7.5,1.3,11.4,1.3
		c4.8,0,8.9-1,12.3-3.1c7.7-4.6,10.5-13.1,12.9-19.9c1.2-3.5,2.5-7.5,4-9.1c1.4-1.4,5.5-3,8.8-4.2c6.8-2.5,15.2-5.6,19.6-13.4
		c2.2-4,2.9-8.3,2.7-12.5c0.9,0,1.7,0,2.6,0c5.4,0,10.3-0.7,14.7-2c1.5,0.4,3,0.7,4.6,0.7c1.7,0,3.4-0.3,5-0.9
		c2.6-1,4.5-2.3,5.9-3.6c5-0.4,12.7-2.5,19.1-11.1c6.9-2.8,16.2-7.8,19.4-14.6C330.6,139.9,330.3,134.1,327.1,129.5z M86.5,276.7
		c3.6-3.3,6.2-6.7,8.2-9.1c5.6,0.4,10.7,0.7,15.2,0.7c12.9,0,19.8-1.7,24.1-6c1.5-1.5,3.3-3.8,6.3-9.5c1.7,0.5,3.6,0.7,5.5,0.7
		c3,0,5.9-0.6,8.9-1.9c0.1,0,0.3-0.1,0.4-0.1c1.7,3.6,2.3,5.2,2.5,5.9c0.9,2.7,1.2,11,1,19.3H86.5z"/>
	<g>
		<path class="st1" d="M228.1,161c0,0,35.2,13.9,51.6,0.3c16.4-13.7,15.5-25.4,15.5-25.4s-6.1-5.4-9.9-5.9c0,0-4,16.3-15.5,22.1
			s-39.6-6.4-39.6-6.4"/>
		<g>
			<path class="st0" d="M270.9,145.5c0,0-7.3-0.3-5.4,7.1s9.9,14.8,14.5,13c4.6-1.7,3.3-4.9,3.3-4.9s10.8,4.4,18.6-8.6
				c0,0,14.4-5.3,16.9-10.7c3.5-7.5-4.7-9.2-4.7-9.2s5.4-4.6,2.4-9c-3.4-5-9.4-1.3-9.4-1.3s0.3-7.2-6.8-6.5
				c-5.1,0.7-15.3,13.4-15.3,13.4s0.5-9.8-9.4-11.7c-9.9-1.9-13.8,6.1-10.6,9.3c3.2,3.2,9,6.2,8.3,10.1
				C272.6,140.5,270.9,145.5,270.9,145.5L270.9,145.5L270.9,145.5z"/>
			<g>
				<path class="st2" d="M272.9,138.5C272.9,138.5,272.9,138.6,272.9,138.5C272.9,138.6,272.9,138.6,272.9,138.5L272.9,138.5z"/>
				<path class="st2" d="M319.2,140.5c0.1-0.2,0.1-0.3,0.1-0.5c0-0.1,0-0.2,0.1-0.3c0-0.1,0.1-0.3,0.1-0.4c0-0.1,0-0.2,0-0.3
					s0-0.2,0-0.4c0-0.1,0-0.2,0-0.3s0-0.2,0-0.3v-0.2c0-0.1,0-0.2,0-0.3s0-0.1,0-0.2c0-0.2,0-0.3-0.1-0.5v-0.1
					c0-0.1-0.1-0.2-0.1-0.4c0-0.1,0-0.1-0.1-0.2c0-0.1-0.1-0.2-0.1-0.3s-0.1-0.1-0.1-0.2c0-0.1-0.1-0.2-0.1-0.2
					c0-0.1-0.1-0.1-0.1-0.2c0-0.1-0.1-0.2-0.1-0.2c0-0.1-0.1-0.1-0.1-0.1c-0.1-0.1-0.1-0.2-0.2-0.2l-0.1-0.1
					c-0.1-0.1-0.2-0.2-0.3-0.3l0,0c-0.2-0.2-0.4-0.4-0.7-0.6l0,0c-0.1-0.1-0.2-0.2-0.4-0.2l0,0c-0.5,2.9-1.8,6.2-5.2,7.7
					c-6.6,2.8-13,1.7-13,1.7s-2,11.2-9.5,12.3s-14.4-11.9-16.3-16.6h-0.1c-0.8,3.4-2,6.8-2,6.8s0,0-0.1,0c2.4,5.5,5.7,14.2,3.2,16.4
					c-0.5,0.5-1.1,0.8-1.8,0.9c2.7,2.3,5.6,3.6,7.9,2.8c4.6-1.7,3.3-4.9,3.3-4.9s10.8,4.4,18.6-8.6c0,0,14.4-5.3,16.9-10.7
					c0.1-0.2,0.2-0.5,0.3-0.7C319.2,140.6,319.2,140.6,319.2,140.5L319.2,140.5L319.2,140.5z"/>
			</g>
			<path class="st3" d="M270.9,145.5c0,0-7.2,0.2-5.2,7.6c2,7.4,9.8,14.3,14.4,12.6s3.3-4.9,3.3-4.9s10.8,4.4,18.6-8.6
				c0,0,14.4-5.3,16.9-10.7c3.5-7.5-4.7-9.2-4.7-9.2s5.4-4.6,2.4-9c-3.4-5-9.4-1.3-9.4-1.3s0.3-7.2-6.8-6.5
				c-5.2,0.6-15.4,13.3-15.4,13.3s0.5-9.8-9.4-11.7c-9.9-1.9-13.8,6.1-10.6,9.3c3.2,3.2,9,6.2,8.3,10.1
				C272.6,140.4,270.9,145.5,270.9,145.5L270.9,145.5L270.9,145.5z"/>
			<path class="st3" d="M299,144.7c-0.2-0.8-1.3-8.3-9.6-11.8"/>
			<path class="st3" d="M292.2,133.8c0,0,7.5-7.9,15-11.8"/>
			<path class="st3" d="M314.2,132.3c0,0-8.1,2.1-15.6,9.1"/>
			<path class="st3" d="M270.9,145.5c0,0,2.8,10.4,12.5,15.2"/>
		</g>
		<path class="st4" d="M260.4,126.9c0,9.8-13.4,17.8-15.8,26.8c-2.4,9.4,5.3,22.9,0.7,31.1c-4.7,8.4-20.3,8.7-26.9,15.6
			c-6.7,6.9-6.6,22.4-14.8,27.3c-8.1,4.9-21.8-2.6-31.1-0.1c-9,2.5-16.9,15.9-26.7,15.9s-17.6-13.5-26.7-15.9
			c-9.3-2.6-22.9,4.9-31.1,0.1c-8.2-4.9-8.2-20.5-14.8-27.3c-6.6-6.8-22.2-7.2-26.9-15.6c-4.6-8.2,3.1-21.7,0.7-31.1
			c-2.3-9.1-15.8-17-15.8-26.8s13.4-17.8,15.8-26.8c2.4-9.4-5.3-22.9-0.7-31.1c4.7-8.4,20.3-8.7,26.9-15.5
			c6.7-6.8,6.6-22.4,14.8-27.3c8.2-4.8,21.8,2.6,31.1,0.1c9-2.5,16.9-15.9,26.7-15.9s17.6,13.5,26.7,15.9c9.3,2.6,22.9-4.9,31.1-0.1
			c8.2,4.9,8.2,20.5,14.8,27.3s22.2,7.2,26.9,15.5c4.6,8.2-3.1,21.7-0.7,31.1C247,109.2,260.4,117.1,260.4,126.9L260.4,126.9
			L260.4,126.9z"/>
		<g>
			<path class="st2" d="M68.3,56.9c-5.9,3-13.7,4.6-18.6,8.4C55.6,62.2,63.4,60.6,68.3,56.9z"/>
			<path class="st2" d="M166.6,230.7c-5,2.5-9.7,7.7-14.7,11.3C157,239.4,161.7,234.2,166.6,230.7z"/>
		</g>
		<path class="st5" d="M260.4,126.9c0,9.8-13.4,17.8-15.8,26.8c-2.4,9.4,5.3,22.9,0.7,31.1c-4.7,8.4-20.3,8.7-26.9,15.6
			c-6.7,6.9-6.6,22.4-14.8,27.3c-8.1,4.9-21.8-2.6-31.1-0.1c-9,2.5-16.9,15.9-26.7,15.9s-17.6-13.5-26.7-15.9
			c-9.3-2.6-22.9,4.9-31.1,0.1c-8.2-4.9-8.2-20.5-14.8-27.3c-6.6-6.8-22.2-7.2-26.9-15.6c-4.6-8.2,3.1-21.7,0.7-31.1
			c-2.3-9.1-15.8-17-15.8-26.8s13.4-17.8,15.8-26.8c2.4-9.4-5.3-22.9-0.7-31.1c4.7-8.4,20.3-8.7,26.9-15.5
			c6.7-6.8,6.6-22.4,14.8-27.3c8.2-4.8,21.8,2.6,31.1,0.1c9-2.5,16.9-15.9,26.7-15.9s17.6,13.5,26.7,15.9c9.3,2.6,22.9-4.9,31.1-0.1
			c8.2,4.9,8.2,20.5,14.8,27.3s22.2,7.2,26.9,15.5c4.6,8.2-3.1,21.7-0.7,31.1C247,109.2,260.4,117.1,260.4,126.9L260.4,126.9
			L260.4,126.9z"/>
		<g>
			<path class="st2" d="M262.8,271.7c0,0-8,15-22,15h-196c-17.5,0-22.5-14-22.5-14c-6-9-16.5-4-9.5,11.5s28,18,28,18h203.6
				c0,0,21-2.5,28-18S265.7,265.2,262.8,271.7L262.8,271.7z"/>
			<path class="st6" d="M19.1,277.9c0,0,5.1,14.4,23.1,14.4h201.2c14.4,0,22.6-15.4,22.6-15.4c1.4-3.1,5.3-4,8.2-2.4
				c-1.2-6.9-9.2-7.5-11.4-2.8c0,0-8,15-22,15h-196c-17.5,0-22.5-14-22.5-14c-4.3-6.4-10.9-5.7-11.7,0.9
				C13.1,272.6,16.5,274,19.1,277.9L19.1,277.9L19.1,277.9z"/>
			<path class="st7" d="M230.4,302.2h-29l1.7,4.4l4.8,2.8c-1.8,2-2.9,4.6-2.9,7.5c0,6.1,4.8,11,10.7,11s10.7-4.9,10.7-11
				c0-2.8-1.1-5.4-2.8-7.3l5-2.9L230.4,302.2L230.4,302.2L230.4,302.2z"/>
			<polygon class="st2" points="209.3,302.2 211.3,307.4 226.5,316.2 241.6,307.4 243.6,302.2 			"/>
			<path class="st7" d="M72.7,302.2h-29l1.7,4.4l4.8,2.8c-1.8,2-2.9,4.6-2.9,7.5c0,6.1,4.8,11,10.7,11s10.7-4.9,10.7-11
				c0-2.8-1.1-5.4-2.8-7.3l5-2.9L72.7,302.2L72.7,302.2L72.7,302.2z"/>
			<polygon class="st2" points="53,302.2 55,307.4 70.2,316.2 85.3,307.4 87.3,302.2 			"/>
			<path class="st8" d="M262.8,271.7c0,0-8,15-22,15h-196c-17.5,0-22.5-14-22.5-14c-6-9-16.5-4-9.5,11.5s28,18,28,18h203.6
				c0,0,21-2.5,28-18S265.7,265.2,262.8,271.7L262.8,271.7z"/>
			<path class="st8" d="M19.1,277.9c0,0,5.1,14.4,23.1,14.4h201.2c14.4,0,22.6-15.4,22.6-15.4c1.4-3.1,5.3-4,8.2-2.4
				c-1.2-6.9-9.2-7.5-11.4-2.8c0,0-8,15-22,15h-196c-17.5,0-22.5-14-22.5-14c-4.3-6.4-10.9-5.7-11.7,0.9
				C13.1,272.6,16.5,274,19.1,277.9L19.1,277.9L19.1,277.9z"/>
			<polygon class="st9" points="53,302.2 55,307.4 70.2,316.2 85.3,307.4 87.3,302.2 			"/>
			<path class="st10" d="M82.7,319.5c0,7.2-5.7,13-12.7,13s-12.7-5.8-12.7-13s5.7-13,12.7-13S82.7,312.4,82.7,319.5z"/>
			<path class="st4" d="M80.6,319.5c0,6-4.8,10.9-10.7,10.9s-10.7-4.9-10.7-10.9s4.8-10.9,10.7-10.9S80.6,313.5,80.6,319.5z"/>
			<path class="st11" d="M80.6,319.5c0,6-4.8,10.9-10.7,10.9s-10.7-4.9-10.7-10.9s4.8-10.9,10.7-10.9S80.6,313.5,80.6,319.5z"/>
			<path class="st12" d="M75.4,319.5c0,3.1-2.5,5.6-5.5,5.6s-5.5-2.5-5.5-5.6s2.5-5.6,5.5-5.6S75.4,316.4,75.4,319.5z"/>
			<path class="st11" d="M75.4,319.5c0,3.1-2.5,5.6-5.5,5.6s-5.5-2.5-5.5-5.6s2.5-5.6,5.5-5.6S75.4,316.4,75.4,319.5z"/>
			<path class="st13" d="M69.9,313.9c-0.5,0-0.9,0.1-1.4,0.2c2.4,0.6,4.1,2.8,4.1,5.5s-1.8,4.8-4.1,5.5c0.4,0.1,0.9,0.2,1.4,0.2
				c3,0,5.5-2.5,5.5-5.6S73,313.9,69.9,313.9L69.9,313.9L69.9,313.9z"/>
			<polygon class="st9" points="209.3,302.2 211.3,307.4 226.5,316.2 241.6,307.4 243.6,302.2 			"/>
			<path class="st10" d="M239,319.5c0,7.2-5.7,13-12.7,13s-12.7-5.8-12.7-13s5.7-13,12.7-13S239,312.4,239,319.5z"/>
			<path class="st4" d="M236.9,319.5c0,6-4.8,10.9-10.7,10.9s-10.7-4.9-10.7-10.9s4.8-10.9,10.7-10.9S236.9,313.5,236.9,319.5
				L236.9,319.5L236.9,319.5z"/>
			<path class="st11" d="M236.9,319.5c0,6-4.8,10.9-10.7,10.9s-10.7-4.9-10.7-10.9s4.8-10.9,10.7-10.9S236.9,313.5,236.9,319.5
				L236.9,319.5L236.9,319.5z"/>
			<path class="st12" d="M231.8,319.5c0,3.1-2.5,5.6-5.5,5.6s-5.5-2.5-5.5-5.6s2.5-5.6,5.5-5.6S231.8,316.4,231.8,319.5z"/>
			<path class="st11" d="M231.8,319.5c0,3.1-2.5,5.6-5.5,5.6s-5.5-2.5-5.5-5.6s2.5-5.6,5.5-5.6S231.8,316.4,231.8,319.5z"/>
			<path class="st13" d="M226.3,313.9c-0.5,0-0.9,0.1-1.4,0.2c2.4,0.6,4.1,2.8,4.1,5.5s-1.8,4.8-4.1,5.5c0.4,0.1,0.9,0.2,1.4,0.2
				c3,0,5.5-2.5,5.5-5.6S229.3,313.9,226.3,313.9L226.3,313.9L226.3,313.9z"/>
		</g>
		<path class="st1" d="M199.3,264.9c-9.5-2.5-19.8,0.2-19.8,0.2s-4-14.8-7-22.5c-2-5.1-7.5-15.1-11-21.4c-3.3,0.4-6.6,0.7-9.9,0.8
			c3.8,7.3,13.5,26.1,15.5,32.3c2.5,7.8,1.2,31.3,1.2,31.3h46.5C214.8,285.7,208.8,267.5,199.3,264.9L199.3,264.9L199.3,264.9z"/>
		<path class="st1" d="M133.7,220.9c-2.5,5.3-8.9,18.1-11.7,20.5c-3.5,3-13,5.2-22,1.5s-20.2-7.5-26.2-4.2s-18,38-18,38
			c22.8,4.2,32-19.8,35.2-19.5s30.8,3.1,35.9-2c4.7-4.7,14.3-29.1,15.9-33.2C139.8,221.8,136.7,221.4,133.7,220.9L133.7,220.9
			L133.7,220.9z"/>
		<path class="st0" d="M75.6,266.7c0,0,6.8-0.2,9.2-10.2C84.8,256.4,76.3,258.4,75.6,266.7z"/>
		<path class="st0" d="M203.1,273.1c0,0-2.6-6.2-12.8-5.1C190.3,268,195.1,275.3,203.1,273.1L203.1,273.1L203.1,273.1z"/>
		<ellipse class="st12" cx="148.8" cy="126.9" rx="93.5" ry="95.2"/>
		<path class="st4" d="M129.6,146.4c0,5.4-4.8,9.8-10.7,9.8s-10.7-4.4-10.7-9.8s4.8-9.8,10.7-9.8S129.6,140.9,129.6,146.4z"/>
		<path class="st4" d="M241,142.7c0,4.4-3.9,8-8.7,8s-8.7-3.6-8.7-8s3.9-8,8.7-8S241,138.3,241,142.7z"/>
		<path class="st0" d="M148.8,31.7c-1.3,0-2.6,0-3.8,0.1c-0.2,0-0.4,0-0.6,0c-1.2,0.1-2.4,0.1-3.6,0.2c-0.2,0-0.4,0-0.7,0.1
			c-1.2,0.1-2.4,0.2-3.6,0.4c-0.2,0-0.4,0-0.5,0.1c-1.2,0.2-2.4,0.4-3.7,0.6c0,0,0,0-0.1,0c-1.2,0.2-2.4,0.5-3.6,0.7
			c-0.2,0-0.4,0.1-0.5,0.1c-1.2,0.3-2.3,0.5-3.4,0.9c-0.2,0.1-0.4,0.1-0.6,0.2c-1.1,0.3-2.3,0.7-3.4,1c-0.2,0-0.3,0.1-0.4,0.2
			c-1.2,0.4-2.3,0.8-3.4,1.2h-0.1c-1.1,0.4-2.3,0.9-3.4,1.3c-0.2,0.1-0.3,0.1-0.5,0.2c-1.1,0.5-2.1,0.9-3.2,1.4
			c-0.2,0.1-0.3,0.2-0.5,0.2c-1.1,0.5-2.1,1-3.2,1.6c-0.1,0.1-0.2,0.1-0.3,0.2c-1.1,0.6-2.1,1.2-3.2,1.8h-0.1
			c-1.1,0.6-2.1,1.2-3.1,1.9c-0.1,0.1-0.3,0.2-0.4,0.3c-1,0.6-2,1.3-2.9,2c-0.1,0.1-0.3,0.2-0.4,0.3c-1,0.7-1.9,1.4-2.9,2.1
			c-0.1,0-0.1,0.1-0.2,0.2c-1,0.8-2,1.5-2.9,2.3l0,0c-0.9,0.8-1.9,1.6-2.8,2.4c-0.1,0.1-0.2,0.2-0.3,0.3c-0.9,0.8-1.8,1.6-2.6,2.5
			c-0.1,0.1-0.2,0.2-0.3,0.3c-0.9,0.9-1.7,1.7-2.6,2.6l-0.1,0.1c-0.9,0.9-1.7,1.9-2.6,2.9l0,0c-0.8,0.9-1.6,1.9-2.4,2.9l-0.2,0.3
			c-0.8,1-1.5,1.9-2.2,2.9c-0.1,0.1-0.1,0.2-0.2,0.3c-0.7,1-1.4,2.1-2.1,3.1l0,0c-1.4,2.2-2.8,4.4-4,6.7c-0.1,0.1-0.2,0.2-0.2,0.3
			c-0.6,1.1-1.2,2.2-1.7,3.3c0,0.1-0.1,0.2-0.1,0.2c-1.7,3.5-3.2,7.2-4.5,10.9c0,0.1-0.1,0.2-0.1,0.2c-0.4,1.2-0.8,2.4-1.2,3.7
			c0,0.1,0,0.2-0.1,0.2c-0.8,2.6-1.4,5.2-2,7.8c11.1-40.1,47.2-69.4,90-69.4c49,0,90.8,39,95,87.9C241.8,73.7,200.1,31.7,148.8,31.7
			L148.8,31.7L148.8,31.7z"/>
		<path class="st6" d="M165.8,205.2c-51.6,0-93.5-42.6-93.5-95.2c0-22.2,7.5-42.7,20-58.9c-22.5,17.4-37,44.9-37,75.9
			c0,52.6,41.9,95.2,93.5,95.2c29.8,0,56.4-14.2,73.5-36.3C206.6,198,187,205.2,165.8,205.2z"/>
		<path class="st4" d="M85.5,158.7L85.5,158.7c-1.3-2.2-2.5-4.5-3.6-6.8c-2.3,0.5-14,3-21.7,5.4c0,0,0,0,0,0.1
			c2.4,7.1,5.6,13.9,9.4,20.2C73.3,167.6,84.7,160.4,85.5,158.7L85.5,158.7L85.5,158.7z"/>
		<ellipse class="st8" cx="148.8" cy="126.9" rx="93.5" ry="95.2"/>
		<path class="st8" d="M126.3,154.2c0,0,16.5,39.5,68.5,20"/>
		<path class="st8" d="M113.3,154.7c0,0,7,4.5,13-0.5s2.5-11,2.5-11"/>
		<path class="st8" d="M194.3,166.7c0,0-2,10.5,7.5,7.5"/>
		<path class="st8" d="M168,85.2c0,0-7.2-11.5-23.7-8.8c-14.7,2.4-18,17.3-18,17.3s-5.5,2.5-7.5-3.5"/>
		<path class="st8" d="M187.6,83.4c7.3-15.3,23.2-13.6,33.3-2.8c0,0,2.7,0.5,3.7-2.7"/>
		<path class="st14" d="M79.7,143.2c0,0-47.4-5.3-55.4,19.5C17.5,183.9,35,205.4,35,205.4s4.6-9.1,7.8-11.2c0,0-12.3-19-5.5-29.7
			c7.2-11.3,50.5-7.6,50.5-7.6"/>
		<path class="st0" d="M189,48.3c-1,4.2-9.4,5.9-18.8,3.7c-9.4-2.2-16.2-7.4-15.2-11.7s9.4-5.9,18.8-3.7S190,44.1,189,48.3z"/>
		<path class="st12" d="M83.7,133.9c-2,0-14,7.3-12.7,18s14.7,9.3,23.3,4.7"/>
		<g>
			<path class="st0" d="M55.6,205.9c-2.7-12.3-15.8-19.5-15.8-19.5s3.7-6.2-2.8-10.2s-17-2.2-20,4.3c-2.9,6.5,2.8,9.7,2.8,9.7
				c-7.4,7-2.6,17.1-2.6,17.1s-5,6.2-0.7,14.2s12.5,3.2,12.5,3.2c5.9,3.9,10.4-0.4,10.4-0.4s1.6,6.5,6.8,6.7
				C51.2,231.3,58.3,218.2,55.6,205.9L55.6,205.9z"/>
			<path class="st2" d="M53.3,222.1c0,0-3.6,5.3-7.8,3.5s-3-7.9-3-7.9s-2.5,2-6,3.7s-6.1-2.3-6.1-2.3s-7.5,6.4-9.2-2.2
				s3.8-13.5,2.4-19.2s5.7-13,5.7-13s-5,1.4-5.8-3.7c-0.5-2.9,0.5-4.9,1.5-6.2c-3.5,0.9-6.6,2.9-8,5.9c-2.9,6.5,2.8,9.7,2.8,9.7
				c-7.4,7-2.6,17.1-2.6,17.1s-5,6.2-0.7,14.2s12.5,3.2,12.5,3.2c5.8,3.9,10.4-0.4,10.4-0.4s1.6,6.5,6.8,6.7
				c1.8,0.1,3.9-1.6,5.7-4.2L53.3,222.1L53.3,222.1L53.3,222.1z"/>
			<g>
				<g>
					<path class="st8" d="M19.8,190.3c0,0-5.7-3.2-2.8-9.7s13.5-8.3,20-4.3s2.8,10.2,2.8,10.2s13.1,7.2,15.8,19.5
						c2.7,12.3-4.4,25.3-9.6,25.2s-6.8-6.7-6.8-6.7s-4.5,4.3-10.4,0.4c0,0-8.2,4.8-12.5-3.2c-4.2-8,0.7-14.2,0.7-14.2
						S12.3,197.3,19.8,190.3L19.8,190.3z"/>
					<path class="st8" d="M39.8,186.4c0,0-10.7-4.9-20,3.9"/>
					<path class="st8" d="M42.8,215.8c0,0,0.2,5.1-3.6,8.7"/>
					<path class="st8" d="M31.4,216.3c0,0,1.1,5.5-2.5,8.5"/>
				</g>
				<path class="st8" d="M17.1,207.4c0,0,2.4-2.3,4.3-2.1"/>
			</g>
		</g>
		<g>
			<path class="st15" d="M141.7,113.7c-0.3,8.1,1.1,16.8,6.1,24.7c1.1,1.8,2.6,3.4,4.3,4.8c4.3,3.3,9.6,2.7,12.9-1.7
				c3-3.9,4.1-8.5,4.4-13.4c0.1-1.1-0.6-1.3-1.3-1.6c-2.3-0.9-4.5-2-6.6-3.2c-2.5-1.5-2.5-3.6-0.1-5.3c1.9-1.3,3.9-2.4,6.1-3.3
				c0.9-0.3,1.1-0.8,0.9-1.8c-1.3-5.6-3.5-10.7-7.6-14.8c-4.9-4.9-11.9-3.9-15.3,2.2C143.1,104.2,142.1,108.4,141.7,113.7
				L141.7,113.7L141.7,113.7z"/>
			<path class="st15" d="M191.6,107.2c-0.5,8.3,0.9,16.4,4.9,23.8c1.9,3.6,4.4,6.7,8.4,8.2c3.5,1.3,6.6,0.2,9-2.4
				c3.8-4.1,4.9-9.2,5.1-14.5c0-0.8-0.5-1-1-1.3c-2.3-1.1-4.6-2.1-6.8-3.3c-2.5-1.5-2.5-3.6-0.2-5.3c1.9-1.4,4.1-2.3,6.2-3.4
				c0.6-0.3,1.1-0.4,0.9-1.3c-1.2-5.5-3.2-10.6-7.2-14.7c-2.2-2.3-4.9-4-8.3-3.6c-3.9,0.4-6.4,2.9-8,6.3
				C192.7,99.3,191.9,103.2,191.6,107.2L191.6,107.2L191.6,107.2z"/>
			<path class="st15" d="M181.3,136c3.2,0,6.3-0.4,8.9-2.6c2.3-2,1.9-4.6-0.9-5.6c-3.6-1.3-7.2-1.1-10.6,0.6c-1.7,0.9-3,2.1-2.8,4.2
				c0.2,1.6,1.7,2.8,4.1,3.2C180.4,136,180.9,136,181.3,136L181.3,136L181.3,136z"/>
			<path class="st16" d="M150.7,98.7c-2.5,1.1-4,2.9-4.9,5.2c-1.6,4.1-1.6,8.4-1.2,12.8c0.2,2.7,0.9,5.2,2.5,7.4
				c0.6-1.7,1.1-3.3,1.1-5.1c0-2-0.1-4.1-0.1-6.1c0-3.8,0.4-7.5,1.8-11.1C150.3,100.9,150.7,100,150.7,98.7L150.7,98.7L150.7,98.7z"
				/>
			<path class="st17" d="M197,118.6c0.8-2.2,1.2-4.4,1-6.8c-0.3-5.9,0.1-11.8,2.4-17.4c0.1-0.3,0.2-0.6,0-1.1
				c-1.8,0.7-3.1,1.9-4,3.6c-2.3,4-2.4,8.3-2.1,12.8C194.5,112.7,194.9,115.9,197,118.6L197,118.6L197,118.6z"/>
			<path class="st18" d="M186.2,129.2c-2.5-0.2-4.8,0.4-6.8,1.8c-0.5,0.3-1,0.7-0.9,1.4s0.7,0.9,1.3,1.1c3,0.9,5.8,0.4,8.4-1.2
				c0.6-0.4,1.4-0.9,1.2-1.8c-0.2-0.9-1.1-1.1-1.9-1.3C187.1,129.2,186.7,129.2,186.2,129.2L186.2,129.2L186.2,129.2z"/>
		</g>
	</g>
</g>
</svg>
