<?xml version="1.0" encoding="utf-8"?>
<!-- Generator: Adobe Illustrator 28.1.0, SVG Export Plug-In . SVG Version: 6.00 Build 0)  -->
<svg version="1.1" id="_圖層_2" xmlns="http://www.w3.org/2000/svg" xmlns:xlink="http://www.w3.org/1999/xlink" x="0px" y="0px"
	 viewBox="0 0 97.6 47.7" style="enable-background:new 0 0 97.6 47.7;" xml:space="preserve">
<style type="text/css">
	.st0{fill:#FFFFFF;}
	.st1{fill:#B4D1E2;}
	.st2{fill:none;stroke:#543C1A;stroke-width:2.25;stroke-linecap:round;stroke-linejoin:round;}
</style>
<g id="main">
	<g>
		<path class="st0" d="M87.1,27.2c-18.8,0-23.8-4.7-24.8-6c-1-10.6-8.2-20.8-20.8-20.8c-0.6,0-1.2,0-1.8,0.1
			c-3,0.2-9.2,1.5-13.4,8.4c-2.2-0.8-4.6-1.3-7.2-1.3c-4.4,0-8.6,1.5-12.2,4.3c-3,2.4-9.5,9.2-4.8,22c1.8,4.8,4.6,8.7,4.9,9.1
			c1.9,2.6,4.9,4.1,8,4.1h72c5.5,0,10-4.5,10-10S92.6,27.2,87.1,27.2L87.1,27.2z"/>
		<g id="OBJECTS">
			<g>
				<path class="st0" d="M87.1,37.2h-72c0,0-8.8-12-2-17.3c9.3-7.3,19.3,6,19.3,6s-0.7-14.7,8-15.3c11.6-0.9,12,12.7,12,12.7
					S53.8,37.2,87.1,37.2z"/>
				<path class="st1" d="M43.1,20.2c-6.7-3.7-10.7,5.7-10.7,5.7c-4-5.3-11.7-4-13,3c-0.5,2.8,1.5,5.8,4,8.3h47
					C44.1,37.2,49.9,23.9,43.1,20.2z"/>
				<path class="st2" d="M87.1,37.2h-72c0,0-8.8-12-2-17.3c9.3-7.3,19.3,6,19.3,6s-0.7-14.7,8-15.3c11.6-0.9,12,12.7,12,12.7
					S53.8,37.2,87.1,37.2z"/>
				<path class="st2" d="M28.1,31.2c0,0,3-7,11.3-5"/>
			</g>
		</g>
	</g>
</g>
</svg>
