<?xml version="1.0" encoding="utf-8"?>
<!-- Generator: Adobe Illustrator 28.1.0, SVG Export Plug-In . SVG Version: 6.00 Build 0)  -->
<svg version="1.1" id="_圖層_2" xmlns="http://www.w3.org/2000/svg" xmlns:xlink="http://www.w3.org/1999/xlink" x="0px" y="0px"
	 viewBox="0 0 192.7 215.2" style="enable-background:new 0 0 192.7 215.2;" xml:space="preserve">
<style type="text/css">
	.st0{fill:#FFFFFF;}
	.st1{fill:#5B3910;}
	.st2{fill:none;stroke:#5B3910;stroke-width:2;stroke-linecap:round;stroke-linejoin:round;}
	.st3{fill:#5B3910;stroke:#5B3910;stroke-width:2;stroke-linecap:round;stroke-linejoin:round;}
	.st4{fill:#FFFFFF;stroke:#5B3910;stroke-width:2;stroke-miterlimit:10;}
	.st5{fill:none;stroke:#5B3910;stroke-width:2;stroke-linecap:round;stroke-miterlimit:10;}
	.st6{fill:#FFFFFF;stroke:#5B3910;stroke-width:2;stroke-linecap:round;stroke-miterlimit:10;}
</style>
<g id="_圖層_2-2">
	<g>
		<path class="st0" d="M184.5,32.7c-2-1.2-4.2-2-6.4-2.4c-1.8-2.2-3.9-3.5-5.9-4.3c0.1-3.6,0-7.2-0.6-10.1
			C169.1,4.9,161.6,1,155.4,1c-5.7,0-11.3,3.2-14.3,8.3c-3.2,5.4-3.3,13.1-3,23.5c0,0.8,0.1,1.7,0.1,2.6c-5.3,2.8-8.7,7.5-9.7,13.3
			c-1.1,6.6,1.2,13.3,5,18.6c-0.2,0.8-0.2,1.7-0.2,2.6c-0.1-0.1-0.2-0.1-0.3-0.2c-1.3-1-2.7-1.9-4.2-2.8c-0.2-0.1-0.4-0.2-0.6-0.3
			c-0.7-0.4-1.5-0.8-2.2-1.3c-0.3-0.2-0.6-0.3-0.9-0.5c-0.4-0.2-0.8-0.4-1.3-0.6c-0.7-0.3-1.3-0.6-2-0.9c-0.3-0.1-0.7-0.3-1-0.4
			c-0.7-0.3-1.4-0.6-2.2-0.8c-0.1,0-0.2-0.1-0.4-0.1c-0.9-0.3-1.9-0.7-2.9-0.9c-0.1,0-0.2-0.1-0.3-0.1c-4.4-1.3-9.1-2.2-14.1-2.7
			c0,0,0,0,0,0c-0.6,0-1.2-0.1-1.8-0.1c-0.1,0-0.3,0-0.4,0c-0.5,0-1-0.1-1.5-0.1c-0.2,0-0.5,0-0.7,0c-0.5,0-0.9,0-1.4,0
			c-0.2,0-0.5,0-0.7,0s-0.5,0-0.7,0c-0.2,0-0.3,0-0.5,0c-0.8,0-1.6,0-2.4,0c-0.6,0-1.1,0-1.7,0.1c-0.3,0-0.6,0-0.9,0.1
			C74.9,59,62.6,63.2,53.7,70c-0.2,0.2-0.5,0.4-0.7,0.6c-0.3,0.2-0.6,0.5-0.9,0.7c-0.5,0.5-1.1,0.9-1.6,1.4
			c-0.2,0.2-0.3,0.3-0.5,0.4c-0.6,0.6-1.2,1.1-1.7,1.7c-0.9,1-1.8,1.9-2.6,2.9c-5.9,6.8-10.2,13.5-13.3,20.8
			c-2.8,6.5-5,13.3-6.7,20.1c-6.8,1.9-15.1,5.7-20.1,11.8c-3.4,4.2-4.9,9.1-4.4,14c0.8,7.5,5.5,12.7,8.9,16.5
			c-3.1,3.2-3.7,8.2-1.3,12.1c0.2,0.4,0.5,0.8,0.7,1.2c1.2,2.3,4,7.3,9.5,9.3c0.2,10.1,1,20.1,3.1,24.8c0.2,0.4,0.4,0.9,0.7,1.3
			c0.2,0.2,0.3,0.5,0.5,0.7c0.1,0.1,0.2,0.3,0.4,0.4c0.2,0.2,0.5,0.5,0.7,0.7c0.1,0.1,0.2,0.2,0.3,0.3c0.2,0.2,0.5,0.4,0.7,0.5
			c0.1,0.1,0.3,0.2,0.4,0.3c0.2,0.1,0.5,0.2,0.7,0.4c0.2,0.1,0.4,0.2,0.5,0.3c0.2,0.1,0.5,0.2,0.7,0.3c0.2,0.1,0.4,0.2,0.6,0.2
			c0.3,0.1,0.6,0.1,0.9,0.2c0.2,0,0.3,0.1,0.5,0.1c0.5,0.1,1,0.1,1.4,0.1c0,0,0,0,0,0h97.9c0,0,0,0,0,0c0,0,0,0,0,0
			c0.4,0,0.8,0,1.1-0.1c0,0,0.1,0,0.1,0c0.2,0,0.4-0.1,0.5-0.1c0.1,0,0.3,0,0.4-0.1c0.3-0.1,0.5-0.1,0.8-0.2c0.1,0,0.1,0,0.2-0.1
			c1-0.3,1.9-0.8,2.8-1.4c0.1,0,0.1-0.1,0.2-0.1c0.2-0.2,0.4-0.3,0.6-0.5c0.1-0.1,0.2-0.2,0.2-0.2c0.2-0.1,0.3-0.3,0.5-0.5
			c0,0,0.1-0.1,0.1-0.1c0.1-0.1,0.1-0.1,0.2-0.2c0.1-0.2,0.3-0.3,0.4-0.5c0.1-0.1,0.2-0.2,0.2-0.3c0.1-0.2,0.2-0.3,0.3-0.5
			c0.1-0.1,0.1-0.2,0.2-0.4c0.1-0.2,0.2-0.4,0.3-0.6c0.1-0.1,0.1-0.2,0.1-0.3c0.1-0.2,0.2-0.4,0.2-0.7c0-0.1,0.1-0.2,0.1-0.3
			c0.1-0.2,0.1-0.5,0.2-0.8c0-0.1,0-0.2,0.1-0.2c0.1-0.3,0.1-0.6,0.1-0.8c0-0.1,0-0.1,0-0.2c0-0.3,0-0.6,0-0.9c0-0.1,0-0.1,0-0.2
			c0-0.4,0-0.7-0.1-1.1c0,0,0-0.1,0-0.1c-0.3-2.2-4-32.3-4.6-40.4c-0.6-8.7-1-15.3-1.2-21.7l24.1-5.1c6.6-1.4,11.9-7.8,12-14.4
			l0.4-32.6c0.6-0.2,1.1-0.3,1.7-0.5c8.2-2.8,10.9-7.9,11.7-11.6c0.3-1.2,0.4-2.4,0.3-3.6c2.8-2.9,4.7-6.6,5.6-10.9
			c0.5-2.5,0.6-4.9,0.6-6.7c0.8-2.2,1.3-4.1,1.6-5.5c0.1-0.7,0.2-1.3,0.2-2C192.2,42.3,190.8,36.5,184.5,32.7L184.5,32.7z"/>
		<path class="st0" d="M137.2,102.1c-1.6,2.4-5.7,4.4-8.1,5.6c-11.3,5.5-69,2.2-69,2.2s-1.7,21,62.8,9c0,17.4,0.4,26.8,1.6,44.2
			c0.6,8.7,4.7,41,4.7,41h-98c-3.1-6.7-2.3-39.9-1.5-48.5c1.7-17.7,4.8-36.8,11.8-53.2c3.4-8,8.3-14.6,14.1-20.8
			c18.6-19.9,67.8-19,80.7,7C138,92.2,137.9,101,137.2,102.1L137.2,102.1z"/>
		<g>
			<g>
				<path class="st1" d="M80.7,101.8c0,1.6-1.3,2.8-2.8,2.8s-2.8-1.3-2.8-2.8s1.3-2.8,2.8-2.8S80.7,100.2,80.7,101.8z"/>
				<path class="st1" d="M126.6,99c0,1.6-1.3,2.8-2.8,2.8s-2.8-1.3-2.8-2.8s1.3-2.8,2.8-2.8S126.6,97.4,126.6,99z"/>
			</g>
			<g>
				<path class="st2" d="M72.3,92.2c5-4.2,10,0,10,0"/>
				<path class="st2" d="M128.2,91.2c-1.2-2.4-8.2-3.3-9.7,0"/>
			</g>
		</g>
		<g>
			<g>
				<path class="st2" d="M116.3,134.1l38.9-8.3c2-0.4,4-2.8,4.1-4.8l0.6-47.5"/>
				<path class="st3" d="M161.9,65.8c-0.4-0.4-1.2-0.3-2,0.2c0.4-0.9,0.4-1.6,0-2c-0.7-0.6-2.3,0.1-3.6,1.5
					c-0.8,0.9-1.1,1.7-1.2,2.4c-0.1,0.8,0.1,1.5,0.6,2.1c1,1.4,3.7,4.2,6.8,1c1.4-1.4,1.8-3.2,1.1-3.8c-0.3-0.3-0.8-0.3-1.4-0.1
					C162.3,66.7,162.2,66.1,161.9,65.8L161.9,65.8z"/>
			</g>
			<path class="st2" d="M33.2,127.2c-7.5,0.7-23.2,6.9-22.2,16.1c0.7,6,6.2,10,9.7,14.6c2.5,3.3,6.2,7.4,7.4,11.6
				c0.8,2.8-0.4,4.6-3.3,4.9c-4.2,0.4-5.6-3.6-7.4-6.6"/>
			<g>
				<path class="st2" d="M122.9,119C58.4,131,60,110,60,110s40.8,3.7,63.6-0.9c3.9-0.8,7.7-2.3,10.9-4.6c1.1-0.8,2.1-1.6,2.6-2.4
					c0.7-1.2,0.8-10-0.9-13.4c-12.9-26-62.1-26.9-80.7-7c-5.8,6.2-10.7,12.8-14.1,20.8c-7.1,16.4-10.1,35.5-11.8,53.2
					c-0.8,8.6-1.6,41.8,1.5,48.5"/>
				<path class="st2" d="M129.2,204.2c0,0-4.1-32.3-4.7-41c-1.2-17.4-1.6-26.7-1.6-44.2"/>
			</g>
			<g id="main">
				<g id="OBJECTS">
					<g>
						<path class="st4" d="M179.5,53.5c0,0,2.3,11.9-8.1,15.4c0,0,6.5,6.4-3.2,9.8c-9.7,3.4-22-1.3-24.4-6.5
							c-2.4-5.2,3.3-5.6,3.3-5.6c-8.2-4.3-15.3-21.3,0.6-23.9c1.6-3.4-1.4-22.5,2-28.2c2.5-4.2,10-6,12.1,3.6c1,4.7,0,14.5-0.9,18.5
							c0,0,9-6.1,11.6,4.7c0,0,3-2.3,6.9,0C181.7,42.7,183.3,45.4,179.5,53.5L179.5,53.5L179.5,53.5z"/>
						<path class="st5" d="M156.2,69.6c0,0,8.1,2.2,15.2-0.7"/>
					</g>
					<path class="st6" d="M181.6,47.5c-2.1,9.5-7.7,17.7-14.1,13.7c-7.4-4.6,2.8-14,2.8-14"/>
					<path class="st6" d="M172.1,40.4c2,7.9-3.9,16.7-12.3,14.7c-8.4-2,1.3-14.6,1.3-14.6"/>
					<path class="st6" d="M147.6,42.6c9.7-0.9,16.3,7.4,15.3,12.8c-1,5.4-7.5,7.2-15.5-3.2"/>
				</g>
			</g>
		</g>
	</g>
</g>
</svg>
