<?xml version="1.0" encoding="UTF-8"?>
<svg id="_圖層_2" data-name="圖層 2" xmlns="http://www.w3.org/2000/svg" viewBox="0 0 86.72 124.13">
  <defs>
    <style>
      .cls-1, .cls-2 {
        fill: #fff;
      }

      .cls-1, .cls-2, .cls-3 {
        stroke: #000;
        stroke-miterlimit: 10;
        stroke-width: 2px;
      }

      .cls-2, .cls-3 {
        stroke-linecap: round;
      }

      .cls-3 {
        fill: none;
      }
    </style>
  </defs>
  <g id="main">
    <g>
      <path class="cls-2" d="M77.24,47.32c-3.11-1.88-6.39-2.9-9.77-3.03-2.34-3.38-5.87-6.54-11.12-7.61.44-6.15.43-12.7-.61-17.42-1.93-8.83-7.99-18.27-19.21-18.27-6.76,0-13.45,3.9-17.05,9.93-4.14,6.93-4.18,17.73-3.79,32.24.06,2.18.13,4.79.14,7.01-11.08,4.5-13.82,13.46-14.5,17.61-1.47,8.98,2.25,18.6,7.98,25.74-1.02,2.85-1.52,7.14.94,12.46,4.5,9.77,19.41,17.14,34.7,17.14h0c4.9,0,9.57-.76,13.86-2.25,10.02-3.48,13.29-9.41,14.27-13.77.5-2.23.49-4.32.16-6.24,3.87-3.4,6.67-7.87,8.18-13.16,1.29-4.52,1.39-8.81,1.22-11.74.42-1.12.81-2.26,1.18-3.43,5.03-14.49-.79-21.71-6.57-25.22Z"/>
      <g id="OBJECTS">
        <g>
          <path class="cls-1" d="M72.37,74.07s3.41,17.69-12.1,22.86c0,0,9.68,9.49-4.75,14.5-14.43,5.02-32.67-1.95-36.2-9.62-3.54-7.67,4.9-8.35,4.9-8.35-12.25-6.46-22.67-31.67.81-35.49,2.43-5.06-2.02-33.48,3.02-41.91,3.73-6.25,14.79-8.95,17.91,5.34,1.54,7.04.06,21.59-1.39,27.44,0,0,13.33-9.02,17.21,6.96,0,0,4.43-3.47,10.27.07,3.56,2.16,5.95,6.17.33,18.21h0Z"/>
          <path class="cls-3" d="M37.71,98.03s12.09,3.24,22.56-1.1"/>
        </g>
        <path class="cls-2" d="M75.42,65.22c-3.2,14.12-11.41,26.27-20.91,20.41-10.98-6.78,4.14-20.84,4.14-20.84"/>
        <path class="cls-2" d="M61.37,54.61c2.91,11.71-5.74,24.81-18.29,21.8-12.55-3.01,1.98-21.71,1.98-21.71"/>
        <path class="cls-2" d="M25.03,57.96c14.42-1.32,24.2,10.98,22.68,19.03-1.52,8.05-11.12,10.72-22.99-4.82"/>
      </g>
    </g>
  </g>
</svg>