<?xml version="1.0" encoding="utf-8"?>
<!-- Generator: Adobe Illustrator 28.0.0, SVG Export Plug-In . SVG Version: 6.00 Build 0)  -->
<svg version="1.1"
	 id="svg1" xmlns:inkscape="http://www.inkscape.org/namespaces/inkscape" xmlns:svg="http://www.w3.org/2000/svg" xmlns:sodipodi="http://sodipodi.sourceforge.net/DTD/sodipodi-0.dtd" inkscape:export-filename="ryu.svg" inkscape:export-xdpi="96" inkscape:export-ydpi="96" sodipodi:docname="g95.svg"
	 xmlns="http://www.w3.org/2000/svg" xmlns:xlink="http://www.w3.org/1999/xlink" x="0px" y="0px" viewBox="0 0 259.4 65.5"
	 style="enable-background:new 0 0 259.4 65.5;" xml:space="preserve">
<style type="text/css">
	.st0{fill:#58B077;fill-opacity:0.5216;}
	.st1{fill-rule:evenodd;clip-rule:evenodd;fill:#543C1A;}
</style>
<sodipodi:namedview  bordercolor="#999999" borderopacity="1" id="namedview1" inkscape:deskcolor="#d1d1d1" inkscape:pagecheckerboard="0" inkscape:pageopacity="0" inkscape:showpageshadow="2" pagecolor="#ffffff" showgrid="false">
	</sodipodi:namedview>
<g id="layer3" transform="translate(-67.552434,138.87116)" inkscape:groupmode="layer" inkscape:label="3">
	<path id="path60-3" class="st0" d="M81.5-134.7c-1,0.9-2,1.9-3,2.9c-1.3,1.4-2.6,2.8-3.8,4.2c-0.6,0.8-1.3,1.6-2,2.3
		c-0.4,0.5-1.6,1.6-1.6,2.2c-0.1,1.2,0.2,2.4,0.3,3.6c1.4,0.5,2.7,1.2,4.1,1.6c0.3,0.1,0.5-0.2,0.8-0.2c0.8-0.3,1.6-0.6,2.4-0.9
		c1.3-0.6,2.7-1.1,4.1-1.5c0.8-0.2,1.6-0.6,2.4-0.8c0.3,0,0.6,0,0.8,0c-0.1,0,0.6,0,0.4,0c-1.4-0.3-2-0.1-3-1.5
		c-0.4-0.6-0.4-1.3-0.7-1.9c0.2-1.3,0.3-1.2-0.2-0.5c-0.3,0.5-0.6,1-1,1.4c-1.1,1.4-2.2,2.9-3.5,4.2c-1.6,1.7-3,3.4-4.5,5.1
		c-1.1,1.4-2.2,2.8-3.3,4.3c-2,3.1-0.3,2.1,5.2,5.7c0.1,0.1,0.2-0.2,0.3-0.3c0.2-0.2,0.4-0.4,0.6-0.5c1.2-1.3,2.5-2.6,3.8-3.8
		c1.5-1.5,3-3.1,4.6-4.6c0.4-0.4,0.9-0.7,1.4-1c0.3-0.2,0.4-0.3,0.3-0.2c-1.4,1.1-3.3,0.2-4.4-0.7c-0.3-0.2-0.4-0.6-0.7-0.9
		c-0.5-3.5-0.5-1.3-0.1-2.9c0-0.1-0.1,0.2-0.2,0.3c-1.2,1.6,0.5-0.6-0.9,1.2c-1.8,2.2-3.7,4.2-5.6,6.3c-1.8,2-3.6,4-5.3,6.1
		c-0.3,0.4-0.7,0.9-1,1.3c-0.1,0.1-0.2,0.3-0.3,0.4c-0.2,0.5-0.4,1-0.6,1.4c1.8,1.3,3.5,2.9,5.5,4c0.3,0.1,0.5-0.3,0.8-0.5
		c0.8-0.6,1.7-1.2,2.5-1.8c2.3-1.6,4.6-3.4,6.7-5.2c0.6-0.6,1.3-1.1,1.9-1.7c0.3-0.3,0.6-0.6,1-0.8c-0.1,0.2-0.5,0.2-0.1,0.1
		c0.2,0,0.4-0.1,0.6-0.1c0.1,0,0.2,0,0.2,0c-1.2,0.1-1.9,0-2.9-1c-1.1-1.1-0.9-1.7-1-2.9c0,0,0-0.1,0-0.1c-0.1,0.1-0.1,0.3-0.2,0.4
		c-0.1,0.2-0.2,0.4-0.4,0.6c-0.6,1-1.3,1.9-1.9,2.8c-2,2.7-4.1,5.3-6.1,8.1c-0.9,1.3-1.9,2.6-2.7,4c0.1-0.1,0.1-0.3,0.2-0.2
		c2.1,1.3,4.1,3,6.2,4.3c0.1,0.1,0.2-0.2,0.2-0.3c0.1-0.1,0.2-0.2,0.3-0.4c1.3-1.5,0.1-0.1,1.7-1.9c2-2,4.1-3.9,6.3-5.6
		c0.1-0.1,1.8-1.3,1.9-1.2c0,0,0,0-0.1,0c-0.3,0.1-0.6,0.1-0.9,0.2c-3.1-1-2.8-0.2-3.9-3.7c-0.1-0.3,0.1-0.6,0.1-0.9
		c0,0-0.1,0.1-0.1,0.1c-0.5,0.9,0,0-0.5,0.9c-1.1,2.1-2.6,4.1-4,6c-1.9,2.6-3.8,5.2-5.8,7.8c-0.2,0.3-0.4,0.6-0.7,0.9
		c-0.3,0.5-0.6,1-1,1.5c-0.4,0.6-0.2,0.3-0.5,0.9c0,0,0.1-0.1,0.1-0.1c-0.1,0,0.5-0.6,0.4-0.5c-0.2,0.2-0.4,0.4-0.5,0.6
		c-2.1,2.7,2.4,2.6,6,4.7c0,0-0.1,0.1-0.1,0.1c0.1,0,0.1-0.1,0.2-0.2c0.2-0.1,0.4-0.3,0.5-0.4c0.8-0.6,1.6-1.3,2.4-1.9
		c1.5-1.1,2.9-2.3,4.4-3.5c0.4-0.4,1-0.8,1.4-1.2c0.6-0.5,0.3-0.3,0.5-0.5c-0.3,0.3-0.7,0.6-1.2,0.7c-1.8,0.2-3.3-0.9-3.9-2.5
		c-0.1-0.2-0.1-0.5-0.1-0.8c0-0.1,0-0.1,0-0.2c0,0,0,0.1,0,0.1c0,0.1-0.1,0.3-0.1,0.4c-0.2,0.6-0.4,1.1-0.6,1.7
		c-0.4,0.9-0.7,1.9-1.2,2.8c-0.1,0.2-1.2,1.8-0.4,0.8c2.5-2.3,0.1-0.5,5.7,4.9c0.1,0.1,0.2-0.2,0.3-0.3c0.3-0.4,0.7-0.7,1.1-1.1
		c1.2-1.3,2.3-2.7,3.4-4.1c0.7-0.7,1.1-1.7,1.8-2.4c0.1-0.1,0.2-0.2,0.3-0.4c0.1-0.1-0.5,0.7-0.3,0.3c0.3-0.5,1.4-1.1,1-1.5
		c-4.9-5.2-4.4-5.6-6.4-3.8C85-96,84.5-95.5,84-95.1c0,0-0.1,0.1-0.1,0.1c1-0.5,1.9-1.3,3.3-0.4c1.1,0.7,1.7,1.9,2.4,3
		c0.2,0.3-0.1,0.6,0.1,0.4c0.6-1.4,1.4-2.7,2.2-4c0.7-1.1,1.5-2.3,2.4-3.2c0.5-0.5,1-1.1,1.6-1.5c0.4-0.3,0.5-0.4,1.1-0.8
		c0,0,0,0,0,0c0,0,0.4-0.2,0.5-0.3c0.1,0,0.2-0.1,0.2-0.1c-0.1,0-0.2,0.1-0.3,0.2c1.4-0.7-1.4,0.7-2,0.2c-1.4-1.2-2.1-3.1-2.9-4.8
		c-0.4-0.7,0.5-0.5,0.1-0.3c-0.8,1.1-1.7,2.2-2.7,3.2c-0.3,0.3-0.5,0.5-0.8,0.8c-0.1,0.1-0.3,0.2-0.2,0.2c0.1-0.1,0.2-0.1,0.2-0.2
		c1.9,1.4,4,2.6,5.8,4.3c0.3,0.2-0.9,1.3-0.1,0.6c0.1-0.1,0.3-0.2,0.4-0.4c0.2-0.2,0.4-0.3,0.5-0.5c1.6-1.3,3.3-2.4,5-3.5
		c1-0.6,2-1.3,3-1.8c0,0,0.1,0,0.1-0.1c0.2-0.1-0.1,0.1-0.1,0c-1.6-0.8-3.1-1.8-4.7-2.6c-0.9-0.5,0.1-1.1,0-1.6
		c0-0.1-0.1,0.2-0.1,0.2c-0.2,0.4-0.5,0.9-0.7,1.3c-0.6,1-1.2,2-1.9,3c-1.7,2.5-0.2,1,6.2,4.3c0.1,0.1,0.1-0.2,0.2-0.3
		c0.1-0.2,0.6-0.9,0.6-1c1.5-2.2,2.9-4.4,4.3-6.7c1-1.7,2-3.4,2.7-5.1c0.5-1.1,0.9-2.4,1.2-3.6c0.2-0.7,0.5-1.4,0.7-2
		c0-0.1,0.1-0.2,0.1-0.3c0.1-0.3,0.1-0.3,0.1-0.3c-0.1,0.2-0.1,0.6-0.3,0.5c-6.9-3.1-7.6-1.3-6.6-3.7c-0.6,0.8-1.3,1.6-2,2.3
		c-0.4,0.5-0.8,1-1.3,1.4c-0.1,0.1,0.2-0.1,0.2-0.2c2.7-0.7,2.3-1.1,5.1,1.4c0.3,0.3,0.2,0.8,0.4,1.1c0,0,0,0,0,0
		c0-0.1,0.1-0.2,0.1-0.3c0.2-0.8,0.5-1.6,0.7-2.4c0.2-0.6,0.5-1.3,0.7-1.9c0,0,0,0,0,0c0.3-0.4,0.5-0.7,0.7-1.1
		c0.4-0.6,0.4-0.6,0.7-1c0,0-0.1,0.1-0.1,0.1c0.7-0.9,1.5-2.1,1.2-3.3c-0.3-1.1-1.3-1.9-1.9-2.9c-0.9-0.5-2-0.7-3.1-0.4
		c-0.4,0.1-0.7,0.2-1.1,0.3c-0.8,0.3-0.4,0.1-1.1,0.4c-0.1,0-0.3,0.1-0.2,0.1c0,0,0.1-0.1,0.2-0.1c2.1-0.7,3.2,0.9,4.2,2.2
		c0.1,0.1,0.1,0.4,0.2,0.5c0.6-0.9-0.2,1.9,0,1.7c0.1-0.2,0.2-0.4,0.3-0.6c0,0.1,0.2-0.3,0.4-0.4c0.3-0.2,0.5-0.5,0.8-0.7
		c0.1-0.1-0.1,0.1-0.2,0.2c-2.2,1.4-2.7-2.5-5.1-5.3c-0.1-0.1,0.1-0.2,0.2-0.2c0,0-0.1,0.1-0.1,0.1c-0.1,0.1-0.2,0.1-0.2,0.2
		c-1,0.9-2,1.8-3,2.7c-1.1,0.9-2.1,1.9-3.2,2.8c-0.9,0.8-1.9,1.5-3,2.1c-1.5,1-2.5,0.9,1.6,0.4c0.8,1.6,1.8,3.1,2.5,4.8
		c0.1,0.2-0.2,0.4-0.3,0.6c0,0.1,0.1-0.2,0.2-0.3c0.1-0.1,0.1-0.2,0.2-0.2c0.6-0.6,0.3-0.4,1-1c1.2-1.1,2.6-2,4.1-2.8
		c1-0.5,2.1-1.1,3.2-1.4c0.8-0.3,1.6-0.5,2.4-0.8c0.5-0.2,1-0.3,1.5-0.5c0.1,0,0.3-0.1,0.2-0.1c-0.1,0-0.2,0.1-0.3,0.1
		c-0.1,0-0.3,0.1-0.3,0.1c0.9-0.2,0.4-0.1,1-0.3c-0.5,0.2,0.7-0.3,0.8-0.3c-0.1,0,0.2,0,0.1,0c-2,0.1-2.7,0.6-4.3-2.1
		c-0.8-1.2-0.4-2.1,0-3c-0.6,1-1.4,1.9-2.1,2.8c-0.9,1.3-1.9,2.5-3,3.7c-1.5,1.8-2.9,3.5-4.5,5.2c-0.7,0.8-1.4,1.5-2.2,2.2
		c1.7,1.8,3.4,3.8,5.2,5.4c0.1,0.1,0.3-0.2,0.4-0.4c0.8-0.8,1.7-1.7,2.6-2.5c1.7-1.4,3.5-2.7,5.3-3.8c0.1-0.2,1.3-0.6,0.5-0.3
		c-1.2,0.2-1.8-0.1-2.9-0.7c-0.2-0.1-0.4-0.4-0.6-0.6c-0.2-0.4-0.5-0.8-0.7-1.3c0-0.1-0.1-0.2-0.1-0.3c0-0.1,0-0.3,0-0.2
		c0,0,0,0.1-0.1,0.1c-0.3,1-0.9,2-1.5,2.9c-0.9,1.5-1.9,2.9-3,4.3c-1.2,1.5-2.4,2.9-3.6,4.4c-1,1.2-1.9,2.4-2.9,3.6
		c-0.5,0.7-1.1,1.4-1.6,2.2c-0.4,0.5-0.8,1.1-1.1,1.7c-0.4,0.5-0.7,1-1.1,1.6c-1.8,2.3,0.2,1.5,5.5,5.2c0,0,0.8-0.8,1.3-1.2
		c1.6-1.6,3.1-3.1,4.8-4.6c1.7-1.5,3.4-2.9,5.2-4.3c1-0.8,2-1.6,3.1-2.3c-0.1,0,0.6-0.2,0.4-0.2c-0.1,0-0.1,0-0.2,0.1
		c-0.8,0.2-2.1,0-2.7-0.5c-0.4-0.4-0.8-0.8-1.2-1.3c-0.2-0.2-0.2-0.5-0.3-0.8c0-0.3-0.1-0.6-0.1-0.9c0-0.2-0.2,0.3-0.2,0.3
		c-0.2,0.4-0.4,0.9-0.6,1.2c-0.9,1.6-1.9,3.1-3,4.6c-0.8,1.1-1.6,2.2-2.5,3.2c-1,1.2-1.9,2.4-2.8,3.7c-1.2,1.6-2.5,3.2-3.7,4.8
		c-2.5,2.9-1.9,0.5,4.9,5.6c1-1.2,2-2.3,3-3.5c1.2-1.4,2.5-2.6,3.9-3.7c0.8-0.7,1.7-1.2,2.6-1.7c0.6-0.3,1.2-0.6,1.9-0.9
		c0.2-0.1,0.4-0.2,0.6-0.2c0,0,0.2-0.1,0.1,0c-0.5,0.1-0.9,0.3-1.4,0.3c-0.5,0-1-0.2-1.5-0.3c-1.9-1.9-1.7-1.1-2.1-3.5
		c0-0.1,0.2-0.3,0-0.4c-0.1-0.1-0.1,0.2-0.1,0.4c-0.2,0.4-0.3,0.8-0.5,1.1c-0.9,2-1.9,3.9-3,5.8c-0.9,1.5-1.7,2.9-2.7,4.3
		c-0.5,0.7-1.1,1.3-1.7,2c-0.2,0.3-0.5,0.5-0.8,0.7c-0.4,0.4,0,0-0.9,0.7c-0.3,0.2-0.5,0.4-0.8,0.6c2.2-0.6,2.8-1.2,4.9,1.2
		c0.8,0.9,0.6,2,0.5,2.9c0.1,0,0,0,0.2-0.1c0.6-0.8,0.2-0.3,1-1.2c0.4-0.5,0.9-1,1.3-1.5c1.4-1.5,2.9-2.9,4.4-4.2
		c0.8-0.7,1.8-1.2,2.7-1.8c0.5-0.2,1-0.6,1.6-0.7c-2,0.9-3.4-1.1-4.7-2.5c-0.2-0.2-0.1-0.7-0.1-1c0-0.7,0.4-1,0.1-0.8
		c-0.7,1.5-1.5,2.9-2.3,4.4c-1,2-2.1,3.9-3.3,5.8c-0.4,0.7-0.9,1.3-1.4,2c0.6-0.7,0,0,0,0c-0.1,0.1,0.2-0.2,0.2-0.3
		c0,0,0.2-0.1,0.1-0.1c-0.2,0.1-0.3,0.2-0.4,0.3c-0.1,0.1-0.2,0.1-0.3,0.2c-4.7,2.5-1.2,9.2,3.5,6.7l0,0c0.5-0.3,1.1-0.6,1.5-1
		c0.6-0.5,1-0.8,1.4-1.3c0.6-0.8,1.3-1.6,1.8-2.6c1.2-2,2.4-4.1,3.5-6.2c0.8-1.5,1.6-3,2.4-4.6c0.1-0.2,0.2-0.4,0.3-0.7
		c0.1-0.5,0.7-2.2,0.2-2.7c-1.9-2.4-2.7-3.5-5.2-2.7c-0.9,0.3-1.8,0.8-2.6,1.2c-1.4,0.8-2.8,1.6-4.1,2.7c-1.8,1.6-3.6,3.2-5.2,5
		c-1.3,1.5-2.7,3.1-3.6,4.9c-0.5,1.2-1,2.9,0.1,4.1c1.5,1.8,3.4,2.4,5.3,1.2c0.6-0.3,1.1-0.7,1.6-1.2c0.4-0.3,0.8-0.5,1.1-0.9
		c0.5-0.5,1-1,1.5-1.5c0.7-0.8,1.5-1.6,2.1-2.5c1.2-1.6,2.2-3.3,3.2-5c1.2-2.1,2.3-4.3,3.3-6.5c0.7-1.7,1.8-3.8,0.8-5.6
		c-0.4-0.8-1.2-1.2-1.8-1.8c-0.5-0.1-1.1-0.4-1.6-0.4c-0.9,0-1.6,0.3-2.4,0.6c-0.9,0.4-1.8,0.8-2.6,1.3c-1.3,0.7-2.5,1.5-3.7,2.4
		c-1.7,1.4-3.3,2.9-4.8,4.5c-1.4,1.5-2.8,3.1-4,4.8c6.2,5.1,4.5,6.5,7.5,2.9c1.3-1.6,2.6-3.3,3.9-4.9c0.9-1.2,1.7-2.4,2.7-3.6
		c0.9-1.1,1.8-2.3,2.7-3.5c1.3-1.8,2.5-3.7,3.6-5.6c0.6-1.2,1.6-2.9,1.7-4.3c0-0.4,0-0.9,0-1.3c-0.1-0.3-0.2-0.7-0.4-1
		c-1.2-1.8-2.6-2.5-4.8-2c-0.8,0.2-1.6,0.6-2.4,1c-1.3,0.8-2.5,1.7-3.6,2.7c-1.9,1.5-3.9,3-5.7,4.7c-1.6,1.5-3.2,3.1-4.8,4.6
		c-0.2,0.2-0.4,0.4-0.6,0.6c-0.1,0.1-0.2,0.2-0.3,0.3c0,0-0.1,0.1-0.1,0.1c4.6,4.4,4.8,6.1,5.5,5c0.5-0.6,0.9-1.3,1.4-2
		c0.3-0.5,0.5-0.8,0.8-1.2c0.6-0.8,1.2-1.5,1.7-2.2c0.8-1.1,1.7-2.2,2.6-3.3c1.3-1.5,2.6-3,3.8-4.6c1.2-1.6,2.4-3.2,3.4-4.9
		c0.9-1.5,1.8-3.1,2.3-4.8c0.3-1,0.5-1.9,0.3-3c0-0.2,0-0.4-0.1-0.6c-0.2-0.5-0.5-1-0.7-1.5c-0.2-0.2-0.4-0.5-0.7-0.7
		c-1.3-0.7-2.1-1-3.5-0.8c-1,0.3-1.9,0.7-2.8,1.3c-2.3,1.4-4.4,2.9-6.4,4.7c-0.8,0.7-1.6,1.5-2.3,2.2c-0.1,0.1-0.2,0.2-0.3,0.3
		c-0.1,0.1-0.4,0.2-0.3,0.3c1.6,2,3.3,3.8,5,5.7c-0.4,0.3,0.5-0.5,0.7-0.6c0.5-0.5,0.7-0.7,1.2-1.2c0.3-0.3,0.5-0.5,0.8-0.8
		c1.6-1.7,3.1-3.5,4.6-5.3c1.1-1.3,2.2-2.6,3.2-3.9c0.9-1.1,1.8-2.2,2.6-3.5c0.7-1.2,1.4-2.3,0.5-4c-1.2-2.2-3-2.7-5-2.1
		c-0.3,0.1-0.3,0.1-0.7,0.2c-0.1,0-0.2,0.1-0.2,0.1c0.1,0,0.5-0.1,0.3-0.1c-0.4,0.1-0.5,0.1-0.8,0.2c1.3-0.4-0.8,0.2-0.9,0.3
		c-0.2,0.1-0.8,0.2-1.1,0.4c-0.7,0.3-1.5,0.5-2.2,0.7c-1.5,0.5-2.9,1.2-4.3,1.9c-2.1,1.1-4.2,2.5-5.9,4.1c-0.8,0.8-1.7,1.7-2.3,2.7
		c-0.2,0.3-0.7,0.7-0.6,1c0.6,1.8,1.6,3.3,2.5,5c3.1-0.3,2.6,0.1,4.6-1.3c1.3-0.8,2.7-1.7,3.9-2.8c1.1-0.9,2.1-1.9,3.1-2.8
		c1.2-1,2.3-2,3.4-3c0,0,1.4-1.3,1.3-1.4c-3.9-5.3-2.8-6.8-5.3-5.3c-0.5,0.3-0.9,0.7-1.4,1.1c-0.8,0.7-1.6,1.5-2.2,2.5
		c-0.7,1.3-1.3,2.5-1.1,4c0.1,0.2,0.1,0.5,0.2,0.7c0.5,0.7,0.9,1.5,1.6,2c1.3,0.7,2.2,0.7,3.3,0.4c0.4-0.1,0.7-0.2,1.1-0.4
		c0.1,0,0.4-0.2,0.3-0.1c0,0-0.1,0-0.1,0c0.2-0.1,0.5-0.1,0.7-0.2c0.1,0-0.1,0-0.2,0c0,0,0,0,0,0c-1.8-0.2-1,0.1-2.3-0.5
		c-0.6-0.9-1.5-1.7-1.8-2.8c-0.2-0.7,0.3-1.5,0.5-2.2c0,0,0.1-0.2,0.2-0.2c0,0,0.1-0.1,0.1-0.1c-0.1,0.1-0.2,0.3-0.4,0.4
		c-0.5,0.6-0.6,0.8-1,1.3c-0.5,0.7-1,1.4-1.4,2.2c-0.4,0.9-0.8,1.8-1.1,2.7c-0.3,1-0.6,2-0.9,3.1c-0.2,1.1-0.6,3.4,0.1,4.3
		c2.6,2.9,2.6,2.3,5.5,1.7c1.1-0.7,2-1.6,2.9-2.6c0.9-1,1.9-2.1,2.7-3.2c0.1-0.2,0.5-0.4,0.4-0.6c-6-4.3-5.7-5.9-7.1-2.6
		c-0.4,0.9-0.7,1.9-1,2.8c-0.2,0.8-0.5,1.7-0.8,2.5c-0.6,1.5-1.5,2.9-2.3,4.3c-1.3,2.2-2.7,4.4-4.2,6.5c-0.3,0.5-0.5,0.8-0.8,1.2
		c-0.1,0.1-0.3,0.2-0.2,0.3c6.4,4.8,4.8,6.3,6.5,3.9c0.8-1.1,1.5-2.2,2.1-3.4c0.6-1.1,1.7-2.8,1.8-4c0-0.5,0-1,0-1.6
		c-4.5-2.7-3.4-3.6-6-2.3c-1.3,0.7-2.6,1.5-3.8,2.3c-2,1.3-4,2.6-5.8,4c-0.8,0.7-1.9,1.6-2.5,2.4c-0.2,0.4-0.9,0.8-0.6,1.1
		c1.6,1.8,3.8,2.9,5.7,4.4c0.8-0.6,1.4-1.2,2.1-1.9c1-1.2,2.1-2.4,3-3.6c0.1-0.2,1.3-1.7,1.2-2c-2.7-6-1.3-5.1-5.4-4.6
		c-0.1,0,0.1-0.1,0.2-0.1c-0.6,0.3-1.2,0.6-1.8,1c-0.5,0.4-1.1,0.7-1.5,1.1c-0.8,0.7-1.7,1.5-2.4,2.3c-1.2,1.4-2.3,2.8-3.2,4.4
		c-1.2,1.9-2.3,3.8-3,6c-0.1,0.4-0.5,1.9-0.3,2.2c0.6,1.2,1.3,2.6,2.4,3.4c1.2,0.8,2.9,0.1,4-0.6c0.7-0.5,1.3-1.1,2-1.7
		c2.1-1.9-1,1-5.7-4.5c-0.4-0.4,0.7-0.9,1-1.5c0.1-0.1-0.3,0.3-0.6,0.7c0,0,0,0,0,0C84.3-95,83.7-94,83-93.1
		c-0.9,1.2-1.8,2.3-2.8,3.4c-0.4,0.4-0.8,0.8-1.2,1.2c-0.1,0.1-0.2,0.1-0.2,0.2c4.9,6.2,3,7.5,5.6,5.1c0.5-0.6,0.9-1.3,1.2-2
		c0.7-1.2,1.2-2.5,1.7-3.7c0.6-1.5,1.1-3,1.2-4.6c-0.1-1,0-1.8-0.7-2.7c-1.1-1.3-2.3-1.9-4-1.7c-1,0.2-2,0.6-2.8,1.3
		c-0.2,0.2-0.9,0.8-1.5,1.3c-1.4,1.1-2.8,2.3-4.3,3.4c-1.4,1.1-3,2.2-4.2,3.5c2.5,1.6,7.9,2.2,5.9,4.7c-0.1,0.2-0.3,0.3-0.4,0.4
		c-0.1,0.3,1-1.1,0.7-0.8c0.6-1,1.2-2,1.9-2.9c1.9-2.6,3.9-5.2,5.8-7.8c1.6-2.1,3.1-4.3,4.4-6.6c0.5-0.8,1.7-2.7,1.5-3.6
		c-0.8-3.9-1-3.2-4.1-4.3c-0.4,0.1-0.9,0.1-1.3,0.2c-1.3,0.3-2.5,1.5-3.6,2.2c-2.7,2-5.2,4.1-7.4,6.6c-0.9,1-1.8,1.9-2.6,2.9
		c-0.1,0.2-0.5,0.4-0.3,0.5c1.8,1.7,3.8,3.3,5.9,4.7c0.2,0.1,0.2-0.3,0.3-0.5c0.8-1.3,1.7-2.5,2.6-3.7c1.9-2.7,4-5.4,6-8
		c1.5-2,3-4.1,3.8-6.5c0-0.6,0.3-1.2,0.1-1.8c-0.6-2.7-2.6-3.9-5.1-3.5c-1.3,0.2-2.6,0.6-3.7,1.4c-1.1,0.9-2.1,1.9-3.2,2.8
		c-2,1.7-4.1,3.3-6.3,4.8c-0.8,0.5-1.5,1.1-2.3,1.6c-0.1,0.1-0.4,0.1-0.3,0.2c0.1,0.1,0.2-0.3,0.3-0.2c1.8,1.3,3.5,2.8,5.3,4.1
		c-1,2.5-0.5,1,0.3,0.2c1.6-2,3.4-3.9,5.1-5.9c2-2.2,4.1-4.4,6-6.7c0.7-0.9,1.5-1.8,1.9-2.8c0.1-0.3,0.3-0.6,0.3-1
		c0-0.8-0.2-1.7-0.3-2.5c-0.2-0.3-0.4-0.8-0.7-1c-0.6-0.5-1.2-1-1.9-1.1c-1.5-0.3-2.3,0-3.4,0.7c-1,0.7-1.9,1.3-2.8,2.1
		c-1.6,1.5-3,3.1-4.6,4.6c-1.3,1.3-2.6,2.5-3.8,3.9c-1.3,1.7,7.2,2.8,5.3,5c1-1.3,2-2.7,3-4c1.4-1.7,2.8-3.3,4.3-4.9
		c1.3-1.5,2.6-3.1,3.8-4.7c0.7-1,1.5-2,2-3.1c0.1-0.3,0.3-0.5,0.4-0.8c0.1-0.5,0.2-1,0.3-1.6c-0.2-0.8-0.2-1.7-0.7-2.3
		c-0.9-1.4-2.4-1.8-3.9-1.7c-1,0-2,0.1-2.9,0.4c-0.8,0.3-1.6,0.6-2.3,0.8c-1.6,0.5-3.2,1.1-4.7,1.7c-0.5,0.2-0.6,0.2-1.1,0.5
		c-0.2,0.1-0.4,0.1-0.5,0.2c-0.1,0-0.2,0-0.3,0.1c-0.1,0.1,0.2,0,0.2,0c1.2,0.6,2.5,1.1,3.7,1.7c0.1,1.2,0.3,2.4,0.3,3.6
		c0,0.3-0.3,0.5-0.4,0.7c0,0,0-0.1,0.1-0.1c0.1-0.2,0.3-0.3,0.4-0.5c0.9-0.9,1.6-1.8,2.4-2.7c1.1-1.3,2.2-2.6,3.4-3.8
		c0.7-0.8,1.5-1.5,2.3-2.2C90.4-132.1,85.7-138,81.5-134.7L81.5-134.7z"/>
	<path id="path61-0" class="st0" d="M98.2-127.2c-0.9,1-1.9,2-2.8,3c-1.2,1.3-2.4,2.5-3.6,3.7c-1,1.1-2.1,2.1-3.1,3.1
		c-0.7,0.6-1.3,1.3-1.9,1.9c-0.5,0.6-1,1.2-1.5,1.8c-0.4,0.4-0.7,0.9-1.1,1.4c-1.8,2.8-1.2,1.2,4.7,5.8c0.2,0.1,0.4-0.2,0.6-0.3
		c0.7-0.4,1.3-0.8,1.9-1.2c1.6-1.1,3.3-2,5-2.9c1.7-0.8,3.4-1.6,5.1-2.4c0.6-0.3,1.2-0.7,1.7-1.1c-3.2,0.3-3,1-5.1-1.4
		c-0.6-0.7-0.4-2-0.4-2.7c0,0,0,0.1,0,0.1c-0.1,0,0.3-0.5,0.1-0.4c-0.1,0-0.1,0.2-0.2,0.3c-0.3,0.4-0.5,0.8-0.8,1.1
		c-1.1,1.2-2.2,2.4-3.3,3.5c-1.3,1.4-2.6,2.9-4,4.3c-1,1.1-1.9,2.2-2.8,3.3c-3.3,4.2,2.6,8.9,5.9,4.7l0,0c0.8-1,1.5-1.9,2.4-2.8
		c1.3-1.4,2.6-2.9,4-4.2c1.3-1.4,2.6-2.8,3.9-4.2c0.8-1.1,1.6-2.1,2-3.4c0.2-0.7,0.3-0.9,0.1-2.2c0-0.4-0.2-0.8-0.4-1.1
		c-1.4-1.7-3-2.8-5.4-1.4c-0.4,0.3-0.8,0.5-1.2,0.8c-1.7,0.9-3.5,1.6-5.2,2.5c-1.9,1-3.8,2.1-5.5,3.3c-2.4,1.6,1.3-0.9-1.3,0.8
		c-0.1,0.1-0.2,0.2-0.4,0.2c0,0-0.1,0-0.1,0.1c4.9,5.5,6.2,3.3,4.4,5.9c0.5-0.6,0.9-1.2,1.4-1.7c0.3-0.4,0.6-0.8,1-1.2
		c0.6-0.6,1.2-1.2,1.8-1.8c1.1-1.1,2.2-2.1,3.2-3.1c1.3-1.3,2.5-2.6,3.8-3.9c0.9-0.9,1.8-1.9,2.6-2.8
		C107.3-125.6,101.9-131,98.2-127.2L98.2-127.2z"/>
	<path id="path65-4" class="st0" d="M93.5-97c-0.6,0.6-1.2,1-1.8,1.5c-1.3,1-2.4,2.1-3.6,3.3c-1.4,1.3-2.6,2.7-3.9,4.1
		c-0.8,0.9-1.5,1.8-2.4,2.6c-0.7,0.5-1.1,1.3-1.7,1.9c-1.4,1.5-1,1.4-1.4,4.1c1.3,1,2.5,2.2,4,2.9c0.3,0.2,2.1-0.6,2.5-0.8
		c0.8-0.2,1.6-0.7,2.3-1.2c0.6-0.4,1.2-0.8,1.8-1.1c0.7-0.4,1.5-0.7,2.2-1.1c-0.1,0,0.4-0.1,0.3-0.1c-0.9,0.2-1.2,0.1-2.1-0.1
		c-2.2-3.2-2.6-2.2-2.2-4.4c0,0,0,0,0,0.1c-0.1,0.2-0.2,0.3-0.2,0.5c-0.3,0.5-0.6,0.9-0.9,1.4c0,0,0,0,0-0.1c-3.5,4,2.2,9,5.7,4.9
		l0,0c0.1-0.2,0.3-0.4,0.4-0.5c0.5-0.8,1.1-1.5,1.5-2.4c0.3-0.6,0.7-1.3,0.8-2c0.1-0.3,0.3-0.7,0.1-1c-0.6-1.3-1.5-2.3-2.3-3.5
		c-0.4-0.1-0.7-0.2-1.1-0.3c-1.1-0.2-2.3,0.2-3.3,0.6c-0.9,0.4-1.9,0.8-2.7,1.4c-0.8,0.4-1.5,0.9-2.2,1.4c-0.4,0.3-0.6,0.4-1.1,0.6
		c-0.2,0.1-0.4,0.2-0.6,0.3c-0.1,0-0.3,0.1-0.2,0.1c0.2,0,0.5-0.2,0.7-0.1c1.4,0.9,2.5,2,3.8,2.9c-0.2,0.9,0.3,2.3-0.5,2.8
		c0.5-0.5,0.9-1.1,1.4-1.6c1-1,2-2.1,2.9-3.2c1.1-1.3,2.3-2.5,3.5-3.7c1-1,1.9-2,3-2.8c0.8-0.7,1.6-1.3,2.4-2.1
		C102.6-95.4,97.3-100.8,93.5-97L93.5-97z"/>
	<path id="path53-4" class="st0" d="M213.9-134.2c-1.4,2.4-2.7,5-4.3,7.3c-2,3.3-3.2,5.4,1.5,9.8c1.3,1.2,3.5-0.4,4.8-1.2
		c2.4-1.8,5-3.3,7.6-4.6c-2.1,0.5,1.7-0.7,1.2-0.5c-0.3,0.1-0.6,0.4-0.9,0.2c-3-1.1-4.7-1.7-4.6-5.3c-1.5,2.8-3.2,5.5-4.9,8.2
		c-1.2,2-2.4,3.9-3.6,5.8c-1.9,3.4-0.8,1,6.5,7.1c0.2,0.1,0.3-0.3,0.5-0.4c0.9-0.6,1.8-1,2.7-1.4c2.8-1.1,5.6-2,8.5-3
		c2.1-0.7,0.4-0.1,0.4-0.1c-1.6-1.7-3.4-3.2-4.4-5.4c-0.5-1.1,1.4-3.1,0.2-1.7c-2.7,2.9-5.5,5.8-8.3,8.6c-1.8,1.6-3.2,3.6-5,5.3
		c-3,3.6-0.9,3.2,5.5,8.4c0.4,0.3,0.8-0.4,1.2-0.6c0.4-0.2,2.7-1.2,3-1.4c1.5-0.8,3.2-1.2,4.8-2c0.2-0.1-0.4,0.3-0.6,0.2
		c-0.7,0-1.5-0.3-2.2-0.4c-0.8-1.1-1.8-2-2.3-3.3c-0.3-0.9,0.2-1.8,0.2-2.7c0-0.1-0.1,0.1-0.1,0.1c-0.1,0.1-0.2,0.1-0.3,0.2
		c-0.3,0.3-0.6,0.6-0.9,0.9c-0.3,0.3-0.7,0.6-1,0.9c-2.5,2.3-5,4.6-7.3,7.2c-4.1,4.9-2.8,2.8,0.8,11.5c0.8-0.1,1.5-0.1,2.3-0.3
		c0.5-0.1,0.9-0.3,1.4-0.5c1.9-0.8,3.7-1.7,5.7-2.4c0.3-0.1,1-0.3,1.4-0.4c0.1,0-0.2,0.2-0.3,0.1c-1.5-0.9-3.5-1.2-4.4-2.8
		c-1.5-2.7,1.3-6.1-0.2-4.1c-1.6,1.8-3.3,3.4-5,5.1c-0.8,0.8-1.6,1.7-2.3,2.6c1.2,2.9,1.8,6.1,3.5,8.7c0.4,0.6,1.4-0.2,2.1-0.4
		c3-0.6,5.9-1.7,8.8-2.4c3.4-0.7,6.7-2,10.2-2.5c-0.9-0.2,1,0,0.8,0c-3.5-0.8-2.3,0.4-4.2-6.6c-0.2-0.8,1.1-1.6,0-0.8
		c-2.6,1.9-5.1,3.9-7.5,5.9c-0.2,0.2-3.1,2.5-3.1,2.8c0.8,3,2.3,5.6,3.5,8.5c0.6-0.1,1.2-0.1,1.8-0.2c1.2-0.2,2.4-0.7,3.5-1
		c2.4-0.7,4.8-1.4,7.1-2.2c3-1,6-2.1,9-3c2.9-0.7-1.4,0.9-3.6-1.9c-1-1.3-0.5-3.4-0.7-5.1c0-0.2,0.3-0.5,0.2-0.5
		c-0.2,0-0.2,0.3-0.4,0.5c-1.3,1.6-2.6,3-4,4.5c-4.7,5,1.6,12.4,6.2,7.5l0,0c1.6-1.7,3.1-3.3,4.6-5.1c0.4-0.5,1.6-2,1.6-2.4
		c0.1-1.9,0.6-4.2-0.4-5.7c-1.9-2.9-3.7-2.2-5.6-1.7c-3.2,0.8-6.3,2-9.4,3.1c-2.3,0.7-4.6,1.4-7,2.1c-0.6,0.2-1.3,0.4-1.9,0.6
		c-0.3,0.1-0.7,0.1-0.9,0.3c-0.1,0.1,0.3,0.1,0.4,0.1c0.9,2.8,2.1,5.5,2.8,8.4c0.1,0.3-0.5,0.4-0.7,0.7c-0.1,0.1,0.2-0.2,0.3-0.3
		c0.6-0.5,1.3-1.1,1.9-1.6c2.5-2.1,5.1-4,7.7-6c0.7-0.6,3-2.5,2.9-3.6c-0.5-6.9-1.8-7.8-6.3-7.4c-3.7,0.6-7.3,1.9-10.9,2.7
		c-2.4,0.6-4.7,1.3-7,2c-0.5,0.2-1.1,0.2-1.6,0.4c0,0-0.1,0.1-0.1,0.1c0.9,2.9,1.9,5.8,2.9,8.7c0.6-0.7,1.3-1.4,1.9-2.1
		c1.9-2,3.9-3.8,5.7-6c1.3-1.8,2.9-3.6,1.6-6.7c-1.9-4.5-5.1-3.4-7.8-2.4c-1.5,0.6-3,1.2-4.4,1.9c-0.5,0.2-0.9,0.4-1.4,0.6
		c-0.2,0.1-1,0.2-0.7,0.3c0.4,0.2,0.8,0,1.2,0c3.7,10.1,1.4,9.6,4.5,5.9c2.1-2.4,4.4-4.4,6.7-6.5c2.1-1.9,6.1-5.4,5.3-9
		c-0.3-1.6-1.6-2.7-2.4-4.1c-0.9-0.3-1.9-0.7-2.8-0.8c-1.8-0.2-4.9,2-6.7,2.5c-1.1,0.5-2.6,1.1-3.7,1.7c-0.4,0.2-1.5,0.2-1.3,0.7
		c1,2.1,7.5,5.7,4.7,8.4c1.6-1.7,3.1-3.6,4.8-5.2c3-3,6.1-6.1,9-9.2c0.8-0.9,2.7-3.1,2.2-4.4c-2.1-6-3.7-6.5-7.4-5.3
		c-3.2,1-6.4,2.1-9.6,3.4c-1.4,0.7-2.7,1.4-4,2.2c-0.2,0.2-0.9,0.3-0.7,0.5c5.7,8,7.8,4.3,5.9,7.4c1.3-2,2.5-4,3.7-6
		c2-3.3,4.2-6.5,5.8-10c0.6-2,1.5-4.2,0-6.4c-2.5-3.5-5-2.8-7.8-1.4c-2.9,1.5-5.7,3.1-8.4,5c-2.2,1.4,1.3-1,2.4,0.3
		c1.5,1.8,1.8,4.6,2.6,6.9c0,0.1-0.2,0.4-0.2,0.3c0.3-0.5,0.2-0.4,0.6-1c1.7-2.5,3.1-5.2,4.6-7.8C225-134.5,217.5-140.2,213.9-134.2
		L213.9-134.2z"/>
	<path id="path54-9" class="st0" d="M212.5-126.9c-1.7,2-3.6,3.8-5.3,5.8c-1,1.1-2.8,2.8-3.1,4.3c-0.2,0.9-0.3,1.8-0.4,2.7
		c0.8,1.5,1.4,3.3,2.5,4.4c1.7,1.6,5.7,0.2,7.5-0.5c1.1-0.4,2.2-0.8,3.3-1.2c1-0.4,2-0.8,3-1.2c0.1,0,0.4-0.1,0.3-0.1
		c-0.5,0.1-1,0.3-1.5,0.3c-2.5-0.2-3.8-2.5-4-5.4c0-0.1,0-0.2,0-0.2c-0.1,0.1-0.1,0.3-0.2,0.4c-0.8,1.6-1.6,3.2-2.3,4.8
		c-1.6,3.1-2.9,6.4-4.2,9.7c-0.6,1.6-1.8,4.7-0.1,6c1.9,1.5,4.4,1.2,6.7,1.5c0.3,0,0.5-0.4,0.8-0.6c0.4-0.3,0.8-0.6,1.1-0.9
		c2.4-1.7,4.9-3.3,7.3-5c0.9-0.5-1.4,0.7-1.6,0.5c-1.9-1.8-3.1-4.3-4.5-6.7c-0.1-0.2,0.3-0.5,0.2-0.5c-0.2,0-0.3,0.3-0.4,0.5
		c-0.3,0.4-0.5,0.7-0.8,1.1c-1.8,2.6-3.7,5.2-5.5,7.8c-0.2,0.3-2.9,4.1-2.8,4.3c1.7,2.6,3.9,4.7,5.9,7.1c2.8-1.4,5.8-2.6,8.7-3.9
		c0.6-0.3,0.7-0.3,1.3-0.5c0.1,0,0.4-0.1,0.3-0.1c-1.7,0.3-2.7,1.2-4.5-1.6c-0.8-1.3-0.5-3.2-0.7-4.8c0-0.1,0.2-0.4,0.1-0.4
		c-0.5,0.5-0.8,1.2-1.2,1.8c-0.8,1.1-1.7,2.2-2.5,3.3c-1.2,1.6-2.5,3.2-3.8,4.8c-2,3.1-1.4,6,1.5,8.4c1.2,1,4.1,0.4,5.5,0.3
		c3.1-0.3,6.1-0.8,9.1-1.5c0.8-0.2,1.6-0.3,2.5-0.4c6.4-0.7,5.5-10.9-0.8-10.2l0,0c-1.2,0.1-2.3,0.3-3.5,0.6c-2.6,0.6-5.2,1-7.8,1.3
		c-0.5,0-1,0.1-1.6,0.1c-0.3,0-1.2-0.1-1,0.1c0.4,0.4,1.2,0.1,1.6,0.6c1.8,2.1,3.5,4.6,1.4,7.4c1.2-1.4,2.3-3,3.5-4.5
		c1.9-2.4,3.8-4.8,5.3-7.5c-0.1-1.9,0.4-4-0.4-5.6c-1.9-3.5-5.4-2-7.8-0.9c-2.6,1.2-5.3,2.1-7.8,3.5c1.6,2.5,3.2,5,4.8,7.4
		c-0.1,0.2-0.4,0.3-0.3,0.5c0.1,0.2,0.2-0.3,0.3-0.5c0.6-0.9,1.2-1.8,1.8-2.7c1.8-2.6,3.6-5.2,5.4-7.7c0.3-0.5,2.5-3.4,2.4-3.8
		c-2.4-6.2-2.9-8.8-7-6.3c-2.5,1.7-5.1,3.5-7.6,5.2c-0.4,0.3-0.8,0.6-1.3,1c-2.7,2,1.7-1.1,5.5,2.4c1.6,1.5-0.3,5.8,0.6,3.5
		c1.3-3.1,2.5-6.2,4-9.2c1.1-2.5,2.5-4.9,3.3-7.5c0.8-4.8-2.5-8.2-6.4-6.8c-1.1,0.4-2.2,0.9-3.3,1.3c0.3,0,0,0-0.6,0.2
		c-0.9,0.3-1.7,0.7-2.5,1c-0.5,0.2-0.8,0.3-1.2,0.5c-0.2,0.1-0.7,0.1-0.6,0.2c0.5,0.3,1.3,0.2,1.7,0.7c0.9,1.2,1.4,2.8,2,4.1
		c-0.7,3.3-1,2.6,0.9,0.6c1.7-2,3.6-3.8,5.3-5.8C223.4-124.8,217-132,212.5-126.9L212.5-126.9z"/>
	<path id="path55-7" class="st0" d="M149.3-131.5c-1.3,0.6-2.5,1.1-3.8,1.7c-0.5,0.3-0.8,0.4-1.3,0.4c-0.9,0.1-1.7,0.4-2.5,0.7
		c1.4-0.4-0.4,0,3.6,6.2c0.1,0.1,0.2-0.1,0.3-0.2c0.2-0.1,0.3-0.2,0.5-0.3c0.9-0.5,1.8-1.2,2.8-1.7c3-1.9,1.3-2.3-1.9-7.3
		c-0.1-0.1-2.3,0.4-2.6,0.5c-2,0.5-4.1,1.1-6.1,1.7c-2.3,0.6-4.5,1.3-6.7,2.1c-1.4,0.5-2.7,1.1-3.9,1.9c2.5-1.9,2.5,3.6,4.2,6.2
		c0,0,1.7-1.2,1.8-1.3c0.6-0.4,1.3-0.9,1.9-1.3c0.1-0.1,0.4-0.1,0.4-0.3c0-0.1-0.2,0.2-0.4,0.2c-0.1,0.1-1.2,0.5-1.3,0.3
		c-1.2-2-1.9-4.1-2.8-6.2c0,0,0.1-0.1,0.1-0.1c-1,1-0.2,0.3-0.9,0.9c-1.3,1.3-2.6,2.7-3.9,4c-0.6,0.5-1.3,1-2,1.5
		c-2.3,1.7-2.1,1.3,0.8,7c0.4,0.9,3.8-0.2,4.5-0.5c1.4-0.5-0.4,0.1-0.9,0c-1.5-0.3-2.6-1.6-2.8-3c0,0,0,0.1,0,0.1
		c0-0.2,0.1-0.8-0.1-0.4c-0.2,0.4-0.4,0.8-0.7,1.2c-0.7,1.2-1.6,2.3-2.4,3.4c-1.5,3.4-1.5,2.2,4.8,5.7c0.3,0.2,1.9-1.2,2.2-1.5
		c0.8-0.5,1.7-0.8,2.6-1.1c0,0.1,1.2-0.7,0.9-0.4c-0.9,0-1.8,0.1-2.6-0.1c-0.6-0.2-2.1-1.4-2-2.3c0-0.8,0.2-1.6,0.2-2.4
		c-0.6,0.8-1.2,1.5-1.9,2.3c-1.1,1.1-2.1,2.3-3.1,3.5c-1.7,2.2-1.2,1.7,2.6,6.6c0.3,0.4,3.3-0.6,3.7-0.8c1.4-0.5,2.7-1.2,4.1-1.6
		c-0.2,0,0.7-0.2,0.5-0.2c-2.6,0-3.2,0.6-4.6-3.2c-0.3-0.7,0.4-1.5,0.6-2.2c-1,1.2-2.2,2.4-3.2,3.6c-2.1,2.5-3.5,4.4,0.3,7.7
		c0.7,0.6,2,0,3-0.1c1.5-0.6,3-1,4.6-1.3c0.3-0.1,0.7-0.1,1-0.2c0.7-0.1,1.4-0.2,2.1-0.3c0.1,0,0.4,0,0.3,0
		c-0.9-0.3-1.8-0.4-2.7-0.6c1-7.9,2.2-7.1-2.1-5.5c-3.4,1.3-2.1,1,2.3,7.2c0.2,0.3,0.6-0.2,0.9-0.3c0.3-0.1,0.6-0.2,1-0.3
		c1.6-0.4,3.2-1.1,4.8-1.6c0.1,0,0.7-0.1,0.1,0c1,0.1-1.7-0.2-2.4-1c-1.4-1.7-1.4-3.3-0.4-4.8c0.7-0.6-0.9,0.7,0.1-0.1
		c0.1,0,0.2-0.1,0.2-0.1c-0.4,0.1-0.7,0.2-1,0.3c-0.7,0.2-1.4,0.3-2.1,0.5c-1.6,0.3-3.2,0.7-4.8,1.2c0,0,0,0-0.1,0c0,0,0.1,0,0.2,0
		c0.2,0,0.6-0.2,0.7,0c2.8,5.7,0.7,7.6,2.5,5.9c0.4-0.3,0.4-0.4,0.8-0.9c0.3-0.4,0.7-1,0.7-1c-5.6-5.1-4-6.1-6.4-4.1
		c-1,0.8-1.9,1.6-2.8,2.5c-0.9,0.7-1.8,1.5-2.6,2.3c-0.8,0.9-1.8,1.8-2.7,2.7c-0.6,0.6-1.1,1.2-1.6,1.9c-0.1,0.1-0.3,0.4-0.2,0.3
		c0.2-0.2,0.4-0.5,0.5-0.7c4.4,6.7,2.4,7.2,5.6,5.3c0.6-0.3,1.2-0.6,1.8-0.9c1.3-0.6,2.6-1.3,3.9-1.7c0.3-0.1,0.6-0.2,0.9-0.3
		c2.2-0.8-0.8,0.6-1.7-0.7c-1-1.3-1-3.2-1.5-4.9c0.1-0.1,0.3-0.3,0.2-0.4c-0.1-0.1-0.2,0.2-0.3,0.3c-0.2,0.2-0.4,0.4-0.6,0.6
		c-0.7,0.7-1.4,1.5-2.1,2.2c-1.2,1.3-2.4,2.6-3.6,3.9c-0.6,0.7-1.1,1.5-1.7,2.3c-0.3,0.4-0.1,0.1-0.7,1c-0.1,0.1,0.1-0.4,0.2-0.3
		c1.7,1.8,3.3,3.6,4.9,5.5c1-0.5,2-0.8,3.1-1.2c-0.5-0.1,1.4-0.3,0.9-0.3c-0.6,0-1.4,0.5-1.8,0.1c-3.5-3.9-3.5-3.6-2.3-5.7
		c-0.8,1-1.7,2-2.6,3c-0.8,0.7-1.3,1.6-1.9,2.5c-0.6,0.9-1.4,2.1-1.2,3.3c0.2,1,0.9,1.8,1.4,2.7c0.8,0.3,1.6,0.8,2.4,0.9
		c1.6,0.2,3-1.1,4.4-1.8c1.7-0.6,3.4-1.2,5-1.9c0.9-0.3,1.8-0.4,2.7-0.7c-2.3,0.6-4-1.4-4.2-3.5c0-0.6,0.3-1.1,0.4-1.7
		c-1,1-1.9,2-2.7,3.1c-0.7,0.8-1.5,1.5-2.3,2.3c0.4-0.4-0.9,1-0.7,0.8c0.2-0.1,0.4-0.7,0.5-0.5c1.2,2.1,1.8,4.6,3,6.7
		c0.1,0.1,1.2-0.2,1.8-0.4c2.2-0.8,4.5-1.5,6.7-2.4c1.7-0.7,3.3-1.4,4.9-2.2c0.9-0.4,1.8-0.9,2.7-1.4c-3.7,2.6-2.6-2.2-4.6-5.9
		c-0.1-0.2-0.4,0.3-0.6,0.5c-0.2,0.2-0.5,0.4-0.7,0.6c-1.5,1.1-2.8,2.4-4.3,3.6c-0.7,0.4-1.3,1.1-2.1,1.4c4.1-0.8,1.8-1,4.1,6.2
		c0,0-0.1,0.1-0.1,0.1c0.4-0.1,0.8-0.4,1.3-0.5c2.3-0.7,4.6-1.6,6.8-2.5c1.7-0.8,3.2-1.7,4.8-2.7c0.3-0.2,0.6-0.4,0.9-0.6
		c0,0,0.2-0.1,0.1-0.1c-1.7,0.5-0.6,0.4-2.5,0.3c-0.9-1.6-1.8-3.2-2.6-4.8c0-0.1,0.1-0.2,0.1-0.3c0-0.1-0.1,0.1-0.1,0.1
		c-0.1,0.2-0.3,0.4-0.4,0.6c-0.4,0.6-0.4,0.5-0.9,1.1c-0.8,1-1.6,1.9-2.5,2.8c-2.6,2.8-0.1,3,4.1,6.5c0.2,0.2,0.4-0.2,0.7-0.3
		c0.2-0.1,0.3-0.1,0.5-0.2c1.4-0.5,2.7-1.2,3.9-1.9c0.4-0.3,0.9-0.6,1.3-0.8c4.7-2.5,1.3-9.2-3.5-6.7l0,0c-0.7,0.4-1.3,0.8-1.9,1.2
		c-0.8,0.6-1.8,0.9-2.7,1.3c-3,1.3-0.8,0.2,3.5,5.7c0.1,0.1-0.3,0.3-0.5,0.7c-0.1,0.1,0.2-0.2,0.3-0.3c1-1.1,2-2.1,2.9-3.3
		c0.3-0.4,2.5-3.1,2.4-3.4c-0.5-1.9-1.6-3.5-2.4-5.3c-0.5-0.1-1-0.2-1.6-0.2c-1.2,0.1-2.2,0.7-3.1,1.4c-1.2,0.8-2.5,1.5-3.8,2.1
		c-2.1,0.9-4.2,1.7-6.4,2.4c-0.2,0.1-3.2,1.3-3.2,1.6c1.1,7.8-0.4,7.3,3.8,6.6c1.3-0.6,2.4-1.5,3.5-2.3c1.5-1.2,2.9-2.5,4.5-3.8
		c0.2-0.1,0.3-0.3,0.5-0.4c0.1-0.1,0.3-0.1,0.3-0.2c-1.3-5.5-0.4-8.8-4.4-6.2c2.2-1.2-1.3,0.5-1.5,0.6c-1.4,0.7-2.9,1.3-4.3,1.9
		c-2,0.8-3.9,1.5-5.9,2.2c-3.2,1,1,9.6,2.8,6c0.2-0.3,0,0,0.5-0.5c0.8-0.7,1.5-1.5,2.2-2.3c0.9-1.1,1.8-2.1,2.8-3.1
		c0.7-0.9,1.3-1.5,1.3-3c0-3-2.7-4.5-5.4-3.9c-1.2,0.3-2.5,0.5-3.6,1c-1.9,0.8-3.8,1.4-5.6,2.2c-0.1,0.1-2.1,1-2.2,1.2
		c-0.1,0.1,0.3-0.1,0.4-0.2c1.8-0.3,1.3-0.1,3.3,0.8c0.4,0.9,1.1,1.7,1.3,2.6c1.2,5-0.4,0.4-0.5,1.9c0,0.2,0.5-0.9,0.4-0.6
		c0.4-0.6,0.8-1.2,1.3-1.7c0.9-1.1,1.9-2.1,2.8-3.2c0.2-0.4,0.8-0.7,0.7-1.1c-1.5-5.3-1.8-6.2-5.6-5c-1.3,0.4-2.6,0.8-3.9,1.5
		c1.5,1.9,2.9,3.8,4.5,5.6c0,0,0.4-0.6,0.3-0.5c-0.1,0.2-0.3,0.4-0.4,0.6c-0.1,0.1,0.4-0.5,0.4-0.5c0.4-0.6,0.8-1.1,1.2-1.7
		c1.1-1.2,2.2-2.4,3.3-3.6c1.4-1.4,2.9-2.9,4.1-4.5c-0.4-1.7-0.3-3.7-1.3-5.2c-1.1-1.5-3.9-0.2-5.2,0.2c-1.8,0.6-3.6,1.3-5.3,2.2
		c-4.3,2.3-3.4,0.8,1.4,7.6c0.4-0.5,0.7-1,1.2-1.4c0.9-0.8,1.8-1.7,2.6-2.6c0.9-0.9,1.9-1.7,2.9-2.6c0.7-0.7,1.5-1.3,2.3-2
		c2-1.8,0.1,0-5.1-5.2c-0.1-0.1,0.4-0.5,0.3-0.4c-0.1,0.1-0.2,0.2-0.4,0.3c-2,1.9-1.1,0.8,1.5,7c0.1,0.3,2.6-0.2,2.8-0.3
		c1.3-0.5,2.7-0.7,4.1-1c1.6-0.4,3.2-0.7,4.7-1.3c0.9-0.5,1.7-1,2.3-1.8c0.4-0.5,1-1.3,1-2c-0.3-2.7-1.1-4.6-4.1-4.6
		c-0.7,0-1.4,0.1-2.1,0.3c-1.6,0.5-3.2,1.1-4.9,1.6c-0.4,0.1-0.9,0.3-1.3,0.4c-0.3,0.1-0.9,0-0.9,0.3c1.7,7.7,0.6,7.8,2.9,7
		c4.4-1.6,2.6-0.2,3.9-7.8c-0.9-0.2-1.8-0.5-2.8-0.7c-0.3-0.1-0.5,0.1-0.8,0.1c-1,0.1-2.1,0.3-3.1,0.5c-1.9,0.4-3.8,0.9-5.6,1.6
		c0.8,0.1,1.8-0.4,2.3,0.2c1.2,1.2,1.6,3,2.1,4.6c0.1,0.3-0.3,0.6-0.5,0.9c0,0.1,0.1-0.1,0.1-0.2c0.3-0.3,0.6-0.7,0.9-1
		c1.2-1.4,2.5-2.6,3.6-4c0.3-0.9,1.2-1.8,0.9-2.7c-1-3.6-3.2-4.2-5.9-3.3c-1.4,0.5-2.6,1.1-4,1.6c-0.2,0.1-0.4,0.2-0.7,0.2
		c-0.1,0-0.4,0-0.4,0.1c0,0.1,0.3-0.1,0.4,0.1c2.9,6.3,1.1,7.7,2.7,5.7c0.9-1.1,1.9-2.2,2.9-3.2c1.1-1.2,2.2-2.5,3-3.9
		c0.1-0.9,0.3-1.7,0.4-2.6c0-0.2-0.3-0.9-0.3-1c-1.1-2.2-2.3-2.2-4.7-2.1c-0.6,0.2-1.1,0.4-1.6,0.7c-1.2,0.4-2.5,0.9-3.6,1.7
		c-0.7,0.5-0.6,0.4-1.3,0.8c-0.1,0-0.2,0.1-0.2,0.1c0,0.1,0.2-0.1,0.2-0.1c5.3,4.6,5.8,2.5,4.3,5.7c1-1.4,2.1-2.7,2.9-4.2
		c0.8-1.5,1.8-3,1.7-4.8c-0.2-1.9-1.1-3.6-3.3-4c-1.2-0.2-2.5-0.2-3.6,0.4c-0.5,0.3,0.2-0.1,0,0.1c0,0-0.1,0-0.2,0
		c0.4,0.1,0.8,0.2,1.2,0.2c2,5.8,2.7,5.1,0.6,6.6c1.2-0.7,2.3-1.6,3.4-2.5c1.3-1.3,2.6-2.7,3.9-4c0.2-0.2,0.4-0.4,0.6-0.6
		c0,0,0-0.1,0-0.1c0.2-0.2,0.6-0.2,0.5-0.5c-1.8-5.7-0.9-7.3-4.6-6c-1.1,0.6-2.2,1.4-3.3,2.1c-0.4,0.3-0.5,0.4-0.9,0.6
		c-0.1,0.1-0.4,0.1-0.4,0.3c2.3,6.3,1.1,8.3,4.2,6.3c-0.1,0-0.2,0.1-0.2,0.1c0,0,2-0.9,2.2-1c2.1-0.8,4.2-1.4,6.4-2
		c1.8-0.6,3.7-1.1,5.5-1.5c0.4-0.1,1.1-0.2,1.1-0.3c-1.3-3.4-4.5-5.4-1.9-6.9c-1.2,0.7-2.3,1.5-3.5,2.2c-0.3,0.2-0.5,0.4-0.8,0.6
		c-0.2,0.2-0.7,0.2-0.6,0.5c2.3,6.9,1,7.3,3.8,6.6c0.1,0,1.3-0.4,0.9-0.3c1.3-0.1,2.6-0.5,3.8-1.1c1.3-0.6,2.7-1.1,4-1.8
		C157.4-127.2,154.1-133.9,149.3-131.5L149.3-131.5z"/>
	<path id="path56-3" class="st0" d="M134.9-115.1c-1.5,1-3,2.1-4.3,3.3c-1.5,1.4-3,2.8-4.3,4.4c-0.6,0.8-1.4,1.4-2.1,2.1
		c-0.5,0.4-0.9,1-1.3,1.5c-3.8,3.8,1.6,9.1,5.3,5.3l0,0c0.3-0.4,0.7-0.7,1-1.2c1-0.9,2-1.8,2.8-2.8c1.1-1.3,2.4-2.5,3.6-3.7
		c1.3-1.1,2.6-2.1,4-3.1C143.8-112.6,139.1-118.5,134.9-115.1L134.9-115.1z"/>
	<path id="path57-1" class="st0" d="M127.7-93.8c1.1-0.7,2.1-1.6,3.1-2.3c1-0.6,2-1.1,2.9-1.8c0.8-0.5,1.5-1,2.3-1.5
		c0.5-0.2,1-0.5,1.5-0.8c4.6-2.7,0.7-9.2-3.9-6.5l0,0c-0.3,0.4-1.1,0.3-1.4,0.7c-1,0.6-2.1,1.2-3,1.9c-0.7,0.6-1.8,1-2.6,1.6
		c-1.3,0.8-2.5,1.8-3.7,2.7C118.8-96.4,123.5-90.5,127.7-93.8L127.7-93.8z"/>
	<path id="path58-0" class="st0" d="M148.1-132.1c-1.2,1-2.5,2-3.8,2.8c-1.1,0.7-2.2,1.2-3.4,1.8c-0.9,0.4-1.7,0.8-2.5,1.3
		c-4.3,3.2,0.2,9.3,4.5,6.1l0,0c-1,0.4,1.3-0.5,1.3-0.6c1.4-0.7,2.7-1.3,4-2.1c1.6-1,3.1-2.1,4.6-3.3
		C157-129.6,152.3-135.5,148.1-132.1L148.1-132.1z"/>
	<path id="path59-2" class="st0" d="M142.6-96.7c-1.7,0.5-3.3,1.2-5,1.8c-1.5,0.6-2.9,1.3-4.2,2.2c-0.7,0.5-1.4,1.2-2.1,1.6
		c-0.8,0.5-1.6,1.1-2.3,1.7c-0.7,0.7-1.4,1.4-2,2.2c-0.6,0.8-1,1.8-1.2,2.7c-0.5,2.3,0.4,3.4,2.5,4.9c0.7,0.5,2.4,0.1,3.3,0
		c2.5-0.4,4.9-1,7.4-1.4c1.7-0.3,3.5-0.6,5.2-0.8c0.7-0.1,0.4,0,1-0.1c5.3-0.5,4.7-8-0.6-7.5l0,0c-0.7,0.1-0.3,0-1.2,0.1
		c-1.9,0.2-3.7,0.5-5.6,0.8c-2.5,0.4-4.9,0.9-7.4,1.4c-0.1,0-0.3,0.1-0.4,0.1c-0.1,0-0.4,0-0.3,0c0.4,0.1,0.9,0,1.2,0.2
		c2.6,2.1,2.3,1.9,2.3,4.1c-0.2,0.3,0.2-0.4,0.2-0.5c-0.1,0.1-0.2,0.2-0.2,0.2c0.5-0.5,0.6-0.7,0.8-0.8c0.5-0.4,1.1-0.8,1.6-1.2
		c0.8-0.6,1.6-1.2,2.4-1.8c0.7-0.5,1.5-0.8,2.3-1.2c1.6-0.6,3.1-1.2,4.7-1.7C150.1-91.2,147.7-98.4,142.6-96.7L142.6-96.7z"/>
	<path id="path67-7" class="st0" d="M171.8-133.4c-1.5,1.7-3,3.3-4.4,5c-1.1,1.4-2.2,2.6-3,4.3c-1.4,3.5-0.8,1.3,5.9,7.2
		c0,0,2.8-1.5,2.9-1.6c1.4-0.7,2.7-1.6,4.1-2.3c1.1-0.1,2.2-0.4,3.3-0.6c0.4-0.1,0.6-0.1,1-0.2c0.4-0.1-0.4,0.1-0.8,0
		c-0.4-0.1-0.8-0.1-1-0.4c-0.8-0.8-1.5-1.9-2.2-2.8c-3.8-0.7,0.4-2.2-0.1-3.1c-0.1-0.1-0.1,0.2-0.4,0.8c-0.2,0.3-0.5,0.7-0.8,1
		c-1.6,2-3,4.3-4.5,6.5c-1.2,1.5-2.2,3.1-3.5,4.5c-0.6,1-1.6,1.3-0.2,0.5c-3.8,2,0,2,5.2,7.9c0,0,0.1,0,0.1,0
		c0.2-0.2,0.4-0.4,0.7-0.6c0.3-0.3,0.6-0.6,0.9-0.9c2-1.9,4.1-3.8,6.2-5.6c-1,0.1,2.6-1.6,1.6-1.3c-0.1,0-0.8,0.7-1,0.5
		c-2-1.8-3.7-3.9-5.6-5.9c-0.2,0.4,0.2-0.8,0.1-0.6c-0.6,0.9-1.1,2.2-1.6,3.1c-1.1,2.1-2.3,4.1-3.6,6.1c-1.4,2.3-2.8,4.6-4.2,6.9
		c-0.9,1.2-1.6,2.6-2.6,3.8c0,0.1-0.8,1.2-0.8,1.3c0,0.2,0.2-0.8,0.3-0.6c1.9,2.5,3.2,5.5,5.2,8c0.2,0.3,0.6-0.2,0.8-0.4
		c0.3-0.2,0.6-0.3,0.9-0.5c1.7-0.9,3.2-2.1,4.8-3.1c0.3,0,3-2.5,1.5-1.1c0,0-0.1,0,0,0c0.1,0,0.5,0,0.3,0c-0.5-0.1-1.1,0-1.6-0.2
		c-0.4-0.1-0.8-0.4-1.1-0.6c-0.7-0.7-1.1-1-1.5-2.2c-0.2-0.7-0.1-1.5-0.2-2.2c0-0.1,0.1-0.4,0-0.3c-0.1,0.2-0.1,0.3-0.2,0.5
		c-0.3,1.1-0.8,2.1-1.3,3c-0.9,1.5-1.6,3.1-2.5,4.6c-0.7,1.3-1.4,2.5-2,3.9c-0.5,1.3-1.4,3.8-0.5,5.2c1,1.5,2.6,2.3,3.9,3.4
		c2.4,0.1,4.8-0.8,7.1-1.6c1.6-0.6,3.1-1.4,4.7-2.2c0.9-0.4,1.7-1,2.6-1.5c0.2-0.1-0.4,0.2-0.5,0.3c-1.7,0.4-2.2,0.6-4.5-1.9
		c-0.7-0.8-0.7-2.1-0.9-3.3c-0.1-0.7,0.5-1.8,0.2-1.4c-0.8,1.1-1.5,2.2-2.3,3.3c-0.9,0.9-1.8,1.9-2.7,2.8c-0.1,0.1-0.3,0.3-0.2,0.2
		c0,0,1.3-1.2-0.3,0.2c-0.3,0.3-0.7,0.7-0.9,1c-2.1,2.8-0.5,2.3,3.9,8.7c0.1,0.1,2.8-0.7,3-0.7c2.6-0.7,5.1-1.7,7.6-2.7
		c1.8-0.7,3.5-1.6,5.1-2.5c1-0.5,2-1.1,2.9-1.6c-0.2,0.1-1,0.5-1.1,0.3c-1.6-2.5-2.3-10-4.2-7.9c-0.2,0.2-0.4,0.5-0.6,0.7
		c-1,1.5-2.2,2.7-3.4,4c-0.8,1-1.8,1.6-2.7,2.4c0.3-0.3-0.8,0.7-0.6,0.6c0.3-0.2,1.1-0.8,0.8-0.6c-3.3,2-0.8,0.2,2.7,9.8
		c2.4-0.4,4.7-1.2,7-2c1.9-0.7,3.8-1.4,5.6-2c1.5-0.6,2.8-1.5,4.1-2.4c-0.9,0.2,1.9-0.9,1-0.6c-0.6,0.2-1.3,0.8-1.9,0.4
		c-1.5-0.8-2.6-2.1-4-3.2c-0.1-1-0.1-2.1-0.2-3.1c0,0,0,0.1,0,0.1c-0.1,0.1,0.1-0.3,0.1-0.4c0,0-0.1,0-0.1,0.1
		c-0.2,0.2-0.3,0.4-0.5,0.6c-0.7,0.8-1.3,1.6-1.9,2.4c-0.6,0.8,0,0,0.2-0.2c-5.4,3.8-0.7,12.6,4.8,8.7l0,0c0.7-0.5,1.4-1.1,2-2
		c0.7-0.9,1.3-1.7,2-2.6c2.2-3.1,2.2-3.1,2-7.4c-1.3-1.1-2.5-2.5-4-3.4c-1-0.5-3.3,1.1-4.2,1.6c-0.7,0.5-1.4,1-2.2,1.4
		c-1.8,0.7-3.7,1.3-5.5,2c-2,0.7-4,1.4-6,1.7c1,3.1,2.3,6.2,3.1,9.4c0.1,0.2-0.8,0.4-0.6,0.3c0.7-0.2,1.2-0.8,1.8-1.2
		c1.2-1,2.4-1.9,3.4-3.1c1.3-1.4,2.6-2.8,3.7-4.4c0.1-0.2,1.5-1.7,1.4-1.9c-2.8-7.2-1.8-9.4-5.9-7.7c-1.1,0.6-2.2,1.2-3.4,1.8
		c-1.3,0.8-2.6,1.4-4,2c-2.2,0.9-4.4,1.7-6.7,2.4c-0.7,0.2-1.4,0.3-2,0.5c-0.1,0,0.2-0.1,0.3,0c2.1,4.3,5.6,6,3.6,8.4
		c-0.1,0.1-0.5,0.4-0.4,0.3c1.1-0.9,0.5-0.3,1.1-0.9c1.3-1.2,2.5-2.5,3.7-3.8c1-1.3,1.8-2.6,2.7-3.9c0.6-1,1.6-2.5,1.5-3.8
		c-0.3-3.8-1.7-6.5-5.8-5.7c-1.3,0.4-2.5,1.2-3.7,1.8c-1.3,0.7-2.6,1.4-3.9,1.9c-0.9,0.3-1.7,0.6-2.6,0.9c-0.2,0.1-0.4,0.1-0.6,0.2
		c0,0-0.2,0-0.1,0.1c0.2,0.1,0.3,0,0.5,0.1c1.1,1.1,2.6,1.9,3.4,3.4c0.6,1,0.3,2.1-0.1,3c0,0.1,0.1-0.1,0.1-0.2c0.4-1,1-1.9,1.5-2.9
		c0.8-1.4,1.5-2.9,2.3-4.3c0.9-1.6,1.8-3.2,2.3-5c1-2.9,1.2-5.5-1.2-7.8c-0.5-0.3-0.9-0.7-1.4-0.8c-1.5-0.5-2.8-0.3-4.3,0.1
		c-1.2,0.5-2.3,1.2-3.3,2c-1.4,0.9-2.8,1.9-4.2,2.8c-3,1.7-1.9-0.2,4,8.5c0.2,0.2,0.3-0.5,0.5-0.8c0-0.1-0.1,0.2-0.2,0.2
		c1-1.4,2-2.9,3-4.4c1.4-2.3,2.9-4.6,4.2-6.9c1.4-2.2,2.8-4.5,4-6.9c0.9-1.8,1.9-3.5,2.5-5.5c-1.8-2.1-3.5-4.4-5.5-6.3
		c-0.2-0.2-0.6,0.2-0.8,0.3c-1.1,0.5-2,1.4-3,2.2c-2.3,1.9-4.5,4-6.7,6.1c-0.2,0.2-2.6,2.4-2.6,2.6c2.7,5,8.7,6.6,5,8.4
		c1.2-0.6,2.3-1.5,3.2-2.7c1.5-1.7,2.8-3.6,4.2-5.4c1.5-2.1,2.8-4.4,4.4-6.4c0.8-1.1,2.7-3.8,2.8-5.3c0.1-1.1,0-2.2,0-3.3
		c-0.8-1-1.4-2.2-2.3-3.1c-1-1-3.6-0.6-4.8-0.4c-1.9,0.4-3.8,0.7-5.5,1.5c-1.5,0.8-2.9,1.7-4.4,2.5c-0.7,0.4-1.3,0.7-2,1.1
		c-1.5,0.8,7.3,4.3,5.4,7.3c-0.1,0.1-0.3,0.4-0.2,0.3c0.6-0.9,1.3-1.6,2-2.5c1.3-1.6,2.7-3.2,4.1-4.7
		C182.7-131.3,176.3-138.5,171.8-133.4L171.8-133.4z"/>
	<path id="path68-4" class="st0" d="M269-131.1c-1.3,0.9-2.5,1.9-3.8,2.9c-1.5,1.3-3,2.7-4.4,4.1c-1.2,1.3-2.5,2.6-3.8,3.7
		c-0.8,0.7-1.5,1.4-2.3,1.9c-4.4,2.9-1.6,4.5,2.3,10c0.2,0.3,0.6-0.1,0.9-0.1c2.4-0.4,4.7-1.4,6.9-2.5c1.6-0.7,3.1-1.4,4.7-2.1
		c0.7-0.2,1.3-0.5,1.9-0.9c0.1-0.1-0.2,0.1-0.3,0.2c-0.5,0.2-0.6,0.2-1.2,0.2c-1.5-1.9-3.1-3.7-4.4-5.7c-0.1-0.2,0.4-0.6,0.2-0.8
		c-0.2-0.2-0.2,0.5-0.3,0.7c-0.1,0.4-0.3,0.7-0.5,1c-1.2,1.8-2.2,3.7-3.2,5.6c-1.1,2-2.5,3.9-3.6,6c-0.5,0.9-1,1.9-1.6,2.8
		c0.6-0.9-1.4,2.2-0.8,1.3c0.3-0.4,0.8-1-0.2,0.2c0-0.1,0.2-0.2,0.1-0.2c0,0-1.8,1.8-1.9,1.9c-3.2,3.4-2.7,0.9,6.4,5.4
		c0,0.2-0.1,0.4-0.1,0.5c0,0.1,0.1-0.2,0.1-0.3c0.1-0.2,0.2-0.5,0.3-0.7c0.4-0.9,0.7-1.9,1.1-2.8c0.7-1.7,1.4-3.4,2.1-5.1
		c0.6-1.3,1.5-2.4,2.4-3.6c-1,0.8,1.6-1.7,0.8-0.9c-0.7,0.7-0.1,0.2-0.9,0.8c2.7-1.4,0.6-0.2-6.1-5.9c-0.1-0.1-0.1,0.2-0.1,0.3
		c-0.1,0.2-0.2,0.4-0.2,0.6c-0.1,0.2-0.2,0.4-0.3,0.6c-0.1,0.4-0.3,0.8-0.4,1.2c-0.7,2.1-1.3,4.2-1.9,6.4c-0.5,1.6-1,3.3-1.4,4.9
		c-0.2,0.6-0.8,4.3-0.1,1c-0.1,0.7-0.4,1.2-0.7,1.7c-0.6,0.9-1,1.9-1.5,3c-0.6,1.8-0.3,3.6,0.6,5.2c0.2,0.3,0.4,0.7,0.7,0.9
		c1.1,0.6,2.3,1.1,3.5,1.4c0.3,0.1,0.7-0.1,1-0.2c1.4-0.5,2.7-1.3,4.1-2c0.8-0.5,1.7-1,2.5-1.5c0.3-0.2,0.6-0.4,0.9-0.5
		c1.1-0.5,2.2-1.1,3.2-1.8c0.1-0.1,0.5-0.4,0.3-0.3c-1.3,0.6-2.4,1.9-4,0.8c-1.2-0.8-2.2-2.1-3-3.5c-0.4-0.6,0-2.2-0.2-1.4
		c0.1-0.1,0-0.1,0-0.1c-0.4,0.9-0.8,1.8-1.2,2.8c-0.7,1.5-1.2,3.1-1.7,4.7c-0.4,1-0.8,2.1-1.1,3.1c-0.8,3.4-0.4,3.7,3.7,7.5
		c0.5,0.5,1.4-0.1,2-0.2c2.2-0.7,4.3-1.6,6.4-2.5c1.3-0.5,2.5-1.2,3.8-1.8c0.1-0.1,0.3-0.1,0.4-0.2c0.1,0-0.2,0.1-0.3,0.2
		c-0.1,0-0.6,0.2-0.7,0.1c-1.1-0.5-2.3-0.8-3.1-1.7c-0.7-0.8-0.7-2-1.1-3c-2.7,1.5,0.9-1.9,0.3-1.9c-0.1,0-0.2,0.3-0.2,0.4
		c-0.4,0.8-0.9,1.6-1.3,2.4c-0.3,0.9-1,1.7-1.2,2.6c-0.2,0.8-0.3,1.7-0.5,2.5c0.2,0.9,0.2,2,0.7,2.8c2,3.1,4.7,2.7,7.5,1.8
		c2-0.7,4-1.3,6.1-1.8c1.5-0.3,3.1-0.8,4.5-1c-2.1,0.2-3.5-1.8-4.2-3.9c-0.3-0.9,0.1-1.8,0.2-2.7c0-0.1,0.1-0.2,0.1-0.3
		c0-0.1-0.1,0.1-0.2,0.2c-0.5,0.8-1.2,1.6-1.8,2.4c0-0.1,0.1-0.2,0.1-0.2c-0.5,0.7-2.2,3.6-1.5,4.4c1.6,1.9,3.8,3.1,5.8,4.7
		c2.2-0.9,3.8-2.7,5.5-4.4c2.3-2.2,4.5-4.6,6.6-7c1.4-1.6,2.9-3.1,4.4-4.8c0.1-0.2,0.3-0.3,0.4-0.5c0.1-0.1-0.1,0.2-0.2,0.2
		c-0.2,0.2-0.7,0.6-0.5,0.4c0.3-0.2,1-0.4,0.8-0.7c-6.5-6.6-5-8.1-7.3-5.8c-1,1.8-2.1,3.5-3.3,5.1c-0.7,0.8-1.2,1.8-1.9,2.6
		c0.4-0.4,0.4-0.5,0.9-0.8c0.1-0.1,0.4-0.2,0.3-0.1c-0.5,0.3-0.9,0.6-1.4,0.9c0.1-0.1,0.1-0.1,0,0c-2.5,1.5,5.9,0.9,6.5,3.8
		c0.3-2.5,0.8-4.9,1.5-7.2c0.6-1.8,1.2-3.7,2.1-5.3c0.5-0.9,0.9-1.3,1.3-1.9c-0.3,0.6,2.8-3.6,0.5-0.7c-2-2.6-3.7-5.4-6-7.7
		c-0.2-0.3-0.5,0.5-0.8,0.8c-1.3,1.4-2.6,2.8-3.8,4.3c-1.3,1.8-2.7,3.5-4.1,5.3c-0.5,0.6-1.9,2.1-1.9,2.9c-0.1,1.5,0.1,3,0.1,4.5
		c1.5,1,3,2.1,4.6,2.9c0.3,0.1,0.6-0.1,0.9-0.2c1.2-0.3,2.3-1.1,3.4-1.8c1.6-1.2,3.2-2.3,4.7-3.5c0.9-0.5,1.6-1.3,2.4-1.8
		c0.6-0.6,2.8-2.8,2.2-3.9c-1.3-2.3-3.3-4.1-5.2-5.8c-0.2-0.1-2.2,0.6-2.4,0.6c-1.2,0.4-2.3,1.1-3.5,1.5c-0.1,0,0.2-0.1,0.3-0.1
		c3,0.5,2.3-0.2,4.3,2.4c0.1,0.2,0.2,0.4,0.2,0.6c0,0.1,0.1,0.3,0.1,0.2c0.2-0.4,0.1-0.9,0.1-1.4c0.4-2.1,0.5-4.2,0.8-6.4
		c0.4-1.4,0.6-2.9,1.1-4.2c1.4-4.4,0.7-3.8-6.7-7.2c-0.3-0.1-1.5,1.9-1.8,2.3c-1.3,2.3-2.5,4.7-3.7,7.1c-2.6,5.1-0.1,4.1,7.2,6.4
		c0.1,0,1-1.8,1-1.8c1.2-2.6,2.3-5.2,3.3-7.9c0.6-1.5,1-3,1.5-4.5c0.6-1.9-0.8,2.6-4,3.3c-1.3,0.3-2.5-1-3.6-1.7
		c-0.3-0.2-0.8-2-0.7-1.2c0.1,1.1,0.1,2.2,0,3.3c-0.2,2-0.7,4-1.2,5.9c-0.5,2.1-1.1,4.1-1.6,6.2c-0.8,2.6,0,5,2.7,6.9
		c2.1,1.5,4.2-0.3,5.6-1.7c0.7-0.7,1.4-1.5,2.1-2.3c0.4-0.5,0.2-0.4,0.5-0.5c4.2-3,0-4.1-3.8-9.4c-0.1,0-0.3,0.1-0.2,0.1
		c1.6-0.3,2.2-0.1,3.6,1c0.5,0.4,0.6,1,0.5,0.4c-0.6-2.4-0.9-5-1.3-7.5c-0.3-1.3-0.1-2.9-0.7-4.1c-0.4-0.8-0.9-1.4-1.3-2.1
		c-1-0.5-1.9-1.2-3-1.4c-2.1-0.4-4.7,1.7-6.4,2.8c-0.5,0.4-1.1,0.7-1.6,1c-0.1,0.1-0.4,0.2-0.3,0.2c2.2-0.9-0.1-0.6,4.2,0.1
		c0.5,0.6,1.1,1.3,1.6,1.9c0,0.1,0.1,0.3,0.1,0.2c0.1-0.2-0.2-2.3-0.2-2.6c-0.1-3.4,0-1.9-2.5-6.6c-0.8-0.2-1.7-0.7-2.5-0.7
		c-1.7,0-3.4,1.3-4.9,2.3c3.3-2.2,5.6,1,6.2,4.1c0.2-1.1,0.4-2.2,0.6-3.2c-7.3-5.7-6.1-6.7-9.5-2.6c-0.6,0.7-0.6,0.4,0,0
		c3-0.5,2.6-1,5.7,2.9c1.7,0.3-0.2,1.7,0.2,2.4c0.1,0.1,0.1-0.3,0.1-0.5c0.1-0.3,0.1-0.5,0.2-0.8c1.1-4.1-0.1-3.9-5.7-7.2
		c-0.3-0.2-2,1.3-2.3,1.5c-1,0.7-1.7,2-2.8,2.6c4.6-1.1,2.8-1.7,6.7,4.7c0.1,0.2-0.1,0.5-0.1,0.7c0,0.1,0.1-0.1,0.1-0.2
		c0.7-1.7,0-0.1,0.5-1.2c1.6-3.2,0.7-3.3-4-8.3c-0.5-0.5-3.2,1.2-3.9,1.6c0,0.1-1.7,1-1.7,1c0.1,0.5,0.4-0.6,1.1-0.4
		c1.3,0.4,2.5,1.1,3.8,1.6c0.3,1.7,0.8,3.3,1,5c0,0.3-0.3,0.6-0.4,0.9c0,0.1,0.1-0.2,0.2-0.2c0.4-0.5,0.9-1,1.3-1.4
		c0.8-0.6,1.6-1.4,2.5-1.6c0.4-0.1-0.4,0,0.3,0c0.8,0,1.6,0,2.3,0c0.6,0,0.6,0,1.2,0c0.1,0,0.6,0,0.4,0c-0.2,0-0.4,0-0.5,0
		c-1.7-0.5-1.3-0.5-2.7-2.1c-0.1-0.2-0.2-0.4-0.3-0.6c0,0,0,0,0,0c-0.1,0.7,0.4,2.2,0.4,2.3c2.4,2.9,2.7,3.5,5.8,3.5
		c0.6,0,1-0.1,1.5-0.1c0.1,0,0.3,0,0.2,0c-0.4-0.1-0.9-0.1-1.3-0.3c-1.9-1-3-3.5-2.4-5.8c-0.3,0.6-0.6,1.1-1,1.6
		c0,0.1-0.1,0.1-0.1,0.2c-4.1,5.6,2.9,12.2,7,6.6l0,0c0.1-0.1,0.2-0.2,0.2-0.3c0.8-1.1,1.5-2.2,2-3.4c0.1-0.3,0.8-1.9,0.7-2.5
		c-0.2-1.5-0.4-3-1-4.3c-0.7-1.5-2.7-2-4-2.1c-0.5,0-1.6-0.2-2,0.1c-0.2,0.1,0.5,0.1,0.7,0.3c0.8,0.9,1.5,1.8,2.2,2.7
		c0.1,0.5,0.1,1,0.2,1.5c0,0.1,0-0.3,0-0.4c0-0.2,0-0.4,0-0.6c-0.1-1.1-0.3-2.2-0.7-3.3c-0.6-0.8-1-1.7-1.7-2.3
		c-1.4-1.2-3.1-1.1-4.7-1.1c-0.8,0-1.6,0-2.4,0c-1.1,0-2.3,0.1-3.3,0.6c-1.9,0.9-3.8,2-5.4,3.5c-0.8,0.8-3.7,3.7-3.7,4.9
		c0,1.8,0.5,3.6,0.8,5.4c1.3,0.6,2.6,1.4,3.9,1.8c0.8,0.3,2.8-1.1,3.7-1.6c0.2-0.1,0.4-0.2,0.6-0.4c0.1-0.1,0.6-0.2,0.4-0.2
		c-0.4-0.1-0.9,0.5-1.1,0.1c-4.7-6.8-2.7-10-4.2-6.7c-0.3,0.7-1.8,3.9-1.5,4.4c3.1,7.1,2.4,6.1,7,5.2c1.3-0.9,2.4-2.1,3.6-3.2
		c0.6-0.6-0.2,0.2-0.4,0c-8.5-6.7-5.9-2.4-5.6-6.2c0-0.4-0.4,1.7-0.3,1.1c-0.3,1.3-1,3.8-0.3,4.9c2.9,4.2,2.8,3.6,6.1,3.2
		c1.3-0.6,2.5-1.5,3.4-2.7c2.6-3.4,1.9-0.5-6.1-6.5c-0.2,1.1-0.4,2.3-0.6,3.4c-0.3,1.8-0.6,4.4,0.9,5.8c2.8,2.5,4.2,2.2,6.5,1
		c0.3-0.2,0.5-0.3,0.9-0.6c0.2-0.1,0.3-0.2,0.5-0.3c0.1,0,0.3-0.2,0.2-0.2c-2.6,0.1,0,0.7-3.4-0.5c-2.8-5.7-2.1-5.1-2-1.6
		c0.1,1.5,0.2,4.7,0.8,5.9c0.5,1,1.3,1.8,1.9,2.7c1.2,0.2,2.3,0.7,3.5,0.7c1,0,2.6-1.4,3.4-1.9c0.7-0.4,1.3-0.9,2-1.3
		c0.1-0.1,0.5-0.2,0.4-0.2c-3.2-0.5,0.7,1.3-3.7-1.3c-1.7-3-0.6-0.6-1.1-2.6c0-0.2,0,0.3,0.1,0.5c0.1,0.9,0.2,1.7,0.4,2.6
		c0.5,3,0.8,5.9,1.6,8.8c0.2,0.5,0.3,1.1,0.5,1.6c1.4,3.2,3.6,4.7,6.8,3.7c3.3-1.1-0.3,0.3-4.5-8c-0.2-0.5,1.8-1.4,1.1-1.2
		c-0.1,0-1,0.8-1,0.8c-1,0.9-1.8,2-2.7,3c-0.1,0.1-0.2,0.2-0.2,0.2c1.7-0.3-1.8-4.8,3.9-0.3c5.1,4.1,2.7,3.3,2.5,6
		c0,0.2,0.1-0.4,0.2-0.6c0.5-2.1,1.2-4.2,1.7-6.4c0.5-2.4,1.1-4.7,1.4-7.1c0.2-1.9,0.2-3.8,0-5.7c-0.1-1.2-0.3-3.4-1.2-4.2
		c-2.6-2.2-6.4-3.8-8,1.6c-0.4,1.3-0.7,2.5-1.2,3.7c-0.9,2.3-1.7,4.5-2.8,6.7c-1.9,3.6,0.8-0.8,7.5,4.8c0.5,0.4-0.5,1.3-0.6,2
		c-0.1,0.5,1-2.1,0.7-1.3c0.9-2.1,2-4.1,3.1-6c0.7-1.1-0.1,0.3-0.4,0.2c-9.7-6.2-6.1-8.4-7-5.1c-0.7,2.1-1.3,4.3-1.7,6.5
		c-0.3,2.3-0.5,4.6-0.9,6.9c-0.3,3.1-0.5,6.7,2.4,8.6c0.9,0.6,2,0.5,3,0.8c1.6-0.3,3.1-1,4.7-1.8c2.8-1-1.5-1-4-6.1
		c-0.5-1,1.2-2.8,1.8-3.3c-0.9,0.6-1.6,1.4-2.5,1.9c-1.4,1.1-2.8,2.1-4.3,3.2c-0.2,0.1-0.4,0.3-0.6,0.4c-0.6,0.4-0.1,0.1,0.1,0.2
		c1.5,0.9,2.8,1.9,4.3,2.9c0,1.4,0.1,2.9,0,4.3c0,0.1-0.3,0.5-0.4,0.7c0,0-0.1,0.1-0.1,0.1c0.2-0.2,0.3-0.4,0.5-0.6
		c0.2-0.2,0.4-0.5,0.6-0.7c1.2-1.6,2.5-3.2,3.7-4.8c0.8-1,1.7-2,2.6-3c0.2-0.2,0.4-0.5,0.6-0.7c0.1-0.1,0.3-0.2,0.2-0.3
		c-1.7-2.8-3.6-5.5-5.4-8.3c-1.5,1.8-0.3,0.3-1.7,2c-0.6,1-1.4,1.8-1.9,2.9c-1.4,2.4-2.4,5.1-3.2,7.8c-0.9,3.2-1.6,6.4-1.9,9.7
		c0,0.6-0.4,1.4,0,1.7c5.3,4.6,4.7,5.6,7.3,3.8c0.5-0.4,1.7-1.4-0.4,0.1c-0.9,0.7,3.2-1.7,2.3-1.6c0.9-1.1,1.7-2.3,2.5-3.4
		c1.3-1.9,2.6-3.8,3.7-5.8c2.2-4,0.3,0.2-6.3-7.5c-0.2-0.2,1-0.7,0.7-0.6c-0.7,0.2-1.2,1.1-1.7,1.6c-1.3,1.6-2.9,3-4.2,4.6
		c-2,2.2-3.9,4.4-6.1,6.4c-0.7,0.6-1.3,1.3-2,1.9c-0.2,0.2-0.4,0.4-0.7,0.5c-0.1,0-0.2,0.2-0.2,0.2c0.3-0.1,0.7-0.3,1-0.4
		c1.8,1.6,3.9,2.9,5.4,4.8c0.3,0.4-0.3,2.1-0.6,2.6c-0.1,0.2-0.5,0.7-0.4,0.5c0.2-0.2,0.3-0.4,0.5-0.7c-0.1,0.1-0.3,0.3-0.2,0.2
		c0.7-0.8,1.3-1.6,1.9-2.5c1-1.5,2.1-3.3,1.6-5.3c-0.8-3.2-2.7-4.5-5.3-4.5c-2,0.2-3.9,0.8-5.9,1.2c-2.2,0.6-4.4,1.2-6.6,2
		c-0.2,0.1-0.4,0.1-0.6,0.2c0,0-0.2,0.1-0.1,0.1c0.5,0.1,0.9-0.1,1.4,0.3c2.7,2.1,2.1,1.5,2.8,4.7c-1,4.3-0.3,1.3,0.5,0.1
		c1.1-2,2.4-3.8,2.5-6.3c-0.4-1.1-0.4-2.6-1.1-3.4c-2-2.4-4.4-2.2-6.7-1.1c-1.2,0.6-2.4,1.2-3.6,1.7c-1.7,0.8-3.4,1.4-5.2,2
		c0.4,0,0.9-0.3,1.1,0c4.6,5.4,3.5,8.2,3.8,5.7c0.2-0.8,0.6-1.7,0.9-2.6c0.4-1.2,0.8-2.4,1.3-3.5c0.8-1.7,1.6-3.5,2.1-5.3
		c0.1-0.9,0.4-2.3,0.1-3c-1.7-3.3-2.7-4.6-5.7-4c-0.6,0.1-2.4,1.3-1.7,1c0.4,0-1.3,0.6-1.4,0.7c-1.3,0.6-2.5,1.5-3.7,2.2
		c-0.7,0.3-1.3,0.7-2,1c-0.5,0.3-0.9,0.4-0.9,0.4c0.1,0.1,0.3-0.1,0.5-0.2c3.2-0.4,5.9,2.7,4.7,6.3c-0.7,1.6,0.4-0.7,0.5-0.9
		c0.5-1,1.3-2.4,1.5-3.3c0.2-0.9,0.4-1.5,0.5-2.3c0.4-1.5,0.9-3,1.3-4.4c0.6-1.9,1.1-3.8,1.7-5.6c2.3-6.1,2.3-2.7-4.8-10.2
		c0,0,0,0,0.1,0c-1.4,0.8-2.5,2-3.5,3.4c-1.1,1.7-2.4,3.3-3.2,5.2c-0.8,1.7-1.5,3.4-2.2,5.2c-0.9,2.1-1.8,4.2-2.3,6.4
		c7.4,4.2,5.7,6.8,8.8,3.5c0.8-0.8,1.6-1.6,2.4-2.4c-0.1,0.1-0.2,0.2-0.2,0.2c0.7-0.7,1.3-1.5,1.7-2.4c0.8-1.2,1.4-2.4,2.1-3.7
		c1-2.1,2.6-3.8,3.6-5.9c1-1.9,2-3.7,3.1-5.5c0.2-0.4,2-4.1,1.8-4.6c-1.2-2.3-2.9-4.2-4.3-6.2c-1.4,0.1-2.4,0.5-3.7,1.1
		c-1.7,0.7-3.3,1.5-5,2.2c-1.5,0.7-2.9,1.4-4.5,1.8c-2.8,0.5,1-0.3,3.5,7.7c0.2,0.6-1.2,1.4-1.6,1.7c-0.2,0.2,1.1-0.8,0.7-0.5
		c0.9-0.7,1.9-1.4,2.7-2.2c1.6-1.3,3.2-2.8,4.6-4.4c1.1-1.1,2.2-2.2,3.4-3.2c1.2-0.9,2.3-1.8,3.5-2.6
		C279.1-126,274.5-134.8,269-131.1L269-131.1z"/>
	<path id="path69-8" class="st0" d="M309-137.1c-1.3,1.4-2.4,3.1-3.5,4.7c-0.7,1.1-1.2,2.3-1.8,3.6c0.3-0.8-0.5,1.4-0.5,1.9
		c0,1-0.2,2.4,0.5,3.1c3.5,3.3,4.3,3.2,6.8,1.9c0.8-0.4,1.5-1.2,2.3-1.5c0.7-0.3,1.5-0.6,2.2-0.8c0.8-0.1,1.6-0.3,2.3-0.6
		c-0.3,0,0.6-0.1,0.5-0.1c-0.7,0-1.4,0.2-2,0.1c-1.9-0.4-2.5-1.7-3.2-3.4c0-3.2,0.1-2.3-0.7-0.7c-0.9,1.6-1.7,3.4-2.5,5.1
		c-0.5,1.5-1.4,2.7-2.1,4.1c-1,2.4-1.1,1,6.2,7.5c0.1,0.1,1.9-1.7,1.9-1.7c1.6-1.4,2.8-3.5,4.4-4.9c0.1,0,0.8-0.6,0.6-0.5
		c-3.4,2,0.4,3.2-7.3-4.4c-0.2-0.2,0.4-1.6,0-0.5c-1.2,2.7-2.3,5.4-3.3,8.2c-0.8,2-1.3,4.2-2,6.2c-0.4,1.3-0.7,2.6-0.9,4
		c-0.2,2.3-2.1-0.1,7,5.3c0.1,0.1,1.9-1.6,2.1-1.7c0.2-0.2,0.4-0.4,0.6-0.6c0.4-0.4,0.9-0.7,1.4-1.1c0.4-0.4,0.7-0.7,0.5-0.5
		c0.6-0.4,1.1-0.9,1.6-1.4c0.1-0.1,0.3-0.2,0.2-0.2c-0.5,0.3-0.9,0.8-1.4,1c-1.5,0.5-2.5,0.4-3.9-0.5c-0.4-0.3-0.8-0.6-1-1
		c-0.5-1.3-0.6-2.8-0.9-4.2c-0.3,1.1-0.8,2.2-1.2,3.3c-0.6,1.5-1.3,2.9-2.1,4.3c0.2-0.3-0.7,1.3-0.5,1c0.3-0.4,0.6-1.7,1-1.3
		c7.1,6.6,8.2,5.5,5.8,7.9c1.3-0.9,2.4-2,3.5-3.1c0.7-0.8,1.4-1.6,2.1-2.4c-3.6,3-0.5,1.1-7.4-5.3c-0.1-0.1-0.1,0.3-0.2,0.4
		c-0.3,0.6-0.6,1.2-0.9,1.8c-0.2,0.6-0.8,1.2-0.9,1.8c-0.5,2.3-1,4.6,1.3,6.4c1.2,0.9,2.7,0.7,4.1,1.1c0.4-0.1,1.2-0.5,1.5-0.6
		c6.1-2.2,3.4-12-2.7-9.8l0,0c-0.7,0.3-0.4,0.1-0.8,0.3c0,0-0.2,0.1-0.1,0.1c0.1,0,0.1,0,0.2,0c3.2,1,4.5,0.3,5.2,4.4
		c0.2,0.9-0.3,1.7-0.4,2.6c0,0-0.1,0.1,0,0.1c0.2-0.4,0.4-0.7,0.6-1.1c0.5-0.9,0.9-1.7,1.3-2.6c0.1-0.2,0.4-0.5,0.3-0.7
		c-5.7-8.1-3.6-8.9-7.4-6c-0.6,0.7-1.2,1.4-1.9,2.1c-0.7,0.7-1.3,1.4-2.1,1.9c-3,2.4-2.4,1.5,4.8,8.7c0.3,0.3,1.3-1.9,1.6-2.4
		c0.9-1.7,1.8-3.5,2.5-5.3c0.6-1.6,1.4-3.3,1.8-5c-0.3-1.5-0.3-3.1-0.8-4.6c-0.2-0.5-0.7-0.9-1.1-1.1c-1.9-1.3-4.3-1.2-5.9,0.6
		c-0.4,0.4-0.8,0.8-1.2,1.1c-0.8,0.7-1.6,1.4-2.4,2.1c-0.5,0.5-0.4,0.3-0.8,0.7c-0.1,0.1-0.2,0.1-0.2,0.2c5.3,4.8,6.2,8.5,6.5,5
		c0.1-0.7,0.2-1.4,0.4-2c0.6-1.9,1.1-3.8,1.8-5.7c1-2.7,2.1-5.2,3.2-7.8c0.2-0.5,1-2.4,0.8-2.7c-4.8-6-4.9-7-8.3-3.9
		c-1.5,1.6-2.9,3.4-4.4,5c-0.1,0.1-0.3,0.3-0.4,0.4c-0.2,0.3,3.8,11,5.9,7.2c0.2-0.4,0.2-0.4,0.3-0.7c0.6-1.5,1.7-2.7,2.2-4.2
		c0.8-1.8,1.7-3.6,2.6-5.3c0.9-2.2,1.6-3.8,1.3-6.3c-0.3-0.7-0.5-1.4-0.8-2c-1.2-2-3.6-2.6-5.5-1.9c-1.1,0.3-0.7,0.3-1.9,0.5
		c-1.2,0.3-2.3,0.7-3.4,1.2c-1.2,0.5-2.4,1.2-3.5,2c4.1-1.5,6,2,5.9,5.4c0,0.6-0.4,1.2-0.5,1.8c0,0.2,0.2-0.4,0.3-0.6
		c0.4-0.8,0.4-1.1,0.8-1.7c0.8-1.3,1.7-2.5,2.7-3.6C319.9-135,313.5-142.2,309-137.1L309-137.1z"/>
	<path id="path70-0" class="st0" d="M310.7-91.7c-0.7,1.4-1.3,2.8-2,4.2c-0.8,2-1.3,4.1-0.1,6.3c1.1,2.1,2,2.1,3.6,2.6
		c3.1,0.4,6-1.2,8.7-2.5c0.9-0.4,1.7-0.8,2.6-1.1c0.5-0.2-1.2,0.5-1.7,0.2c-1.3-0.8-2.3-2.2-3.5-3.3c0.2-4.2,0.8-4.4-0.6-2.6
		c-0.7,0.7-1.2,1.2-1.8,2c-4.4,5.3,2.2,12.3,6.6,7l0,0c0.6-0.8,1.4-1.4,1.9-2.1c0.5-0.7,2.1-2.5,2.2-3.3c0.2-1.3,0.2-2.7,0.3-4
		c-1.2-1.2-2.2-2.8-3.6-3.7c-1.3-0.9-4.7,1.1-6,1.6c-1.2,0.6-2.4,1-3.6,1.5c-0.1,0-0.3,0.2-0.1,0.2c0.3,0.1,0.6,0.1,0.8,0.3
		c2.3,1.9,2,1.8,2.4,5c0,0.3-0.2,0.8-0.3,1.1c0.7-1.3,1.3-2.6,1.9-4C321.8-92.6,314-97.9,310.7-91.7L310.7-91.7z"/>
	<path id="path71-4" class="st0" d="M178.5-128.9c-1.3,1.4-2.3,3.1-3.4,4.7c-1.4,2-2.7,4.1-4.1,6.1c-1.2,1.9-2.4,3.9-3.3,6
		c-0.9,1.4-1,2.4-1.4,4.2c0.3,0.9,0.4,1.9,0.8,2.8c1,2,3.1,2.1,4.9,2.2c0.5,0,2.5-1.1,3.1-1.5c1.8-0.8,3.6-1.7,5.4-2.7
		c-0.9,0.7-2.7,0.4-3.3-0.2c-1.3-1.5-1.7-3.8-2.4-5.8c-0.1-0.2,0.5-1.3,0.1-0.5c-1.1,1.7-2.2,3.5-3.2,5.2c-1.2,2.1-2.2,4.3-3.1,6.5
		c-1.6,4.2-0.3,4.6,4.7,8.1c0.3,0.2,2.7-1.2,3-1.4c2.5-1.3,5-2.8,7.6-3.8c0.2,0,0.3-0.1,0.5-0.1c0.1-0.1-0.3,0.1-0.4,0.1
		c-0.4,0-0.9,0.3-1.2,0c-3.3-3-4.5-3.7-3.1-7.3c-0.7,1.2-1.5,2.2-2.3,3.4c-1.4,2-2.8,4-4.2,6.1c-0.7,1-1.3,2.1-1.8,3.1
		c2.3-3.2,3.1,5.5,4.4,8.5c1.6-0.6,3-1.6,4.6-2.3c1.1-0.5,2.2-1,3.3-1.2c1.1-0.3,2.3-0.5,3.5-0.7c-2.3,0.1-2.4,0.4-4.8-3.3
		c-0.4-0.6-0.3-1.6-0.2-2.4c0-0.1,0.2-0.5,0.1-0.4c-0.2,0.1-0.2,0.3-0.3,0.5c-0.5,1-1.2,2-1.8,3c-0.1,0.6-0.4,1.2-0.4,1.9
		c-0.1,2.9,0.9,3.4,3.1,5.4c0.3,0.2,0.7,0.2,1,0.3c6.3,1.1,7.7-9,1.4-10.1l0,0c2.2,0.7,3.6,2.8,3.5,5.4c0,0.6-0.3,1.1-0.4,1.6
		c-0.2,0.3-0.4,0.6-0.5,0.9c-0.1,0.1,0.2-0.2,0.3-0.4c0.5-0.8,1.1-1.6,1.5-2.4c0.5-0.9,1.3-2.1,1.4-3.1c0.1-1.1,0.5-2.3,0-3.2
		c-2.2-4.1-2.7-3.8-5.3-3.8c-1.2,0.2-2.4,0.4-3.6,0.7c-1.8,0.4-3.5,1-5.2,1.9c-1,0.5-2,0.9-2.9,1.5c-0.1,0.1-0.2,0.2-0.3,0.2
		c-0.1,0.1-0.4,0.1-0.3,0.2c0.2,0,0.3-0.1,0.5-0.1c3.1,8.1,1.9,11.6,4.8,7.6c0.6-1,1-1.9,1.7-2.9c1.4-2.1,2.8-4.1,4.3-6.1
		c0.8-1.2,1.7-2.4,2.5-3.7c0.4-0.8,1.6-2.9,1.1-3.9c-2.3-4.8-3.5-5.6-7.2-4.4c-3.1,1.2-6,2.9-8.9,4.4c-0.2,0.1-0.5,0.2-0.6,0.4
		c-0.1,0.1,0.3-0.1,0.4,0c1.8,1.8,3.6,3.4,5.1,5.5c0.3,0.4-0.2,0.9-0.3,1.4c0,0.2,0.3-1.2,0.2-0.7c0.7-1.8,1.5-3.5,2.5-5.2
		c1.1-2,2.4-3.9,3.5-5.9c1.3-2.8,1.3-4.3-1.7-7.8c-1.2-1.4-3.4-0.4-4.8,0.2c-1.6,0.9-3.3,1.7-5,2.5c-0.4,0.2-0.7,0.4-1.1,0.5
		c-0.2,0.1-0.6,0.1-0.7,0.4c-0.1,0.2,0.4-0.2,0.6-0.2c1.1,0.2,2.2,0.4,3.2,0.9c1.3,0.7,1.5,2.7,1.8,3.9c-1,4.5-0.5,2.1,0.4,0.7
		c0.7-1.6,1.6-3.1,2.5-4.5c1.3-2,2.6-4,4-6c0.9-1.3,1.6-2.6,2.6-3.8C189.4-126.8,183-134.1,178.5-128.9L178.5-128.9z"/>
	<path id="path72-0" class="st0" d="M176.3-105.4c-1.3,1.7-2.6,3.4-4,5.1c-1.3,1.7-2.5,3.4-3.6,5.3c-0.7,1.3-1.8,3.5-1.1,5
		c1.8,4.1,2.5,3.9,4.9,4c2.6-0.4,5.1-1.5,7.6-2.2c2.8-0.7,5.6-1.4,8.3-2.2c0.2,0,0.6-0.2,0.5-0.1c-1.2,0-1.6,1.2-3.2-0.5
		c-0.8-0.9-2.7-3.5-2.1-5.4c0.2-0.6,0.5-1.1,0.7-1.7c0.1-0.1,0.2-0.2,0.2-0.3c0-0.1-0.1,0.1-0.2,0.2c-0.7,0.8-1.4,1.7-2.1,2.6
		c-1,1.3-1.9,2.8-3.1,4c-1.1,1.1-3.1,2.9-2.3,4.9c2.3,5.8,3.2,5.3,6.2,4.8c2.7-0.6,5.5-1.2,8.2-1.8c1.1-0.2,2.1-0.5,3.1-0.9
		c5.9-2.7,2.6-12.2-3.4-9.5l0,0c0,0-1.4,0.3-1.4,0.3c-2.7,0.6-5.4,1.2-8.2,1.8c2.2,0.4,2.8,0.4,4.5,5.1c0.4,1.1-0.7,2.3-1.2,3.4
		c-0.1,0.1-0.4,0.4-0.3,0.3c0.1-0.1,0.9-0.8,0.9-0.9c1.3-1.4,2.5-3,3.6-4.6c0.8-1,1.5-2,2.4-2.9c0.1-0.3,1.4-2.5,1.2-3.4
		c-0.6-1.7-1.1-3.5-2.2-4.8c-1-1.2-3-0.8-4.2-0.5c-2.8,0.8-5.5,1.5-8.3,2.3c-1.5,0.5-3.1,0.9-4.6,1.4c-0.3,0.1-0.6,0.2-0.9,0.3
		c-0.2,0.1-0.5,0-0.5,0.2c0,0.2,0.3,0,0.5,0c2,0.3,2.5,0.2,4.1,4c0.4,1-0.3,2.2-0.4,3.3c0,0,0.3-0.6,0.1-0.4c0.8-1.4,1.8-2.7,2.8-4
		c1.3-1.6,2.6-3.2,3.8-4.8C187.2-103.3,180.8-110.6,176.3-105.4L176.3-105.4z"/>
	<path id="path73-5" class="st0" d="M220.4-120c-1.3,2.4-2.4,4.9-3.5,7.4c-1.1,2.7-2.6,5.3-4,7.8c-1,1.8-1.9,3.5-2.9,5.3
		c-0.3,0.7-0.8,1.4-0.9,2.1c-0.1,0.5,0.4-0.9,0.6-1.4c-4.1,5.6,2.8,12.2,6.9,6.6l0,0c0.2-0.2,0.3-0.4,0.5-0.7
		c1.9-3.6-0.5,0.8,0.7-1.4c0.9-1.7,1.9-3.5,2.8-5.2c1.5-2.8,3.1-5.6,4.3-8.5c1.1-2.3,2.1-4.7,3.3-7
		C231.4-121.2,223.5-126.3,220.4-120L220.4-120z"/>
	<path id="path74-7" class="st0" d="M268.7-130.8c-1.5,1.7-2.9,3.3-4.4,5c-2.2,2.5-4.5,5-6.7,7.5c-1.6,1.7-3,3.6-4.4,5.5
		c-0.8,1.2-1.1,1.3-1.8,2.2c-3,2.6,2.8,10,5.9,8c1.9-1.4,3.9-2.6,5.8-4c1.2-0.8,2.5-1.6,3.8-2.1c0.5-0.2,0.9-0.4,1.3-0.6
		c-0.1,0.1-0.4,0.3-0.6,0.2c-1-0.3-2.1-0.8-3.1-1.2c-0.5-1.6-1-3.2-1.5-4.8c0-0.1,0.1-0.3,0.1-0.4c0-0.1-0.1,0.1-0.1,0.2
		c-0.1,0.2-0.2,0.4-0.3,0.7c-0.5,1-0.4,0.9-1,2c-1,2.1-2.2,4.1-3.5,6.1c-1.6,2.4-3.1,4.7-4.5,7.3c-0.4,1-1.2,1.8-1.5,2.8
		c-0.1,0.4-0.2,0.9-0.3,1.3c2.3,1.7,4.4,3.7,6.8,5.2c0.3,0.2,0.6-0.4,0.8-0.6c0.9-0.6,1.9-1.3,2.8-1.9c1.7-0.9,3.3-2.1,4.9-3.1
		c0.3-0.2,0.6-0.4,0.9-0.7c0.3-0.2,0.7-0.4,1-0.7c0.3-0.2,1-0.9,0.8-0.6c-2.6,2.2-5.4-7.7-6.6-5.8c-0.3,0.4-0.5,0.9-0.7,1.4
		c-1.1,2.2-2.3,4.3-3.4,6.4c-0.8,1.6-1.5,3.3-2.3,4.9c-0.9,1.5-1.4,3-1.6,4.7c0.7,1.5,1,3.4,2.1,4.6c1.7,1.8,5,0.4,6.9-0.3
		c1.6-0.6,3.1-1.4,4.6-2.1c0.1-0.1,0.3-0.1,0.4-0.2c6-2.6,2.7-12.2-3.3-9.6l0,0c-0.3,0.1-0.5,0.2-0.8,0.3c-1.2,0.6-2.5,1.2-3.8,1.8
		c-0.4,0.1-1.8,0.5-1.8,0.6c-0.1,0.1,0.3,0,0.4,0c3.5,1.2,2.1,0.5,4.1,5.2c-0.1,0.6-0.1,0.8-0.3,1.3c-0.1,0.1-0.3,0.5-0.2,0.4
		c0.4-0.7,0.7-1.3,1-2c0.7-1.5,1.4-3.1,2.1-4.6c1.1-2.1,2.3-4.1,3.3-6.3c0.2-0.3,1.6-3,1.5-3.1c-4.2-6.5-3.5-8.5-6.6-6.5
		c-0.9,0.6-1.6,1.3-2.5,1.9c-1.7,1.1-3.3,2.2-5.1,3.2c-4.5,3.1-4.4,1.5,3.3,7.6c-0.1,0.4-0.2,0.7-0.3,1.1c-0.1,0.2-0.2,0.4-0.3,0.6
		c0,0.1-0.2,0.3-0.2,0.2c0.5-0.7,1-1.4,1.3-2.2c1.2-2.2,2.6-4.3,3.9-6.4c1.5-2.3,2.9-4.7,4.1-7.1c0.4-0.9,2.4-4.3,2.3-5.1
		c-0.3-1.8-0.9-3.6-1.4-5.3c-1.1-0.4-2.2-1-3.3-1.3c-0.7-0.2-2.8,0.7-3.5,1.1c-1.8,0.8-3.6,1.8-5.3,3c-1.9,1.3-3.8,2.6-5.7,3.9
		c-0.2,0.1-0.7,0.2-0.6,0.4c5.7,8.7,4.2,9.8,5.9,7.5c0.7-0.9,1.5-1.6,2.1-2.6c1.3-1.7,2.5-3.4,3.9-4.9c2.2-2.5,4.5-4.9,6.7-7.5
		c1.5-1.7,2.9-3.3,4.4-5C279.7-128.7,273.3-136,268.7-130.8L268.7-130.8z"/>
	<path id="path75-0" class="st0" d="M288.7-122.4c-1,2.7-2,5.3-3,8c-0.9,2.2-1.9,4.3-2.7,6.6c-0.9,2.8-1.1,3.6,1.8,7.5
		c1,1.3,3,0.5,4.1,0.2c1.8-0.7,3.6-1.3,5.3-2c0.6-0.3,1.3-0.6,2-0.6c0.3,0,0.5,0,0.8,0c-2.7-0.8-2.7-0.2-4.3-4.1
		c-0.4-0.9,0.6-3.3-0.2-1.4c-0.2,0.4-0.3,0.7-0.4,1.1c-1.5,3.9-3.3,7.7-5.2,11.4c-1.4,3-3.3,5.6-5,8.3c-1.1,2.3-2.2,3.9,0.5,7.2
		c1.1,1.4,3.2,0.9,4.8,1.1c0.3,0,3.2-1.3,3.6-1.4c2.4-0.9,4.6-2.2,6.9-3.3c0.8-0.4,0.3-0.2,1.4-0.8c5.6-3.6,1.1-12.5-4.5-8.9l0,0
		c0,0,0,0,0,0c-0.2,0.1-0.4,0.2-0.6,0.3c-2.1,1.1-4.1,2.2-6.3,3c0,0-2.1,0.9-2.3,1c-0.2,0.1-0.6,0.1-0.5,0.2c2.2,1,8.5,1.3,4.5,7.6
		c1.9-3,3.9-5.8,5.5-9.1c2.1-4,4-8.1,5.7-12.3c0.6-1.5,1.9-3.7,1.4-5.4c-1.3-4.2-1.8-3.7-4.6-4.7c-0.6,0-1.3,0-1.9,0.1
		c-1.4,0.2-2.8,0.6-4.1,1.2c-1.6,0.7-3.2,1.2-4.9,1.8c0.9-0.1,2.3-0.3,2.9,0.6c3.2,4.8,1.3,8.2,2.3,5.3c0.7-2.1,1.7-4.1,2.5-6.1
		c1-2.5,1.9-5.1,2.9-7.7C299.7-124.3,291.5-128.9,288.7-122.4L288.7-122.4z"/>
	<path id="path76-0" class="st0" d="M277.4-94.8c-1.8,1.2-3.5,2.7-5.2,4.3c-1,0.8-1.9,1.7-2.9,2.5c-1,0.8-2,1.8-3,2.7
		c-0.7,0.6-1.5,1.2-2.2,1.9c-0.2,0-0.9,0.8-1.1,1c-4.7,4.9,1.4,12.5,6.1,7.5l0,0c0.1-0.1,0.1-0.1,0-0.1c0.2-0.2,0.4-0.3,0.7-0.5
		c0.8-0.8,1.7-1.4,2.5-2.2c0.7-0.7,1.4-1.4,2.1-2c1.2-1,2.3-2,3.5-3c1.3-1.2,2.6-2.4,4.1-3.4C287.5-89.8,282.9-98.6,277.4-94.8
		L277.4-94.8z"/>
	<path id="path77-5" class="st0" d="M272.4-126.1c-1.9,1.8-3.7,3.7-5.5,5.6c-1.8,1.9-3.6,3.8-5.3,5.8c-1.1,1.3-2.3,2.5-3.5,3.7
		c-0.7,0.7-1.4,1.2-2,1.9c1.4-1.5-0.4,0.3-0.7,0.5c-4.9,4.7,1.1,12.5,5.9,7.8l0,0c0.5-0.5,1.2-1,1.7-1.6c-0.2,0.2-0.6,0.4-0.8,0.7
		c-0.1,0.2,0.3-0.2,0.5-0.3c0.5-0.4,0.8-0.6,1.3-1.1c0.1-0.1,0.3-0.3,0.4-0.4c1.3-1.4,2.6-2.7,3.9-4.1c1.6-1.9,3.3-3.6,5-5.4
		c1.6-1.7,3.3-3.4,4.9-5C283.1-122.7,277.4-130.7,272.4-126.1z"/>
	<path id="path78-6" class="st0" d="M315.8-132.7c-1.5,1.5-2.6,3.2-3.8,5c-1.3,1.9-2.5,3.9-3.7,5.9c-0.7,1.3-1.4,2.6-2.1,3.9
		c-3.6,6.6,1.5,7.5,4.5,8.2c0.2,0,1.6-0.4,1.6-0.4c1.3-0.4,2.6-0.9,3.9-1.3c0.2-0.1,0.8-0.2,0.8-0.2c2.5,0.2-4.7-4-3.9-6.8
		c-0.6,1.3-1.3,2.6-1.9,3.8c-0.9,1.7-1.7,3.5-2.4,5.3c-0.4,0.8-1.2,2.4-1.2,3.3c0.1,1.1,0.2,2.1,0.4,3.2c1.3,1,2.4,2.4,3.9,3.1
		c1.3,0.6,3.8-1.3,5-1.9c0.8-0.3,1.5-0.8,2.2-1.1c5.8-3,2.1-12.4-3.8-9.3l0,0c-0.7,0.4-1.4,0.8-2.2,1.1c-0.8,0.4-0.8,0.4-1.6,0.9
		c-0.1,0.1-0.6,0.3-0.4,0.3c0.5,0,1.1-0.4,1.5-0.1c1.3,0.8,2.4,2,3.6,3c0.1,1,0.2,1.9,0.2,2.9c0,0.1-0.1,0.4-0.1,0.5c0,0,0,0.1,0,0
		c1.3-2.9-0.7,1.8,0.8-1.8c0.5-1.4,1.1-2.7,1.8-4c0.8-1.4,1.5-2.9,2.2-4.3c0.2-0.4,0.6-0.7,0.5-1.1c-2.9-6.7-1.8-7.3-5-7.2
		c-0.8,0.1-1.6,0.2-2.4,0.4c-1.4,0.4-2.8,0.9-4.2,1.3c-1.5,0.6,1.5-1.1,2.8,1.2c2.4,4.6-0.1,8.6,1.1,6.3c0.6-1.1,1.3-2.3,1.9-3.4
		c1.1-1.8,2.2-3.7,3.4-5.4c1-1.4,1.9-2.9,3.1-4C326.7-130.6,320.3-137.9,315.8-132.7L315.8-132.7z"/>
	<path id="path79-7" class="st0" d="M317.2-127.2c-1.6,1.1-3.1,2.6-4.4,4.1c-1.3,1.6-2.5,3.3-3.6,5.1c-0.4,0.3-1.7,3.3-1.9,3.5
		c-1.8,3.3-1.2,5.3,2.1,8.4c0.6,0.6,2.3,0.3,3.2,0.2c1.8-0.2,3.6-0.9,5.4-1.5c1.4-0.5,2.7-1.2,3.9-2.2c-0.6,0.4-2.3,1.7-3.1,1
		c-6.7-6.6-4.4-3.7-3.7-7c0-0.2-0.1,0.3-0.2,0.4c-0.6,0.8-1,1.7-1.4,2.7c0.2-0.4,0.4-0.9,0.6-1.3c-4,5.7,3.1,12.1,7.1,6.4l0,0
		c0.3-0.5,0.6-1.1,0.8-1.6c-0.1,0.2-0.2,0.4-0.3,0.6c-0.4,0.9,1.1-2.1,0.7-1.2c0.3-0.5,1.3-2.2,1.2-2.6c-2.1-5.2-2.1-7.6-5.9-6.5
		c-0.5,0.2-0.9,0.6-1.4,0.8c-0.2,0.2-0.5,0.3-0.8,0.4c-1.3,0.4-2.6,1-4,1.2c-1.4,0.2,0.6-0.2,1.1,0.4c2.1,2.6,3.8,4.6,2.1,7.3
		c0.7-1.1,1.2-2.4,1.9-3.5c0.9-1.3,1.8-2.6,2.8-3.9c0.8-0.9,1.6-1.8,2.6-2.5C327.3-122.2,322.7-131,317.2-127.2L317.2-127.2z"/>
	<path id="path80-8" class="st0" d="M316.9-93.4c-1.3,1.4-2.5,2.9-3.8,4.3c-1,1-1.8,2.2-2.6,3.5c-1.9,3-0.4,1.1,2.3,8.8
		c1.4,0.3,2.6-0.1,4-0.5c0.3,0,1.3-0.3,1.9-0.5c0.6-0.2,1.1-0.5,1.7-0.8c5.8-3.1,2-12.4-3.8-9.3l0,0c-0.4,0.2-0.7,0.4-1.1,0.5
		c-0.5,0.2-0.7,0.3,0.8-0.1c0.1,0-0.2,0-0.3,0c-0.4,0-0.7,0.1-1.1,0.2c-0.7,0.2-2.8,0.5,0,0.5c2.8,8.6,1.2,10,3,7.2
		c0.5-0.8,1-1.5,1.7-2.2c1.3-1.4,2.5-2.9,3.8-4.3C327.9-91.2,321.5-98.5,316.9-93.4L316.9-93.4z"/>
	<path id="path81-0" class="st0" d="M316.6-90.4c-0.7,0.5-0.3,0.2-1.1,0.8c-5.4,4-0.4,12.6,4.9,8.6l0,0c0.6-0.4,0.3-0.2,0.9-0.6
		C326.8-85.3,322.1-94.1,316.6-90.4L316.6-90.4z"/>
</g>
<g id="layer4" transform="translate(-14.223458,-15.106871)" inkscape:groupmode="layer" inkscape:label="text">
	<path id="path1" class="st1" d="M52.5,73.6c0.2-0.4,0.6-0.8,0.8-1.2C52.8,72.5,52.2,73.3,52.5,73.6z M29.9,72.7
		c0.5,0.1,0.3,0.1,0.8,0c-0.1-0.5,0.2-0.6,0.2-1C30.3,71.9,30,72.2,29.9,72.7z M26.9,72.6c0.2-0.3,0.8-0.3,0.7-1
		C27.1,71.7,26.2,72.4,26.9,72.6z M48.2,73.7c1.9,0,2.3-2.3,3-3C50.2,71.8,49.1,72.6,48.2,73.7z M24.8,70.3
		c-0.8,1.3-3.3,0.9-4.3,2.1c1.3,0,2.2,0.6,3.4,0.2C24,71.7,25.4,70.7,24.8,70.3z M20,70c0,0.4-0.1,1,0.3,1c0.3-0.2,1-0.9,0.7-1.3
		C20.9,69.9,20.5,70,20,70z M33.6,70.1c0.6-0.6,1.4-1,1.8-1.8C34.6,68.5,33.6,69.5,33.6,70.1z M28.7,71.8c1.5-1.1,3-2.3,4.3-3.6
		C30.5,67.7,29.8,70.3,28.7,71.8z M26.4,70.8c0.9-1.1,2.3-1.7,3.3-2.8C27.8,68,27,70,26.4,70.8z M55.3,71.8c1.5-1.4,3.2-2.6,4.6-4.1
		C57.5,68,56.2,71,55.3,71.8z M52,71.8c1.7-1.3,3.5-2.4,4.8-4.1C54.3,68.1,53.6,70.4,52,71.8z M24,67.7c1.3,0.1,2.7-1.5,1.8-2.5
		C25.2,66,24.4,66.7,24,67.7z M23,65.7c1.2-0.8,2.2-1.7,3.1-2.8c-0.1-0.4,0.2-1.3-0.2-1.5C24.9,62.8,23.9,64.2,23,65.7z M20.5,62.4
		c0.1-0.4,0.4-0.6,0.5-1.1C20.3,61,20.2,62.2,20.5,62.4z M48.2,69.6c2-1.3,3-3.5,5.2-4.6c-0.1-1-0.2-2.5-0.2-4.3
		c-2.1,1.4-4.6,4.7-5.9,6.9c1.8-0.9,3.4-4.5,5.6-3.9C51.7,65.9,49.1,67.6,48.2,69.6z M50.4,61.9c0.8-1,1.5-2.1,3-2.5
		c-0.1-0.3,0.2-1.1-0.2-1.1C52.2,59.4,50.6,60.7,50.4,61.9z M20.5,59.3c0.1-0.5,1-1.2,0.7-1.6c-0.1,0.5-0.5-0.1-0.8,0
		C20.2,58.1,19.9,59.2,20.5,59.3z M26.1,59.8c0.1-1,0.4-2.7-0.3-3.1c-1.8,2.9-5,5.3-5.4,9.2C22.1,63.7,23.9,61.5,26.1,59.8z
		 M47.1,61.8c0,0.2,0.1,0.4,0.2,0.2c2-1.8,4.4-3.3,5.9-5.6C50.9,54,48.6,60.7,47.1,61.8z M46.9,58.3c1.3-0.7,2.4-1.5,3.1-2.8
		C48,54.8,47.4,56.9,46.9,58.3z M22.5,58.5c1.3-1.3,2.3-2.9,3.8-3.9c-0.1-0.7-0.1-0.5,0-1.2C24.7,54.7,23.2,56.9,22.5,58.5z
		 M21,56.4c2-2.3,5.9-3.5,5.2-7.9C24.5,51.1,22.3,53.3,21,56.4z M20.7,50.1c0.3-0.6,0.9-0.9,1-1.6c-0.4,0.1-0.7,0.3-1,0
		C20.6,48.8,20.3,49.8,20.7,50.1z M21,52.3c1.7-1.6,3.2-4.1,5.4-4.6c0.1-1,0.7-3,0-3.6C24.7,46.8,21.7,49.1,21,52.3z M20.8,44.4
		c0,0.7-0.3,1.1-0.2,2c0.9-0.8,1.8-2.6,2.1-3.4C22.3,43.6,21.7,44.1,20.8,44.4z M49.7,42.4c0.7-0.2,1.4-0.5,1.5-1.3
		C50.6,40.8,50,41.9,49.7,42.4z M22.5,46c1.5-1.9,4.9-3,4.3-6.1C25.3,41.8,23.3,44.1,22.5,46z M48.4,41.1c0.9-1.1,4.1-1.9,2.8-3.6
		C50.3,38.6,48.7,40,48.4,41.1z M21,35.7c0,0.4,0,0.9,0,1.3c0.7-0.2,0.9-0.9,1.1-1.5C21.8,35.6,21.5,35.8,21,35.7z M46.6,39.8
		c1.7-1.6,5-2.9,4.8-5.4C49.6,36,47.9,37.7,46.6,39.8z M21.2,39.1c2.2-0.9,3.2-2.9,5.1-4.1c0.2,0.1,0.4,0.2,0.5,0.5
		c-1.3,2.8-4,4.2-5.4,6.9c2-1.4,4-2.8,5.7-4.4c-0.2-2.2,0.5-3.9-0.2-5.7C24.7,34.2,22.7,36.4,21.2,39.1z M46.8,36.5
		c1.9-0.6,2.6-3.2,4.9-2.8c-0.2-0.8,0.7-2-0.2-2.3C49.7,32.9,48.1,34.6,46.8,36.5z M46.3,31.1c0.7,0.1,0.5-0.9,0.2-1
		C46.5,30.6,46.3,30.7,46.3,31.1z M23.5,32.7c1.1-1.3,2.9-1.9,3.8-3.4C26.1,29.8,23.9,31.5,23.5,32.7z M47.2,33.1
		c1.6-0.7,2.4-2.2,3.8-3.1c0.4-0.2,0.9-0.3,0.8-1C50.2,29.6,48.7,31.7,47.2,33.1z M26.3,27.8c0.2,0,0.1-0.2-0.2-0.2
		c-1.8,1.4-3.3,3.1-5.1,4.6c0.2,0.8-0.4,1.3,0.2,1.6C22.3,31.3,24.6,29.9,26.3,27.8z M47.9,30.3c1.2-1.6,3.4-2.2,4.1-4.3
		C50.6,26.6,48,28.4,47.9,30.3z M25.6,26.7c0.8-0.3,0.8-0.3,1.6-0.2c0-0.8,0.1-0.7,0.2-1.3C26.5,25.4,26.2,26.2,25.6,26.7z
		 M53.3,22.4c-1,7.6,0,15.6-1.2,22.6C49.1,45.3,40,46,38.7,45.4c0.6-6.8,1-15.6,0.2-22.1c-3.5-0.2-6.2-0.4-9.8,0
		c-1,6.9-1,14.5-1.3,21.6c-0.3,7.3-0.8,14.5-0.3,21.8c3.3,0.1,7.7,0.9,10.5,0c-0.1-3.7-0.3-9.8,0.8-12.8c5.1,0.1,10.5,0.2,15.4,1.1
		c0.7,3.4,0,8.1,0.8,11.3c1.9,0.7,4.3-0.1,6.7,0.2c1.6-6.4,0.4-12.6,0.2-18.9c-0.3-7.6,0.2-16.2,0-24.3
		C58.5,23.5,56.2,22.7,53.3,22.4z M63.2,22.1c0,8.7-0.4,19.7,0.2,29.4c0.2,2.7,0.4,5.5,0.3,8.2c-0.1,2.8-0.1,6-0.7,7.9
		c-0.5,1.5-2.2,2.6-3.4,3.8c-1.9,1.8-2.8,3.3-6.2,3.6c-3.5,0.3-6.8,0.5-8.4-1.3c0.1-5.6,0.6-12.2,0.7-18.4c-1.9-0.3-3.8-0.4-5.7-0.3
		c-0.6,2.9-1.1,6.3-0.8,9.8c0.1,1.1,0.6,2.3,0.3,3.4c-0.3,1.3-3.2,3.7-4.6,4.6c-0.6,0.4-2.4,1.4-3.1,1.5c-1,0.1-3.1-0.4-4.1-0.5
		c-2.1-0.1-6,0.7-7.5-0.3c-2.2-1.5-0.8-9-0.8-12.5c0-7,0.3-16.1,0.5-24.1c0-1.8,0.2-5.9,0.8-7.2c0.9-2,4-3.3,5.7-5.1
		c0.7-0.7,1.3-2,2-2.3c2.1-0.9,5.2-0.4,7.7-0.3c1.4,0.1,2.9-0.2,4.4,0.2c0.5,8.4,0.4,14.4-0.3,21.8c1.2,0.1,3.2-0.4,4.8-0.5
		c0.7-2.9,0.5-5.9,0.3-9.7c-0.1-1.5-0.2-3.5,0.2-4.6c0.4-1,2-2.2,2.9-3.1c1.7-1.7,3.3-2.2,4.3-4.4C55.8,21,59.8,22.6,63.2,22.1"/>
	<path id="path79-9" class="st1" d="M90.2,68.4c-5.1,0.4-10.6,0.7-15.1-0.5c-1.3-3.6-0.7-7.9-0.7-11.9c0-11-0.5-22.6,0.5-32.4
		c7.7,0.2,16.5-0.4,24.6-0.2c0.2,2.1,0.2,4.5,0.2,6.9c-5.9,0.7-12.7-0.8-17.8,0.5c0.5,4,0.3,7,0.3,11.3c3.4,0.9,7.9,0,11.3,0.5
		c-0.2,2.2,0.7,4.1,0.3,5.9c-3.1,1-8.5-0.5-11.1,1c-0.2,3.3,0.2,7.5,0.7,10.8c2.2,1,5.7,0.7,9.3,0.5c2.9-0.2,6.8-1.5,8.2-0.2
		c1.3,1.2,0.6,4,0.8,6.7C98.5,68.6,94.4,68.1,90.2,68.4z M96.1,70.9c0.1-0.4,0.7-1.8,1.8-1.7C97.5,70,96.7,70.4,96.1,70.9z
		 M95.6,73.1c-0.1-0.6,0.9-1.7,1.8-1.8C97.3,72.4,96.2,72.6,95.6,73.1z M92.6,71.6c0.7-0.9,1.2-2,2.5-2.2
		C94.3,70.2,93.7,71.2,92.6,71.6z M92.4,73.6c0-1.1,1.2-1.1,1.5-1.8C94,72.3,93.4,73.7,92.4,73.6z M90.7,70.9
		c-0.1-0.4,0.6-1.4,1.3-1.5C92.1,70.4,91,70.3,90.7,70.9z M90,73.8c-0.3,0-0.6,0-0.8,0c0.4-0.5,0.8-1.1,1.5-1.3
		C90.6,73,90.2,73.2,90,73.8z M87,71.8c0.1-0.6,1.1-2.4,2.4-1.8C88.9,70.9,87.7,71.1,87,71.8z M87.9,73.8c-0.8-0.1-1,0.3-1.5,0
		c0.5-0.7,1.2-1.2,1.8-1.8C88.7,72.5,87.7,73,87.9,73.8z M82,71.6c1-0.2,0.8-1.5,2-1.3C83.6,70.8,82.3,72.1,82,71.6z M82,73.6
		c0.1-0.5,0.4-0.8,0.8-0.8C82.6,73.1,82.5,73.6,82,73.6z M79.1,72c-0.1-0.5,1-1.3,1.2-2c0.4,0,0.8,0,1.2,0
		C81.2,71.1,79.9,71.2,79.1,72z M78.8,73.8c0-0.7,0.9-0.6,1-1.2C80.3,73.1,79.4,74.4,78.8,73.8z M75.6,72.5c0.7-1.2,1.2-2.6,3-2.7
		C78.1,71.2,76.7,71.7,75.6,72.5z M76.3,73.6c0-0.4,0.2-0.7,0.7-0.7C77,73.5,76.8,73.7,76.3,73.6z M74.9,70.4
		c-0.2,0.4,0.3-1,0.8-0.8C75.5,69.9,75.4,70.3,74.9,70.4z M70.9,27.1c0.7-0.7,1.8-2.4,2.7-1.7C73.2,26.5,71.9,26.6,70.9,27.1z
		 M72.1,29.2C72,29,73,27.6,73.6,28.1C73.6,29,72.5,28.8,72.1,29.2z M70.7,73.5c0.5-1.6,1.9-2.5,2.9-3.7
		C73.1,70.9,72,72.7,70.7,73.5z M69.9,67.1c-1-1,0.7-1.4,1-2.4C71.2,65.5,70.1,66.3,69.9,67.1z M70.2,61.9c-0.1,0.4-0.1,0.9-0.7,0.8
		C69.6,62.3,69.7,61.8,70.2,61.9z M69,59.2c0-0.5,0.2-0.8,0.7-0.8C69.6,58.7,69.6,59.2,69,59.2z M70.4,53.1c0.1,0.6-1,1.5-1.2,2.3
		C68.2,54.5,70.1,53.8,70.4,53.1z M68.7,50.1c1.3-0.5,2-1.6,2.9-2.5c0.2,1.1-2,2.5-2.7,3.9C68.5,51.3,68.8,50.5,68.7,50.1z
		 M70.2,45.1c0.1,0.6-0.8,1.8-1.5,2.2C68.7,46,69.8,45.9,70.2,45.1z M71.2,40.5c-0.4,0.8-1.6,2.4-2.7,3.2
		C67.8,41.7,70.5,41.7,71.2,40.5z M70.9,31.3c0.2,0.6-1.9,2.3-2.7,3C68.6,32.8,70.1,32.4,70.9,31.3z M73.1,34
		c-0.1,2.2-2.4,2.2-3.4,3.5C70.2,36.3,71.8,34.9,73.1,34z M72.1,32.1c0.2-0.5,0.8-0.7,1-1.2C73.7,31.6,72.6,32,72.1,32.1z
		 M73.2,57.2c-0.9,0.7-1.8,1.3-2.5,2.2c0-1.2,1.6-2.2,2.2-3.4C73.4,56,73.2,56.7,73.2,57.2z M70.5,55.6c-0.1-1.3,1.5-2.3,2.2-3.4
		C73.9,54,71.3,54.8,70.5,55.6z M73.1,48.6c0,0.4,0,0.8,0,1.2c-1,0.6-2.1,1.2-2.9,2C70.5,50.7,71.7,49.1,73.1,48.6z M72.7,44.2
		c0.3,0.5,0.2,0.9,0.2,1.5c-0.8,0.4-1.6,0.7-2.2,1.3C70.6,46,72.1,45.1,72.7,44.2z M70.7,39.7c0-0.8,1.2-1.7,2.2-2
		C73,39.1,71.3,38.9,70.7,39.7z M72.9,41.2c-0.2,1.1-1.3,1.4-2.2,1.8C71.2,42.3,72,41,72.9,41.2z M73.2,64.4
		c-0.2,1.5-1.6,1.8-2.2,2.9C71.2,66.4,72,64.7,73.2,64.4z M73.2,61.2c-1,0.6-1.7,1.6-2.7,2.2c0.8-1.2,1.7-2.3,2.5-3.5
		C73.4,60,73.1,60.8,73.2,61.2z M70.9,28.2c-0.2,1-1.8,2.3-2.9,3C68.4,29.7,70,29.3,70.9,28.2z M92.9,33.8c0.3-0.6,1-2.2,2.5-2.2
		C95,32.7,93.8,33.2,92.9,33.8z M90.6,33.4c-0.1-0.6,1-1.6,1.7-2C92.9,32.1,91,32.8,90.6,33.4z M86.5,34.1c1.1-1,1.5-3.3,3.5-2.9
		C89.2,32.6,88,33.5,86.5,34.1z M87.7,35c-0.1-0.5,0.4-0.3,0.5-0.7C88.7,34.5,88,35.4,87.7,35z M83,32.3c0-0.3,0-0.6,0-0.8
		c0.3,0,0.7,0,1,0C83.8,31.8,83.7,32.4,83,32.3z M87.2,51.6c0.1-0.3,0.5-1.8,1.5-1.7C88.7,51,87.7,51,87.2,51.6z M83.8,51.1
		c-0.6-0.1-0.2-1.2,0.5-1C84.3,50.6,84,50.7,83.8,51.1z M101.8,59c-5.4-0.2-12.5,1-17.5,0.2c-0.3-2-0.8-4.1-0.2-5.2
		c1.5-0.3,3.8-0.2,5.2-0.2c1.7-1.8,4.2-2.7,5.6-4.9c-0.5-2.6,0-5.5-0.7-7.6c-3.1-0.3-8.2,0.4-11.1-0.2c0.1-1.6-0.2-3.7,0.2-5
		c2.3-0.2,4.9,0,7.6,0c4.1-0.1,4.7-0.5,7.1-2.5c1-0.8,2.2-1.5,2.5-2.3c0.8-2.2-0.3-5.9,0-8.9c-5.3-0.6-10.3,0-16.1,0
		c-3.5,0-7.3-0.4-9.8,0.2c-1.3,0.3-2.3,1.5-3.7,2.5c-1.4,1-3.2,1.5-3.7,2.7c-0.7,1.6,0.1,5.7,0.2,8.2c0.1,5.1-0.1,11.8,0.3,17.3
		c0.3,4.4,1,9.3,1,14.5c0,3.4-0.5,6,1.7,6.9c6.5-0.2,15.8,0.9,22.5,0.2c1.2-0.1,2.8-0.3,3.7-0.7c1.2-0.5,2.2-2.4,3-3.2
		c1.3-1.2,2.8-1.7,3.2-3.4C103.5,64.9,102.5,60.7,101.8,59"/>
	<path id="path83-2" class="st1" d="M132.9,73.8c0.5,0,1.1,0.1,1.4-0.2c-0.1-0.3,0.2-1-0.2-1C133.7,73,133,73,132.9,73.8z
		 M129.6,73.4c0.4,0,0.8,0,1.2,0c0.5-0.6,0.8-1.4,1.2-2.1C130.9,71.7,129.9,72.2,129.6,73.4z M117.8,72.4c1.5,0.5,2.1-1.9,1.6-2.2
		C118.8,71,117.9,71.3,117.8,72.4z M121.1,72.6c1.7,0.6,2.1-1.6,2.9-2.5C122.6,70.4,121.8,71.5,121.1,72.6z M125.4,73
		c2.6,1,2.8-1.9,3.9-3.1C127.6,70.5,126.3,71.6,125.4,73z M109.4,72c1.4,0.9,2.4-1.3,2.1-2.1C110.9,70.6,109.9,71.1,109.4,72z
		 M113.3,72.4c2.4,0.8,2.5-2.3,3.9-3.1c0-0.2,0.3-0.4-0.2-0.4C115.5,69.8,114.2,70.9,113.3,72.4z M135.5,73c2.5-0.8,4.2-2.4,5.6-4.3
		c-0.9,0-1.8,0-2.7,0C137.8,70.5,135.9,71,135.5,73z M132.9,72c1.4-1,3.1-1.7,3.9-3.3C134.8,69,133.6,70.3,132.9,72z M129.5,71.4
		c1.5-0.6,2.7-1.6,3.7-2.7C130.9,67.9,130.5,70.5,129.5,71.4z M123.8,72.2c2-0.9,3.8-1.9,4.9-3.7C126.3,67.7,125,70.7,123.8,72.2z
		 M120.7,70.9c1.6-0.6,2.9-1.5,3.9-2.7C122.5,67,122.2,70.1,120.7,70.9z M119.2,69.1c0.8-0.3,1.7-0.5,1.9-1.4
		C120,67,119.5,68.4,119.2,69.1z M115.3,67.3c-0.3,1.8-2.9,2.1-2.5,3.9c1.6-1.2,2.9-2.6,4.5-3.7C116.7,67.3,116,67.3,115.3,67.3z
		 M107.3,67.7c1.1-0.2,1.4-1.2,1.9-2C108.5,66.3,107.5,66.6,107.3,67.7z M109.1,67.9c1.2-1.7,3.6-2.1,4.3-4.3
		C111.5,64.5,109.8,66.6,109.1,67.9z M107.3,63.8c1.3-0.8,2.8-2.5,3.1-3.7C109.6,61.5,107.2,61.4,107.3,63.8z M108.1,65
		c2.2-0.8,3-3,5.2-3.7c0-0.7,0-1.3,0-2C111.2,60.8,109.2,62.5,108.1,65z M107.5,58.9c0.6,0.3,1.3-0.7,1.6-1.4
		C108.2,57.6,107.6,58.1,107.5,58.9z M108.3,60.5c2.2-0.7,2.7-3.2,5-3.7c0-0.4,0-0.9,0-1.4C111,56.4,109.3,58.1,108.3,60.5z
		 M108.9,55.8c1.4-1.6,5.5-2.5,4.5-5.3C111.6,52,109.3,53.7,108.9,55.8z M107.5,53.2c-0.1,0.7-0.3,1.3-0.2,2.1c2-1.6,3.5-3.7,5-5.7
		C110.2,50.3,109.7,52.6,107.5,53.2z M107.9,48.6c-0.2,0.5-0.2,1.2-0.2,2c1.2-0.8,2.5-2.4,2.7-3.5C109.6,47.6,109.1,48.4,107.9,48.6
		z M109.3,50.9c1.3-1.4,3-2.4,4.7-3.3c0-0.5,0-0.9,0-1.4C111.7,47,109.5,48.8,109.3,50.9z M109.4,46.2c2-0.5,2.5-2.5,4.7-2.9
		c-0.3-0.8,0.8-1.9-0.2-2.2C112.1,42.5,110.1,43.7,109.4,46.2z M108.3,45.6c1.7-1.8,3.4-3.6,4.9-5.7
		C111.2,41.5,107.7,42.8,108.3,45.6z M108.7,40.5c0.9-0.8,3.4-2.2,2.9-3.1C110.8,38.7,108.6,38.4,108.7,40.5z M113.9,37.2
		c-1.5,1.3-3.3,2.2-4.3,3.9c1.8-0.6,2.6-2.3,4.7-2.7C114.2,38,114.6,37,113.9,37.2z M109.8,37.2c1.1-0.8,6.1-3,4.1-4.5
		C112.4,34,110.6,35.1,109.8,37.2z M108.9,34.9c0,0.4,0,0.9,0,1.4c1.8-1.3,3.1-3.3,4.9-4.7c0-0.2-0.1-0.5-0.4-0.4
		C111.7,32.3,110.9,34.1,108.9,34.9z M111.2,31.5c1.2-0.7,2.8-1,3.1-2.7C112.8,29.3,112,30.4,111.2,31.5z M108.7,32.5
		c1.9-1.5,3.5-3.1,4.7-5.3C111.1,28.2,108.1,29.3,108.7,32.5z M114.5,24.5c-2.4,0.4-4.3,2.9-6,4.7c1.7-0.7,3.4-3,6-3.3
		C114.5,25.4,114.5,25,114.5,24.5z M116.5,24.4c-0.7,6.4-0.9,13.4-1.4,20.6c-0.5,7.1,0.2,14.3,0.6,20.7c9.4,0.8,20.3,2.6,29.4,1.2
		c0.2-2.4,0.2-4.6-0.2-6.9c-6.9-0.6-14.9,0-20.8-1.6c-0.7-10.6,1.5-23,1.4-34.1C121.9,23.9,119.9,23.5,116.5,24.4L116.5,24.4z
		 M127.3,23.1c-0.1,11.1-2,22.8-1.4,34.2c5.9,1,14.1,0.5,20,1c0.3,3.2,1.1,7.5,0,10.2c-0.5,1.2-2.6,2.2-3.7,3.1
		c-1.4,1.3-2.4,2.6-3.7,3.1c-5.8,1-12.3-0.7-18.8-1.2c-4.7-0.3-10,0.8-13-1.4c-1.6-14.9,2.1-29,0.6-43.2c2.3-2.1,4.4-5.6,8.4-6.3
		C119,22.2,123.2,22.7,127.3,23.1"/>
	<path id="path83-7" class="st1" d="M177.2,73.8c0.5,0,1.1,0.1,1.4-0.2c-0.1-0.3,0.2-1-0.2-1C178,73,177.2,73,177.2,73.8z
		 M173.9,73.4c0.4,0,0.8,0,1.2,0c0.5-0.6,0.8-1.4,1.2-2.1C175.2,71.7,174.2,72.2,173.9,73.4z M162.1,72.4c1.5,0.5,2.1-1.9,1.6-2.2
		C163.1,71,162.2,71.3,162.1,72.4z M165.4,72.6c1.7,0.6,2.1-1.6,2.9-2.5C166.8,70.4,166.1,71.5,165.4,72.6z M169.6,73
		c2.6,1,2.8-1.9,3.9-3.1C171.9,70.5,170.5,71.6,169.6,73z M153.7,72c1.4,0.9,2.4-1.3,2.1-2.1C155.2,70.6,154.2,71.1,153.7,72z
		 M157.6,72.4c2.4,0.8,2.5-2.3,3.9-3.1c0-0.2,0.3-0.4-0.2-0.4C159.8,69.8,158.5,70.9,157.6,72.4z M179.7,73c2.5-0.8,4.2-2.4,5.6-4.3
		c-0.9,0-1.8,0-2.7,0C182.1,70.5,180.2,71,179.7,73z M177.2,72c1.4-1,3.1-1.7,3.9-3.3C179,69,177.9,70.3,177.2,72z M173.7,71.4
		c1.5-0.6,2.7-1.6,3.7-2.7C175.2,67.9,174.8,70.5,173.7,71.4z M168.1,72.2c2-0.9,3.8-1.9,4.9-3.7C170.6,67.7,169.3,70.7,168.1,72.2z
		 M165,70.9c1.6-0.6,2.9-1.5,3.9-2.7C166.7,67,166.4,70.1,165,70.9z M163.4,69.1c0.8-0.3,1.7-0.5,1.9-1.4
		C164.3,67,163.7,68.4,163.4,69.1z M159.5,67.3c-0.3,1.8-2.9,2.1-2.5,3.9c1.6-1.2,2.9-2.6,4.5-3.7C161,67.3,160.3,67.3,159.5,67.3z
		 M151.6,67.7c1.1-0.2,1.4-1.2,1.9-2C152.7,66.3,151.8,66.6,151.6,67.7z M153.3,67.9c1.2-1.7,3.6-2.1,4.3-4.3
		C155.7,64.5,154.1,66.6,153.3,67.9z M151.6,63.8c1.3-0.8,2.8-2.5,3.1-3.7C153.8,61.5,151.5,61.4,151.6,63.8z M152.4,65
		c2.2-0.8,3-3,5.2-3.7c0-0.7,0-1.3,0-2C155.5,60.8,153.5,62.5,152.4,65z M151.8,58.9c0.6,0.3,1.3-0.7,1.6-1.4
		C152.5,57.6,151.9,58.1,151.8,58.9z M152.6,60.5c2.2-0.7,2.7-3.2,5-3.7c0-0.4,0-0.9,0-1.4C155.3,56.4,153.5,58.1,152.6,60.5z
		 M153.1,55.8c1.4-1.6,5.5-2.5,4.5-5.3C155.9,52,153.5,53.7,153.1,55.8z M151.8,53.2c-0.1,0.7-0.3,1.3-0.2,2.1c2-1.6,3.5-3.7,5-5.7
		C154.4,50.3,154,52.6,151.8,53.2L151.8,53.2z M152.2,48.6c-0.2,0.5-0.2,1.2-0.2,2c1.2-0.8,2.5-2.4,2.7-3.5
		C153.9,47.6,153.4,48.4,152.2,48.6z M153.5,50.9c1.3-1.4,3-2.4,4.7-3.3c0-0.5,0-0.9,0-1.4C156,47,153.8,48.8,153.5,50.9z
		 M153.7,46.2c2-0.5,2.5-2.5,4.7-2.9c-0.3-0.8,0.8-1.9-0.2-2.2C156.4,42.5,154.4,43.7,153.7,46.2L153.7,46.2z M152.6,45.6
		c1.7-1.8,3.4-3.6,4.9-5.7C155.5,41.5,152,42.8,152.6,45.6z M152.9,40.5c0.9-0.8,3.4-2.2,2.9-3.1C155.1,38.7,152.9,38.4,152.9,40.5z
		 M158.2,37.2c-1.5,1.3-3.3,2.2-4.3,3.9c1.8-0.6,2.6-2.3,4.7-2.7C158.5,38,158.9,37,158.2,37.2z M154.1,37.2c1.1-0.8,6.1-3,4.1-4.5
		C156.6,34,154.8,35.1,154.1,37.2z M153.1,34.9c0,0.4,0,0.9,0,1.4c1.8-1.3,3.1-3.3,4.9-4.7c0-0.2-0.1-0.5-0.4-0.4
		C156,32.3,155.1,34.1,153.1,34.9z M155.5,31.5c1.2-0.7,2.8-1,3.1-2.7C157.1,29.3,156.2,30.4,155.5,31.5z M152.9,32.5
		c1.9-1.5,3.5-3.1,4.7-5.3C155.3,28.2,152.3,29.3,152.9,32.5z M158.8,24.5c-2.4,0.4-4.3,2.9-6,4.7c1.7-0.7,3.4-3,6-3.3
		C158.8,25.4,158.8,25,158.8,24.5z M160.8,24.4c-0.7,6.4-0.9,13.4-1.4,20.6c-0.5,7.1,0.2,14.3,0.6,20.7c9.4,0.8,20.3,2.6,29.4,1.2
		c0.2-2.4,0.2-4.6-0.2-6.9c-6.9-0.6-14.9,0-20.8-1.6c-0.7-10.6,1.5-23,1.4-34.1C166.2,23.9,164.2,23.5,160.8,24.4L160.8,24.4z
		 M171.6,23.1c-0.1,11.1-2,22.8-1.4,34.2c5.9,1,14.1,0.5,20,1c0.3,3.2,1.1,7.5,0,10.2c-0.5,1.2-2.6,2.2-3.7,3.1
		c-1.4,1.3-2.4,2.6-3.7,3.1c-5.8,1-12.3-0.7-18.8-1.2c-4.7-0.3-10,0.8-13-1.4c-1.6-14.9,2.1-29,0.6-43.2c2.3-2.1,4.4-5.6,8.4-6.3
		C163.3,22.2,167.5,22.7,171.6,23.1"/>
	<path id="path92-0" class="st1" d="M234.3,41.9c-0.5,1.5-2,2.1-3.4,2.7C232,43.8,232.6,41.4,234.3,41.9z M235.8,44.6
		c-0.5,1.8-2.5,2.2-3.8,3.2C231.9,46.5,234.1,43.6,235.8,44.6z M232.2,51.2c0.5-2.3,2.5-3,4-4.2C238.1,49.2,234.1,50.6,232.2,51.2z
		 M237.2,52.3c-1.9,0.8-3.4,2.1-5.9,2.3c1.3-1.9,3.2-3.3,5.9-3.8C237.2,51.3,237.2,51.8,237.2,52.3z M236,56.9
		c-2.3,0.2-3.2,1.8-5.9,1.7c1.9-1.6,4-3.1,6.7-4C237,55.8,236.4,56.2,236,56.9z M230.5,60.9c0.6-1,2.1-1.1,3.4-1.5
		C233.5,60.7,231.7,60.5,230.5,60.9z M229.3,52c-0.4,4.5-2.2,9.6-6.9,9.7c-4,0.1-7.5-4.6-7.8-9.3c-0.3-5.6,2.5-13.7,6.5-14.1
		c1.3-0.2,4.5,2,5.5,3.4C227.9,43.6,229.6,48,229.3,52z M225.1,36.4c-0.1,0.9-1.5,1.4-2.3,0.8C222.8,36.3,224,36.4,225.1,36.4z
		 M228.4,37.3c-0.2,0.9-1,1.1-1.9,1.3C226.5,37.4,227.6,36.3,228.4,37.3z M230.3,38.1c0.2,0.1,0.4,0.2,0.4,0.4
		c-0.2,0.9-1,1.1-1.7,1.5C229.3,39.2,229.8,38.7,230.3,38.1z M232.4,39.8c-0.3,1.4-0.9,2.3-2.3,2.5C230.4,41,230.9,39.9,232.4,39.8z
		 M228.3,35.1c-0.8-0.2-3.8-0.3-4.5-0.2c-10.9,0.8-15.2,20.2-6.8,27c3.4,2.8,11.6,3.7,15.8,0.8c2.4-1.6,3.9-3.7,4.8-6.1
		C240.8,48.3,235,37,228.3,35.1L228.3,35.1z M245.9,52.5c-0.4,8.8-5.9,16.2-13.2,18.5c-5.1,1.1-12.6,0.5-16.9-1
		c-10.6-3.8-16.5-20.5-10.7-32.7c1.4-2.9,5.1-7.2,7.8-8.9c1.4-0.9,8.8-2.8,12-2.7c5,0.1,11.1,2.8,13.2,4.9
		C242.7,35.2,246.3,44.1,245.9,52.5L245.9,52.5z M218.3,73.4c0-0.5,0.8-0.5,1-0.2C219.4,73.7,218.6,73.7,218.3,73.4z M215.6,71.1
		c-0.7,0-0.9,0.5-1.7,0.4C213.6,70.3,215.5,70,215.6,71.1z M213.9,73c0.1-0.5,1.7-0.6,2.1-0.2C216,73.6,214.4,73,213.9,73z
		 M210.2,70.6c0.3-1,1.8-2.6,2.5-0.8C211.6,69.8,211.2,70.5,210.2,70.6z M211.8,72.3c-0.3,0.4-1.1,0.2-1.3-0.2
		c0-0.7,0.6-0.6,1.3-0.6C211.8,71.8,211.8,72,211.8,72.3z M207.2,69.4c0.3-0.9,2.1-3,2.7-1.1C209,68.6,208.4,69.3,207.2,69.4z
		 M204.3,68.3c-0.5-1.5,1.7-2.1,2.1-3.4c0.8,0.2,1.2,0.7,1.5,1.5C207,67.4,205.1,67.3,204.3,68.3L204.3,68.3z M202,68.1
		c0-0.5,0.3-0.8,0.8-0.8C202.9,67.9,202.6,68.2,202,68.1z M200.7,65.8c-0.4-0.2-0.7-0.5-0.6-1.3c0.8-0.1,0.9-0.8,1.7-0.8
		C201.4,64.4,201.1,65.1,200.7,65.8z M199,62.4c-1.6-0.8,1-1.5,1.3-2.3C200.6,60.8,199.3,61.6,199,62.4z M198,59.2
		c-1.2-1,0.7-1.9,1.3-2.5C199.5,57.4,198.1,58.2,198,59.2z M196.9,54.2c0.4-0.1,0.5-0.5,1-0.4c-0.2,0.5-0.5,1-0.8,1.5
		C196.7,55.2,197.1,54.5,196.9,54.2z M200.1,46.3c0.4,1.5-2.1,3.8-3.4,5.1C196.1,48.7,198.7,47.7,200.1,46.3z M199,50.6
		c0.5-0.8,2.2-3.3,2.7-1.9C201,49.5,200.2,50.2,199,50.6z M201.8,51.8c0.3,0.3,0.4,0.8,0.4,1.5c-1.5,0.5-2.6,2.4-4,2.3
		C198.8,53.8,200.3,52.8,201.8,51.8z M199.3,59c0.9-1.3,2.3-3.1,3.8-3.2C202.5,57.7,200.7,58.2,199.3,59z M204.7,61.5
		c0.6,0.4,0.8,1.2,1,1.9c-1,0.9-2.2,1.6-3.6,2.1C202.6,63.8,204.1,63.1,204.7,61.5z M204.1,60.1c-1.1,1-2.1,2.2-3.8,2.5
		c0.6-1.7,2.2-2.4,3.2-3.8C203.8,58.9,204.4,59.9,204.1,60.1z M202.4,43.4c0.2,0.7-0.3,0.8-0.2,1.5c-2.8-0.2-3.4,1.9-5.5,2.5
		C198.2,45.6,199.8,44,202.4,43.4z M199.3,34.9c0.8,0.5-1.1,1.8-1.3,2.7C197.4,36.6,199,35.9,199.3,34.9z M203,41.1
		c-1,0.5-2.3,0.5-2.9,1.3c-0.1-1,2-2.6,3.1-2.3C203.3,40.5,202.8,40.5,203,41.1z M204.9,35.8c-0.6,2.6-3.4,2.9-5.7,3.8
		C200.3,37.6,202.9,36.1,204.9,35.8z M206.4,32.8c0.9,0.3,0.1,1.1-0.2,1.5c-1.6-0.7-2.4,0.7-4,0.6C203.1,33.8,204.8,33.4,206.4,32.8
		z M210.6,29c-0.6,2-2.8,2.2-5,2.5C206.6,30.1,208.2,29.2,210.6,29z M215.2,26.3c-1.1,1.1-2.3,1.3-4.4,1.1
		C211.8,26.6,213.6,25.7,215.2,26.3z M233.5,25.6c-2.3-0.8-9.6-2.2-10.5-2.3c-1.7-0.3-5.4-0.1-7.8,0.2c-6,0.7-10.4,3.9-13.9,7.2
		c-1.9,1.8-4.5,4.9-5,6.6c-1.2,3.5-1.5,10.6-1.5,15.2c0,5.9,1,11.6,3.6,14.8c3.7,4.5,13.7,7.8,20.8,7.8c7.8,0,14.8-2.2,20.2-5.5
		c4.7-2.9,7.5-9.5,8-16.3C248.2,41.6,242,28.5,233.5,25.6"/>
	<path id="path51-5" class="st1" d="M269.1,68.5c-0.7,2.4-3.8,4.2-6.7,2.6c-2-1.1-3-4.3-1.3-6.9c1.3-2.2,4.6-3.1,7.1-0.8
		C269.4,64.4,269.8,66.2,269.1,68.5z M265.2,73.1c-0.5,0-1,0-1.2-0.2C264,72.6,265.5,72.5,265.2,73.1z M258.2,69.5
		c-0.1-1.3,0.3-2.2,0.6-3C259.6,66.9,259.1,69.4,258.2,69.5z M264,61c-2.2,0.4-5.1,2.2-6,3.6c-1.3,2-1.9,6-0.4,8.1
		c3.7,5.2,12.4,1,13-4.6C271.1,63.4,269.1,60.2,264,61L264,61z M260,57.2c-0.7-0.1-1.1-0.5-1.8-0.6c0.3-0.6,0.7-1.1,1.6-1
		C260.1,55.9,260,56.6,260,57.2L260,57.2z M257.4,50.1c-0.6,0-1.2,0-1.4-0.4c-0.1-0.8,0.8-0.5,1-1C257.9,48.8,257.4,49.5,257.4,50.1
		z M255.2,55.2c0.2-0.2,0.5-0.3,1-0.2C256.5,55.6,255.1,55.9,255.2,55.2L255.2,55.2z M254.6,52.3h0.8c0.1,0.7-0.1,1.2-0.8,1V52.3z
		 M254.2,48.1c0.6,0.1,0.7-0.2,1.2-0.2c0.1,0.4-0.3,1.6-1.2,1.6V48.1z M254,43.7c0.4-0.1,1.2,0.3,1-0.4c1,0.5-0.7,1.5-0.8,2.2
		C253.6,45.2,253.8,44.2,254,43.7z M253.6,30.3c-0.1-1.4,1.2-2.9,1.8-4.2C256.5,27.8,254.9,29.8,253.6,30.3z M254.2,24.7
		c0.7,0.7-0.3,1.6-0.6,2C253,26.1,253.9,25.1,254.2,24.7z M255.6,23.3c-0.3,0.4-0.3,1-1,1C254.7,23.7,254.8,23.2,255.6,23.3z
		 M255.8,33.4c-0.9-0.1-1.2,0.9-1.8,0.4c0.3-0.9,1-1.3,1.4-2C256,31.8,255.7,32.8,255.8,33.4z M256.2,37.6c-0.7-0.1-1.3,0-1.8,0.2
		c0-1.6,0.6-2.5,1.8-2.8V37.6z M255.6,41.6c-0.6-0.7,0.7-1.3,0.4-2.4C256.9,39.9,256.6,41.4,255.6,41.6L255.6,41.6z M256,45.9
		c-0.2-0.9,0.4-0.9,0.6-1.4C257.5,44.8,256.8,46,256,45.9z M257,21.3c0.6-0.8,6.5-2.4,8.5-1.2c1.6,1,1.3,3.9,1.6,6.5
		c0.1,1.2,1.1,9.9,0.8,13.8c-0.3,3.8,0.5,7.7-0.2,11.3c-1.8,1-5,2.4-7.6,1c-1.5-0.8-1.5-4.8-1.8-7.5c-0.7-5.7-0.9-9.9-1.4-16.1
		C256.6,26.9,256.2,22.4,257,21.3z M265.2,55c-0.8,0.2-0.8-1,0-0.8V55z M264,57.8c0.8-0.4,4.7-4.8,5-5.9c0.6-2.2-0.4-24.3-0.6-25.8
		c-0.7-5.5-0.5-8-5.4-7.5c-4.3,0.5-6.6,0.9-8.6,3.6c-0.9,1.2-2.1,2.2-2.4,3.2c-1.3,4,0,7.9,0.4,12.7c0.4,4.5,0.2,8.1,0.6,12.5
		c0.2,1.9,0.3,4.4,0.8,5.2C255.2,58.3,261.2,59.1,264,57.8"/>
</g>
</svg>
