<?xml version="1.0" encoding="utf-8"?>
<!-- Generator: Adobe Illustrator 28.1.0, SVG Export Plug-In . SVG Version: 6.00 Build 0)  -->
<svg version="1.1" id="_圖層_2" xmlns="http://www.w3.org/2000/svg" xmlns:xlink="http://www.w3.org/1999/xlink" x="0px" y="0px"
	 viewBox="0 0 126.1 146.3" style="enable-background:new 0 0 126.1 146.3;" xml:space="preserve">
<style type="text/css">
	.st0{fill:#FFFFFF;}
	.st1{fill-rule:evenodd;clip-rule:evenodd;fill:#F4ECDF;}
	.st2{fill-rule:evenodd;clip-rule:evenodd;fill:#543C1A;}
</style>
<g id="svg1">
	<g>
		<path class="st0" d="M77.4,145.8c-2.2,0-4.2-0.3-6.1-0.9c-3.1-1-5.5-3.6-6.4-6.7c-0.8-2.7-1.7-5.2-2.8-7.7c-1.5,1.2-3.1,2.6-4.7,4
			c-2.2,1.9-4.4,3.9-6.8,5.8c-1.8,1.3-3.9,2.1-6.1,2.1c-0.2,0-0.3,0-0.5,0c-0.7,0-1.5-0.1-2.4-0.1c-2.4,0-5,0.1-7.8,0.2
			c-3.2,0.1-6.5,0.3-9.9,0.3c-3.7,0-7-0.2-10-0.6c-2.6-0.3-4.9-1.6-6.5-3.6c-5.4-6.7-5.1-14.5-4.8-20.2c0.1-1.6,0.1-3.1,0.1-4.4
			c-0.2-6-0.5-12.1-0.9-18.6C0.9,75.2-0.2,54.5,1.1,36c0-0.5,0.1-1.2,0.1-1.8c0.2-3.8,0.4-8.6,1.7-12.5C5.7,13.4,12.9,9.8,18.2,7.1
			c1.7-0.8,4.2-2.1,4.9-2.8c1.9-2.2,4.7-3.5,7.6-3.5c0.3,0,0.6,0,0.9,0c2.5,0.2,5.3,0.3,8.6,0.3c4.1,0,8.5-0.2,12.8-0.3
			c4.4-0.2,8.9-0.3,13.3-0.3c12.1,0,25.8,1.1,35.9,9.7c7.3,6.2,13.2,16.5,15.6,27.6c2.8,12.7,1,24.7-5,34c-3,4.5-7,7.4-11.4,9.6
			c1.4,1.7,2.8,3.4,4.2,5.2c3.3,4.1,5.7,7.9,8.2,11.9c1.5,2.4,3.1,4.8,4.9,7.5c0,0,0,0.1,0.1,0.1c0.3,0.5,0.7,1,1.1,1.5
			c2.8,3.9,6.6,9.3,5.7,15.9c-0.8,6.8-5.9,10.3-8.7,12.2c-0.7,0.4-1.3,0.9-1.7,1.2c-0.2,0.2-0.7,0.7-1.1,1.2
			c-2.2,2.4-5.5,6-10.7,7.1c-1.7,0.4-3.4,0.5-5.4,0.5l0,0c-2.2,0-4.4-0.2-6.5-0.4c-1.8-0.2-3.5-0.3-4.9-0.3c-0.3,0-0.5,0-0.8,0
			c-0.8,0-1.7,0.2-2.7,0.3C81.3,145.5,79.5,145.8,77.4,145.8L77.4,145.8z"/>
		<g id="g1">
			<path class="st1" d="M110.4,111.6c-5-7.2-7.8-12.8-12.7-18.8C93.1,87.1,89,82,85.5,76.7c7.6-2.6,15-4.8,18.8-10.5
				c9.9-15.1,2.6-38.9-8.7-48.4c-14.4-12.1-42.5-5.1-65-7c-4.5,5.2-15.8,6.7-18.3,14c-1.1,3.2-1.1,8.3-1.3,11.8
				c-1.6,23.9,0.8,52.9,1.7,76.8c0.3,6.6-1.5,13.7,2.6,18.8c10,1.3,20.8-0.4,29.2,0c5.1-3.9,9.5-8.6,14.8-12.2c0-3.3-1.6-9,0.4-11.3
				c6.5,7.4,11.7,15.9,14.8,26.6c3.3,1.1,6.7-0.2,10.5-0.4c5.4-0.3,11.7,1.4,16.1,0.4c3-0.6,5.3-4.3,7.4-6.1c2.8-2.4,6.7-3.8,7-7
				C116,118.9,112.7,115,110.4,111.6L110.4,111.6z M68.1,60.2c-3.8,1.4-9,0.7-12.6-0.4c-1.4-4.7-2.4-9.9-2.2-16.1
				C62.9,40.4,72.6,50.5,68.1,60.2z"/>
			<path id="path88-4" class="st2" d="M76.8,53.6c1.8-2.5,3.3-5.4,7-6.1c0.1,1.6-0.1,2.8-0.4,3.9C80.5,50.2,79.5,53.4,76.8,53.6
				C76.8,53.6,76.8,53.6,76.8,53.6z M82,41.8c1,4.4-4.2,6.2-7.8,7.4C76,46,78.2,43.1,82,41.8z M79.8,38.8c-2.6,2.5-4.8,5.4-9.1,6.1
				C72.4,41.9,77.2,35.3,79.8,38.8z M75.1,34.8c-0.4,2.7-2.9,3.2-4.8,4.4C70.9,37,72.3,33.6,75.1,34.8L75.1,34.8z M63.3,38.8
				c-0.3-2.2,3-6.5,6.1-5.2C68.4,36.4,66.5,38.2,63.3,38.8z M68.1,60.2c-3.8,1.4-9,0.7-12.6-0.4c-1.4-4.7-2.4-9.9-2.2-16.1
				C62.9,40.4,72.6,50.5,68.1,60.2C68.1,60.2,68.1,60.2,68.1,60.2z M53.2,38.3c0.5,0.1,0.8-0.1,0.9-0.4c1,0.2,0.3,2.3,0,2.6
				C53.2,40.5,53.2,39.4,53.2,38.3z M53.7,32.7c1.1,0.2,1-0.8,2.2-0.4c0.1,1.5-1.5,1.4-1.7,2.6C53.2,34.9,53.9,33.3,53.7,32.7z
				 M62,32.2c0.7,1-0.9,2.6-2.6,2.6C59.1,32.9,60,32,62,32.2z M86.4,47.9c-0.1-15.1-19.9-21.4-34.5-17c-1.5,8.8-1.7,23.4,1.3,30.5
				C69.6,65.6,86.5,61.4,86.4,47.9z M92.1,119.5c-2.3-0.9-4.1-5-6.1-7.9c-2.1-3.1-4.7-5.4-6.1-7.8c-6.4-10.9-9-20.1-25.3-20.9
				c-1.4,11.3,3.4,22.4,1.3,34.5c-6.6,1.8-14.9,0.6-22.2,0.9c-2-34.8-2.2-69.3,0.4-105.1c15,2,31-0.9,46.8,1.6
				c9.6,1.5,19.5,9.1,23,18.5c7.9,21-2.5,40-24.5,40.2c1,4.7,31.2,40.2,32.4,46.6C104.8,119.8,97.1,121.4,92.1,119.5L92.1,119.5z
				 M95.1,130c2.5-2.9,5-9.3,10-7C102.6,126.1,100,129.1,95.1,130z M90.8,132.6h-2.6c0.5-1.4,1.7-2.1,3.5-2.2
				C91.7,131.5,90.9,131.8,90.8,132.6z M97.7,122.1c-2.4,3.7-6.1,6.1-10.9,7.4C89.9,126.5,91.3,121.8,97.7,122.1z M78.1,124.3
				c-0.2-3.4,5.4-4.8,7-7.9c1.4-0.4,1.4,0.7,1.7,1.3C84.4,120.4,80.9,122,78.1,124.3L78.1,124.3z M82.9,133h-2.6
				c0.5-1.8,2.1-2.5,3-3.9C85.3,129.3,83,131.9,82.9,133L82.9,133z M76.8,118.6c1.5-2.3,5.3-7.7,7.8-4.8
				C82.1,115.5,80.2,117.8,76.8,118.6z M73.7,115.6c1.5-3.2,3.6-5.7,7.4-6.5C80.1,112.6,76.5,113.7,73.7,115.6z M78.5,105.5
				c-2.2,2.5-4.3,5-7.8,6.1C70.8,109.3,75.5,103.5,78.5,105.5z M75.5,100.3c-0.7,2.9-4.8,5.9-8.7,7
				C68.7,104.2,72.4,100.7,75.5,100.3z M73.3,96.4c-2.7,2.7-6,7.1-10,7C65.1,100.1,70.2,94.1,73.3,96.4z M69.4,91.6
				c-0.9,2.8-4.7,6.4-8.3,7.8C62.4,95.6,65.7,91.6,69.4,91.6z M65.5,88.5c-0.9,2.2-3,3.1-5.2,3.9C60.6,90,62.6,87.1,65.5,88.5z
				 M58.5,90.3c-2.8-1-0.7-6.5,1.7-3.5C60.2,88.5,59.1,89.2,58.5,90.3z M46.7,122.5c0-1.1,0.6-1.7,1.7-1.7
				C48.7,122.3,47.7,122.4,46.7,122.5z M42.8,129.1c2-2.4,3.9-4.8,7.4-5.7C48.5,125.8,45.7,129.3,42.8,129.1z M31.4,127.3
				c0.9-2.6,4.4-8.2,9.6-6.5C38.4,123.6,34.2,124.7,31.4,127.3z M32.3,130c1.6-3.1,4.9-4.4,8.3-5.7C38.4,126.8,37.4,130.4,32.3,130z
				 M30.6,86.3c-4.9,2.1-8.1,5.9-11.8,9.2c1.4-5.3,7-10.2,11.8-13.5C31.7,83.2,30.4,84.7,30.6,86.3z M31,108.2
				c-5,1.3-7.1,5.4-11.8,7c2.3-5.4,7-8.4,10.5-12.7C31.6,102.9,30.8,106,31,108.2L31,108.2z M27.1,119.5c0,1.6-1.5,1.7-2.2,2.6
				C23.9,121.3,25.9,119.7,27.1,119.5z M21.8,130.8c1.6-2.5,4.5-3.7,6.5-5.7C28.5,127.6,25.4,130.6,21.8,130.8z M14.9,124.3
				c1.5-4.3,5.2-6.4,8.3-9.2c2,0.8-1.6,2.9-2.6,3.5C19.1,121,17.9,123.5,14.9,124.3L14.9,124.3z M24,104.2
				c-1.2,4.1-5.7,8.8-9.2,12.2C13.6,109.8,21,108.1,24,104.2z M30.6,96.8c-4.2,2.6-7.4,6.3-11.8,8.7c2.5-5.7,6.7-9.6,10.9-13.5
				C31.5,92.1,30.1,95.4,30.6,96.8L30.6,96.8z M24,93.7c-1.9,3.3-6,10.5-9.6,12.2C14.7,99,20.6,97.7,24,93.7z M14,82
				c4.4-2.3,6.7-6.7,11.3-8.7c-3.9,4.2-6.9,9.4-11.3,13.1V82z M24,63.2c0.8-0.1,0.9,0.4,0.4,0.4c-1.3,2.8-4.4,4.9-6.5,7.4
				c-1.2,1.5-1.7,4.9-4.4,3.9C16.1,70.1,19.9,66.5,24,63.2z M14,50.6c5.4-2.6,8.2-7.8,13.1-10.9c-2.5,5.1-8.8,10.1-13.1,14.8
				C12.9,53.3,14.2,52.2,14,50.6z M27.5,19.6c-3.6,5.3-8.3,9.5-12.7,14C13.7,25.2,21.4,22,27.5,19.6z M14.9,42.3
				c-0.3-4.2,5.5-6.1,7.8-9.2C21.6,35.9,17.7,39.8,14.9,42.3z M28.8,30.5h1.7v4.4c-4.9,2.5-8,6.8-13.1,9.2
				C19.7,38,25.5,35.4,28.8,30.5L28.8,30.5z M17.9,55.4c0.7-6,8.2-9,11.8-13.5c0.7-0.1,0.7,0.4,1.3,0.4C29.4,49.4,22,50.7,17.9,55.4
				z M14,66.7c-0.3-7.5,7.4-10.6,11.8-14.8C24.1,57.3,18,62.1,14,66.7z M21.4,62.8c1.4-3.4,5.2-8.2,9.2-10.5
				C31.1,59.4,24.1,59,21.4,62.8z M17.5,76.3c1.9-4.8,7.8-11.7,13.1-13.1C30.4,69.4,20.4,72.3,17.5,76.3z M24,83.7
				c-0.2,0.3-0.3,0.6-0.5,0.8c-2.1,3.3-6.1,8.9-9.1,10.5c0.4-4.5,6.4-6.7,9.1-10.5C23.7,84.3,23.9,84,24,83.7z M17.9,85.9
				c1.9-4.2,8.8-12.1,12.7-12.7v2.6C25.8,78.6,22.7,83.1,17.9,85.9C17.9,85.9,17.9,85.9,17.9,85.9z M31,21.8
				c-0.3,5.8-6.4,5.8-9.6,8.7C24.1,27.1,26.5,23.3,31,21.8z M110.4,111.6c-5-7.2-7.8-12.8-12.7-18.8C93.1,87.1,89,82,85.5,76.7
				c7.6-2.6,15-4.8,18.8-10.5c9.9-15.1,2.6-38.9-8.7-48.4c-14.4-12.1-42.5-5.1-65-7c-4.5,5.2-15.8,6.7-18.3,14
				c-1.1,3.2-1.1,8.3-1.3,11.8c-1.6,23.9,0.8,52.9,1.7,76.8c0.3,6.6-1.5,13.7,2.6,18.8c10,1.3,20.8-0.4,29.2,0
				c5.1-3.9,9.5-8.6,14.8-12.2c0-3.3-1.6-9,0.4-11.3c6.5,7.4,11.7,15.9,14.8,26.6c3.3,1.1,6.7-0.2,10.5-0.4
				c5.4-0.3,11.7,1.4,16.1,0.4c3-0.6,5.3-4.3,7.4-6.1c2.8-2.4,6.7-3.8,7-7C116,118.9,112.7,115,110.4,111.6"/>
		</g>
	</g>
</g>
</svg>
