<?xml version="1.0" encoding="UTF-8"?>
<svg id="_圖層_2" data-name="圖層 2" xmlns="http://www.w3.org/2000/svg" viewBox="0 0 126.1 146.26">
  <defs>
    <style>
      .cls-1 {
        stroke: #121212;
        stroke-miterlimit: 10;
      }

      .cls-1, .cls-2 {
        fill: #121212;
      }

      .cls-3 {
        fill: #fff;
        fill-rule: evenodd;
      }

      .cls-3, .cls-2 {
        stroke-width: 0px;
      }
    </style>
  </defs>
  <g id="svg1">
    <g>
      <path class="cls-1" d="M77.45,145.76c-2.17,0-4.16-.31-6.07-.95-3.12-1.04-5.53-3.55-6.44-6.7-.78-2.67-1.71-5.23-2.82-7.69-1.53,1.23-3.07,2.59-4.66,4-2.15,1.9-4.37,3.87-6.84,5.75-1.75,1.34-3.88,2.06-6.07,2.06-.16,0-.32,0-.47-.01-.72-.03-1.5-.05-2.38-.05-2.36,0-4.97.12-7.75.25-3.18.15-6.47.31-9.89.31-3.72,0-6.99-.19-10-.58-2.56-.33-4.89-1.64-6.5-3.65-5.36-6.67-5.07-14.47-4.85-20.17.06-1.6.12-3.12.06-4.44-.23-5.97-.54-12.11-.86-18.61C.87,75.22-.18,54.49,1.06,35.96c.03-.51.06-1.16.09-1.85.16-3.81.37-8.56,1.73-12.54,2.79-8.14,10.05-11.81,15.35-14.48,1.68-.85,4.21-2.13,4.85-2.82,1.91-2.2,4.66-3.45,7.55-3.45.28,0,.56.01.85.04,2.52.21,5.33.32,8.58.32,4.14,0,8.53-.17,12.78-.33,4.39-.17,8.92-.34,13.34-.34,12.06,0,25.76,1.15,35.9,9.67,7.32,6.16,13.17,16.47,15.63,27.59,2.81,12.69,1.04,24.74-5,33.95-2.99,4.48-7.02,7.43-11.37,9.62,1.36,1.71,2.76,3.45,4.18,5.22,3.33,4.08,5.72,7.88,8.25,11.9,1.5,2.38,3.05,4.84,4.88,7.48.02.03.04.07.07.1.33.49.69.99,1.05,1.5,2.78,3.93,6.58,9.3,5.7,15.92-.77,6.79-5.93,10.27-8.71,12.16-.65.44-1.32.89-1.71,1.22-.19.17-.71.74-1.09,1.16-2.19,2.41-5.48,6.03-10.72,7.13-1.65.37-3.43.54-5.44.54h0c-2.21,0-4.37-.21-6.46-.41-1.8-.17-3.5-.34-4.94-.34-.27,0-.54,0-.81.02-.78.04-1.69.18-2.66.33-1.61.25-3.43.52-5.48.52Z"/>
      <path class="cls-2" d="M77.46,134.76c-.77,0-1.46-.08-2.11-.24-2.9-9.72-7.76-18.38-14.85-26.45-.19-.22-.46-.34-.75-.34h0c-.29,0-.56.13-.75.34-1.71,1.96-1.29,5.55-.92,8.71.11.98.22,1.92.26,2.72-2.91,2.03-5.58,4.39-8.16,6.67-1.92,1.69-3.9,3.44-5.95,5.03-.79-.03-1.62-.05-2.53-.05-2.62,0-5.36.13-8.26.27-3.05.14-6.21.29-9.37.29s-5.75-.14-8.17-.44c-2.53-3.43-2.37-7.86-2.19-12.55.07-1.76.13-3.57.05-5.35-.22-5.95-.54-12.12-.87-18.66-1-19.74-2.03-40.14-.83-58.03.04-.66.07-1.37.1-2.11.13-3.1.3-6.96,1.15-9.43,1.34-3.92,5.7-6.12,9.9-8.24,3.02-1.53,5.88-2.97,7.86-5.05,2.7.21,5.66.31,9.01.31,4.35,0,8.85-.17,13.2-.34,4.28-.17,8.71-.33,12.91-.33,10.08,0,21.38.84,28.82,7.09,5.53,4.65,10.01,12.71,11.97,21.55,2.16,9.76.93,18.83-3.46,25.54-3.36,5.04-9.88,7.25-16.79,9.59l-1.5.51c-.29.1-.52.33-.62.62-.1.29-.06.62.11.87,3.61,5.46,7.81,10.67,12.26,16.18,2.94,3.6,5.16,7.12,7.5,10.85,1.56,2.48,3.18,5.05,5.15,7.89.37.54.77,1.11,1.17,1.68,1.93,2.73,4.12,5.83,3.76,8.2-.18,1.85-1.93,3.04-3.96,4.41-.91.61-1.85,1.25-2.71,1.99-.68.58-1.35,1.32-2.06,2.1-1.46,1.6-3.11,3.42-4.88,3.77-.9.2-1.91.3-3.14.3h0c-1.67,0-3.48-.18-5.39-.36-1.98-.19-4.03-.39-6.01-.39-.48,0-.95.01-1.42.04-1.29.07-2.52.25-3.71.44-1.34.21-2.61.4-3.82.4ZM57.12,42.09c-1.39,0-2.77.23-4.1.69-.39.13-.66.5-.67.91-.18,5.48.54,10.69,2.24,16.42.1.32.35.57.67.67,1.5.46,4.51,1.23,7.89,1.23,2.03,0,3.83-.28,5.35-.84.25-.09.45-.28.56-.52,1.88-4.06,1.59-8.55-.82-12.32-2.46-3.85-6.72-6.24-11.11-6.24Z"/>
      <g id="g1">
        <path id="path88-4" class="cls-3" d="M76.84,53.63c1.8-2.5,3.3-5.4,7-6.1.1,1.6-.1,2.8-.4,3.9-2.9-1.2-3.9,2-6.6,2.2h0ZM82.04,41.83c1,4.4-4.2,6.2-7.8,7.4,1.8-3.2,4-6.1,7.8-7.4ZM79.84,38.83c-2.6,2.5-4.8,5.4-9.1,6.1,1.7-3,6.5-9.6,9.1-6.1ZM75.14,34.83c-.4,2.7-2.9,3.2-4.8,4.4.6-2.2,2-5.6,4.8-4.4h0ZM63.34,38.83c-.3-2.2,3-6.5,6.1-5.2-1,2.8-2.9,4.6-6.1,5.2ZM68.14,60.23c-3.8,1.4-9,.7-12.6-.4-1.4-4.7-2.4-9.9-2.2-16.1,9.6-3.3,19.3,6.8,14.8,16.5h0ZM53.24,38.33c.5.1.8-.1.9-.4,1,.2.3,2.3,0,2.6-.9,0-.9-1.1-.9-2.2ZM53.74,32.73c1.1.2,1-.8,2.2-.4.1,1.5-1.5,1.4-1.7,2.6-1,0-.3-1.6-.5-2.2ZM62.04,32.23c.7,1-.9,2.6-2.6,2.6-.3-1.9.6-2.8,2.6-2.6ZM86.44,47.93c-.1-15.1-19.9-21.4-34.5-17-1.5,8.8-1.7,23.4,1.3,30.5,16.4,4.2,33.3,0,33.2-13.5ZM92.14,119.53c-2.3-.9-4.1-5-6.1-7.9-2.1-3.1-4.7-5.4-6.1-7.8-6.4-10.9-9-20.1-25.3-20.9-1.4,11.3,3.4,22.4,1.3,34.5-6.6,1.8-14.9.6-22.2.9-2-34.8-2.2-69.3.4-105.1,15,2,31-.9,46.8,1.6,9.6,1.5,19.5,9.1,23,18.5,7.9,21-2.5,40-24.5,40.2,1,4.7,31.2,40.2,32.4,46.6-7-.3-14.7,1.3-19.7-.6h0ZM95.14,130.03c2.5-2.9,5-9.3,10-7-2.5,3.1-5.1,6.1-10,7ZM90.84,132.63h-2.6c.5-1.4,1.7-2.1,3.5-2.2,0,1.1-.8,1.4-.9,2.2ZM97.74,122.13c-2.4,3.7-6.1,6.1-10.9,7.4,3.1-3,4.5-7.7,10.9-7.4ZM78.14,124.33c-.2-3.4,5.4-4.8,7-7.9,1.4-.4,1.4.7,1.7,1.3-2.4,2.7-5.9,4.3-8.7,6.6h0ZM82.94,133.03h-2.6c.5-1.8,2.1-2.5,3-3.9,2,.2-.3,2.8-.4,3.9h0ZM76.84,118.63c1.5-2.3,5.3-7.7,7.8-4.8-2.5,1.7-4.4,4-7.8,4.8ZM73.74,115.63c1.5-3.2,3.6-5.7,7.4-6.5-1,3.5-4.6,4.6-7.4,6.5ZM78.54,105.53c-2.2,2.5-4.3,5-7.8,6.1.1-2.3,4.8-8.1,7.8-6.1ZM75.54,100.33c-.7,2.9-4.8,5.9-8.7,7,1.9-3.1,5.6-6.6,8.7-7ZM73.34,96.43c-2.7,2.7-6,7.1-10,7,1.8-3.3,6.9-9.3,10-7ZM69.44,91.63c-.9,2.8-4.7,6.4-8.3,7.8,1.3-3.8,4.6-7.8,8.3-7.8ZM65.54,88.53c-.9,2.2-3,3.1-5.2,3.9.3-2.4,2.3-5.3,5.2-3.9ZM58.54,90.33c-2.8-1-.7-6.5,1.7-3.5,0,1.7-1.1,2.4-1.7,3.5ZM46.74,122.53c0-1.1.6-1.7,1.7-1.7.3,1.5-.7,1.6-1.7,1.7ZM42.84,129.13c2-2.4,3.9-4.8,7.4-5.7-1.7,2.4-4.5,5.9-7.4,5.7ZM31.44,127.33c.9-2.6,4.4-8.2,9.6-6.5-2.6,2.8-6.8,3.9-9.6,6.5ZM32.34,130.03c1.6-3.1,4.9-4.4,8.3-5.7-2.2,2.5-3.2,6.1-8.3,5.7ZM30.64,86.33c-4.9,2.1-8.1,5.9-11.8,9.2,1.4-5.3,7-10.2,11.8-13.5,1.1,1.2-.2,2.7,0,4.3ZM31.04,108.23c-5,1.3-7.1,5.4-11.8,7,2.3-5.4,7-8.4,10.5-12.7,1.9.4,1.1,3.5,1.3,5.7h0ZM27.14,119.53c0,1.6-1.5,1.7-2.2,2.6-1-.8,1-2.4,2.2-2.6ZM21.84,130.83c1.6-2.5,4.5-3.7,6.5-5.7.2,2.5-2.9,5.5-6.5,5.7ZM14.94,124.33c1.5-4.3,5.2-6.4,8.3-9.2,2,.8-1.6,2.9-2.6,3.5-1.5,2.4-2.7,4.9-5.7,5.7h0ZM24.04,104.23c-1.2,4.1-5.7,8.8-9.2,12.2-1.2-6.6,6.2-8.3,9.2-12.2ZM30.64,96.83c-4.2,2.6-7.4,6.3-11.8,8.7,2.5-5.7,6.7-9.6,10.9-13.5,1.8.1.4,3.4.9,4.8h0ZM24.04,93.73c-1.9,3.3-6,10.5-9.6,12.2.3-6.9,6.2-8.2,9.6-12.2ZM14.04,82.03c4.4-2.3,6.7-6.7,11.3-8.7-3.9,4.2-6.9,9.4-11.3,13.1v-4.4ZM24.04,63.23c.8-.1.9.4.4.4-1.3,2.8-4.4,4.9-6.5,7.4-1.2,1.5-1.7,4.9-4.4,3.9,2.6-4.8,6.4-8.4,10.5-11.7ZM14.04,50.63c5.4-2.6,8.2-7.8,13.1-10.9-2.5,5.1-8.8,10.1-13.1,14.8-1.1-1.2.2-2.3,0-3.9ZM27.54,19.63c-3.6,5.3-8.3,9.5-12.7,14-1.1-8.4,6.6-11.6,12.7-14ZM14.94,42.33c-.3-4.2,5.5-6.1,7.8-9.2-1.1,2.8-5,6.7-7.8,9.2ZM28.84,30.53h1.7v4.4c-4.9,2.5-8,6.8-13.1,9.2,2.3-6.1,8.1-8.7,11.4-13.6h0ZM17.94,55.43c.7-6,8.2-9,11.8-13.5.7-.1.7.4,1.3.4-1.6,7.1-9,8.4-13.1,13.1ZM14.04,66.73c-.3-7.5,7.4-10.6,11.8-14.8-1.7,5.4-7.8,10.2-11.8,14.8ZM21.44,62.83c1.4-3.4,5.2-8.2,9.2-10.5.5,7.1-6.5,6.7-9.2,10.5ZM17.54,76.33c1.9-4.8,7.8-11.7,13.1-13.1-.2,6.2-10.2,9.1-13.1,13.1ZM24.04,83.73c-.2.3-.3.6-.5.8-2.1,3.3-6.1,8.9-9.1,10.5.4-4.5,6.4-6.7,9.1-10.5.2-.2.4-.5.5-.8ZM17.94,85.93c1.9-4.2,8.8-12.1,12.7-12.7v2.6c-4.8,2.8-7.9,7.3-12.7,10.1h0ZM31.04,21.83c-.3,5.8-6.4,5.8-9.6,8.7,2.7-3.4,5.1-7.2,9.6-8.7ZM110.44,111.63c-5-7.2-7.8-12.8-12.7-18.8-4.6-5.7-8.7-10.8-12.2-16.1,7.6-2.6,15-4.8,18.8-10.5,9.9-15.1,2.6-38.9-8.7-48.4-14.4-12.1-42.5-5.1-65-7-4.5,5.2-15.8,6.7-18.3,14-1.1,3.2-1.1,8.3-1.3,11.8-1.6,23.9.8,52.9,1.7,76.8.3,6.6-1.5,13.7,2.6,18.8,10,1.3,20.8-.4,29.2,0,5.1-3.9,9.5-8.6,14.8-12.2,0-3.3-1.6-9,.4-11.3,6.5,7.4,11.7,15.9,14.8,26.6,3.3,1.1,6.7-.2,10.5-.4,5.4-.3,11.7,1.4,16.1.4,3-.6,5.3-4.3,7.4-6.1,2.8-2.4,6.7-3.8,7-7,.5-3.3-2.8-7.2-5.1-10.6"/>
      </g>
    </g>
  </g>
</svg>