<?xml version="1.0" encoding="UTF-8"?>
<svg id="_圖層_2" data-name="圖層 2" xmlns="http://www.w3.org/2000/svg" viewBox="0 0 176.2 233.17">
  <defs>
    <style>
      .cls-1, .cls-2, .cls-3 {
        stroke: #543c1a;
        stroke-width: 2px;
      }

      .cls-1, .cls-2, .cls-4 {
        fill: #543c1a;
      }

      .cls-1, .cls-3 {
        stroke-linecap: round;
        stroke-linejoin: round;
      }

      .cls-2 {
        stroke-miterlimit: 10;
      }

      .cls-3 {
        fill: none;
      }

      .cls-4, .cls-5, .cls-6 {
        stroke-width: 0px;
      }

      .cls-5 {
        fill: #dfa9ca;
      }

      .cls-6 {
        fill: #fff;
      }
    </style>
  </defs>
  <g id="_圖層_3" data-name="圖層 3">
    <path class="cls-6" d="M175.14,155.43c-1.87-19.36-5.53-47.6-15.69-72.89.91-13.8,1.53-26.97,2.28-42.91.09-2.01.19-4.06.29-6.17,1.32-1.05,2.5-2.34,3.48-3.86,2.06-3.19,3.14-7.21,3.03-11.31-.27-9.79-7.08-17.45-15.51-17.45-.13,0-.25,0-.38,0-4.77.13-9.1,2.67-11.88,6.98-2.06,3.19-3.14,7.21-3.03,11.31.13,4.7,1.78,8.89,4.37,12-.12,2.59-.24,5.11-.36,7.55-.23,4.85-.44,9.41-.65,13.78-1.36-1.58-2.77-3.17-4.26-4.76-.71-.76-1.46-1.49-2.22-2.22-.2-.19-.39-.37-.59-.56-.7-.64-1.41-1.26-2.15-1.87-.35-.29-.71-.57-1.08-.86-.39-.3-.78-.6-1.18-.9-10.57-7.95-24.74-13.22-40.42-15.04-.64-.08-1.28-.14-1.93-.21-.72-.07-1.44-.14-2.17-.19-1.04-.08-2.08-.15-3.13-.2-.23-.01-.47-.03-.7-.04-1.37-.06-2.75-.08-4.13-.09-.08,0-.16,0-.23,0-.13,0-.27,0-.4,0-.67,0-1.34.01-2.02.03-.32,0-.63.02-.95.03-.54.02-1.08.04-1.62.06-.49.02-.98.05-1.46.08-.31.02-.63.04-.94.06-.72.05-1.44.11-2.15.17-.05,0-.11.01-.16.02-7.31.67-14.23,2.09-20.63,4.19-.05.01-.09.03-.13.05-.81.27-1.61.54-2.4.83-.54.2-1.08.39-1.61.6-.16.06-.32.13-.48.19-.62.25-1.24.5-1.85.75-.1.04-.19.08-.29.13-.7.3-1.4.61-2.09.93,0,0,0,0-.01,0-6.06,2.82-11.45,6.31-16.04,10.4.18-1.65.35-3.25.52-4.77.15-1.31.31-2.63.47-3.94,3.18-1.36,5.86-3.87,7.6-7.26,1.79-3.49,2.48-7.73,1.92-11.93C30.93,6.8,24.13,0,16,0c-.62,0-1.25.04-1.86.12C5.38,1.29-.42,10.17.93,20.34c.38,2.81,1.26,5.39,2.52,7.62-.41,3.04-.79,6.09-1.13,9.13C1.31,46.17.04,57.48,0,71.28c-.04,13.8,1.16,27.41,3.57,40.45,3.06,16.55,5.08,27.49,14.56,35.59,2.27,1.94,4.8,3.58,7.54,4.91-.17,2.46-.36,5.14-.58,8.14l-.25,3.49-.15,2.18c-.81,11.54-6.31,55.44-6.37,55.89-.04.35-.07.7-.08,1.05,0,.06,0,.11,0,.17,0,.29,0,.59.03.88,0,.07.02.13.02.2.03.28.07.56.12.83.02.08.04.16.05.24.06.25.12.51.19.75.03.1.06.19.1.29.07.22.15.45.24.66.05.11.1.22.15.33.09.2.18.39.28.58.06.12.13.23.2.35.1.17.21.35.32.51.08.12.16.23.24.34.12.16.25.32.38.48.06.07.1.14.16.21.03.04.07.07.1.11.15.16.3.31.45.46.09.09.17.17.27.26.18.16.38.32.57.47.07.05.14.11.21.17.82.6,1.74,1.08,2.73,1.41.09.03.18.05.27.08.23.07.47.14.71.19.15.03.3.05.45.08.16.03.32.06.48.09.03,0,.05,0,.08,0,.38.04.76.07,1.15.07.01,0,.02,0,.03,0,0,0,.01,0,.02,0h134.77s.02,0,.04,0c.48,0,.96-.04,1.43-.11.18-.03.35-.08.53-.11.28-.06.56-.1.84-.18.23-.07.45-.16.67-.25.22-.08.44-.15.65-.24.2-.09.39-.21.58-.31.22-.12.45-.23.66-.36.15-.1.29-.21.44-.32.24-.17.48-.33.7-.52.12-.1.22-.22.33-.32.23-.22.47-.43.68-.67.12-.14.22-.3.34-.44.18-.23.37-.45.53-.7.26-.4.5-.83.71-1.28,1.02-2.21,3.73-8.08,3.99-36.52.14-14.66-.43-29.19-1.04-35.41Z"/>
    <g>
      <g>
        <path class="cls-3" d="M46.52,146.37c-5.29.16-14.61-.43-21.89-6.65-6.65-5.69-8.27-13.8-11.23-29.81-1.59-8.61-3.45-21.82-3.4-38.6.04-13.27,1.26-24.18,2.26-33.12.92-8.18,1.94-15.01,2.74-19.93"/>
        <path class="cls-2" d="M17.65,26.47c-3.15.42-6.2-2.92-6.81-7.46-.61-4.54,1.46-8.56,4.61-8.98,3.15-.42,6.2,2.92,6.81,7.46.61,4.54-1.46,8.56-4.61,8.98Z"/>
      </g>
      <path class="cls-6" d="M17.24,82.71c2.14,3.34,7.83,6.13,11.2,7.76.25.12.51.24.78.36.97.43,2.07.84,3.3,1.24.4.13.8.25,1.22.38.42.13.85.25,1.29.37.88.24,1.81.48,2.78.71h-.05c22.57,5.41,68.28,7.13,90.08-3.05,0,0-1.47,43.73-90.93,23,0,23.21-.51,29.01-2.08,51.07-.05.73-.1,1.46-.15,2.19-.84,11.95-6.42,56.43-6.42,56.43h134.85c4.27-9.26,3.23-54.94,2.08-66.78-2.35-24.39-6.55-50.56-16.27-73.2-4.71-10.98-11.37-20.08-19.38-28.64-25.59-27.34-93.28-26.1-111.05,9.69-2.36,4.75-2.27,16.88-1.25,18.47Z"/>
      <g>
        <path class="cls-3" d="M36.91,113.48c89.46,20.73,90.93-23,90.93-23-21.8,10.18-67.51,8.46-90.08,3.05-.95-.23-1.86-.46-2.73-.71-.44-.12-.87-.24-1.29-.37-.42-.12-.83-.25-1.22-.38-1.23-.4-2.33-.81-3.3-1.24-.27-.12-.53-.24-.78-.36-3.37-1.63-9.06-4.42-11.2-7.76-1.02-1.59-1.11-13.72,1.25-18.47,17.77-35.79,85.46-37.03,111.05-9.69,8.01,8.56,14.67,17.66,19.38,28.64,9.72,22.64,13.92,48.81,16.27,73.2,1.15,11.84,2.19,57.52-2.08,66.78"/>
        <path class="cls-3" d="M28.26,223.17s5.58-44.48,6.42-56.43c.05-.75.1-1.47.15-2.19,1.57-22.06,2.08-27.86,2.08-51.07"/>
      </g>
      <g>
        <path class="cls-3" d="M143.66,144.71c6.29-55.75,6.58-75.43,9.07-125.99"/>
        <path class="cls-1" d="M147.73,18.86c-.12-4.35,2.2-7.94,5.19-8.02,2.98-.08,5.5,3.38,5.62,7.73.12,4.35-2.2,7.94-5.19,8.02-2.98.08-5.5-3.38-5.62-7.73Z"/>
      </g>
      <g>
        <g>
          <g>
            <path class="cls-5" d="M105.53,82.06c1.71,2.19,3.65,4.19,5.62,6.16.37.37,1.05.4,1.41,0s.4-1.02,0-1.41c-1.97-1.97-3.9-3.97-5.62-6.16-.32-.41-1.08-.36-1.41,0-.4.44-.35.97,0,1.41h0Z"/>
            <path class="cls-5" d="M99.92,82.06c1.71,2.19,3.65,4.19,5.62,6.16.37.37,1.05.4,1.41,0s.4-1.02,0-1.41c-1.97-1.97-3.9-3.97-5.62-6.16-.32-.41-1.08-.36-1.41,0-.4.44-.35.97,0,1.41h0Z"/>
            <path class="cls-5" d="M94.3,82.06c1.71,2.19,3.65,4.19,5.62,6.16.37.37,1.05.4,1.41,0s.4-1.02,0-1.41c-1.97-1.97-3.9-3.97-5.62-6.16-.32-.41-1.08-.36-1.41,0-.4.44-.35.97,0,1.41h0Z"/>
          </g>
          <g>
            <path class="cls-5" d="M38.78,78.1c1.71,2.19,3.65,4.19,5.62,6.16.37.37,1.05.4,1.41,0s.4-1.02,0-1.41c-1.97-1.97-3.9-3.97-5.62-6.16-.32-.41-1.08-.36-1.41,0-.4.44-.35.97,0,1.41h0Z"/>
            <path class="cls-5" d="M33.17,78.1c1.71,2.19,3.65,4.19,5.62,6.16.37.37,1.05.4,1.41,0s.4-1.02,0-1.41c-1.97-1.97-3.9-3.97-5.62-6.16-.32-.41-1.08-.36-1.41,0-.4.44-.35.97,0,1.41h0Z"/>
            <path class="cls-5" d="M27.55,78.1c1.71,2.19,3.65,4.19,5.62,6.16.37.37,1.05.4,1.41,0s.4-1.02,0-1.41c-1.97-1.97-3.9-3.97-5.62-6.16-.32-.41-1.08-.36-1.41,0-.4.44-.35.97,0,1.41h0Z"/>
          </g>
        </g>
        <g>
          <g>
            <circle class="cls-4" cx="95.59" cy="71.32" r="6.71"/>
            <path class="cls-6" d="M92.12,68.19c0,1.27,1.03,2.3,2.3,2.3s2.3-1.03,2.3-2.3-1.03-2.3-2.3-2.3-2.3,1.03-2.3,2.3Z"/>
            <path class="cls-6" d="M95.01,73.91c0,1.1.89,2,2,2s2-.89,2-2-.89-2-2-2-2,.89-2,2Z"/>
          </g>
          <g>
            <path class="cls-4" d="M31.2,70.48c0,3.71,3,6.71,6.71,6.71s6.71-3,6.71-6.71-3-6.71-6.71-6.71-6.71,3-6.71,6.71Z"/>
            <path class="cls-6" d="M34.44,67.35c0,1.27,1.03,2.3,2.3,2.3s2.3-1.03,2.3-2.3-1.03-2.3-2.3-2.3-2.3,1.03-2.3,2.3Z"/>
            <path class="cls-6" d="M37.33,73.08c0,1.1.89,2,2,2s2-.89,2-2-.89-2-2-2-2,.89-2,2Z"/>
          </g>
        </g>
      </g>
    </g>
  </g>
</svg>