<?xml version="1.0" encoding="UTF-8" standalone="no"?>
<!-- Created with Inkscape (http://www.inkscape.org/) -->

<svg
   version="1.1"
   id="svg1"
   width="1008.9476"
   height="1288.0728"
   viewBox="0 0 1008.9476 1288.0727"
   sodipodi:docname="menu-btn.svg"
   inkscape:version="1.3 (0e150ed, 2023-07-21)"
   xmlns:inkscape="http://www.inkscape.org/namespaces/inkscape"
   xmlns:sodipodi="http://sodipodi.sourceforge.net/DTD/sodipodi-0.dtd"
   xmlns="http://www.w3.org/2000/svg"
   xmlns:svg="http://www.w3.org/2000/svg">
  <defs
     id="defs1" />
  <sodipodi:namedview
     id="namedview1"
     pagecolor="#ffffff"
     bordercolor="#999999"
     borderopacity="1"
     inkscape:showpageshadow="2"
     inkscape:pageopacity="0"
     inkscape:pagecheckerboard="0"
     inkscape:deskcolor="#d1d1d1"
     inkscape:zoom="0.18321946"
     inkscape:cx="504.85902"
     inkscape:cy="641.30741"
     inkscape:window-width="1512"
     inkscape:window-height="916"
     inkscape:window-x="0"
     inkscape:window-y="136"
     inkscape:window-maximized="1"
     inkscape:current-layer="layer7" />
  <g
     inkscape:groupmode="layer"
     id="layer7"
     inkscape:label="Layer 1"
     style="display:inline"
     transform="translate(-519.57539,-964.30324)">
    <g
       id="g1"
       transform="rotate(-18.968918,1024.0492,1608.3396)"
       inkscape:export-filename="menu-btn.svg"
       inkscape:export-xdpi="96"
       inkscape:export-ydpi="96">
      <g
         id="g279"
         transform="rotate(90,1589.519,1427.4334)"
         style="display:inline;fill:#ecd9b8;fill-opacity:1"
         inkscape:export-filename="../../Desktop/portfolio-next-v2/public/images/menu.svg"
         inkscape:export-xdpi="96"
         inkscape:export-ydpi="96">
        <path
           id="path9"
           d="m 1880.3355,1369.0179 c -61.5945,0.9241 -99.5005,48.4041 -118.3641,101.537 -10.462,29.4631 -11.4819,61.912 -8.6966,94.0228 -32.583,-22.2111 -76.5523,-27.6836 -111.5551,-5.5169 -47.1237,29.8474 -69.3907,93.2175 -38.8648,143.5031 4.5224,7.4461 9.2497,14.7932 14.1423,22.0442 -19.8646,-7.2222 -40.4557,-11.9916 -61.3186,-12.1596 -71.8408,-0.5781 -133.129,60.7136 -130.0682,133.1473 1.553,36.8203 17.3508,66.2938 36.1833,95.3773 -11.2798,1.9811 -22.2815,5.381 -32.7468,11.3935 -35.283,20.2692 -57.1889,58.8385 -58.2271,99.2453 -0.8596,33.3641 11.5903,64.2914 33.7694,89.0541 5.2299,5.8402 11.1361,10.9483 17.282,15.7934 -4.1848,2.0839 -8.3403,4.3232 -12.446,6.8099 -62.4065,37.8349 -94.886,112.164 -88.5505,183.9203 2.9319,33.1906 10.3781,66.5028 23.4174,97.261 6.5797,19.0831 14.8405,37.5001 24.6281,54.7351 21.8342,38.4644 51.9361,76.318 96.5843,88.287 0.3588,0.096 0.7239,0.1577 1.0857,0.2502 5.6661,4.2768 11.5933,8.2783 17.8096,11.9533 34.5958,20.4465 73.7382,27.912 113.2856,22.9223 40.4228,-5.1003 73.8679,-22.6285 105.1263,-48.2041 12.326,-10.0848 22.9024,-21.5763 32.0579,-34.0658 22.4867,22.8832 54.9742,34.9877 88.4952,30.7575 29.9007,-3.7725 59.5355,-22.1989 76.8334,-48.1308 3.5045,0.2905 6.983,0.3976 10.3996,0.2605 0.7589,-0.03 1.5029,-0.1097 2.2559,-0.1622 12.0506,4.4539 24.6233,6.8828 35.4668,6.4855 28.9923,-1.0644 52.4403,-11.3016 74.5685,-30.187 29.0032,-24.7501 41.5928,-72.8636 30.7881,-109.475 -2.5536,-8.6549 -5.8434,-17.057 -9.5889,-25.2647 0.9673,-0.5557 1.9135,-1.1485 2.8627,-1.7318 1.9106,0.7161 3.8796,1.3749 5.9192,1.9671 34.5369,9.9879 70.6724,-12.846 80.2363,-46.5544 11.4171,-40.235 -12.3641,-73.0054 -45.3728,-90.3969 -0.635,-1.3516 -1.2364,-2.7185 -1.9326,-4.0433 25.4177,6.225 51.1616,4.4763 76.2366,-9.9281 30.4162,-17.4719 54.9936,-54.0973 52.787,-90.3377 -2.5751,-42.3158 -13.8279,-83.4371 -32.9673,-120.1949 2.7418,-1.4767 5.4452,-3.0973 8.0863,-4.9376 25.9024,-18.0416 43.7796,-36.8272 56.3132,-65.8744 5.5977,-12.9708 9.055,-26.5009 10.3873,-40.2371 0.73,-6.2826 0.8647,-12.4208 0.49,-18.4778 -0.4368,-10.085 -2.0007,-20.1948 -4.7597,-30.198 -0.2996,0.1234 -0.5991,0.245 -0.8957,0.3674 -2.5465,-8.3959 -5.7781,-16.8522 -9.4981,-25.5624 -9.2494,-21.6425 -40.2412,-43.5665 -62.4281,-48.8087 -13.8212,-3.2648 -27.3563,-4.2206 -40.7235,-2.5796 11.3958,-14.493 19.4736,-31.252 26.8625,-50.2531 5.5783,-14.3387 11.029,-28.7243 16.5434,-43.088 9.2613,-24.1229 2.4743,-59.4589 -9.944,-81.0781 -12.5834,-21.9037 -37.413,-42.8977 -62.425,-48.8056 -23.4915,-5.5514 -49.5484,-5.4168 -71.7782,4.8789 -7.9811,-1.6819 -16.1261,-2.686 -24.3282,-3.0383 3.7491,-35.3945 -3.0087,-70.5811 -18.7381,-102.4974 -21.2244,-43.0599 -66.0691,-74.9184 -114.6859,-74.1854 z m -82.5554,749.5067 c -2.0724,4.6176 -4.1752,9.2346 -6.3723,13.8267 -8.2622,-4.6213 -16.3112,-9.6006 -24.1688,-14.9011 13.4549,-5.3576 26.3295,-12.0421 38.6171,-19.9989 -2.5735,7.0629 -5.2442,14.0977 -8.076,21.0733"
           style="display:inline;fill:#ecd9b8;fill-opacity:1;fill-rule:nonzero;stroke:none;stroke-width:0.304665" />
        <path
           style="fill:#ecd9b8;fill-opacity:1"
           id="path272"
           d="m 1728.5844,2150.8375 c 0.6602,-0.1005 1.3257,-0.1708 1.9806,-0.3014 4.3973,-0.877 8.6963,-2.3064 12.9469,-3.7034 5.9228,-1.9465 7.7372,-2.6377 13.7618,-4.7848 12.574,-4.6545 25.0291,-9.6192 37.5415,-14.4342 5.0328,-1.9813 10.0936,-3.8882 15.1157,-5.8963 1.7374,-0.7161 3.4298,-1.5142 5.0569,-2.4525 1.2678,-0.6645 2.3471,-1.5211 3.2022,-2.6709 1.8574,-3.2229 0.2008,-5.4701 -2.8597,-6.5906 -1.9843,-0.4526 -4.022,-0.6738 -6.0407,-0.9433 -2.3843,-0.3375 -4.7942,-0.5499 -7.1688,-0.9505 -1.5278,-0.289 -3.0585,-0.5594 -4.6016,-0.7522 -2.3034,-0.3708 -4.4679,0.3086 -6.6271,1.0458 -11.9739,4.6687 -23.3517,10.6911 -34.7513,16.5857 -13.0641,6.8395 -25.7804,14.3113 -38.4627,21.8268 -2.7665,1.6183 -5.4698,3.3393 -8.1631,5.0751 -0.4256,0.2743 -0.8461,0.5568 -1.2776,0.8216 -0.1291,0.079 -0.5073,0.1 -0.4029,0.2096 1.6493,1.7342 3.5034,3.2614 5.2551,4.8921 0.031,0.082 0.022,0.2978 0.094,0.2463 0.6633,-0.4798 1.2147,-1.0979 1.8301,-1.6377 2.2314,-1.9573 4.4541,-3.925 6.7162,-5.8468 7.7695,-6.6007 7.9394,-6.5899 16.8272,-13.6141 27.1668,-20.5436 54.5345,-40.8206 81.7937,-61.2421 18.0928,-13.7257 36.582,-26.9081 55.2865,-39.7826 4.0814,-2.4484 7.8752,-5.6021 12.3237,-7.4131 -2.7131,0.9286 0.2223,0.1168 -4.8113,-4.938 -0.142,-0.1426 -0.2632,0.3043 -0.391,0.4597 -0.3455,0.4202 -0.6805,0.8491 -1.0289,1.267 -0.9796,1.1754 -1.9778,2.3353 -2.9617,3.5072 -5.4852,6.6335 -10.3403,13.7495 -15.506,20.6274 -12.7222,16.3104 -27.043,31.2823 -41.0985,46.4305 -18.0297,19.5256 -36.4659,38.6667 -55.1526,57.5625 -4.4702,4.3697 -8.9335,8.7542 -13.5683,12.9512 -1.6337,1.4794 -3.2889,2.953 -5.1,4.2125 1.2011,-0.9018 1.0272,-0.975 3.5628,0.084 0.4787,0.2 0.5181,1.0064 1.0035,1.1898 0.2409,0.091 0.08,-0.509 0.1286,-0.762 0.4044,-2.1221 0.2301,-1.2957 1.0537,-3.7544 3.3518,-8.4005 7.3782,-16.516 11.3564,-24.6329 3.1135,-6.3415 6.4822,-12.5652 10.3598,-18.4765 2.4947,-3.8032 3.8339,-5.5251 6.5131,-9.1702 3.4864,-4.4159 7.0183,-8.8521 11.142,-12.7023 1.3426,-1.2535 2.3853,-2.0266 3.804,-3.1383 1.5842,-1.2842 3.3406,-2.36 5.3115,-2.9187 -1.815,0.6056 -3.5149,-0.6483 -4.1376,-2.2632 -0.1156,-0.2998 0.1518,-0.8384 -0.1486,-0.9523 -0.2705,-0.1026 -0.3286,0.4768 -0.5092,0.7029 -0.2796,0.3499 -0.5803,0.6824 -0.8704,1.0236 -3.0825,3.419 -6.7329,6.2616 -10.2438,9.2192 -5.5237,4.7275 -10.5554,9.9904 -15.5658,15.2479 -5.8883,5.8733 -11.872,11.6551 -18.229,17.0211 -3.9206,3.2413 -7.8798,6.466 -12.1922,9.1776 -0.2674,0.1574 -0.5348,0.3148 -0.8021,0.4722 -0.055,0.011 -0.2187,0.05 -0.1653,0.032 2.213,-0.7273 3.694,0.213 4.4969,2.3066 0.073,-0.078 0.1639,-0.1418 0.219,-0.2332 1.5019,-2.4904 -0.6297,0.6324 1.4553,-2.5432 1.386,-2.1109 3.0094,-4.0262 4.6356,-5.9515 7.1519,-7.9904 15.1881,-15.1363 23.1246,-22.3284 8.3084,-7.5509 16.91,-14.7645 25.5098,-21.9778 2.6367,-2.3941 5.6025,-4.3963 8.1756,-6.8603 2.0075,-2.0988 1.0606,-0.8847 -4.2952,-6.2204 -0.2218,-0.2209 -0.5501,0.2999 -0.815,0.4668 -1.2161,0.7665 -2.3643,1.6462 -3.5137,2.5065 -2.8748,2.2385 -5.6156,4.6338 -8.2421,7.1573 -1.9546,1.9667 -3.737,4.0586 -5.106,6.4731 -0.9166,1.9894 -1.8623,3.9648 -2.8263,5.9317 -1.3418,2.6536 -2.8692,5.2057 -4.2827,7.8199 -0.9844,1.8286 -1.9904,3.6711 -2.7035,5.6245 -0.7688,2.8666 -0.297,3.1139 4.8775,5.2286 0.6276,0.2565 1.9877,-1.4699 2.4387,-2.0199 1.5189,-1.8363 2.8139,-3.8265 4.0058,-5.8861 1.4977,-2.5345 2.7427,-5.1915 3.9075,-7.8904 0.8707,-1.909 1.6207,-3.8735 2.5388,-5.7607 0.2624,-0.4782 1.3667,-2.9407 1.7933,-3.1131 0.032,-0.024 0.1211,-0.1027 0.097,-0.071 -0.6755,0.8857 -1.9441,0.6981 -3.0492,0.3123 -0.715,-0.2495 -1.1249,-1.0142 -1.6874,-1.5213 -0.3693,-0.8244 -0.4781,1.1607 -0.5155,1.3347 -0.148,0.6877 -0.3485,1.363 -0.5187,2.0455 -0.8339,2.937 -1.7358,5.8549 -2.597,8.785 -1.0174,3.6618 -1.8782,7.354 -2.6688,11.0698 -0.6007,2.3993 -1.2194,4.7899 -1.9082,7.1652 -0.4174,0.9689 -0.8489,1.9162 -1.1437,2.9318 0.1335,-0.4838 -0.2893,1.2186 -0.1756,0.9258 0.4142,-1.0666 0.9739,-3.3658 2.9074,-2.8286 1.6502,0.4586 2.7881,1.99 4.1822,2.9849 0.025,0.154 -0.012,0.3321 0.074,0.4619 0.046,0.069 0.052,-0.1583 0.074,-0.2387 0.07,-0.2555 0.1214,-0.5165 0.2024,-0.7688 0.4353,-1.3559 1.0204,-2.677 1.5646,-3.9903 1.6948,-3.7208 3.4433,-7.4166 5.2245,-11.0967 1.3048,-2.4678 2.2971,-5.0843 3.5352,-7.582 0.6129,-1.5035 1.3633,-2.8602 2.4416,-4.0666 0.6593,-0.7744 1.3094,-1.6391 2.1976,-2.1635 0.9173,-0.8714 2.8006,-1.3423 -0.6177,-0.373 -1.8277,-0.2445 -2.7868,-1.0459 -3.4484,-2.7558 -0.01,-0.025 -0.01,0.054 -0.01,0.081 -10e-4,0.3809 0.076,0.2489 -0.043,0.4092 -0.47,1.4269 -1.1021,2.7866 -1.7853,4.122 -1.3036,2.3881 -2.6374,4.7622 -3.9865,7.1256 -1.5212,2.6256 -2.9515,5.3015 -4.45,7.9398 -1.1449,2.0839 -2.3717,4.1187 -3.5902,6.1592 -0.467,1.0801 -1.0574,2.0212 -1.8623,2.8656 -0.403,0.4647 -0.9678,1.1852 -1.3857,1.5113 0.3871,-0.7376 -1.8741,2.2327 -1.2217,1.5634 1.656,-1.6989 4.1149,-5.7857 6.7901,0.9504 -0.028,-2.3282 -0.057,-4.6574 0.068,-6.9829 0.2651,-3.8419 1.4713,-7.5055 2.7746,-11.1 0.9517,-2.7694 2.3897,-5.3025 3.8881,-7.8 0.596,-1.1753 1.6292,-2.1533 2.0942,-3.4008 0.1598,-0.4287 0.2691,-0.8747 0.4037,-1.312 -0.9593,-3.9556 -0.01,-4.0352 -5.6892,-4.1526 -1.1474,-0.024 -3.4572,3.7832 -4.0259,4.7011 -1.651,2.6555 -2.8962,5.5205 -4.0103,8.4328 -0.8131,2.5444 -1.5024,5.1265 -2.266,7.6867 -0.8747,2.6793 -1.9956,5.2724 -3.1161,7.8563 -1.2448,3.0831 -2.7056,6.0725 -3.9849,9.1398 -0.8338,1.95 -1.5743,3.9333 -2.3923,5.8896 -1.345,3.6722 -0.8796,3.8944 5.6728,5.4091 0.2767,0.064 1.3547,-1.8062 1.5801,-2.1795 2.1475,-4.0313 4.0625,-8.2061 6.5423,-12.0546 0.9662,-1.4995 2.0285,-2.9348 3.0428,-4.4022 1.4617,-1.8254 2.8494,-3.7126 4.3851,-5.4761 4.6351,-5.3228 9.7083,-10.2951 14.8143,-15.1541 10.5978,-10.0851 21.6581,-19.6168 32.7838,-29.108 18.2753,-15.2217 36.8291,-30.1135 55.5793,-44.7464 3.0662,-1.9921 5.6545,-4.7698 8.8353,-6.6033 0.027,-0.015 -0.019,0.085 -0.05,0.079 -1.4325,-0.2746 -2.8535,-0.6059 -4.2802,-0.9088 -0.2733,-1.0979 -0.5467,-2.1958 -0.82,-3.2937 0.058,-0.1712 0.3496,-0.4643 0.1755,-0.5135 -0.184,-0.052 -0.2248,0.3096 -0.3285,0.4702 -0.3954,0.6121 -0.7633,1.2447 -1.1476,1.864 -0.4334,0.8191 -0.8407,1.6449 -1.3322,2.4311 -2.8249,4.5375 3.5921,8.5326 6.4171,3.995 v 0 c 0.4899,-0.7892 0.9502,-1.5959 1.3381,-2.4407 0.3421,-0.5513 2.0337,-3.0361 2.046,-3.4074 0.044,-1.3455 -0.39,-2.664 -0.585,-3.996 -1.4924,-0.3804 -2.9468,-0.9685 -4.4772,-1.1411 -0.3282,-0.037 -2.2124,1.2637 -2.3032,1.3279 -2.7823,1.964 -5.4008,4.1567 -8.1391,6.1783 -18.8363,14.7013 -37.4767,29.6608 -55.8347,44.955 -11.258,9.6058 -22.4528,19.2508 -33.1716,29.4628 -5.3779,5.1236 -10.5664,10.2217 -15.4272,15.8329 -1.6481,1.9025 -3.1364,3.9378 -4.7046,5.9067 -1.113,1.6226 -2.2764,3.2117 -3.3389,4.8678 -2.4541,3.8252 -4.4002,7.9505 -6.4942,11.9736 -0.1426,0.2372 -0.5306,0.4546 -0.4278,0.7116 0.087,0.2181 0.3075,-0.5629 0.5239,-0.4714 9.0979,3.8506 6.2281,0.9725 5.8117,4.1452 -0.037,0.2802 0.312,-0.9493 0.2876,-0.7974 0.8204,-1.9621 1.5645,-3.9509 2.3995,-5.9069 1.2534,-3.0355 2.72,-5.9808 3.9392,-9.0322 1.2392,-2.8603 2.4753,-5.7324 3.425,-8.7043 0.7078,-2.3787 1.3662,-4.7715 2.0827,-7.1467 0.9438,-2.4731 1.9814,-4.9125 3.3854,-7.1667 0.2046,-0.3347 0.4092,-0.6694 0.6139,-1.0041 0.1639,-0.2477 0.3354,-0.4905 0.4917,-0.7431 0.049,-0.079 0.2107,-0.2208 0.1226,-0.2499 -0.1351,-0.044 -0.2575,0.1934 -0.3958,0.1599 -5.279,-1.2804 -4.1842,-0.013 -4.9759,-4.1063 0.095,-0.2297 0.1968,-0.4565 0.2836,-0.6893 0.2047,-0.5485 -0.041,0.1605 -0.2706,0.5242 -0.5125,0.8131 -1.0903,1.5857 -1.5705,2.4198 -1.7495,2.9162 -3.3951,5.8928 -4.5152,9.12 -1.549,4.2997 -2.932,8.6916 -3.2149,13.2855 -0.1302,2.6916 -0.1353,5.3907 -0.043,8.084 0.4586,3.0928 -0.024,2.1267 6.4243,3.1641 0.3988,0.064 1.1564,-1.0675 0.7766,-0.9301 -0.094,0.034 -0.086,0.2627 -0.2308,0.1916 0.8076,-0.7331 1.1409,-1.1355 1.886,-1.9978 1.1553,-1.2431 2.1587,-2.6025 2.8423,-4.1672 1.2408,-2.0881 2.5013,-4.1642 3.6693,-6.2952 1.4961,-2.6343 2.925,-5.3055 4.443,-7.9275 1.4063,-2.467 2.8012,-4.9425 4.1551,-7.438 1.073,-2.1111 2.09,-4.2895 2.5526,-6.6266 0.1851,-2.0866 0.1952,-4.1055 -1.7506,-5.5507 -0.5773,-0.4287 -1.3672,-0.4458 -2.0508,-0.6687 -1.843,0.4515 -2.421,0.48 -3.7045,1.5923 -1.4383,0.9616 -2.693,2.1555 -3.7616,3.5184 -1.4897,1.7203 -2.6777,3.604 -3.5417,5.7165 -1.2287,2.5192 -2.2593,5.1317 -3.5542,7.621 -1.8456,3.8134 -3.6597,7.6422 -5.4062,11.5021 -1.1426,2.7699 -2.5203,5.6292 -2.3819,8.6924 1.4088,1.0816 2.5254,2.7338 4.2265,3.2447 1.7844,0.5359 3.4881,-2.3594 3.6263,-3.6897 0.1811,-0.6987 0.9036,-1.8631 1.0888,-2.7324 0.7397,-2.551 1.4042,-5.1191 2.0418,-7.6978 0.7502,-3.528 1.5628,-7.0337 2.5275,-10.5109 0.8907,-3.0307 1.8275,-6.0475 2.6794,-9.0884 0.6757,-2.7111 1.5423,-5.5532 0.5947,-8.3059 -0.6683,-0.7427 -1.1023,-1.7996 -2.0049,-2.228 -2.3383,-1.11 -4.4655,0.1171 -5.9957,1.6929 -1.1594,1.4465 -2.0907,3.0594 -2.859,4.7468 -0.9497,1.9877 -1.7692,4.0338 -2.6684,6.0446 -1.0492,2.4315 -2.1592,4.8293 -3.5156,7.1097 -1.0318,1.7978 -2.1684,3.522 -3.4973,5.1168 0.4382,-0.3639 -0.3751,0.3046 -0.1982,0.2224 0.4881,-0.2266 0.9155,-1.077 1.3893,-0.822 3.8853,2.0904 5.0822,3.25 4.7155,4.2912 0.6169,-1.4742 1.3802,-2.9737 2.1732,-4.3902 1.4552,-2.7036 3.044,-5.3349 4.418,-8.083 0.9051,-1.8471 1.814,-3.6937 2.6409,-5.5774 0.9644,-1.7815 2.3581,-3.2385 3.7425,-4.7048 2.403,-2.3119 4.911,-4.5041 7.5385,-6.559 4.5833,-3.4449 4.0464,-1.0129 -1.1048,-8.306 -0.015,-0.022 -0.034,0.041 -0.051,0.062 -2.4281,2.3615 -5.32,4.1932 -7.7887,6.5124 -8.6737,7.2754 -17.3482,14.5523 -25.728,22.1681 -8.1868,7.4197 -16.473,14.796 -23.8292,23.0589 -3.252,3.8682 -6.6974,7.8696 -8.0507,12.8451 0.037,2.0131 -0.3239,3.2308 1.5642,4.7849 2.1125,1.7388 4.5276,0.7684 6.4602,-0.4487 4.6015,-2.9097 8.8579,-6.3191 13.0387,-9.7975 6.5589,-5.5483 12.751,-11.5046 18.8223,-17.58 4.82,-5.0583 9.6548,-10.1276 14.9637,-14.6817 3.8664,-3.2574 7.88,-6.3974 11.2235,-10.2128 0.7028,-0.8791 2.0486,-2.4114 2.4671,-3.5119 0.3598,-0.9461 0.7435,-1.9391 0.7163,-2.9509 -0.077,-2.8706 -2.8804,-4.6778 -5.5401,-4.0757 -2.8613,0.8811 -5.4909,2.3198 -7.8125,4.2177 -1.7761,1.402 -2.7617,2.1259 -4.4694,3.7283 -4.3951,4.1245 -8.1799,8.8524 -11.8954,13.5788 -2.8513,3.8849 -4.1722,5.5785 -6.8335,9.6428 -4.0137,6.13 -7.5065,12.58 -10.7348,19.152 -4.1388,8.4464 -8.3405,16.889 -11.7679,25.6553 -0.6185,1.9976 -1.9521,5.8062 -1.4494,8.0006 0.2553,1.114 0.4485,2.4218 1.3158,3.1661 2.661,2.2834 3.6517,1.4158 5.9567,0.5459 7.2283,-5.1926 13.1278,-12.0432 19.6707,-18.0147 18.7429,-18.9529 37.2348,-38.1519 55.319,-57.7363 14.2335,-15.3402 28.732,-30.5053 41.6021,-47.0332 5.0817,-6.7698 9.8641,-13.7689 15.2504,-20.3057 1.4031,-1.6713 2.8606,-3.3079 4.1983,-5.0328 0.3183,-0.4104 1.1069,-0.768 0.9244,-1.2543 -2.5369,-6.7569 -1.5815,-6.6909 -4.6464,-5.8384 -4.897,2.0921 -9.2164,5.3115 -13.6821,8.1557 -18.7878,12.932 -37.3591,26.1733 -55.5329,39.9595 -27.3115,20.4608 -54.733,40.7752 -81.9492,61.3618 -3.3368,2.6383 -6.7039,5.2387 -10.0103,7.915 -5.4362,4.4002 -6.4946,5.4211 -11.068,9.4031 -0.287,0.2498 -3.9268,3.3718 -4.618,4.0507 -0.6192,0.6081 -1.1849,1.2684 -1.7773,1.9025 1.6891,1.7501 3.1716,3.7265 5.0673,5.2504 0.257,0.2066 0.5817,-0.3115 0.8632,-0.4832 0.4363,-0.2659 0.8599,-0.5522 1.2894,-0.8291 2.6118,-1.6839 5.2329,-3.3539 7.9165,-4.9225 12.5572,-7.4415 25.1468,-14.8416 38.0811,-21.6153 11.0885,-5.7341 22.1518,-11.5959 33.786,-16.1689 1.0666,-0.3917 2.0384,-0.8622 3.1877,-0.6758 1.4484,0.179 2.8826,0.4459 4.3173,0.7113 2.453,0.3904 4.9291,0.6482 7.3899,0.9833 1.5755,0.2083 3.1484,0.4434 4.7232,0.6464 -0.018,-0.021 -0.08,-0.07 -0.054,-0.062 0.089,0.028 0.3111,0.193 0.2495,0.1236 -0.4452,-0.5022 -1.0598,-0.8639 -1.4122,-1.435 -0.6045,-0.9795 -0.5285,-2.57 0.1375,-3.4807 0.3105,-0.3311 -0.028,0.013 0.51,-0.437 0.074,-0.062 -0.1543,0.1146 -0.2324,0.1706 -0.3226,0.2313 -0.6478,0.4592 -1.0041,0.6375 -1.3144,0.7583 -2.682,1.4004 -4.087,1.9817 -4.9913,1.9963 -10.0218,3.8903 -15.0237,5.8603 -12.4537,4.7926 -24.8508,9.7331 -37.3648,14.3686 -5.9611,2.1254 -7.6624,2.7757 -13.5131,4.7011 -3.8762,1.2756 -7.8098,2.6074 -11.8156,3.4375 -0.5204,0.1079 -1.0497,0.1665 -1.5746,0.2498 -5.3185,0.5318 -4.5664,8.0534 0.7521,7.5215 z" />
      </g>
      <path
         id="path182"
         d="m 1667.7601,1710.911 c -2.8935,-44.384 -28.4994,-85.9072 -66.1571,-109.39 -41.5958,-25.9336 -91.2717,-21.1905 -138.4848,-16.187 27.2859,-49.872 35.583,-114.6675 -15.8165,-152.8244 -41.0382,-30.4658 -92.5679,-28.1872 -136.5567,-8.5211 6.596,-19.6777 9.2016,-40.201 5.8902,-62.5816 -5.4294,-36.7023 -25.5167,-69.2296 -55.2431,-91.2897 -55.485,-41.1726 -128.554,-36.4198 -182.3431,2.039 -9.671,-46.4951 -50.2177,-78.2182 -99.4432,-83.989 -45.1622,-5.2962 -101.2514,8.5294 -128.6157,46.5581 -4.3516,-7.1096 -9.3262,-13.9896 -14.7821,-20.5384 -37.1043,-44.5314 -88.9773,-71.9249 -147.1122,-74.5956 -135.0217,-6.2054 -292.4203,106.4822 -307.947,245.2221 -8.6896,77.6497 33.567,138.1967 89.3397,185.8581 -30.1978,21.6448 -45.9336,60.5135 -40.6294,97.9764 5.4008,38.1523 32.7343,69.5223 67.423,84.0329 -30.663,32.8927 -17.7807,90.842 12.5724,123.97 36.4813,39.816 93.7002,44.9899 138.6683,20.6397 2.3988,33.1802 5.3611,65.6336 41.3869,82.1659 37.2065,17.0718 67.1074,3.4437 91.0626,-20.2378 0.4494,11.1791 2.723,22.446 7.4982,34.0621 10.4408,25.4086 29.9834,45.3881 55.3344,56.0974 53.6415,22.6578 126.9223,16.9318 174.4727,-18.6158 22.6356,66.8482 100.9164,97.0501 168.133,74.8288 44.9405,-14.8629 72.6152,-55.8931 73.85,-99.8874 37.0715,27.8106 89.9877,41.0176 131.2446,33.7298 39.8381,-7.0342 78.0418,-35.1041 95.1175,-72.0395 14.868,-32.1546 13.7349,-68.5115 3.2529,-101.6988 91.5733,12.1046 184.4145,-54.5666 177.8845,-154.7842 z m -209.6456,254.1726 c -18.0731,29.1338 -51.2533,48.5517 -85.3768,50.0564 -41.6152,1.8343 -100.2725,-20.3399 -122.3763,-58.2336 -8.6853,-14.8862 -29.7744,-2.089 -22.8527,13.1121 20.7713,45.6248 -6.0753,98.4282 -53.0684,111.6872 -60.6556,17.1159 -126.1559,-13.3548 -135.7689,-78.8033 -1.4441,-9.8343 -15.7011,-12.7186 -21.9645,-5.99 -36.9229,39.6518 -102.2236,47.197 -152.8407,31.827 -24.126,-7.3297 -43.2443,-23.9879 -52.1471,-47.809 -8.8669,-23.7294 -3.8856,-44.5534 3.6852,-67.5869 4.7693,-14.5129 -16.1784,-22.6853 -23.9892,-10.3418 -20.2441,31.9864 -52.4005,77.1455 -95.7568,50.0399 -27.1382,-16.9665 -19.6009,-52.1171 -22.8104,-78.8355 -1.382,-11.4882 -13.093,-17.2769 -22.4116,-9.4943 -34.005,28.4084 -84.9514,29.0129 -117.46,-2.0667 -28.7232,-27.46 -43.7219,-84.6647 1.6112,-103.6345 9.9781,-4.176 7.9291,-22.5187 -2.9504,-24.0992 -34.0838,-4.9511 -64.3499,-26.8907 -73.9251,-61.1127 -9.1103,-32.5578 6.1406,-75.3699 39.2195,-88.3996 7.9836,-3.144 14.6761,-15.0974 5.9901,-21.9646 -62.4981,-49.4126 -111.6423,-112.3915 -92.1145,-196.6842 17.2875,-74.622 78.2645,-131.5411 143.578,-166.7812 63.9274,-34.4957 147.9693,-51.1948 213.2405,-10.76 23.9682,14.8447 55.8335,42.9242 69.4592,73.5044 -0.3885,1.7122 -0.3206,3.5104 0.1005,5.2717 0.3437,3.4913 2.0935,6.3876 4.6367,8.3854 4.3225,17.5232 1.6564,35.3374 -12.7845,51.5274 -11.2435,12.6023 7.1657,31.4545 18.4767,18.7735 22.7358,-25.4889 25.7383,-54.4332 17.232,-82.0657 15.048,-40.9003 68.2855,-53.9811 107.7489,-50.7964 46.6124,3.7631 84.4041,35.586 82.3152,84.6524 -0.489,11.5524 14.467,17.2971 22.4087,9.4943 44.3948,-43.6256 112.73,-55.3021 165.439,-18.981 24.6849,17.0106 41.9554,42.9435 47.424,72.4953 6.0907,32.9113 -4.1774,60.9928 -20.7109,88.8472 -8.1293,13.6967 9.3541,24.9033 20.5576,16.1274 38.461,-30.1214 95.1141,-43.9668 138.6717,-14.998 52.313,34.7915 27.1896,102.5379 -2.3841,142.8948 -5.662,7.7267 1.6518,20.7586 11.2133,19.9094 41.8405,-3.7246 90.8912,-14.4321 131.5069,0.3791 36.8155,13.4217 64.7276,48.5409 71.3593,86.895 6.821,39.4555 -9.9463,81.2134 -38.9899,107.9586 -34.8605,32.1002 -84.4996,38.7234 -128.8556,25.6614 -11.7053,-3.4456 -19.775,9.2553 -15.0291,19.229 16.1039,33.845 21.313,77.4645 0.6931,110.7093"
         style="display:inline;fill:#383026;fill-opacity:1;fill-rule:nonzero;stroke:none;stroke-width:0.304665" />
      <path
         id="path187"
         d="m 477.6195,1309.3298 c -29.0505,30.1971 -40.8287,70.6515 -32.8522,111.7341 1.6148,8.3154 14.3396,4.9049 12.7285,-3.3982 -7.067,-36.3955 3.6829,-72.2546 29.3619,-98.9477 5.8747,-6.1071 -3.3455,-15.5105 -9.2382,-9.3882"
         style="display:inline;fill:#383026;fill-opacity:1;fill-rule:nonzero;stroke:none;stroke-width:0.304665" />
      <path
         id="path188"
         d="m 493.3729,1350.7522 c -14.956,21.8802 -19.9395,47.4999 -15.0453,73.4671 1.5691,8.3212 14.2924,4.9076 12.7295,-3.4013 -4.2604,-22.5924 0.7138,-44.422 13.6349,-63.3266 4.7942,-7.0177 -6.5558,-13.7084 -11.3191,-6.7392"
         style="display:inline;fill:#383026;fill-opacity:1;fill-rule:nonzero;stroke:none;stroke-width:0.304665" />
      <path
         id="path189"
         d="m 515.1303,1372.6355 c -6.2748,21.7429 -7.1675,43.7211 -2.9622,65.9414 1.5752,8.3211 14.3015,4.9076 12.7292,-3.3952 -3.77,-19.9165 -2.7107,-39.4773 2.9058,-58.9435 2.3538,-8.1555 -10.3222,-11.746 -12.6728,-3.6027"
         style="display:inline;fill:#383026;fill-opacity:1;fill-rule:nonzero;stroke:none;stroke-width:0.304665" />
      <path
         id="path190"
         d="m 1350.095,1975.3164 c -30.649,0.192 -57.5738,-16.7574 -70.9805,-44.2587 -3.7135,-7.6194 -15.1309,-1.048 -11.4263,6.556 15.373,31.5327 47.2765,51.0938 82.3008,50.873 8.4702,-0.054 8.5977,-13.2268 0.1051,-13.1703"
         style="display:inline;fill:#383026;fill-opacity:1;fill-rule:nonzero;stroke:none;stroke-width:0.304665" />
      <path
         id="path191"
         d="m 1404.2143,1465.1134 c -31.9371,-11.2406 -66.3895,-6.3507 -93.8183,13.5584 -6.785,4.9269 -0.3148,16.4134 6.5561,11.4263 24.8943,-18.0679 54.5814,-22.5453 83.6595,-12.3149 8.0116,2.8188 11.5657,-9.8697 3.6027,-12.6698"
         style="display:inline;fill:#383026;fill-opacity:1;fill-rule:nonzero;stroke:none;stroke-width:0.304665" />
      <path
         id="path195"
         d="m 860.7682,1169.4877 c -5.7444,6.2118 3.4664,15.6273 9.2383,9.3883 21.0413,-22.7453 50.6822,-34.0082 81.5711,-29.5824 8.2776,1.1848 11.9688,-11.4753 3.6028,-12.6729 -35.5024,-5.0845 -69.9226,6.3959 -94.4122,32.867"
         style="display:inline;fill:#383026;fill-opacity:1;fill-rule:nonzero;stroke:none;stroke-width:0.304665" />
      <path
         id="path196"
         d="m 908.3321,1103.8718 c -23.6805,0.9062 -44.3781,12.0096 -58.5576,30.9163 -5.091,6.7868 6.2807,13.4563 11.3193,6.7391 11.2475,-15 28.4651,-23.7701 47.1323,-24.4851 8.4421,-0.3251 8.5968,-13.498 0.1051,-13.1703"
         style="display:inline;fill:#383026;fill-opacity:1;fill-rule:nonzero;stroke:none;stroke-width:0.304665" />
      <path
         id="path197"
         d="m 919.8759,1974.4614 c -42.8312,10.2397 -78.2351,-29.0712 -64.8382,-70.7282 2.6031,-8.0865 -10.0793,-11.6588 -12.6698,-3.6027 -16.5623,51.4939 28.5996,99.5665 80.9062,87.0602 8.2422,-1.9719 4.8593,-14.7041 -3.3982,-12.7293"
         style="display:inline;fill:#383026;fill-opacity:1;fill-rule:nonzero;stroke:none;stroke-width:0.304665" />
      <path
         id="path198"
         d="m 959.2753,1968.5784 c -0.8745,-0.01 -1.7457,-0.014 -2.6202,-0.021 -8.4755,-0.068 -8.5936,13.102 -0.1051,13.1703 0.8745,0.01 1.7457,0.014 2.6202,0.021 8.4755,0.068 8.5936,-13.102 0.1051,-13.1703"
         style="display:inline;fill:#383026;fill-opacity:1;fill-rule:nonzero;stroke:none;stroke-width:0.304665" />
      <path
         style="display:inline;fill:#000000;fill-opacity:0;stroke-width:3.25446"
         d="m 414.0051,1362.3838 c 14.9183,-57.0565 60.5772,-111.8191 126.5763,-151.8134 125.4877,-76.0435 248.2767,-48.8493 298.9208,66.2024 4.4622,10.1372 0.662,32.9246 -7.283,43.6708 -15.9141,21.5249 0.7395,44.0987 18.3361,24.8542 14.8368,-16.2262 18.7044,-28.7034 18.7776,-60.5792 l 0.07,-30.4754 13.0179,-11.4366 c 19.8296,-17.4209 38.5375,-24.5621 68.641,-26.2015 32.259,-1.7568 56.2633,4.4985 74.1614,19.3259 15.3711,12.7339 27.9819,38.5474 28.0249,57.3652 0.027,11.6023 1.3589,14.5059 8.0559,17.5573 6.2473,2.8464 9.4053,2.6508 14.2611,-0.8834 45.2205,-32.913 62.4901,-39.9008 98.1299,-39.7066 46.0912,0.2512 85.8074,24.5935 104.4532,64.0201 16.8093,35.5432 15.2297,65.9065 -5.563,106.9391 -6.2289,12.2921 -7.1913,17.0409 -4.4802,22.1066 4.4954,8.3997 17.4835,8.328 29.4072,-0.1625 31.0007,-22.0744 72.8541,-30.7407 104.1846,-21.5729 57.1306,16.7174 71.2191,71.8923 34.0977,133.5377 -6.3283,10.5091 -11.5061,22.412 -11.5061,26.4508 0,13.4869 5.9454,15.0368 42.4476,11.0659 47.3832,-5.1548 88.7074,-2.6767 107.7006,6.4583 24.862,11.9577 40.617,27.8639 53.5812,54.0952 11.4212,23.1092 11.8381,25.1561 10.4055,51.0819 -1.914,34.6377 -13.7593,59.393 -39.813,83.2046 -30.2188,27.6182 -65.4576,36.2436 -117.8623,28.8489 -18.4465,-2.6029 -20.3036,-2.2955 -23.6249,3.9102 -2.8535,5.332 -1.9032,11.8034 4.5616,31.0617 15.5356,46.2798 9.19,79.5779 -20.9068,109.7065 -29.803,29.8345 -65.0969,38.74 -108.6125,27.4056 -29.002,-7.554 -51.0051,-20.3691 -71.5025,-41.6446 -17.6616,-18.3321 -19.3464,-19.3057 -27.2078,-15.7238 -7.4582,3.3981 -8.16,5.1517 -6.3779,15.9348 8.4713,51.2598 4.4086,69.5481 -20.6591,92.996 -50.3834,47.1278 -141.7891,23.2736 -161.5558,-42.1613 -5.7003,-18.8697 -11.7539,-27.3277 -19.5594,-27.3277 -2.1734,0 -10.3144,5.3501 -18.0911,11.8891 -29.4953,24.801 -70.023,35.4971 -114.0994,30.1133 -65.2204,-7.9665 -96.4898,-50.7732 -79.0585,-108.2283 5.8718,-19.3539 2.4521,-28.1535 -10.941,-28.1535 -7.3726,0 -11.4495,3.4 -21.3981,17.8449 -31.6861,46.0068 -65.6016,57.803 -90.7427,31.5613 -10.8247,-11.2986 -15.2096,-25.7094 -15.2096,-49.9864 0,-22.9445 -4.3476,-35.2188 -12.4746,-35.2188 -3.3698,0 -15.9608,5.1258 -27.98,11.3906 -37.8506,19.7291 -73.1089,15.1371 -101.659,-13.2399 -16.2991,-16.2002 -27.1183,-39.1979 -27.1183,-57.6434 0,-11.856 10.8108,-28.9573 23.2829,-36.8306 8.7632,-5.5319 12.5161,-10.209 12.5161,-15.5979 0,-9.5754 -4.5505,-13.4081 -21.204,-17.8588 -22.1301,-5.9145 -42.6041,-21.2087 -53.6644,-40.0877 -9.3381,-15.9393 -10.0116,-19.0892 -8.7795,-41.0587 1.1096,-19.7841 2.9376,-26.0759 10.845,-37.3267 5.2307,-7.4424 15.1283,-17.347 21.9947,-22.0101 22.8312,-15.5055 22.5519,-16.6718 -11.94,-49.8455 -35.1646,-33.8207 -54.8613,-62.19 -64.2238,-92.5022 -7.6341,-24.7166 -8.1808,-59.2055 -1.3524,-85.3215 z m 30.412,61.4953 c 1.5819,2.4983 5.2208,3.6426 8.0863,2.543 4.0756,-1.5639 5.2102,-6.8539 5.2102,-24.292 0,-28.7344 7.0299,-51.939 21.4637,-70.8483 6.3414,-8.3078 10.7426,-17.1568 9.7803,-19.6645 -6.0763,-15.8346 -31.6747,13.4432 -42.9639,49.1392 -4.7667,15.0722 -5.8002,56.4523 -1.5766,63.1226 z m 32.8327,-1.2629 c 2.1296,5.6012 5.24,8.2043 8.9498,7.4899 4.6881,-0.9028 5.7218,-4.7993 5.8907,-22.2044 0.1409,-14.525 2.5233,-26.3768 7.6376,-37.9963 4.0881,-9.2878 6.4723,-18.4409 5.2984,-20.3404 -4.3025,-6.9615 -11.5449,-3.1329 -17.9968,9.5138 -11.6992,22.9323 -15.5949,48.2422 -9.7797,63.5374 z m 34.3282,17.061 c 0.6914,2.2374 4.327,4.0681 8.0792,4.0681 6.2811,0 6.7608,-1.6129 6.05,-20.3404 -0.4247,-11.1872 0.3492,-28.0226 1.7196,-37.412 2.0983,-14.3759 1.6384,-17.3991 -2.9121,-19.1453 -2.9721,-1.1405 -6.7883,-0.6892 -8.4804,1.0029 -6.4775,6.4774 -9.5161,55.4534 -4.4563,71.8267 z m 337.9353,521.0037 c 11.3565,16.3875 36.6031,29.8137 56.0614,29.8137 17.7104,0 24.0356,-2.5612 24.0356,-9.7324 0,-4.8071 -3.5598,-6.0083 -21.1189,-7.1264 -23.4671,-1.4943 -34.0669,-7.3387 -46.6991,-25.7484 -6.359,-9.2674 -7.3941,-14.185 -6.2942,-29.903 0.9511,-13.59 0.03,-19.8794 -3.3186,-22.6584 -8.6381,-7.169 -14.3409,6.1521 -13.0472,30.4772 0.9157,17.2189 3.0028,24.2311 10.381,34.8777 z m 54.875,-322.225 c 9.3972,3.5238 17.5479,5.9711 18.1126,5.4385 0.5647,-0.5326 -3.6241,-10.1815 -9.3083,-21.4419 l -10.335,-20.4735 -7.7609,12.8216 c -4.2686,7.052 -7.7685,13.8177 -7.7777,15.0351 -0.01,1.2174 7.672,5.0965 17.0693,8.6202 z m 49.6719,344.3688 c 6.425,2.4655 14.7186,-4.5161 12.4348,-10.4676 -0.9801,-2.554 -5.2865,-4.6437 -9.5699,-4.6437 -5.6585,0 -7.788,1.8077 -7.788,6.611 0,3.6361 2.2154,7.4612 4.9231,8.5003 z m 315.3636,-38.5445 c 11.462,21.8785 41.196,41.1883 68.9505,44.7775 13.8725,1.794 16.9504,1.2378 18.7237,-3.3835 3.1985,-8.335 0.4714,-10.3978 -16.7704,-12.685 -20.0145,-2.655 -43.3418,-17.3419 -54.625,-34.392 -9.4661,-14.3042 -11.078,-15.1859 -16.9775,-9.2865 -4.8383,4.8384 -4.8608,4.3575 0.6987,14.9695 z m 41.4477,-451.718 c 2.059,0 11.9444,-4.0258 21.9676,-8.9461 18.1425,-8.9062 27.0247,-9.7669 67.0408,-6.4968 7.8597,0.6422 9.7634,-0.4713 9.7634,-5.7111 0,-10.0586 -29.6702,-16.4962 -54.8236,-11.8953 -28.1572,5.1505 -47.6919,15.4738 -47.6919,25.2034 0,4.3152 1.6846,7.8459 3.7437,7.8459 z"
         id="path267" />
      <path
         style="display:inline;fill:#000000;fill-opacity:0;stroke-width:3.25446"
         d="m 414.0051,1362.3838 c 14.9183,-57.0565 60.5772,-111.8191 126.5763,-151.8134 125.4877,-76.0435 248.2767,-48.8493 298.9208,66.2024 4.4622,10.1372 0.662,32.9246 -7.283,43.6708 -15.9141,21.5249 0.7395,44.0987 18.3361,24.8542 14.8368,-16.2262 18.7044,-28.7034 18.7776,-60.5792 l 0.07,-30.4754 13.0179,-11.4366 c 19.8296,-17.4209 38.5375,-24.5621 68.641,-26.2015 32.259,-1.7568 56.2633,4.4985 74.1614,19.3259 15.3711,12.7339 27.9819,38.5474 28.0249,57.3652 0.027,11.6023 1.3589,14.5059 8.0559,17.5573 6.2473,2.8464 9.4053,2.6508 14.2611,-0.8834 45.2205,-32.913 62.4901,-39.9008 98.1299,-39.7066 46.0912,0.2512 85.8074,24.5935 104.4532,64.0201 16.8093,35.5432 15.2297,65.9065 -5.563,106.9391 -6.2289,12.2921 -7.1913,17.0409 -4.4802,22.1066 4.4954,8.3997 17.4835,8.328 29.4072,-0.1625 31.0007,-22.0744 72.8541,-30.7407 104.1846,-21.5729 57.1306,16.7174 71.2191,71.8923 34.0977,133.5377 -6.3283,10.5091 -11.5061,22.412 -11.5061,26.4508 0,13.4869 5.9454,15.0368 42.4476,11.0659 47.3832,-5.1548 88.7074,-2.6767 107.7006,6.4583 24.862,11.9577 40.617,27.8639 53.5812,54.0952 11.4212,23.1092 11.8381,25.1561 10.4055,51.0819 -1.914,34.6377 -13.7593,59.393 -39.813,83.2046 -30.2188,27.6182 -65.4576,36.2436 -117.8623,28.8489 -18.4465,-2.6029 -20.3036,-2.2955 -23.6249,3.9102 -2.8535,5.332 -1.9032,11.8034 4.5616,31.0617 15.5356,46.2798 9.19,79.5779 -20.9068,109.7065 -29.803,29.8345 -65.0969,38.74 -108.6125,27.4056 -29.002,-7.554 -51.0051,-20.3691 -71.5025,-41.6446 -17.6616,-18.3321 -19.3464,-19.3057 -27.2078,-15.7238 -7.4582,3.3981 -8.16,5.1517 -6.3779,15.9348 8.4713,51.2598 4.4086,69.5481 -20.6591,92.996 -50.3834,47.1278 -141.7891,23.2736 -161.5558,-42.1613 -5.7003,-18.8697 -11.7539,-27.3277 -19.5594,-27.3277 -2.1734,0 -10.3144,5.3501 -18.0911,11.8891 -29.4953,24.801 -70.023,35.4971 -114.0994,30.1133 -65.2204,-7.9665 -96.4898,-50.7732 -79.0585,-108.2283 5.8718,-19.3539 2.4521,-28.1535 -10.941,-28.1535 -7.3726,0 -11.4495,3.4 -21.3981,17.8449 -31.6861,46.0068 -65.6016,57.803 -90.7427,31.5613 -10.8247,-11.2986 -15.2096,-25.7094 -15.2096,-49.9864 0,-22.9445 -4.3476,-35.2188 -12.4746,-35.2188 -3.3698,0 -15.9608,5.1258 -27.98,11.3906 -37.8506,19.7291 -73.1089,15.1371 -101.659,-13.2399 -16.2991,-16.2002 -27.1183,-39.1979 -27.1183,-57.6434 0,-11.856 10.8108,-28.9573 23.2829,-36.8306 8.7632,-5.5319 12.5161,-10.209 12.5161,-15.5979 0,-9.5754 -4.5505,-13.4081 -21.204,-17.8588 -22.1301,-5.9145 -42.6041,-21.2087 -53.6644,-40.0877 -9.3381,-15.9393 -10.0116,-19.0892 -8.7795,-41.0587 1.1096,-19.7841 2.9376,-26.0759 10.845,-37.3267 5.2307,-7.4424 15.1283,-17.347 21.9947,-22.0101 22.8312,-15.5055 22.5519,-16.6718 -11.94,-49.8455 -35.1646,-33.8207 -54.8613,-62.19 -64.2238,-92.5022 -7.6341,-24.7166 -8.1808,-59.2055 -1.3524,-85.3215 z m 30.412,61.4953 c 1.5819,2.4983 5.2208,3.6426 8.0863,2.543 4.0756,-1.5639 5.2102,-6.8539 5.2102,-24.292 0,-28.7344 7.0299,-51.939 21.4637,-70.8483 6.3414,-8.3078 10.7426,-17.1568 9.7803,-19.6645 -6.0763,-15.8346 -31.6747,13.4432 -42.9639,49.1392 -4.7667,15.0722 -5.8002,56.4523 -1.5766,63.1226 z m 32.8327,-1.2629 c 2.1296,5.6012 5.24,8.2043 8.9498,7.4899 4.6881,-0.9028 5.7218,-4.7993 5.8907,-22.2044 0.1409,-14.525 2.5233,-26.3768 7.6376,-37.9963 4.0881,-9.2878 6.4723,-18.4409 5.2984,-20.3404 -4.3025,-6.9615 -11.5449,-3.1329 -17.9968,9.5138 -11.6992,22.9323 -15.5949,48.2422 -9.7797,63.5374 z m 34.3282,17.061 c 0.6914,2.2374 4.327,4.0681 8.0792,4.0681 6.2811,0 6.7608,-1.6129 6.05,-20.3404 -0.4247,-11.1872 0.3492,-28.0226 1.7196,-37.412 2.0983,-14.3759 1.6384,-17.3991 -2.9121,-19.1453 -2.9721,-1.1405 -6.7883,-0.6892 -8.4804,1.0029 -6.4775,6.4774 -9.5161,55.4534 -4.4563,71.8267 z m 337.9353,521.0037 c 11.3565,16.3875 36.6031,29.8137 56.0614,29.8137 17.7104,0 24.0356,-2.5612 24.0356,-9.7324 0,-4.8071 -3.5598,-6.0083 -21.1189,-7.1264 -23.4671,-1.4943 -34.0669,-7.3387 -46.6991,-25.7484 -6.359,-9.2674 -7.3941,-14.185 -6.2942,-29.903 0.9511,-13.59 0.03,-19.8794 -3.3186,-22.6584 -8.6381,-7.169 -14.3409,6.1521 -13.0472,30.4772 0.9157,17.2189 3.0028,24.2311 10.381,34.8777 z m 54.875,-322.225 c 9.3972,3.5238 17.5479,5.9711 18.1126,5.4385 0.5647,-0.5326 -3.6241,-10.1815 -9.3083,-21.4419 l -10.335,-20.4735 -7.7609,12.8216 c -4.2686,7.052 -7.7685,13.8177 -7.7777,15.0351 -0.01,1.2174 7.672,5.0965 17.0693,8.6202 z m 49.6719,344.3688 c 6.425,2.4655 14.7186,-4.5161 12.4348,-10.4676 -0.9801,-2.554 -5.2865,-4.6437 -9.5699,-4.6437 -5.6585,0 -7.788,1.8077 -7.788,6.611 0,3.6361 2.2154,7.4612 4.9231,8.5003 z m 315.3636,-38.5445 c 11.462,21.8785 41.196,41.1883 68.9505,44.7775 13.8725,1.794 16.9504,1.2378 18.7237,-3.3835 3.1985,-8.335 0.4714,-10.3978 -16.7704,-12.685 -20.0145,-2.655 -43.3418,-17.3419 -54.625,-34.392 -9.4661,-14.3042 -11.078,-15.1859 -16.9775,-9.2865 -4.8383,4.8384 -4.8608,4.3575 0.6987,14.9695 z m 41.4477,-451.718 c 2.059,0 11.9444,-4.0258 21.9676,-8.9461 18.1425,-8.9062 27.0247,-9.7669 67.0408,-6.4968 7.8597,0.6422 9.7634,-0.4713 9.7634,-5.7111 0,-10.0586 -29.6702,-16.4962 -54.8236,-11.8953 -28.1572,5.1505 -47.6919,15.4738 -47.6919,25.2034 0,4.3152 1.6846,7.8459 3.7437,7.8459 z"
         id="path268" />
      <path
         style="display:inline;fill:#000000;fill-opacity:0;stroke-width:3.25446"
         d="m 414.0051,1362.3838 c 14.9183,-57.0565 60.5772,-111.8191 126.5763,-151.8134 125.4877,-76.0435 248.2767,-48.8493 298.9208,66.2024 4.4622,10.1372 0.662,32.9246 -7.283,43.6708 -15.9141,21.5249 0.7395,44.0987 18.3361,24.8542 14.8368,-16.2262 18.7044,-28.7034 18.7776,-60.5792 l 0.07,-30.4754 13.0179,-11.4366 c 19.8296,-17.4209 38.5375,-24.5621 68.641,-26.2015 32.259,-1.7568 56.2633,4.4985 74.1614,19.3259 15.3711,12.7339 27.9819,38.5474 28.0249,57.3652 0.027,11.6023 1.3589,14.5059 8.0559,17.5573 6.2473,2.8464 9.4053,2.6508 14.2611,-0.8834 45.2205,-32.913 62.4901,-39.9008 98.1299,-39.7066 46.0912,0.2512 85.8074,24.5935 104.4532,64.0201 16.8093,35.5432 15.2297,65.9065 -5.563,106.9391 -6.2289,12.2921 -7.1913,17.0409 -4.4802,22.1066 4.4954,8.3997 17.4835,8.328 29.4072,-0.1625 31.0007,-22.0744 72.8541,-30.7407 104.1846,-21.5729 57.1306,16.7174 71.2191,71.8923 34.0977,133.5377 -6.3283,10.5091 -11.5061,22.412 -11.5061,26.4508 0,13.4869 5.9454,15.0368 42.4476,11.0659 47.3832,-5.1548 88.7074,-2.6767 107.7006,6.4583 24.862,11.9577 40.617,27.8639 53.5812,54.0952 11.4212,23.1092 11.8381,25.1561 10.4055,51.0819 -1.914,34.6377 -13.7593,59.393 -39.813,83.2046 -30.2188,27.6182 -65.4576,36.2436 -117.8623,28.8489 -18.4465,-2.6029 -20.3036,-2.2955 -23.6249,3.9102 -2.8535,5.332 -1.9032,11.8034 4.5616,31.0617 15.5356,46.2798 9.19,79.5779 -20.9068,109.7065 -29.803,29.8345 -65.0969,38.74 -108.6125,27.4056 -29.002,-7.554 -51.0051,-20.3691 -71.5025,-41.6446 -17.6616,-18.3321 -19.3464,-19.3057 -27.2078,-15.7238 -7.4582,3.3981 -8.16,5.1517 -6.3779,15.9348 8.4713,51.2598 4.4086,69.5481 -20.6591,92.996 -50.3834,47.1278 -141.7891,23.2736 -161.5558,-42.1613 -5.7003,-18.8697 -11.7539,-27.3277 -19.5594,-27.3277 -2.1734,0 -10.3144,5.3501 -18.0911,11.8891 -29.4953,24.801 -70.023,35.4971 -114.0994,30.1133 -65.2204,-7.9665 -96.4898,-50.7732 -79.0585,-108.2283 5.8718,-19.3539 2.4521,-28.1535 -10.941,-28.1535 -7.3726,0 -11.4495,3.4 -21.3981,17.8449 -31.6861,46.0068 -65.6016,57.803 -90.7427,31.5613 -10.8247,-11.2986 -15.2096,-25.7094 -15.2096,-49.9864 0,-22.9445 -4.3476,-35.2188 -12.4746,-35.2188 -3.3698,0 -15.9608,5.1258 -27.98,11.3906 -37.8506,19.7291 -73.1089,15.1371 -101.659,-13.2399 -16.2991,-16.2002 -27.1183,-39.1979 -27.1183,-57.6434 0,-11.856 10.8108,-28.9573 23.2829,-36.8306 8.7632,-5.5319 12.5161,-10.209 12.5161,-15.5979 0,-9.5754 -4.5505,-13.4081 -21.204,-17.8588 -22.1301,-5.9145 -42.6041,-21.2087 -53.6644,-40.0877 -9.3381,-15.9393 -10.0116,-19.0892 -8.7795,-41.0587 1.1096,-19.7841 2.9376,-26.0759 10.845,-37.3267 5.2307,-7.4424 15.1283,-17.347 21.9947,-22.0101 22.8312,-15.5055 22.5519,-16.6718 -11.94,-49.8455 -35.1646,-33.8207 -54.8613,-62.19 -64.2238,-92.5022 -7.6341,-24.7166 -8.1808,-59.2055 -1.3524,-85.3215 z m 30.412,61.4953 c 1.5819,2.4983 5.2208,3.6426 8.0863,2.543 4.0756,-1.5639 5.2102,-6.8539 5.2102,-24.292 0,-28.7344 7.0299,-51.939 21.4637,-70.8483 6.3414,-8.3078 10.7426,-17.1568 9.7803,-19.6645 -6.0763,-15.8346 -31.6747,13.4432 -42.9639,49.1392 -4.7667,15.0722 -5.8002,56.4523 -1.5766,63.1226 z m 32.8327,-1.2629 c 2.1296,5.6012 5.24,8.2043 8.9498,7.4899 4.6881,-0.9028 5.7218,-4.7993 5.8907,-22.2044 0.1409,-14.525 2.5233,-26.3768 7.6376,-37.9963 4.0881,-9.2878 6.4723,-18.4409 5.2984,-20.3404 -4.3025,-6.9615 -11.5449,-3.1329 -17.9968,9.5138 -11.6992,22.9323 -15.5949,48.2422 -9.7797,63.5374 z m 34.3282,17.061 c 0.6914,2.2374 4.327,4.0681 8.0792,4.0681 6.2811,0 6.7608,-1.6129 6.05,-20.3404 -0.4247,-11.1872 0.3492,-28.0226 1.7196,-37.412 2.0983,-14.3759 1.6384,-17.3991 -2.9121,-19.1453 -2.9721,-1.1405 -6.7883,-0.6892 -8.4804,1.0029 -6.4775,6.4774 -9.5161,55.4534 -4.4563,71.8267 z m 337.9353,521.0037 c 11.3565,16.3875 36.6031,29.8137 56.0614,29.8137 17.7104,0 24.0356,-2.5612 24.0356,-9.7324 0,-4.8071 -3.5598,-6.0083 -21.1189,-7.1264 -23.4671,-1.4943 -34.0669,-7.3387 -46.6991,-25.7484 -6.359,-9.2674 -7.3941,-14.185 -6.2942,-29.903 0.9511,-13.59 0.03,-19.8794 -3.3186,-22.6584 -8.6381,-7.169 -14.3409,6.1521 -13.0472,30.4772 0.9157,17.2189 3.0028,24.2311 10.381,34.8777 z m 54.875,-322.225 c 9.3972,3.5238 17.5479,5.9711 18.1126,5.4385 0.5647,-0.5326 -3.6241,-10.1815 -9.3083,-21.4419 l -10.335,-20.4735 -7.7609,12.8216 c -4.2686,7.052 -7.7685,13.8177 -7.7777,15.0351 -0.01,1.2174 7.672,5.0965 17.0693,8.6202 z m 49.6719,344.3688 c 6.425,2.4655 14.7186,-4.5161 12.4348,-10.4676 -0.9801,-2.554 -5.2865,-4.6437 -9.5699,-4.6437 -5.6585,0 -7.788,1.8077 -7.788,6.611 0,3.6361 2.2154,7.4612 4.9231,8.5003 z m 315.3636,-38.5445 c 11.462,21.8785 41.196,41.1883 68.9505,44.7775 13.8725,1.794 16.9504,1.2378 18.7237,-3.3835 3.1985,-8.335 0.4714,-10.3978 -16.7704,-12.685 -20.0145,-2.655 -43.3418,-17.3419 -54.625,-34.392 -9.4661,-14.3042 -11.078,-15.1859 -16.9775,-9.2865 -4.8383,4.8384 -4.8608,4.3575 0.6987,14.9695 z m 41.4477,-451.718 c 2.059,0 11.9444,-4.0258 21.9676,-8.9461 18.1425,-8.9062 27.0247,-9.7669 67.0408,-6.4968 7.8597,0.6422 9.7634,-0.4713 9.7634,-5.7111 0,-10.0586 -29.6702,-16.4962 -54.8236,-11.8953 -28.1572,5.1505 -47.6919,15.4738 -47.6919,25.2034 0,4.3152 1.6846,7.8459 3.7437,7.8459 z"
         id="path269" />
      <path
         style="display:inline;fill:#000000;fill-opacity:0;stroke-width:3.25446"
         d="m 414.0051,1362.3838 c 14.9183,-57.0565 60.5772,-111.8191 126.5763,-151.8134 125.4877,-76.0435 248.2767,-48.8493 298.9208,66.2024 4.4622,10.1372 0.662,32.9246 -7.283,43.6708 -15.9141,21.5249 0.7395,44.0987 18.3361,24.8542 14.8368,-16.2262 18.7044,-28.7034 18.7776,-60.5792 l 0.07,-30.4754 13.0179,-11.4366 c 19.8296,-17.4209 38.5375,-24.5621 68.641,-26.2015 32.259,-1.7568 56.2633,4.4985 74.1614,19.3259 15.3711,12.7339 27.9819,38.5474 28.0249,57.3652 0.027,11.6023 1.3589,14.5059 8.0559,17.5573 6.2473,2.8464 9.4053,2.6508 14.2611,-0.8834 45.2205,-32.913 62.4901,-39.9008 98.1299,-39.7066 46.0912,0.2512 85.8074,24.5935 104.4532,64.0201 16.8093,35.5432 15.2297,65.9065 -5.563,106.9391 -6.2289,12.2921 -7.1913,17.0409 -4.4802,22.1066 4.4954,8.3997 17.4835,8.328 29.4072,-0.1625 31.0007,-22.0744 72.8541,-30.7407 104.1846,-21.5729 57.1306,16.7174 71.2191,71.8923 34.0977,133.5377 -6.3283,10.5091 -11.5061,22.412 -11.5061,26.4508 0,13.4869 5.9454,15.0368 42.4476,11.0659 47.3832,-5.1548 88.7074,-2.6767 107.7006,6.4583 24.862,11.9577 40.617,27.8639 53.5812,54.0952 11.4212,23.1092 11.8381,25.1561 10.4055,51.0819 -1.914,34.6377 -13.7593,59.393 -39.813,83.2046 -30.2188,27.6182 -65.4576,36.2436 -117.8623,28.8489 -18.4465,-2.6029 -20.3036,-2.2955 -23.6249,3.9102 -2.8535,5.332 -1.9032,11.8034 4.5616,31.0617 15.5356,46.2798 9.19,79.5779 -20.9068,109.7065 -29.803,29.8345 -65.0969,38.74 -108.6125,27.4056 -29.002,-7.554 -51.0051,-20.3691 -71.5025,-41.6446 -17.6616,-18.3321 -19.3464,-19.3057 -27.2078,-15.7238 -7.4582,3.3981 -8.16,5.1517 -6.3779,15.9348 8.4713,51.2598 4.4086,69.5481 -20.6591,92.996 -50.3834,47.1278 -141.7891,23.2736 -161.5558,-42.1613 -5.7003,-18.8697 -11.7539,-27.3277 -19.5594,-27.3277 -2.1734,0 -10.3144,5.3501 -18.0911,11.8891 -29.4953,24.801 -70.023,35.4971 -114.0994,30.1133 -65.2204,-7.9665 -96.4898,-50.7732 -79.0585,-108.2283 5.8718,-19.3539 2.4521,-28.1535 -10.941,-28.1535 -7.3726,0 -11.4495,3.4 -21.3981,17.8449 -31.6861,46.0068 -65.6016,57.803 -90.7427,31.5613 -10.8247,-11.2986 -15.2096,-25.7094 -15.2096,-49.9864 0,-22.9445 -4.3476,-35.2188 -12.4746,-35.2188 -3.3698,0 -15.9608,5.1258 -27.98,11.3906 -37.8506,19.7291 -73.1089,15.1371 -101.659,-13.2399 -16.2991,-16.2002 -27.1183,-39.1979 -27.1183,-57.6434 0,-11.856 10.8108,-28.9573 23.2829,-36.8306 8.7632,-5.5319 12.5161,-10.209 12.5161,-15.5979 0,-9.5754 -4.5505,-13.4081 -21.204,-17.8588 -22.1301,-5.9145 -42.6041,-21.2087 -53.6644,-40.0877 -9.3381,-15.9393 -10.0116,-19.0892 -8.7795,-41.0587 1.1096,-19.7841 2.9376,-26.0759 10.845,-37.3267 5.2307,-7.4424 15.1283,-17.347 21.9947,-22.0101 22.8312,-15.5055 22.5519,-16.6718 -11.94,-49.8455 -35.1646,-33.8207 -54.8613,-62.19 -64.2238,-92.5022 -7.6341,-24.7166 -8.1808,-59.2055 -1.3524,-85.3215 z m 30.412,61.4953 c 1.5819,2.4983 5.2208,3.6426 8.0863,2.543 4.0756,-1.5639 5.2102,-6.8539 5.2102,-24.292 0,-28.7344 7.0299,-51.939 21.4637,-70.8483 6.3414,-8.3078 10.7426,-17.1568 9.7803,-19.6645 -6.0763,-15.8346 -31.6747,13.4432 -42.9639,49.1392 -4.7667,15.0722 -5.8002,56.4523 -1.5766,63.1226 z m 32.8327,-1.2629 c 2.1296,5.6012 5.24,8.2043 8.9498,7.4899 4.6881,-0.9028 5.7218,-4.7993 5.8907,-22.2044 0.1409,-14.525 2.5233,-26.3768 7.6376,-37.9963 4.0881,-9.2878 6.4723,-18.4409 5.2984,-20.3404 -4.3025,-6.9615 -11.5449,-3.1329 -17.9968,9.5138 -11.6992,22.9323 -15.5949,48.2422 -9.7797,63.5374 z m 34.3282,17.061 c 0.6914,2.2374 4.327,4.0681 8.0792,4.0681 6.2811,0 6.7608,-1.6129 6.05,-20.3404 -0.4247,-11.1872 0.3492,-28.0226 1.7196,-37.412 2.0983,-14.3759 1.6384,-17.3991 -2.9121,-19.1453 -2.9721,-1.1405 -6.7883,-0.6892 -8.4804,1.0029 -6.4775,6.4774 -9.5161,55.4534 -4.4563,71.8267 z m 337.9353,521.0037 c 11.3565,16.3875 36.6031,29.8137 56.0614,29.8137 17.7104,0 24.0356,-2.5612 24.0356,-9.7324 0,-4.8071 -3.5598,-6.0083 -21.1189,-7.1264 -23.4671,-1.4943 -34.0669,-7.3387 -46.6991,-25.7484 -6.359,-9.2674 -7.3941,-14.185 -6.2942,-29.903 0.9511,-13.59 0.03,-19.8794 -3.3186,-22.6584 -8.6381,-7.169 -14.3409,6.1521 -13.0472,30.4772 0.9157,17.2189 3.0028,24.2311 10.381,34.8777 z m 54.875,-322.225 c 9.3972,3.5238 17.5479,5.9711 18.1126,5.4385 0.5647,-0.5326 -3.6241,-10.1815 -9.3083,-21.4419 l -10.335,-20.4735 -7.7609,12.8216 c -4.2686,7.052 -7.7685,13.8177 -7.7777,15.0351 -0.01,1.2174 7.672,5.0965 17.0693,8.6202 z m 49.6719,344.3688 c 6.425,2.4655 14.7186,-4.5161 12.4348,-10.4676 -0.9801,-2.554 -5.2865,-4.6437 -9.5699,-4.6437 -5.6585,0 -7.788,1.8077 -7.788,6.611 0,3.6361 2.2154,7.4612 4.9231,8.5003 z m 315.3636,-38.5445 c 11.462,21.8785 41.196,41.1883 68.9505,44.7775 13.8725,1.794 16.9504,1.2378 18.7237,-3.3835 3.1985,-8.335 0.4714,-10.3978 -16.7704,-12.685 -20.0145,-2.655 -43.3418,-17.3419 -54.625,-34.392 -9.4661,-14.3042 -11.078,-15.1859 -16.9775,-9.2865 -4.8383,4.8384 -4.8608,4.3575 0.6987,14.9695 z m 41.4477,-451.718 c 2.059,0 11.9444,-4.0258 21.9676,-8.9461 18.1425,-8.9062 27.0247,-9.7669 67.0408,-6.4968 7.8597,0.6422 9.7634,-0.4713 9.7634,-5.7111 0,-10.0586 -29.6702,-16.4962 -54.8236,-11.8953 -28.1572,5.1505 -47.6919,15.4738 -47.6919,25.2034 0,4.3152 1.6846,7.8459 3.7437,7.8459 z"
         id="path270" />
      <path
         style="display:inline;fill:#fff2cf;fill-opacity:1;stroke:none;stroke-width:2.48191;stroke-opacity:1"
         d="m 453.6209,1426.1083 c 3.3524,-1.8761 4.1166,-7.0293 4.3433,-29.2857 0.2742,-26.9319 0.3059,-27.0662 11.0702,-47.0512 25.9918,-48.2564 76.9447,-92.1279 137.1377,-118.0785 35.2796,-15.2099 60.0151,-20.458 96.5349,-20.4817 27.3979,-0.018 33.2944,0.7703 50.4517,6.7427 41.4033,14.4124 88.4406,54.6006 88.5086,75.6208 0.031,9.4665 -5.1412,22.9217 -12.3171,32.0444 -6.0535,7.6958 -6.2699,12.2116 -1.1185,23.3375 9.145,19.7511 13.4943,25.9595 19.805,28.2709 6.0194,2.2047 7.5179,1.4915 14.9637,-7.1221 12.1567,-14.0633 16.7627,-30.2899 15.3796,-54.1818 -0.9919,-17.1354 -0.4491,-20.8039 4.0705,-27.5106 8.3224,-12.3496 25.215,-23.6217 43.9096,-29.3 24.6882,-7.4988 62.006,-6.0772 81.6213,3.1094 24.8018,11.6156 42.1924,35.0862 42.1924,56.9435 0,23.5295 12.708,28.2235 33.3322,12.3121 51.071,-39.401 117.5693,-37.7494 159.2746,3.9559 32.636,32.636 38.0825,73.4968 15.8398,118.8327 -8.5099,17.3453 -9.293,20.3672 -6.4103,24.7369 5.5486,8.4105 14.6787,7.4037 32.9849,-3.6374 22.0035,-13.2709 37.0419,-17.7924 62.8075,-18.884 l 21.0962,-0.8938 -16.1324,3.6421 c -18.2669,4.124 -41.6137,15.1772 -45.6282,21.6019 -2.053,3.2857 -1.7351,5.2465 1.3513,8.3329 3.7268,3.7268 5.495,3.315 23.0769,-5.3745 17.1839,-8.4927 20.901,-9.3976 38.1143,-9.2786 10.4903,0.072 22.2806,1.4191 26.2005,2.9924 5.1746,2.0769 8.024,2.1163 10.4009,0.1437 2.5278,-2.0979 4.9908,-0.3467 10.8092,7.6853 9.0906,12.5493 11.156,22.2043 9.5503,44.6456 -1.2261,17.1364 -12.0725,44.8816 -24.2082,61.9245 -2.746,3.8564 -4.9927,9.7738 -4.9927,13.1498 0,11.4034 4.7097,12.6758 37.9368,10.2498 52.6664,-3.8454 82.7915,-2.707 99.3549,3.7547 20.0116,7.8068 43.8501,30.4485 54.2062,51.4847 27.0871,55.0216 -6.3251,126.2618 -68.1043,145.2096 -20.3756,6.2493 -53.0604,7.3202 -70.7751,2.3189 -22.0492,-6.225 -28.0114,2.5411 -18.3825,27.0275 5.3078,13.4978 6.3741,20.3882 6.5296,42.1924 0.1687,23.6576 -0.448,27.3508 -6.6902,40.0617 -7.921,16.1296 -23.416,31.4293 -40.6767,40.1641 -16.2574,8.227 -31.0639,12.1609 -34.1513,9.0734 -1.3379,-1.3379 -6.0791,-2.4325 -10.5361,-2.4325 -21.1652,0 -46.492,-14.651 -60.2413,-34.8481 -6.272,-9.2134 -9.8864,-12.3377 -13.6504,-11.7994 -8.1684,1.1683 -7.3426,9.9162 2.2529,23.8656 4.8632,7.0699 8.2098,12.8543 7.4368,12.8543 -7.916,0 -34.8946,-20.633 -43.5018,-33.2699 -4.8643,-7.1416 -7.65,-8.8919 -14.1736,-8.9056 -11.8861,-0.025 -15.3213,8.5864 -9.6914,24.2944 12.3844,34.5541 -5.0112,72.964 -40.514,89.4554 -10.3356,4.801 -18.8814,6.5953 -35.1913,7.3889 -49.131,2.3906 -85.9199,-21.6773 -97.9368,-64.0718 -6.4969,-22.9206 -14.273,-25.2044 -32.3882,-9.5124 -23.8209,20.6346 -58.1855,30.8094 -96.3248,28.5203 -40.5587,-2.4343 -65.5492,-14.4987 -79.9249,-38.5847 -11.1655,-18.7072 -12.6403,-31.6955 -6.3728,-56.1213 5.4113,-21.0887 4.5639,-26.9722 -4.2892,-29.782 -8.01,-2.5423 -13.8867,0.7145 -21.1824,11.7391 -10.5839,15.9933 -28.5723,34.1325 -39.2519,39.5808 -20.4196,10.4173 -45.4428,3.3079 -56.2904,-15.9927 -4.4133,-7.8525 -5.8672,-15.1235 -6.7651,-33.8336 -1.6836,-35.0823 -8.6858,-42.2203 -28.3256,-28.8747 -16.4101,11.151 -29.2855,14.9707 -50.4626,14.9707 -16.6879,0 -22.0963,-1.1006 -33.9042,-6.8992 -24.41,-11.9873 -41.2933,-35.7494 -43.6183,-61.3902 -1.6899,-18.6365 3.9639,-30.7392 18.4238,-39.4385 11.1806,-6.7264 15.7145,-15.523 11.4694,-22.2529 -1.3448,-2.1319 -8.4896,-5.6855 -15.8774,-7.897 -49.2361,-14.7382 -72.2687,-52.7312 -57.7677,-95.2895 4.3361,-12.7257 18.7329,-28.8966 33.2915,-37.394 5.6982,-3.3259 8.8134,-7.1532 9.3139,-11.4428 0.6292,-5.3942 -2.5552,-9.2345 -19.5236,-23.5446 -23.2441,-19.6027 -46.4952,-47.3124 -56.7511,-67.6337 -14.1334,-28.0044 -19.3313,-57.277 -10.9985,-61.9403 z m 25.7476,2.8971 c 1.072,1.1594 4.2953,1.3634 7.1628,0.4533 4.7371,-1.5035 5.2138,-3.511 5.2156,-21.9633 0,-17.4092 1.0646,-22.5547 7.4457,-36.0432 8.8748,-18.7597 9.1385,-21.8624 2.0486,-24.1126 -3.7872,-1.202 -6.4595,-0.3273 -8.9661,2.9351 -6.0359,7.8553 -13.3353,25.7567 -15.4266,37.8321 -2.1605,12.4757 -0.6184,37.5046 2.52,40.8986 z m 34.6004,13.9582 c 2.0013,1.2348 5.2777,1.2935 7.3537,0.1318 2.9441,-1.6476 3.7773,-7.579 3.8994,-27.7609 0.085,-14.1161 1.0809,-30.2481 2.2123,-35.8489 1.6804,-8.3188 1.328,-10.4629 -1.9247,-11.7111 -11.7585,-4.5122 -16.2989,9.2825 -15.6109,47.4282 0.3479,19.2898 1.3433,26.0784 4.0702,27.7609 z m 330.6687,508.1817 c 6.3777,13.6812 25.9971,31.1585 39.5286,35.2126 12.1136,3.6293 39.1525,3.9619 42.5906,0.5238 1.248,-1.248 1.8745,-4.3423 1.3923,-6.8761 -0.7339,-3.8562 -3.9063,-4.8153 -19.4675,-5.8855 -19.9464,-1.3718 -29.5613,-5.3191 -40.1757,-16.4937 -10.8953,-11.4702 -14.9799,-24.3163 -14.0147,-44.076 0.7529,-15.4117 0.3122,-17.5681 -3.754,-18.3703 -6.2827,-1.2395 -9.4608,2.5335 -11.541,13.7014 -2.461,13.2127 -0.3089,29.9283 5.4414,42.2638 z m 108.5621,30.3619 c 7.2612,3.8861 12.9859,0.5633 12.1031,-7.0249 -0.8456,-7.2677 -7.5999,-9.9064 -13.2835,-5.1895 -4.9897,4.1411 -4.5035,9.1725 1.1804,12.2144 z"
         id="path348" />
    </g>
  </g>
</svg>
