<?xml version="1.0" encoding="utf-8"?>
<!-- Generator: Adobe Illustrator 28.1.0, SVG Export Plug-In . SVG Version: 6.00 Build 0)  -->
<svg version="1.1" id="圖層_1" xmlns="http://www.w3.org/2000/svg" xmlns:xlink="http://www.w3.org/1999/xlink" x="0px" y="0px"
	 viewBox="0 0 2059 1655.2" style="enable-background:new 0 0 2059 1655.2;" xml:space="preserve">
<style type="text/css">
	.st0{fill:#FFFFFF;}
	.st1{fill:#B4D1E2;}
	.st2{fill:#543C1A;}
	.st3{fill-opacity:0;}
</style>
<g id="svg1" xmlns:svg="http://www.w3.org/2000/svg" xmlns:inkscape="http://www.inkscape.org/namespaces/inkscape" xmlns:sodipodi="http://sodipodi.sourceforge.net/DTD/sodipodi-0.dtd">
	<g>
		<path class="st0" d="M1734,683.5c-10.9-26-28.4-49.5-50.6-68c-22-18.2-48-31.2-75.4-37.5c-11.8-2.7-24-4.1-36.4-4.1
			c-23.8,0-46.7,5.1-67.9,12.2c-1.7-12.2-4.7-24.8-9.5-37.2c-15.1-39.5-44.2-67.1-84-79.8c-15.4-4.9-31.3-7.4-47.2-7.4
			c-23.6,0-47.3,5.4-69.8,15.8c-1.9-4.5-4-9-6.3-13.4c-21.9-42.2-59.3-73.5-105.3-88.1c-18.4-5.8-37.3-8.8-56.4-8.8
			c-46.6,0-91.8,17.7-127.4,48.8c-25.6-19.8-58.1-30.9-93.2-30.9c-7.3,0-14.6,0.5-21.9,1.4c-3.2-22.6-22-39.3-44.8-39.3
			c-2.9,0-5.9,0.3-8.8,0.8c-2.8,0.5-5.5,1.1-8.3,1.8c-8.5-11.5-21.9-18.7-36.8-18.7c-5.7,0-11.4,1.1-16.9,3.2
			c-33.4,12.9-57.9,38.9-69,73.3c-3,9.3-3,18.9-0.3,27.8c-18.5-4.5-37.3-6.7-56.2-6.7c-22.6,0-45.2,3.3-67.1,9.7
			c-72.3,21.2-140.8,74.2-187.9,145.5c-23.5,35.5-40,73-49.3,111.6c-10.1,42.1-10.8,83.2-2.1,122c9.7,43.5,31.6,81.3,65,112.4
			c18.6,17.3,40.4,32.3,66,45.5c-9.3,34-5.9,71.5,10.7,104.1c11.4,22.3,28.8,41.4,50.5,55.2c9.7,6.2,20,11.3,30.9,15.2
			c2.3,49.9,38.6,95.6,78.4,117.3c22.1,12,45.9,18.1,70.8,18.1c25.3,0,50.3-6.5,72.7-18.5c1.8,2.6,3.8,5.1,5.9,7.6
			c17.8,21.2,41.2,33.3,69.4,36.1c4.4,0.4,8.9,0.7,13.2,0.7c20.2,0,45.2-4.8,68.2-22.9c24.1,22.6,54.9,36.2,88.1,38.4
			c4.4,0.3,8.9,0.5,13.4,0.5c54.9,0,110.9-22.2,150.9-57.8c26.7,18.4,59.2,28.5,93.9,28.5c39.8,0,79.2-13.3,111-37.5
			c24.9-18.9,42.8-44.7,51.8-74.5c2.8-9.1,4.6-18.4,5.6-27.8c3.4,0.2,6.8,0.2,10.3,0.2l0,0c36.5,0,72-8.5,100-24
			c47.4-26.3,81.6-77.3,86.9-130c2.7-26.1-1.5-53.2-11.8-79.2c38.1-18.8,70.1-49.1,89.9-86.4C1752.9,789.9,1755.4,734.8,1734,683.5z
			"/>
		<g>
			<path class="st1" d="M1680.7,712.3L1680.7,712.3c-20.9-57.9-78.1-78.4-134.5-78.9c-31.3-0.3-62.3,9.3-91.7,22.3
				c10.4-38,1.3-81.4-31-107.3c-43.5-34.9-110.7-35.3-148.3,9.9c-5.6,6.7-11,13.6-16.3,20.5c0.4-21.1-1.8-42.2-8.4-61.9
				c-22.8-68.1-100.7-106.2-168.2-79.7c-34.3,13.4-57.1,38-78.4,65.2c-5.5-10-12.3-19.3-21.4-27.3c-30.6-26.8-74.2-35-112.8-22.8
				c-31.8,10-57,31.9-73.2,60.9c-3.8,6.8-6.7,14.1-9.3,21.5c-3.3-3.3-6.8-6.5-10.5-9.6c-56.1-46.7-136.9-53.3-202.7-24
				c-30.4,13.6-59.5,31.4-84.4,53.8c-15.9,12.4-30.6,26.2-43.8,41.1c-29.3,33.2-55.3,73.9-52.1,120c0,0.4,0.1,0.7,0.1,1.1
				c-2.2,6.7-4.1,13.7-5.5,20.7c-8.1,39.4-2.4,78.8,15.1,114.6c18,36.6,45.4,62.5,79.8,83.7c13.5,8.4,27.8,14.6,42.6,19.2
				c-14.3,28.7-15.2,63.4-0.3,93.7c13.3,27.1,40.3,49.1,70.5,57c0.9,3.4,1.9,6.7,3.1,9.9c0.3,0.7,0.6,1.4,0.9,2.1
				c-0.3,12.8,1.5,25.5,5.4,35.6c10.4,27.1,27.7,45.9,52.8,60.7c32.8,19.4,82.4,15.6,113.5-6.5c7.4-5.2,14.2-11.1,20.8-17.3
				c0.8,0.7,1.7,1.4,2.6,2.1c-0.1,2,0,4.1,0.1,6.2c1.8,35.9,35.1,62.7,70.1,60.7c41.8-2.3,65-35.4,70.7-72.3c1.1-1,2.2-2.1,3.2-3.1
				c2.4,26.1,12.4,49.8,34.2,68.9c26.4,23.1,69,34.4,102.6,20.6c39.2-16.2,74.4-40.2,103-70.2c2.3,2.1,4.7,4.1,7.3,6
				c25.5,18.6,49.1,29.4,80.6,31.8c14.1,1.1,28-0.1,41.4-3.3c6.2-1.4,12-3.2,17.6-5.5c9.4-3.7,18.4-8.5,27-14.3
				c-0.2-0.2-0.4-0.5-0.6-0.7c7.1-5.1,14.1-10.9,21.1-17.3c17.5-15.8,28.1-52.2,25.9-74.9c-1.4-14.1-4.9-27.2-10.8-39.4
				c17.4,6.1,35.9,8.3,56.3,9.1c15.4,0.6,30.7,1.1,46.1,1.6c25.8,0.9,57-17,73.4-35.8c16.6-19,28.4-49.3,25.9-74.9
				c-2.4-24-11-48.6-27.9-66.3c-1-8.1-2.7-16.1-5-24c34.7-8,65.8-25.8,90.8-51C1681.6,810.8,1697.2,758.1,1680.7,712.3z
				 M934.9,861.7c-0.6,0-1.3-0.1-1.9-0.1c0.1-0.5,0.2-0.9,0.3-1.4c0.6,0.3,1.1,0.5,1.7,0.8C934.9,861.2,934.9,861.4,934.9,861.7z"/>
			<path id="path182" class="st2" d="M1697.1,699c-17.2-41-54.9-72-98.1-81.9c-47.8-11-93.2,9.6-136.2,29.7
				c9.6-56-3.6-120-64.6-139.4c-48.7-15.5-96.7,3.4-131.9,36.3c-0.2-20.8-4.4-41-14.8-61.1c-17.1-32.9-46.6-57.2-81.9-68.4
				c-65.9-20.9-133.4,7.3-171.8,61.2c-24.3-40.8-72.9-57.6-121.3-47.1c-44.4,9.7-93,41-106.5,85.8c-6.4-5.3-13.4-10.2-20.7-14.6
				c-49.6-30.1-107.5-39.1-163.4-22.7c-129.7,38-241.9,195.8-211.5,332c17,76.3,76.7,119.8,144.9,146.7
				c-21.5,30.3-23.8,72.2-6.6,105.9c17.5,34.3,53.6,55.1,91.1,57.6c-18.3,41.1,12.7,91.7,52.2,113.2
				c47.4,25.8,103.2,12.1,137.8-25.6c13.1,30.6,26.4,60.3,65.8,64.3c40.7,4.1,64.6-18.6,79.5-48.7c4.1,10.4,9.9,20.3,18.2,29.8
				c18.1,20.6,43.1,33.2,70.6,35.1c58.1,4,125.5-25.2,158.9-74.3c43.1,55.9,127,59,183.3,16.1c37.7-28.7,50.5-76.5,37.4-118.5
				c44.1,14.2,98.4,9.5,135.1-10.8c35.4-19.6,62.4-58.6,66.5-99c3.6-35.2-9.3-69.3-30-97.2C1669.7,884.8,1735.8,791.6,1697.1,699
				L1697.1,699z M1581.4,1007.5c-7.6,33.4-32.7,62.6-64.5,75.1c-38.8,15.3-101.4,13.4-134.7-15.3c-13.1-11.3-28.8,7.7-17.3,19.8
				c34.5,36.4,26.2,95.1-13.9,122.9c-51.8,35.9-123.6,28.4-154-30.4c-4.6-8.8-19-6.9-22.7,1.5c-22,49.5-81.3,77.9-134.2,79.8
				c-25.2,0.9-48.7-8.6-64.9-28.3c-16.1-19.6-18.2-40.9-18.5-65.1c-0.2-15.3-22.7-16.2-26-2c-8.7,36.8-24.5,90-74.3,78.4
				c-31.2-7.2-35.5-42.9-47.2-67.1c-5-10.4-18-12.1-24.3-1.7c-22.9,37.9-70.9,55.1-111.8,36.2c-36.1-16.6-68.9-65.9-32.2-98.5
				c8.1-7.2,0.2-23.9-10.6-21.8c-33.8,6.4-69.6-4.5-89.8-33.8c-19.2-27.8-18.7-73.3,8.4-96.3c6.5-5.6,9-19-1.5-22.7
				c-75.2-26.4-142.1-70-151-156.1c-7.9-76.2,31.3-149.8,81.6-204.4c49.2-53.4,123.3-96.5,198.2-79.5c27.5,6.2,66.8,22.4,89.6,46.9
				c0.2,1.7,0.8,3.4,1.8,5c1.5,3.2,4.1,5.4,7.1,6.4c9.8,15.2,13.1,32.9,4.7,52.9c-6.5,15.6,17,27.4,23.6,11.7
				c13.2-31.5,6.6-59.8-10.4-83.2c0.9-43.6,47-73.2,85.4-83.1c45.3-11.6,91.4,6.2,105.4,53.3c3.3,11.1,19.3,11.7,24.3,1.7
				c27.8-55.7,88.6-88.9,150.3-71.7c28.9,8.1,53.6,27,68.4,53.1c16.5,29.1,15.9,59,9.3,90.8c-3.2,15.6,16.9,20.5,24.7,8.6
				c26.6-41,75.7-72.5,126.3-59.3c60.8,15.9,59,88.1,44.2,135.9c-2.8,9.1,8.3,19.1,17.1,15.2c38.4-17.1,81.3-43.2,124.5-42.4
				c39.2,0.7,77,24.9,95.7,59c19.3,35.1,17,80-1.8,114.8c-22.5,41.7-67.3,64.1-113.5,66.2c-12.2,0.5-15.7,15.2-8,23.1
				C1571,929.8,1590.1,969.3,1581.4,1007.5"/>
			<path id="path187" class="st2" d="M441,706c-17.7,38-15.6,80.1,5.3,116.3c4.2,7.3,15.2,0,10.9-7.4c-18.5-32.1-20-69.5-4.4-103.1
				C456.4,704.2,444.6,698.3,441,706"/>
			<path id="path188" class="st2" d="M469.4,740.1c-7,25.6-3.4,51.4,9.7,74.4c4.2,7.4,15.1,0,10.9-7.4c-11.4-20-13.8-42.2-7.7-64.3
				C484.5,734.6,471.6,732,469.4,740.1"/>
			<path id="path189" class="st2" d="M497.1,753.7c1.1,22.6,7.4,43.7,18.6,63.3c4.2,7.4,15.1,0,10.9-7.3
				c-10-17.6-15.4-36.5-16.4-56.7C509.8,744.5,496.6,745.3,497.1,753.7"/>
			<path id="path190" class="st2" d="M1482.6,1052.3c-28.9,10.1-59.9,2.9-81.5-18.8c-6-6-14.6,3.9-8.7,9.9
				c24.8,24.8,61.3,33,94.4,21.4C1494.8,1062,1490.6,1049.5,1482.6,1052.3"/>
			<path id="path191" class="st2" d="M1367.9,552.2c-33.9-0.2-64.8,15.6-84.3,43.3c-4.8,6.9,5,15.6,9.9,8.7
				c17.7-25.2,44.3-39.1,75.1-38.8C1377.1,565.4,1376.4,552.2,1367.9,552.2"/>
			<path id="path195" class="st2" d="M757.9,449.3c-3.4,7.7,8.4,13.7,11.8,5.9c12.5-28.3,36.9-48.6,67.5-54.5
				c8.2-1.6,7.6-14.7-0.7-13.2C801.3,394.2,772.4,416.3,757.9,449.3"/>
			<path id="path196" class="st2" d="M781.5,371.7c-22.1,8.6-38.1,25.8-45.3,48.3c-2.6,8.1,10.3,10.7,12.9,2.7
				c5.8-17.8,19.2-31.7,36.6-38.5C793.6,381.2,789.5,368.7,781.5,371.7"/>
			<path id="path197" class="st2" d="M1075.5,1191.3c-37.2,23.6-83.4-2.1-84.3-45.8c-0.2-8.5-13.3-7.7-13.2,0.7
				c1.1,54.1,59.4,84.9,104.8,56C1090,1197.7,1082.6,1186.7,1075.5,1191.3"/>
			<path id="path198" class="st2" d="M1110.8,1172.9c-0.8,0.3-1.7,0.6-2.5,0.8c-8,2.7-3.9,15.2,4.2,12.5c0.8-0.3,1.7-0.6,2.5-0.8
				C1123,1182.7,1118.9,1170.2,1110.8,1172.9"/>
			<path id="path267" class="st3" d="M398.1,776.9c-4.4-58.8,20.9-125.4,70.4-184.7c94-112.7,218.9-126.9,304.2-34.6
				c7.5,8.1,11.3,30.9,7.3,43.7c-8.1,25.5,15,41.5,25.4,17.5c8.8-20.2,8.4-33.2-1.9-63.4l-9.8-28.8l8.6-15
				c13.1-22.9,28.5-35.8,56.4-47.1c29.9-12.1,54.7-14,76.4-5.8c18.7,7,39,27.4,45.1,45.1c3.8,11,6,13.3,13.3,14
				c6.8,0.7,9.8-0.6,13.2-5.5c32.1-45.8,46.1-58,79.9-69.4c43.7-14.7,89.1-4.6,119.6,26.6c27.4,28.1,35.8,57.4,29.5,102.9
				c-1.9,13.6-1.3,18.5,2.9,22.4c7,6.5,19.2,2.2,27.8-9.7c22.1-31,58.9-52.8,91.5-54.3c59.5-2.8,90.7,44.8,75.7,115.2
				c-2.6,12-3.6,24.9-2.3,28.8c4.4,12.8,10.5,12.3,43.7-3.3c43.1-20.3,83-31.4,104-28.9c27.4,3.2,47.5,13.1,68.3,33.7
				c18.3,18.1,19.4,19.9,26.4,44.9c9.4,33.4,6.3,60.6-10.6,91.6c-19.6,35.9-50.1,55.6-102.1,65.6c-18.3,3.5-19.9,4.4-21.1,11.4
				c-1,6,2,11.8,14.4,27.9c29.7,38.7,34.6,72.3,15.9,110.5c-18.5,37.9-49,57.8-93.8,61.2c-29.9,2.3-54.9-2.7-81.2-16.1
				c-22.7-11.6-24.6-12-30.8-6c-5.9,5.6-6,7.5-0.9,17.1c24.7,45.7,26.8,64.3,10.7,94.7c-32.3,60.9-126.5,68.1-166.5,12.6
				c-11.5-16-20-22-27.4-19.5c-2.1,0.7-8,8.4-13.2,17.1c-19.8,33-54.7,56.3-98.1,65.6c-64.3,13.7-107.8-16.7-109.9-76.7
				c-0.7-20.2-6.8-27.4-19.5-23.1c-7,2.4-9.7,6.9-14.4,23.8c-15,53.8-43.2,76-75.6,59.3c-13.9-7.2-22.7-19.4-30.6-42.3
				c-7.5-21.7-15.6-31.9-23.2-29.3c-3.2,1.1-13.4,10-22.8,19.9c-29.4,31-64.2,38.1-100.4,20.5c-20.7-10-38.4-28.3-44.4-45.7
				c-3.9-11.2,0.8-30.9,10-42.4c6.5-8.1,8.5-13.7,6.8-18.8c-3.1-9.1-8.7-11.2-25.9-10c-22.9,1.6-47.2-6.2-63.8-20.5
				c-14-12-15.7-14.8-21.6-36c-5.4-19.1-5.7-25.6-1.9-38.8c2.5-8.7,8.7-21.3,13.6-28c16.6-22.1,15.9-23.1-27.5-43.3
				c-44.2-20.6-72.1-41-90.8-66.6C411.9,836.3,400.1,803.8,398.1,776.9L398.1,776.9z M446.8,825.2c2.3,1.8,6.1,1.7,8.5-0.2
				c3.3-2.8,2.7-8.2-3-24.7c-9.3-27.2-10.2-51.4-2.7-74c3.3-9.9,4.6-19.7,2.9-21.8c-10.9-13-25.6,23-24.7,60.4
				C428.2,780.8,440.7,820.2,446.8,825.2L446.8,825.2z M477.5,813.3c3.8,4.6,7.6,6.1,10.9,4.2c4.1-2.4,3.9-6.4-1.6-22.9
				c-4.6-13.8-6.2-25.8-5.1-38.4c0.8-10.1,0.1-19.5-1.6-21c-6.3-5.2-11.9,0.8-13.9,14.8C462.5,775.5,467,800.7,477.5,813.3
				L477.5,813.3z M515.5,818.3c1.4,1.9,5.4,2.4,9,1.2c5.9-2,5.9-3.7-0.9-21.2c-4-10.4-8.8-26.6-10.5-35.9c-2.7-14.3-4.1-17-9-17.2
				c-3.2-0.1-6.6,1.6-7.7,3.7C492.3,757.1,505.4,804.4,515.5,818.3z M1004.4,1201.1c16.1,11.8,44.3,16.3,62.7,10
				c16.7-5.8,21.9-10.2,19.6-17c-1.6-4.5-5.3-4.5-22.3,0.1c-22.7,6.2-34.6,4.1-52.5-9.2c-9-6.7-11.6-11-15.7-26.2
				c-3.5-13.2-6.4-18.8-10.5-20.3c-10.5-4-11.6,10.5-2.4,33.1C989.7,1187.5,994,1193.5,1004.4,1201.1z M951.6,878.6
				c10,0.3,18.5-0.1,18.9-0.7c0.4-0.7-6.7-8.5-15.8-17.3l-16.4-16l-3.2,14.6c-1.7,8.1-2.9,15.6-2.5,16.7
				C933,877.1,941.6,878.3,951.6,878.6L951.6,878.6z M1110.5,1188.1c6.9,0.2,12.5-9.1,8.4-13.9c-1.8-2.1-6.5-2.7-10.6-1.3
				c-5.4,1.8-6.8,4.2-5.2,8.8C1104.3,1185.1,1107.6,1188,1110.5,1188.1L1110.5,1188.1z M1396.2,1049.1c18,17,52.3,25.6,79.8,19.9
				c13.7-2.8,16.4-4.3,16.6-9.3c0.3-8.9-2.9-10-20-6.5c-19.8,4-46.6-2.3-62.8-14.8c-13.6-10.5-15.4-10.8-19.1-3.3
				C1387.7,1041.4,1387.5,1040.9,1396.2,1049.1L1396.2,1049.1z M1288.6,608.5c1.9-0.7,10-7.7,17.9-15.6c14.3-14.3,22.4-18,61.3-27.9
				c7.6-1.9,9.1-3.6,7.4-8.6c-3.3-9.5-33.4-6-55.7,6.6c-25,14-40.1,30.1-36.9,39.3C1283.9,606.4,1286.6,609.1,1288.6,608.5
				L1288.6,608.5z"/>
			<path id="path268" class="st3" d="M398.1,776.9c-4.4-58.8,20.9-125.4,70.4-184.7c94-112.7,218.9-126.9,304.2-34.6
				c7.5,8.1,11.3,30.9,7.3,43.7c-8.1,25.5,15,41.5,25.4,17.5c8.8-20.2,8.4-33.2-1.9-63.4l-9.8-28.8l8.6-15
				c13.1-22.9,28.5-35.8,56.4-47.1c29.9-12.1,54.7-14,76.4-5.8c18.7,7,39,27.4,45.1,45.1c3.8,11,6,13.3,13.3,14
				c6.8,0.7,9.8-0.6,13.2-5.5c32.1-45.8,46.1-58,79.9-69.4c43.7-14.7,89.1-4.6,119.6,26.6c27.4,28.1,35.8,57.4,29.5,102.9
				c-1.9,13.6-1.3,18.5,2.9,22.4c7,6.5,19.2,2.2,27.8-9.7c22.1-31,58.9-52.8,91.5-54.3c59.5-2.8,90.7,44.8,75.7,115.2
				c-2.6,12-3.6,24.9-2.3,28.8c4.4,12.8,10.5,12.3,43.7-3.3c43.1-20.3,83-31.4,104-28.9c27.4,3.2,47.5,13.1,68.3,33.7
				c18.3,18.1,19.4,19.9,26.4,44.9c9.4,33.4,6.3,60.6-10.6,91.6c-19.6,35.9-50.1,55.6-102.1,65.6c-18.3,3.5-19.9,4.4-21.1,11.4
				c-1,6,2,11.8,14.4,27.9c29.7,38.7,34.6,72.3,15.9,110.5c-18.5,37.9-49,57.8-93.8,61.2c-29.9,2.3-54.9-2.7-81.2-16.1
				c-22.7-11.6-24.6-12-30.8-6c-5.9,5.6-6,7.5-0.9,17.1c24.7,45.7,26.8,64.3,10.7,94.7c-32.3,60.9-126.5,68.1-166.5,12.6
				c-11.5-16-20-22-27.4-19.5c-2.1,0.7-8,8.4-13.2,17.1c-19.8,33-54.7,56.3-98.1,65.6c-64.3,13.7-107.8-16.7-109.9-76.7
				c-0.7-20.2-6.8-27.4-19.5-23.1c-7,2.4-9.7,6.9-14.4,23.8c-15,53.8-43.2,76-75.6,59.3c-13.9-7.2-22.7-19.4-30.6-42.3
				c-7.5-21.7-15.6-31.9-23.2-29.3c-3.2,1.1-13.4,10-22.8,19.9c-29.4,31-64.2,38.1-100.4,20.5c-20.7-10-38.4-28.3-44.4-45.7
				c-3.9-11.2,0.8-30.9,10-42.4c6.5-8.1,8.5-13.7,6.8-18.8c-3.1-9.1-8.7-11.2-25.9-10c-22.9,1.6-47.2-6.2-63.8-20.5
				c-14-12-15.7-14.8-21.6-36c-5.4-19.1-5.7-25.6-1.9-38.8c2.5-8.7,8.7-21.3,13.6-28c16.6-22.1,15.9-23.1-27.5-43.3
				c-44.2-20.6-72.1-41-90.8-66.6C411.9,836.3,400.1,803.8,398.1,776.9L398.1,776.9z M446.8,825.2c2.3,1.8,6.1,1.7,8.5-0.2
				c3.3-2.8,2.7-8.2-3-24.7c-9.3-27.2-10.2-51.4-2.7-74c3.3-9.9,4.6-19.7,2.9-21.8c-10.9-13-25.6,23-24.7,60.4
				C428.2,780.8,440.7,820.2,446.8,825.2L446.8,825.2z M477.5,813.3c3.8,4.6,7.6,6.1,10.9,4.2c4.1-2.4,3.9-6.4-1.6-22.9
				c-4.6-13.8-6.2-25.8-5.1-38.4c0.8-10.1,0.1-19.5-1.6-21c-6.3-5.2-11.9,0.8-13.9,14.8C462.5,775.5,467,800.7,477.5,813.3
				L477.5,813.3z M515.5,818.3c1.4,1.9,5.4,2.4,9,1.2c5.9-2,5.9-3.7-0.9-21.2c-4-10.4-8.8-26.6-10.5-35.9c-2.7-14.3-4.1-17-9-17.2
				c-3.2-0.1-6.6,1.6-7.7,3.7C492.3,757.1,505.4,804.4,515.5,818.3z M1004.4,1201.1c16.1,11.8,44.3,16.3,62.7,10
				c16.7-5.8,21.9-10.2,19.6-17c-1.6-4.5-5.3-4.5-22.3,0.1c-22.7,6.2-34.6,4.1-52.5-9.2c-9-6.7-11.6-11-15.7-26.2
				c-3.5-13.2-6.4-18.8-10.5-20.3c-10.5-4-11.6,10.5-2.4,33.1C989.7,1187.5,994,1193.5,1004.4,1201.1z M951.6,878.6
				c10,0.3,18.5-0.1,18.9-0.7c0.4-0.7-6.7-8.5-15.8-17.3l-16.4-16l-3.2,14.6c-1.7,8.1-2.9,15.6-2.5,16.7
				C933,877.1,941.6,878.3,951.6,878.6L951.6,878.6z M1110.5,1188.1c6.9,0.2,12.5-9.1,8.4-13.9c-1.8-2.1-6.5-2.7-10.6-1.3
				c-5.4,1.8-6.8,4.2-5.2,8.8C1104.3,1185.1,1107.6,1188,1110.5,1188.1L1110.5,1188.1z M1396.2,1049.1c18,17,52.3,25.6,79.8,19.9
				c13.7-2.8,16.4-4.3,16.6-9.3c0.3-8.9-2.9-10-20-6.5c-19.8,4-46.6-2.3-62.8-14.8c-13.6-10.5-15.4-10.8-19.1-3.3
				C1387.7,1041.4,1387.5,1040.9,1396.2,1049.1L1396.2,1049.1z M1288.6,608.5c1.9-0.7,10-7.7,17.9-15.6c14.3-14.3,22.4-18,61.3-27.9
				c7.6-1.9,9.1-3.6,7.4-8.6c-3.3-9.5-33.4-6-55.7,6.6c-25,14-40.1,30.1-36.9,39.3C1283.9,606.4,1286.6,609.1,1288.6,608.5
				L1288.6,608.5z"/>
			<path id="path269" class="st3" d="M398.1,776.9c-4.4-58.8,20.9-125.4,70.4-184.7c94-112.7,218.9-126.9,304.2-34.6
				c7.5,8.1,11.3,30.9,7.3,43.7c-8.1,25.5,15,41.5,25.4,17.5c8.8-20.2,8.4-33.2-1.9-63.4l-9.8-28.8l8.6-15
				c13.1-22.9,28.5-35.8,56.4-47.1c29.9-12.1,54.7-14,76.4-5.8c18.7,7,39,27.4,45.1,45.1c3.8,11,6,13.3,13.3,14
				c6.8,0.7,9.8-0.6,13.2-5.5c32.1-45.8,46.1-58,79.9-69.4c43.7-14.7,89.1-4.6,119.6,26.6c27.4,28.1,35.8,57.4,29.5,102.9
				c-1.9,13.6-1.3,18.5,2.9,22.4c7,6.5,19.2,2.2,27.8-9.7c22.1-31,58.9-52.8,91.5-54.3c59.5-2.8,90.7,44.8,75.7,115.2
				c-2.6,12-3.6,24.9-2.3,28.8c4.4,12.8,10.5,12.3,43.7-3.3c43.1-20.3,83-31.4,104-28.9c27.4,3.2,47.5,13.1,68.3,33.7
				c18.3,18.1,19.4,19.9,26.4,44.9c9.4,33.4,6.3,60.6-10.6,91.6c-19.6,35.9-50.1,55.6-102.1,65.6c-18.3,3.5-19.9,4.4-21.1,11.4
				c-1,6,2,11.8,14.4,27.9c29.7,38.7,34.6,72.3,15.9,110.5c-18.5,37.9-49,57.8-93.8,61.2c-29.9,2.3-54.9-2.7-81.2-16.1
				c-22.7-11.6-24.6-12-30.8-6c-5.9,5.6-6,7.5-0.9,17.1c24.7,45.7,26.8,64.3,10.7,94.7c-32.3,60.9-126.5,68.1-166.5,12.6
				c-11.5-16-20-22-27.4-19.5c-2.1,0.7-8,8.4-13.2,17.1c-19.8,33-54.7,56.3-98.1,65.6c-64.3,13.7-107.8-16.7-109.9-76.7
				c-0.7-20.2-6.8-27.4-19.5-23.1c-7,2.4-9.7,6.9-14.4,23.8c-15,53.8-43.2,76-75.6,59.3c-13.9-7.2-22.7-19.4-30.6-42.3
				c-7.5-21.7-15.6-31.9-23.2-29.3c-3.2,1.1-13.4,10-22.8,19.9c-29.4,31-64.2,38.1-100.4,20.5c-20.7-10-38.4-28.3-44.4-45.7
				c-3.9-11.2,0.8-30.9,10-42.4c6.5-8.1,8.5-13.7,6.8-18.8c-3.1-9.1-8.7-11.2-25.9-10c-22.9,1.6-47.2-6.2-63.8-20.5
				c-14-12-15.7-14.8-21.6-36c-5.4-19.1-5.7-25.6-1.9-38.8c2.5-8.7,8.7-21.3,13.6-28c16.6-22.1,15.9-23.1-27.5-43.3
				c-44.2-20.6-72.1-41-90.8-66.6C411.9,836.3,400.1,803.8,398.1,776.9L398.1,776.9z M446.8,825.2c2.3,1.8,6.1,1.7,8.5-0.2
				c3.3-2.8,2.7-8.2-3-24.7c-9.3-27.2-10.2-51.4-2.7-74c3.3-9.9,4.6-19.7,2.9-21.8c-10.9-13-25.6,23-24.7,60.4
				C428.2,780.8,440.7,820.2,446.8,825.2L446.8,825.2z M477.5,813.3c3.8,4.6,7.6,6.1,10.9,4.2c4.1-2.4,3.9-6.4-1.6-22.9
				c-4.6-13.8-6.2-25.8-5.1-38.4c0.8-10.1,0.1-19.5-1.6-21c-6.3-5.2-11.9,0.8-13.9,14.8C462.5,775.5,467,800.7,477.5,813.3
				L477.5,813.3z M515.5,818.3c1.4,1.9,5.4,2.4,9,1.2c5.9-2,5.9-3.7-0.9-21.2c-4-10.4-8.8-26.6-10.5-35.9c-2.7-14.3-4.1-17-9-17.2
				c-3.2-0.1-6.6,1.6-7.7,3.7C492.3,757.1,505.4,804.4,515.5,818.3z M1004.4,1201.1c16.1,11.8,44.3,16.3,62.7,10
				c16.7-5.8,21.9-10.2,19.6-17c-1.6-4.5-5.3-4.5-22.3,0.1c-22.7,6.2-34.6,4.1-52.5-9.2c-9-6.7-11.6-11-15.7-26.2
				c-3.5-13.2-6.4-18.8-10.5-20.3c-10.5-4-11.6,10.5-2.4,33.1C989.7,1187.5,994,1193.5,1004.4,1201.1z M951.6,878.6
				c10,0.3,18.5-0.1,18.9-0.7c0.4-0.7-6.7-8.5-15.8-17.3l-16.4-16l-3.2,14.6c-1.7,8.1-2.9,15.6-2.5,16.7
				C933,877.1,941.6,878.3,951.6,878.6L951.6,878.6z M1110.5,1188.1c6.9,0.2,12.5-9.1,8.4-13.9c-1.8-2.1-6.5-2.7-10.6-1.3
				c-5.4,1.8-6.8,4.2-5.2,8.8C1104.3,1185.1,1107.6,1188,1110.5,1188.1L1110.5,1188.1z M1396.2,1049.1c18,17,52.3,25.6,79.8,19.9
				c13.7-2.8,16.4-4.3,16.6-9.3c0.3-8.9-2.9-10-20-6.5c-19.8,4-46.6-2.3-62.8-14.8c-13.6-10.5-15.4-10.8-19.1-3.3
				C1387.7,1041.4,1387.5,1040.9,1396.2,1049.1L1396.2,1049.1z M1288.6,608.5c1.9-0.7,10-7.7,17.9-15.6c14.3-14.3,22.4-18,61.3-27.9
				c7.6-1.9,9.1-3.6,7.4-8.6c-3.3-9.5-33.4-6-55.7,6.6c-25,14-40.1,30.1-36.9,39.3C1283.9,606.4,1286.6,609.1,1288.6,608.5
				L1288.6,608.5z"/>
			<path id="path270" class="st3" d="M398.1,776.9c-4.4-58.8,20.9-125.4,70.4-184.7c94-112.7,218.9-126.9,304.2-34.6
				c7.5,8.1,11.3,30.9,7.3,43.7c-8.1,25.5,15,41.5,25.4,17.5c8.8-20.2,8.4-33.2-1.9-63.4l-9.8-28.8l8.6-15
				c13.1-22.9,28.5-35.8,56.4-47.1c29.9-12.1,54.7-14,76.4-5.8c18.7,7,39,27.4,45.1,45.1c3.8,11,6,13.3,13.3,14
				c6.8,0.7,9.8-0.6,13.2-5.5c32.1-45.8,46.1-58,79.9-69.4c43.7-14.7,89.1-4.6,119.6,26.6c27.4,28.1,35.8,57.4,29.5,102.9
				c-1.9,13.6-1.3,18.5,2.9,22.4c7,6.5,19.2,2.2,27.8-9.7c22.1-31,58.9-52.8,91.5-54.3c59.5-2.8,90.7,44.8,75.7,115.2
				c-2.6,12-3.6,24.9-2.3,28.8c4.4,12.8,10.5,12.3,43.7-3.3c43.1-20.3,83-31.4,104-28.9c27.4,3.2,47.5,13.1,68.3,33.7
				c18.3,18.1,19.4,19.9,26.4,44.9c9.4,33.4,6.3,60.6-10.6,91.6c-19.6,35.9-50.1,55.6-102.1,65.6c-18.3,3.5-19.9,4.4-21.1,11.4
				c-1,6,2,11.8,14.4,27.9c29.7,38.7,34.6,72.3,15.9,110.5c-18.5,37.9-49,57.8-93.8,61.2c-29.9,2.3-54.9-2.7-81.2-16.1
				c-22.7-11.6-24.6-12-30.8-6c-5.9,5.6-6,7.5-0.9,17.1c24.7,45.7,26.8,64.3,10.7,94.7c-32.3,60.9-126.5,68.1-166.5,12.6
				c-11.5-16-20-22-27.4-19.5c-2.1,0.7-8,8.4-13.2,17.1c-19.8,33-54.7,56.3-98.1,65.6c-64.3,13.7-107.8-16.7-109.9-76.7
				c-0.7-20.2-6.8-27.4-19.5-23.1c-7,2.4-9.7,6.9-14.4,23.8c-15,53.8-43.2,76-75.6,59.3c-13.9-7.2-22.7-19.4-30.6-42.3
				c-7.5-21.7-15.6-31.9-23.2-29.3c-3.2,1.1-13.4,10-22.8,19.9c-29.4,31-64.2,38.1-100.4,20.5c-20.7-10-38.4-28.3-44.4-45.7
				c-3.9-11.2,0.8-30.9,10-42.4c6.5-8.1,8.5-13.7,6.8-18.8c-3.1-9.1-8.7-11.2-25.9-10c-22.9,1.6-47.2-6.2-63.8-20.5
				c-14-12-15.7-14.8-21.6-36c-5.4-19.1-5.7-25.6-1.9-38.8c2.5-8.7,8.7-21.3,13.6-28c16.6-22.1,15.9-23.1-27.5-43.3
				c-44.2-20.6-72.1-41-90.8-66.6C411.9,836.3,400.1,803.8,398.1,776.9L398.1,776.9z M446.8,825.2c2.3,1.8,6.1,1.7,8.5-0.2
				c3.3-2.8,2.7-8.2-3-24.7c-9.3-27.2-10.2-51.4-2.7-74c3.3-9.9,4.6-19.7,2.9-21.8c-10.9-13-25.6,23-24.7,60.4
				C428.2,780.8,440.7,820.2,446.8,825.2L446.8,825.2z M477.5,813.3c3.8,4.6,7.6,6.1,10.9,4.2c4.1-2.4,3.9-6.4-1.6-22.9
				c-4.6-13.8-6.2-25.8-5.1-38.4c0.8-10.1,0.1-19.5-1.6-21c-6.3-5.2-11.9,0.8-13.9,14.8C462.5,775.5,467,800.7,477.5,813.3
				L477.5,813.3z M515.5,818.3c1.4,1.9,5.4,2.4,9,1.2c5.9-2,5.9-3.7-0.9-21.2c-4-10.4-8.8-26.6-10.5-35.9c-2.7-14.3-4.1-17-9-17.2
				c-3.2-0.1-6.6,1.6-7.7,3.7C492.3,757.1,505.4,804.4,515.5,818.3z M1004.4,1201.1c16.1,11.8,44.3,16.3,62.7,10
				c16.7-5.8,21.9-10.2,19.6-17c-1.6-4.5-5.3-4.5-22.3,0.1c-22.7,6.2-34.6,4.1-52.5-9.2c-9-6.7-11.6-11-15.7-26.2
				c-3.5-13.2-6.4-18.8-10.5-20.3c-10.5-4-11.6,10.5-2.4,33.1C989.7,1187.5,994,1193.5,1004.4,1201.1z M951.6,878.6
				c10,0.3,18.5-0.1,18.9-0.7c0.4-0.7-6.7-8.5-15.8-17.3l-16.4-16l-3.2,14.6c-1.7,8.1-2.9,15.6-2.5,16.7
				C933,877.1,941.6,878.3,951.6,878.6L951.6,878.6z M1110.5,1188.1c6.9,0.2,12.5-9.1,8.4-13.9c-1.8-2.1-6.5-2.7-10.6-1.3
				c-5.4,1.8-6.8,4.2-5.2,8.8C1104.3,1185.1,1107.6,1188,1110.5,1188.1L1110.5,1188.1z M1396.2,1049.1c18,17,52.3,25.6,79.8,19.9
				c13.7-2.8,16.4-4.3,16.6-9.3c0.3-8.9-2.9-10-20-6.5c-19.8,4-46.6-2.3-62.8-14.8c-13.6-10.5-15.4-10.8-19.1-3.3
				C1387.7,1041.4,1387.5,1040.9,1396.2,1049.1L1396.2,1049.1z M1288.6,608.5c1.9-0.7,10-7.7,17.9-15.6c14.3-14.3,22.4-18,61.3-27.9
				c7.6-1.9,9.1-3.6,7.4-8.6c-3.3-9.5-33.4-6-55.7,6.6c-25,14-40.1,30.1-36.9,39.3C1283.9,606.4,1286.6,609.1,1288.6,608.5
				L1288.6,608.5z"/>
			<path id="path348" class="st0" d="M456.3,824.3c2.6-2.9,1.6-8-5.4-29.1c-8.5-25.6-8.5-25.7-4.8-48.1
				C455,693,488.9,635,537.4,590.9c28.4-25.9,50.1-38.9,84.6-50.7c25.9-8.9,31.7-10.1,49.9-10c43.8,0.2,101.4,22.9,108.3,42.7
				c3.1,8.9,2.6,23.3-1.2,34.3c-3.2,9.2-2,13.6,6.5,22.4c15.1,15.7,21.2,20.2,27.9,20.3c6.4,0.1,7.6-1,11.8-11.6
				c6.9-17.3,6-34.1-3.1-56.2c-6.5-15.9-7.2-19.5-5.1-27.3c3.9-14.4,16.2-30.5,32-42c20.9-15.1,56.7-25.9,78.2-23.6
				c27.2,2.9,51.3,19.5,58.4,40.1c7.6,22.3,21.2,22.6,35.5,0.8c35.5-53.9,98.9-73.9,151.9-48c41.5,20.3,59.9,57.1,53.6,107.2
				c-2.4,19.2-2.2,22.3,2,25.5c8,6.2,16.3,2.2,30-14.2c16.5-19.7,29.2-28.9,53.3-38.3l19.7-7.7l-14.1,8.7
				c-15.9,9.8-34.4,27.9-36.1,35.3c-0.9,3.8,0.1,5.5,4,7.4c4.7,2.3,6.3,1.3,20.1-12.6c13.5-13.6,16.7-15.7,33-21.2
				c9.9-3.3,21.5-5.9,25.8-5.7c5.6,0.3,8.3-0.6,9.9-3.2c1.7-2.8,4.6-2,12.7,3.8c12.7,8.9,17.8,17.4,23.5,39.1
				c4.4,16.6,3.2,46.4-2.8,66.4c-1.3,4.5-1.5,10.9-0.4,14.1c3.7,10.8,8.6,10.5,39.2-2.6c48.6-20.8,77.4-29.5,95.2-28.7
				c21.5,0.9,51.4,14.5,68,31.1c43.5,43.2,35.1,121.5-17.2,159.5c-17.2,12.5-47.8,24.2-66.2,25.2c-22.9,1.3-25.7,11.5-8.6,31.5
				c9.4,11,12.7,17.2,19.9,37.8c7.8,22.3,8.5,26,6.7,40.1c-2.2,17.8-11.9,37.3-25.4,51.2c-12.7,13.1-25.4,21.6-29.3,19.7
				c-1.7-0.8-6.5-0.3-10.8,1.1c-20,6.9-48.7,1.3-68.3-13.4c-8.9-6.7-13.4-8.5-16.7-6.7c-7.3,3.8-3.7,11.8,9.9,21.8
				c6.9,5.1,11.9,9.5,11.2,9.7c-7.5,2.6-39.7-8.2-52-17.3c-6.9-5.2-10.1-5.9-16.3-3.8c-11.2,3.8-11.7,13.1-1.3,26.1
				c22.9,28.7,19,70.6-9.2,97.8c-8.2,7.9-15.7,12.4-30.9,18.4c-45.7,18.2-88.3,7.4-113.4-28.8c-13.6-19.6-21.7-19.2-33.7,1.5
				c-15.8,27.3-45,48-81.8,58.3c-39.1,10.9-66.7,7.6-88.1-10.5c-16.6-14.1-22.3-25.9-24.3-51c-1.7-21.7-4.5-27-13.7-26.8
				c-8.4,0.2-12.9,5.2-16.2,18c-4.8,18.6-15.9,41.6-24.3,50.2c-15.9,16.5-41.9,17.9-58.4,3.2c-6.7-6-10.5-12.4-17.4-29.8
				c-13-32.6-21.9-37.1-36.2-18.1c-11.9,15.9-22.8,23.7-42.9,30.6c-15.8,5.4-21.3,6.1-34.3,4.5c-27-3.4-50.7-20.4-61.2-43.9
				c-7.7-17.1-6.2-30.4,4.6-43.3c8.4-10,9.8-19.8,3.6-24.8c-2-1.6-9.9-2.6-17.6-2.3c-51.4,2.1-85.5-26.4-85.6-71.3
				c0-13.4,8.3-33.4,19.3-46.2c4.3-5,6-9.6,5.1-13.8c-1.2-5.3-5.4-7.9-26.1-15.9c-28.4-11-59.3-29.6-75.7-45.5
				C464.3,857.4,449.9,831.4,456.3,824.3L456.3,824.3z M481.6,818.7c1.4,0.7,4.5-0.1,6.9-1.9c4-3,3.8-5-2.2-22.5
				c-5.7-16.5-6.3-21.7-4.7-36.5c2.3-20.6,1.5-23.6-5.9-23.5c-4,0.1-6.2,1.8-7.5,5.7c-3.2,9.4-4.2,28.7-2.3,40.8
				C467.9,793.3,477.5,816.5,481.6,818.7L481.6,818.7z M518.8,820.6c2.3,0.5,5.4-0.5,7-2.3c2.2-2.5,1.1-8.4-5.3-27.5
				c-4.5-13.4-8.8-29-9.6-34.6c-1.1-8.4-2.1-10.3-5.6-10.4c-12.6-0.4-12.4,14.1,0.7,49.9C512.5,813.8,515.7,819.9,518.8,820.6
				L518.8,820.6z M996.7,1193.7c10.5,10.9,34.7,21,48.8,20.5c12.6-0.5,38.3-9,40.4-13.3c0.8-1.6,0.4-4.7-0.9-7
				c-1.9-3.4-5.3-3.3-20.3,0.8c-19.3,5.2-29.7,4.6-43.4-2.5c-14-7.3-22.1-18.1-27.6-37.1c-4.3-14.8-5.4-16.7-9.5-16.2
				c-6.3,0.9-8.1,5.5-6.5,16.7C979.8,1168.8,987.3,1183.9,996.7,1193.7L996.7,1193.7z M1109.3,1187.1c8.1,1.3,12.5-3.7,9.2-10.6
				c-3.2-6.6-10.4-6.9-14.2-0.6C1100.8,1181.5,1102.9,1186.1,1109.3,1187.1z"/>
		</g>
	</g>
</g>
</svg>
