<?xml version="1.0" encoding="UTF-8" standalone="no"?>
<!-- Created with Inkscape (http://www.inkscape.org/) -->

<svg
   version="1.1"
   id="svg1"
   width="1493.3549"
   height="1259.5349"
   viewBox="0 0 1493.3549 1259.5349"
   sodipodi:docname="26294462_road_wooden_sign_doodle_illustration_pack.eps"
   xmlns:inkscape="http://www.inkscape.org/namespaces/inkscape"
   xmlns:sodipodi="http://sodipodi.sourceforge.net/DTD/sodipodi-0.dtd"
   xmlns="http://www.w3.org/2000/svg"
   xmlns:svg="http://www.w3.org/2000/svg">
  <defs
     id="defs1" />
  <sodipodi:namedview
     id="namedview1"
     pagecolor="#ffffff"
     bordercolor="#999999"
     borderopacity="1"
     inkscape:showpageshadow="2"
     inkscape:pageopacity="0"
     inkscape:pagecheckerboard="0"
     inkscape:deskcolor="#d1d1d1" />
  <g
     inkscape:groupmode="layer"
     id="layer10"
     inkscape:label="2"
     inkscape:export-filename="../Desktop/portfolio-next-v2/public/images/menu-btn2.svg"
     inkscape:export-xdpi="96"
     inkscape:export-ydpi="96"
     transform="translate(-1727.1036,-1824.4328)">
    <g
       id="g301">
      <path
         id="path33"
         d="m 2367.7442,1855.0072 c -0.1867,-7.92 -5.12,-12.48 -10.52,-12.08 -5.7467,0.4267 -8.6267,4.04 -9.0533,9.36 -0.4134,5.1867 5.2266,10.6 10.4,9.1467 3.84,-1.0934 6.9466,-4.7867 9.1733,-6.4267 z m -399.52,500.5333 c -4.8133,0 -7.16,-0.2 -9.4666,0.04 -17.9067,1.8667 -35.8134,3.8133 -53.7334,5.7467 -16.04,1.72 -31.9333,3.7866 -43.6666,16.8533 -1.5867,1.76 -3.9867,2.7867 -5.92,4.2667 -15,11.4666 -29.9734,22.9466 -46.04,35.2666 3.04,0.7734 3.96,1.32 4.7466,1.16 34.9067,-6.7066 69.7867,-13.6 104.72,-20.2 9.9334,-1.8666 18.2534,-5.6266 24.6534,-13.96 7.0933,-9.2533 15.0533,-17.8533 24.7066,-29.1733 z m 1168.2533,426.6133 c -1.12,-0.2933 -2.2266,-0.6 -3.3333,-0.8933 -1.3067,1.6667 -3.8267,3.4 -3.72,4.9733 2.44,38.6134 9.8933,76.4001 17.52,116.3867 17.6267,-10.9066 32.88,-20.3333 47.7067,-29.5066 -6.28,-29.4934 -12.32,-57.9067 -18.7734,-88.2134 -4.8933,-1.6133 -11.88,-3.8933 -21.04,-6.8933 0.96,11.0666 1.8134,19.2266 2.32,27.4 0.4134,6.7866 1.4134,13.7733 0.16,20.2933 -0.5733,3 -5.6933,6.4934 -9.1866,7.0534 -1.9867,0.32 -5.3467,-4.5467 -7.1334,-7.64 -1.08,-1.8667 -0.16,-4.8001 -0.4266,-7.2134 -1.32,-11.92 -2.72,-23.8267 -4.0934,-35.7467 z m -0.2533,-327.44 c -9.0667,-46.48 -20.0267,-90.72 -15.8,-137.2666 -14.3333,12.9333 -27.3067,26.4266 -40.48,39.84 -17.08,17.3866 -18.7467,38.7866 -17.4267,59.5866 1.1867,18.9067 9.12,37.4 14.64,58.1467 20.3867,-7.0133 38.6134,-13.28 59.0667,-20.3067 z m -34,-148.44 c -0.32,-1.1733 -0.6533,-2.36 -0.9733,-3.5333 -5.6934,0 -11.4,-0.2133 -17.08,0.04 -18.04,0.8133 -36.0934,1.64 -54.1067,2.76 -13.64,0.84 -27.24,2.0533 -40.8533,3.2267 -31.0667,2.68 -62.1467,5.4266 -93.2134,8.2 -3.0666,0.2666 -6.1066,0.8533 -9.16,1.28 -0.56,1.0533 -1.12,2.0933 -1.68,3.1333 5.24,4.36 11.04,8.2 15.5734,13.2133 6.0666,6.6934 12.9333,8.7467 21.8666,9.4 22.3467,1.6267 44.5734,4.7734 66.84,7.3467 18.88,2.1867 37.76,4.44 56.6534,6.64 6.1333,0.72 10.6933,-0.6667 15.2,-6.0267 11.5866,-13.8533 24.2933,-26.76 36.52,-40.0933 1.6,-1.7467 2.9466,-3.72 4.4133,-5.5867 z m 35.84,209.4667 c 3.3467,4.4533 8.4133,8.68 7.64,10.6667 -1.8267,4.72 -6.4,8.3866 -9.6267,12.1866 0.6534,11.9067 1.2934,24.04 1.9734,36.1734 0.2666,4.8666 0.16,9.8133 1.0133,14.5866 3.5067,19.7067 3.64,38.8134 -7.4133,53.4534 4.5333,10.2666 10.1466,18.24 11.4,26.84 2.4666,16.8266 2.3333,34.0266 3.6133,51.04 0.9067,12.0533 2.3733,24.0666 3.56,35.8133 17.6933,6.28 34.1733,12.12 51.6267,18.32 0.24,-4.4 0.7733,-7.28 0.52,-10.0933 -2.7067,-29.5734 -5.9334,-59.0934 -8.16,-88.6934 -0.9067,-12.1066 -1.8267,-24.8933 1.0533,-36.4266 3.16,-12.6 4.12,-24.92 4.12,-37.6134 0.013,-17.12 0.2533,-34.2533 0.3333,-51.3733 0.053,-10.9733 0.013,-21.9333 0.013,-33.5867 -2.5334,0.6 -5.3067,1.1334 -8.0134,1.9334 -9.36,2.7733 -18.72,5.56 -28.0266,8.4933 -5.08,1.6133 -8.8267,0.16 -10.6267,-4.7467 -1.7467,-4.7333 -0.1067,-8.84 4.3867,-11.1466 3.4533,-1.76 7.2933,-2.76 10.92,-4.1734 4.7866,-1.8666 9.5333,-3.8 15.7466,-6.28 -40.44,-10.9333 -77.52,-2.6266 -114.7066,8.3867 19.2133,6.1733 38.4133,12.3467 57.2266,18.4 3.52,-3.7467 6.76,-7.1867 11.4267,-12.16 z m -258.48,-175.4267 c -11.2,-11.8533 -18.8933,-21.12 -34.72,-21.0133 -111.5733,0.7867 -223.16,0.48 -334.7333,0.96 -24.8934,0.1067 -49.8,1.48 -74.64,3.1467 -33.56,2.24 -67.0267,5.6933 -100.5867,7.9333 -36.0266,2.4133 -72.12,3.9333 -108.16,6.04 -31.1733,1.8133 -62.32,3.92 -93.48,5.8533 -34.5733,2.1334 -69.16,4.1334 -103.7333,6.3734 -9.72,0.6266 -19.4267,1.68 -29.08,2.9466 -2.72,0.36 -5.96,1.5067 -7.7333,3.4267 -9.7867,10.6667 -19.2,21.6933 -30.5467,34.6533 25.9467,-3.56 48.9867,-6.68 72,-9.9066 31.84,-4.4667 63.6133,-9.3867 95.5067,-13.4134 29.0133,-3.6666 58.1333,-6.48 87.2266,-9.4933 36.84,-3.8267 73.68,-7.7467 110.56,-11.08 26.72,-2.4 53.4933,-4.32 80.28,-5.7467 43.3867,-2.2933 86.8,-5.2266 130.2267,-5.7066 85.1466,-0.92 170.2933,-0.3734 255.4533,-0.28 6.7867,0 13.5733,1.3333 20.3733,1.7333 20.9067,1.2133 41.8267,2.28 65.7867,3.5733 z m -805.28,-12.2266 c 21.04,-1.24 39.0667,-2.2534 57.0934,-3.36 41.0266,-2.52 82.0666,-5.1067 123.1066,-7.6 40.0534,-2.44 80.12,-4.8934 120.1867,-7.1334 47.8933,-2.68 95.76,-6.5866 143.6933,-7.3466 79.7733,-1.2667 159.5867,-0.4534 239.3867,-0.5067 4.72,0 9.44,0 17.8533,0 -126.4267,-137.84 -250.48,-273.08 -375.2933,-409.1733 -109.0267,145.5066 -216.8667,289.4266 -326.0267,435.12 z m 1035.52,459.5066 c -4.7333,0 -9.1067,-0.3733 -13.3867,0.067 -22.36,2.28 -44.72,4.72 -67.0666,7.1734 -9.76,1.08 -15.8134,-1.5334 -16.8534,-7.4667 -1.0266,-5.8667 3.6534,-9.6933 14.4667,-10.8267 23.36,-2.44 46.7733,-4.3466 70.12,-6.92 8.6933,-0.9466 17.2667,-3.04 25.88,-4.7466 7.8133,-1.56 9.5067,-6.52 8.8,-14.0667 -2.3067,-24.32 -4.1333,-48.7067 -5.8533,-73.0933 -0.5067,-7.16 -2.4534,-12.9334 -8.12,-18 -11.68,-10.4267 -11.9067,-12.6 -2.4934,-25.7467 6.36,-8.8933 8.64,-18.1467 7.56,-28.9333 -1.4666,-14.6 -2.12,-29.2667 -2.9866,-43.92 -0.96,-16.2534 -1.48,-17.9467 -17.6134,-22.4534 -27.7466,-7.7466 -55.84,-14.2266 -83.6266,-21.8666 -10.88,-2.9867 -21.1734,-2.0667 -31.6934,0.8133 -34.4266,9.4133 -68.8666,18.7867 -103.32,28.1733 -3.2933,0.8934 -6.7066,2.6134 -9.9066,2.3067 -2.9734,-0.28 -7.52,-2.2133 -8.1867,-4.3867 -0.9333,-3.0533 -0.053,-8.1733 2.12,-10.2933 2.8933,-2.8267 7.64,-4.1067 11.8133,-5.1867 55.8134,-14.5866 111.6667,-29 167.4934,-43.52 4.0933,-1.0533 8.0533,-2.5733 12.7066,-4.0933 -4.9466,-18.1867 -11.3333,-34.8667 -13.6666,-52.0933 -2.3067,-17 -0.5067,-34.56 -0.5067,-52.6534 -36.48,-2.5466 -72.3867,-10.6533 -110.8533,-11.7866 5.5466,8.6533 10.4533,12.8666 18.9333,13.0933 5.1333,0.1467 10.5467,2.3733 15.1867,4.8533 8.9866,4.8267 14.12,14.8267 12.1733,23.12 -2.88,12.2934 -11.4933,18.8934 -23.2933,21.8134 -13.0667,3.2533 -27.48,-1.44 -34.1467,-11.4 -6.6267,-9.88 -4.92,-19.4134 1.92,-28.5334 0.4933,-0.6533 0.3067,-1.8133 0.5733,-3.76 -4.1866,-3.8933 -9.32,-7.76 -13.3066,-12.5866 -6.8267,-8.2534 -15.6534,-11.0267 -25.76,-11.6934 -16.1067,-1.0666 -32.1734,-2.8933 -48.2934,-3.4 -44.5066,-1.4133 -89.0266,-2.9066 -133.56,-3.2666 -50.92,-0.4267 -101.8933,-0.92 -152.76,0.9066 -70.8933,2.5334 -141.72,6.7734 -212.5333,11.12 -35.6266,2.1734 -71.1866,5.64 -106.68,9.4934 -45.68,4.9466 -91.32,10.44 -136.8666,16.4933 -48.4667,6.44 -96.8134,13.7067 -145.16,20.9467 -3.9734,0.6 -8.44,2.8666 -11.2,5.7733 -8.7067,9.16 -16.7067,19 -24.56,28.08 9.1466,26.9467 -3.0534,47.5867 -28.6534,49.52 -10.8533,0.8133 -20.5066,-2.8 -26.4,-12.6 -5.9066,-9.84 -4.56,-19.7733 1.7067,-29.0267 6.0933,-9.0133 14.8933,-15.12 25.5467,-15.2933 13.5866,-0.2133 18.5466,-9.1467 25.56,-20.0267 -42.68,7.8134 -83.2267,15.2934 -124.36,26.1734 29.0933,44.64 48.1066,92.16 64.52,140.7333 6.48,0 11.3466,0.093 16.2133,-0.013 35.7333,-0.8133 71.4667,-1.76 107.1867,-2.4667 19.0933,-0.3866 38.2,-0.4266 57.2933,-0.56 5.4267,-0.04 10.1067,1.8134 10.48,7.8534 0.4,6.7466 -4.1733,9.36 -10.32,9.7333 -1.4667,0.08 -2.9467,0.1067 -4.4133,0.1333 -49.4267,1 -98.8667,2.0934 -148.2934,2.96 -37.72,0.6534 -75.24,3.56 -112.5466,9.1467 -6.0934,0.9067 -12.08,2.5867 -19.28,4.1733 7.36,80.2 5.7866,159.16 -4.2134,238.6668 16.0667,1.8933 30.6534,3.1733 45.08,5.4 34.32,5.2933 68.56,11.04 102.84,16.5866 11.5867,1.8667 23.2,3.5867 34.76,5.5867 5.2667,0.9067 9.52,3.68 9.0134,9.6667 -0.52,6.0133 -4.96,7.9733 -10.52,7.6933 -3.4134,-0.16 -6.8667,-0.2533 -10.24,-0.7867 -15.4534,-2.44 -30.8534,-5.12 -46.3067,-7.5466 -9.9067,-1.56 -19.8667,-2.84 -30.5333,-4.3467 -1.7734,32.12 -9.7067,61.3067 -18.1867,90.36 -6.9867,23.92 -14.32,47.76 -21.24,71.7067 -1.4267,4.9066 -1.7467,10.1466 -2.84,16.8933 12.08,0.3067 22.32,1.3467 32.44,0.68 43.5067,-2.84 86.6133,-8.5467 129.0267,-18.9867 68.44,-16.8533 137.7733,-28.9333 207.5066,-38.96 52.28,-7.5066 104.7067,-14.2 156.7867,-22.92 62.2133,-10.4133 124.2666,-21.84 186.1333,-34.1466 110.64,-22.0134 222.5467,-33.72 334.96,-39.2 80.6267,-3.9334 161.5067,-2.8134 242.28,-3.7067 10.2533,-0.12 20.5067,1.3333 30.7733,1.8133 3.6267,0.1734 7.28,-0.36 11.4934,-0.6133 -6.2934,-40.9067 -12.3867,-80.48 -18.7467,-121.8134 z m -841.68,-747.5733 c 3.3067,-3.9067 6.6,-7.8133 9.9067,-11.72 -0.8933,-0.68 -1.7867,-1.3733 -2.6667,-2.0667 -3.08,3.92 -6.16,7.84 -9.24,11.7467 -11.96,14.12 -23.92,28.2267 -35.8933,42.3467 -72.1467,83.44 -144.2933,166.88 -218.2133,252.36 11.12,-0.5734 19.2666,-1.2667 27.4133,-1.3334 7.4933,-0.053 12.48,-3.12 17.0267,-9.2266 59,-79.2267 118.24,-158.2534 177.4266,-237.3467 11.4134,-14.92 22.8267,-29.84 34.24,-44.76 z m 314.08,20.76 c -5.7467,-5.84 -11.4933,-11.6933 -17.24,-17.5467 -0.6133,0.6134 -1.2133,1.24 -1.8267,1.8534 6.2667,6.24 12.52,12.4933 18.7867,18.7333 5.3333,5.7067 10.68,11.4133 16.0267,17.12 26.64,29.3467 53.2,58.76 79.9466,88.0133 37.6534,41.2 75.4,82.2934 113.2267,123.3334 3.2267,3.4933 7.16,8.5466 11.04,8.8 10.76,0.72 21.88,1.7066 34.2533,-2.0267 -5.3733,-5.1333 -9.5466,-9.1733 -13.7733,-13.1333 -55.32,-51.9467 -110.5867,-103.9334 -165.9867,-155.8 -18.5466,-17.36 -37.4,-34.3867 -56.1066,-51.56 -6.12,-5.9334 -12.24,-11.8534 -18.3467,-17.7867 z m 615.7867,735.7867 c 1.2533,9.4266 1.9333,19.1333 3.9466,28.5467 2.6534,12.4133 6.3867,24.6 9.6134,36.8933 3.9066,14.9067 2.36,19.7067 -10.72,28.3067 -11.84,7.7866 -24.9467,13.88 -36.0134,22.6 -17.76,13.9866 -37.0666,15.2533 -58.84,14.8533 -71.9333,-1.32 -143.9333,-1.2933 -215.8666,0.08 -88.16,1.6667 -175.92,10.3333 -263.2534,21.88 -53.2933,7.0533 -106.16,17.4267 -159.1066,26.9333 -53.4134,9.5867 -106.52,20.9467 -160.0667,29.6934 -56.4533,9.2266 -113.2533,16.3333 -169.9066,24.28 -59.1334,8.3066 -117.5734,20.08 -175.6267,33.9066 -47.7067,11.3734 -95.9867,18.6934 -145.12,19.4134 -7.32,0.1066 -14.68,-0.4134 -21.96,-1.2267 -13.56,-1.52 -18.36,-7.3067 -15.9867,-20.56 2.16,-11.9867 5.1067,-23.8933 8.6267,-35.5733 12.1333,-40.2534 25.64,-80.1467 31.9733,-121.9067 1.08,-7.08 1,-14.3333 1.56,-23.0667 -26.1066,-3.1466 -50.76,-6.1333 -75.4,-9.0666 -2.4266,-0.2934 -4.9066,-0.16 -7.3333,-0.4667 -9.4667,-1.2267 -11.9733,-3.7467 -11.3333,-13.32 0.9733,-14.64 2.4,-29.2667 3.96,-43.8534 4.9866,-46.3333 6.7733,-92.7733 4.2666,-139.3066 -1.16,-21.4667 -3.0266,-42.8934 -4.6,-64.3467 -0.6666,-9.08 1.88,-12.5467 12.76,-14.0667 25.6667,-3.6133 51.4134,-6.6666 77.1334,-9.9333 3.8,-0.4933 7.6,-0.96 12.4933,-1.5733 -0.8667,-3.84 -1.3733,-7.0534 -2.3333,-10.1067 -9.9467,-31.3333 -22.8,-61.4933 -38.64,-90.2267 -7.48,-13.5866 -16.8134,-26.2533 -26.1867,-38.68 -6.68,-8.88 -7.3333,-12.2266 1.56,-19.12 32.88,-25.48 65.8267,-50.8666 99.0533,-75.88 3.9867,-3.0133 9.72,-4.5066 14.8267,-5.1066 31.1067,-3.6267 62.2533,-7.0267 93.4267,-9.96 7.8933,-0.7467 13.36,-3.64 18.56,-9.6667 125.32,-145.4 250.84,-290.6133 376.2799,-435.8933 2.4267,-2.8134 4.4534,-5.9467 8.5334,-11.44 -8.16,0 -13.7734,0.04 -19.3867,0 -14.2133,-0.12 -24.68,-8.1334 -27.8933,-21.3067 -2.9334,-12.0533 3.3333,-25.2266 14.64,-30.7466 12,-5.8667 26.48,-3.5867 34.2133,7.8933 27.4933,40.76 65.6133,71.1466 100.76,104.3333 123.92,116.9733 248.3867,233.3733 372.3867,350.2667 7.3333,6.92 14.3733,10.4 24.4933,9.56 33.1733,-2.76 66.36,-5.3467 99.5867,-7.2134 45.92,-2.5866 91.8666,-5.2266 137.8266,-6.36 25.3334,-0.6266 27.7467,1.6 25.08,26.92 -4.76,45.1334 2.9867,88.64 13.0934,132.04 2.6,11.1734 2.96,21.2 -7.28,31.2667 12.68,1.92 23.5733,3.4533 34.4266,5.2533 9.6534,1.6 19.32,3.2 28.84,5.3867 9.3734,2.16 11.4934,4.9467 11.2534,14.2 -1.0934,41.0533 -2.3467,82.1067 -3.56,123.1733 -0.04,1.4667 0.2266,3.1067 -0.3067,4.3734 -10.1333,23.5333 -3.1467,47.16 -0.8667,70.8666 2.24,23.3334 3.7734,46.76 4.8134,70.1734 0.6933,15.4933 -6.1467,23.4 -22.4,26.88"
         style="fill:#890e2d;fill-opacity:1;fill-rule:nonzero;stroke:none;stroke-width:0.133333" />
      <path
         id="path34"
         d="m 2018.8376,2910.2605 c 3.8533,-5.1466 7.1466,-7.6933 7.8,-10.8133 1.08,-5.12 -2.5867,-8.9733 -7.5067,-8.32 -2.8933,0.3867 -7.4133,4.44 -7.4267,6.8533 0,3.2934 3.6,6.6 7.1334,12.28 z m 578.2933,-344.0133 c -4.3867,5.4933 -7.92,8.1466 -8.8534,11.5333 -1.32,4.7867 1.84,8.56 6.9067,8.9467 4.96,0.3733 8.88,-2.76 8.5733,-7.6134 -0.2133,-3.4533 -3.32,-6.7333 -6.6266,-12.8666 z m 392.4666,225.56 c -5.04,-4.2534 -7.6666,-8.0534 -11.0666,-8.9467 -4.8,-1.2667 -8.2,2.08 -8.48,7.28 -0.28,5.04 2.4,9.04 7.36,8.6133 3.4266,-0.2933 6.5866,-3.6 12.1866,-6.9466 z m -214.28,-363.0267 c 3.6134,-5.6533 7.12,-8.8 7.52,-12.3067 0.5467,-4.88 -3.4666,-8.04 -8.4533,-7.8666 -5.1067,0.1866 -8.5733,3.88 -7.56,8.6533 0.7333,3.4533 4.44,6.2667 8.4933,11.52 z m -827.3199,584.6934 c -5.8934,-3.2667 -9.2134,-6.5467 -12.6534,-6.68 -4.8133,-0.1867 -7.9066,3.8666 -7.4266,8.88 0.4933,4.9866 4.12,8.5466 8.9466,7.2133 3.3867,-0.9333 5.96,-4.8533 11.1334,-9.4133 z m 520.3199,-79.5867 c -5.8666,-4.0533 -8.8133,-7.4533 -12.2933,-8.1467 -4.92,-0.9733 -8.2667,2.5467 -8.7467,7.6134 -0.4933,5.1466 2.4,9.36 7.32,8.7733 3.8667,-0.48 7.3334,-4.2267 13.72,-8.24 z m 306.7067,-368.9734 c 4.1333,-0.2533 9.7733,-0.4533 10.4533,-7.7733 0.5867,-6.16 -4.5866,-10.0667 -13.0933,-10.1733 -8.5067,-0.093 -13.9067,3.8133 -13.4933,9.76 0.3866,5.6133 5.3333,8.36 16.1333,8.1866 z m 308.6133,-12.6266 c -6.84,-0.6134 -11.24,2.32 -11.5866,7.7333 -0.3734,5.76 5.3733,10.28 14.3866,11.3467 6.36,0.7466 11.2934,-2.5734 11.6,-7.7867 0.3467,-5.7067 -5.8,-10.5333 -14.4,-11.2933 z m -1008.5866,47.3066 c 0.013,-0.1866 0.027,-0.3733 0.04,-0.56 2.92,0 6.36,0.9867 8.6133,-0.2266 3.44,-1.8534 7.9067,-4.8134 8.6134,-8.0267 1.2133,-5.56 -3.2667,-8.8267 -8.8267,-9.0533 -6.2933,-0.2667 -12.7867,-0.76 -18.8267,0.5466 -2.7466,0.5867 -5.92,5.0534 -6.4133,8.16 -0.36,2.24 2.8533,6.2267 5.4267,7.4667 3.2933,1.6 7.5466,1.2133 11.3733,1.6933 z m 1001.08,200.5467 c -10,1.4933 -17.7067,2.2267 -25.2134,3.92 -5.28,1.1867 -8.9866,5.5067 -6.72,10.72 1.3467,3.0667 6.2667,6.3733 9.6267,6.4267 7.6133,0.093 15.32,-1.4534 22.88,-2.9334 5.16,-1.0133 9.7067,-4.5066 7.64,-10.0666 -1.3467,-3.6534 -6.0533,-6.0667 -8.2133,-8.0667 z m -342.4667,-377.4533 c -0.16,0 2.76,0.1333 5.6533,-0.027 5.32,-0.3067 9.72,-2.32 10.2267,-8.2267 0.52,-6.04 -3.6133,-8.8667 -8.8933,-9.4667 -7.6934,-0.88 -15.4667,-1.2933 -23.2134,-1.5066 -4.9066,-0.1334 -8.4533,2.4 -9.2266,7.4666 -0.92,5.9734 2.6933,9.28 7.9066,10.3467 4.7067,0.96 9.64,0.84 17.5467,1.4133 z m 96.5067,116.7733 c -7.1067,1.1867 -13.6267,1.4667 -19.48,3.6133 -2.8267,1.04 -6.6667,6.3334 -6,8.3467 1.1333,3.36 5.4533,7.8667 8.5333,7.9467 9.2,0.24 18.6133,-0.72 27.5867,-2.7467 3.16,-0.7067 7.5466,-6.0533 7.2933,-8.92 -0.2667,-2.9733 -5.08,-6.3333 -8.6267,-7.9867 -2.8,-1.2933 -6.68,-0.2533 -9.3066,-0.2533 z m -857.48,347.2534 c -0.027,0.16 -0.04,0.3066 -0.053,0.4666 -1.9467,-0.1333 -3.8934,-0.2266 -5.8267,-0.4133 -1.4533,-0.1467 -2.8933,-0.4267 -4.3467,-0.6133 -5.5866,-0.7067 -9.9333,1.2933 -11.04,6.9733 -1.16,5.92 2.92,9.6 8,10.3067 10.5734,1.4666 21.2934,2.2 31.9734,2.5733 4.7066,0.1733 8.4533,-2.5867 9.0133,-7.8133 0.5867,-5.3734 -2.8533,-8.4134 -7.44,-9.2667 -6.6667,-1.24 -13.52,-1.52 -20.28,-2.2133 z m 1074.5733,-325.1867 c 6.3067,0.6933 11.9067,-0.1467 12.88,-6.96 0.96,-6.6934 -4.3333,-9.08 -9.8,-10.6134 -0.4667,-0.1333 -0.96,-0.1733 -1.44,-0.2533 -22.68,-3.4933 -45.36,-6.96 -68.04,-10.4933 -6.1333,-0.9467 -11.24,0.8666 -12.3467,7.2133 -1.1733,6.76 4.24,9.6267 9.76,10.52 23.1067,3.7733 46.2934,7.1467 68.9867,10.5867 z m -414.92,352.0667 c 31.2933,-3.04 64.4133,-6.1867 97.4933,-9.5467 3.3334,-0.3333 6.8667,-1.2667 9.7334,-2.9333 5.9066,-3.44 5.68,-11.2 -0.48,-14.0667 -2.88,-1.3333 -6.64,-1.5467 -9.9067,-1.2533 -29.72,2.72 -59.4267,5.6933 -89.1333,8.5333 -7.3067,0.6933 -14.8267,0.4133 -21.8667,2.1333 -3.4,0.8267 -7.76,4.8534 -8.44,8.12 -1.1867,5.7067 3.4133,8.6534 9.0133,8.9734 3.9067,0.2266 7.84,0.04 13.5867,0.04 z m -370.8666,53.8266 c 5.9333,-0.6133 8.8666,-0.7866 11.76,-1.2266 40.9466,-6.2934 81.8799,-12.6134 122.8266,-18.92 9.64,-1.4934 19.2933,-2.8 28.8933,-4.4934 5.32,-0.9333 9.36,-4 8.52,-9.9066 -0.8266,-5.8134 -5.36,-7.7067 -10.84,-7.4534 -2.44,0.12 -4.8933,0.2134 -7.2933,0.5734 -50.6133,7.72 -101.2266,15.44 -151.8133,23.2666 -3.3067,0.5067 -7.16,1.1334 -9.5067,3.1467 -2.16,1.8533 -3.6666,5.7467 -3.4666,8.6133 0.1333,2.1467 3.08,4.8534 5.4,5.8934 2.4533,1.0933 5.6533,0.5066 5.52,0.5066 z m -280.16,48.2267 c 1.5333,-0.3733 3.4266,-0.88 5.3333,-1.2667 20.5333,-4.2133 41,-8.8666 61.64,-12.52 50.9067,-9.0133 101.8933,-17.5466 152.84,-26.32 3.3467,-0.5733 7.3333,-0.5466 9.76,-2.4266 2.6667,-2.0667 5.6667,-6.3067 5.2267,-9.0667 -0.44,-2.7067 -4.7467,-6.0133 -7.88,-6.7333 -4.08,-0.92 -8.72,0.1733 -13.04,0.8933 -45.7067,7.6533 -91.4534,15.1067 -137.08,23.2533 -26.4,4.7067 -52.6134,10.5067 -78.88,15.9467 -5.4534,1.1333 -11.08,3.1333 -10.2534,10.1067 0.7867,6.56 6.0134,8.24 12.3334,8.1333 z m 453.5466,-447.44 c 0,0.6666 0,1.3333 0.013,1.9866 -23.9866,0 -47.96,-0.3466 -71.92,0.08 -53.8133,0.9467 -107.5333,3.3334 -160.8933,10.88 -2.8933,0.4134 -6.6666,-0.1866 -8.5066,1.4134 -2.92,2.5733 -5.96,6.5066 -6.2134,10.04 -0.1466,1.9866 5.0134,5.7466 8.1867,6.2533 5.1733,0.8267 10.6933,-0.1867 16.04,-0.7067 25.7733,-2.4533 51.48,-6.1733 77.3067,-7.2666 45.4399,-1.9467 90.9466,-2.56 136.4266,-3.24 41.0933,-0.6134 82.1867,-0.5734 123.2933,-0.8534 3.4134,-0.027 7.44,0.8267 10.08,-0.6666 3.3867,-1.92 6.9734,-5.4534 7.88,-8.9734 0.4934,-1.8533 -4.0933,-6.5066 -7.1333,-7.4533 -5,-1.5467 -10.6133,-1.4267 -15.9733,-1.44 -36.1867,-0.1067 -72.3867,-0.053 -108.5867,-0.053 z m 108.28,-145.1467 c 0,-0.3067 0,-0.5867 0,-0.88 44.0533,0 88.12,0 132.1867,-0.013 2.9333,0 6.4266,0.8667 8.6533,-0.4133 2.9867,-1.7067 6.7333,-5.0134 6.92,-7.84 0.1733,-2.8 -3.0667,-7.16 -5.9067,-8.4934 -3.7466,-1.76 -8.5733,-1.6666 -12.9333,-1.64 -82.72,0.3734 -165.48,-0.6266 -248.1333,1.7867 -65.4934,1.9067 -130.9467,6.9067 -196.24,12.56 -74.56,6.4533 -148.9333,15.08 -223.36,22.9333 -15.08,1.5867 -30.0933,3.7867 -45.0933,5.9467 -10.2267,1.4667 -15.1734,5.92 -13.76,11.72 1.2933,5.3733 6.6533,7.4933 15.8666,6.32 6.3067,-0.8 12.6134,-1.5333 18.9334,-2.28 46.1066,-5.44 92.16,-11.4 138.3333,-16.1733 47.6533,-4.9067 95.4,-9.0134 143.16,-12.8267 49.6933,-3.9733 99.4133,-8.3867 149.2133,-10.3467 43.9867,-1.7333 88.1067,-0.36 132.16,-0.36 z m 566.68,364.5333 c 6.36,41.3334 12.4533,80.9067 18.7467,121.8134 -4.2134,0.2533 -7.8667,0.7867 -11.4934,0.6133 -10.2666,-0.48 -20.52,-1.9333 -30.7733,-1.8133 -80.7733,0.8933 -161.6533,-0.2267 -242.28,3.7067 -112.4133,5.48 -224.32,17.1866 -334.96,39.2 -61.8667,12.3066 -123.92,23.7333 -186.1333,34.1466 -52.08,8.72 -104.5067,15.4134 -156.7867,22.92 -69.7333,10.0267 -139.0666,22.1067 -207.5066,38.96 -42.4134,10.44 -85.52,16.1467 -129.0267,18.9867 -10.12,0.6667 -20.36,-0.3733 -32.44,-0.68 1.0933,-6.7467 1.4133,-11.9867 2.84,-16.8933 6.92,-23.9467 14.2533,-47.7867 21.24,-71.7067 8.48,-29.0533 16.4133,-58.24 18.1867,-90.36 10.6666,1.5067 20.6266,2.7867 30.5333,4.3467 15.4533,2.4266 30.8533,5.1066 46.3067,7.5466 3.3733,0.5334 6.8266,0.6267 10.24,0.7867 5.56,0.28 10,-1.68 10.52,-7.6933 0.5066,-5.9867 -3.7467,-8.76 -9.0134,-9.6667 -11.56,-2 -23.1733,-3.72 -34.76,-5.5867 -34.28,-5.5466 -68.52,-11.2933 -102.84,-16.5866 -14.4266,-2.2267 -29.0133,-3.5067 -45.08,-5.4 10,-79.5067 11.5734,-158.4667 4.2134,-238.6667 7.2,-1.5867 13.1866,-3.2667 19.28,-4.1734 37.3066,-5.5866 74.8266,-8.4933 112.5466,-9.1466 49.4267,-0.8667 98.8667,-1.96 148.2934,-2.96 1.4666,-0.027 2.9466,-0.053 4.4133,-0.1334 6.1467,-0.3733 10.72,-2.9866 10.32,-9.7333 -0.3733,-6.04 -5.0533,-7.8933 -10.48,-7.8533 -19.0933,0.1333 -38.2,0.1733 -57.2933,0.56 -35.72,0.7066 -71.4534,1.6533 -107.1867,2.4666 -4.8667,0.1067 -9.7333,0.013 -16.2133,0.013 -16.4134,-48.5733 -35.4267,-96.0933 -64.52,-140.7333 41.1333,-10.88 81.68,-18.36 124.36,-26.1733 -7.0134,10.88 -11.9734,19.8133 -25.56,20.0266 -10.6534,0.1734 -19.4534,6.28 -25.5467,15.2934 -6.2667,9.2533 -7.6133,19.1866 -1.7067,29.0266 5.8934,9.8 15.5467,13.4134 26.4,12.6 25.6,-1.9333 37.8,-22.5733 28.6534,-49.52 7.8533,-9.08 15.8533,-18.92 24.56,-28.08 2.76,-2.9066 7.2266,-5.1733 11.2,-5.7733 48.3466,-7.24 96.6933,-14.5067 145.16,-20.9467 45.5466,-6.0533 91.1866,-11.5466 136.8666,-16.4933 35.4934,-3.8533 71.0534,-7.32 106.68,-9.4933 70.8133,-4.3467 141.64,-8.5867 212.5333,-11.12 50.8667,-1.8267 101.84,-1.3334 152.76,-0.9067 44.5334,0.36 89.0534,1.8533 133.56,3.2667 16.12,0.5066 32.1867,2.3333 48.2934,3.4 10.1066,0.6666 18.9333,3.44 25.76,11.6933 3.9866,4.8267 9.12,8.6933 13.3066,12.5867 -0.2666,1.9466 -0.08,3.1066 -0.5733,3.76 -6.84,9.12 -8.5467,18.6533 -1.92,28.5333 6.6667,9.96 21.08,14.6533 34.1467,11.4 11.8,-2.92 20.4133,-9.52 23.2933,-21.8133 1.9467,-8.2934 -3.1867,-18.2934 -12.1733,-23.12 -4.64,-2.48 -10.0534,-4.7067 -15.1867,-4.8534 -8.48,-0.2266 -13.3867,-4.44 -18.9333,-13.0933 38.4666,1.1333 74.3733,9.24 110.8533,11.7867 0,18.0933 -1.8,35.6533 0.5067,52.6533 2.3333,17.2267 8.72,33.9067 13.6666,52.0933 -4.6533,1.52 -8.6133,3.04 -12.7066,4.0934 -55.8267,14.52 -111.68,28.9333 -167.4934,43.52 -4.1733,1.08 -8.92,2.36 -11.8133,5.1866 -2.1733,2.12 -3.0533,7.24 -2.12,10.2934 0.6667,2.1733 5.2133,4.1066 8.1867,4.3866 3.2,0.3067 6.6133,-1.4133 9.9066,-2.3066 34.4534,-9.3867 68.8934,-18.76 103.32,-28.1734 10.52,-2.88 20.8134,-3.8 31.6934,-0.8133 27.7866,7.64 55.88,14.12 83.6266,21.8667 16.1334,4.5066 16.6534,6.2 17.6134,22.4533 0.8666,14.6533 1.52,29.32 2.9866,43.92 1.08,10.7867 -1.2,20.04 -7.56,28.9333 -9.4133,13.1467 -9.1866,15.32 2.4934,25.7467 5.6666,5.0667 7.6133,10.84 8.12,18 1.72,24.3867 3.5466,48.7733 5.8533,73.0933 0.7067,7.5467 -0.9867,12.5067 -8.8,14.0667 -8.6133,1.7067 -17.1867,3.8 -25.88,4.7467 -23.3467,2.5733 -46.76,4.48 -70.12,6.92 -10.8133,1.1333 -15.4933,4.96 -14.4667,10.8266 1.04,5.9334 7.0934,8.5467 16.8534,7.4667 22.3466,-2.4533 44.7066,-4.8933 67.0666,-7.1733 4.28,-0.44 8.6534,-0.067 13.3867,-0.067"
         style="fill:#fdb272;fill-opacity:1;fill-rule:nonzero;stroke:none;stroke-width:0.133333" />
      <path
         id="path35"
         d="m 2879.5842,2340.3138 c -23.96,-1.2933 -44.88,-2.36 -65.7867,-3.5733 -6.8,-0.4 -13.5866,-1.7333 -20.3733,-1.7333 -85.16,-0.093 -170.3067,-0.64 -255.4533,0.28 -43.4267,0.48 -86.84,3.4133 -130.2267,5.7066 -26.7867,1.4267 -53.56,3.3467 -80.28,5.7467 -36.88,3.3333 -73.72,7.2533 -110.56,11.08 -29.0933,3.0133 -58.2133,5.8267 -87.2266,9.4933 -31.8934,4.0267 -63.6667,8.9467 -95.5067,13.4134 -23.0133,3.2266 -46.0533,6.3466 -72,9.9066 11.3467,-12.96 20.76,-23.9866 30.5467,-34.6533 1.7733,-1.92 5.0133,-3.0667 7.7333,-3.4267 9.6533,-1.2666 19.36,-2.32 29.08,-2.9466 34.5733,-2.24 69.16,-4.24 103.7333,-6.3734 31.16,-1.9333 62.3067,-4.04 93.48,-5.8533 36.04,-2.1067 72.1334,-3.6267 108.16,-6.04 33.56,-2.24 67.0267,-5.6933 100.5867,-7.9333 24.84,-1.6667 49.7466,-3.04 74.64,-3.1467 111.5733,-0.48 223.16,-0.1733 334.7333,-0.96 15.8267,-0.1067 23.52,9.16 34.72,21.0133"
         style="fill:#c06e38;fill-opacity:1;fill-rule:nonzero;stroke:none;stroke-width:0.133333" />
      <path
         id="path36"
         d="m 3138.0642,2515.7405 c -4.6667,4.9733 -7.9067,8.4133 -11.4267,12.16 -18.8133,-6.0533 -38.0133,-12.2267 -57.2266,-18.4 37.1866,-11.0133 74.2666,-19.32 114.7066,-8.3867 -6.2133,2.48 -10.96,4.4134 -15.7466,6.28 -3.6267,1.4134 -7.4667,2.4134 -10.92,4.1734 -4.4934,2.3066 -6.1334,6.4133 -4.3867,11.1466 1.8,4.9067 5.5467,6.36 10.6267,4.7467 9.3066,-2.9333 18.6666,-5.72 28.0266,-8.4933 2.7067,-0.8 5.48,-1.3334 8.0134,-1.9334 0,11.6534 0.04,22.6134 -0.013,33.5867 -0.08,17.12 -0.32,34.2533 -0.3333,51.3733 0,12.6934 -0.96,25.0134 -4.12,37.6134 -2.88,11.5333 -1.96,24.32 -1.0533,36.4266 2.2266,29.6 5.4533,59.12 8.16,88.6934 0.2533,2.8133 -0.28,5.6933 -0.52,10.0933 -17.4534,-6.2 -33.9334,-12.04 -51.6267,-18.32 -1.1867,-11.7467 -2.6533,-23.76 -3.56,-35.8133 -1.28,-17.0134 -1.1467,-34.2134 -3.6133,-51.04 -1.2534,-8.6 -6.8667,-16.5734 -11.4,-26.84 11.0533,-14.64 10.92,-33.7467 7.4133,-53.4534 -0.8533,-4.7733 -0.7467,-9.72 -1.0133,-14.5866 -0.68,-12.1334 -1.32,-24.2667 -1.9734,-36.1734 3.2267,-3.8 7.8,-7.4666 9.6267,-12.1866 0.7733,-1.9867 -4.2933,-6.2134 -7.64,-10.6667"
         style="fill:#c06e38;fill-opacity:1;fill-rule:nonzero;stroke:none;stroke-width:0.133333" />
      <path
         id="path37"
         d="m 3102.2242,2306.2738 c -1.4667,1.8667 -2.8133,3.84 -4.4133,5.5867 -12.2267,13.3333 -24.9334,26.24 -36.52,40.0933 -4.5067,5.36 -9.0667,6.7467 -15.2,6.0267 -18.8934,-2.2 -37.7734,-4.4533 -56.6534,-6.64 -22.2666,-2.5733 -44.4933,-5.72 -66.84,-7.3467 -8.9333,-0.6533 -15.8,-2.7066 -21.8666,-9.4 -4.5334,-5.0133 -10.3334,-8.8533 -15.5734,-13.2133 0.56,-1.04 1.12,-2.08 1.68,-3.1333 3.0534,-0.4267 6.0934,-1.0134 9.16,-1.28 31.0667,-2.7734 62.1467,-5.52 93.2134,-8.2 13.6133,-1.1734 27.2133,-2.3867 40.8533,-3.2267 18.0133,-1.12 36.0667,-1.9467 54.1067,-2.76 5.68,-0.2533 11.3866,-0.04 17.08,-0.04 0.32,1.1733 0.6533,2.36 0.9733,3.5333"
         style="fill:#c06e38;fill-opacity:1;fill-rule:nonzero;stroke:none;stroke-width:0.133333" />
      <path
         id="path38"
         d="m 3136.2242,2454.7138 c -20.4533,7.0267 -38.68,13.2934 -59.0667,20.3067 -5.52,-20.7467 -13.4533,-39.24 -14.64,-58.1467 -1.32,-20.8 0.3467,-42.2 17.4267,-59.5866 13.1733,-13.4134 26.1467,-26.9067 40.48,-39.84 -4.2267,46.5466 6.7333,90.7866 15.8,137.2666"
         style="fill:#c06e38;fill-opacity:1;fill-rule:nonzero;stroke:none;stroke-width:0.133333" />
      <path
         id="path39"
         d="m 3153.5442,2860.7139 c 3.5733,-5.0534 7.32,-8.04 7,-10.52 -0.3333,-2.6934 -4.0933,-6.16 -7.0133,-7.0134 -4.3467,-1.2666 -7.6934,1.92 -6.7734,6.5067 0.6267,3.1067 3.4267,5.7733 6.7867,11.0267 z m -17.0667,-78.5601 c 1.3734,11.92 2.7734,23.8267 4.0934,35.7467 0.2666,2.4133 -0.6534,5.3467 0.4266,7.2134 1.7867,3.0933 5.1467,7.96 7.1334,7.64 3.4933,-0.56 8.6133,-4.0534 9.1866,-7.0534 1.2534,-6.52 0.2534,-13.5067 -0.16,-20.2933 -0.5066,-8.1734 -1.36,-16.3334 -2.32,-27.4 9.16,3 16.1467,5.28 21.04,6.8933 6.4534,30.3067 12.4934,58.72 18.7734,88.2134 -14.8267,9.1733 -30.08,18.6 -47.7067,29.5066 -7.6267,-39.9866 -15.08,-77.7733 -17.52,-116.3867 -0.1067,-1.5733 2.4133,-3.3066 3.72,-4.9733 1.1067,0.2933 2.2133,0.6 3.3333,0.8933"
         style="fill:#c06e38;fill-opacity:1;fill-rule:nonzero;stroke:none;stroke-width:0.133333" />
      <path
         id="path40"
         d="m 1968.2242,2355.5405 c -9.6533,11.32 -17.6133,19.92 -24.7066,29.1733 -6.4,8.3334 -14.72,12.0934 -24.6534,13.96 -34.9333,6.6 -69.8133,13.4934 -104.72,20.2 -0.7866,0.16 -1.7066,-0.3866 -4.7466,-1.16 16.0666,-12.32 31.04,-23.8 46.04,-35.2666 1.9333,-1.48 4.3333,-2.5067 5.92,-4.2667 11.7333,-13.0667 27.6266,-15.1333 43.6666,-16.8533 17.92,-1.9334 35.8267,-3.88 53.7334,-5.7467 2.3066,-0.24 4.6533,-0.04 9.4666,-0.04"
         style="fill:#c06e38;fill-opacity:1;fill-rule:nonzero;stroke:none;stroke-width:0.133333" />
      <path
         id="path41"
         d="m 2543.1442,2423.0605 c -44.0533,0 -88.1733,-1.3733 -132.16,0.36 -49.8,1.96 -99.52,6.3733 -149.2133,10.3467 -47.76,3.8133 -95.5067,7.92 -143.16,12.8266 -46.1733,4.7734 -92.2267,10.7334 -138.3333,16.1734 -6.32,0.7466 -12.6267,1.48 -18.9334,2.28 -9.2133,1.1733 -14.5733,-0.9467 -15.8666,-6.32 -1.4134,-5.8 3.5333,-10.2534 13.76,-11.72 15,-2.16 30.0133,-4.36 45.0933,-5.9467 74.4267,-7.8533 148.8,-16.48 223.36,-22.9333 65.2933,-5.6534 130.7466,-10.6534 196.24,-12.56 82.6533,-2.4134 165.4133,-1.4134 248.1333,-1.7867 4.36,-0.027 9.1867,-0.12 12.9333,1.64 2.84,1.3333 6.08,5.6933 5.9067,8.4933 -0.1867,2.8267 -3.9333,6.1334 -6.92,7.84 -2.2267,1.28 -5.72,0.4134 -8.6533,0.4134 -44.0667,0.013 -88.1334,0.013 -132.1867,0.013 0,0.2933 0,0.5733 0,0.88"
         style="fill:#890e2d;fill-opacity:1;fill-rule:nonzero;stroke:none;stroke-width:0.133333" />
      <path
         id="path42"
         d="m 2434.8642,2568.2072 c 36.2,0 72.4,-0.053 108.5867,0.053 5.36,0.013 10.9733,-0.1067 15.9733,1.44 3.04,0.9466 7.6267,5.6 7.1333,7.4533 -0.9066,3.52 -4.4933,7.0533 -7.88,8.9733 -2.64,1.4934 -6.6666,0.64 -10.08,0.6667 -41.1066,0.28 -82.2,0.24 -123.2933,0.8533 -45.48,0.68 -90.9867,1.2934 -136.4266,3.24 -25.8267,1.0934 -51.5334,4.8134 -77.3067,7.2667 -5.3467,0.52 -10.8667,1.5333 -16.04,0.7067 -3.1733,-0.5067 -8.3333,-4.2667 -8.1867,-6.2534 0.2534,-3.5333 3.2934,-7.4666 6.2134,-10.04 1.84,-1.6 5.6133,-1 8.5066,-1.4133 53.36,-7.5467 107.08,-9.9333 160.8933,-10.88 23.96,-0.4267 47.9334,-0.08 71.92,-0.08 -0.013,-0.6533 -0.013,-1.32 -0.013,-1.9867"
         style="fill:#fdb272;fill-opacity:1;fill-rule:nonzero;stroke:none;stroke-width:0.133333" />
      <path
         id="path43"
         d="m 1981.3176,3015.6472 c -6.32,0.1067 -11.5467,-1.5733 -12.3334,-8.1333 -0.8266,-6.9734 4.8,-8.9734 10.2534,-10.1067 26.2666,-5.44 52.48,-11.24 78.88,-15.9467 45.6266,-8.1466 91.3733,-15.6 137.08,-23.2533 4.32,-0.72 8.96,-1.8133 13.04,-0.8933 3.1333,0.72 7.44,4.0266 7.88,6.7333 0.44,2.76 -2.56,7 -5.2267,9.0667 -2.4267,1.88 -6.4133,1.8533 -9.76,2.4266 -50.9467,8.7734 -101.9333,17.3067 -152.84,26.32 -20.64,3.6534 -41.1067,8.3067 -61.64,12.52 -1.9067,0.3867 -3.8,0.8934 -5.3333,1.2667"
         style="fill:#890e2d;fill-opacity:1;fill-rule:nonzero;stroke:none;stroke-width:0.133333" />
      <path
         id="path44"
         d="m 2261.4776,2967.4205 c 0.1333,0 -3.0667,0.5867 -5.52,-0.5066 -2.32,-1.04 -5.2667,-3.7467 -5.4,-5.8934 -0.2,-2.8666 1.3066,-6.76 3.4666,-8.6133 2.3467,-2.0133 6.2,-2.64 9.5067,-3.1467 50.5867,-7.8266 101.2,-15.5466 151.8133,-23.2666 2.4,-0.36 4.8533,-0.4534 7.2933,-0.5734 5.48,-0.2533 10.0134,1.64 10.84,7.4534 0.84,5.9066 -3.2,8.9733 -8.52,9.9066 -9.6,1.6934 -19.2533,3 -28.8933,4.4934 -40.9467,6.3066 -81.88,12.6266 -122.8266,18.92 -2.8934,0.44 -5.8267,0.6133 -11.76,1.2266"
         style="fill:#890e2d;fill-opacity:1;fill-rule:nonzero;stroke:none;stroke-width:0.133333" />
      <path
         id="path45"
         d="m 2632.3442,2913.5939 c -5.7467,0 -9.68,0.1866 -13.5867,-0.04 -5.6,-0.32 -10.2,-3.2667 -9.0133,-8.9734 0.68,-3.2666 5.04,-7.2933 8.44,-8.12 7.04,-1.72 14.56,-1.44 21.8667,-2.1333 29.7066,-2.84 59.4133,-5.8133 89.1333,-8.5333 3.2667,-0.2934 7.0267,-0.08 9.9067,1.2533 6.16,2.8667 6.3866,10.6267 0.48,14.0667 -2.8667,1.6666 -6.4,2.6 -9.7334,2.9333 -33.08,3.36 -66.2,6.5067 -97.4933,9.5467"
         style="fill:#890e2d;fill-opacity:1;fill-rule:nonzero;stroke:none;stroke-width:0.133333" />
      <path
         id="path46"
         d="m 3047.2642,2561.5272 c -22.6933,-3.44 -45.88,-6.8134 -68.9867,-10.5867 -5.52,-0.8933 -10.9333,-3.76 -9.76,-10.52 1.1067,-6.3467 6.2134,-8.16 12.3467,-7.2133 22.68,3.5333 45.36,7 68.04,10.4933 0.48,0.08 0.9733,0.12 1.44,0.2533 5.4667,1.5334 10.76,3.92 9.8,10.6134 -0.9733,6.8133 -6.5733,7.6533 -12.88,6.96"
         style="fill:#890e2d;fill-opacity:1;fill-rule:nonzero;stroke:none;stroke-width:0.133333" />
      <path
         id="path47"
         d="m 1972.6909,2886.7139 c 6.76,0.6933 13.6133,0.9733 20.28,2.2133 4.5867,0.8533 8.0267,3.8933 7.44,9.2667 -0.56,5.2266 -4.3067,7.9866 -9.0133,7.8133 -10.68,-0.3733 -21.4,-1.1067 -31.9734,-2.5733 -5.08,-0.7067 -9.16,-4.3867 -8,-10.3067 1.1067,-5.68 5.4534,-7.68 11.04,-6.9733 1.4534,0.1866 2.8934,0.4666 4.3467,0.6133 1.9333,0.1867 3.88,0.28 5.8267,0.4133 0.013,-0.16 0.027,-0.3066 0.053,-0.4666"
         style="fill:#890e2d;fill-opacity:1;fill-rule:nonzero;stroke:none;stroke-width:0.133333" />
      <path
         id="path48"
         d="m 2830.1709,2539.4605 c 2.6266,0 6.5066,-1.04 9.3066,0.2533 3.5467,1.6534 8.36,5.0134 8.6267,7.9867 0.2533,2.8667 -4.1333,8.2133 -7.2933,8.92 -8.9734,2.0267 -18.3867,2.9867 -27.5867,2.7467 -3.08,-0.08 -7.4,-4.5867 -8.5333,-7.9467 -0.6667,-2.0133 3.1733,-7.3067 6,-8.3467 5.8533,-2.1466 12.3733,-2.4266 19.48,-3.6133"
         style="fill:#890e2d;fill-opacity:1;fill-rule:nonzero;stroke:none;stroke-width:0.133333" />
      <path
         id="path49"
         d="m 2733.6642,2422.6872 c -7.9067,-0.5734 -12.84,-0.4534 -17.5467,-1.4134 -5.2133,-1.0666 -8.8266,-4.3733 -7.9066,-10.3466 0.7733,-5.0667 4.32,-7.6 9.2266,-7.4667 7.7467,0.2133 15.52,0.6267 23.2134,1.5067 5.28,0.6 9.4133,3.4266 8.8933,9.4666 -0.5067,5.9067 -4.9067,7.92 -10.2267,8.2267 -2.8933,0.16 -5.8133,0.027 -5.6533,0.027"
         style="fill:#890e2d;fill-opacity:1;fill-rule:nonzero;stroke:none;stroke-width:0.133333" />
      <path
         id="path50"
         d="m 3076.1309,2800.1405 c 2.16,2 6.8666,4.4133 8.2133,8.0667 2.0667,5.56 -2.48,9.0533 -7.64,10.0666 -7.56,1.48 -15.2667,3.0267 -22.88,2.9334 -3.36,-0.053 -8.28,-3.36 -9.6267,-6.4267 -2.2666,-5.2133 1.44,-9.5333 6.72,-10.72 7.5067,-1.6933 15.2134,-2.4267 25.2134,-3.92"
         style="fill:#890e2d;fill-opacity:1;fill-rule:nonzero;stroke:none;stroke-width:0.133333" />
      <path
         id="path51"
         d="m 2075.0509,2599.5938 c -3.8267,-0.48 -8.08,-0.093 -11.3733,-1.6933 -2.5734,-1.24 -5.7867,-5.2267 -5.4267,-7.4667 0.4933,-3.1066 3.6667,-7.5733 6.4133,-8.16 6.04,-1.3066 12.5334,-0.8133 18.8267,-0.5466 5.56,0.2266 10.04,3.4933 8.8267,9.0533 -0.7067,3.2133 -5.1734,6.1733 -8.6134,8.0267 -2.2533,1.2133 -5.6933,0.2266 -8.6133,0.2266 -0.013,0.1867 -0.027,0.3734 -0.04,0.56"
         style="fill:#890e2d;fill-opacity:1;fill-rule:nonzero;stroke:none;stroke-width:0.133333" />
      <path
         id="path52"
         d="m 3083.6375,2552.2872 c 8.6,0.76 14.7467,5.5866 14.4,11.2933 -0.3066,5.2133 -5.24,8.5333 -11.6,7.7867 -9.0133,-1.0667 -14.76,-5.5867 -14.3866,-11.3467 0.3466,-5.4133 4.7466,-8.3467 11.5866,-7.7333"
         style="fill:#890e2d;fill-opacity:1;fill-rule:nonzero;stroke:none;stroke-width:0.133333" />
      <path
         id="path53"
         d="m 2775.0242,2564.9138 c -10.8,0.1734 -15.7467,-2.5733 -16.1333,-8.1866 -0.4134,-5.9467 4.9866,-9.8534 13.4933,-9.76 8.5067,0.1066 13.68,4.0133 13.0933,10.1733 -0.68,7.32 -6.32,7.52 -10.4533,7.7733"
         style="fill:#fdb272;fill-opacity:1;fill-rule:nonzero;stroke:none;stroke-width:0.133333" />
      <path
         id="path54"
         d="m 2468.3175,2933.8872 c -6.3866,4.0133 -9.8533,7.76 -13.72,8.24 -4.92,0.5867 -7.8133,-3.6267 -7.32,-8.7733 0.48,-5.0667 3.8267,-8.5867 8.7467,-7.6134 3.48,0.6934 6.4267,4.0934 12.2933,8.1467"
         style="fill:#890e2d;fill-opacity:1;fill-rule:nonzero;stroke:none;stroke-width:0.133333" />
      <path
         id="path55"
         d="m 1947.9976,3013.4739 c -5.1734,4.56 -7.7467,8.48 -11.1334,9.4133 -4.8266,1.3333 -8.4533,-2.2267 -8.9466,-7.2133 -0.48,-5.0134 2.6133,-9.0667 7.4266,-8.88 3.44,0.1333 6.76,3.4133 12.6534,6.68"
         style="fill:#890e2d;fill-opacity:1;fill-rule:nonzero;stroke:none;stroke-width:0.133333" />
      <path
         id="path56"
         d="m 2775.3175,2428.7805 c -4.0533,-5.2533 -7.76,-8.0667 -8.4933,-11.52 -1.0133,-4.7733 2.4533,-8.4667 7.56,-8.6533 4.9867,-0.1734 9,2.9866 8.4533,7.8666 -0.4,3.5067 -3.9066,6.6534 -7.52,12.3067"
         style="fill:#890e2d;fill-opacity:1;fill-rule:nonzero;stroke:none;stroke-width:0.133333" />
      <path
         id="path57"
         d="m 2989.5975,2791.8072 c -5.6,3.3466 -8.76,6.6533 -12.1866,6.9466 -4.96,0.4267 -7.64,-3.5733 -7.36,-8.6133 0.28,-5.2 3.68,-8.5467 8.48,-7.28 3.4,0.8933 6.0266,4.6933 11.0666,8.9467"
         style="fill:#890e2d;fill-opacity:1;fill-rule:nonzero;stroke:none;stroke-width:0.133333" />
      <path
         id="path58"
         d="m 2597.1309,2566.2472 c 3.3066,6.1333 6.4133,9.4133 6.6266,12.8666 0.3067,4.8534 -3.6133,7.9867 -8.5733,7.6134 -5.0667,-0.3867 -8.2267,-4.16 -6.9067,-8.9467 0.9334,-3.3867 4.4667,-6.04 8.8534,-11.5333"
         style="fill:#fdb272;fill-opacity:1;fill-rule:nonzero;stroke:none;stroke-width:0.133333" />
      <path
         id="path59"
         d="m 2018.8376,2910.2605 c -3.5334,-5.68 -7.1334,-8.9866 -7.1334,-12.28 0.013,-2.4133 4.5334,-6.4666 7.4267,-6.8533 4.92,-0.6533 8.5867,3.2 7.5067,8.32 -0.6534,3.12 -3.9467,5.6667 -7.8,10.8133"
         style="fill:#890e2d;fill-opacity:1;fill-rule:nonzero;stroke:none;stroke-width:0.133333" />
      <path
         id="path60"
         d="m 3153.5442,2860.7139 c -3.36,-5.2534 -6.16,-7.92 -6.7867,-11.0267 -0.92,-4.5867 2.4267,-7.7733 6.7734,-6.5067 2.92,0.8534 6.68,4.32 7.0133,7.0134 0.32,2.48 -3.4267,5.4666 -7,10.52"
         style="fill:#890e2d;fill-opacity:1;fill-rule:nonzero;stroke:none;stroke-width:0.133333" />
    </g>
  </g>
</svg>
