<?xml version="1.0" encoding="UTF-8"?>
<svg id="_圖層_2" data-name="圖層 2" xmlns="http://www.w3.org/2000/svg" viewBox="0 0 113.05 100.02">
  <defs>
    <style>
      .cls-1 {
        fill: #755922;
      }

      .cls-1, .cls-2, .cls-3, .cls-4, .cls-5, .cls-6, .cls-7, .cls-8, .cls-9, .cls-10, .cls-11, .cls-12, .cls-13, .cls-14, .cls-15, .cls-16, .cls-17, .cls-18, .cls-19, .cls-20, .cls-21, .cls-22, .cls-23, .cls-24, .cls-25, .cls-26, .cls-27, .cls-28, .cls-29, .cls-30, .cls-31, .cls-32, .cls-33, .cls-34, .cls-35, .cls-36, .cls-37, .cls-38, .cls-39, .cls-40, .cls-41, .cls-42, .cls-43, .cls-44, .cls-45, .cls-46, .cls-47, .cls-48, .cls-49, .cls-50, .cls-51, .cls-52, .cls-53, .cls-54, .cls-55, .cls-56, .cls-57, .cls-58, .cls-59, .cls-60, .cls-61, .cls-62, .cls-63, .cls-64, .cls-65, .cls-66, .cls-67, .cls-68, .cls-69, .cls-70, .cls-71, .cls-72, .cls-73, .cls-74, .cls-75, .cls-76, .cls-77, .cls-78, .cls-79, .cls-80, .cls-81, .cls-82, .cls-83, .cls-84, .cls-85, .cls-86, .cls-87, .cls-88, .cls-89, .cls-90, .cls-91, .cls-92, .cls-93, .cls-94, .cls-95, .cls-96, .cls-97, .cls-98, .cls-99, .cls-100, .cls-101, .cls-102, .cls-103, .cls-104, .cls-105, .cls-106, .cls-107, .cls-108, .cls-109, .cls-110, .cls-111, .cls-112, .cls-113, .cls-114, .cls-115, .cls-116, .cls-117, .cls-118, .cls-119, .cls-120, .cls-121, .cls-122, .cls-123, .cls-124, .cls-125, .cls-126, .cls-127, .cls-128, .cls-129, .cls-130, .cls-131, .cls-132, .cls-133, .cls-134, .cls-135, .cls-136, .cls-137, .cls-138, .cls-139, .cls-140, .cls-141, .cls-142 {
        stroke-width: 0px;
      }

      .cls-2 {
        fill: #543c1a;
      }

      .cls-3 {
        fill: #6e582a;
      }

      .cls-4 {
        fill: #c4ae54;
      }

      .cls-5 {
        fill: #dfb12f;
      }

      .cls-6 {
        fill: #dfb53a;
      }

      .cls-7 {
        fill: #d3a327;
      }

      .cls-8 {
        fill: #ddad2a;
      }

      .cls-9 {
        fill: #ddaa23;
      }

      .cls-10 {
        fill: #ddac28;
      }

      .cls-11 {
        fill: #dda923;
      }

      .cls-12 {
        fill: #deaa24;
      }

      .cls-13 {
        fill: #deaa23;
      }

      .cls-14 {
        fill: #dead29;
      }

      .cls-15 {
        fill: #dead28;
      }

      .cls-16 {
        fill: #dead2a;
      }

      .cls-17 {
        fill: #deae2a;
      }

      .cls-18 {
        fill: #deab26;
      }

      .cls-19 {
        fill: #deab25;
      }

      .cls-20 {
        fill: #deac28;
      }

      .cls-21 {
        fill: #deac29;
      }

      .cls-22 {
        fill: #d1a023;
      }

      .cls-23 {
        fill: #ccaf4a;
      }

      .cls-24 {
        fill: #e0ca62;
      }

      .cls-25 {
        fill: #d9ab2e;
      }

      .cls-26 {
        fill: #e0b02e;
      }

      .cls-27 {
        fill: #d7ab30;
      }

      .cls-28 {
        fill: #d7a728;
      }

      .cls-29 {
        fill: #dba926;
      }

      .cls-30 {
        fill: #dba925;
      }

      .cls-31 {
        fill: #dbab2c;
      }

      .cls-32 {
        fill: #dba924;
      }

      .cls-33 {
        fill: #dba823;
      }

      .cls-34 {
        fill: #e2b93d;
      }

      .cls-35 {
        fill: #e1b639;
      }

      .cls-36 {
        fill: #e1b535;
      }

      .cls-37 {
        fill: #e2ba3e;
      }

      .cls-38 {
        fill: #dcc863;
      }

      .cls-39 {
        fill: #e1b538;
      }

      .cls-40 {
        fill: #d6a930;
      }

      .cls-41 {
        fill: #dfad29;
      }

      .cls-42 {
        fill: #dfad2a;
      }

      .cls-43 {
        fill: #dfb02e;
      }

      .cls-44 {
        fill: #dfaf2d;
      }

      .cls-45 {
        fill: #dfaf2c;
      }

      .cls-46 {
        fill: #d5a528;
      }

      .cls-47 {
        fill: #e1b436;
      }

      .cls-48 {
        fill: #e1b434;
      }

      .cls-49 {
        fill: #dcab28;
      }

      .cls-50 {
        fill: #dcab29;
      }

      .cls-51 {
        fill: #dcaa26;
      }

      .cls-52 {
        fill: #dca922;
      }

      .cls-53 {
        fill: #dcaa27;
      }

      .cls-54 {
        fill: #dcad2e;
      }

      .cls-55 {
        fill: #dca923;
      }

      .cls-56 {
        fill: #dca925;
      }

      .cls-57 {
        fill: #dca821;
      }

      .cls-58 {
        fill: #d9c663;
      }

      .cls-59 {
        fill: #e0b131;
      }

      .cls-60 {
        fill: #e0b132;
      }

      .cls-61 {
        fill: #e0b130;
      }

      .cls-62 {
        fill: #e0b233;
      }

      .cls-63 {
        fill: #e0b232;
      }

      .cls-64 {
        fill: #daa826;
      }

      .cls-65 {
        fill: #daac2f;
      }

      .cls-66 {
        fill: #daac2d;
      }

      .cls-67 {
        fill: #e0b333;
      }

      .cls-68 {
        fill: #daaa29;
      }

      .cls-69 {
        fill: #daaa2a;
      }

      .cls-70 {
        fill: #d8a727;
      }

      .cls-71 {
        fill: #d8ae35;
      }

      .cls-72 {
        fill: #d8ac33;
      }

      .cls-73 {
        fill: #cfb049;
      }

      .cls-74 {
        fill: #977220;
      }

      .cls-75 {
        fill: #a07d28;
      }

      .cls-76 {
        fill: #745d2c;
      }

      .cls-77 {
        fill: #654d22;
      }

      .cls-78 {
        fill: #edda6e;
      }

      .cls-79 {
        fill: #f1e379;
      }

      .cls-80 {
        fill: #f1e378;
      }

      .cls-81 {
        fill: #f1e277;
      }

      .cls-82 {
        fill: #e3ce63;
      }

      .cls-83 {
        fill: #fff;
      }

      .cls-84 {
        fill: #eedd71;
      }

      .cls-85 {
        fill: #eedd72;
      }

      .cls-86 {
        fill: #eedd73;
      }

      .cls-87 {
        fill: #eeda6d;
      }

      .cls-88 {
        fill: #eedc6e;
      }

      .cls-89 {
        fill: #eedc71;
      }

      .cls-90 {
        fill: #eeda6c;
      }

      .cls-91 {
        fill: #ead05f;
      }

      .cls-92 {
        fill: #ead76c;
      }

      .cls-93 {
        fill: #e3d069;
      }

      .cls-94 {
        fill: #e4be44;
      }

      .cls-95 {
        fill: #e7c853;
      }

      .cls-96 {
        fill: #e7c650;
      }

      .cls-97 {
        fill: #e9d163;
      }

      .cls-98 {
        fill: #e4bf45;
      }

      .cls-99 {
        fill: #e9cd5a;
      }

      .cls-100 {
        fill: #ebd363;
      }

      .cls-101 {
        fill: #e9ce5c;
      }

      .cls-102 {
        fill: #e9cb58;
      }

      .cls-103 {
        fill: #e3c351;
      }

      .cls-104 {
        fill: #e4bd44;
      }

      .cls-105 {
        fill: #e9d86f;
      }

      .cls-106 {
        fill: #e9d86e;
      }

      .cls-107 {
        fill: #e4bd43;
      }

      .cls-108 {
        fill: #e5bf49;
      }

      .cls-109 {
        fill: #efde73;
      }

      .cls-110 {
        fill: #efde72;
      }

      .cls-111 {
        fill: #efde71;
      }

      .cls-112 {
        fill: #efdf74;
      }

      .cls-113 {
        fill: #efe074;
      }

      .cls-114 {
        fill: #ebda6f;
      }

      .cls-115 {
        fill: #ebdb73;
      }

      .cls-116 {
        fill: #e3bc42;
      }

      .cls-117 {
        fill: #e3bc43;
      }

      .cls-118 {
        fill: #e3bb41;
      }

      .cls-119 {
        fill: #e3ba3f;
      }

      .cls-120 {
        fill: #e6d46b;
      }

      .cls-121 {
        fill: #e6c957;
      }

      .cls-122 {
        fill: #e6c34c;
      }

      .cls-123 {
        fill: #edd769;
      }

      .cls-124 {
        fill: #eddb70;
      }

      .cls-125 {
        fill: #e5c048;
      }

      .cls-126 {
        fill: #e5c14a;
      }

      .cls-127 {
        fill: #e5cf65;
      }

      .cls-128 {
        fill: #efdc6f;
      }

      .cls-129 {
        fill: #ecd96d;
      }

      .cls-130 {
        fill: #ecd566;
      }

      .cls-131 {
        fill: #f0e175;
      }

      .cls-132 {
        fill: #f0e277;
      }

      .cls-133 {
        fill: #ecd96e;
      }

      .cls-134 {
        fill: #ecd464;
      }

      .cls-135 {
        fill: #e8d871;
      }

      .cls-136 {
        fill: #e8d366;
      }

      .cls-137 {
        fill: #e8d469;
      }

      .cls-138 {
        fill: #e8d468;
      }

      .cls-139 {
        fill: #e8c955;
      }

      .cls-140 {
        fill: #e8ca56;
      }

      .cls-141 {
        fill: #e7d368;
      }

      .cls-142 {
        fill: #e7d267;
      }
    </style>
  </defs>
  <g id="_圖層_2-2" data-name=" 圖層 2">
    <path class="cls-83" d="M113.05,8.5c0-.99.03-3.99-2.22-6.26-1.48-1.49-3.52-2.24-6.07-2.24-.15,0-.3,0-.45,0-1.35.04-2.6.24-3.7.42-.81.13-1.57.26-2.24.29-3.64.2-5.84,2.19-7.19,3.68l-1.04,1.17c-2.3,2.56-4.67,5.21-7.07,7.68-4,4.1-8.5,8.3-14.58,13.62-13.12,11.46-23.86,21.1-33.81,30.36-5.45,5.08-10.97,10.07-16.13,14.71-1.15,1.03-2.29,2.08-3.43,3.13-3.23,2.97-6.27,5.77-9.56,8.28-2.25,1.7-3.87,3.91-4.97,6.77-.91,2.36-.75,4.71.45,6.61,1.2,1.9,3.25,3.05,5.77,3.24.04,0,.25.02.25.02.29.02.59.03.88.03.25,0,.5,0,.75-.03,2.71-.23,5.54-.34,8.65-.34,2.5,0,5.2.07,8.27.23.16,0,.31.01.47.01,2.74,0,5.1-1.23,6.67-3.47.37-.53.83-1.03,1.39-1.5,5.87-4.97,11.78-9.82,17.55-14.41,10.71-8.48,20.74-17.28,29.15-24.77,5.69-5.09,12.36-11.14,18.66-17.47.57-.57,1.15-1.14,1.73-1.71,2.4-2.35,4.86-4.77,6.97-7.83.37-.3.69-.65.97-1.05.2-.3.38-.61.51-.95l.18-.44c.13-.33.23-.67.29-1.02.04-.26.14-.49.3-.72.18-.26.33-.54.45-.83.07-.15.13-.32.23-.55.28-.7.4-1.44.36-2.17,1.03-4.48,1.55-8.56,1.59-12.49Z"/>
    <g id="OBJECTS">
      <path class="cls-2" d="M105,24.86c-.18-.05-.3.02-.39.17-2.33,3.74-5.62,6.62-8.68,9.7-5.94,5.98-12.16,11.66-18.44,17.27-9.45,8.42-19,16.72-28.92,24.58-5.97,4.74-11.86,9.58-17.68,14.51-.85.72-1.62,1.54-2.26,2.46-.67.96-1.59,1.38-2.78,1.32-5.87-.29-11.73-.37-17.59.13-.36.03-.72,0-1.08-.02-1.86-.14-2.61-1.3-1.93-3.06.7-1.82,1.72-3.37,3.32-4.58,4.71-3.58,8.93-7.73,13.32-11.68,5.43-4.89,10.84-9.79,16.19-14.77,11.05-10.28,22.32-20.32,33.69-30.25,5.11-4.47,10.13-9.04,14.87-13.9,2.84-2.92,5.54-5.97,8.26-9,1.03-1.14,2.09-1.94,3.74-2.03,1.94-.1,3.86-.65,5.82-.71,2.62-.08,3.61.86,3.59,3.46-.04,3.93-.62,7.8-1.51,11.62-.09.39-.46.79-.07,1.21-.06.15-.12.3-.18.44-.55.81-.92,1.7-1.09,2.66l-.18.44-.02.03Z"/>
      <path class="cls-79" d="M51.53,59.7c3.18-1.87,5.78-4.46,8.49-6.9,9.51-8.54,18.77-17.35,27.81-26.38,5.23-5.22,10.37-10.53,15.49-15.85.5-.51,1.01-1.01,1.49-1.48.35.1.28.32.25.5-.48,3.28-.87,6.57-1.65,9.8-.72,2.95-2.16,5.46-4.16,7.72-6.27,7.1-13.06,13.7-19.97,20.16-7.65,7.14-15.4,14.16-23.23,21.11-.21.18-.45.33-.67.49-.72.15-.75-.56-1.1-.87-.79-.37-.62.24-.66.64-.2,1.88-.81,2.5-2.63,2.77-.52.08-.93.05-1.21-.46-.24-.43-.44-.86-.12-1.33.36-.53.84-.26,1.29-.19.08.01.16,0,.24,0,.26-.09.62-.07.54-.51-.25-.22-.44-.07-.62.1-.09.08-.18.13-.29.18-.98-.17-1.61-.67-1.62-1.74.03-.11.07-.22.12-.32.31-.47.65-.54,1.02-.06.35.46.71.65,1.08.02,0-.37-.19-.58-.52-.68-.85-.17-2.09.31-2.08-1.27,0-.11,0-.21.02-.32.11-.36.26-.68.64-.83.19-.06.39-.08.58-.14.24-.07.47-.18.73-.11.52.29.53-.14.62-.45.17-.63-.18-1.12-.42-1.64.05-.45-.12-.85-.29-1.24.12-.43.42-.64.84-.72h-.01Z"/>
      <path class="cls-80" d="M49.53,64.1c-.2.27-.39.53-.59.8-.2,0-.27-.16-.33-.32-.08-.4-.19-.81-.74-.61-.39.14-.6.4-.15.74.37.33.78.28,1.21.18-.02,1.5,1.25,1.05,2.02,1.34.34.27.55.68.95.88-.62.76-1.22,1.39-1.87,0-.17-.37-.36-.08-.5.11-.29,0-.48-.19-.68-.35-.43-.58-.86.49-1.29,0-.08-.52-.41-.92-.6-1.39-.31.25-.51.58-.66.95-.11.1-.25.18-.36.28-.22.18-.43.43-.25.68.26.37.53.05.77-.11.26-.19.52-.38.83-.5.11,0,.21.02.28.11.33.31.56.81,1.16.59.24-.07.46-.3.72-.07-.09,1.02.72,1.27,1.41,1.63.44.05.68.23.51.71-.2,0-.4.03-.59,0-.31-.07-.57-.52-.92-.07-.32.41,0,.72.13,1.08.18.56.51.4.91.34,2-.32,2.44-.87,2.37-2.9-.04-1.13.67-.72,1.25-.52-.22.71-.19,1.34.08,1.87-1.28,1.32-2.77,2.39-4.27,3.44-.33,0-.32-.25-.37-.47-.04-1.19-.82-.73-1.44-.64-.36,0-.72-.03-1.05.14-.44.17-.95.02-1.38.26-.33.2-.64.46-1.07.35-.58-.3-1.2-.02-1.79-.12-.45-.34-.78-.73-.57-1.36.27-.21.58-.16.89-.13.31.03.58-.07.6-.39.03-.39-.29-.5-.62-.56-.31-.05-.59.22-.91.06-.23-.28-.04-.8-.55-.94-.5.43.1.94-.11,1.39-.3.17-.61.02-.92.03-.25.01-.48.09-.45.4.03.31.26.34.52.29.28-.05.6-.28.83.1.06.48-.07.92-.3,1.34-.4.24-.79.51-1.3.38-.62-.91-1.23-1.81-.83-3,.57-.79,1.38-1.31,2.12-1.91.14-.16.16-.41.35-.54.21-.1.42-.13.62,0,.29.5.91.28,1.28.6.45.53,1.11.83,1.51,1.41.04.07.09.13.12.21.19.45.45.76.99.53.25-.11.35-.34.22-.58-.28-.53-.66-.22-1.02-.1-.12.04-.23.02-.32-.08-.22-.34.13-.68.03-1-.5-.21-1.06,0-1.51-.34-.25-.4-.39-.81-.24-1.28.12-.29.32-.56.37-.89.08-.33.28-.6.54-.81.26-.22.56-.36.89-.44.37-.1.52-.3.3-.67-.76-.45-.44-1.09-.32-1.7.07-.37.27-.78-.3-.95-.33-.04-.62.12-.92.19-.82.15-1.52.1-1.64-.95.02-.25.09-.49.19-.72.22-.37.4-.78.93-.77.12.03.21.09.29.18.35.56.69.58,1.01-.03,0-.47-.35-.72-.63-1.01-.1-.15-.12-.29.02-.42.54-.82,1.36-1.32,2.11-1.92,1.22.62.74-.45.89-.9,4.31-4.09,8.68-8.12,13.14-12.05,5.84-5.15,11.69-10.28,17.5-15.46,6.59-5.88,12.79-12.15,18.65-18.74.99-1.11,2.17-1.71,3.64-1.81,1.6-.11,3.21-.54,5.15,0-3.03,1.78-5.2,4.12-7.48,6.33-7.93,7.7-15.81,15.45-23.75,23.15-5.24,5.08-10.58,10.08-15.83,15.16-2.26,2.19-4.57,4.34-6.58,6.78-.15.18-.25.4-.37.61-.31.38-.55.81-.84,1.19,0,.43-.58.65-.39,1.14.08.11.18.17.33.16.15-.04.3-.08.45-.05.63.46.89,1.04.55,1.8-.36.27-.85-.09-1.2.24-.12.09-.26.15-.4.2-.17.07-.37.06-.49.24l.06-.02Z"/>
      <path class="cls-132" d="M45.07,72.39c.47.24.6-.34.95-.4.26.33.07,1.05.78.99.76-.07.57-.69.61-1.17.34-.37.71-.27,1.09-.09.42.65,1.11.62,1.76.69-.07.21-.09.42.08.6-.71.56-1.41,1.13-2.12,1.69-1.04-.14-1.53.43-1.74,1.36-1.03.79-2.06,1.59-3.1,2.38-.64-.11-1.2-.51-1.88-.44-.35-.17-.46-.48-.51-.83.14-.35.51-.32.76-.47.21-.12.39-.26.35-.54-.02-.17-.14-.27-.3-.32-.25-.08-.46-.01-.62.19-.21.24-.23.57-.4.84-.28.31-.58.59-1.05.38-.12-.62-.57-1.01-.97-1.43.42-.94.98-.02,1.47-.11.25-.27.21-.67.41-.96.5-.41,1.11-.68,1.51-1.22.28-.17.53-.38.85-.49.17.03.26.16.35.29.47.66.82.66,1.25,0,.2-.3.18-.7.47-.94Z"/>
      <path class="cls-81" d="M41.03,77.2c.36.11.33.49.5.73.13.67.46,1.35-.03,2.01l-3.3,2.4c-.57-.31-1.13-.74-1.73-.04-.47.31-.91.28-1.34-.07-.39-.42-.64-.89-.5-1.49.07-.33.13-.66.1-.99,0-.45-.55-.74-.38-1.25.23-.51.54-.94,1.18-.93.84.32,1.42,0,1.82-.76.3-.41.36-1.12,1.15-.95-.06.9.56,1.17,1.26,1.35.31-.13.63-.26.94-.4.27-.01.32.17.33.38h0Z"/>
      <path class="cls-80" d="M36,66.01c.1-.11.19-.22.29-.33.46-.11.44.35.64.55.21.21.45.34.73.19.28-.15.31-.42.27-.71-.07-.44-.55-.8-.24-1.31.36-.36.72-.71,1.07-1.07.49-.18.93.07,1.39.14.68-.19,1.36-.46,2.09-.21.58.07.72-.32.78-.77.04-.17.12-.31.23-.44.3-.18.62-.28.97-.27.11.04.2.1.29.18.23.33.57.56.78.91,0,.71.19,1.45-.23,2.11-.1.15-.23.28-.34.42-.23.18-.47.35-.77.39-.11-.02-.21-.08-.28-.17-.23-.71-.71-1-1.45-.85-.37.09-.7.32-1.1.27-.45-.05-.94-.23-1.26.27-.35.56.18.92.34,1.37.04.44-.35.76-.3,1.2-.02.36.15.73-.1,1.07-.33.34-.62.73-1.13.84-.08.03-.15.03-.21,0-.06-.04-.09-.06-.08-.08.29-1.49.2-1.61-1.14-1.51-.32.1-.46.5-.85.5-1.36-.8-1.38-.93-.4-2.66v-.03Z"/>
      <path class="cls-79" d="M38.49,75.92c-.57.04-.61.61-.92.91-.35.03-.53-.22-.72-.43-.26-.39-.51-.79-.4-1.29.32-.65.03-1.2-.31-1.74.33-.53.86-.86,1.33-1.24,1.1.02,1.29-.88,1.66-1.61l.42-.38c.05,1.05.62,1.96.87,2.95-.04.59.97.94.37,1.65-.02.24,0,.48-.06.7-.14.52-.31,1.07-.98.43-.3-.29-.62-.31-.96-.07-.04.19-.13.23-.29.12h0Z"/>
      <path class="cls-11" d="M21.76,83.87c-.54.23-1.1.38-1.69.38-.25-.53-.25-1.13-.51-1.67-.41-.85.37-1.35.63-2.01.33-.45.74-.8,1.21-1.09.03.05.06.09.09.14.01.08.01.15,0,.23-.04.32-.37.66.08.93.14.08.31.11.44.02.43-.3-.15-.63,0-.95.59-.2,1.26-.08,1.83-.4.11.02.19.09.23.19-.16.55.13.99.35,1.44-.52.69-1.39,1-1.83,1.76-.73-.04-.98.32-.84,1.01v.02Z"/>
      <path class="cls-112" d="M36.53,68.62c.16-.29.16-.71.6-.78.13.83.35,1.59,1.31,1.83.08.04.16.07.24.11-.5.7-1.27,1.07-1.94,1.57-.68.07-1.47-.19-1.93.6-.29.2-.59.15-.88.02-.97-.63-1.28-1.34-.91-2.15.25-.4.64-.51,1.08-.48.61.22,1.21.68,1.86.1.31-.19.45-.49.57-.82Z"/>
      <path class="cls-52" d="M20.37,91.59c-.43-.01-.86-.02-1.3-.03-.42.06-.84-.16-1.26,0-.49.03-.99.13-1.47-.05-.45-.02-.83-.12-.79-.7.03-.2.12-.38.24-.55.41-.47.91-.67,1.54-.5.61.2,1.16.3,1.02-.66-.03-.21-.03-.4.22-.48.38-.04.71.1,1.04.25.45.25.78.6,1.01,1.06.15.34.14.69.04,1.05-.05.23-.18.42-.29.61Z"/>
      <path class="cls-52" d="M24.5,76.67c.63-.6,1.27-1.2,1.9-1.8.36-.01.52-.24.59-.56.61-.54,1.23-1.08,1.84-1.62.08.08.12.18.12.29-.09.53-.7.99-.24,1.6.37.5.63,1.02.34,1.65-.1.24-.23.45-.43.61-.41.27-.83.18-1.25.04-.6-.3-1.08.09-1.59.29-.53.09-1.01.05-1.28-.5Z"/>
      <path class="cls-57" d="M19.58,89.16l-1.16-.45c-.31.07-.44-.12-.53-.37-.06-.32-.06-.61.27-.8.59-.19,1.18-.38,1.77-.58.42.18.64-.19.94-.33.38-.11.77-.22,1.15-.33.35.11.63.3.78.65.19.4.24.8.06,1.21-.07.16-.17.31-.29.44-.28.26-.62.46-.96.23-.8-.53-1.41-.2-2.02.32h-.01Z"/>
      <path class="cls-29" d="M18.15,87.54c-.02.26-.04.52-.06.78-.44.5-.7,1.08-.7,1.76-.53-.35-.95,0-1.39.21-.13-.15-.18-.35-.29-.5-.15-.21-.35-.32-.59-.16-.19.13-.19.32-.1.51.09.2.27.41-.02.61-.51.03-1.02.07-1.5-.15-.18-.56-.86-.73-1.01-1.31,1.87-.67,3.73-1.35,5.68-1.75h-.02Z"/>
      <path class="cls-109" d="M34.48,78.68c.09.41.71.52.6,1.05-.75-.19-1.45-.24-2.08.38-.3.3-.72.28-1.11.09-.68-.51-1.06.08-1.51.42-.48.15-.87,0-1.18-.38-.08-.21,0-.38.14-.53l.99-.96c.17-.11.36-.2.56-.24.35-.08.69-.17,1.01-.33.29-.12.55-.32.88-.35.55.08,1.01.38,1.52.58.08.08.14.17.19.27h0Z"/>
      <path class="cls-64" d="M13.51,90.56c.54-.3,1.04-.13,1.54.12.26-.12.52-.22.76.03-.17.5.22.62.54.78-2.12.26-4.25.27-6.39.24-.06-.11-.07-.23-.05-.36.31-.8,1-1.02,1.73-.96.62.05,1.25.02,1.87.14h0Z"/>
      <path class="cls-84" d="M34.48,78.68c-.08-.04-.16-.08-.25-.12.09-.74.22-1.46-.38-2.1-.35-.38-.18-.81.18-1.15.24-.44.63-.75,1.02-1.04.55.29,1,.76,1.64.88-.22.47.35.74.31,1.17-.91.1-1.24.73-1.38,1.52-.68-.13-.81.49-1.14.84h0Z"/>
      <path class="cls-78" d="M30.56,71.11c.36-.37.71-.74,1.07-1.1.31,0,.5.2.69.41.2.26.35.56.16.87-.44.7-.2,1.27.27,1.82.13.22.15.44.07.68-.04.11-.1.22-.18.31-.3.29-.59.61-1.07.53-.39-.07-.75-.28-1.16-.26-.23-.01-.47,0-.62-.22-.04-.18,0-.34.09-.49,1.33-.56.9-1.58.68-2.55Z"/>
      <path class="cls-53" d="M24.5,76.67c.43.19.86.38,1.36.3.39.52,1.11.8,1.13,1.58-.12.37-.32.69-.62.94-.14.29-.37.47-.69.53-.53-.27-1.14-.2-1.67-.44h-.01c-.09-.53-.58-.92-.46-1.5.72-.12,1.25-.36.81-1.24.05-.06.1-.12.16-.18h0Z"/>
      <path class="cls-11" d="M25.66,91.41c-.34.18-.7.19-1.07.11-.4-.3-.6-.75-.9-1.13-.33-1.42.13-1.98,1.47-1.79.31.2.64.36,1.02.37.17.42.34.85.51,1.27-.49.26-.77.71-1.04,1.17h.01Z"/>
      <path class="cls-86" d="M44.19,61.92c-.27.06-.54.13-.8.19-.34-.07-.68-.2-1.04-.05-.25.14-.26.34-.14.58.05.09.08.18.11.27.05.2.03.39-.06.58-.72-.09-1.42-.05-2.03.43.07-.66-.34-1.34.05-2,.41-.37.82-.74,1.23-1.1.43-.09.87-.23,1.3,0,.16,1.07.9.76,1.56.65.07.21,0,.35-.19.44h0Z"/>
      <path class="cls-30" d="M22.6,88.09c.25-.39.06-.74-.08-1.1.27-.36.67-.6.9-1,1.42-.66,1.74.38,2.08,1.36-.12.28-.21.57-.47.77-.82.51-1.62.12-2.44-.03h.01Z"/>
      <path class="cls-112" d="M13.51,90.56c-.41.2-.76.53-1.31.27-.87-.4-1.61-.14-2.16.64-.8.02-1.05-.28-.6-1.01.36-.33.79-.47,1.27-.53.44.04.83-.05,1.15-.39.21-.09.41-.17.62-.26.35.42,1.53.16,1.04,1.27h-.01Z"/>
      <path class="cls-45" d="M35.17,82.06c.43.31.86.3,1.29,0,.19.41.74.67.53,1.26-.08.07-.16.13-.25.2-1-.43-1.58.7-2.47.66-.53-.12-.8-.51-.98-.98-.06-.25-.06-.51.03-.75.8-1.02.94-1.05,1.85-.39Z"/>
      <path class="cls-8" d="M34.03,75.32c-.11.37-.34.76.07,1.07.9.68.8,1.41.13,2.17-.63.1-1.02-.4-1.53-.61-.6-.66.09-1.15.22-1.71.31-.37.63-.74,1.1-.92h.01Z"/>
      <path class="cls-10" d="M30.56,71.11c1.03,1.68.95,2.1-.53,2.62-.75.14-1.02-.31-1.14-.94-.01-.04-.03-.08-.05-.12.57-.52,1.15-1.05,1.72-1.57h0Z"/>
      <path class="cls-97" d="M27.5,88.55c-.19-.17-.24-.39-.25-.63.03-.59.3-1.08.56-1.59.16-.18.34-.33.58-.36.49.48.99.95,1.55,1.36.1.17.14.35.08.55-1.27,1.42-1.55,1.5-2.53.67h.01Z"/>
      <path class="cls-55" d="M23.58,78.09c.22.47.89.81.42,1.48-.59.46-1.2.77-1.93.26-.26.1-.47.03-.62-.21-.02-.04-.04-.09-.06-.13.7-.64,1.4-1.27,2.11-1.91.19.14.27.31.08.51Z"/>
      <path class="cls-32" d="M29.85,74.23c.17-.04.34-.07.51-.11.39-.05.69.21,1.03.31.24.09.42.24.42.53-.33.6-.95.87-1.46,1.26-.51-.2-1.04,0-1.55-.1.44-.67-.17-1.05-.43-1.52.49-.11,1-.17,1.47-.37h.01Z"/>
      <path class="cls-92" d="M26.48,82.34c.34-.42.71-.81,1.19-1.07.41.02.67.27.91.56.42.64-.16,1.27-.04,1.9.04.29.18.59-.11.84-.38.1-.73.09-1.02-.23-.18-.45-.44-.83-.84-1.12-.32-.24-.47-.55-.09-.88Z"/>
      <path class="cls-70" d="M19.42,84.43c-.55.19-1.09.41-1.68.41-.16-.56-.31-1.11-.63-1.61.65-.59,1.29-1.18,1.94-1.77.38.39.42.88.27,1.34-.19.58-.05,1.1.1,1.63Z"/>
      <path class="cls-89" d="M19.42,84.43c-.52-.32-.9-.7-.47-1.35.36-.53-.02-1.09.1-1.62.38-.3.76-.59,1.13-.89.21.28.11.52-.11.74-.55.52-.45,1.1-.07,1.61.36.47.25.88.06,1.33-.22.06-.43.12-.65.18h0Z"/>
      <path class="cls-56" d="M33.3,85.99c-.5.39-.99.78-1.49,1.17-.24-.08-.46-.2-.64-.39-.49-.45-.51-.96-.15-1.48.38-.55.87-.93,1.6-.59.42.33.77.69.68,1.29Z"/>
      <path class="cls-51" d="M37.68,64.39c.02.33.21.58.41.83.33.42.36.86.07,1.31-.19.3-.46.41-.81.32-.47-.12-.93-.26-.86-.91,0-.08-.13-.18-.2-.28.47-.43.93-.86,1.39-1.29v.02Z"/>
      <path class="cls-113" d="M27.48,84.36c.34-.03.68-.01,1,.15.92.47.9.84-.1,1.51-.1.18-.21.35-.44.37-.67.07-1.03-.38-1.38-.84-.05-.18-.11-.37-.16-.55.19-.51.62-.6,1.08-.63h0Z"/>
      <path class="cls-49" d="M27.48,84.36c-.29.32-.68.49-1.08.63-.26-.45-.61-.83-1.04-1.12-.15-.64.5-.8.72-1.21.08-.17.2-.3.4-.31-.18.55.26.64.59.85.44.27.72.63.41,1.17h0Z"/>
      <path class="cls-131" d="M33.3,85.99c-.2-.34-.41-.68-.61-1.03-.05-.34-.76-.25-.51-.78.48-.27.43-1.2,1.27-1.02.28.31.48.72.91.88.11.19.1.39.05.6-.12.4-.46.66-.64,1.02-.16.11-.32.22-.48.32h.01Z"/>
      <path class="cls-66" d="M41.5,79.95c.13-.67-.37-1.35.03-2.01.81-.52,1.33,0,1.86.52-.56.58-1.18,1.09-1.89,1.49Z"/>
      <path class="cls-9" d="M28.49,81.93c-.36-.11-.6-.36-.82-.65.56-.52,1.11-1.04,1.67-1.56-.04.14-.07.27-.11.41.3.4.98.57.75,1.3-.23.72-.75.91-1.49.5Z"/>
      <path class="cls-33" d="M36.69,75.16c-.96.47-1.3-.2-1.64-.88.31-.36.62-.73,1.09-.91,1.04.33.97,1.01.55,1.79Z"/>
      <path class="cls-121" d="M27.5,88.55c1.19.81,1.69-.47,2.5-.82.31-.1.54,0,.69.29-.9.7-1.8,1.41-2.78,2.18-.19-.61-.43-1.09-.41-1.65Z"/>
      <path class="cls-31" d="M32.13,70.46c-.17-.15-.34-.3-.5-.45.52-.48,1.03-.96,1.55-1.44.2-.07.33.09.5.12.29-.04.37-.35.61-.45.13-.02.22.03.3.13.13.48-.02.85-.47,1.07-.29.2-.71.08-.94.4-.33.23-.25,1.17-1.05.62Z"/>
      <path class="cls-124" d="M24.01,79.58c.69-.37,1.25-.21,1.67.44l-1.26,1.08c-.88-.3-1.01-.81-.41-1.52Z"/>
      <path class="cls-50" d="M36.99,83.32c-.16-.43-.84-.63-.53-1.26.76-1.02,1.28-.59,1.74.28-.4.33-.81.65-1.21.98Z"/>
      <path class="cls-27" d="M26.37,79.49c.16-.37.31-.74.47-1.11.56-.51.48-1.19.47-1.85.39.16.78.31,1.21.22.26.07.48.2.55.49-.95.69-1.65,1.67-2.7,2.24h0Z"/>
      <path class="cls-115" d="M23.95,90.44c.45.22.6.61.63,1.07-.79.16-1.58.18-2.37.02-.05-.26.12-.43.26-.61.07-.09.15-.18.23-.26.35-.41.7-.87,1.25-.23h0Z"/>
      <path class="cls-133" d="M17.11,83.23c.81.31,1.01.84.63,1.61-.21.07-.42.15-.63.22-.58-.15-1.1-.34-.84-1.12.28-.24.56-.47.84-.71Z"/>
      <path class="cls-68" d="M39.8,68.94c-.07-.36-.28-.71-.11-1.09.38-1.09.74-1.17,1.87-.42.1.14.08.26-.07.35-.57.38-1.13.77-1.7,1.15h.01Z"/>
      <path class="cls-22" d="M16.27,83.94c-.01.59.6.72.84,1.12-.64.38-1.38.45-2.08.64-.18-.26-.05-.51.02-.77.35-.4.71-.79,1.22-1h0Z"/>
      <path class="cls-25" d="M40.29,61.91c.13.67.52,1.35-.05,2-.49-.2-.99-.39-1.48-.59.51-.47,1.02-.94,1.54-1.41h-.01Z"/>
      <path class="cls-137" d="M36.53,68.62c.45.51.06.71-.34.91-.21-.64-.73-1.01-1.22-1.41.08-.47-.51-.33-.59-.66.54-.49,1.09-.97,1.63-1.46,0,.16.08.38,0,.46-.95,1-.16,1.56.52,2.15h0Z"/>
      <path class="cls-69" d="M34.68,71.79c.44-1.29,1.25-.82,2.05-.45-.51.56-1.18.92-1.81,1.32-.08-.07-.14-.15-.17-.26-.07-.2-.02-.41-.07-.61Z"/>
      <path class="cls-105" d="M34.17,84.51c.06-.16.12-.31.19-.47.35-.31.81-.4,1.16-.75.39-.37.92-.43,1.23.22-.43.41-.92.73-1.5.89-.35.11-.68.38-1.07.1h-.01Z"/>
      <path class="cls-28" d="M26.56,85.54c.54.15.95.5,1.38.84.08.65-.37,1.06-.68,1.54-.39-.75-.54-1.57-.7-2.38Z"/>
      <path class="cls-6" d="M54.61,69.57c-.86-.41-.89-1.03-.08-1.87.53.21.13,1.1.85,1.17-.18.32-.44.55-.78.7h.01Z"/>
      <path class="cls-141" d="M29.07,77.24c-.23-.11-.5-.18-.55-.49.1-.21.19-.42.29-.63.55-.51,1.07-.57,1.55.1-.36.42-.8.75-1.29,1.02Z"/>
      <path class="cls-124" d="M30.69,88.03c-.23-.1-.46-.2-.69-.29-.04-.11-.09-.21-.13-.32.02-.51.41-.71.77-.94.33-.08.6.01.8.28.12.13.24.27.36.4-.37.29-.75.58-1.12.87h.01Z"/>
      <path class="cls-106" d="M23.58,78.09c-.03-.17-.06-.34-.08-.51.23-.31.49-.57.85-.73.36.21.9.34.53.95-.32.52-.75.66-1.29.3h-.01Z"/>
      <path class="cls-65" d="M46.48,76.07c-.1-1.74.14-1.93,1.74-1.36-.58.45-1.16.91-1.74,1.36Z"/>
      <path class="cls-86" d="M24.96,87.96c.1-.28.22-.54.55-.6.23.54.45,1.08.68,1.61-.29.36-.57.53-.84-.02-.07-.35-1.04-.36-.39-.99Z"/>
      <path class="cls-72" d="M47.44,55.22c.19.26.14.89-.15,1.88-.51-.13-.4-.73-.74-.98.23-.36.5-.69.89-.9Z"/>
      <path class="cls-142" d="M22.71,90.97c-.16.19-.32.38-.49.57-.61.13-1.23.17-1.86.05,0-.18-.01-.36-.02-.54.29-.41.58-.8,1.17-.42.36.23.85.02,1.19.34h.01Z"/>
      <path class="cls-40" d="M42.83,60.82c-.44.31-.87.26-1.3,0,.56-.54,1.13-1.07,1.69-1.61.21.35-.28.62-.12.97-.09.22-.18.43-.27.65Z"/>
      <path class="cls-71" d="M39.13,70.52c-.19,1.75-.3,1.86-1.66,1.61.55-.54,1.1-1.07,1.66-1.61Z"/>
      <path class="cls-93" d="M21.76,83.87c-.5-.31-.57-.62-.16-1.11.44-.5.7-.29.99.1-.17.43-.3.88-.84,1.01h.01Z"/>
      <path class="cls-129" d="M34.68,71.79c.21.14.29.34.26.59-.44.2-.72.59-1.08.89-.03.32-.33.35-.52.5-.24.14-.48.26-.73,0,.07-.2.1-.4-.06-.57.64-.34,1.1-.84,1.42-1.49.23.09.46.24.72.07h-.01Z"/>
      <path class="cls-138" d="M25.66,91.41c-.06-.75.01-1.38,1.04-1.17.5,1.14-.47.97-1.04,1.17Z"/>
      <path class="cls-8" d="M31.98,78.43c-.36.16-.71.38-1.14.29-.04-.51.45-.67.67-1.02.19-.4.5-.67.86-.91.12.6.14,1.18-.39,1.63h0Z"/>
      <path class="cls-80" d="M34.37,67.47c.17.21.79-.1.6.53-.13.23-.38.25-.6.31l-.04-.06c-.33.17-.28.77-.81.72-.12-.13-.24-.27-.36-.4.36-.41.67-.87,1.19-1.1h.02Z"/>
      <path class="cls-127" d="M23.42,85.99c.15.74-.37.87-.9,1-.17-.23-.34-.47-.51-.7.44-.23.92-.32,1.41-.3Z"/>
      <path class="cls-120" d="M43.1,60.17c-.24-.36.08-.65.12-.97.35-.45.71-.88,1.23-1.15.04.13.08.25.12.38.04.52-.21.84-.67,1.04-.47,0-.66.33-.79.71h0Z"/>
      <path class="cls-114" d="M31.98,78.43c.13-.54.26-1.09.39-1.63.11-.26.3-.45.56-.56.19.6-.45,1.1-.22,1.71-.23.18-.41.44-.73.48Z"/>
      <path class="cls-82" d="M9.44,90.47c-.2.57.12.84.6,1.01-.03.09-.06.17-.08.26-.37.04-.91.2-1.05-.15-.15-.38-.03-.93.53-1.12Z"/>
      <path class="cls-46" d="M34.17,84.51c.34-.16.69-.36,1.07-.1-.3.64-.95.87-1.47,1.25.13-.38.27-.77.4-1.15Z"/>
      <path class="cls-4" d="M26.08,82.65c-.06.51-.56.76-.72,1.21-.31-.05-.86,0-.36-.53.29-.3.71-.46,1.07-.68h.01Z"/>
      <path class="cls-135" d="M33.86,73.28c.2-.5.31-1.1,1.08-.89,0,.09-.01.18-.02.28-.28.33-.58.63-1.06.62h0Z"/>
      <path class="cls-3" d="M50.53,60.38c.17-.53.51-.93.99-1.21v.53c-.26.24-.53.49-.79.73-.06.04-.12.05-.16.02s-.06-.06-.05-.08h0Z"/>
      <path class="cls-5" d="M32.61,73.78h.73c-.2.49-.6.75-1.08.92-.12-.31.02-.53.25-.72.04-.06.07-.13.1-.2Z"/>
      <path class="cls-58" d="M15.05,84.94c.2.26.07.51-.02.77-.12.05-.24.1-.35.15-.21.08-.37,0-.48-.19.23-.31.49-.57.85-.72h0Z"/>
      <path class="cls-73" d="M20.86,86.63c-.22.38-.35,1.01-.94.33.28-.2.58-.34.94-.33Z"/>
      <path class="cls-7" d="M31.51,77.7c-.22.34-.45.68-.67,1.02-.17.01-.34.02-.51.04.31-.45.71-.79,1.18-1.05h0Z"/>
      <path class="cls-129" d="M32.51,73.98c-.08.24-.16.48-.25.71-.15.09-.3.18-.45.26-.11-.12-.22-.24-.33-.36-.06-.09-.05-.16.05-.22.48.24.62-.33.97-.4h.01Z"/>
      <path class="cls-64" d="M11.85,89.55c-.21.63-.63.65-1.15.39.38-.13.76-.26,1.15-.39Z"/>
      <path class="cls-23" d="M17.81,91.55c.42-.43.84-.17,1.26,0-.42.18-.84.2-1.26,0Z"/>
      <path class="cls-38" d="M26.99,74.3c.11.51.02.81-.59.56.2-.19.39-.37.59-.56Z"/>
      <path class="cls-77" d="M41.5,67.79l.05-.1.03-.1c.08-.22.24-.26.45-.18.15.14.24.29.05.47-.14.11-.27.23-.41.34-.06-.14-.11-.29-.17-.43Z"/>
      <path class="cls-75" d="M14.2,85.66c.16.06.32.13.48.19-.26.17-.59.31-.8.09-.14-.15.15-.25.33-.28h0Z"/>
      <path class="cls-103" d="M50.53,60.38c.07,0,.15.03.21.06.47.29.67.66.32,1.18-.14.12-.28.23-.41.35-.25.19-.08-.65-.44-.18-.96-.71.15-.96.32-1.41Z"/>
      <path class="cls-94" d="M50.23,63.6c.34-.97.93-.1,1.39-.18.09.38,0,.65-.41.81-.46.18-.34-.28-.5-.42-.21.05-.38,0-.47-.21h0Z"/>
      <path class="cls-60" d="M52.98,63.93c.13-.23-.06-.59.28-.73.36-.15.84-.52,1.08-.14.35.53-.42.35-.56.6-.06.09-.04.23-.06.34-.26.17-.53.35-.74-.07Z"/>
      <path class="cls-125" d="M56.74,63.43c-.2.26-.48.32-.81.17-.25-.12-.4-.32-.19-.56.23-.27.58-.25.89-.14.21.07.27.28.12.54h0Z"/>
      <path class="cls-140" d="M55.54,59.46c.06.54.65.86.04,1.25-.11.07-.38.1-.41.04-.29-.47.05-.78.37-1.29Z"/>
      <path class="cls-104" d="M51.37,69.77c-.17-.24-.34-.48-.51-.71.03-.07.07-.14.1-.21.34-.24.72.12,1.06-.08.15.33-.07.66-.66,1.01h0Z"/>
      <path class="cls-95" d="M52.03,68.76c-.31.55-.7.18-1.06.08.28-1,.69-.25,1.06-.08Z"/>
      <path class="cls-134" d="M56.83,65.27c.3.19.64.41.31.8-.2.23-.48.26-.59-.15-.07-.29-.02-.52.28-.65Z"/>
      <path class="cls-116" d="M51.9,67.12c-.62.04-.9-.3-.95-.88.77-.2.63.59.95.88Z"/>
      <path class="cls-125" d="M56.83,65.27c-.09.22-.19.44-.28.65-.16-.24-.59-.41-.33-.77.18-.25.48-.3.61.12Z"/>
      <path class="cls-118" d="M53.76,65.82c.08-.45.33-.58.72-.35.4.23.11.43-.06.63-.3.11-.51-.02-.66-.28Z"/>
      <path class="cls-123" d="M52.98,63.93l.74.07c.13.08.27.15.4.23-.3.07-.6.19-.91.2-.38.02-.29-.26-.23-.5Z"/>
      <path class="cls-95" d="M53.76,65.82c.22.09.44.19.66.28.17.26.05.5-.2.49-.45-.02-.4-.45-.46-.76h0Z"/>
      <path class="cls-139" d="M61.21,62.66c-.13-.08-.29-.16-.13-.32.13-.13.32-.23.5-.11.06.04.08.21.06.31-.06.3-.25.18-.43.12Z"/>
      <path class="cls-130" d="M58.36,62.65c-.13-.11-.09-.26-.03-.4.06-.14.17-.32.32-.13.07.09.04.3,0,.44-.03.12-.15.18-.3.09h0Z"/>
      <path class="cls-91" d="M53.22,61.13c-.4-.25-.49-.49-.23-.87.14.27.38.45.23.87Z"/>
      <path class="cls-119" d="M48.98,66.71c.19.17.37.34.56.52-.03.06-.06.13-.08.2-.21.1-.42.2-.62.3-.18-.37-.16-.71.15-1.01h-.01Z"/>
      <path class="cls-101" d="M58.66,60.22c.11.16.3.27.1.42-.07.05-.24.06-.32.02-.17-.09-.16-.27-.05-.39.05-.06.19-.03.26-.04h.01Z"/>
      <path class="cls-117" d="M50.23,63.6c.16.07.31.14.47.21-.17.19-.4.25-.64.27-.25-.03-.27-.15-.13-.34.1-.05.2-.09.3-.14Z"/>
      <path class="cls-100" d="M49.92,63.74c.04.11.09.22.13.34-.17.13-.35.09-.53.03-.2-.48.1-.43.4-.36h0Z"/>
      <path class="cls-79" d="M43.01,73.07c-.14.35-.3.66-.77.5-.53,0-.8-.23-.68-.79-.08-.53.14-.99.33-1.45-.13-.25-.2-.49.03-.72-.02-.07-.02-.18-.08-.22-.64-.47-.18-1.01-.05-1.49.06-.22.47-.12.64-.02.52.31.4.78.22,1.25.17.32.34.64.11,1-.1.53.37.85.49,1.3.09.28,0,.5-.26.64h.02Z"/>
      <path class="cls-20" d="M43.01,73.07c.09-.21.17-.43.26-.64.59-.31,1.19-.47,1.81-.04,0,.23.03.47,0,.69-.1.74-.64,1.09-1.29,1.11-.68.01-.59-.69-.77-1.12h0Z"/>
      <path class="cls-48" d="M45.43,69.67c.48-.21.87-1.03,1.48-.28.23.28.51.7.21,1.09-.31.41-.82.52-1.29.39-.62-.18-.51-.71-.41-1.19h.01Z"/>
      <path class="cls-14" d="M42.77,71.13c-.07-.33-.27-.65-.11-1,.22-.15.44-.43.66-.44.47-.02.95.15,1.23.56.14.2.17.55-.07.77-.33.29-.67.54-1.15.24-.16-.1-.38-.09-.57-.13h.01Z"/>
      <path class="cls-26" d="M41.56,72.78c.13.35.36.61.68.79-.14.82-.73,1.08-1.46,1.16.3-.65-1.02-.93-.37-1.65.38-.11.67-.55,1.15-.3Z"/>
      <path class="cls-43" d="M47.41,71.81c.33.38.6.8.14,1.24-.37.36-.92.44-1.32.21-.45-.26-.45-.79-.21-1.26.43-.3.94-.03,1.39-.19Z"/>
      <path class="cls-79" d="M46.26,66.37c-.54-.74.71-.85.51-1.47.08,0,.22,0,.22.03.06.72,1.17,1.12.6,2.02h0c-.09-.03-.18-.07-.27-.1-.32.14-.63.23-.94,0-.12-.13-.17-.28-.12-.46h0Z"/>
      <path class="cls-44" d="M41.93,70.61c0,.24-.02.48-.03.72-.28.13-.55.28-.84.38-.5.16-.68-.17-.84-.57-.2-.52.09-.72.5-.84.46-.14.82.16,1.21.32h0Z"/>
      <path class="cls-16" d="M50.26,72.41c-.99.54-1.48.35-1.76-.69,1.18-.63,1.62-.45,1.76.69Z"/>
      <path class="cls-79" d="M45.42,69.68c-.74-.2-1.35-.55-1.5-1.38h0c.16,0,.31-.04.47-.04,1.6-.05,1.62-.02,1.03,1.42h0Z"/>
      <path class="cls-21" d="M46.26,66.37c.05.11.09.21.14.32.06.23.33.37.26.65-.16.45-.39.78-.95.63-.38-.1-.48-.4-.45-.73.05-.59.37-.93,1-.86h0Z"/>
      <path class="cls-12" d="M45.11,62.83c-.33-.19-.86-.2-.71-.81.11-.44.45-.6.83-.71,1.13.02.69.68.51,1.24-.23.06-.24.58-.63.29h0Z"/>
      <path class="cls-20" d="M47.65,64.89c-.17-.23-.85-.02-.56-.63.22-.47.68-.76,1.14-.72.54.05.77.48.57,1.04-.35.21-.72.39-1.15.31Z"/>
      <path class="cls-54" d="M43.9,67.02c-.18.43.26.84.03,1.27h0c-.54,0-1.36.63-1.33-.61,0-.61.31-.94.91-1.01.2.05.35.15.39.36h0Z"/>
      <path class="cls-61" d="M48.98,66.71c-.05.34-.1.67-.15,1.01-.95.6-1.07-.12-1.23-.77h0c.49.06.71-1.39,1.39-.24h0Z"/>
      <path class="cls-76" d="M43.48,66.82c-.39.18-.63.53-.89.86-.17.07-.35.13-.52.2-.06-.15-.12-.29-.17-.44-.07-.58.47-.7.76-1.01.39-.29.73-.68,1.26-.75.2-.1.39-.2.59-.3.14-.07.23-.03.25.13-.2.25-.41.51-.61.76-.05.4-.37.46-.67.55Z"/>
      <path class="cls-59" d="M47.97,61.19c.31.28.98.31.74.79-.32.62-1.01.2-1.49.15-.38-.04-.07-.54,0-.77.14-.5.49-.36.76-.17h0Z"/>
      <path class="cls-62" d="M43.89,59.46c.16-.39.34-.76.67-1.04.46.24.91.48.83,1.12-.5.26-.98.79-1.56.13.02-.07.04-.15.06-.22h0Z"/>
      <path class="cls-67" d="M48.6,68.9c.4.12,1.07-.12,1.02.61-.03.57-.44.7-.95.47-.31-.03-.39-.24-.43-.5-.02-.28.11-.47.35-.58h.01Z"/>
      <path class="cls-122" d="M45.11,62.83c.21-.1.42-.19.63-.29.02.54-.61,1.28.45,1.51-.06.35-.37.5-.6.7-.28.06-.44.54-.83.24.33-.69.41-1.41.35-2.17h0Z"/>
      <path class="cls-79" d="M47.94,71.23c-.23-.14-.68-.18-.48-.62.16-.34.48-.14.72-.05.25.1.59.19.46.55-.13.37-.44.2-.71.12h0Z"/>
      <path class="cls-99" d="M48.79,55.76c.04-.07.08-.15.11-.22.43-.1.87-.24,1.19.24.76.44.38.73-.14.99-.09-.17,0-.48-.36-.42h0c-.1-.42-.72-.15-.8-.59Z"/>
      <path class="cls-37" d="M47.65,64.89c.33-.29.7-.46,1.15-.31.05.11.09.22.14.33h0c-.43.61-.86.68-1.28,0h-.01Z"/>
      <path class="cls-98" d="M50.59,58.57c-.26.16-.55.42-.87.48-.19.04-.21-.36-.1-.47.23-.25.48-.56.88-.47.15.03.19.23.09.45h0Z"/>
      <path class="cls-108" d="M43.83,59.68c.55.36,1.03-.2,1.56-.13-.46.73-.94,1.29-1.56.13Z"/>
      <path class="cls-74" d="M45.47,64.53c.24-.16.49-.31.73-.47-.11.42.43,1.29-.69.98-.13-.16.05-.34-.03-.51h-.01Z"/>
      <path class="cls-79" d="M48.6,68.9c-.09.22-.18.45-.27.67-.07.03-.13.03-.17,0-.04-.04-.06-.07-.05-.08-.2-.13-.65-.17-.45-.52.22-.39.61-.18.94-.06h0Z"/>
      <path class="cls-118" d="M50.09,55.77c-.4-.08-.79-.16-1.19-.24.67-1.3.87-.26,1.19.24Z"/>
      <path class="cls-96" d="M48.79,55.76c.19.3.94-.15.8.59-.26-.03-.53-.03-.77-.11-.35-.11-.44-.3-.03-.48Z"/>
      <path class="cls-35" d="M47.97,59.05c-.24-.08-.55.34-.7-.05-.08-.21.1-.5.36-.51.38-.02.44.24.33.56,0,0,0,0,0,0Z"/>
      <path class="cls-1" d="M45.47,64.53c.15.16.09.33.03.51-.24.16-.49.32-.73.49-.08-.04-.17-.09-.25-.13.08-.13.17-.26.25-.39.23-.16.47-.31.7-.47h0Z"/>
      <path class="cls-39" d="M47.96,59.06c.23.04.59-.18.6.27,0,.1-.19.29-.28.29-.38,0-.4-.27-.31-.57h0Z"/>
      <path class="cls-47" d="M50.21,61.79c.16-.24.13-.63.52-.72.36.34-.43.57-.08.89-.25.2-.37.07-.44-.18h0Z"/>
      <path class="cls-34" d="M46.66,67.33c-.19-.18-.29-.39-.26-.65.31.05.62.11.93.16-.11.33-.35.47-.67.49Z"/>
      <path class="cls-123" d="M52.5,53.33c-.38-.36-.08-.61-.2-1.07.42.43.43.69.2,1.07Z"/>
      <path class="cls-122" d="M45.23,61.3c-.28.24-.55.47-.83.71-.07-.03-.14-.07-.21-.1.06-.15.13-.3.19-.44.29-.03.51-.39.85-.17Z"/>
      <path class="cls-79" d="M43.48,66.82c.22-.18.45-.36.67-.55.34.4-.08.53-.26.75-.14-.07-.27-.13-.41-.2Z"/>
      <path class="cls-102" d="M52.07,55.72c-.03-.07-.12-.16-.11-.26,0-.16.15-.16.24-.09.08.06.16.17.16.25,0,.13-.12.17-.28.1h-.01Z"/>
      <path class="cls-91" d="M48.11,69.48c.07.03.15.06.22.09.11.14.23.28.34.41-.51.19-.68,0-.57-.5h0Z"/>
      <path class="cls-107" d="M49.59,56.35c.31-.02.52.04.36.42-.49.18-.43-.11-.36-.42Z"/>
      <path class="cls-19" d="M41.03,77.2c-.11-.13-.22-.26-.33-.38-.06-.37-.05-.72.21-1.02.24-.29.51-.5.93-.34.33.13.67.23.74.67.08.48-.28.59-.53.83-.31.3-.7.07-1.01.24h-.01Z"/>
      <path class="cls-45" d="M38.49,75.92c.1-.04.2-.08.29-.12.67.23,1.42.41.98,1.41-1.54.14-1.71-.03-1.27-1.29Z"/>
      <path class="cls-63" d="M44.19,76.29c-.33-.21-.33-.62-.22-.92.14-.36.56-.66.93-.57.41.1.39.59.24.91-.16.34-.39.72-.95.58Z"/>
      <path class="cls-131" d="M35.17,82.06c-.83-.54-1.3,0-1.77.57-.09.38-.38.31-.65.3-.47-.12-.92-.28-1.24-.67-.14-.26-.09-.51.01-.77.14-.28.37-.51.59-.73.38-.39.81-.71,1.35-.31.47.35,1.02-.02,1.5.22-.39.53.2.91.21,1.38h0Z"/>
      <path class="cls-15" d="M34.96,80.67c-.57.39-1.15.59-1.7,0-.5-.53-.64.21-.97.25-.31-.26-.66-.5-.4-.99.42.2.77.23,1.13-.18.64-.73,1.36-.84,2.05-.03-.04.32-.08.63-.12.95h.01Z"/>
      <path class="cls-18" d="M35.62,77.84c-.31-1.37.02-1.73,1.38-1.52.19.17.38.34.57.51-.35.91-.82,1.61-1.95,1.01Z"/>
      <path class="cls-19" d="M37.66,80.12c-.3.46-.76.57-1.22.35-.43-.21-.56-.66-.4-1.11.2-.54.66-.69,1.14-.46.47.23.61.69.48,1.22Z"/>
      <path class="cls-44" d="M39.05,80.02c-.38-.22-.46-.68-.34-1.09.11-.37.54-.53.89-.34.39.21.74.58.53,1.06-.16.38-.55.57-1.08.36h0Z"/>
      <path class="cls-85" d="M42.83,66.56c-.31.3-.62.59-.93.89-.11.05-.22.1-.33.14-.67-.21-1.41-.94-1.88.26-.26-.53.13-.8.45-1.09.65-.47.67-1.28,1.01-1.92.33-.13.66-.25,1-.38.27.54.08,1.27.7,1.67.09.15.15.3-.02.43Z"/>
      <path class="cls-41" d="M38.43,69.67c-1.23.13-1.61-.4-1.31-1.83.35-.02.71-.11,1.04-.04.84.18.94.99.27,1.87Z"/>
      <path class="cls-43" d="M41.15,64.84c.1.87.17,1.72-1.01,1.92-.53-.42-1.1-.83-.62-1.63.42-.7,1.01-.59,1.62-.29h0Z"/>
      <path class="cls-67" d="M42.69,66.22c-1-.33-.66-1.09-.55-1.77.83-.03,1.77-.21,1.58,1.15-.32.25-.58.59-1.03.61h0Z"/>
      <path class="cls-42" d="M42.15,61.86c.51-.39.92-.34,1.24.24-.06.14-.12.28-.19.42-.19.47-.53.62-1,.42-.06-.04-.12-.08-.18-.12-.02-.33-.28-.69.13-.96Z"/>
      <path class="cls-126" d="M42.2,62.95c.33-.14.67-.28,1-.42.04.67.02,1.26-.93.95-.02-.18-.04-.36-.07-.53Z"/>
      <path class="cls-24" d="M42.69,66.22c.32-.25.57-.6,1.03-.61.07.02.13.05.2.07-.32.35-.64.69-1.09.87-.05-.11-.09-.22-.14-.34h0Z"/>
      <path class="cls-36" d="M37.64,73.91c.33-.7.81-.99,1.41-.77.47.17.59.75.41,1.12-.21.44-.67.87-1.23.7-.49-.15-.62-.66-.59-1.05Z"/>
      <path class="cls-136" d="M21.45,79.61c.21.07.42.14.62.21.06.41,1.08.46.37,1.18-.54.55-1.01.21-1.36-.07-.76-.61.32-.85.36-1.32h0Z"/>
      <path class="cls-5" d="M33.97,71.72c.11,1.05-.31,1.6-1.42,1.49-.61-.54-1.04-1.15-.38-1.9.31-.36,0-.57-.04-.85.63.26.6-.58,1.05-.62-.53.96.11,1.43.79,1.88Z"/>
      <path class="cls-19" d="M34.37,68.31c.12-.26.36-.29.6-.31.66.31,1.58.42,1.21,1.54-.73.91-1.41.67-2.07-.09.1-.38.45-.69.26-1.14Z"/>
      <path class="cls-17" d="M22.71,90.97c-.46.11-.97.31-1.37-.07-.44-.42-.68,0-.99.15.16-.31.18-.64.14-.99.55-.86,1.23-1.38,2.29-.84.73.61.39,1.18-.07,1.74h0Z"/>
      <path class="cls-90" d="M22.59,89.36c-.99-.63-1.35.64-2.1.7-.3-.3-.61-.6-.91-.9.34-1.02.99-1.34,1.88-.69.38.28.64.14.96.03.19.26.42.51.17.86Z"/>
      <path class="cls-128" d="M17.39,90.08c-.82-1.01.05-1.34.7-1.76.11.13.22.26.33.39.14.4.67.73.22,1.25-.4.47-.81.35-1.26.12h.01Z"/>
      <path class="cls-128" d="M15.81,90.72c-.25-.01-.51-.02-.76-.03.04-.43-1.04-.4-.42-1.06.25-.26.42-.74.92-.45.41.24.79.55.45,1.12-.06.14-.12.28-.19.42Z"/>
      <path class="cls-111" d="M27.31,76.53c.65.89.55,1.29-.47,1.85-.2-.56-1.21-.56-.97-1.42.41-.39.81-.8,1.45-.43h-.01Z"/>
      <path class="cls-110" d="M29.85,74.23c-.31.83-.85.74-1.47.37-.57-.81.23-1.24.51-1.81.37.33.63.78,1.14.94,0,0-.18.5-.18.5Z"/>
      <path class="cls-87" d="M22.59,89.36c-.05-.29-.35-.52-.17-.86.06-.14.12-.27.18-.41.76-.58,1.6.45,2.36-.13-.24.48.35.63.39.99-.4-.15-.82-.5-1.2-.05-.39.45-.51.98-.19,1.54-.69-.48-.8.41-1.24.53.3-.56.49-1.12-.12-1.61h0Z"/>
      <path class="cls-12" d="M31.89,79.94c.13.33.26.66.4.99-.17.18-.33.36-.5.54-.62.43-1.1.24-1.47-.36-.1-.26.15-.47.09-.73.35-.64.73-1.17,1.48-.44Z"/>
      <path class="cls-49" d="M30.41,80.38c.15.17.12.36.04.55-.23.12-.13.37-.21.55-.19.45-.38.9-.76,1.23-.6.2-.73.92-1.28,1.17-.32-.72.55-1.26.29-1.96.53.29.87.02,1.17-.4.47-.66-.32-.93-.43-1.41.39.12.71.52,1.18.25v.02Z"/>
      <path class="cls-10" d="M31.53,74.38c0,.08-.02.15-.05.22-.38-.16-.75-.32-1.13-.47.46-.21.79.14,1.18.25Z"/>
      <path class="cls-62" d="M42.15,61.86c-.04.32-.09.64-.13.96-.29-.37-.43-.71.13-.96Z"/>
      <path class="cls-88" d="M32.83,82.68c.2.07.39.1.57-.05.02.18.03.36.05.54-.6.14-.47,1.12-1.23,1.08-.02-.05-.04-.1-.05-.15.15-.5.37-.97.66-1.41h0Z"/>
      <path class="cls-9" d="M28.2,83.89c.35-.53.22-1.54,1.32-1.29.44-.07.84.06,1.24.21.15.4.5.75.27,1.23-.79.26-1.12.69-.54,1.46.28.37.22.8.16,1.23-.26.23-.52.46-.78.69-.72-.23-1.41-.49-1.49-1.4.23-.49,1.05-.94.1-1.51-.09-.21-.18-.41-.28-.62Z"/>
      <path class="cls-88" d="M30.65,86.73c-.13-.48-.18-.99-.59-1.37-.26-.24-.51-.53-.19-.91.3-.35.56-.8,1.14-.45.43-.17.83-.11,1.19.2l.02.04c.16.24.31.48.47.72-.68-.42-1.06.02-1.45.49-.45.53-.06.91.22,1.31-.26-.09-.52-.25-.8-.03h0Z"/>
      <path class="cls-137" d="M33.53,68.97c.27-.24.54-.48.81-.72-.31.19.09,1.18-.81.72Z"/>
      <path class="cls-13" d="M32.19,84.2c-.43.12-.81,0-1.19-.2-.09-.39-.55-.69-.3-1.18-.08-.17-.04-.31.06-.45.21-.2.45-.31.75-.24.44.18.88.36,1.31.54.2.68-.24,1.09-.63,1.53Z"/>
      <path class="cls-109" d="M31.51,82.13c-.21.1-.42.21-.62.31-.17-.2.43-.76-.35-.7-.22.02-.39-.25-.49-.47.07-.19.18-.33.4-.34.28.6.8.58,1.34.54-.09.22-.18.45-.27.67h0Z"/>
      <path class="cls-131" d="M30.05,81.27c.37.32,1.5.1.84,1.17-.06.13-.12.26-.18.38-.49.42-.82.02-1.18-.22-.07-.54.4-.87.53-1.33h-.01Z"/>
    </g>
  </g>
</svg>