<?xml version="1.0" encoding="UTF-8"?>
<svg id="_圖層_2" data-name="圖層 2" xmlns="http://www.w3.org/2000/svg" viewBox="0 0 177.65 211.36">
  <defs>
    <style>
      .cls-1, .cls-2, .cls-3, .cls-4 {
        stroke: #543c1a;
      }

      .cls-1, .cls-2, .cls-4 {
        stroke-linecap: round;
        stroke-linejoin: round;
        stroke-width: 2px;
      }

      .cls-1, .cls-5 {
        fill: #543c1a;
      }

      .cls-2 {
        fill: #a1d0f8;
      }

      .cls-3 {
        stroke-miterlimit: 10;
      }

      .cls-3, .cls-6 {
        fill: #fff;
      }

      .cls-4 {
        fill: none;
      }

      .cls-5, .cls-6 {
        stroke-width: 0px;
      }
    </style>
  </defs>
  <g id="group">
    <g id="main">
      <g>
        <path class="cls-3" d="M175.86,42.24c-.45-1.82-1-3.37-1.69-4.75-9.22-18.57-29.75-30.84-56.32-33.67-1.52-.16-3.08-.29-4.62-.39-2.13-.13-4.3-.2-6.45-.2-.94,0-1.88.01-2.83.04-1.54.04-3.09.12-4.63.22-1.53.11-3.08.25-4.6.42-3.83.44-7.64,1.09-11.3,1.94-.11.02-.21.05-.32.08-4.01-4.78-9.01-5.44-11.45-5.44-1.65,0-3.33.27-5,.81-5.07,1.64-8.9,5.35-10.87,9.9-1.85-.64-3.82-.97-5.84-.97-2.79,0-5.57.67-8.07,1.93-9.11,4.63-9.88,13.94-6.57,21.63-.5,2.08-.64,4.22-.4,6.33-.88,1.28-1.72,2.56-2.51,3.83-2.61,4.18-4.89,8.54-6.79,12.98-.67,1.57-1.33,3.17-1.96,4.79-2.38-1.66-5.16-2.6-8.11-2.6-.46,0-.93.02-1.39.07-4.75.48-8.88,3.34-11.34,7.83-1.82,3.34-2.6,7.42-2.19,11.51.59,5.82,3.46,10.75,7.5,13.61,1.07,7.14,2.01,13.42,3.03,19.55-.58,3.9-1.11,7.94-1.58,12.02-.35,3.02-.68,6.18-.99,9.4-.12,1.22-.23,2.74-.34,4.52-.49,8.02-.88,21.93-.64,34.94.42,22.13,2.32,28.99,3.94,32.48,1.63,3.54,5.18,5.81,9.08,5.81h134.85c2.79,0,5.45-1.16,7.34-3.21,1.89-2.05,2.84-4.79,2.63-7.57l-8.65-109.69c-.23-2.9-1.71-5.56-4.06-7.28-1.6-1.17-3.5-1.83-5.44-1.92.35-.08.69-.16,1.03-.24.84-.2,1.95-.48,3.07-.8.53-.14,1.05-.29,1.56-.45l.34-.1c.34-.11.68-.21,1.01-.32,1.6-.52,2.99-1.05,4.27-1.61.36-.16.71-.32,1.06-.49l.69-.34c4.83-2.35,10.22-5.34,13.59-9.64.36-.46.69-.93.99-1.4,1.31-2.04,1.93-4.42,2.17-8.22.24-3.87.07-10.21-1.19-15.34Z"/>
        <g>
          <path class="cls-6" d="M166.59,60.4c-2.14,3.34-7.83,6.13-11.2,7.76-.25.12-.51.24-.78.36-.97.43-2.07.84-3.3,1.24-.4.13-.8.25-1.22.38-.42.13-.85.25-1.29.37-.88.24-1.81.48-2.78.71h.05c-22.57,5.41-68.28,7.13-90.08-3.05,0,0,1.47,43.73,90.93,23,0,23.21.51,29.01,2.08,51.07.05.73.1,1.46.15,2.19.84,11.95,6.42,56.43,6.42,56.43H20.72c-4.27-9.26-3.23-54.94-2.08-66.78,2.35-24.39,6.55-50.56,16.27-73.2,4.71-10.98,11.37-20.08,19.38-28.64,25.59-27.34,93.28-26.1,111.05,9.69,2.36,4.75,2.27,16.88,1.25,18.47Z"/>
          <path class="cls-4" d="M146.92,91.17c-89.46,20.73-90.93-23-90.93-23,21.8,10.18,67.51,8.46,90.08,3.05.95-.23,1.86-.46,2.73-.71.44-.12.87-.24,1.29-.37.42-.12.83-.25,1.22-.38,1.23-.4,2.33-.81,3.3-1.24.27-.12.53-.24.78-.36,3.37-1.63,9.06-4.42,11.2-7.76,1.02-1.59,1.11-13.72-1.25-18.47C147.57,6.14,79.88,4.9,54.29,32.24c-8.01,8.56-14.67,17.66-19.38,28.64-9.72,22.64-13.92,48.81-16.27,73.2-1.15,11.84-2.19,57.52,2.08,66.78"/>
          <path class="cls-4" d="M155.57,200.86s-5.58-44.48-6.42-56.43c-.05-.75-.1-1.47-.15-2.19-1.57-22.06-2.08-27.86-2.08-51.07"/>
          <g>
            <path class="cls-5" d="M88.82,59.95c0,2.13-1.73,3.86-3.86,3.86s-3.86-1.73-3.86-3.86,1.73-3.86,3.86-3.86,3.86,1.73,3.86,3.86Z"/>
            <path class="cls-5" d="M152.03,56.09c0,2.13-1.73,3.86-3.86,3.86s-3.86-1.73-3.86-3.86,1.73-3.86,3.86-3.86,3.86,1.73,3.86,3.86Z"/>
          </g>
          <g>
            <path class="cls-4" d="M31.31,157.59c-8.99-35.3-10.27-48.08-15.26-80.61"/>
            <path class="cls-1" d="M21.43,76.44c-.44-4.33-3.2-7.59-6.17-7.29-2.97.3-5.02,4.05-4.58,8.38.44,4.33,3.2,7.59,6.17,7.29,2.97-.3,5.02-4.05,4.58-8.38Z"/>
          </g>
          <g>
            <path class="cls-2" d="M57.05,24.53c-1.96-3.86-6.68-5.4-10.54-3.44s-3.49,5.71-1.53,9.57c.46.91.98,1.75,1.54,2.47-1.77,2.51-2.17,5.76-.76,8.55,2.09,4.12,7.34,5.65,11.73,3.42,4.39-2.23,6.26-7.37,4.17-11.49-.87-1.72-2.3-2.98-3.98-3.71.42-1.75.25-3.64-.63-5.37Z"/>
            <path class="cls-2" d="M64.81,20.7c-1.33-4.12.92-8.54,5.04-9.87,4.12-1.33,6.5,1.58,7.83,5.7.32.97.54,1.93.65,2.83,3.02.53,5.61,2.55,6.57,5.53,1.42,4.39-1.22,9.18-5.9,10.7-4.68,1.52-9.63-.81-11.05-5.2-.59-1.83-.47-3.73.2-5.43-1.53-.94-2.74-2.41-3.34-4.25Z"/>
            <path class="cls-2" d="M71.06,27.56c2.01,4.56,2.04,8.69-2.7,10.78s-8.4.07-10.41-4.5c-2.01-4.56-1.62-9.94,3.13-12.03s7.97,1.18,9.98,5.74Z"/>
          </g>
          <g>
            <path class="cls-4" d="M147.74,127.85c.54,8.48,5.3,35.02-4.7,44.26-10.24,9.45-35.96-37.76-35.96-37.76"/>
            <path class="cls-5" d="M97.79,135.23c1.86,2.99,6.43,3.51,10.21,1.17,3.78-2.35,5.33-6.68,3.47-9.67-1.86-2.99-6.43-3.51-10.21-1.17-3.78,2.35-5.33,6.68-3.47,9.67Z"/>
          </g>
        </g>
      </g>
    </g>
  </g>
</svg>