<?xml version="1.0" encoding="UTF-8"?>
<svg id="_圖層_2" data-name="圖層 2" xmlns="http://www.w3.org/2000/svg" viewBox="0 0 197.07 211.36">
  <defs>
    <style>
      .cls-1, .cls-2, .cls-3, .cls-4 {
        stroke: #543c1a;
      }

      .cls-1, .cls-2, .cls-4 {
        stroke-linecap: round;
        stroke-linejoin: round;
        stroke-width: 2px;
      }

      .cls-1, .cls-5 {
        fill: #543c1a;
      }

      .cls-2 {
        fill: #a1d0f8;
      }

      .cls-3 {
        stroke-miterlimit: 10;
      }

      .cls-3, .cls-6 {
        fill: #fff;
      }

      .cls-4 {
        fill: none;
      }

      .cls-5, .cls-6 {
        stroke-width: 0px;
      }
    </style>
  </defs>
  <g id="group">
    <g id="main">
      <g>
        <path class="cls-3" d="M195.66,134.46c-.04-.49-.08-.94-.12-1.34-1.95-20.21-5.83-50.09-17.03-76.18-1.9-4.43-4.19-8.8-6.8-12.98-.79-1.27-1.63-2.55-2.51-3.83.24-2.11.11-4.25-.4-6.33,3.31-7.69,2.54-17-6.57-21.63-2.49-1.26-5.28-1.93-8.07-1.93-2.03,0-4,.34-5.84.97-1.97-4.54-5.8-8.25-10.87-9.9-1.67-.54-3.35-.81-5-.81-2.44,0-7.44.66-11.45,5.44-2.31-.54-4.67-1.01-7.06-1.39-2.25-.36-4.56-.65-6.86-.86-3.05-.28-6.17-.43-9.25-.45h-.5c-2.15,0-4.33.06-6.46.2-1.54.09-3.1.22-4.62.39-2.31.25-4.62.57-6.87.97-23.48,4.16-41.04,15.77-49.45,32.7-.8,1.61-1.42,3.46-1.9,5.66-.24,1.11-.44,2.32-.61,3.58-.07.58-.14,1.17-.2,1.78-.06.58-.1,1.17-.14,1.75-.04.58-.07,1.15-.09,1.72-.02.56-.03,1.12-.04,1.68,0,.84,0,1.64.02,2.39.02.54.04,1.05.07,1.53.24,3.81.86,6.19,2.17,8.22.81,1.27,1.84,2.5,3.06,3.66,3.24,3.09,7.45,5.36,10.76,7,.51.25.99.49,1.47.72.34.16.68.32,1.06.49,1.26.56,2.66,1.09,4.26,1.61.34.11.69.22,1.04.33l.32.1c.5.16,1.02.3,1.55.45,1.12.32,2.23.59,3.1.8.33.08.67.16,1.01.24-1.94.09-3.84.75-5.44,1.92-2.35,1.72-3.83,4.38-4.06,7.28l-2.03,25.74c-2.58.75-4.85,2.05-6.65,3.78l-2.77-.29c-.06-.26-.14-.52-.21-.78-2.05-6.78-8.59-11.33-16.27-11.33-1.94,0-3.87.29-5.75.86-9.52,2.89-15.12,12.28-12.5,20.94,1.63,5.38,6.08,9.35,11.68,10.77,1.62,5.53,3.91,12.73,6.63,19.46,4.31,10.68,10.47,22.8,20.48,24.75l-1.25,15.81c-.22,2.78.73,5.53,2.63,7.57,1.89,2.05,4.56,3.21,7.34,3.21h134.85c3.9,0,7.45-2.27,9.08-5.81,6.48-14.06,3.12-70.03,3.07-70.59Z"/>
        <g>
          <g>
            <path class="cls-4" d="M60.79,132.31c-1.65,8.36-3.87,35.33-15.89,41.67-12.3,6.49-25.01-46.02-25.01-46.02"/>
            <path class="cls-5" d="M10.72,126.39c1.03,3.39,5.3,5.09,9.55,3.8,4.25-1.29,6.86-5.08,5.83-8.47-1.03-3.39-5.3-5.09-9.55-3.8-4.25,1.29-6.86,5.08-5.83,8.47Z"/>
          </g>
          <path class="cls-6" d="M37.64,60.4c2.14,3.34,7.83,6.13,11.2,7.76.25.12.51.24.78.36.97.43,2.07.84,3.3,1.24.4.13.8.25,1.22.38.42.13.85.25,1.29.37.88.24,1.81.48,2.78.71h-.05c22.57,5.41,68.28,7.13,90.08-3.05,0,0-1.47,43.73-90.93,23,0,23.21-.51,29.01-2.08,51.07-.05.73-.1,1.46-.15,2.19-.84,11.95-6.42,56.43-6.42,56.43h134.85c4.27-9.26,3.23-54.94,2.08-66.78-2.35-24.39-6.55-50.56-16.27-73.2-4.71-10.98-11.37-20.08-19.38-28.64C124.35,4.9,56.66,6.14,38.89,41.93c-2.36,4.75-2.27,16.88-1.25,18.47Z"/>
          <path class="cls-4" d="M57.31,91.17c89.46,20.73,90.93-23,90.93-23-21.8,10.18-67.51,8.46-90.08,3.05-.95-.23-1.86-.46-2.73-.71-.44-.12-.87-.24-1.29-.37-.42-.12-.83-.25-1.22-.38-1.23-.4-2.33-.81-3.3-1.24-.27-.12-.53-.24-.78-.36-3.37-1.63-9.06-4.42-11.2-7.76-1.02-1.59-1.11-13.72,1.25-18.47C56.66,6.14,124.35,4.9,149.94,32.24c8.01,8.56,14.67,17.66,19.38,28.64,9.72,22.64,13.92,48.81,16.27,73.2,1.15,11.84,2.19,57.52-2.08,66.78"/>
          <path class="cls-4" d="M48.66,200.86s5.58-44.48,6.42-56.43c.05-.75.1-1.47.15-2.19,1.57-22.06,2.08-27.86,2.08-51.07"/>
          <g>
            <path class="cls-5" d="M115.4,59.95c0,2.13,1.73,3.86,3.86,3.86s3.86-1.73,3.86-3.86-1.73-3.86-3.86-3.86-3.86,1.73-3.86,3.86Z"/>
            <path class="cls-5" d="M52.19,56.09c0,2.13,1.73,3.86,3.86,3.86s3.86-1.73,3.86-3.86-1.73-3.86-3.86-3.86-3.86,1.73-3.86,3.86Z"/>
          </g>
          <g>
            <path class="cls-4" d="M157.16,148.25c-47.05-4.75-63.19-8.88-105.09-17.29"/>
            <path class="cls-1" d="M53.41,125.73c-4.22-1.07-8.23.4-8.97,3.29-.74,2.89,2.09,6.11,6.3,7.18,4.22,1.07,8.23-.4,8.97-3.29.74-2.89-2.09-6.11-6.3-7.18Z"/>
          </g>
          <g>
            <path class="cls-2" d="M147.17,24.53c1.96-3.86,6.68-5.4,10.54-3.44s3.49,5.71,1.53,9.57c-.46.91-.98,1.75-1.54,2.47,1.77,2.51,2.17,5.76.76,8.55-2.09,4.12-7.34,5.65-11.73,3.42-4.39-2.23-6.25-7.37-4.17-11.49.87-1.72,2.3-2.98,3.98-3.71-.42-1.75-.25-3.64.63-5.37Z"/>
            <path class="cls-2" d="M139.41,20.7c1.33-4.12-.92-8.54-5.04-9.87-4.12-1.33-6.5,1.58-7.83,5.7-.32.97-.54,1.93-.65,2.83-3.02.53-5.61,2.55-6.57,5.53-1.42,4.39,1.22,9.18,5.9,10.7,4.68,1.52,9.63-.81,11.05-5.2.59-1.83.47-3.73-.2-5.43,1.53-.94,2.74-2.41,3.34-4.25Z"/>
            <path class="cls-2" d="M133.16,27.56c-2.01,4.56-2.04,8.69,2.7,10.78s8.4.07,10.41-4.5c2.01-4.56,1.62-9.94-3.13-12.03s-7.97,1.18-9.98,5.74Z"/>
          </g>
        </g>
      </g>
    </g>
  </g>
</svg>