<?xml version="1.0" encoding="utf-8"?>
<!-- Generator: Adobe Illustrator 28.1.0, SVG Export Plug-In . SVG Version: 6.00 Build 0)  -->
<svg version="1.1" id="_圖層_2" xmlns="http://www.w3.org/2000/svg" xmlns:xlink="http://www.w3.org/1999/xlink" x="0px" y="0px"
	 viewBox="0 0 185 359.6" style="enable-background:new 0 0 185 359.6;" xml:space="preserve">
<style type="text/css">
	.st0{fill:#FFFFFF;}
	.st1{fill:none;stroke:#5B3910;stroke-width:2;stroke-linecap:round;stroke-linejoin:round;}
	.st2{fill:#5B3910;stroke:#5B3910;stroke-width:2;stroke-linecap:round;stroke-linejoin:round;}
	.st3{fill:#5B3910;}
	.st4{fill:#CE7849;}
	.st5{fill:#543C1A;}
</style>
<g>
	<path class="st0" d="M106.9,287.9c0-0.3,0-0.5,0-0.8c0-0.3-0.1-0.6-0.1-1c0.1-0.3,0.1-0.7,0-1c-0.2-3.4-3.1-5.7-7.2-5.7
		c-0.2,0-0.3,0-0.5,0c-1.8,0.1-3.3,0.6-4.6,1.6c-1.4,1.1-2.3,2.6-2.6,4.4c0,0,0,0,0,0.1c-1.3-1.5-3.5-2.5-6.1-2.5
		c-1.8,0-3.3,0.5-4.7,1.4c-1.4,1-2.4,2.4-2.8,4.1l-3.3,0.7l-0.8-12.1c0.4-0.2,0.8-0.3,1.2-0.5l0.3-0.2c2.8-1.4,5.6-2.9,7.1-5.4
		c0.6-1,0.9-2.2,1.1-4c0-0.1,0-0.2,0-0.4c0-0.2,0-0.5,0-0.8c0-0.1,0-0.3,0-0.4c0-2-0.2-5.7-1.4-8.3c-5.1-10.3-17.7-16.7-32.9-16.7
		h-0.2c-0.8,0-1.5,0-2.3,0.1c-2.2,0.1-4.3,0.4-6.5,0.7l-0.4,0.1c-0.6,0.1-1.2,0.2-1.7,0.4c-0.2,0-0.3,0.1-0.5,0.1
		c-7.3,1.8-13.4,5-17.6,9.5c-1.7,1.8-3.1,3.5-4.4,5.2c-2.5,3.3-4.4,6.6-5.9,10.2c-1.4,3.2-2.6,6.7-3.7,10.4
		C4,284.8,2.5,293.3,1.5,304c-0.2,2.2-1.6,28.5,1.5,35.1c0.8,1.7,2.5,2.8,4.4,2.8h65.9c1.3,0,2.6-0.6,3.6-1.5c0.9-1,1.4-2.3,1.3-3.7
		l-0.9-14.1c0.2,0,0.3,0,0.5,0c2.3,0,4.4-1.1,5.6-3l16-24.5c0.1,0,0.2,0,0.3,0h0.1c2.3,0,4.4-0.9,5.8-2.3c1.1-1.2,1.7-2.6,1.6-4.2
		C107,288.4,107,288.2,106.9,287.9L106.9,287.9z"/>
	<g>
		<path class="st1" d="M64,296.4L76.4,317c0.8,0.9,2.2,0.7,2.8-0.3l18-27.6"/>
		<path class="st2" d="M102.1,287c0-0.4-0.5-0.7-1.1-0.9c0.6-0.2,1.1-0.6,1-1c0-0.7-1.2-1.1-2.6-1.1c-0.8,0-1.4,0.3-1.8,0.6
			c-0.4,0.3-0.7,0.8-0.8,1.4c-0.2,1.3-0.3,4.1,2.9,4c1.4,0,2.5-0.7,2.5-1.3c0-0.3-0.3-0.6-0.7-0.8
			C101.8,287.6,102.1,287.3,102.1,287L102.1,287z"/>
	</g>
	<g>
		<path class="st0" d="M78.1,259.1c-8.7-17.5-41.8-18.1-54.3-4.7c-3.9,4.2-7.2,8.6-9.5,14c-4.8,11.1-6.8,23.9-7.9,35.8
			c-0.6,5.8-1.1,28.1,1,32.6h65.9c0,0-2.7-21.7-3.1-27.6c-0.8-11.7-1.1-24-1.1-35.8h-0.4c1.9-0.5,3.5-1,4.6-1.5
			c1.6-0.8,4.4-2.2,5.5-3.8C79.2,267.4,79.2,261.5,78.1,259.1L78.1,259.1z"/>
		<g>
			<path class="st1" d="M7.4,336.8c-2.1-4.5-1.6-26.8-1-32.6c1.2-11.9,3.2-24.7,7.9-35.8c2.3-5.4,5.6-9.8,9.5-14
				c12.5-13.4,45.6-12.8,54.3,4.7c1.2,2.3,1.1,8.2,0.6,9c-1,1.6-3.8,3-5.5,3.8c-7.6,3.7-47.8,7.6-46.6-3.2"/>
			<path class="st1" d="M23.6,270.2c0,0,2.5-3.7,6-1.6"/>
			<path class="st1" d="M69.1,273.5c0,11.7,0.3,24.1,1.1,35.8c0.4,5.8,3.1,27.6,3.1,27.6"/>
		</g>
		<g>
			<path class="st3" d="M40.7,267.9c0,1-0.8,1.9-1.9,1.9s-1.9-0.8-1.9-1.9s0.8-1.9,1.9-1.9S40.7,266.9,40.7,267.9z"/>
			<circle class="st3" cx="69.7" cy="266.1" r="1.9"/>
		</g>
	</g>
	<g id="_圖層_2-2">
		<g>
			<g>
				<path class="st4" d="M100.8,3.9C100.8,3.9,100.8,3.9,100.8,3.9c-1.2,1-2.3,2.1-3.5,3.3c0.7,9.6,0.5,19.7-0.5,29.2
					c-0.1,0.9-0.8,0.7-0.7-0.2c0.5-9.4,0.5-18.6,0.4-28C95.8,9,95,9.8,94.3,10.7c0.2,13.3-0.6,27.5-1.4,40.7
					c-0.1,1.1-0.9,0.8-0.8-0.3c0.2-12.9,0.4-26.7,1.4-39.5c-1,1.2-2.1,2.4-3.1,3.5c-2.4,56.5-0.2,113.7-1.9,170.3
					c-0.9,30.9-1.5,61.8-1.6,92.7c-0.1,15.1,0,30.2,0.3,45.3c0.2,7.4-0.2,16.5,0.7,23.6c0.4,3.5,1.5,5.6,2.8,6.8
					c-0.6-21.5,0.2-43.9,0.4-65.4c0-1.4,0.9-1.4,0.9,0c0.5,21.4,1.1,44.8-0.2,66.2c1.3,0.8,2.7,1,3.9,1c0.4-27.2,1.1-54.3,1.1-81.6
					c0.1-31.3-0.3-62.6-0.3-93.9c0-31.9,0.3-63.7,1-95.6C98.2,57.7,98.9,30.6,100.8,3.9L100.8,3.9L100.8,3.9z M91.1,209.1h0.8
					c0,2,0.1,4.8-0.1,7.1c-0.1,1-0.6,1.2-0.7,0.1C91,214,91,211.1,91.1,209.1L91.1,209.1L91.1,209.1z M91.7,282.1
					c0,0.9-0.6,0.9-0.6,0c-0.2-10.2-0.1-20.3-0.1-30.5c0-1.1,0.7-1.1,0.7,0C91.9,261.8,92,271.9,91.7,282.1z M92.8,155.1
					c0,0.9-0.6,0.9-0.6,0c-0.2-5.3-0.1-10.7-0.1-16c0-1.1,0.8-1.1,0.8,0C92.9,144.5,93,149.8,92.8,155.1
					C92.8,155.1,92.8,155.1,92.8,155.1z M92.8,103.4c-0.1,0.9-0.7,0.7-0.7-0.2c0-6.5,0.2-13,0.1-19.5c0-1.3,0.8-1.3,0.8,0
					C93.2,90.2,93.3,96.9,92.8,103.4z M94.8,329c0,0.5-0.3,0.5-0.3,0c0-0.8,0-1.7-0.1-2.5c0-0.7,0.5-0.7,0.4,0
					C94.9,327.4,94.8,328.2,94.8,329z M94.7,240.1c0,1-0.7,1.3-0.8,0.2c-0.5-7.7-0.4-15.4,0.2-23c0.1-1.2,0.9-0.9,0.9,0.3
					C94.8,225.1,94.8,232.6,94.7,240.1L94.7,240.1L94.7,240.1z"/>
				<path class="st4" d="M101.9,6.3c-1.3,27.4-2.7,54.8-3.3,82.4c-0.7,31.2-0.7,62.4-0.7,93.6c0,31.9-0.1,63.9-0.1,95.8
					c0,25.3,0.2,51.2-0.5,76.7c1.8-5.1,1.2-19.9,1.2-25.1c0.1-7.3,0.1-14.6,0.2-21.9c0.1-14.6,0.1-29.2,0-43.8
					c-0.2-28.9-0.3-57.8-0.2-86.8c0.4-56.1,0.3-113.6,4.1-169.2C102.4,7.6,102.1,6.9,101.9,6.3L101.9,6.3L101.9,6.3z"/>
			</g>
			<g>
				<path class="st5" d="M102.7,3.5c-0.2-0.4-0.4-0.7-0.6-1.1l-1-1.6c-0.1-0.2-0.2-0.4-0.4-0.6c-0.3-0.4-0.6,0.2-0.6,0.9
					c-2.3,0-4.5,3-6.5,5.5c-1,1.2-2,2.5-3.1,3.8l-1.2,1.4l-0.3,4.8c-1.6,27.6-1.5,55.6-1.3,83.5c0.2,34.7-0.5,68.8-1.4,103.4
					c-0.9,34.2-0.9,68.2-0.5,102.4c0.1,8.5,0.2,17.1,0.3,25.6c0.1,4.9-0.6,16,0.3,20.4c1.3,6.6,6,8.4,9.2,7.7l1.5-0.5
					c0,0,0.1,0,0.1-0.1c3.4-4.1,2.4-17.9,2.5-25.2c0.2-15.9,0.3-31.9,0.2-47.8c-0.2-31-0.5-62-0.4-93.1c0.1-30.6,0.7-61.2,1.4-91.7
					c0.7-30.9,2.2-61.9,2.7-92.8c0.1-0.1,0.2-0.3,0.2-0.7C103.9,5.8,103.2,4.6,102.7,3.5 M96.9,274.2c-0.1,27.2-0.8,54.4-1.1,81.6
					c-1.3,0-2.7-0.2-3.9-1c1.3-21.4,0.7-44.8,0.2-66.2c0-1.4-0.9-1.4-0.9,0c-0.2,21.5-1,43.9-0.4,65.4c-1.3-1.3-2.4-3.4-2.8-6.8
					c-0.9-7.1-0.5-16.2-0.7-23.6c-0.3-15.1-0.4-30.2-0.3-45.3c0.1-30.9,0.6-61.8,1.6-92.7c1.7-56.7-0.5-113.8,1.9-170.3
					c1-1.1,2.1-2.3,3.1-3.5c-1,12.8-1.3,26.6-1.4,39.5c0,1.1,0.8,1.4,0.8,0.3c0.8-13.2,1.6-27.4,1.4-40.7C95,9.8,95.8,9,96.6,8.1
					c0.1,9.5,0.1,18.6-0.4,28c-0.1,1,0.6,1.2,0.7,0.2c1-9.5,1.2-19.5,0.5-29.1c1.1-1.2,2.3-2.3,3.4-3.3c0,0,0,0,0,0
					c-2,26.7-2.6,53.8-3.2,80.9c-0.7,31.8-1,63.7-1,95.6C96.6,211.7,96.9,243,96.9,274.2 M98.5,177.3c-0.2,28.9,0,57.8,0.2,86.8
					c0.1,14.6,0,29.2,0,43.8c0,7.3-0.1,14.6-0.2,21.9c-0.1,5.2,0.5,20.1-1.2,25.1c0.7-25.5,0.4-51.4,0.5-76.7
					c0.1-31.9,0.1-63.9,0.1-95.8c0-31.2,0.1-62.5,0.7-93.6c0.6-27.6,2-55,3.3-82.4c0.2,0.6,0.5,1.3,0.8,1.8
					C98.9,63.6,98.9,121.1,98.5,177.3"/>
				<path class="st5" d="M91.1,251.6c-0.1,10.2-0.2,20.3,0.1,30.5c0,0.9,0.6,0.9,0.6,0c0.2-10.2,0.1-20.3,0.1-30.5
					C91.8,250.5,91.1,250.5,91.1,251.6"/>
				<path class="st5" d="M94.4,326.6c0,0.8,0,1.7,0.1,2.5c0,0.5,0.3,0.5,0.3,0c0-0.8,0-1.7,0.1-2.5
					C94.9,325.9,94.4,325.9,94.4,326.6"/>
				<path class="st5" d="M94.1,217.3c-0.6,7.6-0.7,15.4-0.2,23c0.1,1.1,0.8,0.8,0.8-0.2c0.1-7.5,0.1-15,0.3-22.5
					C95,216.4,94.2,216.1,94.1,217.3"/>
				<path class="st5" d="M91.8,216.2c0.1-2.3,0.1-5.1,0.1-7.1h-0.8c0,2-0.1,4.9,0.1,7.2C91.2,217.4,91.7,217.3,91.8,216.2"/>
				<path class="st5" d="M92.3,83.7c0.1,6.5-0.2,13-0.1,19.5c0,0.9,0.6,1.2,0.7,0.2c0.4-6.5,0.4-13.2,0.3-19.7
					C93.1,82.4,92.3,82.4,92.3,83.7"/>
				<path class="st5" d="M92.1,139.1c0,5.3-0.1,10.7,0.1,16c0,0.9,0.6,0.9,0.6,0c0.2-5.3,0.1-10.7,0.1-16
					C92.9,138,92.1,138,92.1,139.1"/>
			</g>
		</g>
	</g>
	<path class="st0" d="M82.9,300.5l2-1.7c0.2,0,0.4,0,0.6,0c0.2,0,0.3,0,0.4,0l0,0c1.4,0,2.8-0.3,4-0.9c2.1-1.1,3.3-3,3.3-5.2
		c0-0.3,0-0.5-0.1-0.8c0-0.3,0.1-0.5,0.1-0.8c0-0.3,0-0.6-0.1-1c0.1-0.3,0.1-0.7,0.1-1c0-3.5-3.1-6.1-7.4-6.1
		c-1.8,0-3.3,0.5-4.7,1.4c-1.4,1-2.5,2.5-2.8,4.3"/>
	<g>
		<path class="st1" d="M29.6,299.1l23.2,17.1c1.2,0.9,3.5,0.8,4.5-0.1l25.9-22.6"/>
		<path class="st2" d="M88.3,290.8c0-0.4-0.4-0.8-1.1-1c0.7-0.2,1.1-0.6,1.1-1c0-0.7-1.2-1.2-2.6-1.2c-0.8,0-1.4,0.2-1.9,0.5
			c-0.5,0.3-0.7,0.8-0.8,1.3c-0.3,1.2-0.5,4,2.7,4.2c1.4,0.1,2.6-0.5,2.6-1.2c0-0.3-0.2-0.6-0.7-0.8
			C88.1,291.4,88.3,291.1,88.3,290.8L88.3,290.8z"/>
	</g>
</g>
</svg>
