<?xml version="1.0" encoding="UTF-8"?>
<svg id="_圖層_2" data-name="圖層 2" xmlns="http://www.w3.org/2000/svg" viewBox="0 0 18.19 359.64">
  <defs>
    <style>
      .cls-1 {
        fill: #543c1a;
      }

      .cls-1, .cls-2 {
        stroke-width: 0px;
      }

      .cls-2 {
        fill: #ce7849;
      }
    </style>
  </defs>
  <g id="_圖層_2-2" data-name=" 圖層 2">
    <g>
      <g>
        <path class="cls-2" d="M15.2,3.92s0,.02-.02.02c-1.17.97-2.31,2.1-3.44,3.29.7,9.63.49,19.67-.5,29.15-.09.92-.76.73-.71-.23.46-9.42.53-18.59.39-28.03-.77.85-1.54,1.71-2.31,2.59.16,13.34-.63,27.5-1.41,40.7-.07,1.13-.86.83-.84-.27.17-12.91.41-26.72,1.44-39.5-1.03,1.19-2.07,2.37-3.11,3.5-2.41,56.53-.2,113.67-1.93,170.34-.94,30.85-1.48,61.76-1.58,92.69-.05,15.12,0,30.22.35,45.32.17,7.41-.16,16.49.7,23.62.42,3.47,1.48,5.56,2.79,6.84-.6-21.47.18-43.94.37-65.39.01-1.43.91-1.4.94,0,.54,21.43,1.13,44.84-.2,66.25,1.28.77,2.68.98,3.94,1,.36-27.18,1.08-54.34,1.13-81.57.06-31.29-.28-62.58-.27-93.87,0-31.88.28-63.73,1.02-95.58.63-27.04,1.27-54.17,3.25-80.88h0ZM5.4,209.11h.79c0,2,.07,4.82-.05,7.12-.05,1.04-.64,1.16-.69.12-.12-2.3-.05-5.25-.05-7.25h0ZM6.09,282.08c-.02.9-.58.9-.6,0-.21-10.16-.12-20.32-.06-30.49,0-1.08.71-1.08.72,0,.06,10.17.15,20.33-.06,30.49ZM7.15,155.13c-.03.87-.55.86-.58,0-.16-5.31-.09-10.67-.09-15.99,0-1.13.75-1.13.75,0,0,5.32.08,10.68-.09,15.99h.01ZM7.2,103.37c-.06.95-.69.67-.69-.22-.04-6.49.19-12.99.14-19.49,0-1.27.83-1.27.85,0,.06,6.51.14,13.25-.3,19.71ZM9.18,329.05c0,.53-.34.53-.35,0-.02-.83-.03-1.67-.05-2.5-.01-.67.46-.67.45,0-.02.83-.03,1.67-.05,2.5ZM9.01,240.09c-.01,1-.7,1.3-.77.24-.51-7.68-.36-15.4.21-23.04.09-1.17.91-.88.88.28-.2,7.51-.23,15-.32,22.52h0Z"/>
        <path class="cls-2" d="M16.26,6.28c-1.28,27.44-2.71,54.83-3.29,82.42-.65,31.17-.73,62.43-.74,93.63-.02,31.95-.07,63.88-.12,95.83-.04,25.34.2,51.25-.48,76.72,1.77-5.07,1.18-19.94,1.25-25.12.09-7.3.12-14.6.15-21.9.05-14.61.09-29.22.01-43.83-.16-28.92-.35-57.83-.15-86.76.38-56.12.34-113.62,4.14-169.19-.29-.46-.55-1.18-.77-1.79h0Z"/>
      </g>
      <g>
        <path class="cls-1" d="M17.01,3.49c-.18-.39-.38-.73-.57-1.09l-.99-1.65c-.13-.2-.25-.41-.39-.6-.33-.45-.6.18-.59.86-2.33-.03-4.47,2.96-6.5,5.47-1.01,1.25-2.03,2.5-3.05,3.77l-1.15,1.44-.3,4.75c-1.63,27.63-1.49,55.56-1.32,83.48.22,34.66-.51,68.83-1.41,103.41-.89,34.19-.87,68.22-.51,102.44.09,8.54.19,17.07.29,25.6.06,4.93-.55,16.05.34,20.41,1.35,6.62,6.02,8.38,9.16,7.73l1.5-.49s.09-.05.14-.11c3.42-4.07,2.36-17.86,2.47-25.18.23-15.93.28-31.86.18-47.8-.2-31.02-.51-62.03-.43-93.06.08-30.61.71-61.16,1.39-91.73.7-30.94,2.2-61.86,2.67-92.81.11-.14.21-.35.23-.67.13-1.85-.64-3.05-1.17-4.18M11.21,274.25c-.05,27.23-.77,54.39-1.13,81.57-1.26-.02-2.66-.23-3.94-1,1.32-21.41.74-44.82.2-66.25-.03-1.4-.93-1.43-.94,0-.19,21.45-.97,43.92-.37,65.39-1.32-1.27-2.37-3.37-2.79-6.84-.86-7.13-.53-16.21-.7-23.62-.35-15.1-.4-30.2-.35-45.32.1-30.93.64-61.84,1.58-92.69,1.73-56.67-.48-113.81,1.93-170.34,1.04-1.13,2.08-2.32,3.11-3.5-1.03,12.78-1.27,26.59-1.44,39.5-.01,1.1.77,1.4.84.27.78-13.21,1.57-27.36,1.41-40.7.77-.88,1.54-1.75,2.31-2.59.14,9.45.07,18.61-.39,28.03-.05.96.62,1.15.71.23.99-9.48,1.2-19.52.5-29.15,1.13-1.2,2.27-2.32,3.44-3.29,0,0,.01-.02.02-.02-1.97,26.71-2.61,53.84-3.25,80.88-.74,31.84-1.01,63.69-1.02,95.58,0,31.29.33,62.58.27,93.87M12.89,177.26c-.2,28.93,0,57.84.15,86.76.08,14.61.04,29.22-.01,43.83-.03,7.3-.05,14.6-.15,21.9-.07,5.18.52,20.06-1.25,25.12.68-25.47.44-51.38.48-76.72.05-31.94.1-63.88.12-95.83.02-31.2.09-62.46.74-93.63.58-27.59,2.01-54.98,3.29-82.42.23.61.48,1.33.77,1.79-3.8,55.58-3.76,113.07-4.14,169.19"/>
        <path class="cls-1" d="M5.43,251.59c-.06,10.17-.15,20.33.06,30.49.02.9.58.9.6,0,.21-10.16.11-20.32.06-30.49,0-1.08-.71-1.08-.72,0"/>
        <path class="cls-1" d="M8.78,326.56c.01.83.03,1.67.05,2.5,0,.53.34.53.35,0,.02-.83.03-1.67.05-2.5.01-.67-.46-.67-.45,0"/>
        <path class="cls-1" d="M8.45,217.29c-.57,7.64-.72,15.37-.21,23.04.07,1.06.76.75.77-.24.09-7.52.12-15.01.32-22.52.03-1.16-.79-1.44-.88-.28"/>
        <path class="cls-1" d="M6.14,216.23c.12-2.3.05-5.12.05-7.12h-.79c0,2-.07,4.95.05,7.25.05,1.04.64.92.69-.12"/>
        <path class="cls-1" d="M6.65,83.66c.05,6.5-.18,13-.14,19.49,0,.89.63,1.17.69.22.43-6.46.36-13.2.3-19.71-.01-1.27-.85-1.27-.85,0"/>
        <path class="cls-1" d="M6.48,139.14c0,5.32-.08,10.68.09,15.99.03.86.55.87.58,0,.16-5.31.09-10.67.09-15.99,0-1.13-.75-1.13-.75,0"/>
      </g>
    </g>
  </g>
</svg>