<?xml version="1.0" encoding="utf-8"?>
<!-- Generator: Adobe Illustrator 28.1.0, SVG Export Plug-In . SVG Version: 6.00 Build 0)  -->
<svg version="1.1" id="_圖層_2" xmlns="http://www.w3.org/2000/svg" xmlns:xlink="http://www.w3.org/1999/xlink" x="0px" y="0px"
	 viewBox="0 0 221.4 359.6" style="enable-background:new 0 0 221.4 359.6;" xml:space="preserve">
<style type="text/css">
	.st0{fill:#FFFFFF;}
	.st1{fill:none;stroke:#5B3910;stroke-width:2;stroke-linecap:round;stroke-linejoin:round;}
	.st2{fill:#5B3910;}
	.st3{fill:#F0AACC;stroke:#5B3910;stroke-width:2;stroke-linecap:round;stroke-linejoin:round;}
	.st4{fill:#CE7849;}
	.st5{fill:#543C1A;}
</style>
<g id="_圖層_2-2_00000083073616703575594370000013113273383245029550_">
	<g>
		<g>
			<path class="st0" d="M221.2,307.2c-0.6-2.5-2.6-5.6-12.9-11c-2.2-1.2-4.3-2.2-6.1-3c-0.1-0.3-0.1-0.5-0.2-0.8
				c-0.7-1.9-2.1-3.5-3.9-4.4c-0.6-0.3-1.3-0.5-2-0.6c-0.8-2.5-1.7-5-2.7-7.4c-1.2-2.7-2.6-5.3-4.4-7.9c0-0.6-0.1-1.1-0.2-1.7
				c2.1-4.8,0-8.6-3.1-10.2c-1.2-0.6-2.5-0.9-3.8-0.9c-0.9,0-1.9,0.2-2.7,0.5c-0.9-2.1-2.7-3.9-5.1-4.6c-0.8-0.2-1.6-0.4-2.4-0.4
				c-0.9,0-2.7,0.2-4.3,1.5c-2-0.5-4.2-0.9-6.3-1.2c-0.3,0-0.6-0.1-0.9-0.1c-0.4,0-0.7-0.1-1.1-0.1c-0.5,0-1-0.1-1.5-0.1
				c-0.1,0-0.2,0-0.3,0c-0.6,0-1.3,0-1.9,0c0,0-0.1,0-0.1,0c-0.1,0-0.1,0-0.2,0c-0.3,0-0.6,0-1,0c-0.1,0-0.3,0-0.4,0
				c-0.3,0-0.5,0-0.8,0c-0.2,0-0.4,0-0.7,0c-0.2,0-0.3,0-0.5,0c-0.3,0-0.6,0.1-1,0.1c0,0-0.1,0-0.1,0c-3.1,0.3-6,0.8-8.7,1.7l0,0
				c-0.3,0.1-0.6,0.2-0.9,0.3c0,0-0.1,0-0.1,0c-0.3,0.1-0.7,0.2-1,0.3c-0.3,0.1-0.6,0.2-0.9,0.3c-0.1,0-0.1,0-0.2,0.1
				c-0.3,0.1-0.6,0.2-0.9,0.4c0,0-0.1,0-0.1,0c-5.4,2.3-9.7,5.7-12.6,10c0,0-0.1,0.1-0.1,0.2c-0.1,0.2-0.3,0.4-0.4,0.6
				c-0.1,0.1-0.1,0.2-0.1,0.2c-0.1,0.2-0.2,0.4-0.4,0.6c0,0.1-0.1,0.2-0.1,0.2c-0.2,0.3-0.3,0.6-0.5,0.9c-0.1,0.3-0.3,0.6-0.4,0.9
				c-0.1,0.2-0.2,0.5-0.2,0.7c-0.1,0.3-0.1,0.5-0.2,0.8c-0.7,3.1-0.9,7.4,0,9.9c0.1,0.4,0.3,0.7,0.5,0.9c0.3,0.5,0.7,0.9,1,1.3
				c1.5,1.6,3.6,2.8,5.5,3.7c0.2,0.1,0.4,0.2,0.6,0.3c0,0,0,0,0,0c0.2,0.1,0.3,0.1,0.5,0.2c0.1,0.1,0.3,0.1,0.4,0.2c0,0,0,0,0.1,0
				c0.1,0,0.2,0.1,0.3,0.1c0,0.1,0,0.3,0,0.4c0,0.6,0,1.2,0,1.7v0c0,4.1-0.1,8.1-0.2,11.9l-11.3-2.3c0.1-0.6,0.2-1.3,0.1-2
				c-0.3-4-3.6-7.2-7.7-7.2c-0.2,0-0.3,0-0.5,0c-4.2,0.3-7.4,4-7.2,8.2c0.2,2.4,1.4,4.4,3.2,5.7c0.1,1.1,0.2,2.3,0.3,3.5
				c0.9,7.8,3,12.9,6.2,15.6c1.7,1.5,3.8,2.2,6,2.2c0.6,0,1.2-0.1,1.8-0.2c2.9-0.6,5.5-1.8,7.9-3.4c-0.8,7.8-2.6,22-2.7,22.1
				c0,0.2,0,0.3,0,0.5c0,0,0,0.1,0,0.1c0,0.1,0,0.3,0,0.4c0,0,0,0.1,0,0.1c0,0.1,0,0.3,0.1,0.4c0,0,0,0.1,0,0.1c0,0.1,0,0.2,0.1,0.4
				c0,0,0,0.1,0.1,0.1c0,0.1,0.1,0.2,0.1,0.3c0,0,0,0.1,0.1,0.2c0,0.1,0.1,0.2,0.1,0.3c0,0.1,0.1,0.1,0.1,0.2
				c0.1,0.1,0.1,0.2,0.2,0.2c0,0.1,0.1,0.1,0.1,0.2c0.1,0.1,0.1,0.1,0.2,0.2c0,0,0.1,0.1,0.1,0.1c0,0,0,0,0.1,0
				c0.1,0.1,0.1,0.1,0.2,0.2c0,0,0.1,0.1,0.1,0.1c0.1,0.1,0.2,0.2,0.3,0.2c0,0,0.1,0,0.1,0.1c0.4,0.3,0.8,0.5,1.3,0.7
				c0,0,0.1,0,0.1,0c0.1,0,0.2,0.1,0.3,0.1c0.1,0,0.1,0,0.2,0c0.1,0,0.1,0,0.2,0c0,0,0,0,0,0c0.2,0,0.4,0,0.6,0c0,0,0,0,0,0l0,0
				h63.1c0,0,0,0,0,0c0.2,0,0.5,0,0.7,0c0.1,0,0.1,0,0.2,0c0.1,0,0.3,0,0.4-0.1c0.1,0,0.2-0.1,0.3-0.1c0.1,0,0.2-0.1,0.3-0.1
				c0.1,0,0.2-0.1,0.3-0.1c0.1-0.1,0.2-0.1,0.3-0.2c0.1,0,0.1-0.1,0.2-0.1c0.1-0.1,0.2-0.2,0.3-0.2c0.1,0,0.1-0.1,0.2-0.1
				c0.1-0.1,0.2-0.2,0.3-0.3c0.1-0.1,0.1-0.1,0.2-0.2c0.1-0.1,0.2-0.2,0.2-0.3c0.1-0.2,0.2-0.4,0.3-0.6c2.7-5.8,1.8-26.8,1.5-32.2
				c1.7,0.1,3.3,0.2,5,0.2c5.7,0,10.8-0.9,13.6-4.3C221.3,311.1,221.8,309.2,221.2,307.2L221.2,307.2z"/>
			<g>
				<path class="st1" d="M140.1,305.8c-2.6,3.6-8.9,15.5-18.2,17.3c-9.6,1.8-9-22.8-9-22.8"/>
				
					<ellipse transform="matrix(0.3067 -0.9518 0.9518 0.3067 -207.6256 315.6218)" class="st2" cx="112.8" cy="300.3" rx="3" ry="3"/>
				<path class="st0" d="M128,273c8.3-16.8,40-17.4,52-4.5c3.8,4,6.9,8.3,9.1,13.4c4.6,10.6,6.5,22.9,7.6,34.3
					c0.5,5.5,1,26.5-1,30.9h-63.2c0,0,2.6-20.4,3-26c0.8-11.2,1-23.2,1-34.4l0.4,0.1c-1.8-0.4-3.3-0.9-4.4-1.4
					c-1.6-0.8-4.2-2.1-5.2-3.6C127,280.9,126.9,275.2,128,273L128,273z"/>
				<g>
					<g>
						<path class="st1" d="M195.8,347c2-4.3,1.5-25.3,1-30.9c-1.1-11.4-3.1-23.7-7.6-34.3c-2.2-5.1-5.3-9.4-9.1-13.4
							c-12-12.8-43.7-12.2-52,4.5c-1.1,2.2-1.1,7.9-0.6,8.6c1,1.6,3.7,2.9,5.2,3.6c6.9,3.3,31.8,5.4,44.6,0.9
							c1.6-0.6,3.5,0.2,4.1,1.8c0.4,1.2,0.1,2.7-2.5,3.7c-0.9,0.3-1.8,0.5-2.7,0.6c-3.8,0.4-16.8,1.7-30,1.2"/>
						<g>
							<path class="st3" d="M178.7,266.1c0.9-1.8,3.1-2.5,4.9-1.6c1.8,0.9,1.6,2.7,0.7,4.5c-0.2,0.4-0.5,0.8-0.7,1.2
								c0.8,1.2,1,2.7,0.4,4c-1,1.9-3.4,2.6-5.5,1.6c-2.1-1-2.9-3.5-1.9-5.4c0.4-0.8,1.1-1.4,1.9-1.7
								C178.2,267.8,178.3,266.9,178.7,266.1L178.7,266.1z"/>
							<path class="st3" d="M175.1,264.3c0.6-1.9-0.4-4-2.4-4.6c-1.9-0.6-3,0.7-3.7,2.7c-0.2,0.5-0.2,0.9-0.3,1.3
								c-1.4,0.2-2.6,1.2-3.1,2.6c-0.7,2.1,0.6,4.3,2.8,5c2.2,0.7,4.5-0.4,5.2-2.4c0.3-0.9,0.2-1.8-0.1-2.5
								C174.2,265.9,174.8,265.2,175.1,264.3L175.1,264.3z"/>
							<path class="st3" d="M172.1,267.5c-0.9,2.1-1,4.1,1.3,5c2.2,1,3.9,0,4.9-2.1c0.9-2.1,0.8-4.7-1.5-5.6
								S173.1,265.4,172.1,267.5L172.1,267.5z"/>
						</g>
						<g>
							<line class="st1" x1="175.2" y1="286.8" x2="176.3" y2="292.4"/>
							<line class="st1" x1="169.9" y1="287.9" x2="170.9" y2="292.9"/>
							<line class="st1" x1="164.5" y1="288.5" x2="165.4" y2="293.2"/>
							<line class="st1" x1="159" y1="288.8" x2="159.9" y2="293.5"/>
							<line class="st1" x1="153.5" y1="288.7" x2="154.4" y2="293.6"/>
							<line class="st1" x1="147.9" y1="288.3" x2="148.9" y2="293.6"/>
						</g>
						<path class="st1" d="M136.6,286.6c0,11.1-0.2,23.1-1,34.4c-0.4,5.6-3,26-3,26"/>
					</g>
					<g>
						<circle class="st2" cx="165.7" cy="281.4" r="1.8"/>
						<circle class="st2" cx="136.1" cy="279.6" r="1.8"/>
					</g>
				</g>
				<g>
					<path class="st1" d="M197.2,311.8c3.8,0.2,16,1.9,19.2-2.1c3.3-4.1-19.9-13.9-19.9-13.9"/>
					<g>
						<circle class="st2" cx="194.8" cy="294.9" r="3"/>
						<g>
							<line class="st1" x1="195.1" y1="295.2" x2="187.3" y2="296"/>
							<line class="st1" x1="194.9" y1="294.5" x2="188.8" y2="289.6"/>
						</g>
					</g>
				</g>
			</g>
		</g>
		<g id="_圖層_2-2">
			<g>
				<g>
					<path class="st4" d="M118.2,3.9L118.2,3.9c-1.2,1-2.3,2.1-3.5,3.3c0.7,9.6,0.5,19.7-0.5,29.2c-0.1,0.9-0.8,0.7-0.7-0.2
						c0.5-9.4,0.5-18.6,0.4-28c-0.8,0.9-1.5,1.7-2.3,2.6c0.2,13.3-0.6,27.5-1.4,40.7c-0.1,1.1-0.9,0.8-0.8-0.3
						c0.2-12.9,0.4-26.7,1.4-39.5c-1,1.2-2.1,2.4-3.1,3.5c-2.4,56.5-0.2,113.7-1.9,170.3c-0.9,30.9-1.5,61.8-1.6,92.7
						c0,15.1,0,30.2,0.4,45.3c0.2,7.4-0.2,16.5,0.7,23.6c0.4,3.5,1.5,5.6,2.8,6.8c-0.6-21.5,0.2-43.9,0.4-65.4c0-1.4,0.9-1.4,0.9,0
						c0.5,21.4,1.1,44.8-0.2,66.2c1.3,0.8,2.7,1,3.9,1c0.4-27.2,1.1-54.3,1.1-81.6c0.1-31.3-0.3-62.6-0.3-93.9s0.3-63.7,1-95.6
						C115.6,57.7,116.2,30.6,118.2,3.9C118.2,3.9,118.2,3.9,118.2,3.9z M108.4,209.1h0.8c0,2,0.1,4.8-0.1,7.1c0,1-0.6,1.2-0.7,0.1
						C108.3,214,108.4,211.1,108.4,209.1L108.4,209.1L108.4,209.1z M109.1,282.1c0,0.9-0.6,0.9-0.6,0c-0.2-10.2-0.1-20.3-0.1-30.5
						c0-1.1,0.7-1.1,0.7,0C109.2,261.8,109.3,271.9,109.1,282.1z M110.2,155.1c0,0.9-0.5,0.9-0.6,0c-0.2-5.3-0.1-10.7-0.1-16
						c0-1.1,0.8-1.1,0.8,0C110.2,144.5,110.3,149.8,110.2,155.1C110.2,155.1,110.2,155.1,110.2,155.1z M110.2,103.4
						c-0.1,0.9-0.7,0.7-0.7-0.2c0-6.5,0.2-13,0.1-19.5c0-1.3,0.8-1.3,0.8,0C110.6,90.2,110.7,96.9,110.2,103.4z M112.2,329
						c0,0.5-0.3,0.5-0.3,0c0-0.8,0-1.7-0.1-2.5c0-0.7,0.5-0.7,0.5,0C112.2,327.4,112.2,328.2,112.2,329z M112,240.1
						c0,1-0.7,1.3-0.8,0.2c-0.5-7.7-0.4-15.4,0.2-23c0.1-1.2,0.9-0.9,0.9,0.3C112.1,225.1,112.1,232.6,112,240.1
						C112,240.1,112,240.1,112,240.1z"/>
					<path class="st4" d="M119.3,6.3c-1.3,27.4-2.7,54.8-3.3,82.4c-0.7,31.2-0.7,62.4-0.7,93.6s-0.1,63.9-0.1,95.8
						c0,25.3,0.2,51.2-0.5,76.7c1.8-5.1,1.2-19.9,1.2-25.1c0.1-7.3,0.1-14.6,0.1-21.9c0.1-14.6,0.1-29.2,0-43.8
						c-0.2-28.9-0.3-57.8-0.2-86.8c0.4-56.1,0.3-113.6,4.1-169.2C119.7,7.6,119.5,6.9,119.3,6.3L119.3,6.3L119.3,6.3z"/>
				</g>
				<g>
					<path class="st5" d="M120,3.5c-0.2-0.4-0.4-0.7-0.6-1.1l-1-1.6c-0.1-0.2-0.2-0.4-0.4-0.6c-0.3-0.5-0.5,0.1-0.5,0.8
						c-2.3,0-4.5,3-6.5,5.5c-1,1.2-2,2.5-3,3.8l-1.2,1.4l-0.3,4.8c-1.6,27.6-1.5,55.6-1.3,83.5c0.2,34.7-0.5,68.8-1.4,103.4
						c-0.9,34.2-0.9,68.2-0.5,102.4c0.1,8.5,0.2,17.1,0.3,25.6c0.1,4.9-0.6,16,0.3,20.4c1.4,6.6,6,8.4,9.2,7.7l1.5-0.5
						c0,0,0.1,0,0.1-0.1c3.4-4.1,2.4-17.9,2.5-25.2c0.2-15.9,0.3-31.9,0.2-47.8c-0.2-31-0.5-62-0.4-93.1c0.1-30.6,0.7-61.2,1.4-91.7
						c0.7-30.9,2.2-61.9,2.7-92.8c0.1-0.1,0.2-0.3,0.2-0.7C121.3,5.8,120.5,4.6,120,3.5 M114.2,274.2c-0.1,27.2-0.8,54.4-1.1,81.6
						c-1.3,0-2.7-0.2-3.9-1c1.3-21.4,0.7-44.8,0.2-66.2c0-1.4-0.9-1.4-0.9,0c-0.2,21.5-1,43.9-0.4,65.4c-1.3-1.3-2.4-3.4-2.8-6.8
						c-0.9-7.1-0.5-16.2-0.7-23.6c-0.3-15.1-0.4-30.2-0.3-45.3c0.1-30.9,0.6-61.8,1.6-92.7c1.7-56.7-0.5-113.8,1.9-170.3
						c1-1.1,2.1-2.3,3.1-3.5c-1,12.8-1.3,26.6-1.4,39.5c0,1.1,0.8,1.4,0.8,0.3c0.8-13.2,1.6-27.4,1.4-40.7c0.8-0.9,1.5-1.8,2.3-2.6
						c0.1,9.5,0.1,18.6-0.4,28c-0.1,1,0.6,1.2,0.7,0.2c1-9.5,1.2-19.5,0.5-29.1c1.1-1.4,2.2-2.5,3.4-3.4l0,0
						c-2,26.7-2.6,53.8-3.2,80.9c-0.7,31.8-1,63.7-1,95.6C113.9,211.7,114.3,243,114.2,274.2 M115.9,177.3
						c-0.2,28.9,0,57.8,0.2,86.8c0.1,14.6,0,29.2,0,43.8c0,7.3,0,14.6-0.1,21.9c-0.1,5.2,0.5,20.1-1.2,25.1
						c0.7-25.5,0.4-51.4,0.5-76.7c0.1-31.9,0.1-63.9,0.1-95.8s0.1-62.5,0.7-93.6c0.6-27.6,2-55,3.3-82.4c0.2,0.6,0.5,1.3,0.8,1.8
						C116.2,63.6,116.3,121.1,115.9,177.3"/>
					<path class="st5" d="M108.4,251.6c-0.1,10.2-0.2,20.3,0.1,30.5c0,0.9,0.6,0.9,0.6,0c0.2-10.2,0.1-20.3,0.1-30.5
						C109.2,250.5,108.5,250.5,108.4,251.6"/>
					<path class="st5" d="M111.8,326.6c0,0.8,0,1.7,0.1,2.5c0,0.5,0.3,0.5,0.3,0c0-0.8,0-1.7,0.1-2.5
						C112.3,325.9,111.8,325.9,111.8,326.6"/>
					<path class="st5" d="M111.5,217.3c-0.6,7.6-0.7,15.4-0.2,23c0.1,1.1,0.8,0.8,0.8-0.2c0.1-7.5,0.1-15,0.3-22.5
						C112.4,216.4,111.5,216.1,111.5,217.3"/>
					<path class="st5" d="M109.1,216.2c0.1-2.3,0.1-5.1,0.1-7.1h-0.8c0,2-0.1,4.9,0.1,7.2C108.5,217.4,109.1,217.3,109.1,216.2"/>
					<path class="st5" d="M109.7,83.7c0.1,6.5-0.2,13-0.1,19.5c0,0.9,0.6,1.2,0.7,0.2c0.4-6.5,0.4-13.2,0.3-19.7
						C110.5,82.4,109.7,82.4,109.7,83.7"/>
					<path class="st5" d="M109.5,139.1c0,5.3-0.1,10.7,0.1,16c0,0.9,0.6,0.9,0.6,0c0.2-5.3,0.1-10.7,0.1-16
						C110.3,138,109.5,138,109.5,139.1"/>
				</g>
			</g>
		</g>
	</g>
</g>
</svg>
