<?xml version="1.0" encoding="UTF-8"?>
<svg id="_圖層_2" data-name="圖層 2" xmlns="http://www.w3.org/2000/svg" viewBox="0 0 167.53 234">
  <defs>
    <style>
      .cls-1, .cls-2, .cls-3, .cls-4 {
        stroke: #5b3910;
        stroke-linecap: round;
        stroke-linejoin: round;
        stroke-width: 2px;
      }

      .cls-1, .cls-5 {
        fill: #5b3910;
      }

      .cls-2, .cls-6 {
        fill: #fff;
      }

      .cls-3 {
        fill: #89d0f9;
      }

      .cls-4 {
        fill: none;
      }

      .cls-7 {
        fill: #543c1a;
      }

      .cls-7, .cls-5, .cls-8, .cls-6 {
        stroke-width: 0px;
      }

      .cls-8 {
        fill: #ce7849;
      }
    </style>
  </defs>
  <g id="_圖層_2-2" data-name=" 圖層 2">
    <g>
      <g>
        <path class="cls-2" d="M165.68,149.83c-.18-.36-.38-.71-.61-1.03-.12-.38-.27-.75-.45-1.11-.22-.45-.48-.88-.78-1.28-.14-.49-.32-.94-.52-1.36-1.46-2.96-4.47-4.72-8.06-4.72-1.94,0-4,.51-5.96,1.48-2.39,1.18-4.19,2.83-5.34,4.9-1.23,2.21-1.59,4.81-1.03,7.34l-.25.32-14.71,2.82c-.38-8.19-.5-15.5-.5-25.67,0-.08,0-.16-.01-.24,0-.14,0-.29-.02-.43,0-.07-.01-.13-.02-.2,0-.08-.02-.15-.03-.22-.01-.08-.02-.16-.03-.24,0-.02,0-.04-.01-.06-.02-.12-.05-.23-.08-.35-.01-.06-.03-.11-.04-.17-.01-.05-.03-.11-.04-.16-.03-.11-.07-.23-.11-.34-.04-.1-.07-.2-.11-.3,0-.02-.02-.04-.02-.06-.04-.09-.08-.17-.11-.26-.05-.12-.11-.24-.17-.35-.03-.06-.06-.12-.09-.17,0,0,0-.02-.01-.03,1.25-.38,2.2-.77,2.99-1.15,3.86-1.88,8.14-4.16,10.69-7.69.14-.2.28-.4.41-.6.86-1.35,1.34-3.44,1.54-5.8.42-5.2-.56-11.75-2.07-14.79,0-.01-.01-.02-.02-.03-.22-.43-.44-.86-.68-1.29-.07-.13-.14-.25-.21-.38-.18-.32-.36-.63-.55-.95-.07-.12-.15-.25-.23-.37-.21-.33-.42-.67-.64-.99-.06-.08-.11-.17-.17-.25-4.2-6.17-10.38-11.19-18-14.74,0,0,0,0,0,0-.5-.23-1.01-.46-1.52-.68-.07-.03-.14-.06-.21-.09-.44-.19-.89-.37-1.34-.55-.12-.05-.23-.09-.35-.14-.38-.15-.77-.29-1.16-.43-.59-.21-1.18-.42-1.78-.62-.03,0-.06-.02-.09-.03-4.65-1.53-9.69-2.56-15-3.04-.04,0-.09,0-.13-.01-.51-.05-1.03-.09-1.55-.12-.23-.02-.47-.03-.7-.05-.35-.02-.7-.04-1.06-.06-.39-.02-.79-.03-1.18-.05-.23,0-.46-.01-.7-.02-.48-.01-.97-.02-1.45-.02-.1,0-.2,0-.3,0-.06,0-.12,0-.18,0-1,0-1.99.02-2.99.06-.18,0-.36.02-.55.03-.74.04-1.48.08-2.21.14-.59.04-1.17.1-1.76.16-.41.04-.82.08-1.23.13-11.41,1.32-21.73,5.16-29.42,10.95-.28.21-.57.43-.84.65-.26.21-.53.42-.79.63-.54.44-1.05.9-1.56,1.36-.15.13-.29.27-.43.41-.56.53-1.1,1.06-1.62,1.61-7.09,7.58-12,14.86-15.47,22.93-2.94,6.85-5.19,14.08-6.92,21.21-6.56,1.57-15.27,5.23-20.23,11.33-2.96,3.63-4.27,7.78-3.8,11.99.75,6.68,4.93,11.27,8.28,14.96.69.76,1.35,1.49,1.95,2.19-.19.09-.37.19-.55.31-3.44,2.11-4.51,6.6-2.4,10.04.27.43.51.89.77,1.34,1.43,2.59,4.16,7.5,9.8,8.6.11,10.55.8,21.22,2.88,25.73.15.33.32.64.52.93.14.21.3.4.45.6.06.08.11.16.18.23.2.23.41.43.64.63.03.03.06.06.09.09.25.22.52.42.8.6,0,0,0,0,.01.01,1.18.75,2.55,1.17,3.96,1.17.11,0,.22-.01.33-.02h97.64s.01,0,.02,0c0,0,.02,0,.02,0,.28,0,.56-.02.84-.05.02,0,.04,0,.06,0,.12-.02.24-.04.36-.06.11-.02.21-.03.32-.06.18-.04.36-.09.54-.15.06-.02.12-.03.18-.05.73-.24,1.4-.59,2-1.03.05-.04.1-.08.16-.12.14-.11.28-.22.41-.34.07-.06.13-.13.2-.19.11-.11.22-.22.33-.33.03-.03.05-.05.08-.08.04-.05.08-.1.12-.15.09-.11.18-.23.27-.34.06-.08.12-.17.18-.26.08-.12.16-.24.23-.37.05-.09.1-.17.15-.26.07-.13.14-.27.2-.41.04-.08.08-.16.11-.25.06-.16.12-.31.17-.47.02-.07.05-.14.07-.22.05-.18.1-.36.14-.54.01-.06.03-.12.04-.18.04-.2.06-.4.09-.6,0-.05.01-.1.02-.15.02-.21.02-.42.02-.64,0-.04,0-.08,0-.12,0-.25-.02-.51-.05-.77,0-.02-.01-.1-.03-.25-.02-.15-.04-.36-.08-.63-.01-.09-.02-.19-.04-.29-.5-4.05-2.2-17.83-3.38-28.4.45.06.9.11,1.36.11.3,0,.6-.01.89-.04,2.62-.24,5.02-1.54,6.57-3.54l14.54-18.55c.24.02.49.03.73.03h0c1.69,0,3.42-.38,5.15-1.14,3.15-1.38,5.54-3.77,6.56-6.56.82-2.24.71-4.61-.31-6.68Z"/>
        <g>
          <path class="cls-4" d="M30.52,139.69c-7.51.7-23.2,6.91-22.18,16.07.67,6,6.17,10.01,9.67,14.65,2.49,3.29,6.19,7.45,7.36,11.56.8,2.78-.38,4.63-3.34,4.93-4.25.44-5.55-3.55-7.45-6.65"/>
          <g>
            <path class="cls-1" d="M158.08,150.91c-.27-.55-1.08-.74-2.09-.61.73-.72,1.06-1.49.79-2.03-.44-.9-2.34-.87-4.24.07-1.14.56-1.81,1.21-2.2,1.9-.41.73-.45,1.56-.26,2.31.46,1.85,1.99,5.76,6.42,3.82,1.94-.85,3.08-2.42,2.64-3.32-.2-.41-.72-.62-1.4-.64.39-.55.55-1.09.34-1.5Z"/>
            <path class="cls-4" d="M116.42,159.39l13.67,19.09c.89.79,2.45.66,3.17-.27l20.34-25.95"/>
          </g>
          <path class="cls-6" d="M134.48,114.58c-1.55,2.42-5.69,4.45-8.14,5.64-11.29,5.47-69,2.25-69,2.25,0,0-1.66,20.97,62.84,9.04,0,17.42.39,26.78,1.62,44.15.61,8.68,4.66,41.02,4.66,41.02H28.44c-3.1-6.73-2.34-39.93-1.51-48.53,1.72-17.73,4.76-36.76,11.82-53.21,3.43-7.98,8.27-14.6,14.09-20.82,18.6-19.87,67.8-18.97,80.72,7.04,1.72,3.46,1.65,12.27.91,13.43Z"/>
          <g>
            <g>
              <path class="cls-4" d="M120.18,131.5c-64.49,11.94-62.84-9.04-62.84-9.04,0,0,40.83,3.7,63.62-.89,3.92-.79,7.68-2.3,10.94-4.62,1.11-.79,2.09-1.62,2.58-2.38.74-1.16.8-9.97-.91-13.43-12.92-26.01-62.12-26.92-80.72-7.04-5.82,6.23-10.66,12.84-14.09,20.82-7.06,16.45-10.11,35.48-11.82,53.21-.83,8.6-1.59,41.8,1.51,48.53"/>
              <path class="cls-4" d="M126.46,216.67s-4.05-32.33-4.66-41.02c-1.23-17.37-1.62-26.73-1.62-44.15"/>
            </g>
            <g>
              <path class="cls-3" d="M85.98,148.48h-7.5s3.26,7.71,3.26,7.71c.84-1.65,4.24-7.71,4.24-7.71Z"/>
              <g>
                <polygon class="cls-3" points="70.43 191.58 80.29 206.74 90.74 191.58 81.73 156.19 70.43 191.58"/>
                <line class="cls-3" x1="90.03" y1="188.81" x2="73.58" y2="196.43"/>
                <line class="cls-3" x1="87.69" y1="179.61" x2="71.92" y2="186.93"/>
                <line class="cls-3" x1="85.36" y1="170.43" x2="75.76" y2="174.87"/>
              </g>
            </g>
          </g>
          <g>
            <g>
              <path class="cls-5" d="M77.95,114.24c0,1.55-1.26,2.8-2.8,2.8s-2.8-1.26-2.8-2.8,1.26-2.8,2.8-2.8,2.8,1.26,2.8,2.8Z"/>
              <path class="cls-5" d="M123.9,111.44c0,1.55-1.26,2.8-2.8,2.8s-2.8-1.26-2.8-2.8,1.26-2.8,2.8-2.8,2.8,1.26,2.8,2.8Z"/>
            </g>
            <g>
              <path class="cls-4" d="M69.64,104.67c5-4.17,10,0,10,0"/>
              <path class="cls-4" d="M125.53,103.65c-1.17-2.43-8.18-3.3-9.67,0"/>
            </g>
          </g>
        </g>
      </g>
      <g id="_圖層_2-2" data-name=" 圖層 2-2">
        <g>
          <g>
            <path class="cls-8" d="M161.22,2.55s0,.01-.02.01c-1.17.63-2.31,1.37-3.44,2.14.7,6.27.49,12.8-.5,18.97-.09.6-.76.47-.71-.15.46-6.13.53-12.1.39-18.24-.77.55-1.54,1.11-2.31,1.69.16,8.68-.63,17.89-1.41,26.48-.07.74-.86.54-.84-.18.17-8.4.41-17.39,1.44-25.7-1.03.77-2.07,1.54-3.11,2.28-2.41,36.78-.2,73.96-1.93,110.83-.94,20.07-1.48,40.18-1.58,60.31-.05,9.84,0,19.66.35,29.49.17,4.82-.16,10.73.7,15.37.42,2.26,1.48,3.62,2.79,4.45-.6-13.97.18-28.59.37-42.55.01-.93.91-.91.94,0,.54,13.94,1.13,29.18-.2,43.11,1.28.5,2.68.64,3.94.65.36-17.68,1.08-35.36,1.13-53.07.06-20.36-.28-40.72-.27-61.08,0-20.74.28-41.47,1.02-62.19.63-17.59,1.27-35.25,3.25-52.63h0ZM151.42,136.06h.79c0,1.3.07,3.14-.05,4.63-.05.68-.64.75-.69.08-.12-1.5-.05-3.42-.05-4.72h0ZM152.11,183.54c-.02.59-.58.59-.6,0-.21-6.61-.12-13.22-.06-19.84,0-.7.71-.7.72,0,.06,6.62.15,13.23-.06,19.84ZM153.17,100.94c-.03.57-.55.56-.58,0-.16-3.46-.09-6.94-.09-10.4,0-.74.75-.74.75,0,0,3.46.08,6.95-.09,10.4h.01ZM153.22,67.26c-.06.62-.69.44-.69-.14-.04-4.22.19-8.45.14-12.68,0-.83.83-.83.85,0,.06,4.24.14,8.62-.3,12.82ZM155.2,214.1c0,.34-.34.34-.35,0-.02-.54-.03-1.09-.05-1.63-.01-.44.46-.44.45,0-.02.54-.03,1.09-.05,1.63ZM155.03,156.22c-.01.65-.7.85-.77.16-.51-5-.36-10.02.21-14.99.09-.76.91-.57.88.18-.2,4.89-.23,9.76-.32,14.65h0Z"/>
            <path class="cls-8" d="M162.28,4.09c-1.28,17.85-2.71,35.68-3.29,53.63-.65,20.28-.73,40.62-.74,60.92-.02,20.79-.07,41.56-.12,62.35-.04,16.49.2,33.35-.48,49.92,1.77-3.3,1.18-12.97,1.25-16.34.09-4.75.12-9.5.15-14.25.05-9.51.09-19.01.01-28.52-.16-18.82-.35-37.63-.15-56.45.38-36.52.34-73.93,4.14-110.09-.29-.3-.55-.77-.77-1.16h0Z"/>
          </g>
          <g>
            <path class="cls-7" d="M163.03,2.27c-.18-.25-.38-.47-.57-.71l-.99-1.07c-.13-.13-.25-.27-.39-.39-.33-.29-.6.12-.59.56-2.33-.02-4.47,1.93-6.5,3.56-1.01.81-2.03,1.63-3.05,2.45l-1.15.94-.3,3.09c-1.63,17.98-1.49,36.15-1.32,54.32.22,22.55-.51,44.78-1.41,67.28-.89,22.25-.87,44.39-.51,66.65.09,5.56.19,11.11.29,16.66.06,3.21-.55,10.44.34,13.28,1.35,4.31,6.02,5.45,9.16,5.03l1.5-.32s.09-.03.14-.07c3.42-2.65,2.36-11.62,2.47-16.38.23-10.37.28-20.73.18-31.1-.2-20.18-.51-40.36-.43-60.55.08-19.92.71-39.79,1.39-59.69.7-20.13,2.2-40.25,2.67-60.39.11-.09.21-.23.23-.44.13-1.2-.64-1.98-1.17-2.72M157.23,178.44c-.05,17.72-.77,35.39-1.13,53.07-1.26-.01-2.66-.15-3.94-.65,1.32-13.93.74-29.16.2-43.11-.03-.91-.93-.93-.94,0-.19,13.96-.97,28.58-.37,42.55-1.32-.83-2.37-2.19-2.79-4.45-.86-4.64-.53-10.55-.7-15.37-.35-9.82-.4-19.65-.35-29.49.1-20.12.64-40.24,1.58-60.31,1.73-36.87-.48-74.05,1.93-110.83,1.04-.74,2.08-1.51,3.11-2.28-1.03,8.32-1.27,17.3-1.44,25.7-.01.72.77.91.84.18.78-8.6,1.57-17.8,1.41-26.48.77-.57,1.54-1.14,2.31-1.69.14,6.15.07,12.11-.39,18.24-.05.62.62.75.71.15.99-6.17,1.2-12.7.5-18.97,1.13-.78,2.27-1.51,3.44-2.14,0,0,.01-.01.02-.01-1.97,17.38-2.61,35.03-3.25,52.63-.74,20.72-1.01,41.44-1.02,62.19,0,20.36.33,40.72.27,61.08M158.91,115.34c-.2,18.82,0,37.63.15,56.45.08,9.51.04,19.01-.01,28.52-.03,4.75-.05,9.5-.15,14.25-.07,3.37.52,13.05-1.25,16.34.68-16.57.44-33.43.48-49.92.05-20.78.1-41.56.12-62.35.02-20.3.09-40.64.74-60.92.58-17.95,2.01-35.77,3.29-53.63.23.4.48.87.77,1.16-3.8,36.16-3.76,73.57-4.14,110.09"/>
            <path class="cls-7" d="M151.45,163.7c-.06,6.62-.15,13.23.06,19.84.02.59.58.59.6,0,.21-6.61.11-13.22.06-19.84,0-.7-.71-.7-.72,0"/>
            <path class="cls-7" d="M154.8,212.48c.01.54.03,1.09.05,1.63,0,.34.34.34.35,0,.02-.54.03-1.09.05-1.63.01-.44-.46-.44-.45,0"/>
            <path class="cls-7" d="M154.47,141.38c-.57,4.97-.72,10-.21,14.99.07.69.76.49.77-.16.09-4.89.12-9.77.32-14.65.03-.75-.79-.94-.88-.18"/>
            <path class="cls-7" d="M152.16,140.69c.12-1.5.05-3.33.05-4.63h-.79c0,1.3-.07,3.22.05,4.72.05.68.64.6.69-.08"/>
            <path class="cls-7" d="M152.67,54.44c.05,4.23-.18,8.46-.14,12.68,0,.58.63.76.69.14.43-4.2.36-8.59.3-12.82-.01-.83-.85-.83-.85,0"/>
            <path class="cls-7" d="M152.5,90.53c0,3.46-.08,6.95.09,10.4.03.56.55.57.58,0,.16-3.46.09-6.94.09-10.4,0-.74-.75-.74-.75,0"/>
          </g>
        </g>
      </g>
    </g>
  </g>
</svg>