<?xml version="1.0" encoding="utf-8"?>
<!-- Generator: Adobe Illustrator 28.1.0, SVG Export Plug-In . SVG Version: 6.00 Build 0)  -->
<svg version="1.1" id="_圖層_2" xmlns="http://www.w3.org/2000/svg" xmlns:xlink="http://www.w3.org/1999/xlink" x="0px" y="0px"
	 viewBox="0 0 172.6 359.6" style="enable-background:new 0 0 172.6 359.6;" xml:space="preserve">
<style type="text/css">
	.st0{fill:#FFFFFF;}
	.st1{fill:none;stroke:#5B3910;stroke-width:2;stroke-linecap:round;stroke-linejoin:round;}
	.st2{fill:#5B3910;}
	.st3{fill:#89D0F9;stroke:#5B3910;stroke-width:2;stroke-linecap:round;stroke-linejoin:round;}
	.st4{fill:#CE7849;}
	.st5{fill:#543C1A;}
	.st6{fill:#FFFFFF;stroke:#5B3910;stroke-width:2;stroke-linecap:round;stroke-linejoin:round;}
	.st7{fill:#5B3910;stroke:#5B3910;stroke-width:2;stroke-linecap:round;stroke-linejoin:round;}
</style>
<g>
	<path class="st0" d="M171.3,313.2c-0.1-0.9-0.1-1.6-0.2-2.2c-0.1-1.6-0.3-3.1-0.5-4.5c-1.5-13.3-4-23.6-7.8-32.3
		c-0.9-2.1-2-4.3-3.3-6.3c-0.4-0.6-0.8-1.2-1.2-1.9c0.1-1,0.1-2.1-0.2-3.1c1.6-3.7,1.2-8.2-3.2-10.5c-1.2-0.6-2.6-0.9-3.9-0.9
		c-1,0-1.9,0.2-2.8,0.5c-0.9-2.2-2.8-4-5.3-4.8c-0.8-0.3-1.6-0.4-2.4-0.4c-1.2,0-3.6,0.3-5.5,2.6c-0.1,0-0.1,0-0.1,0
		c-1.8-0.4-3.6-0.7-5.5-0.9c-0.7-0.1-1.5-0.1-2.2-0.2c-0.7-0.1-1.5-0.1-2.2-0.1c-0.5,0-0.9,0-1.4,0c-1,0-2.1,0-3.1,0.1
		c-0.8,0.1-1.5,0.1-2.2,0.2c-12.8,1.4-22.8,7.3-27.2,16.3c-0.3,0.7-0.6,1.4-0.8,2.3c-0.6,2.5-0.7,5.5-0.6,7.4c0.1,1.8,0.4,3,1,4
		c0.1,0.2,0.3,0.5,0.5,0.7c1.6,2.1,4.2,3.5,6.6,4.7L98,284c0.2,0.1,0.3,0.2,0.5,0.2c0.6,0.3,1.3,0.5,2.1,0.8c0.2,0,0.3,0.1,0.5,0.2
		h0.2c0.2,0.1,0.5,0.1,0.8,0.2c0.5,0.1,1.1,0.3,1.5,0.4c0.2,0,0.3,0.1,0.5,0.1c-0.9,0-1.9,0.4-2.6,0.9c-1.1,0.8-1.8,2.1-2,3.5
		l-1,12.3c-0.7-0.4-1.5-0.7-2.4-0.9c-0.8-0.2-1.7-0.3-2.5-0.3c-2.3,0-4.3,0.8-5.8,2.2c-1.2-2.9-4.2-4.8-7.6-4.8
		c-0.9,0-1.9,0.1-2.8,0.4c-2,0.6-3.8,1.9-4.9,3.5c-1.4,2-1.8,4.4-1.1,6.6c0.7,2.4,2.6,4.2,5,5c5.4,18.6,10.5,21.1,14.4,21.1
		c1.2,0,2.2-0.3,3.3-0.8c0.7-0.4,1.4-0.8,2-1.3l-0.8,10.1c-0.1,1.3,0.4,2.7,1.3,3.7s2.2,1.5,3.5,1.5h65.2c1.9,0,3.6-1.1,4.4-2.8
		c0.8-1.7,1.7-5,1.9-15.7C171.6,323.8,171.4,317.1,171.3,313.2L171.3,313.2z"/>
	<g>
		<path class="st1" d="M104.1,312.6c-0.8,4-6.5,14.6-12.3,17.6c-5.9,3.1-12.1-22.3-12.1-22.3"/>
		<path class="st2" d="M75.9,307.9c0.5,1.6,2.6,2.5,4.6,1.8c2.1-0.6,3.3-2.5,2.8-4.1s-2.6-2.5-4.6-1.8
			C76.7,304.4,75.4,306.2,75.9,307.9z"/>
	</g>
	<path class="st0" d="M94.7,275.2c1,1.6,3.8,3,5.4,3.8c0.1,0.1,0.2,0.1,0.4,0.2c0.5,0.2,1,0.4,1.6,0.6c0.2,0.1,0.4,0.1,0.6,0.2
		s0.4,0.1,0.6,0.2c0.4,0.1,0.9,0.2,1.3,0.3l0,0c10.9,2.6,33,3.5,43.6-1.5c0,0-0.7,21.1-44,11.1c0,11.2-0.2,14-1,24.7
		c0,0.4-0.1,0.7-0.1,1.1c-0.4,5.8-3.1,27.3-3.1,27.3h65.2c2.1-4.5,1.6-26.6,1-32.3c-1.1-11.8-3.2-24.5-7.9-35.4
		c-2.3-5.3-5.5-9.7-9.4-13.9c-12.4-13.2-45.1-12.6-53.7,4.7C94.2,268.6,94.3,274.4,94.7,275.2L94.7,275.2z"/>
	<path class="st1" d="M104.2,290.8c43.3,10,44-11.1,44-11.1c-10.5,4.9-32.7,4.1-43.6,1.5c-0.5-0.1-0.9-0.2-1.3-0.3
		c-0.2-0.1-0.4-0.1-0.6-0.2s-0.4-0.1-0.6-0.2c-0.6-0.2-1.1-0.4-1.6-0.6c-0.1-0.1-0.3-0.1-0.4-0.2c-1.6-0.8-4.4-2.1-5.4-3.8
		c-0.5-0.8-0.5-6.6,0.6-8.9c8.6-17.3,41.3-17.9,53.7-4.7c3.9,4.1,7.1,8.5,9.4,13.9c4.7,11,6.7,23.6,7.9,35.4
		c0.6,5.7,1.1,27.8-1,32.3"/>
	<path class="st1" d="M100.1,343.8c0,0,2.7-21.5,3.1-27.3c0-0.4,0-0.7,0.1-1.1c0.8-10.7,1-13.5,1-24.7"/>
	<g>
		<path class="st2" d="M132.3,275.6c0,1,0.8,1.9,1.9,1.9s1.9-0.8,1.9-1.9s-0.8-1.9-1.9-1.9C133.2,273.8,132.3,274.6,132.3,275.6z"/>
		<path class="st2" d="M101.8,273.8c0,1,0.8,1.9,1.9,1.9s1.9-0.8,1.9-1.9s-0.8-1.9-1.9-1.9S101.8,272.8,101.8,273.8z"/>
	</g>
	<g>
		<path class="st3" d="M147.7,258.5c1-1.9,3.2-2.6,5.1-1.7c1.9,1,1.7,2.8,0.7,4.6c-0.2,0.4-0.5,0.8-0.7,1.2c0.9,1.2,1.1,2.8,0.4,4.1
			c-1,2-3.5,2.7-5.7,1.6c-2.1-1.1-3-3.6-2-5.5c0.4-0.8,1.1-1.4,1.9-1.8C147.2,260.3,147.3,259.4,147.7,258.5L147.7,258.5z"/>
		<path class="st3" d="M143.9,256.7c0.7-2-0.4-4.1-2.4-4.8c-2-0.6-3.1,0.8-3.8,2.8c-0.2,0.5-0.3,0.9-0.3,1.4
			c-1.5,0.3-2.7,1.2-3.2,2.7c-0.7,2.1,0.6,4.4,2.9,5.2c2.3,0.7,4.7-0.4,5.4-2.5c0.3-0.9,0.2-1.8-0.1-2.6
			C143.1,258.3,143.7,257.6,143.9,256.7L143.9,256.7z"/>
		<path class="st3" d="M140.9,260c-1,2.2-1,4.2,1.3,5.2s4.1,0,5-2.2c1-2.2,0.8-4.8-1.5-5.8S141.9,257.8,140.9,260L140.9,260z"/>
	</g>
	<g id="_圖層_2-2">
		<g>
			<g>
				<path class="st4" d="M91.5,3.9L91.5,3.9c-1.2,1-2.3,2.1-3.5,3.3c0.7,9.6,0.5,19.7-0.5,29.2c-0.1,0.9-0.8,0.7-0.7-0.2
					c0.5-9.4,0.5-18.6,0.4-28c-0.8,0.9-1.5,1.7-2.3,2.6c0.2,13.3-0.6,27.5-1.4,40.7c-0.1,1.1-0.9,0.8-0.8-0.3
					c0.2-12.9,0.4-26.7,1.4-39.5c-1,1.2-2.1,2.4-3.1,3.5c-2.4,56.5-0.2,113.7-1.9,170.3c-0.9,30.9-1.5,61.8-1.6,92.7
					c0,15.1,0,30.2,0.4,45.3c0.2,7.4-0.2,16.5,0.7,23.6c0.4,3.5,1.5,5.6,2.8,6.8c-0.6-21.5,0.2-43.9,0.4-65.4c0-1.4,0.9-1.4,0.9,0
					c0.5,21.4,1.1,44.8-0.2,66.2c1.3,0.8,2.7,1,3.9,1c0.4-27.2,1.1-54.3,1.1-81.6c0.1-31.3-0.3-62.6-0.3-93.9
					c0-31.9,0.3-63.7,1-95.6C88.9,57.7,89.5,30.6,91.5,3.9L91.5,3.9L91.5,3.9z M81.7,209.1h0.8c0,2,0.1,4.8-0.1,7.1
					c0,1-0.6,1.2-0.7,0.1C81.6,214,81.7,211.1,81.7,209.1L81.7,209.1L81.7,209.1z M82.4,282.1c0,0.9-0.6,0.9-0.6,0
					c-0.2-10.2-0.1-20.3-0.1-30.5c0-1.1,0.7-1.1,0.7,0C82.5,261.8,82.6,271.9,82.4,282.1z M83.5,155.1c0,0.9-0.5,0.9-0.6,0
					c-0.2-5.3-0.1-10.7-0.1-16c0-1.1,0.8-1.1,0.8,0C83.5,144.5,83.6,149.8,83.5,155.1L83.5,155.1z M83.5,103.4
					c-0.1,0.9-0.7,0.7-0.7-0.2c0-6.5,0.2-13,0.1-19.5c0-1.3,0.8-1.3,0.8,0C83.9,90.2,84,96.9,83.5,103.4z M85.5,329
					c0,0.5-0.3,0.5-0.3,0c0-0.8,0-1.7-0.1-2.5c0-0.7,0.5-0.7,0.5,0C85.5,327.4,85.5,328.2,85.5,329z M85.3,240.1
					c0,1-0.7,1.3-0.8,0.2c-0.5-7.7-0.4-15.4,0.2-23c0.1-1.2,0.9-0.9,0.9,0.3C85.4,225.1,85.4,232.6,85.3,240.1L85.3,240.1
					L85.3,240.1z"/>
				<path class="st4" d="M92.6,6.3c-1.3,27.4-2.7,54.8-3.3,82.4c-0.7,31.2-0.7,62.4-0.7,93.6c0,31.9-0.1,63.9-0.1,95.8
					c0,25.3,0.2,51.2-0.5,76.7c1.8-5.1,1.2-19.9,1.2-25.1c0.1-7.3,0.1-14.6,0.1-21.9c0.1-14.6,0.1-29.2,0-43.8
					c-0.2-28.9-0.3-57.8-0.2-86.8C89.5,121.1,89.4,63.6,93.2,8C93,7.6,92.8,6.9,92.6,6.3L92.6,6.3L92.6,6.3z"/>
			</g>
			<g>
				<path class="st5" d="M93.3,3.5c-0.2-0.4-0.4-0.7-0.6-1.1l-1-1.6c-0.1-0.2-0.2-0.4-0.4-0.6C91-0.3,90.8,0.3,90.8,1
					c-2.3,0-4.5,3-6.5,5.5c-1,1.2-2,2.5-3,3.8l-1.2,1.4l-0.3,4.8c-1.6,27.6-1.5,55.6-1.3,83.5c0.2,34.7-0.5,68.8-1.4,103.4
					c-0.9,34.2-0.9,68.2-0.5,102.4c0.1,8.5,0.2,17.1,0.3,25.6c0.1,4.9-0.6,16,0.3,20.4c1.4,6.6,6,8.4,9.2,7.7l1.5-0.5
					c0,0,0.1,0,0.1-0.1c3.4-4.1,2.4-17.9,2.5-25.2c0.2-15.9,0.3-31.9,0.2-47.8c-0.2-31-0.5-62-0.4-93.1c0.1-30.6,0.7-61.2,1.4-91.7
					c0.7-30.9,2.2-61.9,2.7-92.8c0.1-0.1,0.2-0.3,0.2-0.7C94.6,5.8,93.8,4.6,93.3,3.5 M87.5,274.2c-0.1,27.2-0.8,54.4-1.1,81.6
					c-1.3,0-2.7-0.2-3.9-1c1.3-21.4,0.7-44.8,0.2-66.2c0-1.4-0.9-1.4-0.9,0c-0.2,21.5-1,43.9-0.4,65.4c-1.3-1.3-2.4-3.4-2.8-6.8
					c-0.9-7.1-0.5-16.2-0.7-23.6c-0.3-15.1-0.4-30.2-0.3-45.3c0.1-30.9,0.6-61.8,1.6-92.7c1.7-56.7-0.5-113.8,1.9-170.3
					c1-1.1,2.1-2.3,3.1-3.5c-1,12.8-1.3,26.6-1.4,39.5c0,1.1,0.8,1.4,0.8,0.3c0.8-13.2,1.6-27.4,1.4-40.7c0.8-0.9,1.5-1.8,2.3-2.6
					c0.1,9.5,0.1,18.6-0.4,28c-0.1,1,0.6,1.2,0.7,0.2c1-9.5,1.2-19.5,0.5-29.1C89.2,6,90.3,4.9,91.5,4l0,0
					c-2,26.7-2.6,53.8-3.2,80.9c-0.7,31.8-1,63.7-1,95.6C87.2,211.7,87.6,243,87.5,274.2 M89.2,177.3c-0.2,28.9,0,57.8,0.2,86.8
					c0.1,14.6,0,29.2,0,43.8c0,7.3,0,14.6-0.1,21.9c-0.1,5.2,0.5,20.1-1.2,25.1c0.7-25.5,0.4-51.4,0.5-76.7
					c0.1-31.9,0.1-63.9,0.1-95.8c0-31.2,0.1-62.5,0.7-93.6c0.6-27.6,2-55,3.3-82.4c0.2,0.6,0.5,1.3,0.8,1.8
					C89.5,63.6,89.6,121.1,89.2,177.3"/>
				<path class="st5" d="M81.7,251.6c-0.1,10.2-0.2,20.3,0.1,30.5c0,0.9,0.6,0.9,0.6,0c0.2-10.2,0.1-20.3,0.1-30.5
					C82.5,250.5,81.8,250.5,81.7,251.6"/>
				<path class="st5" d="M85.1,326.6c0,0.8,0,1.7,0.1,2.5c0,0.5,0.3,0.5,0.3,0c0-0.8,0-1.7,0.1-2.5
					C85.6,325.9,85.1,325.9,85.1,326.6"/>
				<path class="st5" d="M84.8,217.3c-0.6,7.6-0.7,15.4-0.2,23c0.1,1.1,0.8,0.8,0.8-0.2c0.1-7.5,0.1-15,0.3-22.5
					C85.7,216.4,84.8,216.1,84.8,217.3"/>
				<path class="st5" d="M82.4,216.2c0.1-2.3,0.1-5.1,0.1-7.1h-0.8c0,2-0.1,4.9,0.1,7.2C81.8,217.4,82.4,217.3,82.4,216.2"/>
				<path class="st5" d="M83,83.7c0.1,6.5-0.2,13-0.1,19.5c0,0.9,0.6,1.2,0.7,0.2c0.4-6.5,0.4-13.2,0.3-19.7
					C83.8,82.4,83,82.4,83,83.7"/>
				<path class="st5" d="M82.8,139.1c0,5.3-0.1,10.7,0.1,16c0,0.9,0.6,0.9,0.6,0c0.2-5.3,0.1-10.7,0.1-16
					C83.6,138,82.8,138,82.8,139.1"/>
			</g>
		</g>
	</g>
	<path class="st6" d="M99.3,315.2"/>
	<path class="st6" d="M97.9,314.9"/>
	<path class="st0" d="M98,303.2c-1.1-0.9-2.4-1.5-3.8-1.9c-0.8-0.2-1.7-0.3-2.6-0.3c-3.8,0-7,2.2-7.9,5.5c-0.5,1.8-0.2,3.7,0.8,5.4
		c1.2,2,3.3,3.5,5.8,4.2c0.8,0.2,1.7,0.3,2.6,0.3"/>
	<g>
		<path class="st1" d="M142.5,317.1c-22.8-2.3-30.6-4.3-50.8-8.4"/>
		<path class="st7" d="M92.3,306.3c-2-0.5-4,0.2-4.3,1.6s1,3,3.1,3.5s4-0.2,4.3-1.6S94.4,306.8,92.3,306.3z"/>
	</g>
</g>
</svg>
