<?xml version="1.0" encoding="utf-8"?>
<!-- Generator: Adobe Illustrator 28.0.0, SVG Export Plug-In . SVG Version: 6.00 Build 0)  -->
<svg version="1.1"
	 id="svg6044" xmlns:cc="http://creativecommons.org/ns#" xmlns:inkscape="http://www.inkscape.org/namespaces/inkscape" xmlns:rdf="http://www.w3.org/1999/02/22-rdf-syntax-ns#" xmlns:sodipodi="http://sodipodi.sourceforge.net/DTD/sodipodi-0.dtd" xmlns:dc="http://purl.org/dc/elements/1.1/" xmlns:svg="http://www.w3.org/2000/svg" inkscape:version="0.91 r13725" sodipodi:docname="bq.svg"
	 xmlns="http://www.w3.org/2000/svg" xmlns:xlink="http://www.w3.org/1999/xlink" x="0px" y="0px" viewBox="0 0 5.1 641.8"
	 style="enable-background:new 0 0 5.1 641.8;" xml:space="preserve">
<style type="text/css">
	.st0{fill:none;stroke:#996633;stroke-width:3;stroke-linecap:round;stroke-linejoin:round;stroke-miterlimit:10;}
</style>
<sodipodi:namedview  bordercolor="#666666" borderopacity="1.0" fit-margin-bottom="0" fit-margin-left="0" fit-margin-right="0" fit-margin-top="0" id="base" inkscape:current-layer="layer1" inkscape:cx="-45.328676" inkscape:cy="298.86581" inkscape:document-units="px" inkscape:pageopacity="0.0" inkscape:pageshadow="2" inkscape:window-height="1080" inkscape:window-maximized="1" inkscape:window-width="1920" inkscape:window-x="0" inkscape:window-y="0" inkscape:zoom="0.98994949" pagecolor="#ffffff" showgrid="false" units="px">
	</sodipodi:namedview>
<g id="layer1" transform="translate(-7.9898548e-8,-410.60385)" inkscape:groupmode="layer" inkscape:label="Layer 1">
	<path id="path6033" inkscape:connector-curvature="0" sodipodi:nodetypes="cccssscsccscsscsscccccc" class="st0" d="M2.6,1050.8
		c-0.2-5.1-0.1-16.4,0.4-34s0.7-31.3,0.6-41.4c-0.1-10.1-0.1-15.9,0-17.5c0.1-1.6,0.1-9.7,0.1-24.3c0-14.5-0.1-24.7-0.3-30.4
		C3.1,897.6,3,892.8,3,888.8c0-4-0.2-9.8-0.5-17.4S2,858.4,2,855.4c0.1-3,0.3-7.4,0.7-13c0.4-5.6,0.5-15.4,0.2-29.1
		c-0.3-13.8-0.3-23.9-0.1-30.3c0.2-6.4,0.3-17,0.3-31.8c0-14.8,0-28.4-0.1-40.8c-0.1-12.5-0.3-22-0.6-28.8
		c-0.3-6.7-0.3-14.8-0.2-24.2c0.2-9.4,0.2-26.8,0.1-52.1c-0.1-25.3-0.2-43.5-0.1-54.5c0.1-11-0.1-23.8-0.3-38.5
		c-0.3-14.7-0.4-25.9-0.4-33.7c0-7.8,0.2-17.8,0.7-29.9c0.4-12.1,0.6-19.3,0.5-21.6c-0.1-2.2-0.2-7.2-0.3-15"/>
</g>
</svg>
