<?xml version="1.0" encoding="UTF-8"?>
<svg id="_圖層_2" data-name="圖層 2" xmlns="http://www.w3.org/2000/svg" viewBox="0 0 89.79 45.49">
  <defs>
    <style>
      .cls-1 {
        fill: none;
        stroke: #e83331;
        stroke-linecap: round;
        stroke-linejoin: round;
        stroke-width: 2.4px;
      }
    </style>
  </defs>
  <g id="svg6626">
    <g id="layer1">
      <path id="path242" class="cls-1" d="m12.32,1.31c4.5-.1,8.9,0,13.4.1,4,.1,10.2.7,15.3.5,3.4.4,6.9-.2,10.3.2,4.9-.1,9.8-.8,14.8-.5,4.6.3,8,.4,14,.3,5.9-.4,8.6.1,8.2,5.8-.2,4.9-.1,9.1-.1,12.8,0,6.9,1.1,20-.5,22.1-2.4,3-8,.9-11.4.9-3.2-.1-7.7.9-10.8,0-3.9-.5-6.6.5-10.5.2-4,0-7.8-.7-11.7.2-4.7.6-10.7.5-15.4-.4-4.7-.7-8-.1-12.7-.1-3.8,0-12,1.4-13.3,0-1.4-1.5-.3-9.4-.4-12.5-.3-7.4-.4-12.5.1-19.9.1-1.3-.9-6.7,0-8.2C3.72.11,9.22,1.71,12.32,1.31h0Z"/>
    </g>
  </g>
</svg>