<?xml version="1.0" encoding="utf-8"?>
<!-- Generator: Adobe Illustrator 28.0.0, SVG Export Plug-In . SVG Version: 6.00 Build 0)  -->
<svg version="1.1"
	 id="svg6044" xmlns:cc="http://creativecommons.org/ns#" xmlns:inkscape="http://www.inkscape.org/namespaces/inkscape" xmlns:rdf="http://www.w3.org/1999/02/22-rdf-syntax-ns#" xmlns:sodipodi="http://sodipodi.sourceforge.net/DTD/sodipodi-0.dtd" xmlns:dc="http://purl.org/dc/elements/1.1/" xmlns:svg="http://www.w3.org/2000/svg" inkscape:version="0.91 r13725" sodipodi:docname="hr.svg"
	 xmlns="http://www.w3.org/2000/svg" xmlns:xlink="http://www.w3.org/1999/xlink" x="0px" y="0px" viewBox="0 0 642.1 5.4"
	 style="enable-background:new 0 0 642.1 5.4;" xml:space="preserve">
<style type="text/css">
	.st0{fill:none;stroke:#543C1A;stroke-width:3;stroke-linecap:round;stroke-linejoin:round;stroke-miterlimit:10;}
</style>
<sodipodi:namedview  bordercolor="#666666" borderopacity="1.0" fit-margin-bottom="0" fit-margin-left="0" fit-margin-right="0" fit-margin-top="0" id="base" inkscape:current-layer="layer1" inkscape:cx="327.60837" inkscape:cy="-25.43287" inkscape:document-units="px" inkscape:pageopacity="0.0" inkscape:pageshadow="2" inkscape:window-height="1080" inkscape:window-maximized="1" inkscape:window-width="1920" inkscape:window-x="0" inkscape:window-y="0" inkscape:zoom="1.4" pagecolor="#ffffff" showgrid="false" units="px">
	</sodipodi:namedview>
<g id="layer1" transform="translate(-3.4534391e-8,-1046.9554)" inkscape:groupmode="layer" inkscape:label="Layer 1">
	<path id="path6033" inkscape:connector-curvature="0" sodipodi:nodetypes="cccssscsccscsscsscccccc" class="st0" d="M1.7,1049.7
		c5.1-0.2,16.4-0.1,34,0.4s31.3,0.7,41.4,0.6c10.1-0.1,15.9-0.1,17.5,0c1.6,0.1,9.7,0.1,24.3,0.1c14.5,0,24.7-0.1,30.4-0.3
		c5.7-0.2,10.5-0.3,14.5-0.3c4,0,9.8-0.2,17.4-0.5c7.6-0.3,12.9-0.5,15.9-0.4c3,0.1,7.4,0.3,13,0.7c5.6,0.4,15.4,0.5,29.1,0.2
		c13.8-0.3,23.9-0.3,30.3-0.1c6.4,0.2,17,0.3,31.8,0.3c14.8,0,28.4,0,40.8-0.1c12.5-0.1,22-0.3,28.8-0.6c6.7-0.3,14.8-0.3,24.2-0.2
		c9.4,0.2,26.8,0.2,52.1,0.1c25.3-0.1,43.5-0.2,54.5-0.1c11,0.1,23.8-0.1,38.5-0.3c14.7-0.3,25.9-0.4,33.7-0.4
		c7.8,0,17.8,0.2,29.9,0.7c12.1,0.4,19.3,0.6,21.6,0.5c2.2-0.1,7.2-0.2,15-0.3"/>
</g>
</svg>
