<?xml version="1.0" encoding="UTF-8"?>
<svg id="_圖層_2" data-name="圖層 2" xmlns="http://www.w3.org/2000/svg" viewBox="0 0 240.84 188.58">
  <defs>
    <style>
      .cls-1 {
        fill: #77787b;
      }

      .cls-1, .cls-2, .cls-3, .cls-4, .cls-5, .cls-6 {
        fill-rule: evenodd;
      }

      .cls-1, .cls-2, .cls-3, .cls-4, .cls-5, .cls-6, .cls-7 {
        stroke-width: 0px;
      }

      .cls-2 {
        fill: #767579;
      }

      .cls-3, .cls-7 {
        fill: #543c1a;
      }

      .cls-4 {
        fill: #acadb1;
      }

      .cls-5 {
        fill: #e9ecf1;
      }

      .cls-6 {
        fill: #a1a3a7;
      }
    </style>
  </defs>
  <g id="_圖層_2-2" data-name="圖層 2">
    <g>
      <path class="cls-3" d="m240.74,152.55h.01c-.19-8.56-.4-17.12-.58-25.68-.24-11.94-.45-23.88-.69-35.81-.15-7.09-.25-14.17-.41-21.26-.26-12.31-.54-24.63-.75-36.95-.13-7.47-.42-14.92-.88-22.37-.21-3.45-1.65-5.83-4.49-7.7-2.86-1.89-5.86-2.67-9.29-2.62-15.58.21-31.15-.07-46.73.16-6.12.09-12.24-.05-18.36-.07-7.3-.02-14.6-.09-21.91.06-5.19.11-10.38-.06-15.57-.06-10.47,0-20.94.03-31.41.09-10.68.06-21.36-.23-32.04-.02-7,.14-14.01.06-21.01-.06C27.01.1,17.39.07,7.77,0,3.57-.03.07,3.49.04,7.71c-.02,3.75-.04,7.51-.04,11.26,0,17.48.01,34.96.04,52.44.03,15.41.09,30.82.13,46.23.03,13.8.05,27.61.09,41.41,0,1.05-.17,2.1,0,3.16.25,1.5.6,1.88,2.13,1.91,1.81.04,3.63.07,5.44,0,6.87-.21,13.74-.54,20.61-.67,8.44-.16,16.88-.16,25.32-.24,9.37-.08,18.72.45,28.07.83,3.54.15,7.09.03,10.64.07,1.69.02,1.67.06,1.7,1.68.06,3.42-.32,6.82-.57,10.23-.17,2.28-.99,4.12-2.85,5.07-.17.26-.37.5-.57.7-.62.62-1.36,1-2.16,1.22-.05.03-.11.05-.16.08h.04s-.05.02-.07.02c-.43.21-.86.41-1.3.61-.22.46-.54.87-.9,1.24.09.6.09,1.22-.01,1.82.59.13,63.52.82,63.84.73.29-.27.63-.5,1-.69-.01-.69.09-1.38.33-2.02-.1-.21-.19-.41-.26-.63-.52-.1-.97-.28-1.38-.5-.96-.29-1.7-.85-2.24-1.56-.33-.17-.64-.4-.9-.73-1.39-1.78-2.23-3.76-2.2-6.06.03-2.99.08-5.99.1-8.98.02-2.4,0-2.43,2.42-2.46,5.53-.06,11.06-.1,16.59-.1,9.54,0,19.08.03,28.62.06,5.49.02,10.97.09,16.46.15,6.42.06,12.74.2,19.16,0,3.37-.1,6.73-.41,10.1-.08,2.31.23,3.08-.39,3.46-2.64.09-.54.12-1.09.12-1.64-.02-2.36-.05-4.72-.1-7.09Zm-11.26-11.96c-4.46.32-8.93.48-13.4.49-10,.03-19.91-.14-29.91.08-13.97.32-27.93.31-41.9.51-6.42.09-12.83-.05-19.24.22-4.59.2-9.19.67-13.77.37-6.63-.44-13.24.18-19.86.12-9.7-.09-19.4,0-29.1-.13-5.48-.08-10.95-.44-16.42-.71-11.26-.55-22.53-.15-33.8-.26-2.17-.02-2.14,0-2.17-2.23-.21-13.12-.16-26.25-.35-39.36-.15-10.38,0-20.77-.22-31.15-.27-13-.14-26-.14-39,0-4.33.05-8.67.36-13,.07-.91-.08-1.85-.22-2.77-.25-1.67.55-2.92,2.23-3.15,1.83-.25,3.68-.47,5.53-.52,4.85-.12,9.7-.43,14.86-.25l.02.02c9.1-.2,18.51-.4,27.92-.26,5.23.08,10.46.04,15.68-.12,12.7-.38,25.41.09,38.11-.28,5.66-.16,11.3.34,16.94.01,4.69-.27,9.36-.05,14.03.14,23.5.96,47.01.28,70.52.4,2.27.01,4.54-.39,6.8.03,3.74.69,6.1,3.38,6.28,7.18.17,3.62.24,7.25.36,10.88.18,5.57.05,11.14.28,16.71.2,4.89.08,9.78.23,14.67.25,8.64.34,17.29.69,25.92.29,7.04.61,14.07.74,21.11.13,6.88.29,13.75.48,20.62.11,3.83.35,7.66.45,11.5.05,1.97-.09,2.08-2.01,2.21Z"/>
      <path class="cls-7" d="m87.24,188.58h61.79c3.22,0,3.22-5,0-5h-61.79c-3.22,0-3.22,5,0,5h0Z"/>
      <path class="cls-6" d="m2.36,159.8c.43.37.95.28,1.45.28,20.77-.02,41.54.06,62.3-.1,7.76-.06,15.52-.07,23.29-.21,23.89-.44,47.77,0,71.66-.27,25.66-.28,51.23-.07,76.89-.13,1.09,0,1.54-.24,1.41-1.39-.08-.74.04-1.51.06-2.27.37,1.84.09,3.68-.05,5.52-.04.63-.49.58-.9.62-5.16.55-10.34.84-15.53.85-12.28.02-24.46-.07-36.74-.13-9.24-.05-18.48-.14-27.72-.16-16.71-.05-33.43-.1-50.14-.07-8.48,0-16.96.45-25.44.24-8.39-.2-16.77-.48-25.16-.55-9.32-.08-18.64-.1-27.97.28-6.15.25-12.31.24-18.47.45-2.45.09-4.88-.12-7.33-.19-1.12-.03-1.73-.39-1.56-1.63.05-.37-.04-.75-.06-1.13h0Z"/>
      <path class="cls-4" d="m142.64,175.53c.24,3.41,1.11,6.5,4.31,8.39-.16.69-.75.56-1.21.59-1.12.09-2.25-.05-3.38,0-11.08.07-22.16-.05-33.25.08-4.71.05-9.43.13-14.14.22-1.38.03-2.76.21-4.15.21-.46.05-.92.04-1.36-.09-.37-.11-.75-.26-.5-.78,3.34-1.61,5.7-3.94,5.87-7.91.07-1.67.16-3.34.23-5.01.48-.46,1.09-.43,1.67-.42,7.35.15,14.68-.36,22.03-.28,7.01.08,14.02.02,21.02.02.5,0,1.01,0,1.52.02.85.02,1.29.34,1.26,1.31-.04,1.22-.15,2.44.07,3.66h.01Z"/>
      <path class="cls-1" d="m142.64,175.53c-.47-1.1-.18-2.24-.18-3.36,0-.91-.21-1.25-1.2-1.24-10.85.05-21.69-.07-32.54.12-4.55.08-9.1.07-13.65.18.11-2.1.26-4.2.33-6.3.03-.82.39-1.01,1.16-1.09,3.15-.36,6.32-.19,9.47-.2,10.58-.03,21.16.03,31.73.07,1.31,0,2.61.13,3.91.15.67,0,.99.18.98.93-.03,3.58,0,7.16,0,10.74h0Z"/>
      <path class="cls-2" d="m88.97,184.15c.38.98,1.26.28,1.85.55,3.92.19,7.84.07,11.77.06,10.77-.02,21.53,0,32.3,0,2.32,0,4.63-.37,6.95-.23.26.02.52,0,.56-.36,1.51-.19,3.06.25,4.56-.24.85.29,1.6.73,2.33,1.24.2.14.47.25.41.57-.06.37-.35.42-.66.45-.75.07-1.5.22-2.25.22-13.95,0-27.91-.04-41.86-.08-5.72,0-11.45-.06-17.17-.1-.4,0-.81-.08-1.35-.13.63-1.12,1.47-1.71,2.58-1.95h-.02Z"/>
      <path class="cls-3" d="m142.4,184.16c.32.3.85.08,1.13.48-.1.37-.41.22-.62.23-13.41.49-26.82.28-40.24.29-3.54,0-7.09.05-10.62-.23-.42-.03-.85.03-1.22-.23,15.84-.73,31.68-.63,47.53-.57,1.35,0,2.7.02,4.05.03h0Z"/>
      <path class="cls-5" d="m239.41,155.71c-.08-7.18-.15-14.35-.26-21.52-.16-10.12-.37-20.25-.5-30.37-.12-10.12-.14-20.25-.42-30.37-.3-10.76-.55-21.51-.84-32.26-.25-9.35-.91-18.7-1.04-28.06-.03-2.22-.08-4.51-1.54-6.4-2.62-3.39-5.97-5.27-10.39-5.27-62.78.02-125.57-.01-188.35-.02h-12.67c-.46,0-.93-.06-1.39-.06-4.52.01-9.04-.19-13.55.1-4.2.28-7.25,3.59-7.27,7.79-.01,1.98.15,3.96.15,5.94.04,25.58.06,51.16.09,76.75,0,3.46.07,6.92.08,10.38.04,12.24-.01,24.48.25,36.72.15,6.91.17,13.83.6,20.74h-.01c.55.93,1.48.67,2.28.67,21.52-.14,43.05.31,64.57-.23,7.81-.2,15.61-.1,23.42-.2,25.11-.33,50.23.05,75.34-.26,22.91-.28,45.75-.06,68.67-.06.63,0,1.27.03,1.9-.05.62-.07,1.01-.34.96-1.06-.08-.96.08-1.94-.08-2.9Zm-9.84-15.12c-4.46.32-8.93.48-13.4.49-10,.03-19.91-.14-29.91.08-13.97.32-27.93.31-41.9.51-6.42.09-12.83-.05-19.24.22-4.59.2-9.19.67-13.77.37-6.63-.44-13.24.18-19.86.12-9.7-.09-19.4,0-29.1-.13-5.48-.08-10.95-.44-16.42-.71-11.26-.55-22.53-.15-33.8-.26-2.17-.02-2.14,0-2.17-2.23-.21-13.12-.16-26.25-.35-39.36-.15-10.38,0-20.77-.22-31.15-.27-13-.14-26-.14-39,0-4.33.05-8.67.36-13,.07-.91-.08-1.85-.22-2.77-.25-1.67.55-2.92,2.23-3.15,1.83-.25,3.68-.47,5.53-.52,4.85-.12,9.7-.43,14.86-.25l.02.02c9.1-.2,18.51-.4,27.92-.26,5.23.08,10.46.04,15.68-.12,12.7-.38,25.41.09,38.11-.28,5.66-.16,11.3.34,16.94.01,4.69-.27,9.36-.05,14.03.14,23.5.96,47.01.28,70.52.4,2.27.01,4.54-.39,6.8.03,3.74.69,6.1,3.38,6.28,7.18.17,3.62.24,7.25.36,10.88.18,5.57.05,11.14.28,16.71.2,4.89.08,9.78.23,14.67.25,8.64.34,17.29.69,25.92.29,7.04.61,14.07.74,21.11.13,6.88.29,13.75.48,20.62.11,3.83.35,7.66.45,11.5.05,1.97-.09,2.08-2.01,2.21Z"/>
      <path class="cls-3" d="m233.5,139.1c-.78-9.55-.75-19.13-1.1-28.69-.52-13.91-.81-27.82-1.44-41.72-.61-13.65-.58-27.33-.84-41-.08-4.25-.14-8.51-.31-12.77-.16-3.97-2.37-6.46-6.14-7.03-.96-.15-1.94-.11-2.91-.11-8.82.02-17.62.53-26.44.37-11.69-.21-23.38-.12-35.07-.12-4.69,0-9.36-.25-14.04-.45-7.38-.31-14.77-.09-22.15-.09-10.76.01-21.52.49-32.28.27-2.95-.06-5.9-.25-8.85-.01-7.33.59-14.68.3-22.02.24-6.71-.06-13.41.05-20.12.18-5.99.11-11.97.56-17.95.05-4.03-.34-7.99.04-11.88,1.19-1.07.31-1.89.8-2.09,2.06-.48,2.97-.59,5.93-.57,8.94.09,11.94.44,23.88.53,35.82.08,11.4-.03,22.8.03,34.2.05,10.26-.03,20.51.19,30.77.15,6.79-.14,13.58.3,20.37.08,1.13.35,1.48,1.51,1.44,9.16-.29,18.32-.13,27.47.16,12.27.39,24.54.68,36.81.91,10.42.2,20.84-.26,31.27-.18,4.9.03,9.79,0,14.69,0h0v-.42c6.24,0,12.49-.03,18.73,0,11.14.05,22.28-.18,33.42-.34,7.01-.1,14.01.18,21.02.02,12.36-.29,24.63-.47,36.99-.69,2.53-.05,3.44-.89,3.24-3.37Zm-3.93,1.49c-4.46.32-8.93.48-13.4.49-10,.03-19.91-.14-29.91.08-13.97.32-27.93.31-41.9.51-6.42.09-12.83-.05-19.24.22-4.59.2-9.19.67-13.77.37-6.63-.44-13.24.18-19.86.12-9.7-.09-19.4,0-29.1-.13-5.48-.08-10.95-.44-16.42-.71-11.26-.55-22.53-.15-33.8-.26-2.17-.02-2.14,0-2.17-2.23-.21-13.12-.16-26.25-.35-39.36-.15-10.38,0-20.77-.22-31.15-.27-13-.14-26-.14-39,0-4.33.05-8.67.36-13,.07-.91-.08-1.85-.22-2.77-.25-1.67.55-2.92,2.23-3.15,1.83-.25,3.68-.47,5.53-.52,4.85-.12,9.7-.43,14.86-.25l.02.02c9.1-.2,18.51-.4,27.92-.26,5.23.08,10.46.04,15.68-.12,12.7-.38,25.41.09,38.11-.28,5.66-.16,11.3.34,16.94.01,4.69-.27,9.36-.05,14.03.14,23.5.96,47.01.28,70.52.4,2.27.01,4.54-.39,6.8.03,3.74.69,6.1,3.38,6.28,7.18.17,3.62.24,7.25.36,10.88.18,5.57.05,11.14.28,16.71.2,4.89.08,9.78.23,14.67.25,8.64.34,17.29.69,25.92.29,7.04.61,14.07.74,21.11.13,6.88.29,13.75.48,20.62.11,3.83.35,7.66.45,11.5.05,1.97-.09,2.08-2.01,2.21Z"/>
    </g>
  </g>
</svg>