<?xml version="1.0" encoding="utf-8"?>
<!-- Generator: Adobe Illustrator 28.0.0, SVG Export Plug-In . SVG Version: 6.00 Build 0)  -->
<svg version="1.1" id="_圖層_2" xmlns="http://www.w3.org/2000/svg" xmlns:xlink="http://www.w3.org/1999/xlink" x="0px" y="0px"
	 viewBox="0 0 500 500" style="enable-background:new 0 0 500 500;" xml:space="preserve">
<style type="text/css">
	.st0{fill-rule:evenodd;clip-rule:evenodd;fill:#010101;}
	.st1{fill-rule:evenodd;clip-rule:evenodd;fill:#E9ECF1;}
	.st2{fill-rule:evenodd;clip-rule:evenodd;fill:#A1A3A7;}
	.st3{fill-rule:evenodd;clip-rule:evenodd;fill:#77787B;}
	.st4{fill-rule:evenodd;clip-rule:evenodd;fill:#000001;}
	.st5{fill-rule:evenodd;clip-rule:evenodd;fill:#59575C;}
	.st6{opacity:0.2;fill-rule:evenodd;clip-rule:evenodd;fill:#A1A3A7;enable-background:new    ;}
	.st7{fill:none;}
	.st8{display:none;}
	.st9{display:inline;fill-rule:evenodd;clip-rule:evenodd;fill:#010101;}
	.st10{display:inline;fill-rule:evenodd;clip-rule:evenodd;fill:#E9ECF1;}
	.st11{display:inline;fill-rule:evenodd;clip-rule:evenodd;fill:#A1A3A7;}
	.st12{display:inline;fill-rule:evenodd;clip-rule:evenodd;fill:#77787B;}
	.st13{display:inline;fill-rule:evenodd;clip-rule:evenodd;fill:#000001;}
	.st14{display:inline;fill-rule:evenodd;clip-rule:evenodd;fill:#59575C;}
	.st15{display:inline;opacity:0.2;fill-rule:evenodd;clip-rule:evenodd;fill:#A1A3A7;enable-background:new    ;}
	.st16{display:inline;fill:none;}
</style>
<g id="computer2">
	<path class="st0" d="M368.8,298.6c-0.2-8.6-0.4-17.1-0.6-25.7c-0.2-11.9-0.5-23.9-0.7-35.8c-0.1-7.1-0.3-14.2-0.5-21.3
		c-0.3-12.3-0.5-24.6-0.8-36.9c-0.1-7.5-0.4-14.9-0.9-22.4c-0.2-3.4-1.6-5.8-4.5-7.7c-2.9-1.9-5.9-2.7-9.3-2.6
		c-15.6,0.2-31.1-0.1-46.7,0.2c-6.1,0.1-12.2-0.1-18.4-0.1c-7.3,0-14.6-0.1-21.9,0.1c-5.2,0.1-10.4-0.1-15.6-0.1
		c-10.5,0-20.9,0-31.4,0.1c-10.7,0.1-21.4-0.2-32,0c-7,0.1-14,0.1-21-0.1c-9.6-0.2-19.2-0.2-28.9-0.3c-4.2,0-7.7,3.5-7.7,7.7
		c0,3.8,0,7.5,0,11.3c0,17.5,0,35,0,52.4c0,15.4,0.1,30.8,0.1,46.2c0,13.8,0.1,27.6,0.1,41.4c0,1-0.2,2.1,0,3.2
		c0.2,1.5,0.6,1.9,2.1,1.9c1.8,0,3.6,0.1,5.4,0c6.9-0.2,13.7-0.5,20.6-0.7c8.4-0.2,16.9-0.2,25.3-0.2c9.4-0.1,18.7,0.5,28.1,0.8
		c3.4,0.1,6.9,0,10.3,0.1c0.4-0.1,0.7-0.1,1.1-0.1c8.4,0,16.9-0.1,25.3-0.1c7.5,0,15.1-0.5,22.6,0.2c0.5-0.1,1-0.2,1.6-0.2
		c0.6,0,1.3,0.1,1.9,0.1c0.4-0.1,0.9-0.1,1.6-0.1c5.5-0.1,11.1-0.1,16.6-0.1c9.5,0,19.1,0,28.6,0.1c5.5,0,11,0.1,16.5,0.1
		c6.4,0.1,12.8,0.2,19.2,0c3.4-0.1,6.7-0.4,10.1-0.1c2.3,0.2,3.1-0.4,3.5-2.6c0.1-0.5,0.1-1.1,0.1-1.6
		C368.8,303.3,368.8,300.9,368.8,298.6L368.8,298.6z"/>
	<path class="st1" d="M130.3,305.8c-0.4-6.9-0.4-13.8-0.6-20.7c-0.3-12.2-0.2-24.5-0.2-36.7c0-3.5-0.1-6.9-0.1-10.4
		c0-25.6-0.1-51.2-0.1-76.8c0-2-0.2-4-0.1-5.9c0-4.2,3.1-7.5,7.3-7.8c4.5-0.3,9-0.1,13.6-0.1c0.5,0,0.9,0.1,1.4,0.1
		c4.2,0,8.4,0,12.7,0c62.8,0,125.6,0,188.4,0c4.4,0,7.8,1.9,10.4,5.3c1.5,1.9,1.5,4.2,1.5,6.4c0.1,9.4,0.8,18.7,1,28.1
		c0.3,10.8,0.5,21.5,0.8,32.3c0.3,10.1,0.4,20.2,0.5,30.4c0.1,10.1,0.3,20.2,0.5,30.4c0.1,7.2,0.2,14.3,0.3,21.5
		c0.2,1,0,1.9,0.1,2.9c0,0.7-0.3,1-1,1.1c-0.6,0.1-1.3,0-1.9,0c-22.9,0-45.9-0.2-68.8,0.1c-25.1,0.3-50.2-0.1-75.3,0.3
		c-7.8,0.1-15.6,0-23.4,0.2c-21.5,0.5-43.1,0.1-64.6,0.2C131.8,306.5,130.8,306.8,130.3,305.8L130.3,305.8z"/>
	<path class="st2" d="M130.3,305.8c0.4,0.4,0.9,0.3,1.4,0.3c20.8,0,41.5,0.1,62.3-0.1c7.8-0.1,15.5-0.1,23.3-0.2
		c23.9-0.4,47.8,0,71.7-0.3c25.7-0.3,51.3-0.1,77-0.1c1.1,0,1.5-0.2,1.4-1.4c-0.1-0.7,0-1.5,0.1-2.3c0.4,1.8,0.1,3.7,0,5.5
		c0,0.6-0.5,0.6-0.9,0.6c-5.2,0.5-10.3,0.8-15.5,0.9c-12.3,0-24.5-0.1-36.8-0.1c-9.2,0-18.5-0.1-27.7-0.2c-16.7,0-33.4-0.1-50.1-0.1
		c-8.5,0-17,0.5-25.4,0.2c-8.4-0.2-16.8-0.5-25.2-0.5c-9.3-0.1-18.6-0.1-28,0.3c-6.1,0.2-12.3,0.2-18.5,0.5
		c-2.4,0.1-4.9-0.1-7.3-0.2c-1.1,0-1.7-0.4-1.6-1.6C130.4,306.6,130.3,306.2,130.3,305.8L130.3,305.8z"/>
	<path class="st3" d="M246.5,309.9c4,0,8-0.1,12-0.2c-8.2,0-16.4-0.1-24.5,0c-3.1,0-6.3-0.2-9.5,0.2c-0.2,0-0.4,0.1-0.6,0.1
		C231.4,310,239,309.9,246.5,309.9L246.5,309.9z"/>
	<path class="st3" d="M270.1,310c-0.1,0-0.3-0.1-0.5-0.1c-1.3,0-2.6-0.1-3.9-0.1c-1.2,0-2.3,0-3.5,0c2.3,0,4.6,0.1,6.9,0.4
		C269.4,310.1,269.8,310,270.1,310L270.1,310z"/>
	<path class="st4" d="M248,289.9c-4.9,0-9.8,0-14.7,0c-10.4-0.1-20.9,0.4-31.3,0.2c-12.3-0.2-24.5-0.5-36.8-0.9
		c-9.1-0.3-18.3-0.5-27.5-0.2c-1.2,0-1.4-0.3-1.5-1.4c-0.4-6.8-0.1-13.6-0.3-20.4c-0.2-10.3-0.1-20.5-0.2-30.8
		c-0.1-11.4,0.1-22.8,0-34.2c-0.1-11.9-0.4-23.9-0.5-35.8c0-3,0.1-6,0.6-8.9c0.2-1.3,1-1.8,2.1-2.1c3.9-1.1,7.9-1.5,11.9-1.2
		c6,0.5,12,0.1,17.9-0.1c6.7-0.1,13.4-0.2,20.1-0.2c7.3,0.1,14.7,0.4,22-0.2c2.9-0.2,5.9-0.1,8.9,0c10.8,0.2,21.5-0.3,32.3-0.3
		c7.4,0,14.8-0.2,22.1,0.1c4.7,0.2,9.4,0.4,14,0.4c11.7,0,23.4-0.1,35.1,0.1c8.8,0.2,17.6-0.4,26.4-0.4c1,0,2,0,2.9,0.1
		c3.8,0.6,6,3.1,6.1,7c0.2,4.3,0.2,8.5,0.3,12.8c0.3,13.7,0.2,27.4,0.8,41c0.6,13.9,1,27.8,1.5,41.7c0.4,9.6,0.3,19.1,1.1,28.7
		c0.2,2.5-0.7,3.3-3.2,3.4c-12.4,0.2-24.7,0.4-37.1,0.7c-7,0.2-14-0.1-21,0c-11.1,0.2-22.3,0.4-33.4,0.3c-6.2,0-12.5,0-18.7,0
		L248,289.9L248,289.9z"/>
	<path class="st5" d="M159.9,155.9c9.1-0.2,18.5-0.4,27.9-0.3c5.2,0.1,10.5,0,15.7-0.1c12.7-0.4,25.4,0.1,38.1-0.3
		c5.7-0.2,11.3,0.3,16.9,0c4.7-0.3,9.4-0.1,14,0.1c23.5,1,47,0.3,70.5,0.4c2.3,0,4.5-0.4,6.8,0c3.7,0.7,6.1,3.4,6.3,7.2
		c0.2,3.6,0.2,7.2,0.4,10.9c0.2,5.6,0,11.1,0.3,16.7c0.2,4.9,0.1,9.8,0.2,14.7c0.2,8.6,0.4,17.3,0.8,25.9c0.3,7,0.6,14.1,0.7,21.1
		c0.1,6.9,0.3,13.7,0.5,20.6c0.1,3.8,0.4,7.7,0.5,11.5c0,2-0.1,2.1-2,2.2c-4.5,0.3-8.9,0.5-13.4,0.5c-10,0-20-0.1-30,0.1
		c-14,0.3-27.9,0.3-41.9,0.5c-6.4,0.1-12.8,0-19.2,0.2c-4.6,0.2-9.2,0.7-13.8,0.4c-6.6-0.4-13.2,0.2-19.9,0.1
		c-9.7-0.1-19.4,0-29.1-0.1c-5.5-0.1-10.9-0.4-16.4-0.7c-11.3-0.5-22.5-0.1-33.8-0.3c-2.2,0-2.1,0-2.2-2.2
		c-0.2-13.1-0.2-26.2-0.4-39.4c-0.1-10.4,0-20.8-0.2-31.1c-0.3-13-0.1-26-0.1-39c0-4.3,0.1-8.7,0.4-13c0.1-0.9-0.1-1.9-0.2-2.8
		c-0.2-1.7,0.6-2.9,2.2-3.1c1.8-0.2,3.7-0.5,5.5-0.5C149.9,156,154.7,155.7,159.9,155.9L159.9,155.9z"/>
	<path class="st6" d="M137.5,245.7c0,2.2,0.1,4.4,0.1,6.7c17.2-16.5,34.5-33,52-49.1c14.5-13.3,29.2-26.4,44.4-39
		c3.8-3.1,7.5-6.1,11.4-9.1c-1.2,0-2.5,0-3.7,0c-12.7,0.4-25.4-0.1-38.1,0.3c-5.2,0.2-10.5,0.2-15.7,0.1c-9.4-0.1-18.8,0.1-27.9,0.3
		c-5.2-0.2-10,0.1-14.9,0.2c-1.9,0.1-3.7,0.3-5.5,0.5c-1.7,0.2-2.5,1.5-2.2,3.1c0.1,0.9,0.3,1.9,0.2,2.8c-0.3,4.3-0.4,8.7-0.4,13
		c0,13-0.1,26,0.1,39C137.5,225,137.4,235.4,137.5,245.7L137.5,245.7z"/>
	<path class="st6" d="M173.8,287.6c5.5,0.3,10.9,0.6,16.4,0.7c7.2,0.1,14.5,0.1,21.7,0.1c13.3-14,26.8-27.8,40.5-41.4
		c19-18.9,38.3-37.4,57.9-55.6c12.9-12,26.2-23.6,39.1-35.6c-2.1-0.3-4.2,0.1-6.4,0c-18-0.1-36,0.3-54.1,0
		c-26.1,21.9-51.1,45.5-75.9,68.8c-21.9,20.4-43.3,41.3-64.1,62.7C157.3,287.3,165.6,287.2,173.8,287.6L173.8,287.6z"/>
	<path class="st6" d="M304.8,287.4c17.6-18.4,35.2-36.9,53.1-55.1c0-0.4,0-0.7,0-1.1c-0.4-8.6-0.5-17.3-0.8-25.9
		c-0.1-4.9,0-9.8-0.2-14.7c0-0.9,0-1.8-0.1-2.7c-33,33.6-66.8,66.4-99.8,100c5.1-0.1,10.1,0,15.2-0.1
		C283.1,287.6,293.9,287.5,304.8,287.4L304.8,287.4z"/>
	<polyline class="st7" points="0,0 500,0 500,500 0,500 	"/>
</g>
<g id="computer_00000100365066769060758530000001597419872844995718_" class="st8">
	<path class="st9" d="M347.6,283.3c-0.2-8.6-0.4-17.1-0.6-25.7c-0.2-11.9-0.5-23.9-0.7-35.8c-0.1-7.1-0.3-14.2-0.5-21.3
		c-0.3-12.3-0.5-24.6-0.8-36.9c-0.1-7.5-0.4-14.9-0.9-22.4c-0.2-3.4-1.6-5.8-4.5-7.7c-2.9-1.9-5.9-2.7-9.3-2.6
		c-15.6,0.2-31.1-0.1-46.7,0.2c-6.1,0.1-12.2-0.1-18.4-0.1c-7.3,0-14.6-0.1-21.9,0.1c-5.2,0.1-10.4-0.1-15.6-0.1
		c-10.5,0-20.9,0-31.4,0.1c-10.7,0.1-21.4-0.2-32,0c-7,0.1-14,0.1-21-0.1c-9.6-0.2-19.3-0.2-28.9-0.3c-4.2,0-7.7,3.5-7.7,7.7
		c0,3.8,0,7.5,0,11.3c0,17.5,0,35,0,52.4c0,15.4,0.1,30.8,0.1,46.2c0,13.8,0.1,27.6,0.1,41.4c0,1-0.2,2.1,0,3.2
		c0.2,1.5,0.6,1.9,2.1,1.9c1.8,0,3.6,0.1,5.4,0c6.9-0.2,13.7-0.5,20.6-0.7c8.4-0.2,16.9-0.2,25.3-0.2c9.4-0.1,18.7,0.5,28.1,0.8
		c3.4,0.1,6.9,0,10.3,0.1c0.4-0.1,0.7-0.1,1.1-0.1c8.4,0,16.9-0.1,25.3-0.1c7.5,0,15.1-0.5,22.6,0.2c0.5-0.1,1-0.2,1.6-0.2
		c0.6,0,1.3,0.1,1.9,0.1c0.4-0.1,0.9-0.1,1.6-0.1c5.5-0.1,11.1-0.1,16.6-0.1c9.5,0,19.1,0,28.6,0.1c5.5,0,11,0.1,16.5,0.1
		c6.4,0.1,12.8,0.2,19.2,0c3.4-0.1,6.7-0.4,10.1-0.1c2.3,0.2,3.1-0.4,3.5-2.6c0.1-0.5,0.1-1.1,0.1-1.6
		C347.6,288,347.6,285.7,347.6,283.3L347.6,283.3z"/>
	<path class="st10" d="M109.1,290.6c-0.4-6.9-0.4-13.8-0.6-20.7c-0.3-12.2-0.2-24.5-0.2-36.7c0-3.5-0.1-6.9-0.1-10.4
		c0-25.6-0.1-51.2-0.1-76.8c0-2-0.2-4-0.1-5.9c0-4.2,3.1-7.5,7.3-7.8c4.5-0.3,9-0.1,13.6-0.1c0.5,0,0.9,0.1,1.4,0.1
		c4.2,0,8.4,0,12.7,0c62.8,0,125.6,0,188.3,0c4.4,0,7.8,1.9,10.4,5.3c1.5,1.9,1.5,4.2,1.5,6.4c0.1,9.4,0.8,18.7,1,28.1
		c0.3,10.8,0.5,21.5,0.8,32.3c0.3,10.1,0.4,20.2,0.5,30.4c0.1,10.1,0.3,20.2,0.5,30.4c0.1,7.2,0.2,14.3,0.3,21.5
		c0.2,1,0,1.9,0.1,2.9c0,0.7-0.3,1-1,1.1c-0.6,0.1-1.3,0-1.9,0c-22.9,0-45.9-0.2-68.8,0.1c-25.1,0.3-50.2-0.1-75.3,0.3
		c-7.8,0.1-15.6,0-23.4,0.2c-21.5,0.5-43.1,0.1-64.6,0.2C110.5,291.3,109.6,291.5,109.1,290.6L109.1,290.6z"/>
	<path class="st11" d="M109.1,290.6c0.4,0.4,0.9,0.3,1.4,0.3c20.8,0,41.5,0.1,62.3-0.1c7.8-0.1,15.5-0.1,23.3-0.2
		c23.9-0.4,47.8,0,71.7-0.3c25.7-0.3,51.3-0.1,77-0.1c1.1,0,1.5-0.2,1.4-1.4c-0.1-0.7,0-1.5,0.1-2.3c0.4,1.8,0.1,3.7,0,5.5
		c0,0.6-0.5,0.6-0.9,0.6c-5.2,0.5-10.3,0.8-15.5,0.9c-12.3,0-24.5-0.1-36.8-0.1c-9.2,0-18.5-0.1-27.7-0.2c-16.7,0-33.4-0.1-50.1-0.1
		c-8.5,0-17,0.5-25.4,0.2c-8.4-0.2-16.8-0.5-25.2-0.5c-9.3-0.1-18.6-0.1-28,0.3c-6.1,0.2-12.3,0.2-18.5,0.5
		c-2.4,0.1-4.9-0.1-7.3-0.2c-1.1,0-1.7-0.4-1.6-1.6C109.2,291.4,109.1,291,109.1,290.6L109.1,290.6z"/>
	<path class="st12" d="M225.3,294.6c4,0,8-0.1,12-0.2c-8.2,0-16.4-0.1-24.5,0c-3.1,0-6.3-0.2-9.5,0.2c-0.2,0-0.4,0.1-0.6,0.1
		C210.2,294.7,217.7,294.6,225.3,294.6L225.3,294.6z"/>
	<path class="st12" d="M248.9,294.7c-0.1,0-0.3-0.1-0.5-0.1c-1.3,0-2.6-0.1-3.9-0.1c-1.2,0-2.3,0-3.5,0c2.3,0,4.6,0.1,6.9,0.4
		C248.2,294.8,248.6,294.8,248.9,294.7L248.9,294.7z"/>
	<path class="st13" d="M226.8,274.7c-4.9,0-9.8,0-14.7,0c-10.4-0.1-20.9,0.4-31.3,0.2c-12.3-0.2-24.5-0.5-36.8-0.9
		c-9.1-0.3-18.3-0.5-27.5-0.2c-1.2,0-1.4-0.3-1.5-1.4c-0.4-6.8-0.1-13.6-0.3-20.4c-0.2-10.3-0.1-20.5-0.2-30.8
		c-0.1-11.4,0.1-22.8,0-34.2c-0.1-11.9-0.4-23.9-0.5-35.8c0-3,0.1-6,0.6-8.9c0.2-1.3,1-1.8,2.1-2.1c3.9-1.1,7.9-1.5,11.9-1.2
		c6,0.5,12,0.1,17.9-0.1c6.7-0.1,13.4-0.2,20.1-0.2c7.3,0.1,14.7,0.4,22-0.2c2.9-0.2,5.9-0.1,8.9,0c10.8,0.2,21.5-0.3,32.3-0.3
		c7.4,0,14.8-0.2,22.1,0.1c4.7,0.2,9.3,0.4,14,0.4c11.7,0,23.4-0.1,35.1,0.1c8.8,0.2,17.6-0.4,26.4-0.4c1,0,2,0,2.9,0.1
		c3.8,0.6,6,3.1,6.1,7c0.2,4.3,0.2,8.5,0.3,12.8c0.3,13.7,0.2,27.4,0.8,41c0.6,13.9,1,27.8,1.5,41.7c0.4,9.6,0.3,19.1,1.1,28.7
		c0.2,2.5-0.7,3.3-3.2,3.4c-12.4,0.2-24.7,0.4-37.1,0.7c-7,0.2-14-0.1-21,0c-11.1,0.2-22.3,0.4-33.4,0.3c-6.2,0-12.5,0-18.7,0
		L226.8,274.7L226.8,274.7z"/>
	<path class="st14" d="M138.7,140.7c9.1-0.2,18.5-0.4,27.9-0.3c5.2,0.1,10.5,0,15.7-0.1c12.7-0.4,25.4,0.1,38.1-0.3
		c5.7-0.2,11.3,0.3,16.9,0c4.7-0.3,9.4-0.1,14,0.1c23.5,1,47,0.3,70.5,0.4c2.3,0,4.5-0.4,6.8,0c3.7,0.7,6.1,3.4,6.3,7.2
		c0.2,3.6,0.2,7.2,0.4,10.9c0.2,5.6,0,11.1,0.3,16.7c0.2,4.9,0.1,9.8,0.2,14.7c0.2,8.6,0.4,17.3,0.8,25.9c0.3,7,0.6,14.1,0.7,21.1
		c0.1,6.9,0.3,13.7,0.5,20.6c0.1,3.8,0.4,7.7,0.5,11.5c0,2-0.1,2.1-2,2.2c-4.5,0.3-8.9,0.5-13.4,0.5c-10,0-20-0.1-30,0.1
		c-14,0.3-27.9,0.3-41.9,0.5c-6.4,0.1-12.8,0-19.2,0.2c-4.6,0.2-9.2,0.7-13.8,0.4c-6.6-0.4-13.2,0.2-19.9,0.1
		c-9.7-0.1-19.4,0-29.1-0.1c-5.5-0.1-10.9-0.4-16.4-0.7c-11.3-0.5-22.5-0.1-33.8-0.3c-2.2,0-2.1,0-2.2-2.2
		c-0.2-13.1-0.2-26.2-0.4-39.4c-0.1-10.4,0-20.8-0.2-31.1c-0.3-13-0.1-26-0.1-39c0-4.3,0.1-8.7,0.4-13c0.1-0.9-0.1-1.9-0.2-2.8
		c-0.2-1.7,0.6-2.9,2.2-3.1c1.8-0.2,3.7-0.5,5.5-0.5C128.7,140.8,133.5,140.5,138.7,140.7L138.7,140.7z"/>
	<path class="st15" d="M116.3,230.5c0,2.2,0.1,4.4,0.1,6.7c17.3-16.5,34.5-33,52-49.1c14.5-13.3,29.2-26.4,44.4-39
		c3.8-3.1,7.5-6.1,11.4-9.1c-1.2,0-2.5,0-3.7,0c-12.7,0.4-25.4-0.1-38.1,0.3c-5.2,0.2-10.5,0.2-15.7,0.1c-9.4-0.1-18.8,0.1-27.9,0.3
		c-5.2-0.2-10,0.1-14.9,0.2c-1.9,0.1-3.7,0.3-5.5,0.5c-1.7,0.2-2.5,1.5-2.2,3.1c0.1,0.9,0.3,1.9,0.2,2.8c-0.3,4.3-0.4,8.7-0.4,13
		c0,13-0.1,26,0.1,39C116.3,209.7,116.1,220.1,116.3,230.5L116.3,230.5z"/>
	<path class="st15" d="M152.6,272.3c5.5,0.3,10.9,0.6,16.4,0.7c7.2,0.1,14.5,0.1,21.7,0.1c13.3-14,26.8-27.8,40.5-41.4
		c19-18.9,38.3-37.4,57.9-55.6c12.9-12,26.2-23.6,39.1-35.6c-2.1-0.3-4.2,0.1-6.4,0c-18-0.1-36,0.3-54.1,0
		c-26.1,21.9-51.1,45.5-75.9,68.8c-21.9,20.4-43.3,41.3-64.1,62.7C136.1,272,144.4,271.9,152.6,272.3L152.6,272.3z"/>
	<path class="st15" d="M283.6,272.1c17.6-18.4,35.2-36.9,53.1-55.1c0-0.4,0-0.7,0-1.1c-0.4-8.6-0.5-17.3-0.8-25.9
		c-0.1-4.9,0-9.8-0.2-14.7c0-0.9,0-1.8-0.1-2.7c-33,33.6-66.8,66.4-99.8,100c5.1-0.1,10.1,0,15.2-0.1
		C261.9,272.3,272.7,272.3,283.6,272.1L283.6,272.1z"/>
	<polyline class="st16" points="-21.2,-15.3 478.8,-15.3 478.8,484.7 -21.2,484.7 	"/>
</g>
</svg>
