<?xml version="1.0" encoding="UTF-8"?>
<svg id="_圖層_2" data-name="圖層 2" xmlns="http://www.w3.org/2000/svg" viewBox="0 0 262 175">
  <defs>
    <style>
      .cls-1 {
        fill: none;
        stroke: #010101;
        stroke-miterlimit: 10;
      }

      .cls-2 {
        fill: #000001;
      }

      .cls-2, .cls-3, .cls-4, .cls-5, .cls-6, .cls-7, .cls-8 {
        fill-rule: evenodd;
        stroke-width: 0px;
      }

      .cls-3 {
        fill: #010101;
      }

      .cls-4 {
        fill: #59575c;
      }

      .cls-5 {
        fill: #77787b;
      }

      .cls-6 {
        fill: #e9ecf1;
      }

      .cls-7, .cls-8 {
        fill: #a1a3a7;
      }

      .cls-8 {
        isolation: isolate;
        opacity: .2;
      }
    </style>
  </defs>
  <g id="_圖層_2-2" data-name=" 圖層 2">
    <g>
      <g id="computer">
        <path class="cls-3" d="m251.86,152.87c-.19-8.58-.4-17.15-.58-25.73-.24-11.96-.45-23.93-.69-35.88-.15-7.1-.34-14.2-.5-21.3-.26-12.33-.54-24.68-.75-37.02-.13-7.49-.42-14.95-.88-22.42-.21-3.46-1.66-5.84-4.5-7.72-2.87-1.89-5.88-2.68-9.32-2.63-15.63.21-31.25-.07-46.88.16-6.14.09-12.28-.05-18.42-.07-7.32-.02-14.65-.09-21.98.06-5.21.11-10.41-.06-15.62-.06-10.5,0-21.01.03-31.51.09-10.71.06-21.43-.23-32.14-.02-7.02.14-14.06.06-21.08-.06C37.33.1,27.66.07,18.01,0c-4.21-.03-7.73,3.5-7.76,7.73-.02,3.76-.04,7.53-.04,11.28,0,17.52.01,35.03.04,52.55.03,15.44.09,30.88.13,46.32.03,13.83.05,27.67.09,41.49,0,1.05-.17,2.1,0,3.17.25,1.5.6,1.88,2.14,1.91,1.82.04,3.64.07,5.46.01,6.89-.21,13.78-.54,20.68-.67,8.47-.16,16.94-.16,25.4-.24,9.4-.08,18.78.45,28.16.83,3.44.14,6.9.03,10.35.07.35-.07.73-.12,1.13-.12,8.46-.05,16.91-.14,25.36-.14,7.54,0,15.17-.51,22.69.21.52-.11,1.05-.18,1.66-.2.64-.02,1.28.06,1.93.09.35-.08.86-.09,1.59-.09,5.55-.06,11.1-.1,16.64-.1,9.57,0,19.14.03,28.71.06,5.51.02,11.01.09,16.51.15,6.44.06,12.87.2,19.31,0,3.38-.1,6.75-.41,10.13-.08,2.32.23,3.1-.39,3.47-2.65.09-.54.12-1.09.12-1.64-.02-2.36-.05-4.73-.1-7.1l.02.03Z"/>
        <path class="cls-6" d="m12.6,160.13c-.43-6.92-.45-13.86-.6-20.78-.26-12.26-.21-24.53-.25-36.79-.01-3.47-.08-6.93-.08-10.4-.03-25.64-.05-51.27-.09-76.9,0-1.98-.16-3.97-.15-5.95.02-4.21,3.08-7.53,7.29-7.81,4.52-.29,9.06-.09,13.59-.1.46,0,.93.06,1.39.06h12.71c62.99.01,125.98.04,188.97.02,4.43,0,7.8,1.88,10.42,5.28,1.46,1.89,1.51,4.19,1.55,6.41.13,9.38.79,18.75,1.04,28.12.29,10.77.54,21.54.84,32.33.28,10.14.39,20.29.51,30.43.13,10.14.34,20.29.5,30.43.11,7.18.18,14.37.26,21.56.16.96,0,1.94.08,2.91.05.72-.34.99-.96,1.06-.63.08-1.27.05-1.91.05-23,0-46-.22-68.99.06-25.19.31-50.39-.07-75.59.26-7.84.1-15.66,0-23.5.2-21.59.54-43.19.09-64.78.23-.8,0-1.74.26-2.29-.67h0Z"/>
        <path class="cls-7" d="m12.6,160.13c.43.37.95.28,1.45.28,20.84-.02,41.68.06,62.5-.1,7.79-.06,15.57-.07,23.37-.21,23.97-.44,47.93-.01,71.89-.27,25.74-.28,51.49-.07,77.23-.13,1.09,0,1.55-.24,1.41-1.39-.08-.74.04-1.51.06-2.27.37,1.84.09,3.69-.05,5.53-.04.63-.49.58-.9.62-5.18.55-10.37.84-15.58.85-12.32.02-24.63-.07-36.95-.13-9.27-.05-18.54-.14-27.81-.16-16.76-.05-33.54-.1-50.3-.07-8.51.01-17.02.45-25.52.24-8.42-.2-16.82-.48-25.24-.55-9.35-.08-18.7-.1-28.06.28-6.17.25-12.35.24-18.53.45-2.46.09-4.9-.12-7.35-.19-1.12-.03-1.74-.39-1.57-1.63.05-.37-.04-.75-.06-1.13h.01Z"/>
        <path class="cls-5" d="m129.18,164.2c3.99,0,8.02-.15,12.04-.18-8.21-.03-16.4-.06-24.61-.04-3.16,0-6.34-.16-9.5.2-.25.03-.44.07-.6.14,7.56-.05,15.12-.12,22.68-.12h-.01Z"/>
        <path class="cls-5" d="m152.86,164.27c-.13-.05-.29-.07-.49-.07-1.3-.02-2.62-.14-3.92-.15-1.17,0-2.35,0-3.51-.01,2.32.04,4.64.15,6.94.38.32-.06.65-.11.99-.14h-.01Z"/>
        <path class="cls-2" d="m130.73,144.2c-4.92,0-9.82.03-14.74,0-10.46-.08-20.92.38-31.37.18-12.31-.23-24.62-.52-36.93-.91-9.18-.29-18.37-.45-27.56-.16-1.16.04-1.43-.31-1.51-1.44-.44-6.8-.15-13.61-.3-20.41-.22-10.28-.14-20.55-.19-30.83-.06-11.42.05-22.85-.03-34.27-.09-11.96-.44-23.93-.53-35.89-.02-3.02.09-5.98.57-8.96.2-1.26,1.02-1.75,2.1-2.06,3.9-1.15,7.88-1.53,11.92-1.19,6,.51,12,.06,18.01-.05,6.73-.13,13.45-.24,20.19-.18,7.36.06,14.74.35,22.09-.24,2.96-.24,5.92-.05,8.88.01,10.8.22,21.59-.26,32.39-.27,7.4,0,14.82-.22,22.22.09,4.7.2,9.38.45,14.09.45,11.73,0,23.46-.09,35.18.12,8.85.16,17.68-.35,26.53-.37.97,0,1.96-.04,2.92.11,3.78.57,6,3.07,6.16,7.04.17,4.27.23,8.54.31,12.8.26,13.7.23,27.41.84,41.08.63,13.93,1.01,27.87,1.54,41.8.35,9.58.32,19.18,1.1,28.75.2,2.49-.71,3.33-3.25,3.38-12.4.22-24.8.4-37.2.69-7.03.16-14.06-.12-21.09-.02-11.18.16-22.35.39-33.53.34-6.26-.03-12.53,0-18.79,0v.42h0Z"/>
        <path class="cls-4" d="m42.31,9.9c9.13-.2,18.57-.4,28.01-.26,5.25.08,10.49.04,15.73-.12,12.74-.38,25.49.09,38.23-.28,5.68-.16,11.34.34,17,.01,4.71-.27,9.39-.05,14.08.14,23.58.96,47.16.28,70.75.4,2.28.01,4.55-.39,6.82.03,3.75.69,6.12,3.39,6.3,7.19.17,3.63.24,7.26.36,10.9.18,5.58.05,11.16.28,16.74.2,4.9.08,9.8.23,14.7.25,8.66.43,17.32.78,25.97.29,7.05.61,14.1.74,21.15.13,6.89.29,13.78.48,20.66.11,3.84.35,7.68.45,11.52.05,1.97-.09,2.08-2.02,2.21-4.47.32-8.96.48-13.44.49-10.03.03-20.07-.14-30.1.08-14.02.32-28.02.31-42.04.51-6.44.09-12.87-.05-19.3.22-4.61.2-9.22.67-13.82.37-6.65-.44-13.28.18-19.93.12-9.73-.09-19.46,0-29.2-.13-5.5-.08-10.99-.44-16.47-.71-11.3-.55-22.6-.15-33.91-.26-2.18-.02-2.15,0-2.18-2.23-.21-13.15-.16-26.3-.35-39.44-.15-10.4,0-20.81-.22-31.21-.27-13.03-.14-26.05-.14-39.08,0-4.34.05-8.69.36-13.03.07-.91-.08-1.85-.22-2.78-.25-1.67.55-2.93,2.24-3.16,1.84-.25,3.69-.47,5.55-.52,4.87-.12,9.73-.43,14.91-.25l.02.02Z"/>
        <path class="cls-8" d="m19.82,99.91c.03,2.22.05,4.45.07,6.67,17.31-16.5,34.58-33.06,52.21-49.22,14.55-13.35,29.31-26.47,44.53-39.05,3.76-3.11,7.55-6.14,11.41-9.1-1.24-.01-2.5-.01-3.74.02-12.74.37-25.49-.1-38.23.28-5.24.16-10.49.19-15.73.12-9.44-.14-18.88.06-28.01.26-5.18-.18-10.04.13-14.91.25-1.86.05-3.71.27-5.55.52-1.69.23-2.49,1.48-2.24,3.16.13.92.28,1.85.22,2.78-.31,4.34-.36,8.69-.36,13.03,0,13.03-.14,26.05.14,39.08.22,10.4.06,20.8.22,31.21h-.02Z"/>
        <path class="cls-8" d="m56.27,141.86c5.49.27,10.99.63,16.47.71,7.26.1,14.53.07,21.79.09,13.37-14,26.92-27.83,40.65-41.46,19.04-18.92,38.41-37.53,58.1-55.76,12.97-12,26.3-23.62,39.21-35.67-2.12-.29-4.25.05-6.38.04-18.08-.09-36.17.28-54.25.03-26.23,21.97-51.26,45.63-76.18,68.89-21.92,20.45-43.42,41.34-64.26,62.88,8.28-.04,16.56-.15,24.84.25h0Z"/>
        <path class="cls-8" d="m187.71,141.63c17.7-18.45,35.33-36.95,53.23-55.18-.02-.37-.03-.74-.05-1.12-.35-8.66-.53-17.31-.78-25.97-.14-4.9-.03-9.8-.23-14.7-.04-.91-.05-1.81-.08-2.73-33.07,33.67-66.98,66.52-100.09,100.16,5.09-.1,10.17-.03,15.27-.11,10.91-.16,21.81-.19,32.72-.35h.01Z"/>
      </g>
      <g>
        <g>
          <path class="cls-3" d="m261.77,162.18c-1.99-.04-3.98-.08-5.97-.01-7.54.23-15.08.6-22.62.74-9.26.18-18.52.18-27.79.27-10.28.09-20.54-.5-30.8-.92-3.76-.15-7.55-.03-11.33-.08-.38.08-.8.13-1.24.13-9.25.06-18.49.15-27.74.15-8.25,0-16.59.56-24.82-.23-.57.12-1.15.2-1.81.22-.7.02-1.4-.07-2.11-.1-.38.09-.94.1-1.73.1-6.07.07-12.14.11-18.21.11-10.47,0-20.94-.03-31.41-.07-6.02-.02-12.04-.1-18.06-.17-7.05-.07-14.08-.22-21.12,0-3.7.11-7.39.45-11.08.09-2.53-.25-3.39.43-3.8,2.92-.07.41-.1.83-.11,1.25.22.09.44.2.65.33.48.28.89.64,1.25,1.04,1.43.27,2.5,1.04,3.2,2.05,4.11.69,8.22,1.55,12.15,1.96,1.11-.74,2.51-1.09,4.14-.77,1.89.37,3.79.67,5.69.94.84-.68,1.96-1.13,3.38-1.14,8.29-.05,16.54.54,24.77,1.37,0,0,0,0,.01,0,7.6-.06,15.17-.54,22.75.34.12.01.22.05.34.07,7.13,0,14.26-.06,21.39-.07.65,0,1.24.09,1.77.26,4.12.08,8.25.23,12.37.38,6.04-.37,12.09-.51,18.14-.54,2.64-.1,5.28-.08,7.93,0,1.37,0,2.75.02,4.12.02,3.23-.06,6.45-.08,9.68-.04.88-.87,2.1-1.44,3.7-1.44,1.63,0,3.24.05,4.83.17,2.51.1,5.03.13,7.5-.17.87-.83,2.07-1.37,3.62-1.37,28.05-.02,56.1-.75,84.14.06.45-.67,1.03-1.27,1.75-1.76.71-.49,1.5-.83,2.32-1.1.11-.26.25-.5.4-.74,0-2.08-.06-4.25-.23-4.26Z"/>
          <path class="cls-7" d="m260.11,165.68c.19-1.37-.48-1.77-1.7-1.8-2.67-.08-5.32-.31-7.99-.21-6.71.23-13.43.22-20.13.5-10.17.42-20.33.4-30.48.31-9.14-.08-18.28-.39-27.42-.61-9.24-.23-18.48.25-27.73.27-18.21.03-36.43-.02-54.64-.08-10.07-.02-20.14-.12-30.21-.18-13.38-.07-26.76-.17-40.14-.14-5.66.01-11.3.33-16.92.94-.45.04-.94-.01-.98.69-.06.76-.13,1.51-.18,2.27.1.1.2.19.3.3.21-.4.68-.51,1.43-.51,27.96-.07,55.93.17,83.89-.14,26.04-.29,52.06.19,78.1-.3,8.47-.15,16.92-.17,25.38-.23,22.62-.18,45.26-.09,67.9-.11.54,0,1.11-.1,1.58.31h.01c-.02-.43-.12-.85-.07-1.26Z"/>
        </g>
        <g id="computer2">
          <path class="cls-3" d="m261.77,167.74c-.04-.27-.07-.55-.07-.83.02-.13.04-.27.05-.4-3.88.19-55.91,1.42-68.13,1.34-1.11,0-1.89-.03-2.28-.06-10.33-.81-20.24-.07-30.58.34-16.17.64-32.35-.13-48.53-.38-6.15.52-12.28.91-18.46.84-5.49-.06-10.82-1.5-16.39-1.64-1.81-.04-3.61-.09-5.42-.13-12.21-.29-24.43-.58-36.64-.14-11.83.43-23.51,1.07-35.33-.11.02.14.04.27.06.41,0,.17-.02.33-.03.49.81,1.77,2.11,3.21,3.99,4.45,3.17,2.09,6.49,2.95,10.29,2.9,17.26-.23,34.5.08,51.76-.18,6.78-.1,13.56.06,20.34.08,8.09.02,16.17.1,24.27-.07,5.75-.12,11.5.07,17.25.07,11.6,0,23.19-.03,34.79-.1,11.83-.07,23.66.25,35.49.02,7.75-.15,15.52-.07,23.27.07,10.66.19,21.32.22,31.98.3,4.04.03,7.49-2.91,8.35-6.74,0-.08.01-.15.01-.23,0-.1-.03-.2-.03-.3Z"/>
          <path class="cls-6" d="m260.27,166.34s0,0,0,0c-16.13-.28-249.11.4-258.62.25.05.1.04.39.08.49.11.19.08.17.22.35,2.9,3.75,6.61,5.83,11.51,5.83,69.54-.02,139.08.01,208.62.02h14.03c.51,0,1.03.07,1.54.07,5.01-.01,10.01.21,15.01-.11,3.77-.25,6.67-2.72,7.66-6.11-.04-.26-.06-.52-.05-.79Z"/>
        </g>
        <line class="cls-1" x1="260.73" y1="165.79" x2="260.56" y2="168.13"/>
        <path class="cls-1" d="m261.41,166.15c.03.92.07,1.85-.17,2.74-.24.89-.79,1.74-1.63,2.09"/>
      </g>
    </g>
  </g>
</svg>