<?xml version="1.0" encoding="UTF-8"?>
<svg id="_喇뒨쏛_2" data-name="喇뒨쏛 2" xmlns="http://www.w3.org/2000/svg" viewBox="0 0 152.72 108.38">
  <defs>
    <style>
      .cls-1 {
        fill: #543c1a;
        stroke-width: 0px;
      }
    </style>
  </defs>
  <g id="_喇뒨쏛_1-2" data-name="喇뒨쏛 1">
    <g>
      <path class="cls-1" d="M152.72,90.2c-.06,1.18-.15,2.37-.18,3.55-.04,1.59-.73,2.76-2.13,3.49-1.41.74-2.65.31-3.88-.55-8.66-6.04-16.07-13.43-23.01-21.32-3.22-3.65-6.38-7.36-9.54-11.06-2.14-2.5-2.13-3.94-.04-6.58,7.67-9.7,15.36-19.39,23.01-29.11,2.05-2.61,4.01-5.29,5.99-7.96,1.77-2.38,4.46-2.33,6.05.15.1.16.2.42.34.46,2.12.57,2.05,2.35,2.14,3.96.37,6.79.69,13.59,1.04,20.39.03.64.14,1.27.22,1.91v42.65Z"/>
      <path class="cls-1" d="M101.63.94c13.37,0,26.73-.01,40.1,0,3.19,0,3.8.59,4.34,3.75.05.28.23.54.38.79.66,1.16.56,2.29-.14,3.37-.46.71-1,1.36-1.46,2.07-1.29,1.99-2.7,3.91-3.82,5.99-2.49,4.63-5.87,8.56-9.79,11.92-9.1,7.81-17.44,16.41-26.14,24.62-4.58,4.32-9.76,7.8-15.88,9.7-5.63,1.75-11.09,1-16.5-.87-6.68-2.31-12.72-5.89-18.36-10.03-10.69-7.85-21.26-15.85-31.75-23.97-5.15-3.99-9.68-8.7-13.77-13.8-.8-.99-1.49-2.09-2.1-3.22-1.11-2.07-.09-4.02,2.39-4.5,5.02-.97,10.04-1.92,15.08-2.76C39.74,1.46,55.37.1,71.09,0c7.95-.05,15.89.36,23.84.54,2.23.05,4.47,0,6.7,0,0,.13,0,.26,0,.39Z"/>
      <path class="cls-1" d="M39.5,108.38c-4.55-.18-8.82-.34-13.08-.54-2.03-.09-3.26-1.19-3.49-2.98-.24-1.89.75-2.72,2.57-3.76,2.01-1.16,4.04-2.68,5.39-4.53,6.66-9.21,13.09-18.59,19.63-27.9,1.23-1.75,2.58-3.4,3.9-5.08,1.56-1.98,3.25-2.2,5.48-.94,2.28,1.29,4.55,2.64,6.96,3.64,3.96,1.64,8.17,1.37,12.35,1.18,4.16-.19,8.33-.34,12.49-.56.55-.03,1.16-.23,1.62-.53.86-.58,1.62-1.31,2.45-1.94,1.55-1.16,3.07-1.22,4.48.05,5.4,4.84,10.86,9.61,16.06,14.65,4.17,4.04,8.09,8.35,11.94,12.69,1.32,1.49,2.23,3.4,3.12,5.21,1.06,2.15-.62,4.91-3.17,5.1-3.66.28-7.35.3-11.01.57-8.32.61-16.63,1.28-24.95,1.97-12.57,1.03-25.13,2.15-37.71,3.1-5.1.38-10.22.42-15.06.6Z"/>
      <path class="cls-1" d="M3.29,23.79c2.02,1.15,3.81,2.17,5.6,3.2.38.22.76.45,1.08.74,1.3,1.19,2.52,2.5,3.88,3.61,6.24,5.1,13.6,8.35,20.55,12.27,1.38.78,2.77,1.57,4.07,2.47,4.6,3.18,5.54,5.75,4.33,11.22-1.84,8.35-6.13,15.45-11.29,22.09-5.57,7.17-11.94,13.57-18.8,19.5-.23.19-.44.4-.68.58-1.25.92-2.61,1.18-4.07.55-1.5-.65-1.89-1.94-1.9-3.41-.02-2.68.14-5.38-.07-8.05-.68-8.51-1.33-17.03-2.3-25.51-1-8.78-2.45-17.5-3.54-26.27-.49-3.94-.03-7.84,2.02-11.39.37-.64.83-1.22,1.1-1.61Z"/>
    </g>
  </g>
</svg>