<?xml version="1.0" encoding="UTF-8"?>
<svg id="_圖層_2" data-name="圖層 2" xmlns="http://www.w3.org/2000/svg" viewBox="0 0 78.85 28.96">
  <defs>
    <style>
      .cls-1 {
        fill: #b4d1e2;
      }

      .cls-1, .cls-2 {
        stroke-width: 0px;
      }

      .cls-2 {
        fill: #fff;
      }

      .cls-3 {
        fill: none;
        stroke: #543c1a;
        stroke-linecap: round;
        stroke-linejoin: round;
        stroke-width: 2.25px;
      }
    </style>
  </defs>
  <g id="OBJECTS">
    <g>
      <path class="cls-2" d="m77.72,27.84H5.72S-3.11,15.87,3.72,10.5c9.33-7.33,19.33,6,19.33,6,0,0-.67-14.67,8-15.33,11.61-.89,12,12.67,12,12.67,0,0,1.33,14,34.67,14Z"/>
      <path class="cls-1" d="m33.72,10.84c-6.67-3.67-10.67,5.67-10.67,5.67-4-5.33-11.67-4-13,3-.54,2.81,1.46,5.78,4.03,8.33h46.97c-26.33,0-20.54-13.26-27.33-17Z"/>
      <path class="cls-3" d="m77.72,27.84H5.72S-3.11,15.87,3.72,10.5c9.33-7.33,19.33,6,19.33,6,0,0-.67-14.67,8-15.33,11.61-.89,12,12.67,12,12.67,0,0,1.33,14,34.67,14Z"/>
      <path class="cls-3" d="m18.72,21.84s3-7,11.33-5"/>
    </g>
  </g>
</svg>