<?xml version="1.0" encoding="UTF-8"?>
<svg id="_圖層_2" data-name="圖層 2" xmlns="http://www.w3.org/2000/svg" viewBox="0 0 311.55 324.7">
  <defs>
    <style>
      .cls-1, .cls-2, .cls-3, .cls-4, .cls-5, .cls-6, .cls-7, .cls-8, .cls-9, .cls-10 {
        stroke: #543c1a;
        stroke-linecap: round;
        stroke-linejoin: round;
      }

      .cls-1, .cls-2, .cls-3, .cls-4, .cls-6, .cls-11 {
        fill: #543c1a;
      }

      .cls-1, .cls-7 {
        stroke-width: 1.57px;
      }

      .cls-2 {
        stroke-width: 1.87px;
      }

      .cls-3 {
        stroke-width: 1.33px;
      }

      .cls-4, .cls-9 {
        stroke-width: 2.25px;
      }

      .cls-5 {
        stroke-width: 2.61px;
      }

      .cls-5, .cls-7, .cls-8, .cls-9, .cls-10 {
        fill: none;
      }

      .cls-6 {
        stroke-width: 2.3px;
      }

      .cls-8 {
        stroke-width: 2.45px;
      }

      .cls-11, .cls-12, .cls-13, .cls-14, .cls-15, .cls-16, .cls-17, .cls-18, .cls-19, .cls-20 {
        stroke-width: 0px;
      }

      .cls-12 {
        fill: #5b3911;
      }

      .cls-13 {
        fill: #b4d1e2;
      }

      .cls-14 {
        fill: #ff7980;
      }

      .cls-15 {
        fill: #fdfcfc;
      }

      .cls-16 {
        fill: #fff;
      }

      .cls-17 {
        fill: #e83541;
      }

      .cls-18 {
        fill: #efd472;
      }

      .cls-19 {
        fill: #efb072;
      }

      .cls-20 {
        fill: #fcfcfc;
      }

      .cls-10 {
        stroke-width: 1.69px;
      }
    </style>
  </defs>
  <g id="OBJECTS">
    <path class="cls-11" d="m9.47,321.31s33,3.39,128.52,3.39,126.96-3.25,126.96-3.25c0,0-157.55-10.69-255.48-.14Z"/>
    <path class="cls-4" d="m218.69,152.04s35.19,13.93,51.6.27c16.42-13.66,15.46-25.44,15.46-25.44,0,0-6.15-5.38-9.89-5.9,0,0-3.96,16.33-15.47,22.11-11.51,5.78-39.56-6.45-39.56-6.45"/>
    <g>
      <path class="cls-16" d="m261.49,136.47s-7.34-.31-5.35,7.1c1.99,7.41,9.9,14.77,14.51,13.04,4.61-1.73,3.3-4.88,3.3-4.88,0,0,10.78,4.39,18.61-8.57,0,0,14.4-5.28,16.9-10.69,3.46-7.5-4.67-9.17-4.67-9.17,0,0,5.38-4.6,2.43-8.96-3.38-5-9.37-1.27-9.37-1.27,0,0,.29-7.15-6.78-6.48-5.27.5-15.44,13.22-15.44,13.22,0,0,.52-9.75-9.35-11.66-9.88-1.92-13.81,6.08-10.6,9.3,3.21,3.21,9.04,6.2,8.3,10.11-.74,3.91-2.49,8.93-2.49,8.93Z"/>
      <g>
        <path class="cls-13" d="m263.54,129.54s.02.05.03.07c0,0-.01-.03-.03-.07h0Z"/>
        <path class="cls-13" d="m309.86,131.49c.06-.16.11-.31.15-.46.03-.09.05-.18.07-.27.04-.13.07-.27.09-.4.02-.09.04-.18.05-.27.02-.12.04-.24.05-.36,0-.09.02-.17.03-.26,0-.12.01-.23.01-.34,0-.08,0-.16,0-.24,0-.12-.01-.23-.02-.34,0-.06,0-.13-.02-.2-.02-.16-.05-.32-.08-.48,0-.04-.02-.08-.03-.13-.03-.12-.07-.25-.11-.37-.02-.06-.04-.12-.07-.17-.03-.09-.07-.18-.11-.27-.03-.06-.06-.12-.08-.17-.04-.08-.08-.17-.13-.24-.03-.05-.06-.11-.1-.16-.05-.08-.1-.16-.15-.23-.03-.05-.06-.09-.1-.14-.06-.08-.12-.16-.19-.23-.03-.04-.06-.07-.09-.1-.08-.09-.17-.19-.26-.27-.01-.01-.03-.03-.04-.04-.22-.21-.44-.4-.68-.58,0,0,0,0,0,0-.11-.08-.23-.16-.35-.24,0,0,0,0,0,0-.46,2.88-1.76,6.25-5.24,7.71-6.65,2.78-13.03,1.71-13.03,1.71,0,0-2.05,11.16-9.55,12.27-7.5,1.11-14.37-11.95-16.32-16.61l-.06.03c-.83,3.4-2.02,6.83-2.02,6.83,0,0-.04,0-.11.02,2.43,5.49,5.73,14.23,3.19,16.44-.54.48-1.15.75-1.77.91,2.7,2.33,5.65,3.59,7.85,2.77,4.61-1.73,3.3-4.88,3.3-4.88,0,0,10.78,4.39,18.61-8.57,0,0,14.4-5.28,16.9-10.69.12-.25.22-.5.31-.74.03-.08.05-.16.08-.24Z"/>
      </g>
      <path class="cls-8" d="m261.49,136.47s-7.19.17-5.2,7.57c1.99,7.41,9.75,14.3,14.36,12.56,4.61-1.73,3.3-4.88,3.3-4.88,0,0,10.78,4.39,18.61-8.57,0,0,14.4-5.28,16.9-10.69,3.46-7.5-4.67-9.17-4.67-9.17,0,0,5.38-4.6,2.43-8.96-3.38-5-9.37-1.27-9.37-1.27,0,0,.29-7.15-6.78-6.48-5.27.5-15.44,13.22-15.44,13.22,0,0,.52-9.75-9.35-11.66-9.88-1.92-13.81,6.08-10.6,9.3,3.21,3.21,9.04,6.2,8.3,10.11-.74,3.91-2.49,8.93-2.49,8.93Z"/>
      <path class="cls-8" d="m289.64,135.74c-.17-.77-1.3-8.27-9.56-11.8"/>
      <path class="cls-8" d="m282.81,124.81s7.47-7.94,15.05-11.75"/>
      <path class="cls-8" d="m304.8,123.29s-8.1,2.06-15.65,9.08"/>
      <path class="cls-8" d="m261.49,136.47s2.75,10.4,12.47,15.25"/>
    </g>
    <path class="cls-17" d="m251.06,117.95c0,9.8-13.41,17.75-15.77,26.8-2.44,9.38,5.31,22.86.68,31.09-4.72,8.38-20.3,8.73-26.93,15.55-6.66,6.85-6.61,22.44-14.84,27.33-8.15,4.85-21.76-2.63-31.08-.07-9.03,2.48-16.88,15.94-26.68,15.94s-17.65-13.46-26.68-15.94c-9.32-2.56-22.94,4.91-31.08.07-8.23-4.89-8.17-20.48-14.84-27.33-6.63-6.82-22.21-7.17-26.93-15.55-4.63-8.23,3.12-21.71.68-31.09-2.35-9.05-15.77-17-15.77-26.8s13.41-17.75,15.77-26.8c2.44-9.38-5.31-22.86-.68-31.09,4.72-8.38,20.3-8.73,26.93-15.55,6.66-6.85,6.61-22.44,14.84-27.33,8.15-4.84,21.76,2.63,31.08.07,9.03-2.48,16.88-15.94,26.68-15.94s17.65,13.46,26.68,15.94c9.32,2.56,22.94-4.91,31.08-.07,8.23,4.89,8.17,20.48,14.84,27.33,6.63,6.82,22.21,7.17,26.93,15.55,4.63,8.23-3.12,21.71-.68,31.09,2.35,9.05,15.77,17,15.77,26.8Z"/>
    <g>
      <path class="cls-13" d="m58.97,47.93c-5.86,3-13.66,4.62-18.61,8.35,5.91-3.03,13.71-4.64,18.61-8.35Z"/>
      <path class="cls-13" d="m157.18,221.71c-4.98,2.51-9.68,7.72-14.67,11.26,5.11-2.6,9.82-7.79,14.67-11.26Z"/>
    </g>
    <path class="cls-5" d="m251.06,117.95c0,9.8-13.41,17.75-15.77,26.8-2.44,9.38,5.31,22.86.68,31.09-4.72,8.38-20.3,8.73-26.93,15.55-6.66,6.85-6.61,22.44-14.84,27.33-8.15,4.85-21.76-2.63-31.08-.07-9.03,2.48-16.88,15.94-26.68,15.94s-17.65-13.46-26.68-15.94c-9.32-2.56-22.94,4.91-31.08.07-8.23-4.89-8.17-20.48-14.84-27.33-6.63-6.82-22.21-7.17-26.93-15.55-4.63-8.23,3.12-21.71.68-31.09-2.35-9.05-15.77-17-15.77-26.8s13.41-17.75,15.77-26.8c2.44-9.38-5.31-22.86-.68-31.09,4.72-8.38,20.3-8.73,26.93-15.55,6.66-6.85,6.61-22.44,14.84-27.33,8.15-4.84,21.76,2.63,31.08.07,9.03-2.48,16.88-15.94,26.68-15.94s17.65,13.46,26.68,15.94c9.32,2.56,22.94-4.91,31.08-.07,8.23,4.89,8.17,20.48,14.84,27.33,6.63,6.82,22.21,7.17,26.93,15.55,4.63,8.23-3.12,21.71-.68,31.09,2.35,9.05,15.77,17,15.77,26.8Z"/>
    <g>
      <path class="cls-13" d="m253.45,262.7s-8,15-22,15H35.45c-17.5,0-22.5-14-22.5-14-6-9-16.5-4-9.5,11.5s28,18,28,18h203.59s21-2.5,28-18-6.68-19-9.59-12.5Z"/>
      <path class="cls-19" d="m9.76,268.87s5.13,14.37,23.1,14.37h201.2c14.37,0,22.58-15.4,22.58-15.4,1.41-3.14,5.26-4,8.19-2.39-1.24-6.9-9.24-7.55-11.39-2.76,0,0-8,15-22,15H35.45c-17.5,0-22.5-14-22.5-14-4.29-6.43-10.87-5.71-11.72.88,2.54-.93,5.95.4,8.54,4.29Z"/>
      <path class="cls-3" d="m220.98,293.2h-28.98l1.69,4.43,4.76,2.75c-1.78,1.96-2.87,4.57-2.87,7.46,0,6.06,4.81,10.97,10.74,10.97s10.74-4.91,10.74-10.97c0-2.82-1.05-5.38-2.75-7.32l5-2.89,1.69-4.43Z"/>
      <polygon class="cls-13" points="199.96 293.2 201.96 298.45 217.12 307.2 232.27 298.45 234.27 293.2 199.96 293.2"/>
      <path class="cls-3" d="m63.32,293.2h-28.98l1.69,4.43,4.76,2.75c-1.78,1.96-2.87,4.57-2.87,7.46,0,6.06,4.81,10.97,10.74,10.97s10.74-4.91,10.74-10.97c0-2.82-1.05-5.38-2.75-7.32l5-2.89,1.69-4.43Z"/>
      <polygon class="cls-13" points="43.62 293.2 45.62 298.45 60.78 307.2 75.94 298.45 77.94 293.2 43.62 293.2"/>
      <path class="cls-9" d="m253.45,262.7s-8,15-22,15H35.45c-17.5,0-22.5-14-22.5-14-6-9-16.5-4-9.5,11.5s28,18,28,18h203.59s21-2.5,28-18-6.68-19-9.59-12.5Z"/>
      <path class="cls-9" d="m9.76,268.87s5.13,14.37,23.1,14.37h201.2c14.37,0,22.58-15.4,22.58-15.4,1.41-3.14,5.26-4,8.19-2.39-1.24-6.9-9.24-7.55-11.39-2.76,0,0-8,15-22,15H35.45c-17.5,0-22.5-14-22.5-14-4.29-6.43-10.87-5.71-11.72.88,2.54-.93,5.95.4,8.54,4.29Z"/>
      <polygon class="cls-10" points="43.62 293.2 45.62 298.45 60.78 307.2 75.94 298.45 77.94 293.2 43.62 293.2"/>
      <path class="cls-2" d="m73.28,310.53c0,7.18-5.69,12.99-12.71,12.99s-12.71-5.82-12.71-12.99,5.69-12.99,12.71-12.99,12.71,5.82,12.71,12.99Z"/>
      <path class="cls-17" d="m71.25,310.53c0,6.03-4.78,10.92-10.68,10.92s-10.68-4.89-10.68-10.92,4.78-10.92,10.68-10.92,10.68,4.89,10.68,10.92Z"/>
      <path class="cls-7" d="m71.25,310.53c0,6.03-4.78,10.92-10.68,10.92s-10.68-4.89-10.68-10.92,4.78-10.92,10.68-10.92,10.68,4.89,10.68,10.92Z"/>
      <path class="cls-18" d="m66.08,310.53c0,3.11-2.47,5.63-5.51,5.63s-5.51-2.52-5.51-5.63,2.47-5.63,5.51-5.63,5.51,2.52,5.51,5.63Z"/>
      <path class="cls-7" d="m66.08,310.53c0,3.11-2.47,5.63-5.51,5.63s-5.51-2.52-5.51-5.63,2.47-5.63,5.51-5.63,5.51,2.52,5.51,5.63Z"/>
      <path class="cls-1" d="m60.57,304.9c-.48,0-.94.07-1.39.18,2.37.63,4.12,2.83,4.12,5.45s-1.75,4.82-4.12,5.45c.44.12.91.19,1.39.19,3.04,0,5.51-2.52,5.51-5.63s-2.47-5.63-5.51-5.63Z"/>
      <polygon class="cls-10" points="199.96 293.2 201.96 298.45 217.12 307.2 232.27 298.45 234.27 293.2 199.96 293.2"/>
      <path class="cls-2" d="m229.61,310.53c0,7.18-5.69,12.99-12.71,12.99s-12.71-5.82-12.71-12.99,5.69-12.99,12.71-12.99,12.71,5.82,12.71,12.99Z"/>
      <path class="cls-17" d="m227.58,310.53c0,6.03-4.78,10.92-10.68,10.92s-10.68-4.89-10.68-10.92,4.78-10.92,10.68-10.92,10.68,4.89,10.68,10.92Z"/>
      <path class="cls-7" d="m227.58,310.53c0,6.03-4.78,10.92-10.68,10.92s-10.68-4.89-10.68-10.92,4.78-10.92,10.68-10.92,10.68,4.89,10.68,10.92Z"/>
      <path class="cls-18" d="m222.41,310.53c0,3.11-2.47,5.63-5.51,5.63s-5.51-2.52-5.51-5.63,2.47-5.63,5.51-5.63,5.51,2.52,5.51,5.63Z"/>
      <path class="cls-7" d="m222.41,310.53c0,3.11-2.47,5.63-5.51,5.63s-5.51-2.52-5.51-5.63,2.47-5.63,5.51-5.63,5.51,2.52,5.51,5.63Z"/>
      <path class="cls-1" d="m216.9,304.9c-.48,0-.94.07-1.39.18,2.37.63,4.12,2.83,4.12,5.45s-1.75,4.82-4.12,5.45c.44.12.91.19,1.39.19,3.04,0,5.51-2.52,5.51-5.63s-2.47-5.63-5.51-5.63Z"/>
    </g>
    <path class="cls-4" d="m189.95,255.95c-9.5-2.5-19.75.25-19.75.25,0,0-4-14.75-7-22.5-1.96-5.07-7.46-15.08-11.03-21.38-3.26.45-6.57.73-9.93.84,3.8,7.3,13.46,26.1,15.46,32.3,2.5,7.75,1.25,31.25,1.25,31.25h46.5s-6-18.25-15.5-20.75Z"/>
    <path class="cls-4" d="m124.37,211.96c-2.54,5.27-8.9,18.12-11.67,20.49-3.5,3-13,5.25-22,1.5-9-3.75-20.25-7.5-26.25-4.25-6,3.25-18,38-18,38,22.75,4.25,32-19.75,35.25-19.5s30.81,3.1,35.9-2c4.67-4.67,14.26-29.14,15.88-33.2-3.08-.2-6.12-.55-9.11-1.04Z"/>
    <path class="cls-16" d="m66.2,257.7s6.75-.25,9.25-10.25c0,0-8.5,2-9.25,10.25Z"/>
    <path class="cls-16" d="m193.74,264.13s-2.58-6.24-12.82-5.11c0,0,4.83,7.28,12.82,5.11Z"/>
    <ellipse class="cls-18" cx="139.45" cy="117.95" rx="93.5" ry="95.25"/>
    <path class="cls-17" d="m120.28,137.37c0,5.43-4.78,9.83-10.67,9.83s-10.67-4.4-10.67-9.83,4.78-9.83,10.67-9.83,10.67,4.4,10.67,9.83Z"/>
    <path class="cls-17" d="m231.62,133.7c0,4.41-3.88,7.99-8.67,7.99s-8.67-3.58-8.67-7.99,3.88-7.99,8.67-7.99,8.67,3.58,8.67,7.99Z"/>
    <path class="cls-16" d="m139.45,22.7c-1.29,0-2.56.03-3.84.09-.19,0-.38.01-.57.02-1.21.06-2.42.14-3.61.24-.23.02-.45.04-.68.06-1.2.11-2.39.25-3.58.4-.18.02-.35.05-.53.08-1.23.17-2.45.36-3.66.58-.02,0-.04,0-.06.01-1.22.22-2.43.47-3.63.74-.18.04-.36.08-.54.12-1.15.26-2.29.55-3.42.86-.21.06-.41.11-.62.17-1.14.32-2.27.65-3.39,1.01-.15.05-.29.1-.44.15-1.15.38-2.29.77-3.42,1.19-.03.01-.06.02-.09.03-1.14.42-2.27.88-3.39,1.34-.16.07-.32.13-.49.2-1.08.46-2.14.93-3.2,1.43-.18.08-.35.17-.53.25-1.06.51-2.12,1.04-3.16,1.58-.11.06-.22.12-.33.18-1.07.57-2.13,1.16-3.18,1.77-.03.01-.05.03-.08.04-1.05.61-2.08,1.25-3.11,1.9-.14.09-.27.17-.41.26-.99.64-1.96,1.29-2.92,1.97-.14.1-.28.2-.42.3-.98.69-1.94,1.4-2.89,2.12-.07.05-.14.11-.21.16-.99.76-1.96,1.54-2.91,2.34-.01,0-.02.02-.03.03-.94.79-1.87,1.6-2.78,2.43-.1.09-.2.18-.3.28-.88.81-1.75,1.63-2.6,2.47-.1.1-.2.2-.3.3-.87.86-1.72,1.74-2.56,2.64-.03.03-.06.06-.09.09-.88.94-1.73,1.91-2.57,2.88,0,0,0,0,0,0-.81.95-1.61,1.92-2.38,2.91-.07.09-.14.18-.21.27-.75.96-1.49,1.94-2.21,2.94-.07.09-.13.19-.2.28-.73,1.02-1.45,2.06-2.14,3.11h0c-1.43,2.17-2.77,4.4-4.02,6.69-.05.09-.09.17-.14.26-.6,1.1-1.18,2.22-1.73,3.34-.04.08-.08.16-.12.25-1.72,3.51-3.23,7.15-4.52,10.89-.03.09-.06.17-.09.25-.41,1.21-.81,2.44-1.17,3.67-.02.08-.04.15-.07.23-.76,2.57-1.41,5.18-1.96,7.84,11.05-40.05,47.17-69.42,90.02-69.42,48.99,0,90.82,38.98,94.99,87.89-.58-52.09-42.21-94.14-93.49-94.14Z"/>
    <path class="cls-19" d="m156.45,196.2c-51.64,0-93.5-42.64-93.5-95.25,0-22.24,7.48-42.7,20.03-58.91-22.5,17.39-37.03,44.92-37.03,75.91,0,52.61,41.86,95.25,93.5,95.25,29.81,0,56.35-14.21,73.47-36.34-15.69,12.13-35.26,19.34-56.47,19.34Z"/>
    <path class="cls-17" d="m76.15,149.76s0,0,0,0c-1.3-2.21-2.51-4.48-3.63-6.8-2.35.5-14.01,3.04-21.69,5.42,0,.02.01.04.02.06,2.37,7.15,5.56,13.92,9.44,20.2,3.61-10.01,15.01-17.27,15.87-18.87Z"/>
    <ellipse class="cls-9" cx="139.45" cy="117.95" rx="93.5" ry="95.25"/>
    <path class="cls-9" d="m116.95,145.2s16.5,39.5,68.5,20"/>
    <path class="cls-9" d="m103.95,145.7s7,4.5,13-.5,2.5-11,2.5-11"/>
    <path class="cls-9" d="m184.95,157.7s-2,10.5,7.5,7.5"/>
    <path class="cls-9" d="m158.62,76.2s-7.17-11.5-23.67-8.83c-14.73,2.38-18,17.33-18,17.33,0,0-5.5,2.5-7.5-3.5"/>
    <path class="cls-9" d="m178.28,74.37c7.33-15.33,23.22-13.62,33.33-2.83,0,0,2.67.5,3.67-2.67"/>
    <path class="cls-6" d="m70.37,134.19s-47.42-5.32-55.42,19.52c-6.84,21.23,10.67,42.67,10.67,42.67,0,0,4.6-9.07,7.83-11.17,0,0-12.33-19-5.5-29.67,7.25-11.31,50.49-7.64,50.49-7.64"/>
    <path class="cls-16" d="m179.6,39.35c-1,4.23-9.43,5.86-18.84,3.65-9.41-2.22-16.23-7.44-15.23-11.67,1-4.23,9.43-5.86,18.84-3.65s16.23,7.44,15.23,11.67Z"/>
    <path class="cls-18" d="m74.28,124.86c-2,0-14,7.33-12.67,18s14.67,9.33,23.33,4.67"/>
    <g>
      <path class="cls-16" d="m46.21,196.94c-2.74-12.31-15.82-19.49-15.82-19.49,0,0,3.65-6.19-2.83-10.18-6.47-3.99-17.05-2.21-19.97,4.3-2.92,6.51,2.81,9.74,2.81,9.74-7.45,7.04-2.65,17.07-2.65,17.07,0,0-4.97,6.25-.73,14.24,4.24,7.99,12.48,3.2,12.48,3.2,5.85,3.93,10.37-.35,10.37-.35,0,0,1.62,6.53,6.77,6.67,5.16.14,12.32-12.89,9.59-25.2Z"/>
      <path class="cls-13" d="m43.96,213.12s-3.6,5.3-7.8,3.51c-4.2-1.79-2.96-7.92-2.96-7.92,0,0-2.53,1.96-6.04,3.68-3.51,1.72-6.14-2.26-6.14-2.26,0,0-7.48,6.42-9.23-2.24-1.75-8.66,3.79-13.49,2.36-19.24-1.43-5.75,5.73-13.01,5.73-13.01,0,0-4.96,1.37-5.79-3.72-.46-2.85.51-4.95,1.46-6.25-3.53.86-6.59,2.86-7.96,5.92-2.92,6.51,2.81,9.74,2.81,9.74-7.45,7.04-2.65,17.07-2.65,17.07,0,0-4.97,6.25-.73,14.24,4.24,7.99,12.48,3.2,12.48,3.2,5.85,3.93,10.37-.35,10.37-.35,0,0,1.62,6.53,6.77,6.67,1.83.05,3.92-1.57,5.73-4.23l1.61-4.8Z"/>
      <g>
        <g>
          <path class="cls-9" d="m10.39,181.31s-5.73-3.22-2.81-9.74c2.92-6.51,13.5-8.29,19.97-4.3,6.47,3.99,2.83,10.18,2.83,10.18,0,0,13.08,7.17,15.82,19.49,2.74,12.31-4.43,25.34-9.59,25.2-5.15-.14-6.77-6.67-6.77-6.67,0,0-4.53,4.27-10.37.35,0,0-8.23,4.79-12.48-3.2-4.24-7.99.73-14.24.73-14.24,0,0-4.79-10.03,2.65-17.07Z"/>
          <path class="cls-9" d="m30.38,177.45s-10.71-4.88-19.99,3.86"/>
          <path class="cls-9" d="m33.48,206.77s.21,5.1-3.63,8.7"/>
          <path class="cls-9" d="m21.98,207.33s1.1,5.54-2.51,8.49"/>
        </g>
        <path class="cls-9" d="m7.74,198.38s2.4-2.26,4.28-2.12"/>
      </g>
    </g>
    <g>
      <path class="cls-12" d="m132.3,104.69c-.28,8.14,1.13,16.84,6.05,24.7,1.13,1.81,2.55,3.43,4.26,4.75,4.33,3.34,9.61,2.67,12.9-1.68,2.98-3.95,4.05-8.54,4.42-13.38.08-1.06-.62-1.29-1.33-1.57-2.29-.92-4.51-1.99-6.63-3.24-2.51-1.48-2.5-3.64-.1-5.29,1.9-1.31,3.91-2.43,6.05-3.28.86-.34,1.12-.8.89-1.75-1.31-5.58-3.48-10.7-7.63-14.83-4.94-4.91-11.89-3.87-15.27,2.23-2.15,3.88-3.13,8.03-3.6,13.34Z"/>
      <path class="cls-12" d="m182.24,98.26c-.46,8.35.85,16.37,4.86,23.79,1.93,3.56,4.41,6.71,8.4,8.18,3.5,1.29,6.55.18,8.96-2.38,3.8-4.05,4.89-9.17,5.15-14.54.04-.79-.47-.99-1.03-1.26-2.27-1.09-4.59-2.09-6.76-3.34-2.54-1.46-2.52-3.55-.16-5.3,1.91-1.42,4.08-2.34,6.18-3.38.55-.27,1.07-.41.87-1.27-1.24-5.47-3.24-10.59-7.21-14.69-2.22-2.29-4.86-4-8.27-3.62-3.94.44-6.35,2.95-8.04,6.28-1.83,3.62-2.69,7.5-2.93,11.54Z"/>
      <path class="cls-12" d="m171.94,127.04c3.21,0,6.33-.35,8.89-2.56,2.29-1.99,1.95-4.56-.88-5.62-3.58-1.35-7.19-1.12-10.61.63-1.68.86-2.97,2.14-2.77,4.23.16,1.64,1.74,2.83,4.06,3.21.43.07.87.07,1.3.11Z"/>
      <path class="cls-15" d="m141.35,89.69c-2.53,1.09-4.03,2.9-4.93,5.2-1.61,4.13-1.56,8.45-1.21,12.78.21,2.66.9,5.15,2.54,7.41.65-1.66,1.12-3.31,1.09-5.07-.03-2.02-.09-4.05-.07-6.07.03-3.79.42-7.53,1.82-11.11.35-.9.78-1.81.75-3.14Z"/>
      <path class="cls-20" d="m187.61,109.57c.83-2.21,1.16-4.44,1.04-6.79-.29-5.95.05-11.84,2.42-17.43.13-.3.25-.62-.03-1.12-1.76.72-3.07,1.91-4.02,3.56-2.29,3.99-2.43,8.35-2.12,12.76.22,3.18.66,6.32,2.72,9.02Z"/>
      <path class="cls-14" d="m176.88,120.21c-2.47-.17-4.75.45-6.8,1.84-.5.33-1.03.72-.92,1.43.11.7.73.94,1.3,1.1,2.99.88,5.81.4,8.44-1.22.65-.4,1.43-.86,1.21-1.75-.22-.9-1.12-1.11-1.93-1.28-.42-.09-.87-.08-1.3-.11Z"/>
    </g>
  </g>
</svg>