<?xml version="1.0" encoding="UTF-8"?>
<svg id="_圖層_2" data-name="圖層 2" xmlns="http://www.w3.org/2000/svg" viewBox="0 0 383.38 305.09">
  <defs>
    <style>
      .cls-1 {
        fill: #543c1a;
        stroke-width: 0px;
      }
    </style>
  </defs>
  <g id="_圖層_1-2" data-name="圖層 1">
    <g>
      <path class="cls-1" d="M383.38,190.8c-1.5,8.06-2.65,16.21-4.58,24.17-4.44,18.28-12.21,35-24.52,49.43-15.63,18.32-36.46,27.27-59.19,32.63-30.2,7.12-61.02,8.25-91.83,8.03-26.79-.19-53.61-1.28-80.35-2.91-18.57-1.13-36.72-5.28-54.11-12.24-29.16-11.68-49.05-32.26-59.11-62.04-15.01-44.45-13.18-87.74,9.69-129.37,2.45-4.46,5.74-8.46,8.3-12.86.94-1.61,1.65-4,1.19-5.7-6.86-25.41-4.01-49.61,8.47-72.76C39.91,2.43,43.71.04,49.08,0c29.55-.21,57.1,6.29,81.4,23.97,1.2.87,3.26,1.19,4.76.91,38.51-7.36,77.03-7.96,115.61-.55,1.59.3,3.77-.23,5.1-1.18C280.16,5.75,307.59-.28,336.83.03c5.05.05,8.72,2.5,11.1,6.98,12.07,22.65,15.46,46.36,8.65,71.27-.82,3.02-.48,5.22,1.41,7.84,13.4,18.61,20.41,39.73,23.88,62.19.49,3.18,1,6.37,1.5,9.55v32.94ZM186.84,281.99c22.79-.96,45.61-1.58,68.37-3,16.93-1.06,33.63-3.97,49.76-9.6,25.26-8.83,41.91-25.75,48.87-51.77,5.51-20.58,6.67-41.56,4.84-62.69-1.88-21.75-8.98-41.66-23-58.57-5.03-6.08-6.14-11.66-3.64-19.17,5.6-16.8,6.02-33.74-1.22-50.39-.88-2.02-1.88-2.7-4.16-2.63-23.05.73-43.75,7.89-61.84,22.28-3.82,3.04-7.93,3.81-12.62,2.76-38.97-8.66-77.95-8.04-116.86.28-5.85,1.25-10.6.39-15.32-3.32-18.04-14.19-38.68-21.32-61.59-21.84-1.15-.03-3.1.88-3.37,1.76-2.04,6.51-4.38,13.02-5.42,19.71-1.79,11.56.54,22.85,4.23,33.82,1.97,5.86,1.25,10.84-2.94,15.58-3.21,3.62-6.16,7.56-8.66,11.7-20.7,34.29-22.9,70.61-11.65,108.38,7.07,23.74,21.53,40.95,44.34,50.96,13.45,5.91,27.58,9.31,42.06,11.39,23.15,3.32,46.47,3.62,69.83,4.37Z"/>
      <path class="cls-1" d="M191.41,268.85c-20.01-1.31-40.06-2.15-60.01-4.1-14.82-1.45-29.02-5.86-42.22-13.05-19.64-10.69-32.05-26.97-37.12-48.67-4.71-20.13-2.84-39.78,6.72-58.18,12.43-23.93,32.66-36.06,59.52-35.22,15.63.49,31.22,3.04,46.78,5.04,17.06,2.19,34.09,1.95,51.12.12,14.99-1.61,29.92-3.86,44.95-5.03,39.88-3.1,70.68,23.83,73.71,63.77,1.04,13.74-.07,27.18-4.87,40.13-8.42,22.71-25.62,36.24-47.61,44.4-21.46,7.96-43.89,9.88-66.57,9.93-8.11.02-16.21,0-24.32,0-.02.29-.05.58-.07.86ZM189.89,244.03c6.99,0,13.97,0,20.96,0,21.15,0,42.16-1.16,62.33-8.31,17.35-6.15,30.56-16.71,35.73-35.24,2.33-8.36,2.78-16.89,1.96-25.57-2.55-27.07-21.76-43.66-48.69-41.29-15.02,1.32-29.95,3.52-44.95,5.14-19.54,2.11-39.02,2.18-58.55-.8-13.53-2.06-27.18-3.86-40.83-4.45-18.63-.8-33.05,9.13-39.71,26.56-2.24,5.85-3.74,12.24-4.16,18.48-1.43,21.2,5.93,43.51,31,54.1,8.86,3.74,18.38,6.33,27.85,8.15,18.82,3.62,37.97,3.29,57.06,3.22Z"/>
      <path class="cls-1" d="M155.9,190.7c-.29,10.62-2.8,21.17-10.61,29.72-12.47,13.64-33.77,12.28-44.97-2.7-11.16-14.93-11.06-41.09.21-55.93,12.41-16.34,36.32-15.69,47.78,1.34,5.47,8.13,7.51,17.26,7.6,27.57ZM115.31,189.67c1.06,4.08,1.6,8.1,3.23,11.61.88,1.89,3.59,3.92,5.57,4.01,1.74.08,4.4-2.06,5.27-3.89,3.67-7.71,3.67-15.75-.07-23.43-2.56-5.26-8.06-5.32-10.6-.06-1.74,3.59-2.29,7.76-3.39,11.76Z"/>
      <path class="cls-1" d="M229.54,190.01c.06-8.86,1.55-17.36,6.3-25.02,12.46-20.1,40.14-19.94,51.53.77,8.69,15.8,8.5,32.39-.11,48.25-5.7,10.51-15.09,16.29-27.33,15.57-12.5-.73-21.26-7.75-26.02-18.96-2.72-6.4-3.67-13.55-5.42-20.36.35-.09.7-.17,1.05-.25ZM270.29,189.41c-1.4-4.09-2.34-8.66-4.48-12.57-2.2-4.04-6.46-3.7-9.07.07-4.07,5.86-4.33,19.08-.5,25.1,3.07,4.82,7.96,4.9,10.45-.27,1.73-3.6,2.31-7.75,3.6-12.32Z"/>
    </g>
  </g>
</svg>