<?xml version="1.0" encoding="UTF-8"?>
<svg id="_圖層_2" data-name="圖層 2" xmlns="http://www.w3.org/2000/svg" viewBox="0 0 66.73 104.14">
  <defs>
    <style>
      .cls-1, .cls-2 {
        fill: #fff;
      }

      .cls-1, .cls-2, .cls-3 {
        stroke: #000;
        stroke-miterlimit: 10;
        stroke-width: 2px;
      }

      .cls-2, .cls-3 {
        stroke-linecap: round;
      }

      .cls-3 {
        fill: none;
      }
    </style>
  </defs>
  <g id="OBJECTS">
    <g>
      <path class="cls-1" d="m62.38,64.08s3.41,17.69-12.1,22.86c0,0,9.68,9.49-4.75,14.5-14.43,5.02-32.67-1.95-36.2-9.62-3.54-7.67,4.9-8.35,4.9-8.35-12.25-6.46-22.67-31.67.81-35.49,2.43-5.06-2.02-33.48,3.02-41.91,3.73-6.25,14.79-8.95,17.91,5.34,1.54,7.04.06,21.59-1.39,27.44,0,0,13.33-9.02,17.21,6.96,0,0,4.43-3.47,10.27.07,3.56,2.16,5.95,6.17.33,18.21Z"/>
      <path class="cls-3" d="m27.72,88.04s12.09,3.24,22.56-1.1"/>
    </g>
    <path class="cls-2" d="m65.43,55.23c-3.2,14.12-11.41,26.27-20.91,20.41-10.98-6.78,4.14-20.84,4.14-20.84"/>
    <path class="cls-2" d="m51.38,44.62c2.91,11.71-5.74,24.81-18.29,21.8-12.55-3.01,1.98-21.71,1.98-21.71"/>
    <path class="cls-2" d="m15.04,47.97c14.42-1.32,24.2,10.98,22.68,19.03-1.52,8.05-11.12,10.72-22.99-4.82"/>
  </g>
</svg>