<?xml version="1.0" encoding="UTF-8" standalone="no"?>
<!-- Created with Inkscape (http://www.inkscape.org/) -->

<svg
   version="1.1"
   id="svg1"
   width="214.27621"
   height="93.988281"
   viewBox="0 0 214.27621 93.988282"
   sodipodi:docname="89.eps"
   xmlns:inkscape="http://www.inkscape.org/namespaces/inkscape"
   xmlns:sodipodi="http://sodipodi.sourceforge.net/DTD/sodipodi-0.dtd"
   xmlns="http://www.w3.org/2000/svg"
   xmlns:svg="http://www.w3.org/2000/svg">
  <defs
     id="defs1" />
  <sodipodi:namedview
     id="namedview1"
     pagecolor="#ffffff"
     bordercolor="#999999"
     borderopacity="1"
     inkscape:showpageshadow="2"
     inkscape:pageopacity="0"
     inkscape:pagecheckerboard="0"
     inkscape:deskcolor="#d1d1d1" />
  <g
     id="g1"
     inkscape:groupmode="layer"
     inkscape:label="1"
     transform="translate(-264.76459,-561.74048)">
    <g
       id="g97"
       transform="matrix(1.6047636,0,0,1.7530968,32.408497,-421.02264)">
      <path
         id="path4-9"
         d="m 178.52226,612.69901 c 0.232,-0.42533 0.55734,-0.75733 0.82,-1.148 -0.46133,0.0933 -1.10133,0.85734 -0.82,1.148 z m -22.62533,-0.82 c 0.504,0.116 0.31333,0.116 0.81733,0 -0.11733,-0.5 0.168,-0.59733 0.16534,-0.984 -0.52934,0.12534 -0.85734,0.45467 -0.98267,0.984 z m -2.952,-0.16266 c 0.21067,-0.33467 0.792,-0.3 0.65467,-0.98534 -0.46134,0.0747 -1.32534,0.776 -0.65467,0.98534 z m 21.316,1.14666 c 1.85733,-10e-4 2.288,-2.30133 2.95067,-2.952 -0.97334,0.99467 -2.09867,1.83734 -2.95067,2.952 z m -23.45067,-3.44266 c -0.792,1.33733 -3.32266,0.93866 -4.26,2.13066 1.30267,0.004 2.168,0.57467 3.444,0.16534 0.0133,-0.844 1.43334,-1.90534 0.816,-2.296 z m -4.75333,-0.32934 c 0.003,0.43467 -0.088,0.96667 0.33067,0.984 0.348,-0.20266 1.03866,-0.91333 0.656,-1.312 -0.152,0.288 -0.51334,0.36267 -0.98667,0.328 z m 13.60933,0.164 c 0.57867,-0.62266 1.39067,-1.01466 1.80667,-1.80266 -0.888,0.20933 -1.86933,1.19066 -1.80667,1.80266 z m -4.91866,1.64 c 1.53333,-1.092 2.95466,-2.292 4.264,-3.608 -2.52667,-0.46666 -3.13467,2.15734 -4.264,3.608 z m -2.296,-0.984 c 0.948,-1.072 2.33866,-1.70533 3.28,-2.78666 -1.90934,0.004 -2.74,1.96 -3.28,2.78666 z m 28.86,0.984 c 1.51733,-1.37733 3.19466,-2.59866 4.592,-4.09866 -2.356,0.33066 -3.72,3.37733 -4.592,4.09866 z m -3.28,0 c 1.65333,-1.296 3.49066,-2.40933 4.756,-4.09866 -2.488,0.46533 -3.164,2.74 -4.756,4.09866 z m -28.03734,-4.09866 c 1.34267,0.11866 2.66667,-1.45467 1.80134,-2.46 -0.61067,0.80933 -1.37067,1.47066 -1.80134,2.46 z m -0.98666,-1.968 c 1.192,-0.77467 2.196,-1.74134 3.11466,-2.78667 -0.0987,-0.44533 0.21067,-1.30133 -0.164,-1.476 -0.99066,1.41333 -2.01466,2.792 -2.95066,4.26267 z m -2.45734,-3.28 c 0.136,-0.40934 0.44934,-0.64267 0.49334,-1.14667 -0.75334,-0.30267 -0.85067,0.888 -0.49334,1.14667 z m 27.71067,7.21466 c 1.95333,-1.324 3.044,-3.512 5.244,-4.59066 -0.0627,-1.032 -0.176,-2.46934 -0.16267,-4.26267 -2.07066,1.42667 -4.58133,4.70667 -5.90266,6.88667 1.83733,-0.95067 3.368,-4.516 5.57466,-3.93467 -1.3,2.14133 -3.89333,3.86667 -4.75333,5.90133 z m 2.13067,-7.70533 c 0.796,-1.008 1.504,-2.10667 2.95066,-2.46 -0.0947,-0.34 0.20534,-1.07733 -0.16266,-1.148 -0.93867,1.08533 -2.56667,2.35067 -2.788,3.608 z m -29.84134,-2.624 c 0.12,-0.54 1.02934,-1.15067 0.656,-1.64 -0.13866,0.48 -0.52933,-0.0973 -0.81866,0 -0.11734,0.39067 -0.436,1.52133 0.16266,1.64 z m 5.572,0.49067 c 0.14534,-0.988 0.44267,-2.68267 -0.32666,-3.11467 -1.848,2.90667 -5.03467,5.34933 -5.408,9.18267 1.792,-2.13734 3.504,-4.36534 5.73466,-6.068 z m 20.98934,1.968 c -0.008,0.17466 0.0787,0.41866 0.16533,0.16533 2.048,-1.77733 4.40267,-3.24933 5.90267,-5.57467 -2.23867,-2.39066 -4.5,4.35467 -6.068,5.40934 z m -0.16267,-3.44267 c 1.284,-0.68267 2.39067,-1.544 3.11467,-2.788 -2.02,-0.68933 -2.66,1.372 -3.11467,2.788 z m -24.432,0.164 c 1.24933,-1.31867 2.25733,-2.88133 3.76933,-3.93467 -0.0867,-0.656 -0.0867,-0.49333 0,-1.14933 -1.51066,1.332 -3.088,3.46533 -3.76933,5.084 z m -1.47333,-2.13067 c 1.97866,-2.284 5.872,-3.528 5.24266,-7.87066 -1.75333,2.616 -3.96666,4.77466 -5.24266,7.87066 z m -0.328,-6.232 c 0.26133,-0.612 0.87466,-0.87066 0.98266,-1.63866 -0.384,0.0507 -0.68,0.32 -0.98266,0 -0.0947,0.35466 -0.39467,1.34133 0,1.63866 z m 0.328,2.13334 c 1.68533,-1.564 3.22,-4.06667 5.408,-4.592 0.052,-0.964 0.68666,-2.992 0,-3.60667 -1.712,2.71333 -4.72,5.00667 -5.408,8.19867 z m -0.16534,-7.872 c -0.0107,0.69866 -0.276,1.148 -0.16266,1.96933 0.91866,-0.82933 1.80133,-2.56933 2.13066,-3.44667 -0.48133,0.67067 -1.15333,1.14667 -1.968,1.47734 z m 28.85867,-1.968 c 0.732,-0.196 1.392,-0.46534 1.47467,-1.312 -0.54267,-0.26267 -1.18,0.784 -1.47467,1.312 z m -27.22,3.60933 c 1.50533,-1.90933 4.89333,-3.03067 4.264,-6.06933 -1.496,1.84 -3.42933,4.11466 -4.264,6.06933 z m 25.908,-4.92133 c 0.86133,-1.11067 4.09733,-1.89067 2.78667,-3.60667 -0.892,1.128 -2.43867,2.48 -2.78667,3.60667 z m -27.38133,-5.41067 c 0,0.43733 0,0.87467 0,1.312 0.672,-0.19867 0.85466,-0.89333 1.14533,-1.47467 -0.38667,0.052 -0.616,0.256 -1.14533,0.16267 z m 25.57733,4.1 c 1.7,-1.568 5.02933,-2.924 4.756,-5.41067 -1.78267,1.608 -3.42133,3.35467 -4.756,5.41067 z m -25.41467,-0.656 c 2.15467,-0.90667 3.18267,-2.93733 5.08,-4.09867 0.24,0.092 0.40267,0.25467 0.49467,0.492 -1.324,2.77467 -4.04267,4.15334 -5.40933,6.88534 1.96266,-1.42267 3.96533,-2.80934 5.736,-4.42667 -0.17734,-2.23733 0.53466,-3.92 -0.16267,-5.73867 -2.22,1.98934 -4.23867,4.176 -5.73867,6.88667 z m 25.57734,-2.624 c 1.87733,-0.62533 2.56533,-3.172 4.92133,-2.788 -0.216,-0.76933 0.67333,-1.96267 -0.16533,-2.29467 -1.828,1.452 -3.38934,3.16534 -4.756,5.08267 z m -0.49067,-5.41067 c 0.704,0.116 0.532,-0.85333 0.164,-0.98533 0.11867,0.50133 -0.16933,0.60133 -0.164,0.98533 z m -22.792,1.64 c 1.06267,-1.34266 2.912,-1.89733 3.77067,-3.444 -1.14,0.50134 -3.37867,2.19334 -3.77067,3.444 z m 23.776,0.32667 c 1.60133,-0.69333 2.368,-2.224 3.772,-3.11467 0.43733,-0.164 0.928,-0.27466 0.81867,-0.98266 -1.63467,0.60533 -3.16934,2.732 -4.59067,4.09733 z m -20.99067,-5.24667 c 0.17467,-0.008 0.132,-0.20933 -0.164,-0.16266 -1.832,1.392 -3.35066,3.096 -5.07866,4.59066 0.152,0.784 -0.44134,1.30267 0.16266,1.64 1.144,-2.57466 3.45467,-3.976 5.08,-6.068 z m 21.64667,2.45867 c 1.224,-1.56 3.38667,-2.18933 4.09867,-4.26133 -1.41067,0.612 -4.00534,2.33466 -4.09867,4.26133 z m -22.30133,-3.60667 c 0.848,-0.272 0.75866,-0.32 1.64,-0.16266 0.0427,-0.81734 0.0693,-0.69734 0.16266,-1.312 -0.884,0.20933 -1.18,1.00533 -1.80266,1.47466 z m 27.71066,-4.26266 c -0.964,7.64266 0.0213,15.59733 -1.148,22.628 -3.08133,0.296 -12.192,0.912 -13.444,0.32666 0.56534,-6.75466 1.048,-15.584 0.164,-22.13466 -3.50933,-0.17867 -6.22133,-0.40267 -9.83733,0 -0.98267,6.87866 -1.04533,14.512 -1.312,21.644 -0.27467,7.296 -0.82267,14.516 -0.33067,21.808 3.32267,0.0773 7.72667,0.912 10.49467,0 -0.0547,-3.66267 -0.32267,-9.784 0.82133,-12.78934 5.148,0.08 10.52667,0.18267 15.412,1.14667 0.672,3.37467 -0.009,8.10267 0.82134,11.31467 1.908,0.688 4.29333,-0.06 6.724,0.164 1.60933,-6.43067 0.40533,-12.63867 0.16266,-18.856 -0.29866,-7.60934 0.18,-16.176 0,-24.26667 -3.292,0.11867 -5.68533,-0.65733 -8.528,-0.98533 z m 9.84,-0.328 c -0.016,8.728 -0.42133,19.69066 0.16534,29.352 0.16,2.67733 0.412,5.47733 0.328,8.19733 -0.088,2.76667 -0.0587,5.992 -0.65734,7.87067 -0.47733,1.5 -2.19066,2.628 -3.44533,3.77066 -1.924,1.75467 -2.83733,3.32134 -6.23067,3.608 -3.50533,0.296 -6.84266,0.47467 -8.35866,-1.312 0.124,-5.56266 0.632,-12.152 0.65466,-18.36533 -1.88666,-0.33467 -3.792,-0.43733 -5.74,-0.32667 -0.58266,2.93734 -1.072,6.34134 -0.82,9.83867 0.0787,1.13333 0.57734,2.3 0.328,3.44133 -0.28266,1.3 -3.17466,3.65734 -4.59066,4.592 -0.624,0.41067 -2.35734,1.372 -3.116,1.476 -1.04934,0.144 -3.13467,-0.42666 -4.1,-0.492 -2.14534,-0.14533 -6.04934,0.65734 -7.54267,-0.32666 -2.24267,-1.48 -0.82133,-9.00667 -0.82133,-12.46267 0,-6.98133 0.28933,-16.05333 0.49333,-24.104 0.0467,-1.828 0.23733,-5.88667 0.82133,-7.21467 0.88,-2.008 3.99867,-3.324 5.736,-5.08266 0.73067,-0.73734 1.256,-1.992 1.97067,-2.29467 2.13867,-0.91067 5.24667,-0.432 7.70533,-0.32933 1.41734,0.0613 2.948,-0.17867 4.42667,0.164 0.51467,8.35466 0.36133,14.40533 -0.328,21.80933 1.22267,0.124 3.23867,-0.36933 4.76,-0.492 0.72267,-2.872 0.48133,-5.91867 0.32667,-9.676 -0.0653,-1.52533 -0.24,-3.51733 0.16266,-4.59067 0.36,-0.972 1.98934,-2.15733 2.95067,-3.11466 1.672,-1.66667 3.34933,-2.23467 4.26133,-4.42934 3.26534,-0.58266 7.26667,0.98 10.66,0.49334"
         style="fill:#312930;fill-opacity:1;fill-rule:evenodd;stroke:none;stroke-width:0.133333" />
      <path
         id="path16-6"
         d="m 227.8223,613.45412 c 0.2792,0.016 0.55266,0.032 0.83133,0.0493 -0.0339,-0.46666 0.6948,-0.97333 0.2484,-1.32 -0.3448,0.44 -0.7344,0.83067 -1.07973,1.27067 z m 2.34013,-0.024 c 0.30213,-0.076 0.69533,-0.0453 0.8516,-0.284 -0.56933,-0.19733 0.6396,-1.33067 0.0599,-0.99733 -0.20053,0.54666 -0.71453,0.73333 -0.91147,1.28133 z m -1.31613,-3.088 c -0.274,0.564 -1.2672,2.06267 -1.1188,1.936 0.69013,-0.58 1.51666,-1.01067 1.95053,-1.884 -0.27867,-0.0187 -0.55467,-0.0347 -0.83173,-0.052 z m 1.38546,1.92267 c 0.41507,-0.89467 1.22494,-1.344 1.79627,-2.06267 -1.152,-0.0547 -1.82293,1.376 -1.79627,2.06267 z m -4.44013,-1.10534 c 0.0271,-0.51466 0.68747,-1.22533 0.42387,-1.47866 -0.1208,0.408 -0.8968,0.99066 -0.42387,1.47866 z m 1.01667,-0.272 c 0.73533,-0.652 1.98853,-1.66533 1.36973,-3.25866 -0.36093,1.076 -1.3864,2.34666 -1.36973,3.25866 z m -0.15787,-2.85066 c 0.4756,-0.41067 0.71093,-1.092 1.56933,-1.07334 -0.0704,-0.62133 0.3124,-1.644 -0.0443,-2.00666 -0.3412,1.104 -1.4756,2.24666 -1.52506,3.08 z m -0.37867,-2.028 c 0.73187,-0.656 0.9912,-1.84267 2.13027,-2.04 -0.21467,-0.54667 0.0937,-1.55334 -0.21253,-2.01734 -0.4812,1.41467 -1.83694,2.78267 -1.91774,4.05734 z m -0.34733,-2.52667 c 0.2172,0.28933 0.99587,-0.8 1.424,-1.416 0.5056,-0.732 1.23427,-1.75067 0.98333,-2.44267 -0.86106,1.22 -1.55053,2.632 -2.40733,3.85867 z m 0.33013,-2.652 c 0.54067,-1.23867 2.92507,-2.24667 1.91667,-4.05733 -0.55573,1.33066 -1.9672,2.63466 -1.91667,4.05733 z m -0.35773,-2.35867 c 0.638,-1.28266 2.81867,-2.36 2.24053,-3.87333 -0.57226,1.37067 -2.05986,2.65067 -2.24053,3.87333 z m -0.66933,-2.71333 c -0.0181,-0.43467 0.8448,-1.372 0.2448,-1.324 -0.62387,-0.0213 -0.4192,3.05467 -0.2448,1.324 z m 1.00786,-0.10533 c 0.61614,-1.14534 2.40734,-1.904 1.8968,-3.72667 -0.60413,1.15467 -1.83853,2.54533 -1.8968,3.72667 z m -0.33693,-2.69334 c 0.65987,-1.10933 3.028,-1.932 2.06507,-3.71466 -0.48174,1.35733 -1.99374,2.49066 -2.06507,3.71466 z m -0.336,-2.69333 c 0.74587,-0.87733 1.7328,-1.48 2.4812,-2.35467 0.004,-1.084 0.1604,-1.408 -0.21093,-2.01733 -0.7276,1.372 -2.4124,2.60933 -2.27027,4.372 z m 0.20267,-3.32667 c 0.9208,-1.39333 2.81133,-2.636 2.3124,-5.03866 -0.54534,1.81733 -2.51667,2.96666 -2.3124,5.03866 z m -0.34067,-5.368 c -0.009,-0.88666 1.41667,-1.89599 0.80827,-2.28799 -0.17027,0.74666 -1.55827,1.64666 -0.80827,2.28799 z m 0.2328,1.68534 c 0.9036,-0.876 1.38547,-2.228 2.5104,-2.85333 -0.32973,-0.44267 0.23693,-1.67734 -0.3844,-1.86 -0.3448,1.868 -2.31093,2.84266 -2.126,4.71333 z m 1.17453,-5.60533 c 0.35774,-0.368 1.31867,-0.0533 1.2276,-0.92667 -0.61826,0.0693 -0.86826,0.56133 -1.2276,0.92667 z m 2.57387,-2.052 c -0.2744,11.89866 0.47813,21.77999 0.20733,33.75466 1.8464,0.33733 3.39587,0 4.6448,0 0.62347,-3.604 0.42814,-6.99733 0.138,-10.88133 -0.59013,-7.93467 0.56774,-15.67467 -0.624,-22.73467 -1.60253,-0.54266 -2.89053,-0.32933 -4.36613,-0.13866 z m 5.28547,-0.81067 c 0.93066,7.65466 0.1692,18.244 0.8812,26.61066 0.23333,2.73867 1.06933,6.38 0.2932,8.87067 -0.43747,1.40667 -2.19947,2.34267 -2.89574,3.66267 -2.5104,0.0773 -5.15466,0.62666 -7.5052,-0.12134 -0.962,-3.27466 -0.67093,-7.64133 -0.92613,-12.25066 -0.19373,-3.52134 -0.22333,-7.40267 -0.17907,-10.69867 0.014,-1.23733 0.42187,-2.736 0.40574,-3.984 -0.0245,-2.47867 -0.9396,-5.68533 -0.35427,-7.872 0.22293,-0.82933 2.67867,-3.65866 3.59693,-4.12266 1.8448,-0.93734 4.6156,-0.58667 6.68334,-0.0947"
         style="fill:#312930;fill-opacity:1;fill-rule:evenodd;stroke:none;stroke-width:0.133333" />
      <path
         id="path16-6-0"
         d="m 244.26382,613.45412 c 0.2792,0.016 0.55266,0.032 0.83133,0.0493 -0.0339,-0.46666 0.6948,-0.97333 0.2484,-1.32 -0.3448,0.44 -0.7344,0.83067 -1.07973,1.27067 z m 2.34013,-0.024 c 0.30213,-0.076 0.69533,-0.0453 0.8516,-0.284 -0.56933,-0.19733 0.6396,-1.33067 0.0599,-0.99733 -0.20053,0.54666 -0.71453,0.73333 -0.91147,1.28133 z m -1.31613,-3.088 c -0.274,0.564 -1.2672,2.06267 -1.1188,1.936 0.69013,-0.58 1.51666,-1.01067 1.95053,-1.884 -0.27867,-0.0187 -0.55467,-0.0347 -0.83173,-0.052 z m 1.38546,1.92267 c 0.41507,-0.89467 1.22494,-1.344 1.79627,-2.06267 -1.152,-0.0547 -1.82293,1.376 -1.79627,2.06267 z m -4.44013,-1.10534 c 0.0271,-0.51466 0.68747,-1.22533 0.42387,-1.47866 -0.1208,0.408 -0.8968,0.99066 -0.42387,1.47866 z m 1.01667,-0.272 c 0.73533,-0.652 1.98853,-1.66533 1.36973,-3.25866 -0.36093,1.076 -1.3864,2.34666 -1.36973,3.25866 z m -0.15787,-2.85066 c 0.4756,-0.41067 0.71093,-1.092 1.56933,-1.07334 -0.0704,-0.62133 0.3124,-1.644 -0.0443,-2.00666 -0.3412,1.104 -1.4756,2.24666 -1.52506,3.08 z m -0.37867,-2.028 c 0.73187,-0.656 0.9912,-1.84267 2.13027,-2.04 -0.21467,-0.54667 0.0937,-1.55334 -0.21253,-2.01734 -0.4812,1.41467 -1.83694,2.78267 -1.91774,4.05734 z m -0.34733,-2.52667 c 0.2172,0.28933 0.99587,-0.8 1.424,-1.416 0.5056,-0.732 1.23427,-1.75067 0.98333,-2.44267 -0.86106,1.22 -1.55053,2.632 -2.40733,3.85867 z m 0.33013,-2.652 c 0.54067,-1.23867 2.92507,-2.24667 1.91667,-4.05733 -0.55573,1.33066 -1.9672,2.63466 -1.91667,4.05733 z m -0.35773,-2.35867 c 0.638,-1.28266 2.81867,-2.36 2.24053,-3.87333 -0.57226,1.37067 -2.05986,2.65067 -2.24053,3.87333 z m -0.66933,-2.71333 c -0.0181,-0.43467 0.8448,-1.372 0.2448,-1.324 -0.62387,-0.0213 -0.4192,3.05467 -0.2448,1.324 z m 1.00786,-0.10533 c 0.61614,-1.14534 2.40734,-1.904 1.8968,-3.72667 -0.60413,1.15467 -1.83853,2.54533 -1.8968,3.72667 z m -0.33693,-2.69334 c 0.65987,-1.10933 3.028,-1.932 2.06507,-3.71466 -0.48174,1.35733 -1.99374,2.49066 -2.06507,3.71466 z m -0.336,-2.69333 c 0.74587,-0.87733 1.7328,-1.48 2.4812,-2.35467 0.004,-1.084 0.1604,-1.408 -0.21093,-2.01733 -0.7276,1.372 -2.4124,2.60933 -2.27027,4.372 z m 0.20267,-3.32667 c 0.9208,-1.39333 2.81133,-2.636 2.3124,-5.03866 -0.54534,1.81733 -2.51667,2.96666 -2.3124,5.03866 z m -0.34067,-5.368 c -0.009,-0.88666 1.41667,-1.89599 0.80827,-2.28799 -0.17027,0.74666 -1.55827,1.64666 -0.80827,2.28799 z m 0.2328,1.68534 c 0.9036,-0.876 1.38547,-2.228 2.5104,-2.85333 -0.32973,-0.44267 0.23693,-1.67734 -0.3844,-1.86 -0.3448,1.868 -2.31093,2.84266 -2.126,4.71333 z m 1.17453,-5.60533 c 0.35774,-0.368 1.31867,-0.0533 1.2276,-0.92667 -0.61826,0.0693 -0.86826,0.56133 -1.2276,0.92667 z m 2.57387,-2.052 c -0.2744,11.89866 0.47813,21.77999 0.20733,33.75466 1.8464,0.33733 3.39587,0 4.6448,0 0.62347,-3.604 0.42814,-6.99733 0.138,-10.88133 -0.59013,-7.93467 0.56774,-15.67467 -0.624,-22.73467 -1.60253,-0.54266 -2.89053,-0.32933 -4.36613,-0.13866 z m 5.28547,-0.81067 c 0.93066,7.65466 0.1692,18.244 0.8812,26.61066 0.23333,2.73867 1.06933,6.38 0.2932,8.87067 -0.43747,1.40667 -2.19947,2.34267 -2.89574,3.66267 -2.5104,0.0773 -5.15466,0.62666 -7.5052,-0.12134 -0.962,-3.27466 -0.67093,-7.64133 -0.92613,-12.25066 -0.19373,-3.52134 -0.22333,-7.40267 -0.17907,-10.69867 0.014,-1.23733 0.42187,-2.736 0.40574,-3.984 -0.0245,-2.47867 -0.9396,-5.68533 -0.35427,-7.872 0.22293,-0.82933 2.67867,-3.65866 3.59693,-4.12266 1.8448,-0.93734 4.6156,-0.58667 6.68334,-0.0947"
         style="fill:#312930;fill-opacity:1;fill-rule:evenodd;stroke:none;stroke-width:0.133333" />
      <path
         id="path81-7"
         d="m 214.85122,605.90424 c 1.02866,0.28533 2.2256,0.38533 3.12346,0.81467 -0.5896,4.80533 -8.04533,6.82533 -12.65306,4.89866 -2.29227,-0.956 -4.70214,-3.848 -5.748,-6.356 -2.06867,-4.96666 0.4808,-11.412 3.81253,-13.816 1.43653,-1.036 4.5292,-2.11333 6.9104,-2.32266 1.56613,-0.13734 3.30467,0.56533 4.3672,1.328 2.57133,1.84933 4.08493,5.276 4.19893,9.72666 -4.83946,-0.236 -10.28746,0.31334 -15.46293,0.13867 -1.18547,2.224 0.53747,6.016 2.67387,7.38533 1.37666,0.88134 4.65626,1.27734 6.39226,0.68 1.2016,-0.41333 1.35774,-1.69733 2.38534,-2.47733 z m -10.04427,6.608 c 0.2152,-0.23067 0.29693,-0.0253 0.59387,-0.024 0.0791,0.248 -0.69014,0.46 -0.59387,0.024 z m -1.2004,-0.30267 c 0.0588,-0.0987 0.11613,-0.19866 0.10147,-0.36133 0.18853,10e-4 0.45053,-0.076 0.4808,0.0987 0.13906,0.39333 -0.362,0.19866 -0.58227,0.26266 z m -1.21107,-0.54133 c 0.10534,-0.32133 0.16667,-0.684 0.56254,-0.73733 0.01,0.11466 0.14853,0.0853 0.2412,0.108 0.0801,0.528 -0.32974,0.608 -0.80374,0.62933 z m -0.87653,-1.03067 c 0.1448,-0.21066 0.2256,-0.47733 0.57293,-0.50133 0.10214,0.43467 -0.16506,0.53333 -0.57293,0.50133 z m -0.5296,1.44667 c 0.0244,-0.316 0.29,-0.41333 0.57027,-0.5 -0.005,0.35067 -0.236,0.792 -0.57027,0.5 z m -1.14427,-1.732 c 0.0713,-0.65333 0.6948,-0.80267 0.89,-1.344 0.29854,-0.0333 0.3792,0.16533 0.48854,0.33467 -0.21614,0.55866 -0.67814,0.89333 -1.37854,1.00933 z m 0.1328,-2.38 c 0.19374,-0.0427 0.21094,0.10267 0.36294,0.10267 -0.10414,0.70266 -0.67867,0.97333 -1.37867,1.128 0.27973,-0.46534 0.60533,-0.888 1.01573,-1.23067 z m -2.07453,1.396 c -0.0479,-0.38533 0.11453,-0.57733 0.44787,-0.612 -0.0547,0.29067 -0.0755,0.612 -0.44787,0.612 z m 1.05627,-3.01467 c 0.27346,0.0747 0.3692,0.34134 0.4984,0.572 -0.32547,0.76267 -1.19427,1.03067 -1.9572,1.39067 0.24626,-0.87333 0.87906,-1.39333 1.4588,-1.96267 z m -2.1292,0.21067 c 0.34893,-0.604 1.15786,-1.82933 1.83853,-1.38533 -0.32187,0.72666 -1.0068,1.124 -1.83853,1.38533 z m 1.0484,-3.252 c 0.8016,0.68933 -0.67854,1.18133 -1.12494,1.47467 -0.2656,-0.62667 0.80574,-1.00267 1.12494,-1.47467 z m -2.314,1.40667 c 0.002,-0.30134 0.15106,-0.46534 0.45306,-0.49467 -0.004,0.30267 -0.1552,0.46667 -0.45306,0.49467 z m 1.04946,-3.132 c -0.42346,0.636 -0.92026,1.204 -1.59213,1.612 0.014,-1.012 0.95413,-1.17467 1.59213,-1.612 z m 1.31507,0.18 c -0.0823,0.41733 -0.56347,0.46933 -0.9228,0.63333 0.18853,-0.29733 0.6052,-0.81333 0.9228,-0.63333 z m 0.15627,-1.90667 c -0.3776,1.136 -1.97294,1.152 -2.76814,1.90133 0.0197,-1.00666 1.72547,-1.452 2.76814,-1.90133 z m -1.3968,-2.07733 c 0.0296,0.336 -0.598,1.04266 -1.2568,1.124 -0.0651,-0.81734 0.81773,-0.768 1.2568,-1.124 z m 0.8604,-2.05467 c -0.20054,0.30933 -0.56254,0.47067 -0.92187,0.63333 0.0563,-0.44133 0.33587,-0.67733 0.92187,-0.63333 z m -1.388,3.62133 c 0.5312,-0.76533 1.2552,-1.35333 2.30466,-1.644 0.13014,1.372 -1.15266,1.448 -2.30466,1.644 z m 0.61973,-2.164 c 0.44693,-0.768 1.2516,-1.20666 2.31413,-1.40666 0,1.17733 -1.2724,1.18666 -2.31413,1.40666 z m 3.29587,-3.46666 c -0.0339,1.108 -1.09014,1.27866 -2.198,1.4 0.56626,-0.61734 1.26146,-1.12 2.198,-1.4 z m 1.68333,-2.21067 c 0.49213,0.26267 -0.82973,0.728 -0.89747,1.22667 -0.6276,0.10533 -0.92026,0.52 -1.514,0.66 0.3516,-1.044 1.638,-1.22934 2.41147,-1.88667 z m 11.24067,15.54533 c -0.51934,0.344 -1.11827,-0.14533 -1.5548,-0.29066 0.36613,-0.22934 1.48853,-0.22134 1.5548,0.29066 z m 0.78373,-1.104 c 0,0.30267 -0.388,0.252 -0.7004,0.268 -0.0177,-0.34933 0.5328,-0.42533 0.7004,-0.268 z m -2.72653,0.11734 c -0.82294,0.60933 -0.7692,1.26533 -1.71974,1.38133 -0.848,0.104 -1.94693,-0.40267 -2.40786,-0.72667 -1.364,-0.96266 -2.69374,-3.196 -2.488,-5.35466 5.07133,-0.0853 10.6364,-0.288 15.30466,-0.30667 -0.30306,-6.97067 -2.73533,-11.828 -8.1468,-12.708 -0.70733,-0.116 -1.49906,-0.112 -2.2584,-0.0213 -2.7536,0.32266 -5.2588,1.15333 -7.612,2.46666 -0.95573,0.53334 -1.87866,1.23467 -2.764,2.01867 -0.83853,0.74533 -1.8932,1.46933 -2.51466,2.24533 -2.05667,2.58134 -2.93067,7.02134 -1.776,11.12134 1.29066,4.568 7.18386,8.248 12.57866,8.00533 5.30574,-0.23867 10.88227,-3.06267 11.64947,-7.984 -1.6312,-0.132 -3.2188,-1.428 -4.69013,-1.34133 -0.46094,0.0267 -2.81867,0.95466 -3.1552,1.204 z m 2.73493,-10.92267 c -0.21773,0.104 -0.426,0.21733 -0.69947,0.26667 -0.25,-0.24 0.1432,-0.53467 0.19947,-0.84 0.21093,-0.024 0.25467,0.13466 0.4792,0.0987 z m -3.98333,-1.49067 c 0.3412,-10e-4 0.7724,-0.0987 0.95306,0.0773 0.0105,0.42666 -1.10146,0.64533 -0.95306,-0.0773 z m -4.59894,3.52267 c 0.35574,-1.38533 1.74374,-2.79867 3.5432,-3.24 0.93067,0.72 1.79374,1.51867 2.14267,2.876 -1.89787,0.19867 -3.7468,0.168 -5.68587,0.364 z m 3.53907,-4.65333 c -3.488,0.46533 -5.14587,3.81466 -5.17613,5.75733 3.7568,0.0947 9.26466,-0.44933 12.36093,-0.36933 -0.44947,-3.34934 -2.0728,-6.07067 -7.1848,-5.388"
         style="fill:#312930;fill-opacity:1;fill-rule:evenodd;stroke:none;stroke-width:0.133333" />
      <path
         id="path24-8"
         d="m 273.062,602.09189 c -0.46934,0.172 -0.79334,0.48933 -1.28134,0.64 0.45734,-0.312 0.58,-0.95733 1.15334,-1.152 -0.0173,0.22933 0.15733,0.27067 0.128,0.512 z m 0.50933,1.152 c -0.504,0.13333 -0.644,0.63467 -1.27733,0.64 0.204,-0.47733 0.79733,-0.568 0.89466,-1.152 0.33734,-0.0387 0.332,0.268 0.38267,0.512 z m 0.25867,0.896 c -0.12,0.52267 -0.764,0.516 -1.02534,0.896 -0.0893,-0.176 0.68934,-1.132 1.02534,-0.896 z m -2.17734,3.456 c 0.003,-0.852 1.504,-1.31067 1.91867,-2.176 0.15067,-0.02 0.22933,0.0293 0.25867,0.128 -0.20534,1.20133 -1.61067,1.20533 -2.17734,2.048 z m -2.304,1.664 c -4.31466,-0.856 -4.884,-6.65733 -1.40533,-8.832 1.132,-0.70933 2.76,2.76533 2.94267,4.09467 0.28533,2.06133 -0.50134,3.92266 -1.53734,4.73733 z m 1.40934,-9.088 c 0.032,0.41733 -0.39867,0.36933 -0.51334,0.64 -0.29333,-0.12933 -0.59466,-0.25733 -0.63866,-0.64 z m 1.40666,-0.256 c -3.44666,-1.47733 -6.53466,0.796 -7.168,3.20133 -1.412,5.368 5.11734,8.68667 8.06534,6.14267 2.37333,-2.04667 1.57066,-7.92667 -0.89734,-9.344 z m 2.68934,10.752 c -1.26134,1.16667 -2.26934,2.34 -4.096,2.56 -5.12267,0.61867 -9.92667,-3.72533 -9.73067,-8.70533 0.12933,-3.208 2.38667,-6.988 4.99467,-8.06267 0.94133,-0.388 1.74533,-0.352 3.2,-0.38267 3.88533,-0.088 6.06,1.36934 7.55466,4.47867 1.69734,3.544 0.38667,7.97467 -1.92266,10.112 z m -11.52134,1.536 c -0.0147,-0.22933 0.15734,-0.26933 0.128,-0.51333 h 0.38534 c -0.0147,0.328 -0.18667,0.49866 -0.51334,0.51333 z m -2.30533,-1.792 c 0.16533,-0.392 0.43867,-0.67333 0.644,-1.02267 0.224,0.116 0.44533,0.23734 0.38267,0.63867 -0.36,0.10933 -0.52667,0.41333 -1.02667,0.384 z m 0.26,1.408 c -0.168,-0.044 -0.20533,-0.22533 -0.38533,-0.256 -0.0533,-0.352 0.47866,-0.12 0.512,-0.38267 0.348,0.116 -0.12934,0.448 -0.12667,0.63867 z m -0.38533,-3.968 c 0.34533,0.0387 0.22933,0.53867 0.512,0.64 -0.432,0.42267 -0.928,0.78 -1.536,1.02533 -0.124,-0.032 0.73733,-1.20133 1.024,-1.66533 z m -1.92134,0.384 c 0.40267,-0.79333 0.92,-1.46933 1.40934,-2.17467 0.224,0.244 0.272,0.66667 0.384,1.02267 -0.69734,0.284 -1.11067,0.852 -1.79334,1.152 z m -0.63866,-0.128 c -0.19067,-0.108 -0.18267,-0.41333 -0.25467,-0.64133 0.076,-0.176 0.488,-0.0173 0.512,-0.256 0.29467,0.184 -0.15067,0.696 -0.25733,0.89733 z m -0.384,-2.56 c -0.052,-0.43733 0.0387,-0.728 0.512,-0.63867 -0.08,0.30267 -0.172,0.59467 -0.512,0.63867 z m 0.12933,-3.19867 h 0.64133 c -0.116,0.396 -0.43066,0.596 -0.51333,1.02267 -0.29067,-0.0947 -0.052,-0.71867 -0.128,-1.02267 z m 2.176,1.40534 c 0.67067,1.07333 -1.04667,1.93066 -1.664,2.56133 -0.003,-0.89867 1.224,-1.67333 1.664,-2.56133 z m 0.764,-2.56 c 0.35333,0.12 -0.176,0.40266 0,0.77066 -0.69733,0.23867 -1.268,0.60667 -1.66133,1.152 -0.156,-0.84 1.148,-1.32666 1.66133,-1.92266 z m 1.02667,-2.94134 c -0.316,0.29334 -1.97734,1.428 -2.688,2.17467 0.26933,-0.83867 1.69466,-1.63333 2.688,-2.17467 z m -1.28,-0.25733 c 0.32266,0.24667 -0.52667,0.40533 -0.64134,0.64 -0.46533,-0.39067 0.58267,-0.34933 0.64134,-0.64 z m 13.31066,-1.792 c -2.17333,-1.224 -5.20933,-1.18667 -7.42266,-1.02267 -3.568,0.264 -7.524,2.52534 -8.704,5.11867 -0.95734,2.10267 -1.36934,7.01867 0.12933,9.6 0.93467,1.61867 3.544,3.29733 5.24533,3.712 1.61734,0.39333 4.892,0.696 6.76267,0.55067 3.39467,-0.25867 6.33867,-3.012 7.44533,-5.92667 1.93734,-5.1 0.0467,-10.06 -3.456,-12.032"
         style="fill:#312930;fill-opacity:1;fill-rule:evenodd;stroke:none;stroke-width:0.133333" />
    </g>
  </g>
</svg>
