
<svg xmlns="http://www.w3.org/2000/svg" viewBox="0 0 547.45 36.61">
  <defs>
    <style>
      .cls-1 {
        fill: none;
        stroke: #e94b4b;
        stroke-miterlimit: 10;
      }
    </style>
  </defs>
  <path id="underline" class="cls-1" d="m.23,34.06C19.06,24.24,37.88,14.41,56.71,4.59c5.21-2.72,11.28-5.5,16.73-3.3,7.63,3.08,8.69,13.32,13.46,20.03,8.37,11.78,26.61,10.45,39.57,4.04,16.61-8.02,36.08-27.1,55.22-17.24,4.89,3,8.03,9.24,6.19,14.68-1.22,3.62-4.37,7.63-2.07,10.68,1.23,1.63,3.51,1.99,5.54,2.16,21.14,1.79,42.3-1.93,63.25-5.24,57.46-9.09,115.38-15.25,173.47-18.45,39.88-2.2,80.34-2.96,119.26,6"/>
</svg>