<?xml version="1.0" encoding="UTF-8"?>
<svg id="_喇뒨쏛_2" data-name="喇뒨쏛 2" xmlns="http://www.w3.org/2000/svg" viewBox="0 0 150.81 152.05">
  <defs>
    <style>
      .cls-1 {
        fill: #543c1a;
        stroke-width: 0px;
      }
    </style>
  </defs>
  <g id="_喇뒨쏛_1-2" data-name="喇뒨쏛 1">
    <path class="cls-1" d="M100.36,152.05h-17.53c-.48-.07-.97-.19-1.45-.21-13.38-.37-26.66-1.62-39.79-4.26-7.71-1.55-15.4-3.16-22.66-6.32-8.61-3.75-14.52-9.91-16.99-19.14-1.33-4.96-1.79-10.02-1.9-15.12-.35-17.13,1.83-34.05,4.22-50.96,1.4-9.94,2.65-19.9,3.95-29.85.05-.37.03-.82-.13-1.15-2.47-5.29-.37-10.18,3.88-13.68,4.23-3.5,9.18-5.59,14.35-7.21C35.03,1.42,44.09.83,53.12.33c19.81-1.09,39.45.53,58.9,4.42,7.68,1.54,15.2,3.62,22.03,7.64,5.79,3.41,10.31,7.95,12.82,14.31,1.77,4.5,2.12,9.25,2.16,14,.06,6.68.07,13.37-.29,20.04-.69,12.66.86,25.2,1.7,37.78.68,10.16.68,20.28-1.95,30.22-1.48,5.55-4.09,10.5-8.51,14.32-4.15,3.59-9.1,5.52-14.39,6.64-6.76,1.43-13.62,1.79-20.5,2.06-1.58.06-3.15.19-4.72.29ZM68.85,63.58c-.61,4.43-.52,9.08-.39,13.79.34,11.52.22,23.06.29,34.58,0,.48,0,.97,0,1.79,6.02.43,11.95.85,17.92,1.27.04-.61.07-.81.06-1-.04-.59-.08-1.19-.15-1.77-.78-6.34-1.41-12.69-.76-19.09.51-5.01,1.66-9.84,3.91-14.37,1.38-2.78,4.3-3.21,6.43-.94.55.59.96,1.38,1.25,2.15,3.37,8.99,4.42,18.32,3.95,27.85-.11,2.21-.27,4.41-.41,6.59,5.77.28,11.42.56,17.19.84-.08-.88-.18-1.84-.26-2.81-.22-2.81-.45-5.61-.64-8.42-.17-2.4-.53-4.82-.39-7.21.3-4.98.56-10,1.44-14.89.88-4.9-.73-8.86-3.21-12.78-1.99-3.15-4.07-6.2-7.09-8.49-4.32-3.27-8.31-2.97-11.81.96-.75.85-1.46,1.76-2.03,2.73-1.14,1.96-2.15,4.01-3.25,5.99-1.35,2.43-4.28,2.91-6.04.8-.7-.84-.97-2.25-.97-3.39,0-2.48.28-4.95.43-7.11-5.17.98-10.2,1.93-15.46,2.93ZM59.95,112.61c0-.88,0-1.46,0-2.05.04-5.94-.11-11.88.15-17.8.43-9.63-.36-19.17-1.66-28.69-.11-.78-.42-1.08-1.23-1.11-3.51-.16-7.01-.42-10.52-.59-2.86-.14-3.47.44-3.7,3.38-.02.3-.01.59-.02.89-.14,4.3-.25,8.6-.42,12.9-.35,8.9-.8,17.79-1.04,26.69-.06,2.27.55,4.56.79,6.38h17.64ZM55.26,51.04c1.26-1.56,3.01-3.45,4.46-5.55,2.16-3.14,3.34-6.68,1.84-10.38-3.4-8.39-12.77-10.56-19.06-3.9-3.89,4.13-4.36,10.66-.92,14.95,2.42,3.03,5.81,4.09,9.56,4.31,1.22.07,2.44.33,4.11.57ZM31.45,109.58c-.28-4.01-.55-7.73-.81-11.46-.12,0-.25,0-.37.01-.2,2.24-.17,4.54-.66,6.72-.45,2.01.45,3.22,1.84,4.73ZM132.99,138.38c-.08-.18-.17-.35-.25-.53-1.5.72-3.01,1.43-4.51,2.15.08.16.15.32.23.48,1.51-.7,3.02-1.4,4.53-2.11Z"/>
  </g>
</svg>