<?xml version="1.0" encoding="utf-8"?>
<!-- Generator: Adobe Illustrator 28.0.0, SVG Export Plug-In . SVG Version: 6.00 Build 0)  -->
<svg version="1.1"
	 id="svg1" xmlns:inkscape="http://www.inkscape.org/namespaces/inkscape" xmlns:svg="http://www.w3.org/2000/svg" xmlns:sodipodi="http://sodipodi.sourceforge.net/DTD/sodipodi-0.dtd" sodipodi:docname="89.eps"
	 xmlns="http://www.w3.org/2000/svg" xmlns:xlink="http://www.w3.org/1999/xlink" x="0px" y="0px" viewBox="0 0 105.3 125.1"
	 style="enable-background:new 0 0 105.3 125.1;" xml:space="preserve">
<style type="text/css">
	.st0{fill-rule:evenodd;clip-rule:evenodd;fill:#FFFFFF;}
</style>
<sodipodi:namedview  bordercolor="#999999" borderopacity="1" id="namedview1" inkscape:deskcolor="#d1d1d1" inkscape:pagecheckerboard="0" inkscape:pageopacity="0" inkscape:showpageshadow="2" pagecolor="#ffffff">
	</sodipodi:namedview>
<g id="g1" transform="translate(-672,-229)" inkscape:groupmode="layer" inkscape:label="1">
	<path id="path88-4" inkscape:export-filename="path88-4.svg" inkscape:export-xdpi="96" inkscape:export-ydpi="96" class="st0" d="
		M738.4,272.1c1.8-2.5,3.3-5.4,7-6.1c0.1,1.6-0.1,2.8-0.4,3.9C742.1,268.7,741.1,271.9,738.4,272.1L738.4,272.1z M743.6,260.3
		c1,4.4-4.2,6.2-7.8,7.4C737.6,264.5,739.8,261.6,743.6,260.3z M741.4,257.3c-2.6,2.5-4.8,5.4-9.1,6.1
		C734,260.4,738.8,253.8,741.4,257.3z M736.7,253.3c-0.4,2.7-2.9,3.2-4.8,4.4C732.5,255.5,733.9,252.1,736.7,253.3L736.7,253.3z
		 M724.9,257.3c-0.3-2.2,3-6.5,6.1-5.2C730,254.9,728.1,256.7,724.9,257.3z M729.7,278.7c-3.8,1.4-9,0.7-12.6-0.4
		c-1.4-4.7-2.4-9.9-2.2-16.1C724.5,258.9,734.2,269,729.7,278.7L729.7,278.7z M714.8,256.8c0.5,0.1,0.8-0.1,0.9-0.4
		c1,0.2,0.3,2.3,0,2.6C714.8,259,714.8,257.9,714.8,256.8z M715.3,251.2c1.1,0.2,1-0.8,2.2-0.4c0.1,1.5-1.5,1.4-1.7,2.6
		C714.8,253.4,715.5,251.8,715.3,251.2z M723.6,250.7c0.7,1-0.9,2.6-2.6,2.6C720.7,251.4,721.6,250.5,723.6,250.7z M748,266.4
		c-0.1-15.1-19.9-21.4-34.5-17c-1.5,8.8-1.7,23.4,1.3,30.5C731.2,284.1,748.1,279.9,748,266.4z M753.7,338c-2.3-0.9-4.1-5-6.1-7.9
		c-2.1-3.1-4.7-5.4-6.1-7.8c-6.4-10.9-9-20.1-25.3-20.9c-1.4,11.3,3.4,22.4,1.3,34.5c-6.6,1.8-14.9,0.6-22.2,0.9
		c-2-34.8-2.2-69.3,0.4-105.1c15,2,31-0.9,46.8,1.6c9.6,1.5,19.5,9.1,23,18.5c7.9,21-2.5,40-24.5,40.2c1,4.7,31.2,40.2,32.4,46.6
		C766.4,338.3,758.7,339.9,753.7,338L753.7,338z M756.7,348.5c2.5-2.9,5-9.3,10-7C764.2,344.6,761.6,347.6,756.7,348.5z
		 M752.4,351.1c-0.9,0-1.8,0-2.6,0c0.5-1.4,1.7-2.1,3.5-2.2C753.3,350,752.5,350.3,752.4,351.1z M759.3,340.6
		c-2.4,3.7-6.1,6.1-10.9,7.4C751.5,345,752.9,340.3,759.3,340.6z M739.7,342.8c-0.2-3.4,5.4-4.8,7-7.9c1.4-0.4,1.4,0.7,1.7,1.3
		C746,338.9,742.5,340.5,739.7,342.8L739.7,342.8z M744.5,351.5c-0.9,0-1.7,0-2.6,0c0.5-1.8,2.1-2.5,3-3.9
		C746.9,347.8,744.6,350.4,744.5,351.5L744.5,351.5z M738.4,337.1c1.5-2.3,5.3-7.7,7.8-4.8C743.7,334,741.8,336.3,738.4,337.1z
		 M735.3,334.1c1.5-3.2,3.6-5.7,7.4-6.5C741.7,331.1,738.1,332.2,735.3,334.1z M740.1,324c-2.2,2.5-4.3,5-7.8,6.1
		C732.4,327.8,737.1,322,740.1,324z M737.1,318.8c-0.7,2.9-4.8,5.9-8.7,7C730.3,322.7,734,319.2,737.1,318.8z M734.9,314.9
		c-2.7,2.7-6,7.1-10,7C726.7,318.6,731.8,312.6,734.9,314.9z M731,310.1c-0.9,2.8-4.7,6.4-8.3,7.8C724,314.1,727.3,310.1,731,310.1z
		 M727.1,307c-0.9,2.2-3,3.1-5.2,3.9C722.2,308.5,724.2,305.6,727.1,307z M720.1,308.8c-2.8-1-0.7-6.5,1.7-3.5
		C721.8,307,720.7,307.7,720.1,308.8z M708.3,341c0-1.1,0.6-1.7,1.7-1.7C710.3,340.8,709.3,340.9,708.3,341z M704.4,347.6
		c2-2.4,3.9-4.8,7.4-5.7C710.1,344.3,707.3,347.8,704.4,347.6z M693,345.8c0.9-2.6,4.4-8.2,9.6-6.5C700,342.1,695.8,343.2,693,345.8
		z M693.9,348.5c1.6-3.1,4.9-4.4,8.3-5.7C700,345.3,699,348.9,693.9,348.5z M692.2,304.8c-4.9,2.1-8.1,5.9-11.8,9.2
		c1.4-5.3,7-10.2,11.8-13.5C693.3,301.7,692,303.2,692.2,304.8z M692.6,326.7c-5,1.3-7.1,5.4-11.8,7c2.3-5.4,7-8.4,10.5-12.7
		C693.2,321.4,692.4,324.5,692.6,326.7L692.6,326.7z M688.7,338c0,1.6-1.5,1.7-2.2,2.6C685.5,339.8,687.5,338.2,688.7,338z
		 M683.4,349.3c1.6-2.5,4.5-3.7,6.5-5.7C690.1,346.1,687,349.1,683.4,349.3z M676.5,342.8c1.5-4.3,5.2-6.4,8.3-9.2
		c2,0.8-1.6,2.9-2.6,3.5C680.7,339.5,679.5,342,676.5,342.8L676.5,342.8z M685.6,322.7c-1.2,4.1-5.7,8.8-9.2,12.2
		C675.2,328.3,682.6,326.6,685.6,322.7z M692.2,315.3c-4.2,2.6-7.4,6.3-11.8,8.7c2.5-5.7,6.7-9.6,10.9-13.5
		C693.1,310.6,691.7,313.9,692.2,315.3L692.2,315.3z M685.6,312.2c-1.9,3.3-6,10.5-9.6,12.2C676.3,317.5,682.2,316.2,685.6,312.2z
		 M675.6,300.5c4.4-2.3,6.7-6.7,11.3-8.7c-3.9,4.2-6.9,9.4-11.3,13.1C675.6,303.4,675.6,301.9,675.6,300.5z M685.6,281.7
		c0.8-0.1,0.9,0.4,0.4,0.4c-1.3,2.8-4.4,4.9-6.5,7.4c-1.2,1.5-1.7,4.9-4.4,3.9C677.7,288.6,681.5,285,685.6,281.7z M675.6,269.1
		c5.4-2.6,8.2-7.8,13.1-10.9c-2.5,5.1-8.8,10.1-13.1,14.8C674.5,271.8,675.8,270.7,675.6,269.1z M689.1,238.1
		c-3.6,5.3-8.3,9.5-12.7,14C675.3,243.7,683,240.5,689.1,238.1z M676.5,260.8c-0.3-4.2,5.5-6.1,7.8-9.2
		C683.2,254.4,679.3,258.3,676.5,260.8z M690.4,249c0.6,0,1.2,0,1.7,0c0,1.4,0,2.9,0,4.4c-4.9,2.5-8,6.8-13.1,9.2
		C681.3,256.5,687.1,253.9,690.4,249L690.4,249z M679.5,273.9c0.7-6,8.2-9,11.8-13.5c0.7-0.1,0.7,0.4,1.3,0.4
		C691,267.9,683.6,269.2,679.5,273.9z M675.6,285.2c-0.3-7.5,7.4-10.6,11.8-14.8C685.7,275.8,679.6,280.6,675.6,285.2z M683,281.3
		c1.4-3.4,5.2-8.2,9.2-10.5C692.7,277.9,685.7,277.5,683,281.3z M679.1,294.8c1.9-4.8,7.8-11.7,13.1-13.1
		C692,287.9,682,290.8,679.1,294.8z M685.6,302.2c-0.2,0.3-0.3,0.6-0.5,0.8c-2.1,3.3-6.1,8.9-9.1,10.5c0.4-4.5,6.4-6.7,9.1-10.5
		C685.3,302.8,685.5,302.5,685.6,302.2z M679.5,304.4c1.9-4.2,8.8-12.1,12.7-12.7c0,0.9,0,1.7,0,2.6
		C687.4,297.1,684.3,301.6,679.5,304.4L679.5,304.4z M692.6,240.3c-0.3,5.8-6.4,5.8-9.6,8.7C685.7,245.6,688.1,241.8,692.6,240.3z
		 M772,330.1c-5-7.2-7.8-12.8-12.7-18.8c-4.6-5.7-8.7-10.8-12.2-16.1c7.6-2.6,15-4.8,18.8-10.5c9.9-15.1,2.6-38.9-8.7-48.4
		c-14.4-12.1-42.5-5.1-65-7c-4.5,5.2-15.8,6.7-18.3,14c-1.1,3.2-1.1,8.3-1.3,11.8c-1.6,23.9,0.8,52.9,1.7,76.8
		c0.3,6.6-1.5,13.7,2.6,18.8c10,1.3,20.8-0.4,29.2,0c5.1-3.9,9.5-8.6,14.8-12.2c0-3.3-1.6-9,0.4-11.3c6.5,7.4,11.7,15.9,14.8,26.6
		c3.3,1.1,6.7-0.2,10.5-0.4c5.4-0.3,11.7,1.4,16.1,0.4c3-0.6,5.3-4.3,7.4-6.1c2.8-2.4,6.7-3.8,7-7
		C777.6,337.4,774.3,333.5,772,330.1"/>
</g>
</svg>
