<?xml version="1.0" encoding="UTF-8" standalone="no"?>
<!-- Created with Inkscape (http://www.inkscape.org/) -->

<svg
   version="1.1"
   id="svg1"
   width="325.81311"
   height="276.49036"
   viewBox="0 0 325.8131 276.49035"
   sodipodi:docname="0602234.eps"
   xmlns:inkscape="http://www.inkscape.org/namespaces/inkscape"
   xmlns:sodipodi="http://sodipodi.sourceforge.net/DTD/sodipodi-0.dtd"
   xmlns="http://www.w3.org/2000/svg"
   xmlns:svg="http://www.w3.org/2000/svg">
  <defs
     id="defs1" />
  <sodipodi:namedview
     id="namedview1"
     pagecolor="#ffffff"
     bordercolor="#999999"
     borderopacity="1"
     inkscape:showpageshadow="2"
     inkscape:pageopacity="0"
     inkscape:pagecheckerboard="0"
     inkscape:deskcolor="#d1d1d1" />
  <g
     inkscape:groupmode="layer"
     id="layer7"
     inkscape:label="Layer 1"
     style="display:inline"
     transform="translate(-1472.4541,-983.68361)">
    <path
       id="path183-5"
       d="m 1518.8588,1131.8634 c -21.4491,11.3609 -33.8411,38.7404 -33.1559,62.3841 0.7379,25.4069 17.0462,47.7652 40.8316,56.5404 28.8359,10.6394 59.5003,-0.382 75.9332,-26.1083 0.096,-0.1476 0.1464,-0.299 0.2287,-0.4501 0.2466,-0.3092 0.4803,-0.6442 0.6888,-1.0178 7.7318,-13.8815 10.3413,-28.9141 7.5821,-44.5972 -2.2421,-12.7503 -5.8968,-27.1989 -14.56,-37.1902 -17.5241,-20.2094 -55.1507,-21.4252 -77.5485,-9.5609 z m 49.2124,8.3138 c 31.6375,7.7892 36.9609,52.0945 23.3907,77.0546 -14.5692,21.8228 -40.8275,31.0266 -65.1251,18.9641 -23.6371,-11.7357 -33.5299,-40.1671 -23.4446,-64.4389 4.8798,-11.741 11.9042,-23.2326 23.703,-28.9219 12.6069,-6.0788 28.1151,-5.9463 41.476,-2.6579"
       style="display:inline;fill:#ecd9b8;fill-opacity:1;fill-rule:nonzero;stroke:none;stroke-width:0.154451" />
    <path
       id="path184-4"
       d="m 1669.2205,1075.4804 c -10.3824,7.6387 -19.1624,14.1202 -22.7839,26.8817 -6.3507,22.3836 8.8231,45.7901 30.7649,52.005 24.6157,6.9726 47.6962,-8.2978 55.1239,-31.4856 0.2009,-0.4606 0.3623,-0.9623 0.4717,-1.5148 0.1523,-0.5303 0.2376,-1.036 0.2674,-1.5149 3.4483,-20.8454 -5.2046,-50.1004 -28.0917,-56.1056 -13.3972,-3.5162 -25.3892,4.1078 -35.7523,11.7342 z m 34.5154,1.893 c 14.9646,6.3019 18.7311,27.7845 15.99,41.6446 -4.9981,17.4419 -23.8641,28.6531 -41.462,21.7701 -14.4539,-5.6518 -24.546,-22.3398 -18.0013,-37.3471 5.1872,-11.8918 29.8924,-31.7863 43.4733,-26.0676"
       style="display:inline;fill:#ecd9b8;fill-opacity:1;fill-rule:nonzero;stroke:none;stroke-width:0.153542" />
    <path
       id="path12"
       d="m 1734.0925,1020.1157 c 1.3773,15.0998 15.9734,28.3534 31.4984,26.2337 15.5763,-2.1263 27.7095,-15.3165 26.2335,-31.4991 -1.3771,-15.09977 -15.9733,-28.35357 -31.4992,-26.23367 -15.576,2.1264 -27.7086,15.31647 -26.2327,31.49907"
       style="display:inline;fill:#fff2cf;fill-opacity:1;fill-rule:nonzero;stroke:none;stroke-width:0.175674" />
    <path
       id="path185-1"
       d="m 1737.4185,1007.5898 c -3.528,16.2585 1.0497,40.7023 17.524,48.0647 17.056,7.6219 31.6199,-8.4103 39.2851,-22.3524 0.2157,-0.3363 0.4172,-0.694 0.593,-1.0967 0.2889,-0.5462 0.4902,-1.083 0.6284,-1.6066 6.8055,-17.3356 1.1113,-33.89457 -17.0077,-40.53967 -15.529,-5.6969 -36.9273,-1.3503 -41.0228,17.53067 z m 33.729,-5.3012 c 12.0485,2.8961 16.6197,11.8783 11.4057,23.8281 -3.4543,6.5382 -10.053,17.0043 -18.2516,17.4545 -13.4405,0.7411 -13.6002,-17.4802 -13.2254,-26.2619 0.1875,-4.3896 -0.9247,-7.8332 2.3335,-11.4555 4.4524,-4.9488 11.7844,-4.9972 17.7378,-3.5652"
       style="display:inline;fill:#ecd9b8;fill-opacity:1;fill-rule:nonzero;stroke:none;stroke-width:0.158997" />
    <path
       id="path183"
       d="m 1510.2112,1119.4526 c -24.4059,12.9171 -38.5059,44.0464 -37.7264,70.9283 0.8397,28.8865 19.3959,54.3069 46.4602,64.284 32.8108,12.0964 67.7021,-0.4344 86.4001,-29.6842 0.1083,-0.1676 0.1668,-0.3398 0.2602,-0.5116 0.2808,-0.3516 0.5465,-0.7324 0.7838,-1.157 8.7975,-15.7827 11.7667,-32.8743 8.6272,-50.7054 -2.551,-14.4964 -6.7096,-30.9239 -16.5669,-42.2835 -19.9398,-22.9774 -62.7531,-24.3597 -88.2382,-10.8706 z m 55.9961,9.4526 c 35.9985,8.8561 42.0558,59.2292 26.615,87.6078 -16.5775,24.8116 -46.4554,35.2762 -74.1024,21.5614 -26.8953,-13.343 -38.1517,-45.6684 -26.6763,-73.2643 5.5525,-13.349 13.5451,-26.4144 26.9703,-32.8829 14.3448,-6.9113 31.9906,-6.7607 47.1934,-3.022"
       style="display:inline;fill:#383026;fill-opacity:1;fill-rule:nonzero;stroke:none;stroke-width:0.175674" />
    <path
       id="path184"
       d="m 1661.5102,1067.6939 c -11.874,8.7405 -21.9158,16.1569 -26.0558,30.7614 -7.2599,25.6161 10.1002,52.4071 35.1988,59.5239 28.1571,7.9843 54.5543,-9.4881 63.0461,-36.0245 0.2297,-0.5271 0.4143,-1.1015 0.5393,-1.7337 0.1741,-0.6069 0.2715,-1.1856 0.3055,-1.7337 3.9405,-23.8563 -5.962,-57.3394 -32.1419,-64.2163 -15.3246,-4.0267 -29.0399,4.6966 -40.892,13.4229 z m 39.4796,2.1728 c 17.1181,7.2149 21.43,31.8019 18.2972,47.664 -5.7136,19.9608 -27.291,32.7883 -47.421,24.9079 -16.5336,-6.471 -28.0801,-25.5718 -20.597,-42.746 5.9312,-13.609 34.1857,-36.3733 49.7208,-29.8259"
       style="display:inline;fill:#383026;fill-opacity:1;fill-rule:nonzero;stroke:none;stroke-width:0.175674" />
    <path
       id="path185"
       d="m 1729.8128,1005.5313 c -4.1762,17.6489 0.6867,44.0625 19.1716,51.8336 19.1376,8.0451 35.7541,-9.4932 44.5671,-24.6843 0.247,-0.3666 0.4786,-0.7565 0.6819,-1.1948 0.3324,-0.5949 0.5659,-1.1788 0.7281,-1.7475 7.8847,-18.855 1.667,-36.71667 -18.6814,-43.69157 -17.4394,-5.979 -41.6191,-1.0111 -46.4673,19.48457 z m 38.0942,-6.15227 c 13.5495,2.98897 18.5937,12.65957 12.5692,25.66327 -3.9749,7.1224 -11.5424,18.5361 -20.792,19.1239 -15.1631,0.9667 -15.1209,-18.7626 -14.591,-28.2767 0.265,-4.7554 -0.9469,-8.471 2.771,-12.4333 5.0803,-5.41327 13.3479,-5.55517 20.0428,-4.07717"
       style="display:inline;fill:#383026;fill-opacity:1;fill-rule:nonzero;stroke:none;stroke-width:0.175674" />
    <path
       id="path192"
       d="m 1501.3212,1199.0631 c 5.1371,18.732 25.1741,29.3131 43.6266,24.3658 4.7133,-1.2619 1.9433,-8.3384 -2.744,-7.0828 -14.7397,3.9531 -29.8505,-5.6281 -33.7996,-20.0272 -1.2896,-4.707 -8.3659,-1.9388 -7.083,2.7442"
       style="display:inline;fill:#383026;fill-opacity:1;fill-rule:nonzero;stroke:none;stroke-width:0.175674" />
    <path
       id="path193"
       d="m 1567.2039,1255.8939 c -0.7755,4.8252 6.7216,6.0371 7.4982,1.2045 0.7756,-4.8255 -6.7216,-6.0375 -7.4982,-1.2045"
       style="display:inline;fill:#383026;fill-opacity:1;fill-rule:nonzero;stroke:none;stroke-width:0.175674" />
    <path
       id="path194"
       d="m 1669.853,1109.596 c 0.4541,-11.3065 8.1207,-21.131 18.6163,-24.9656 4.5853,-1.6759 1.9271,-8.7911 -2.6754,-7.1101 -13.9815,5.1085 -22.9123,18.0332 -23.5039,32.7655 -0.1944,4.8689 7.3695,4.1313 7.563,-0.6903"
       style="display:inline;fill:#383026;fill-opacity:1;fill-rule:nonzero;stroke:none;stroke-width:0.175674" />
    <path
       style="fill:#fff2cf;fill-opacity:1;stroke:none;stroke-width:0.137153;stroke-opacity:1"
       d="m 1543.8427,1243.9257 c -4.4477,-0.671 -8.1513,-1.6389 -12.0031,-3.1368 -9.2182,-3.5848 -16.9111,-9.4814 -22.6531,-17.3636 -8.962,-12.3022 -12.0023,-28.3092 -8.2088,-43.2183 1.033,-4.0602 2.6315,-8.1773 5.1512,-13.2681 7.583,-15.3201 16.7754,-23.362 30.719,-26.8743 7.9308,-1.9976 17.3522,-2.2669 26.6726,-0.7623 4.482,0.7235 8.442,1.7104 11.2502,2.8035 12.6458,4.9227 21.7686,16.9957 25.0281,33.1218 0.8675,4.2917 0.9381,5.0594 0.8521,9.2578 -0.2239,10.9278 -2.4713,20.8224 -6.7532,29.7324 -2.8921,6.0179 -10.4402,14.2633 -17.824,19.4705 -7.5661,5.3357 -16.4025,8.8024 -25.4419,9.9812 -1.6724,0.2181 -5.9672,0.3802 -6.7891,0.2562 z m -2.6059,-19.6475 c 2.2141,-0.3785 4.0005,-0.8122 4.5894,-1.1143 1.0634,-0.5455 1.5791,-1.4688 1.571,-2.8129 -0.01,-1.138 -0.3237,-1.9501 -1.0931,-2.8017 -1.204,-1.3327 -2.4729,-1.6337 -4.7343,-1.1232 -3.9918,0.9012 -7.7616,0.9497 -11.6204,0.1497 -3.7698,-0.7816 -8.428,-2.9558 -11.4115,-5.3262 -4.5301,-3.5993 -7.96,-8.4678 -9.6762,-13.7346 -0.6441,-1.9768 -0.883,-2.4557 -1.4919,-2.9903 -1.2295,-1.0796 -3.3906,-0.8753 -4.8689,0.4603 -1.3774,1.2444 -1.6774,2.6269 -1.0402,4.793 3.8857,13.2084 15.6397,22.8634 30.0609,24.6926 2.218,0.2813 7.5629,0.1755 9.7152,-0.1924 z m 21.7143,-6.533 c 1.2364,-0.673 1.8075,-1.7351 1.8075,-3.3619 0,-1.2298 -0.4754,-2.1794 -1.4154,-2.8271 -0.8242,-0.568 -1.416,-0.7356 -2.6008,-0.7366 -1.537,0 -2.5866,0.6186 -3.2153,1.8988 -0.3135,0.6385 -0.3806,0.9566 -0.3806,1.8064 0,1.2283 0.3849,2.1236 1.1946,2.7789 1.2364,1.0007 3.2314,1.1918 4.61,0.4415 z"
       id="path327" />
    <path
       style="fill:#fff2cf;fill-opacity:1;stroke:none;stroke-width:0.284411;stroke-opacity:1"
       d="m 1691.4142,1142.603 c -11.6104,0.7359 -22.4834,-5.0237 -28.8677,-15.2917 -2.5372,-4.0804 -4.1576,-9.4926 -4.1833,-13.9721 -0.016,-2.7945 1.091,-7.7753 2.2914,-10.3091 0.9402,-1.9844 3.7339,-6.1796 4.4173,-6.6331 0.1467,-0.097 -0.1402,0.9612 -0.6374,2.3523 -1.6929,4.7359 -2.589,10.4742 -1.9971,12.7895 0.2602,1.0177 0.4772,1.2947 1.3408,1.711 2.8534,1.3756 5.9811,-0.5515 6.2121,-3.8272 0.4097,-5.8106 2.8101,-11.8258 6.4286,-16.1093 2.7936,-3.307 7.2594,-6.5952 10.9938,-8.0949 2.0721,-0.8321 3.0069,-1.6149 3.379,-2.8294 0.3476,-1.135 0.044,-2.8773 -0.6288,-3.6119 -0.3519,-0.3841 -0.3103,-0.5115 0.2696,-0.8255 1.0007,-0.5418 6.0891,-1.4597 7.9286,-1.4296 5.9834,0.096 12.275,4.2762 16.2815,10.8166 2.7598,4.5053 5.0689,12.0321 5.3326,17.383 0.2818,5.7133 -0.3182,11.3771 -1.5914,15.0234 -2.6454,7.5769 -8.2912,14.6716 -15.2705,19.1895 -2.0192,1.3072 -2.7765,1.6311 -5.8755,2.5127 -2.378,0.6761 -4.309,1.0593 -5.8236,1.1558 z"
       id="path328" />
  </g>
</svg>
