<?xml version="1.0" encoding="UTF-8" standalone="no"?>
<!-- Created with Inkscape (http://www.inkscape.org/) -->

<svg
   version="1.1"
   id="svg1"
   width="1334.9124"
   height="1288.0728"
   viewBox="0 0 1334.9123 1288.0727"
   sodipodi:docname="0602234.eps"
   xmlns:inkscape="http://www.inkscape.org/namespaces/inkscape"
   xmlns:sodipodi="http://sodipodi.sourceforge.net/DTD/sodipodi-0.dtd"
   xmlns="http://www.w3.org/2000/svg"
   xmlns:svg="http://www.w3.org/2000/svg">
  <defs
     id="defs1" />
  <sodipodi:namedview
     id="namedview1"
     pagecolor="#ffffff"
     bordercolor="#999999"
     borderopacity="1"
     inkscape:showpageshadow="2"
     inkscape:pageopacity="0"
     inkscape:pagecheckerboard="0"
     inkscape:deskcolor="#d1d1d1" />
  <g
     inkscape:groupmode="layer"
     id="layer7"
     inkscape:label="Layer 1"
     style="display:inline"
     transform="translate(-519.57539,-964.30324)">
    <g
       id="g279"
       transform="translate(-746.37586,-384.5637)"
       style="display:inline;fill:#ecd9b8;fill-opacity:1"
       inkscape:export-filename="../../Desktop/portfolio-next-v2/public/images/menu.svg"
       inkscape:export-xdpi="96"
       inkscape:export-ydpi="96">
      <path
         id="path9"
         d="m 1880.3355,1369.0179 c -61.5945,0.9241 -99.5005,48.4041 -118.3641,101.537 -10.462,29.4631 -11.4819,61.912 -8.6966,94.0228 -32.583,-22.2111 -76.5523,-27.6836 -111.5551,-5.5169 -47.1237,29.8474 -69.3907,93.2175 -38.8648,143.5031 4.5224,7.4461 9.2497,14.7932 14.1423,22.0442 -19.8646,-7.2222 -40.4557,-11.9916 -61.3186,-12.1596 -71.8408,-0.5781 -133.129,60.7136 -130.0682,133.1473 1.553,36.8203 17.3508,66.2938 36.1833,95.3773 -11.2798,1.9811 -22.2815,5.381 -32.7468,11.3935 -35.283,20.2692 -57.1889,58.8385 -58.2271,99.2453 -0.8596,33.3641 11.5903,64.2914 33.7694,89.0541 5.2299,5.8402 11.1361,10.9483 17.282,15.7934 -4.1848,2.0839 -8.3403,4.3232 -12.446,6.8099 -62.4065,37.8349 -94.886,112.164 -88.5505,183.9203 2.9319,33.1906 10.3781,66.5028 23.4174,97.261 6.5797,19.0831 14.8405,37.5001 24.6281,54.7351 21.8342,38.4644 51.9361,76.318 96.5843,88.287 0.3588,0.096 0.7239,0.1577 1.0857,0.2502 5.6661,4.2768 11.5933,8.2783 17.8096,11.9533 34.5958,20.4465 73.7382,27.912 113.2856,22.9223 40.4228,-5.1003 73.8679,-22.6285 105.1263,-48.2041 12.326,-10.0848 22.9024,-21.5763 32.0579,-34.0658 22.4867,22.8832 54.9742,34.9877 88.4952,30.7575 29.9007,-3.7725 59.5355,-22.1989 76.8334,-48.1308 3.5045,0.2905 6.983,0.3976 10.3996,0.2605 0.7589,-0.03 1.5029,-0.1097 2.2559,-0.1622 12.0506,4.4539 24.6233,6.8828 35.4668,6.4855 28.9923,-1.0644 52.4403,-11.3016 74.5685,-30.187 29.0032,-24.7501 41.5928,-72.8636 30.7881,-109.475 -2.5536,-8.6549 -5.8434,-17.057 -9.5889,-25.2647 0.9673,-0.5557 1.9135,-1.1485 2.8627,-1.7318 1.9106,0.7161 3.8796,1.3749 5.9192,1.9671 34.5369,9.9879 70.6724,-12.846 80.2363,-46.5544 11.4171,-40.235 -12.3641,-73.0054 -45.3728,-90.3969 -0.635,-1.3516 -1.2364,-2.7185 -1.9326,-4.0433 25.4177,6.225 51.1616,4.4763 76.2366,-9.9281 30.4162,-17.4719 54.9936,-54.0973 52.787,-90.3377 -2.5751,-42.3158 -13.8279,-83.4371 -32.9673,-120.1949 2.7418,-1.4767 5.4452,-3.0973 8.0863,-4.9376 25.9024,-18.0416 43.7796,-36.8272 56.3132,-65.8744 5.5977,-12.9708 9.055,-26.5009 10.3873,-40.2371 0.73,-6.2826 0.8647,-12.4208 0.49,-18.4778 -0.4368,-10.085 -2.0007,-20.1948 -4.7597,-30.198 -0.2996,0.1234 -0.5991,0.245 -0.8957,0.3674 -2.5465,-8.3959 -5.7781,-16.8522 -9.4981,-25.5624 -9.2494,-21.6425 -40.2412,-43.5665 -62.4281,-48.8087 -13.8212,-3.2648 -27.3563,-4.2206 -40.7235,-2.5796 11.3958,-14.493 19.4736,-31.252 26.8625,-50.2531 5.5783,-14.3387 11.029,-28.7243 16.5434,-43.088 9.2613,-24.1229 2.4743,-59.4589 -9.944,-81.0781 -12.5834,-21.9037 -37.413,-42.8977 -62.425,-48.8056 -23.4915,-5.5514 -49.5484,-5.4168 -71.7782,4.8789 -7.9811,-1.6819 -16.1261,-2.686 -24.3282,-3.0383 3.7491,-35.3945 -3.0087,-70.5811 -18.7381,-102.4974 -21.2244,-43.0599 -66.0691,-74.9184 -114.6859,-74.1854 z m -82.5554,749.5067 c -2.0724,4.6176 -4.1752,9.2346 -6.3723,13.8267 -8.2622,-4.6213 -16.3112,-9.6006 -24.1688,-14.9011 13.4549,-5.3576 26.3295,-12.0421 38.6171,-19.9989 -2.5735,7.0629 -5.2442,14.0977 -8.076,21.0733"
         style="display:inline;fill:#ecd9b8;fill-opacity:1;fill-rule:nonzero;stroke:none;stroke-width:0.304665" />
      <path
         style="fill:#ecd9b8;fill-opacity:1"
         id="path272"
         d="m 1728.5844,2150.8375 c 0.6602,-0.1005 1.3257,-0.1708 1.9806,-0.3014 4.3973,-0.877 8.6963,-2.3064 12.9469,-3.7034 5.9228,-1.9465 7.7372,-2.6377 13.7618,-4.7848 12.574,-4.6545 25.0291,-9.6192 37.5415,-14.4342 5.0328,-1.9813 10.0936,-3.8882 15.1157,-5.8963 1.7374,-0.7161 3.4298,-1.5142 5.0569,-2.4525 1.2678,-0.6645 2.3471,-1.5211 3.2022,-2.6709 1.8574,-3.2229 0.2008,-5.4701 -2.8597,-6.5906 -1.9843,-0.4526 -4.022,-0.6738 -6.0407,-0.9433 -2.3843,-0.3375 -4.7942,-0.5499 -7.1688,-0.9505 -1.5278,-0.289 -3.0585,-0.5594 -4.6016,-0.7522 -2.3034,-0.3708 -4.4679,0.3086 -6.6271,1.0458 -11.9739,4.6687 -23.3517,10.6911 -34.7513,16.5857 -13.0641,6.8395 -25.7804,14.3113 -38.4627,21.8268 -2.7665,1.6183 -5.4698,3.3393 -8.1631,5.0751 -0.4256,0.2743 -0.8461,0.5568 -1.2776,0.8216 -0.1291,0.079 -0.5073,0.1 -0.4029,0.2096 1.6493,1.7342 3.5034,3.2614 5.2551,4.8921 0.031,0.082 0.022,0.2978 0.094,0.2463 0.6633,-0.4798 1.2147,-1.0979 1.8301,-1.6377 2.2314,-1.9573 4.4541,-3.925 6.7162,-5.8468 7.7695,-6.6007 7.9394,-6.5899 16.8272,-13.6141 27.1668,-20.5436 54.5345,-40.8206 81.7937,-61.2421 18.0928,-13.7257 36.582,-26.9081 55.2865,-39.7826 4.0814,-2.4484 7.8752,-5.6021 12.3237,-7.4131 -2.7131,0.9286 0.2223,0.1168 -4.8113,-4.938 -0.142,-0.1426 -0.2632,0.3043 -0.391,0.4597 -0.3455,0.4202 -0.6805,0.8491 -1.0289,1.267 -0.9796,1.1754 -1.9778,2.3353 -2.9617,3.5072 -5.4852,6.6335 -10.3403,13.7495 -15.506,20.6274 -12.7222,16.3104 -27.043,31.2823 -41.0985,46.4305 -18.0297,19.5256 -36.4659,38.6667 -55.1526,57.5625 -4.4702,4.3697 -8.9335,8.7542 -13.5683,12.9512 -1.6337,1.4794 -3.2889,2.953 -5.1,4.2125 1.2011,-0.9018 1.0272,-0.975 3.5628,0.084 0.4787,0.2 0.5181,1.0064 1.0035,1.1898 0.2409,0.091 0.08,-0.509 0.1286,-0.762 0.4044,-2.1221 0.2301,-1.2957 1.0537,-3.7544 3.3518,-8.4005 7.3782,-16.516 11.3564,-24.6329 3.1135,-6.3415 6.4822,-12.5652 10.3598,-18.4765 2.4947,-3.8032 3.8339,-5.5251 6.5131,-9.1702 3.4864,-4.4159 7.0183,-8.8521 11.142,-12.7023 1.3426,-1.2535 2.3853,-2.0266 3.804,-3.1383 1.5842,-1.2842 3.3406,-2.36 5.3115,-2.9187 -1.815,0.6056 -3.5149,-0.6483 -4.1376,-2.2632 -0.1156,-0.2998 0.1518,-0.8384 -0.1486,-0.9523 -0.2705,-0.1026 -0.3286,0.4768 -0.5092,0.7029 -0.2796,0.3499 -0.5803,0.6824 -0.8704,1.0236 -3.0825,3.419 -6.7329,6.2616 -10.2438,9.2192 -5.5237,4.7275 -10.5554,9.9904 -15.5658,15.2479 -5.8883,5.8733 -11.872,11.6551 -18.229,17.0211 -3.9206,3.2413 -7.8798,6.466 -12.1922,9.1776 -0.2674,0.1574 -0.5348,0.3148 -0.8021,0.4722 -0.055,0.011 -0.2187,0.05 -0.1653,0.032 2.213,-0.7273 3.694,0.213 4.4969,2.3066 0.073,-0.078 0.1639,-0.1418 0.219,-0.2332 1.5019,-2.4904 -0.6297,0.6324 1.4553,-2.5432 1.386,-2.1109 3.0094,-4.0262 4.6356,-5.9515 7.1519,-7.9904 15.1881,-15.1363 23.1246,-22.3284 8.3084,-7.5509 16.91,-14.7645 25.5098,-21.9778 2.6367,-2.3941 5.6025,-4.3963 8.1756,-6.8603 2.0075,-2.0988 1.0606,-0.8847 -4.2952,-6.2204 -0.2218,-0.2209 -0.5501,0.2999 -0.815,0.4668 -1.2161,0.7665 -2.3643,1.6462 -3.5137,2.5065 -2.8748,2.2385 -5.6156,4.6338 -8.2421,7.1573 -1.9546,1.9667 -3.737,4.0586 -5.106,6.4731 -0.9166,1.9894 -1.8623,3.9648 -2.8263,5.9317 -1.3418,2.6536 -2.8692,5.2057 -4.2827,7.8199 -0.9844,1.8286 -1.9904,3.6711 -2.7035,5.6245 -0.7688,2.8666 -0.297,3.1139 4.8775,5.2286 0.6276,0.2565 1.9877,-1.4699 2.4387,-2.0199 1.5189,-1.8363 2.8139,-3.8265 4.0058,-5.8861 1.4977,-2.5345 2.7427,-5.1915 3.9075,-7.8904 0.8707,-1.909 1.6207,-3.8735 2.5388,-5.7607 0.2624,-0.4782 1.3667,-2.9407 1.7933,-3.1131 0.032,-0.024 0.1211,-0.1027 0.097,-0.071 -0.6755,0.8857 -1.9441,0.6981 -3.0492,0.3123 -0.715,-0.2495 -1.1249,-1.0142 -1.6874,-1.5213 -0.3693,-0.8244 -0.4781,1.1607 -0.5155,1.3347 -0.148,0.6877 -0.3485,1.363 -0.5187,2.0455 -0.8339,2.937 -1.7358,5.8549 -2.597,8.785 -1.0174,3.6618 -1.8782,7.354 -2.6688,11.0698 -0.6007,2.3993 -1.2194,4.7899 -1.9082,7.1652 -0.4174,0.9689 -0.8489,1.9162 -1.1437,2.9318 0.1335,-0.4838 -0.2893,1.2186 -0.1756,0.9258 0.4142,-1.0666 0.9739,-3.3658 2.9074,-2.8286 1.6502,0.4586 2.7881,1.99 4.1822,2.9849 0.025,0.154 -0.012,0.3321 0.074,0.4619 0.046,0.069 0.052,-0.1583 0.074,-0.2387 0.07,-0.2555 0.1214,-0.5165 0.2024,-0.7688 0.4353,-1.3559 1.0204,-2.677 1.5646,-3.9903 1.6948,-3.7208 3.4433,-7.4166 5.2245,-11.0967 1.3048,-2.4678 2.2971,-5.0843 3.5352,-7.582 0.6129,-1.5035 1.3633,-2.8602 2.4416,-4.0666 0.6593,-0.7744 1.3094,-1.6391 2.1976,-2.1635 0.9173,-0.8714 2.8006,-1.3423 -0.6177,-0.373 -1.8277,-0.2445 -2.7868,-1.0459 -3.4484,-2.7558 -0.01,-0.025 -0.01,0.054 -0.01,0.081 -10e-4,0.3809 0.076,0.2489 -0.043,0.4092 -0.47,1.4269 -1.1021,2.7866 -1.7853,4.122 -1.3036,2.3881 -2.6374,4.7622 -3.9865,7.1256 -1.5212,2.6256 -2.9515,5.3015 -4.45,7.9398 -1.1449,2.0839 -2.3717,4.1187 -3.5902,6.1592 -0.467,1.0801 -1.0574,2.0212 -1.8623,2.8656 -0.403,0.4647 -0.9678,1.1852 -1.3857,1.5113 0.3871,-0.7376 -1.8741,2.2327 -1.2217,1.5634 1.656,-1.6989 4.1149,-5.7857 6.7901,0.9504 -0.028,-2.3282 -0.057,-4.6574 0.068,-6.9829 0.2651,-3.8419 1.4713,-7.5055 2.7746,-11.1 0.9517,-2.7694 2.3897,-5.3025 3.8881,-7.8 0.596,-1.1753 1.6292,-2.1533 2.0942,-3.4008 0.1598,-0.4287 0.2691,-0.8747 0.4037,-1.312 -0.9593,-3.9556 -0.01,-4.0352 -5.6892,-4.1526 -1.1474,-0.024 -3.4572,3.7832 -4.0259,4.7011 -1.651,2.6555 -2.8962,5.5205 -4.0103,8.4328 -0.8131,2.5444 -1.5024,5.1265 -2.266,7.6867 -0.8747,2.6793 -1.9956,5.2724 -3.1161,7.8563 -1.2448,3.0831 -2.7056,6.0725 -3.9849,9.1398 -0.8338,1.95 -1.5743,3.9333 -2.3923,5.8896 -1.345,3.6722 -0.8796,3.8944 5.6728,5.4091 0.2767,0.064 1.3547,-1.8062 1.5801,-2.1795 2.1475,-4.0313 4.0625,-8.2061 6.5423,-12.0546 0.9662,-1.4995 2.0285,-2.9348 3.0428,-4.4022 1.4617,-1.8254 2.8494,-3.7126 4.3851,-5.4761 4.6351,-5.3228 9.7083,-10.2951 14.8143,-15.1541 10.5978,-10.0851 21.6581,-19.6168 32.7838,-29.108 18.2753,-15.2217 36.8291,-30.1135 55.5793,-44.7464 3.0662,-1.9921 5.6545,-4.7698 8.8353,-6.6033 0.027,-0.015 -0.019,0.085 -0.05,0.079 -1.4325,-0.2746 -2.8535,-0.6059 -4.2802,-0.9088 -0.2733,-1.0979 -0.5467,-2.1958 -0.82,-3.2937 0.058,-0.1712 0.3496,-0.4643 0.1755,-0.5135 -0.184,-0.052 -0.2248,0.3096 -0.3285,0.4702 -0.3954,0.6121 -0.7633,1.2447 -1.1476,1.864 -0.4334,0.8191 -0.8407,1.6449 -1.3322,2.4311 -2.8249,4.5375 3.5921,8.5326 6.4171,3.995 v 0 c 0.4899,-0.7892 0.9502,-1.5959 1.3381,-2.4407 0.3421,-0.5513 2.0337,-3.0361 2.046,-3.4074 0.044,-1.3455 -0.39,-2.664 -0.585,-3.996 -1.4924,-0.3804 -2.9468,-0.9685 -4.4772,-1.1411 -0.3282,-0.037 -2.2124,1.2637 -2.3032,1.3279 -2.7823,1.964 -5.4008,4.1567 -8.1391,6.1783 -18.8363,14.7013 -37.4767,29.6608 -55.8347,44.955 -11.258,9.6058 -22.4528,19.2508 -33.1716,29.4628 -5.3779,5.1236 -10.5664,10.2217 -15.4272,15.8329 -1.6481,1.9025 -3.1364,3.9378 -4.7046,5.9067 -1.113,1.6226 -2.2764,3.2117 -3.3389,4.8678 -2.4541,3.8252 -4.4002,7.9505 -6.4942,11.9736 -0.1426,0.2372 -0.5306,0.4546 -0.4278,0.7116 0.087,0.2181 0.3075,-0.5629 0.5239,-0.4714 9.0979,3.8506 6.2281,0.9725 5.8117,4.1452 -0.037,0.2802 0.312,-0.9493 0.2876,-0.7974 0.8204,-1.9621 1.5645,-3.9509 2.3995,-5.9069 1.2534,-3.0355 2.72,-5.9808 3.9392,-9.0322 1.2392,-2.8603 2.4753,-5.7324 3.425,-8.7043 0.7078,-2.3787 1.3662,-4.7715 2.0827,-7.1467 0.9438,-2.4731 1.9814,-4.9125 3.3854,-7.1667 0.2046,-0.3347 0.4092,-0.6694 0.6139,-1.0041 0.1639,-0.2477 0.3354,-0.4905 0.4917,-0.7431 0.049,-0.079 0.2107,-0.2208 0.1226,-0.2499 -0.1351,-0.044 -0.2575,0.1934 -0.3958,0.1599 -5.279,-1.2804 -4.1842,-0.013 -4.9759,-4.1063 0.095,-0.2297 0.1968,-0.4565 0.2836,-0.6893 0.2047,-0.5485 -0.041,0.1605 -0.2706,0.5242 -0.5125,0.8131 -1.0903,1.5857 -1.5705,2.4198 -1.7495,2.9162 -3.3951,5.8928 -4.5152,9.12 -1.549,4.2997 -2.932,8.6916 -3.2149,13.2855 -0.1302,2.6916 -0.1353,5.3907 -0.043,8.084 0.4586,3.0928 -0.024,2.1267 6.4243,3.1641 0.3988,0.064 1.1564,-1.0675 0.7766,-0.9301 -0.094,0.034 -0.086,0.2627 -0.2308,0.1916 0.8076,-0.7331 1.1409,-1.1355 1.886,-1.9978 1.1553,-1.2431 2.1587,-2.6025 2.8423,-4.1672 1.2408,-2.0881 2.5013,-4.1642 3.6693,-6.2952 1.4961,-2.6343 2.925,-5.3055 4.443,-7.9275 1.4063,-2.467 2.8012,-4.9425 4.1551,-7.438 1.073,-2.1111 2.09,-4.2895 2.5526,-6.6266 0.1851,-2.0866 0.1952,-4.1055 -1.7506,-5.5507 -0.5773,-0.4287 -1.3672,-0.4458 -2.0508,-0.6687 -1.843,0.4515 -2.421,0.48 -3.7045,1.5923 -1.4383,0.9616 -2.693,2.1555 -3.7616,3.5184 -1.4897,1.7203 -2.6777,3.604 -3.5417,5.7165 -1.2287,2.5192 -2.2593,5.1317 -3.5542,7.621 -1.8456,3.8134 -3.6597,7.6422 -5.4062,11.5021 -1.1426,2.7699 -2.5203,5.6292 -2.3819,8.6924 1.4088,1.0816 2.5254,2.7338 4.2265,3.2447 1.7844,0.5359 3.4881,-2.3594 3.6263,-3.6897 0.1811,-0.6987 0.9036,-1.8631 1.0888,-2.7324 0.7397,-2.551 1.4042,-5.1191 2.0418,-7.6978 0.7502,-3.528 1.5628,-7.0337 2.5275,-10.5109 0.8907,-3.0307 1.8275,-6.0475 2.6794,-9.0884 0.6757,-2.7111 1.5423,-5.5532 0.5947,-8.3059 -0.6683,-0.7427 -1.1023,-1.7996 -2.0049,-2.228 -2.3383,-1.11 -4.4655,0.1171 -5.9957,1.6929 -1.1594,1.4465 -2.0907,3.0594 -2.859,4.7468 -0.9497,1.9877 -1.7692,4.0338 -2.6684,6.0446 -1.0492,2.4315 -2.1592,4.8293 -3.5156,7.1097 -1.0318,1.7978 -2.1684,3.522 -3.4973,5.1168 0.4382,-0.3639 -0.3751,0.3046 -0.1982,0.2224 0.4881,-0.2266 0.9155,-1.077 1.3893,-0.822 3.8853,2.0904 5.0822,3.25 4.7155,4.2912 0.6169,-1.4742 1.3802,-2.9737 2.1732,-4.3902 1.4552,-2.7036 3.044,-5.3349 4.418,-8.083 0.9051,-1.8471 1.814,-3.6937 2.6409,-5.5774 0.9644,-1.7815 2.3581,-3.2385 3.7425,-4.7048 2.403,-2.3119 4.911,-4.5041 7.5385,-6.559 4.5833,-3.4449 4.0464,-1.0129 -1.1048,-8.306 -0.015,-0.022 -0.034,0.041 -0.051,0.062 -2.4281,2.3615 -5.32,4.1932 -7.7887,6.5124 -8.6737,7.2754 -17.3482,14.5523 -25.728,22.1681 -8.1868,7.4197 -16.473,14.796 -23.8292,23.0589 -3.252,3.8682 -6.6974,7.8696 -8.0507,12.8451 0.037,2.0131 -0.3239,3.2308 1.5642,4.7849 2.1125,1.7388 4.5276,0.7684 6.4602,-0.4487 4.6015,-2.9097 8.8579,-6.3191 13.0387,-9.7975 6.5589,-5.5483 12.751,-11.5046 18.8223,-17.58 4.82,-5.0583 9.6548,-10.1276 14.9637,-14.6817 3.8664,-3.2574 7.88,-6.3974 11.2235,-10.2128 0.7028,-0.8791 2.0486,-2.4114 2.4671,-3.5119 0.3598,-0.9461 0.7435,-1.9391 0.7163,-2.9509 -0.077,-2.8706 -2.8804,-4.6778 -5.5401,-4.0757 -2.8613,0.8811 -5.4909,2.3198 -7.8125,4.2177 -1.7761,1.402 -2.7617,2.1259 -4.4694,3.7283 -4.3951,4.1245 -8.1799,8.8524 -11.8954,13.5788 -2.8513,3.8849 -4.1722,5.5785 -6.8335,9.6428 -4.0137,6.13 -7.5065,12.58 -10.7348,19.152 -4.1388,8.4464 -8.3405,16.889 -11.7679,25.6553 -0.6185,1.9976 -1.9521,5.8062 -1.4494,8.0006 0.2553,1.114 0.4485,2.4218 1.3158,3.1661 2.661,2.2834 3.6517,1.4158 5.9567,0.5459 7.2283,-5.1926 13.1278,-12.0432 19.6707,-18.0147 18.7429,-18.9529 37.2348,-38.1519 55.319,-57.7363 14.2335,-15.3402 28.732,-30.5053 41.6021,-47.0332 5.0817,-6.7698 9.8641,-13.7689 15.2504,-20.3057 1.4031,-1.6713 2.8606,-3.3079 4.1983,-5.0328 0.3183,-0.4104 1.1069,-0.768 0.9244,-1.2543 -2.5369,-6.7569 -1.5815,-6.6909 -4.6464,-5.8384 -4.897,2.0921 -9.2164,5.3115 -13.6821,8.1557 -18.7878,12.932 -37.3591,26.1733 -55.5329,39.9595 -27.3115,20.4608 -54.733,40.7752 -81.9492,61.3618 -3.3368,2.6383 -6.7039,5.2387 -10.0103,7.915 -5.4362,4.4002 -6.4946,5.4211 -11.068,9.4031 -0.287,0.2498 -3.9268,3.3718 -4.618,4.0507 -0.6192,0.6081 -1.1849,1.2684 -1.7773,1.9025 1.6891,1.7501 3.1716,3.7265 5.0673,5.2504 0.257,0.2066 0.5817,-0.3115 0.8632,-0.4832 0.4363,-0.2659 0.8599,-0.5522 1.2894,-0.8291 2.6118,-1.6839 5.2329,-3.3539 7.9165,-4.9225 12.5572,-7.4415 25.1468,-14.8416 38.0811,-21.6153 11.0885,-5.7341 22.1518,-11.5959 33.786,-16.1689 1.0666,-0.3917 2.0384,-0.8622 3.1877,-0.6758 1.4484,0.179 2.8826,0.4459 4.3173,0.7113 2.453,0.3904 4.9291,0.6482 7.3899,0.9833 1.5755,0.2083 3.1484,0.4434 4.7232,0.6464 -0.018,-0.021 -0.08,-0.07 -0.054,-0.062 0.089,0.028 0.3111,0.193 0.2495,0.1236 -0.4452,-0.5022 -1.0598,-0.8639 -1.4122,-1.435 -0.6045,-0.9795 -0.5285,-2.57 0.1375,-3.4807 0.3105,-0.3311 -0.028,0.013 0.51,-0.437 0.074,-0.062 -0.1543,0.1146 -0.2324,0.1706 -0.3226,0.2313 -0.6478,0.4592 -1.0041,0.6375 -1.3144,0.7583 -2.682,1.4004 -4.087,1.9817 -4.9913,1.9963 -10.0218,3.8903 -15.0237,5.8603 -12.4537,4.7926 -24.8508,9.7331 -37.3648,14.3686 -5.9611,2.1254 -7.6624,2.7757 -13.5131,4.7011 -3.8762,1.2756 -7.8098,2.6074 -11.8156,3.4375 -0.5204,0.1079 -1.0497,0.1665 -1.5746,0.2498 -5.3185,0.5318 -4.5664,8.0534 0.7521,7.5215 z" />
    </g>
    <path
       id="path183-5"
       d="m 1566.0766,1230.017 c -22.3284,9.5171 -36.9788,35.7576 -38.2842,59.3751 -1.4012,25.379 12.9693,49.0295 35.9325,59.7737 27.8391,13.0265 59.3217,4.6226 77.8597,-19.6307 0.1081,-0.139 0.171,-0.2857 0.2658,-0.4293 0.2717,-0.2874 0.5327,-0.6015 0.7719,-0.9563 8.8717,-13.1822 12.736,-27.9421 11.3054,-43.8017 -1.162,-12.8936 -3.5888,-27.5984 -11.3812,-38.2828 -15.7626,-21.6114 -53.1537,-25.9869 -76.4699,-16.048 z m 48.339,12.4226 c 30.8705,10.422 32.4495,55.018 16.8285,78.7486 -16.3527,20.5204 -43.2919,27.4836 -66.4891,13.4206 -22.5666,-13.6817 -30.0336,-42.8443 -17.943,-66.1821 5.8498,-11.2891 13.8156,-22.1493 26.051,-26.8263 13.0734,-4.9972 28.5156,-3.5611 41.5526,0.8392"
       style="display:inline;fill:#ecd9b8;fill-opacity:1;fill-rule:nonzero;stroke:none;stroke-width:0.154451"
       inkscape:export-filename="../../Desktop/portfolio-next-v2/public/images/menu-bubble.svg"
       inkscape:export-xdpi="96"
       inkscape:export-ydpi="96" />
    <path
       id="path184-4"
       d="m 1720.647,1186.4774 c -10.988,6.7386 -20.2819,12.4589 -24.9637,24.8707 -8.2104,21.7703 4.9414,46.3698 26.2829,54.4078 23.9422,9.0178 48.225,-4.2577 57.5763,-26.7388 0.2389,-0.4421 0.4419,-0.9285 0.5974,-1.4698 0.1963,-0.5156 0.3238,-1.0123 0.3938,-1.487 5.189,-20.4817 -0.9733,-50.3607 -23.2743,-58.2691 -13.0541,-4.6303 -25.6447,1.9583 -36.6124,8.6862 z m 34.2339,4.7887 c 14.3817,7.5379 16.3284,29.2612 12.4316,42.8417 -6.4471,16.9598 -26.189,26.5449 -43.1458,18.2065 -13.9275,-6.8472 -22.5805,-24.3247 -14.7971,-38.7285 6.1688,-11.4135 32.4594,-29.1602 45.5113,-22.3197"
       style="display:inline;fill:#ecd9b8;fill-opacity:1;fill-rule:nonzero;stroke:none;stroke-width:0.153542" />
    <path
       id="path12"
       d="m 1789.9448,1136.7638 c 0.1027,15.1622 13.5326,29.5962 29.1808,28.7895 15.7,-0.809 28.8993,-12.9322 28.7893,-29.1816 -0.1025,-15.162 -13.5325,-29.5963 -29.1816,-28.7894 -15.6997,0.8091 -28.8984,12.9321 -28.7885,29.1815"
       style="display:inline;fill:#fff2cf;fill-opacity:1;fill-rule:nonzero;stroke:none;stroke-width:0.175674" />
    <path
       id="path185-1"
       d="m 1794.3123,1124.562 c -4.8827,15.9042 -2.3767,40.6464 13.4202,49.368 16.3547,9.0291 32.2151,-5.7216 41.0255,-18.9698 0.2433,-0.317 0.4741,-0.6564 0.6832,-1.0429 0.3338,-0.52 0.5795,-1.038 0.7612,-1.5481 8.2392,-16.7019 3.9575,-33.681 -13.5385,-41.8262 -14.995,-6.9825 -36.683,-4.4507 -42.3516,14.019 z m 34.0553,-2.4462 c 11.7623,3.899 15.562,13.2337 9.3616,24.7028 -3.9919,6.2246 -11.4473,16.0987 -19.6547,15.8579 -13.4552,-0.3917 -12.0821,-18.5619 -10.9702,-27.281 0.5559,-4.3583 -0.2628,-7.8832 3.2885,-11.2187 4.8528,-4.5569 12.1629,-3.9886 17.9748,-2.061"
       style="display:inline;fill:#ecd9b8;fill-opacity:1;fill-rule:nonzero;stroke:none;stroke-width:0.158997" />
    <path
       id="path182"
       d="m 1126.6206,964.62872 c -44.384,2.8935 -85.9072,28.4994 -109.39,66.15708 -25.93361,41.5958 -21.19054,91.2717 -16.187,138.4848 -49.872,-27.2859 -114.66751,-35.583 -152.82443,15.8165 -30.46575,41.0382 -28.1872,92.5679 -8.52109,136.5567 -19.67767,-6.596 -40.20095,-9.2016 -62.58163,-5.8902 -36.70222,5.4294 -69.22956,25.5167 -91.28968,55.2431 -41.17255,55.485 -36.41977,128.554 2.03906,182.3431 -46.49512,9.671 -78.21828,50.2177 -83.989,99.4432 -5.29622,45.1622 8.52937,101.2514 46.55803,128.6157 -7.10959,4.3516 -13.98958,9.3262 -20.53832,14.7821 -44.53142,37.1043 -71.92491,88.9773 -74.59567,147.1122 -6.2054,135.0217 106.48225,292.4203 245.22215,307.947 77.64966,8.6896 138.19666,-33.567 185.85809,-89.3397 21.64479,30.1978 60.51349,45.9336 97.97639,40.6294 38.1523,-5.4008 69.5223,-32.7343 84.0329,-67.423 32.8927,30.663 90.842,17.7807 123.97,-12.5724 39.816,-36.4813 44.9899,-93.7002 20.6397,-138.6683 33.1802,-2.3988 65.6336,-5.3611 82.1659,-41.3869 17.0718,-37.2065 3.4437,-67.1074 -20.2378,-91.0626 11.1791,-0.4494 22.446,-2.723 34.0621,-7.4982 25.4086,-10.4408 45.3881,-29.9834 56.0974,-55.3344 22.6578,-53.6415 16.9318,-126.9223 -18.6158,-174.4727 66.8482,-22.6356 97.0501,-100.9164 74.8288,-168.133 -14.8629,-44.9405 -55.8931,-72.6152 -99.8874,-73.85 27.8106,-37.0715 41.0176,-89.9877 33.7298,-131.2446 -7.0342,-39.8381 -35.1041,-78.0418 -72.0395,-95.1175 -32.1546,-14.868 -68.5115,-13.7349 -101.6988,-3.2529 12.1046,-91.5733 -54.5666,-184.41448 -154.7842,-177.88448 z m 254.1726,209.64558 c 29.1338,18.0731 48.5517,51.2533 50.0564,85.3768 1.8343,41.6152 -20.3399,100.2725 -58.2336,122.3763 -14.8862,8.6853 -2.089,29.7744 13.1121,22.8527 45.6248,-20.7713 98.4282,6.0753 111.6872,53.0684 17.1159,60.6556 -13.3548,126.1559 -78.8033,135.7689 -9.8343,1.4441 -12.7186,15.7011 -5.99,21.9645 39.6518,36.9229 47.197,102.2236 31.827,152.8407 -7.3297,24.126 -23.9879,43.2443 -47.809,52.1471 -23.7294,8.8669 -44.5534,3.8856 -67.5869,-3.6852 -14.5129,-4.7693 -22.6853,16.1784 -10.3418,23.9892 31.9864,20.2441 77.1455,52.4005 50.0399,95.7568 -16.9665,27.1382 -52.1171,19.6009 -78.8355,22.8104 -11.4882,1.382 -17.2769,13.093 -9.4943,22.4116 28.4084,34.005 29.0129,84.9514 -2.0667,117.46 -27.46,28.7232 -84.6647,43.7219 -103.6345,-1.6112 -4.176,-9.9781 -22.5187,-7.9291 -24.0992,2.9504 -4.9511,34.0838 -26.8907,64.3499 -61.1127,73.9251 -32.5578,9.1103 -75.3699,-6.1406 -88.3996,-39.2195 -3.14399,-7.9836 -15.09737,-14.6761 -21.96459,-5.9901 -49.41259,62.4981 -112.39152,111.6423 -196.68419,92.1145 -74.62207,-17.2875 -131.54117,-78.2645 -166.78127,-143.578 -34.49565,-63.9274 -51.19477,-147.9693 -10.75998,-213.2405 14.84476,-23.9682 42.92421,-55.8335 73.50446,-69.4592 1.71219,0.3885 3.51032,0.3206 5.2717,-0.1005 3.49128,-0.3437 6.3876,-2.0935 8.38541,-4.6367 17.52316,-4.3225 35.33738,-1.6564 51.52735,12.7845 12.60227,11.2435 31.45447,-7.1657 18.77353,-18.4767 -25.48893,-22.7358 -54.43327,-25.7383 -82.06572,-17.232 -40.90034,-15.048 -53.98111,-68.2855 -50.79645,-107.7489 3.76319,-46.6124 35.58605,-84.4041 84.65242,-82.3152 11.55238,0.489 17.29708,-14.467 9.49429,-22.4087 -43.62556,-44.3948 -55.30211,-112.73 -18.981,-165.439 17.01068,-24.6849 42.94351,-41.9554 72.49531,-47.424 32.91131,-6.0907 60.99283,4.1774 88.84721,20.7109 13.69673,8.1293 24.90328,-9.3541 16.12741,-20.5576 -30.12138,-38.461 -43.9668,-95.1141 -14.99803,-138.6717 34.79149,-52.313 102.53793,-27.1896 142.89484,2.3841 7.7267,5.662 20.7586,-1.6518 19.9094,-11.2133 -3.7246,-41.8405 -14.4321,-90.8912 0.3791,-131.5069 13.4217,-36.8155 48.5409,-64.72758 86.895,-71.35928 39.4555,-6.821 81.2134,9.94628 107.9586,38.98988 32.1002,34.8605 38.7234,84.4996 25.6614,128.8556 -3.4456,11.7053 9.2553,19.775 19.229,15.0291 33.845,-16.1039 77.4645,-21.313 110.7093,-0.6931"
       style="display:inline;fill:#383026;fill-opacity:1;fill-rule:nonzero;stroke:none;stroke-width:0.304665" />
    <path
       id="path183"
       d="m 1558.5033,1216.923 c -25.4057,10.8191 -42.0734,40.6525 -43.5571,67.5047 -1.5923,28.8548 14.7606,55.7456 40.8901,67.9631 31.6774,14.8126 67.4988,5.2602 88.5902,-22.3137 0.122,-0.1579 0.1948,-0.3246 0.3023,-0.488 0.3094,-0.3267 0.6062,-0.6838 0.8783,-1.087 10.0935,-14.987 14.4894,-31.7684 12.8604,-49.8003 -1.323,-14.6596 -4.0855,-31.3786 -12.9526,-43.5268 -17.9371,-24.5728 -60.4825,-29.5503 -87.0116,-18.252 z m 55.0029,14.1278 c 35.1263,11.8518 36.9263,62.5558 19.1539,89.5355 -18.6052,23.3298 -49.2572,31.2449 -75.653,15.2539 -25.6781,-15.5574 -34.1764,-48.7148 -20.4211,-75.248 6.6553,-12.8348 15.7182,-25.1819 29.6398,-30.4986 14.8752,-5.6805 32.4458,-4.0467 47.2804,0.9572"
       style="display:inline;fill:#383026;fill-opacity:1;fill-rule:nonzero;stroke:none;stroke-width:0.175674" />
    <path
       id="path184"
       d="m 1713.6187,1178.0702 c -12.5669,7.711 -23.1968,14.2568 -28.5502,28.4614 -9.3882,24.9149 5.6576,53.0708 30.0689,62.2729 27.386,10.3237 55.1589,-4.8671 65.852,-30.5954 0.2732,-0.5059 0.5055,-1.0628 0.6832,-1.6822 0.2245,-0.5901 0.3702,-1.1586 0.4502,-1.7019 5.9326,-23.4405 -1.1193,-57.6377 -26.6282,-66.6916 -14.9317,-5.3011 -29.332,2.238 -41.8759,9.9368 z m 39.1571,5.4849 c 16.4508,8.6288 18.6799,33.4913 14.2244,49.0337 -7.3719,19.4097 -29.9515,30.3773 -49.3475,20.8322 -15.9309,-7.8384 -25.8304,-27.8425 -16.9296,-44.3266 7.0545,-13.0621 37.1232,-33.3699 52.0527,-25.5393"
       style="display:inline;fill:#383026;fill-opacity:1;fill-rule:nonzero;stroke:none;stroke-width:0.175674" />
    <path
       id="path185"
       d="m 1786.9066,1121.8712 c -5.6455,17.2352 -3.0209,43.9642 14.7451,53.2621 18.3933,9.6259 36.4257,-6.453 46.4849,-20.8492 0.277,-0.3446 0.5405,-0.7136 0.78,-1.1333 0.3812,-0.5648 0.663,-1.127 0.8724,-1.68 9.4423,-18.1253 4.7486,-36.4464 -14.9413,-45.1077 -16.8748,-7.4243 -41.3866,-4.5072 -47.9411,15.5081 z m 38.4766,-2.9271 c 13.2502,4.1177 17.4633,14.1782 10.3667,26.6292 -4.5597,6.763 -13.0602,17.4999 -22.3265,17.3078 -15.1906,-0.3117 -13.4896,-19.9676 -12.1615,-29.4035 0.6639,-4.7162 -0.2313,-8.5206 3.8067,-12.1562 5.5175,-4.9668 13.7677,-4.413 20.3146,-2.3773"
       style="display:inline;fill:#383026;fill-opacity:1;fill-rule:nonzero;stroke:none;stroke-width:0.175674" />
    <path
       id="path187"
       d="m 725.03935,2154.7693 c 30.19713,29.0505 70.65153,40.8287 111.73417,32.8522 8.3154,-1.6148 4.90492,-14.3396 -3.39826,-12.7285 -36.39551,7.067 -72.25456,-3.6829 -98.94764,-29.3619 -6.10714,-5.8747 -15.51051,3.3455 -9.38827,9.2382"
       style="display:inline;fill:#383026;fill-opacity:1;fill-rule:nonzero;stroke:none;stroke-width:0.304665" />
    <path
       id="path188"
       d="m 766.46184,2139.0159 c 21.88019,14.956 47.49985,19.9395 73.46709,15.0453 8.32114,-1.5691 4.90759,-14.2924 -3.4013,-12.7295 -22.59245,4.2604 -44.42199,-0.7138 -63.32667,-13.6349 -7.01769,-4.7942 -13.70832,6.5558 -6.73912,11.3191"
       style="display:inline;fill:#383026;fill-opacity:1;fill-rule:nonzero;stroke:none;stroke-width:0.304665" />
    <path
       id="path189"
       d="m 788.34507,2117.2585 c 21.74292,6.2748 43.7211,7.1675 65.94139,2.9622 8.32118,-1.5752 4.90766,-14.3015 -3.39519,-12.7292 -19.9165,3.77 -39.47728,2.7107 -58.94345,-2.9058 -8.1555,-2.3538 -11.74606,10.3222 -3.60275,12.6728"
       style="display:inline;fill:#383026;fill-opacity:1;fill-rule:nonzero;stroke:none;stroke-width:0.304665" />
    <path
       id="path190"
       d="m 1391.026,1282.2938 c 0.192,30.649 -16.7574,57.5738 -44.2587,70.9805 -7.6194,3.7135 -1.048,15.1309 6.556,11.4263 31.5327,-15.373 51.0938,-47.2765 50.873,-82.3008 -0.054,-8.4702 -13.2268,-8.5977 -13.1703,-0.1051"
       style="display:inline;fill:#383026;fill-opacity:1;fill-rule:nonzero;stroke:none;stroke-width:0.304665" />
    <path
       id="path191"
       d="m 880.82297,1228.1745 c -11.24062,31.9371 -6.35065,66.3895 13.55847,93.8183 4.92683,6.785 16.41336,0.3148 11.4263,-6.5561 -18.06795,-24.8943 -22.54536,-54.5814 -12.31491,-83.6595 2.81876,-8.0116 -9.86977,-11.5657 -12.66986,-3.6027"
       style="display:inline;fill:#383026;fill-opacity:1;fill-rule:nonzero;stroke:none;stroke-width:0.304665" />
    <path
       id="path192"
       d="m 1542.9504,1295.504 c 3.5438,19.0976 22.62,31.3261 41.4232,27.948 4.8027,-0.8611 2.6376,-8.1454 -2.1387,-7.2884 -15.0199,2.6996 -29.2715,-8.1183 -31.9958,-22.7985 -0.8893,-4.7987 -8.1733,-2.6354 -7.2887,2.1389"
       style="display:inline;fill:#383026;fill-opacity:1;fill-rule:nonzero;stroke:none;stroke-width:0.175674" />
    <path
       id="path193"
       d="m 1603.8209,1357.6735 c -1.1785,4.7429 6.1902,6.5809 7.3704,1.8308 1.1786,-4.7432 -6.1901,-6.5814 -7.3704,-1.8308"
       style="display:inline;fill:#383026;fill-opacity:1;fill-rule:nonzero;stroke:none;stroke-width:0.175674" />
    <path
       id="path194"
       d="m 1718.4085,1220.5254 c 1.4032,-11.2283 9.8688,-20.3733 20.6497,-23.3118 4.71,-1.2843 2.6595,-8.5979 -2.0681,-7.3098 -14.3615,3.9147 -24.3475,16.0426 -26.1758,30.673 -0.6032,4.8353 6.996,4.7364 7.5942,-0.052"
       style="display:inline;fill:#383026;fill-opacity:1;fill-rule:nonzero;stroke:none;stroke-width:0.175674" />
    <path
       id="path195"
       d="m 585.19729,1771.6206 c 6.21179,5.7444 15.62728,-3.4664 9.38829,-9.2383 -22.74525,-21.0413 -34.00815,-50.6822 -29.58242,-81.5711 1.18479,-8.2776 -11.47522,-11.9688 -12.6729,-3.6028 -5.08442,35.5024 6.39594,69.9226 32.86703,94.4122"
       style="display:inline;fill:#383026;fill-opacity:1;fill-rule:nonzero;stroke:none;stroke-width:0.304665" />
    <path
       id="path196"
       d="m 519.58142,1724.0567 c 0.9062,23.6805 12.00954,44.3781 30.91628,58.5576 6.78679,5.091 13.45626,-6.2807 6.73912,-11.3193 -15.00002,-11.2475 -23.77013,-28.4651 -24.48515,-47.1323 -0.32509,-8.4421 -13.49799,-8.5968 -13.17025,-0.1051"
       style="display:inline;fill:#383026;fill-opacity:1;fill-rule:nonzero;stroke:none;stroke-width:0.304665" />
    <path
       id="path197"
       d="m 1390.171,1712.5129 c 10.2397,42.8312 -29.0712,78.2351 -70.7282,64.8382 -8.0865,-2.6031 -11.6588,10.0793 -3.6027,12.6698 51.4939,16.5623 99.5665,-28.5996 87.0602,-80.9062 -1.9719,-8.2422 -14.7041,-4.8593 -12.7293,3.3982"
       style="display:inline;fill:#383026;fill-opacity:1;fill-rule:nonzero;stroke:none;stroke-width:0.304665" />
    <path
       id="path198"
       d="m 1384.288,1673.1135 c -0.01,0.8745 -0.014,1.7457 -0.021,2.6202 -0.068,8.4755 13.102,8.5936 13.1703,0.1051 0.01,-0.8745 0.014,-1.7457 0.021,-2.6202 0.068,-8.4755 -13.102,-8.5936 -13.1703,-0.1051"
       style="display:inline;fill:#383026;fill-opacity:1;fill-rule:nonzero;stroke:none;stroke-width:0.304665" />
    <path
       style="display:inline;fill:#000000;fill-opacity:0;stroke-width:3.25446"
       d="m 778.09336,2218.3837 c -57.0565,-14.9183 -111.81903,-60.5772 -151.81338,-126.5763 -76.04349,-125.4877 -48.84924,-248.2767 66.20237,-298.9208 10.1372,-4.4622 32.92468,-0.662 43.67082,7.283 21.52497,15.9141 44.09868,-0.7395 24.85427,-18.3361 -16.22621,-14.8368 -28.70349,-18.7044 -60.5792,-18.7776 l -30.47543,-0.07 -11.43658,-13.0179 c -17.42096,-19.8296 -24.5621,-38.5375 -26.20153,-68.641 -1.75683,-32.259 4.49851,-56.2633 19.32589,-74.1614 12.73389,-15.3711 38.54743,-27.9819 57.36525,-28.0249 11.60221,-0.027 14.50588,-1.3589 17.55726,-8.0559 2.84642,-6.2473 2.65081,-9.4053 -0.88338,-14.2611 -32.91302,-45.2205 -39.90083,-62.4901 -39.70663,-98.1299 0.25116,-46.0912 24.59352,-85.8074 64.02015,-104.4532 35.54313,-16.8093 65.90649,-15.2297 106.93906,5.563 12.2921,6.2289 17.04086,7.1913 22.10661,4.4802 8.39973,-4.4954 8.32796,-17.4835 -0.16249,-29.4072 -22.07439,-31.0007 -30.74075,-72.8541 -21.57292,-104.1846 16.7174,-57.1306 71.89231,-71.2191 133.53769,-34.0977 10.50911,6.3283 22.41201,11.5061 26.45081,11.5061 13.4869,0 15.0368,-5.9454 11.0659,-42.4476 -5.1548,-47.3832 -2.6767,-88.7074 6.4583,-107.7006 11.9577,-24.862 27.8639,-40.617 54.0952,-53.5812 23.1092,-11.42118 25.1561,-11.83808 51.0819,-10.40548 34.6377,1.914 59.393,13.75928 83.2046,39.81298 27.6182,30.2188 36.2436,65.4576 28.8489,117.8623 -2.6029,18.4465 -2.2955,20.3036 3.9102,23.6249 5.332,2.8535 11.8034,1.9032 31.0617,-4.5616 46.2798,-15.5356 79.5779,-9.19 109.7065,20.9068 29.8345,29.803 38.74,65.0969 27.4056,108.6125 -7.554,29.002 -20.3691,51.0051 -41.6446,71.5025 -18.3321,17.6616 -19.3057,19.3464 -15.7238,27.2078 3.3981,7.4582 5.1517,8.16 15.9348,6.3779 51.2598,-8.4713 69.5481,-4.4086 92.996,20.6591 47.1278,50.3834 23.2736,141.7891 -42.1613,161.5558 -18.8697,5.7003 -27.3277,11.7539 -27.3277,19.5594 0,2.1734 5.3501,10.3144 11.8891,18.0911 24.801,29.4953 35.4971,70.023 30.1133,114.0994 -7.9665,65.2204 -50.7732,96.4898 -108.2283,79.0585 -19.3539,-5.8718 -28.1535,-2.4521 -28.1535,10.941 0,7.3726 3.4,11.4495 17.8449,21.3981 46.0068,31.6861 57.803,65.6016 31.5613,90.7427 -11.2986,10.8247 -25.7094,15.2096 -49.9864,15.2096 -22.9445,0 -35.2188,4.3476 -35.2188,12.4746 0,3.3698 5.1258,15.9608 11.3906,27.98 19.7291,37.8506 15.1371,73.1089 -13.2399,101.659 -16.2002,16.2991 -39.1979,27.1183 -57.6434,27.1183 -11.856,0 -28.9573,-10.8108 -36.8306,-23.2829 -5.5319,-8.7632 -10.209,-12.5161 -15.5979,-12.5161 -9.5754,0 -13.4081,4.5505 -17.8588,21.204 -5.9145,22.1301 -21.2087,42.6041 -40.0877,53.6644 -15.9393,9.3381 -19.0892,10.0116 -41.0587,8.7795 -19.7841,-1.1096 -26.0759,-2.9376 -37.3267,-10.845 -7.4424,-5.2307 -17.347,-15.1283 -22.0101,-21.9947 -15.50549,-22.8312 -16.67179,-22.5519 -49.84549,11.94 -33.82071,35.1646 -62.19003,54.8613 -92.50223,64.2238 -24.71655,7.6341 -59.20551,8.1808 -85.32152,1.3524 z m 61.49536,-30.412 c 2.49827,-1.5819 3.64262,-5.2208 2.54299,-8.0863 -1.56394,-4.0756 -6.85389,-5.2102 -24.292,-5.2102 -28.73442,0 -51.93905,-7.0299 -70.84835,-21.4637 -8.30777,-6.3414 -17.15676,-10.7426 -19.66443,-9.7803 -15.83461,6.0763 13.44313,31.6747 49.1392,42.9639 15.07212,4.7667 56.45225,5.8002 63.12259,1.5766 z m -1.2629,-32.8327 c 5.60122,-2.1296 8.20428,-5.24 7.48988,-8.9498 -0.9028,-4.6881 -4.79927,-5.7218 -22.20442,-5.8907 -14.52502,-0.1409 -26.37679,-2.5233 -37.99629,-7.6376 -9.28775,-4.0881 -18.44092,-6.4723 -20.34038,-5.2984 -6.96156,4.3025 -3.13295,11.5449 9.51374,17.9968 22.93237,11.6992 48.24225,15.5949 63.53747,9.7797 z m 17.06098,-34.3282 c 2.23744,-0.6914 4.06807,-4.327 4.06807,-8.0792 0,-6.2811 -1.61287,-6.7608 -20.34038,-6.05 -11.18721,0.4247 -28.0226,-0.3492 -37.412,-1.7196 -14.37587,-2.0983 -17.39907,-1.6384 -19.14528,2.9121 -1.14051,2.9721 -0.68922,6.7883 1.00287,8.4804 6.47746,6.4775 55.45344,9.5161 71.82672,4.4563 z m 521.0037,-337.9353 c 16.3875,-11.3565 29.8137,-36.6031 29.8137,-56.0614 0,-17.7104 -2.5612,-24.0356 -9.7324,-24.0356 -4.8071,0 -6.0083,3.5598 -7.1264,21.1189 -1.4943,23.4671 -7.3387,34.0669 -25.7484,46.6991 -9.2674,6.359 -14.185,7.3941 -29.903,6.2942 -13.59,-0.9511 -19.8794,-0.03 -22.6584,3.3186 -7.169,8.6381 6.1521,14.3409 30.4772,13.0472 17.2189,-0.9157 24.2311,-3.0028 34.8777,-10.381 z m -322.225,-54.875 c 3.5238,-9.3972 5.9711,-17.5479 5.4385,-18.1126 -0.5326,-0.5647 -10.1815,3.6241 -21.4419,9.3083 l -20.4735,10.335 12.8216,7.7609 c 7.052,4.2686 13.8177,7.7685 15.0351,7.7777 1.2174,0.01 5.0965,-7.672 8.6202,-17.0693 z m 344.3688,-49.6719 c 2.4655,-6.425 -4.5161,-14.7186 -10.4676,-12.4348 -2.554,0.9801 -4.6437,5.2865 -4.6437,9.5699 0,5.6585 1.8077,7.788 6.611,7.788 3.6361,0 7.4612,-2.2154 8.5003,-4.9231 z m -38.5445,-315.3636 c 21.8785,-11.462 41.1883,-41.196 44.7775,-68.9505 1.794,-13.8725 1.2378,-16.9504 -3.3835,-18.7237 -8.335,-3.1985 -10.3978,-0.4714 -12.685,16.7704 -2.655,20.0145 -17.3419,43.3418 -34.392,54.625 -14.3042,9.4661 -15.1859,11.078 -9.2865,16.9775 4.8384,4.8383 4.3575,4.8608 14.9695,-0.6987 z m -451.71802,-41.4477 c 0,-2.059 -4.02577,-11.9444 -8.94612,-21.9676 -8.90614,-18.1425 -9.76691,-27.0247 -6.49681,-67.0408 0.64229,-7.8597 -0.47127,-9.7634 -5.71106,-9.7634 -10.05857,0 -16.49623,29.6702 -11.89527,54.8236 5.15043,28.1572 15.4738,47.6919 25.20342,47.6919 4.3152,0 7.84584,-1.6846 7.84584,-3.7437 z"
       id="path267" />
    <path
       style="display:inline;fill:#000000;fill-opacity:0;stroke-width:3.25446"
       d="m 778.09336,2218.3837 c -57.0565,-14.9183 -111.81903,-60.5772 -151.81338,-126.5763 -76.04349,-125.4877 -48.84924,-248.2767 66.20237,-298.9208 10.1372,-4.4622 32.92468,-0.662 43.67082,7.283 21.52497,15.9141 44.09868,-0.7395 24.85427,-18.3361 -16.22621,-14.8368 -28.70349,-18.7044 -60.5792,-18.7776 l -30.47543,-0.07 -11.43658,-13.0179 c -17.42096,-19.8296 -24.5621,-38.5375 -26.20153,-68.641 -1.75683,-32.259 4.49851,-56.2633 19.32589,-74.1614 12.73389,-15.3711 38.54743,-27.9819 57.36525,-28.0249 11.60221,-0.027 14.50588,-1.3589 17.55726,-8.0559 2.84642,-6.2473 2.65081,-9.4053 -0.88338,-14.2611 -32.91302,-45.2205 -39.90083,-62.4901 -39.70663,-98.1299 0.25116,-46.0912 24.59352,-85.8074 64.02015,-104.4532 35.54313,-16.8093 65.90649,-15.2297 106.93906,5.563 12.2921,6.2289 17.04086,7.1913 22.10661,4.4802 8.39973,-4.4954 8.32796,-17.4835 -0.16249,-29.4072 -22.07439,-31.0007 -30.74075,-72.8541 -21.57292,-104.1846 16.7174,-57.1306 71.89231,-71.2191 133.53769,-34.0977 10.50911,6.3283 22.41201,11.5061 26.45081,11.5061 13.4869,0 15.0368,-5.9454 11.0659,-42.4476 -5.1548,-47.3832 -2.6767,-88.7074 6.4583,-107.7006 11.9577,-24.862 27.8639,-40.617 54.0952,-53.5812 23.1092,-11.42118 25.1561,-11.83808 51.0819,-10.40548 34.6377,1.914 59.393,13.75928 83.2046,39.81298 27.6182,30.2188 36.2436,65.4576 28.8489,117.8623 -2.6029,18.4465 -2.2955,20.3036 3.9102,23.6249 5.332,2.8535 11.8034,1.9032 31.0617,-4.5616 46.2798,-15.5356 79.5779,-9.19 109.7065,20.9068 29.8345,29.803 38.74,65.0969 27.4056,108.6125 -7.554,29.002 -20.3691,51.0051 -41.6446,71.5025 -18.3321,17.6616 -19.3057,19.3464 -15.7238,27.2078 3.3981,7.4582 5.1517,8.16 15.9348,6.3779 51.2598,-8.4713 69.5481,-4.4086 92.996,20.6591 47.1278,50.3834 23.2736,141.7891 -42.1613,161.5558 -18.8697,5.7003 -27.3277,11.7539 -27.3277,19.5594 0,2.1734 5.3501,10.3144 11.8891,18.0911 24.801,29.4953 35.4971,70.023 30.1133,114.0994 -7.9665,65.2204 -50.7732,96.4898 -108.2283,79.0585 -19.3539,-5.8718 -28.1535,-2.4521 -28.1535,10.941 0,7.3726 3.4,11.4495 17.8449,21.3981 46.0068,31.6861 57.803,65.6016 31.5613,90.7427 -11.2986,10.8247 -25.7094,15.2096 -49.9864,15.2096 -22.9445,0 -35.2188,4.3476 -35.2188,12.4746 0,3.3698 5.1258,15.9608 11.3906,27.98 19.7291,37.8506 15.1371,73.1089 -13.2399,101.659 -16.2002,16.2991 -39.1979,27.1183 -57.6434,27.1183 -11.856,0 -28.9573,-10.8108 -36.8306,-23.2829 -5.5319,-8.7632 -10.209,-12.5161 -15.5979,-12.5161 -9.5754,0 -13.4081,4.5505 -17.8588,21.204 -5.9145,22.1301 -21.2087,42.6041 -40.0877,53.6644 -15.9393,9.3381 -19.0892,10.0116 -41.0587,8.7795 -19.7841,-1.1096 -26.0759,-2.9376 -37.3267,-10.845 -7.4424,-5.2307 -17.347,-15.1283 -22.0101,-21.9947 -15.50549,-22.8312 -16.67179,-22.5519 -49.84549,11.94 -33.82071,35.1646 -62.19003,54.8613 -92.50223,64.2238 -24.71655,7.6341 -59.20551,8.1808 -85.32152,1.3524 z m 61.49536,-30.412 c 2.49827,-1.5819 3.64262,-5.2208 2.54299,-8.0863 -1.56394,-4.0756 -6.85389,-5.2102 -24.292,-5.2102 -28.73442,0 -51.93905,-7.0299 -70.84835,-21.4637 -8.30777,-6.3414 -17.15676,-10.7426 -19.66443,-9.7803 -15.83461,6.0763 13.44313,31.6747 49.1392,42.9639 15.07212,4.7667 56.45225,5.8002 63.12259,1.5766 z m -1.2629,-32.8327 c 5.60122,-2.1296 8.20428,-5.24 7.48988,-8.9498 -0.9028,-4.6881 -4.79927,-5.7218 -22.20442,-5.8907 -14.52502,-0.1409 -26.37679,-2.5233 -37.99629,-7.6376 -9.28775,-4.0881 -18.44092,-6.4723 -20.34038,-5.2984 -6.96156,4.3025 -3.13295,11.5449 9.51374,17.9968 22.93237,11.6992 48.24225,15.5949 63.53747,9.7797 z m 17.06098,-34.3282 c 2.23744,-0.6914 4.06807,-4.327 4.06807,-8.0792 0,-6.2811 -1.61287,-6.7608 -20.34038,-6.05 -11.18721,0.4247 -28.0226,-0.3492 -37.412,-1.7196 -14.37587,-2.0983 -17.39907,-1.6384 -19.14528,2.9121 -1.14051,2.9721 -0.68922,6.7883 1.00287,8.4804 6.47746,6.4775 55.45344,9.5161 71.82672,4.4563 z m 521.0037,-337.9353 c 16.3875,-11.3565 29.8137,-36.6031 29.8137,-56.0614 0,-17.7104 -2.5612,-24.0356 -9.7324,-24.0356 -4.8071,0 -6.0083,3.5598 -7.1264,21.1189 -1.4943,23.4671 -7.3387,34.0669 -25.7484,46.6991 -9.2674,6.359 -14.185,7.3941 -29.903,6.2942 -13.59,-0.9511 -19.8794,-0.03 -22.6584,3.3186 -7.169,8.6381 6.1521,14.3409 30.4772,13.0472 17.2189,-0.9157 24.2311,-3.0028 34.8777,-10.381 z m -322.225,-54.875 c 3.5238,-9.3972 5.9711,-17.5479 5.4385,-18.1126 -0.5326,-0.5647 -10.1815,3.6241 -21.4419,9.3083 l -20.4735,10.335 12.8216,7.7609 c 7.052,4.2686 13.8177,7.7685 15.0351,7.7777 1.2174,0.01 5.0965,-7.672 8.6202,-17.0693 z m 344.3688,-49.6719 c 2.4655,-6.425 -4.5161,-14.7186 -10.4676,-12.4348 -2.554,0.9801 -4.6437,5.2865 -4.6437,9.5699 0,5.6585 1.8077,7.788 6.611,7.788 3.6361,0 7.4612,-2.2154 8.5003,-4.9231 z m -38.5445,-315.3636 c 21.8785,-11.462 41.1883,-41.196 44.7775,-68.9505 1.794,-13.8725 1.2378,-16.9504 -3.3835,-18.7237 -8.335,-3.1985 -10.3978,-0.4714 -12.685,16.7704 -2.655,20.0145 -17.3419,43.3418 -34.392,54.625 -14.3042,9.4661 -15.1859,11.078 -9.2865,16.9775 4.8384,4.8383 4.3575,4.8608 14.9695,-0.6987 z m -451.71802,-41.4477 c 0,-2.059 -4.02577,-11.9444 -8.94612,-21.9676 -8.90614,-18.1425 -9.76691,-27.0247 -6.49681,-67.0408 0.64229,-7.8597 -0.47127,-9.7634 -5.71106,-9.7634 -10.05857,0 -16.49623,29.6702 -11.89527,54.8236 5.15043,28.1572 15.4738,47.6919 25.20342,47.6919 4.3152,0 7.84584,-1.6846 7.84584,-3.7437 z"
       id="path268" />
    <path
       style="display:inline;fill:#000000;fill-opacity:0;stroke-width:3.25446"
       d="m 778.09336,2218.3837 c -57.0565,-14.9183 -111.81903,-60.5772 -151.81338,-126.5763 -76.04349,-125.4877 -48.84924,-248.2767 66.20237,-298.9208 10.1372,-4.4622 32.92468,-0.662 43.67082,7.283 21.52497,15.9141 44.09868,-0.7395 24.85427,-18.3361 -16.22621,-14.8368 -28.70349,-18.7044 -60.5792,-18.7776 l -30.47543,-0.07 -11.43658,-13.0179 c -17.42096,-19.8296 -24.5621,-38.5375 -26.20153,-68.641 -1.75683,-32.259 4.49851,-56.2633 19.32589,-74.1614 12.73389,-15.3711 38.54743,-27.9819 57.36525,-28.0249 11.60221,-0.027 14.50588,-1.3589 17.55726,-8.0559 2.84642,-6.2473 2.65081,-9.4053 -0.88338,-14.2611 -32.91302,-45.2205 -39.90083,-62.4901 -39.70663,-98.1299 0.25116,-46.0912 24.59352,-85.8074 64.02015,-104.4532 35.54313,-16.8093 65.90649,-15.2297 106.93906,5.563 12.2921,6.2289 17.04086,7.1913 22.10661,4.4802 8.39973,-4.4954 8.32796,-17.4835 -0.16249,-29.4072 -22.07439,-31.0007 -30.74075,-72.8541 -21.57292,-104.1846 16.7174,-57.1306 71.89231,-71.2191 133.53769,-34.0977 10.50911,6.3283 22.41201,11.5061 26.45081,11.5061 13.4869,0 15.0368,-5.9454 11.0659,-42.4476 -5.1548,-47.3832 -2.6767,-88.7074 6.4583,-107.7006 11.9577,-24.862 27.8639,-40.617 54.0952,-53.5812 23.1092,-11.42118 25.1561,-11.83808 51.0819,-10.40548 34.6377,1.914 59.393,13.75928 83.2046,39.81298 27.6182,30.2188 36.2436,65.4576 28.8489,117.8623 -2.6029,18.4465 -2.2955,20.3036 3.9102,23.6249 5.332,2.8535 11.8034,1.9032 31.0617,-4.5616 46.2798,-15.5356 79.5779,-9.19 109.7065,20.9068 29.8345,29.803 38.74,65.0969 27.4056,108.6125 -7.554,29.002 -20.3691,51.0051 -41.6446,71.5025 -18.3321,17.6616 -19.3057,19.3464 -15.7238,27.2078 3.3981,7.4582 5.1517,8.16 15.9348,6.3779 51.2598,-8.4713 69.5481,-4.4086 92.996,20.6591 47.1278,50.3834 23.2736,141.7891 -42.1613,161.5558 -18.8697,5.7003 -27.3277,11.7539 -27.3277,19.5594 0,2.1734 5.3501,10.3144 11.8891,18.0911 24.801,29.4953 35.4971,70.023 30.1133,114.0994 -7.9665,65.2204 -50.7732,96.4898 -108.2283,79.0585 -19.3539,-5.8718 -28.1535,-2.4521 -28.1535,10.941 0,7.3726 3.4,11.4495 17.8449,21.3981 46.0068,31.6861 57.803,65.6016 31.5613,90.7427 -11.2986,10.8247 -25.7094,15.2096 -49.9864,15.2096 -22.9445,0 -35.2188,4.3476 -35.2188,12.4746 0,3.3698 5.1258,15.9608 11.3906,27.98 19.7291,37.8506 15.1371,73.1089 -13.2399,101.659 -16.2002,16.2991 -39.1979,27.1183 -57.6434,27.1183 -11.856,0 -28.9573,-10.8108 -36.8306,-23.2829 -5.5319,-8.7632 -10.209,-12.5161 -15.5979,-12.5161 -9.5754,0 -13.4081,4.5505 -17.8588,21.204 -5.9145,22.1301 -21.2087,42.6041 -40.0877,53.6644 -15.9393,9.3381 -19.0892,10.0116 -41.0587,8.7795 -19.7841,-1.1096 -26.0759,-2.9376 -37.3267,-10.845 -7.4424,-5.2307 -17.347,-15.1283 -22.0101,-21.9947 -15.50549,-22.8312 -16.67179,-22.5519 -49.84549,11.94 -33.82071,35.1646 -62.19003,54.8613 -92.50223,64.2238 -24.71655,7.6341 -59.20551,8.1808 -85.32152,1.3524 z m 61.49536,-30.412 c 2.49827,-1.5819 3.64262,-5.2208 2.54299,-8.0863 -1.56394,-4.0756 -6.85389,-5.2102 -24.292,-5.2102 -28.73442,0 -51.93905,-7.0299 -70.84835,-21.4637 -8.30777,-6.3414 -17.15676,-10.7426 -19.66443,-9.7803 -15.83461,6.0763 13.44313,31.6747 49.1392,42.9639 15.07212,4.7667 56.45225,5.8002 63.12259,1.5766 z m -1.2629,-32.8327 c 5.60122,-2.1296 8.20428,-5.24 7.48988,-8.9498 -0.9028,-4.6881 -4.79927,-5.7218 -22.20442,-5.8907 -14.52502,-0.1409 -26.37679,-2.5233 -37.99629,-7.6376 -9.28775,-4.0881 -18.44092,-6.4723 -20.34038,-5.2984 -6.96156,4.3025 -3.13295,11.5449 9.51374,17.9968 22.93237,11.6992 48.24225,15.5949 63.53747,9.7797 z m 17.06098,-34.3282 c 2.23744,-0.6914 4.06807,-4.327 4.06807,-8.0792 0,-6.2811 -1.61287,-6.7608 -20.34038,-6.05 -11.18721,0.4247 -28.0226,-0.3492 -37.412,-1.7196 -14.37587,-2.0983 -17.39907,-1.6384 -19.14528,2.9121 -1.14051,2.9721 -0.68922,6.7883 1.00287,8.4804 6.47746,6.4775 55.45344,9.5161 71.82672,4.4563 z m 521.0037,-337.9353 c 16.3875,-11.3565 29.8137,-36.6031 29.8137,-56.0614 0,-17.7104 -2.5612,-24.0356 -9.7324,-24.0356 -4.8071,0 -6.0083,3.5598 -7.1264,21.1189 -1.4943,23.4671 -7.3387,34.0669 -25.7484,46.6991 -9.2674,6.359 -14.185,7.3941 -29.903,6.2942 -13.59,-0.9511 -19.8794,-0.03 -22.6584,3.3186 -7.169,8.6381 6.1521,14.3409 30.4772,13.0472 17.2189,-0.9157 24.2311,-3.0028 34.8777,-10.381 z m -322.225,-54.875 c 3.5238,-9.3972 5.9711,-17.5479 5.4385,-18.1126 -0.5326,-0.5647 -10.1815,3.6241 -21.4419,9.3083 l -20.4735,10.335 12.8216,7.7609 c 7.052,4.2686 13.8177,7.7685 15.0351,7.7777 1.2174,0.01 5.0965,-7.672 8.6202,-17.0693 z m 344.3688,-49.6719 c 2.4655,-6.425 -4.5161,-14.7186 -10.4676,-12.4348 -2.554,0.9801 -4.6437,5.2865 -4.6437,9.5699 0,5.6585 1.8077,7.788 6.611,7.788 3.6361,0 7.4612,-2.2154 8.5003,-4.9231 z m -38.5445,-315.3636 c 21.8785,-11.462 41.1883,-41.196 44.7775,-68.9505 1.794,-13.8725 1.2378,-16.9504 -3.3835,-18.7237 -8.335,-3.1985 -10.3978,-0.4714 -12.685,16.7704 -2.655,20.0145 -17.3419,43.3418 -34.392,54.625 -14.3042,9.4661 -15.1859,11.078 -9.2865,16.9775 4.8384,4.8383 4.3575,4.8608 14.9695,-0.6987 z m -451.71802,-41.4477 c 0,-2.059 -4.02577,-11.9444 -8.94612,-21.9676 -8.90614,-18.1425 -9.76691,-27.0247 -6.49681,-67.0408 0.64229,-7.8597 -0.47127,-9.7634 -5.71106,-9.7634 -10.05857,0 -16.49623,29.6702 -11.89527,54.8236 5.15043,28.1572 15.4738,47.6919 25.20342,47.6919 4.3152,0 7.84584,-1.6846 7.84584,-3.7437 z"
       id="path269" />
    <path
       style="display:inline;fill:#000000;fill-opacity:0;stroke-width:3.25446"
       d="m 778.09336,2218.3837 c -57.0565,-14.9183 -111.81903,-60.5772 -151.81338,-126.5763 -76.04349,-125.4877 -48.84924,-248.2767 66.20237,-298.9208 10.1372,-4.4622 32.92468,-0.662 43.67082,7.283 21.52497,15.9141 44.09868,-0.7395 24.85427,-18.3361 -16.22621,-14.8368 -28.70349,-18.7044 -60.5792,-18.7776 l -30.47543,-0.07 -11.43658,-13.0179 c -17.42096,-19.8296 -24.5621,-38.5375 -26.20153,-68.641 -1.75683,-32.259 4.49851,-56.2633 19.32589,-74.1614 12.73389,-15.3711 38.54743,-27.9819 57.36525,-28.0249 11.60221,-0.027 14.50588,-1.3589 17.55726,-8.0559 2.84642,-6.2473 2.65081,-9.4053 -0.88338,-14.2611 -32.91302,-45.2205 -39.90083,-62.4901 -39.70663,-98.1299 0.25116,-46.0912 24.59352,-85.8074 64.02015,-104.4532 35.54313,-16.8093 65.90649,-15.2297 106.93906,5.563 12.2921,6.2289 17.04086,7.1913 22.10661,4.4802 8.39973,-4.4954 8.32796,-17.4835 -0.16249,-29.4072 -22.07439,-31.0007 -30.74075,-72.8541 -21.57292,-104.1846 16.7174,-57.1306 71.89231,-71.2191 133.53769,-34.0977 10.50911,6.3283 22.41201,11.5061 26.45081,11.5061 13.4869,0 15.0368,-5.9454 11.0659,-42.4476 -5.1548,-47.3832 -2.6767,-88.7074 6.4583,-107.7006 11.9577,-24.862 27.8639,-40.617 54.0952,-53.5812 23.1092,-11.42118 25.1561,-11.83808 51.0819,-10.40548 34.6377,1.914 59.393,13.75928 83.2046,39.81298 27.6182,30.2188 36.2436,65.4576 28.8489,117.8623 -2.6029,18.4465 -2.2955,20.3036 3.9102,23.6249 5.332,2.8535 11.8034,1.9032 31.0617,-4.5616 46.2798,-15.5356 79.5779,-9.19 109.7065,20.9068 29.8345,29.803 38.74,65.0969 27.4056,108.6125 -7.554,29.002 -20.3691,51.0051 -41.6446,71.5025 -18.3321,17.6616 -19.3057,19.3464 -15.7238,27.2078 3.3981,7.4582 5.1517,8.16 15.9348,6.3779 51.2598,-8.4713 69.5481,-4.4086 92.996,20.6591 47.1278,50.3834 23.2736,141.7891 -42.1613,161.5558 -18.8697,5.7003 -27.3277,11.7539 -27.3277,19.5594 0,2.1734 5.3501,10.3144 11.8891,18.0911 24.801,29.4953 35.4971,70.023 30.1133,114.0994 -7.9665,65.2204 -50.7732,96.4898 -108.2283,79.0585 -19.3539,-5.8718 -28.1535,-2.4521 -28.1535,10.941 0,7.3726 3.4,11.4495 17.8449,21.3981 46.0068,31.6861 57.803,65.6016 31.5613,90.7427 -11.2986,10.8247 -25.7094,15.2096 -49.9864,15.2096 -22.9445,0 -35.2188,4.3476 -35.2188,12.4746 0,3.3698 5.1258,15.9608 11.3906,27.98 19.7291,37.8506 15.1371,73.1089 -13.2399,101.659 -16.2002,16.2991 -39.1979,27.1183 -57.6434,27.1183 -11.856,0 -28.9573,-10.8108 -36.8306,-23.2829 -5.5319,-8.7632 -10.209,-12.5161 -15.5979,-12.5161 -9.5754,0 -13.4081,4.5505 -17.8588,21.204 -5.9145,22.1301 -21.2087,42.6041 -40.0877,53.6644 -15.9393,9.3381 -19.0892,10.0116 -41.0587,8.7795 -19.7841,-1.1096 -26.0759,-2.9376 -37.3267,-10.845 -7.4424,-5.2307 -17.347,-15.1283 -22.0101,-21.9947 -15.50549,-22.8312 -16.67179,-22.5519 -49.84549,11.94 -33.82071,35.1646 -62.19003,54.8613 -92.50223,64.2238 -24.71655,7.6341 -59.20551,8.1808 -85.32152,1.3524 z m 61.49536,-30.412 c 2.49827,-1.5819 3.64262,-5.2208 2.54299,-8.0863 -1.56394,-4.0756 -6.85389,-5.2102 -24.292,-5.2102 -28.73442,0 -51.93905,-7.0299 -70.84835,-21.4637 -8.30777,-6.3414 -17.15676,-10.7426 -19.66443,-9.7803 -15.83461,6.0763 13.44313,31.6747 49.1392,42.9639 15.07212,4.7667 56.45225,5.8002 63.12259,1.5766 z m -1.2629,-32.8327 c 5.60122,-2.1296 8.20428,-5.24 7.48988,-8.9498 -0.9028,-4.6881 -4.79927,-5.7218 -22.20442,-5.8907 -14.52502,-0.1409 -26.37679,-2.5233 -37.99629,-7.6376 -9.28775,-4.0881 -18.44092,-6.4723 -20.34038,-5.2984 -6.96156,4.3025 -3.13295,11.5449 9.51374,17.9968 22.93237,11.6992 48.24225,15.5949 63.53747,9.7797 z m 17.06098,-34.3282 c 2.23744,-0.6914 4.06807,-4.327 4.06807,-8.0792 0,-6.2811 -1.61287,-6.7608 -20.34038,-6.05 -11.18721,0.4247 -28.0226,-0.3492 -37.412,-1.7196 -14.37587,-2.0983 -17.39907,-1.6384 -19.14528,2.9121 -1.14051,2.9721 -0.68922,6.7883 1.00287,8.4804 6.47746,6.4775 55.45344,9.5161 71.82672,4.4563 z m 521.0037,-337.9353 c 16.3875,-11.3565 29.8137,-36.6031 29.8137,-56.0614 0,-17.7104 -2.5612,-24.0356 -9.7324,-24.0356 -4.8071,0 -6.0083,3.5598 -7.1264,21.1189 -1.4943,23.4671 -7.3387,34.0669 -25.7484,46.6991 -9.2674,6.359 -14.185,7.3941 -29.903,6.2942 -13.59,-0.9511 -19.8794,-0.03 -22.6584,3.3186 -7.169,8.6381 6.1521,14.3409 30.4772,13.0472 17.2189,-0.9157 24.2311,-3.0028 34.8777,-10.381 z m -322.225,-54.875 c 3.5238,-9.3972 5.9711,-17.5479 5.4385,-18.1126 -0.5326,-0.5647 -10.1815,3.6241 -21.4419,9.3083 l -20.4735,10.335 12.8216,7.7609 c 7.052,4.2686 13.8177,7.7685 15.0351,7.7777 1.2174,0.01 5.0965,-7.672 8.6202,-17.0693 z m 344.3688,-49.6719 c 2.4655,-6.425 -4.5161,-14.7186 -10.4676,-12.4348 -2.554,0.9801 -4.6437,5.2865 -4.6437,9.5699 0,5.6585 1.8077,7.788 6.611,7.788 3.6361,0 7.4612,-2.2154 8.5003,-4.9231 z m -38.5445,-315.3636 c 21.8785,-11.462 41.1883,-41.196 44.7775,-68.9505 1.794,-13.8725 1.2378,-16.9504 -3.3835,-18.7237 -8.335,-3.1985 -10.3978,-0.4714 -12.685,16.7704 -2.655,20.0145 -17.3419,43.3418 -34.392,54.625 -14.3042,9.4661 -15.1859,11.078 -9.2865,16.9775 4.8384,4.8383 4.3575,4.8608 14.9695,-0.6987 z m -451.71802,-41.4477 c 0,-2.059 -4.02577,-11.9444 -8.94612,-21.9676 -8.90614,-18.1425 -9.76691,-27.0247 -6.49681,-67.0408 0.64229,-7.8597 -0.47127,-9.7634 -5.71106,-9.7634 -10.05857,0 -16.49623,29.6702 -11.89527,54.8236 5.15043,28.1572 15.4738,47.6919 25.20342,47.6919 4.3152,0 7.84584,-1.6846 7.84584,-3.7437 z"
       id="path270" />
    <path
       style="fill:#fff2cf;fill-opacity:1;stroke:none;stroke-width:0.137153;stroke-opacity:1"
       d="m 1581.5489,1343.7833 c -4.3756,-1.0426 -7.9847,-2.3185 -11.6969,-4.135 -8.8841,-4.3473 -16.0539,-10.8699 -21.1127,-19.207 -7.8958,-13.0122 -9.5793,-29.2182 -4.5456,-43.7555 1.3708,-3.959 3.3098,-7.9271 6.2487,-12.7879 8.8444,-14.6282 18.6804,-21.8687 32.87,-24.196 8.0707,-1.3237 17.4814,-0.7998 26.6422,1.4832 4.4053,1.0978 8.2683,2.4142 10.9746,3.7396 12.1871,5.9686 20.2624,18.766 22.1543,35.1091 0.5036,4.3494 0.5094,5.1203 0.071,9.2966 -1.142,10.8703 -4.2135,20.5409 -9.2294,29.0593 -3.3879,5.7534 -11.6026,13.3349 -19.3981,17.9027 -7.988,4.6806 -17.0846,7.392 -26.1911,7.8065 -1.6849,0.077 -5.9781,-0.1229 -6.7866,-0.3156 z m -0.9446,-19.797 c 2.2381,-0.191 4.0547,-0.473 4.6669,-0.7245 1.1055,-0.4541 1.697,-1.3308 1.8019,-2.6708 0.086,-1.1348 -0.1585,-1.9704 -0.8536,-2.8837 -1.0877,-1.4292 -2.3268,-1.8359 -4.6231,-1.5173 -4.0534,0.5623 -7.8139,0.2936 -11.5918,-0.828 -3.6907,-1.0958 -8.1496,-3.654 -10.9232,-6.2669 -4.2114,-3.9675 -7.2198,-9.1072 -8.487,-14.4996 -0.4756,-2.024 -0.6734,-2.5213 -1.2352,-3.1052 -1.1344,-1.1792 -3.305,-1.1573 -4.8904,0.049 -1.4771,1.1242 -1.8923,2.4766 -1.4395,4.6886 2.7613,13.4884 13.6617,24.0975 27.8781,27.1329 2.1864,0.4668 7.5213,0.8109 9.6969,0.6253 z m 22.1868,-4.684 c 1.2886,-0.5666 1.947,-1.5769 2.0838,-3.198 0.1034,-1.2254 -0.2905,-2.2116 -1.1727,-2.9361 -0.7735,-0.6353 -1.3491,-0.8521 -2.5296,-0.9527 -1.5316,-0.1292 -2.6295,0.3989 -3.3636,1.6217 -0.3661,0.6099 -0.4597,0.9212 -0.5312,1.768 -0.1033,1.224 0.205,2.1485 0.9567,2.8695 1.1479,1.1012 3.1198,1.4593 4.5566,0.8276 z"
       id="path327" />
    <path
       style="fill:#fff2cf;fill-opacity:1;stroke:none;stroke-width:0.284411;stroke-opacity:1"
       d="m 1737.1178,1255.2286 c -11.6312,-0.2431 -21.9813,-6.8966 -27.4796,-17.665 -2.1851,-4.2793 -3.3446,-9.8086 -2.9936,-14.2744 0.2191,-2.786 1.741,-7.656 3.1502,-10.0799 1.1037,-1.8983 4.2403,-5.8438 4.9594,-6.2382 0.1543,-0.084 -0.2205,0.946 -0.8329,2.2904 -2.0852,4.5768 -3.4606,10.2194 -3.0655,12.5763 0.1737,1.0359 0.3666,1.3302 1.1922,1.8176 2.7276,1.6107 6.0063,-0.047 6.5119,-3.2912 0.8968,-5.7556 3.7945,-11.5477 7.7604,-15.5117 3.0618,-3.0604 7.7883,-5.9614 11.6356,-7.1418 2.1347,-0.6549 3.132,-1.3563 3.6049,-2.5352 0.4418,-1.1018 0.2858,-2.8634 -0.3228,-3.652 -0.3184,-0.4123 -0.2662,-0.5358 0.338,-0.7999 1.0428,-0.4558 6.1903,-0.9425 8.0208,-0.7578 5.9541,0.5987 11.8719,5.2932 15.3143,12.1473 2.3711,4.7214 4.0391,12.4158 3.852,17.7699 -0.1997,5.7167 -1.2738,11.31 -2.8491,14.8363 -3.2732,7.3277 -9.4956,13.9225 -16.83,17.8375 -2.122,1.1328 -2.9039,1.3919 -6.066,2.0097 -2.4265,0.4738 -4.3828,0.6933 -5.9002,0.6621 z"
       id="path328" />
    <path
       style="display:inline;fill:#fff2cf;fill-opacity:1;stroke:none;stroke-width:2.48191;stroke-opacity:1"
       d="m 841.81793,2178.7679 c -1.87611,-3.3524 -7.02933,-4.1166 -29.28572,-4.3433 -26.93188,-0.2742 -27.06622,-0.3059 -47.05124,-11.0702 -48.2564,-25.9918 -92.12786,-76.9447 -118.07847,-137.1377 -15.20988,-35.2796 -20.45798,-60.0151 -20.48171,-96.5349 -0.0178,-27.3979 0.77026,-33.2944 6.7427,-50.4517 14.41243,-41.4033 54.60057,-88.4406 75.62083,-88.5086 9.46644,-0.031 22.92171,5.1412 32.04435,12.3171 7.6958,6.0535 12.21167,6.2699 23.33751,1.1185 19.75108,-9.145 25.95951,-13.4943 28.27089,-19.805 2.20469,-6.0194 1.49149,-7.5179 -7.12205,-14.9637 -14.06328,-12.1567 -30.28997,-16.7627 -54.18185,-15.3796 -17.13538,0.9919 -20.80386,0.4491 -27.51058,-4.0705 -12.34962,-8.3224 -23.62173,-25.215 -29.30004,-43.9096 -7.49879,-24.6882 -6.07714,-62.006 3.10942,-81.6213 11.61559,-24.8018 35.08625,-42.1924 56.94353,-42.1924 23.52948,0 28.22349,-12.708 12.31206,-33.3322 -39.40099,-51.071 -37.74934,-117.5693 3.95597,-159.2746 32.636,-32.636 73.49674,-38.0825 118.83271,-15.8398 17.34525,8.5099 20.36717,9.293 24.73686,6.4103 8.41046,-5.5486 7.40365,-14.6787 -3.63736,-32.9849 -13.27092,-22.0035 -17.79246,-37.0419 -18.88407,-62.8075 l -0.89381,-21.0962 3.64214,16.1324 c 4.12404,18.2669 15.17723,41.6137 21.60194,45.6282 3.2857,2.053 5.24648,1.7351 8.33283,-1.3513 3.72683,-3.7268 3.31503,-5.495 -5.37445,-23.0769 -8.49273,-17.1839 -9.39763,-20.901 -9.27865,-38.1143 0.0725,-10.4903 1.4191,-22.2806 2.99243,-26.2005 2.07694,-5.1746 2.11627,-8.024 0.14366,-10.4009 -2.09788,-2.5278 -0.34668,-4.9908 7.68537,-10.8092 12.54928,-9.0906 22.20427,-11.156 44.64559,-9.5503 17.13639,1.2261 44.88157,12.0725 61.92448,24.2082 3.8564,2.746 9.7738,4.9927 13.1498,4.9927 11.4034,0 12.6758,-4.7097 10.2498,-37.9368 -3.8454,-52.6664 -2.707,-82.7915 3.7547,-99.3549 7.8068,-20.0116 30.4485,-43.8501 51.4847,-54.2062 55.0216,-27.0871 126.2618,6.3251 145.2096,68.1043 6.2493,20.3756 7.3202,53.0604 2.3189,70.7751 -6.225,22.0492 2.5411,28.0114 27.0275,18.3825 13.4978,-5.3078 20.3882,-6.3741 42.1924,-6.5296 23.6576,-0.1687 27.3508,0.448 40.0617,6.6902 16.1296,7.921 31.4293,23.416 40.1641,40.6767 8.227,16.2574 12.1609,31.0639 9.0734,34.1513 -1.3379,1.3379 -2.4325,6.0791 -2.4325,10.5361 0,21.1652 -14.651,46.492 -34.8481,60.2413 -9.2134,6.272 -12.3377,9.8864 -11.7994,13.6504 1.1683,8.1684 9.9162,7.3426 23.8656,-2.2529 7.0699,-4.8632 12.8543,-8.2098 12.8543,-7.4368 0,7.916 -20.633,34.8946 -33.2699,43.5018 -7.1416,4.8643 -8.8919,7.65 -8.9056,14.1736 -0.025,11.8861 8.5864,15.3213 24.2944,9.6914 34.5541,-12.3844 72.964,5.0112 89.4554,40.514 4.801,10.3356 6.5953,18.8814 7.3889,35.1913 2.3906,49.131 -21.6773,85.9199 -64.0718,97.9368 -22.9206,6.4969 -25.2044,14.273 -9.5124,32.3882 20.6346,23.8209 30.8094,58.1855 28.5203,96.3248 -2.4343,40.5587 -14.4987,65.5492 -38.5847,79.9249 -18.7072,11.1655 -31.6955,12.6403 -56.1213,6.3728 -21.0887,-5.4113 -26.9722,-4.5639 -29.782,4.2892 -2.5423,8.01 0.7145,13.8867 11.7391,21.1824 15.9933,10.5839 34.1325,28.5723 39.5808,39.2519 10.4173,20.4196 3.3079,45.4428 -15.9927,56.2904 -7.8525,4.4133 -15.1235,5.8672 -33.8336,6.7651 -35.0823,1.6836 -42.2203,8.6858 -28.8747,28.3256 11.151,16.4101 14.9707,29.2855 14.9707,50.4626 0,16.6879 -1.1006,22.0963 -6.8992,33.9042 -11.9873,24.41 -35.7494,41.2933 -61.3902,43.6183 -18.6365,1.6899 -30.7392,-3.9639 -39.4385,-18.4238 -6.7264,-11.1806 -15.523,-15.7145 -22.2529,-11.4694 -2.1319,1.3448 -5.6855,8.4896 -7.897,15.8774 -14.7382,49.2361 -52.7312,72.2687 -95.2895,57.7677 -12.7257,-4.3361 -28.8966,-18.7329 -37.394,-33.2915 -3.3259,-5.6982 -7.15317,-8.8134 -11.44284,-9.3139 -5.39415,-0.6292 -9.23451,2.5552 -23.54455,19.5236 -19.60272,23.2441 -47.3124,46.4952 -67.63373,56.7511 -28.00438,14.1334 -57.27703,19.3313 -61.94025,10.9985 z m 2.89709,-25.7476 c 1.15939,-1.072 1.36334,-4.2953 0.45323,-7.1628 -1.5035,-4.7371 -3.511,-5.2138 -21.96322,-5.2156 -17.40924,0 -22.55476,-1.0646 -36.04323,-7.4457 -18.75975,-8.8748 -21.86243,-9.1385 -24.11265,-2.0486 -1.202,3.7872 -0.32721,6.4595 2.93513,8.9661 7.85535,6.0359 25.75667,13.3353 37.83213,15.4266 12.47565,2.1605 37.50463,0.6184 40.89861,-2.52 z m 13.95817,-34.6004 c 1.23483,-2.0013 1.29355,-5.2777 0.13179,-7.3537 -1.64763,-2.9441 -7.57902,-3.7773 -27.76091,-3.8994 -14.11609,-0.085 -30.24806,-1.0809 -35.84884,-2.2123 -8.31888,-1.6804 -10.46296,-1.328 -11.71116,1.9247 -4.51213,11.7585 9.28257,16.2989 47.4282,15.6109 19.28983,-0.3479 26.07843,-1.3433 27.76092,-4.0702 z m 508.18171,-330.6687 c 13.6812,-6.3777 31.1585,-25.9971 35.2126,-39.5286 3.6293,-12.1136 3.9619,-39.1525 0.5238,-42.5906 -1.248,-1.248 -4.3423,-1.8745 -6.8761,-1.3923 -3.8562,0.7339 -4.8153,3.9063 -5.8855,19.4675 -1.3718,19.9464 -5.3191,29.5613 -16.4937,40.1757 -11.4702,10.8953 -24.3163,14.9799 -44.076,14.0147 -15.4117,-0.7529 -17.5681,-0.3122 -18.3703,3.754 -1.2395,6.2827 2.5335,9.4608 13.7014,11.541 13.2127,2.461 29.9283,0.3089 42.2638,-5.4414 z m 30.3619,-108.5621 c 3.8861,-7.2612 0.5633,-12.9859 -7.0249,-12.1031 -7.2677,0.8456 -9.9064,7.5999 -5.1895,13.2835 4.1411,4.9897 9.1725,4.5035 12.2144,-1.1804 z"
       id="path348" />
  </g>
</svg>
