<?xml version="1.0" encoding="UTF-8"?>
<svg id="_圖層_2" data-name="圖層 2" xmlns="http://www.w3.org/2000/svg" viewBox="0 0 55.16 48.19">
  <defs>
    <style>
      .cls-1 {
        fill: #543c1a;
        stroke-width: 0px;
      }
    </style>
  </defs>
  <g id="Capa_2" data-name="Capa 2">
    <path class="cls-1" d="M26.86,10.86c-1.49.09-2.98.23-4.47.27-1.06.03-2.06-.48-2.02-1.58.03-.8.59-2.03,1.22-2.27,1.66-.64,3.47-1.08,5.24-1.19,7.08-.42,13.74,1.32,19.94,4.64,7.18,3.84,10.02,11.31,7.47,19.07-1.48,4.51-4.29,8.12-8.03,10.92-9.58,7.17-20.27,9.26-31.75,5.93C4.52,43.77-1.12,35.26.19,25.93,1.91,13.62,11.2,3.39,23.3.57c3.82-.89,7.62-.81,11.27.85.68.31,1.53.53,1.92,1.07.49.68,1.01,1.85.74,2.44-.29.62-1.48.93-2.33,1.13-.42.1-.98-.32-1.46-.53-3.17-1.42-6.43-1.45-9.68-.44-9.49,2.95-15.69,9.22-18.33,18.79-2.22,8.06,1.23,14.69,8.95,17.79,10.24,4.11,24.45.88,31.8-7.36,1.32-1.48,2.44-3.26,3.22-5.09,2.56-6,.53-11.61-5.25-14.57-5.41-2.77-11.18-4.09-17.28-3.79Z"/>
  </g>
</svg>