<?xml version="1.0" encoding="UTF-8"?>
<svg id="_喇뒨쏛_2" data-name="喇뒨쏛 2" xmlns="http://www.w3.org/2000/svg" viewBox="0 0 95.41 95.42">
  <defs>
    <style>
      .cls-1 {
        fill: #b5e3fc;
      }

      .cls-1, .cls-2 {
        stroke-width: 0px;
      }

      .cls-2 {
        fill: #004eae;
      }
    </style>
  </defs>
  <g id="_喇뒨쏛_1-2" data-name="喇뒨쏛 1">
    <g>
      <path class="cls-2" d="M47.74,95.42C21.72,95.44.02,73.76,0,47.74-.02,21.7,21.64.02,47.67,0c26.04-.02,47.73,21.65,47.74,47.67,0,26.06-21.63,47.73-47.67,47.75ZM47.72,23.58c-13.3,0-24.08,10.69-24.14,23.92-.06,13.49,10.68,24.33,24.1,24.34,13.29,0,24.09-10.7,24.14-23.93.06-13.5-10.67-24.33-24.11-24.33Z"/>
      <path class="cls-1" d="M47.72,23.58c13.44,0,24.17,10.83,24.11,24.33-.06,13.23-10.85,23.93-24.14,23.93-13.42,0-24.16-10.84-24.1-24.34.06-13.23,10.84-23.92,24.14-23.92Z"/>
    </g>
  </g>
</svg>