<?xml version="1.0" encoding="UTF-8"?>
<svg id="_圖層_2" data-name="圖層 2" xmlns="http://www.w3.org/2000/svg" viewBox="0 0 139.01 74.55">
  <defs>
    <style>
      .cls-1 {
        fill: #5b441e;
      }

      .cls-1, .cls-2, .cls-3, .cls-4, .cls-5, .cls-6, .cls-7, .cls-8, .cls-9, .cls-10, .cls-11, .cls-12, .cls-13, .cls-14, .cls-15, .cls-16, .cls-17, .cls-18, .cls-19, .cls-20, .cls-21, .cls-22, .cls-23, .cls-24, .cls-25, .cls-26, .cls-27, .cls-28, .cls-29, .cls-30, .cls-31, .cls-32, .cls-33, .cls-34, .cls-35, .cls-36, .cls-37, .cls-38, .cls-39, .cls-40, .cls-41, .cls-42, .cls-43, .cls-44, .cls-45, .cls-46, .cls-47, .cls-48, .cls-49, .cls-50, .cls-51, .cls-52, .cls-53, .cls-54, .cls-55, .cls-56, .cls-57, .cls-58, .cls-59, .cls-60, .cls-61, .cls-62, .cls-63, .cls-64, .cls-65, .cls-66, .cls-67, .cls-68, .cls-69, .cls-70, .cls-71, .cls-72, .cls-73, .cls-74, .cls-75, .cls-76, .cls-77, .cls-78, .cls-79, .cls-80, .cls-81, .cls-82, .cls-83, .cls-84, .cls-85, .cls-86, .cls-87, .cls-88, .cls-89, .cls-90, .cls-91, .cls-92, .cls-93, .cls-94, .cls-95, .cls-96, .cls-97, .cls-98, .cls-99, .cls-100, .cls-101, .cls-102, .cls-103, .cls-104, .cls-105, .cls-106, .cls-107, .cls-108, .cls-109, .cls-110, .cls-111, .cls-112, .cls-113, .cls-114, .cls-115, .cls-116, .cls-117, .cls-118, .cls-119, .cls-120, .cls-121, .cls-122, .cls-123, .cls-124, .cls-125, .cls-126, .cls-127, .cls-128, .cls-129, .cls-130, .cls-131, .cls-132, .cls-133, .cls-134, .cls-135, .cls-136, .cls-137, .cls-138, .cls-139 {
        stroke-width: 0px;
      }

      .cls-2 {
        fill: #543c1a;
      }

      .cls-3 {
        fill: #6e5729;
      }

      .cls-4 {
        fill: #e2cf68;
      }

      .cls-5 {
        fill: #e2ce67;
      }

      .cls-6 {
        fill: #dfb130;
      }

      .cls-7 {
        fill: #d3a329;
      }

      .cls-8 {
        fill: #dda820;
      }

      .cls-9 {
        fill: #ddad2b;
      }

      .cls-10 {
        fill: #ddaa23;
      }

      .cls-11 {
        fill: #ddaa25;
      }

      .cls-12 {
        fill: #ddab26;
      }

      .cls-13 {
        fill: #deb63d;
      }

      .cls-14 {
        fill: #dda922;
      }

      .cls-15 {
        fill: #dda921;
      }

      .cls-16 {
        fill: #deaa24;
      }

      .cls-17 {
        fill: #deaa23;
      }

      .cls-18 {
        fill: #deb133;
      }

      .cls-19 {
        fill: #dead2a;
      }

      .cls-20 {
        fill: #deab26;
      }

      .cls-21 {
        fill: #deab25;
      }

      .cls-22 {
        fill: #deac27;
      }

      .cls-23 {
        fill: #deac26;
      }

      .cls-24 {
        fill: #cfb95a;
      }

      .cls-25 {
        fill: #d9a827;
      }

      .cls-26 {
        fill: #e0bc46;
      }

      .cls-27 {
        fill: #d7a72a;
      }

      .cls-28 {
        fill: #d7a726;
      }

      .cls-29 {
        fill: #d4a324;
      }

      .cls-30 {
        fill: #dba925;
      }

      .cls-31 {
        fill: #dba924;
      }

      .cls-32 {
        fill: #e2cc62;
      }

      .cls-33 {
        fill: #dba823;
      }

      .cls-34 {
        fill: #dba822;
      }

      .cls-35 {
        fill: #dfb231;
      }

      .cls-36 {
        fill: #e2d16c;
      }

      .cls-37 {
        fill: #e1cf6b;
      }

      .cls-38 {
        fill: #e1d16e;
      }

      .cls-39 {
        fill: #e1b639;
      }

      .cls-40 {
        fill: #e1b538;
      }

      .cls-41 {
        fill: #e1b537;
      }

      .cls-42 {
        fill: #e1b53a;
      }

      .cls-43 {
        fill: #e1b536;
      }

      .cls-44 {
        fill: #e1b941;
      }

      .cls-45 {
        fill: #dfad28;
      }

      .cls-46 {
        fill: #dfae2a;
      }

      .cls-47 {
        fill: #dfaf2d;
      }

      .cls-48 {
        fill: #dfaf2c;
      }

      .cls-49 {
        fill: #d3b043;
      }

      .cls-50 {
        fill: #d3a429;
      }

      .cls-51 {
        fill: #e1b436;
      }

      .cls-52 {
        fill: #e1b437;
      }

      .cls-53 {
        fill: #d6a321;
      }

      .cls-54 {
        fill: #dcab28;
      }

      .cls-55 {
        fill: #dcb33a;
      }

      .cls-56 {
        fill: #dcb339;
      }

      .cls-57 {
        fill: #dcae30;
      }

      .cls-58 {
        fill: #dcaf32;
      }

      .cls-59 {
        fill: #dcaa25;
      }

      .cls-60 {
        fill: #dca823;
      }

      .cls-61 {
        fill: #dca926;
      }

      .cls-62 {
        fill: #dca924;
      }

      .cls-63 {
        fill: #dca925;
      }

      .cls-64 {
        fill: #d3bd5b;
      }

      .cls-65 {
        fill: #d9a624;
      }

      .cls-66 {
        fill: #dabe53;
      }

      .cls-67 {
        fill: #e0b12f;
      }

      .cls-68 {
        fill: #e0b232;
      }

      .cls-69 {
        fill: #daa824;
      }

      .cls-70 {
        fill: #c0a141;
      }

      .cls-71 {
        fill: #d8a92b;
      }

      .cls-72 {
        fill: #d8a828;
      }

      .cls-73 {
        fill: #cdb554;
      }

      .cls-74 {
        fill: #856b2f;
      }

      .cls-75 {
        fill: #edd96b;
      }

      .cls-76 {
        fill: #eddc72;
      }

      .cls-77 {
        fill: #edda6e;
      }

      .cls-78 {
        fill: #eddd72;
      }

      .cls-79 {
        fill: #f1e379;
      }

      .cls-80 {
        fill: #f1e277;
      }

      .cls-81 {
        fill: #eedd72;
      }

      .cls-82 {
        fill: #eeda6d;
      }

      .cls-83 {
        fill: #eedc6e;
      }

      .cls-84 {
        fill: #eedc6f;
      }

      .cls-85 {
        fill: #eedb6d;
      }

      .cls-86 {
        fill: #eeda6c;
      }

      .cls-87 {
        fill: #eedb6e;
      }

      .cls-88 {
        fill: #ead96f;
      }

      .cls-89 {
        fill: #ead669;
      }

      .cls-90 {
        fill: #e4bf46;
      }

      .cls-91 {
        fill: #e9ca57;
      }

      .cls-92 {
        fill: #eed96b;
      }

      .cls-93 {
        fill: #e4c350;
      }

      .cls-94 {
        fill: #e9da72;
      }

      .cls-95 {
        fill: #e9d569;
      }

      .cls-96 {
        fill: #e3c24e;
      }

      .cls-97 {
        fill: #e9d66b;
      }

      .cls-98 {
        fill: #e4cf65;
      }

      .cls-99 {
        fill: #e5d46d;
      }

      .cls-100 {
        fill: #efde73;
      }

      .cls-101 {
        fill: #efde72;
      }

      .cls-102 {
        fill: #efdd71;
      }

      .cls-103 {
        fill: #efdd70;
      }

      .cls-104 {
        fill: #efdf74;
      }

      .cls-105 {
        fill: #e3b93d;
      }

      .cls-106 {
        fill: #e3ba3f;
      }

      .cls-107 {
        fill: #e6d36a;
      }

      .cls-108 {
        fill: #e6d56e;
      }

      .cls-109 {
        fill: #eddb6f;
      }

      .cls-110 {
        fill: #edd869;
      }

      .cls-111 {
        fill: #edd86a;
      }

      .cls-112 {
        fill: #e5c048;
      }

      .cls-113 {
        fill: #e5c049;
      }

      .cls-114 {
        fill: #e5c047;
      }

      .cls-115 {
        fill: #e5c046;
      }

      .cls-116 {
        fill: #e5c149;
      }

      .cls-117 {
        fill: #efdc6f;
      }

      .cls-118 {
        fill: #eede73;
      }

      .cls-119 {
        fill: #ecd86c;
      }

      .cls-120 {
        fill: #ecdc73;
      }

      .cls-121 {
        fill: #ecd363;
      }

      .cls-122 {
        fill: #f0e074;
      }

      .cls-123 {
        fill: #f0e076;
      }

      .cls-124 {
        fill: #f0df74;
      }

      .cls-125 {
        fill: #f0df72;
      }

      .cls-126 {
        fill: #f0df73;
      }

      .cls-127 {
        fill: #ecdb70;
      }

      .cls-128 {
        fill: #ecda70;
      }

      .cls-129 {
        fill: #ecda6f;
      }

      .cls-130 {
        fill: #e8cf61;
      }

      .cls-131 {
        fill: #e8cb58;
      }

      .cls-132 {
        fill: #e8d367;
      }

      .cls-133 {
        fill: #e8d76f;
      }

      .cls-134 {
        fill: #e8d468;
      }

      .cls-135 {
        fill: #e8d66d;
      }

      .cls-136 {
        fill: #e8ca57;
      }

      .cls-137 {
        fill: #e7d66e;
      }

      .cls-138 {
        fill: #e7d56c;
      }

      .cls-139 {
        fill: #e7d266;
      }
    </style>
  </defs>
  <g id="OBJECTS">
    <g>
      <path class="cls-2" d="m127.21,47.6c-7.82-6.05-15.7-11.99-23.55-17.99-3.01-2.3-6.15-4.45-9.12-6.82-4.44-3.55-9.56-5.27-15.05-6.36-11.2-2.21-22.52-3.82-33.64-6.42-8.29-1.94-16.39-4.53-24.59-6.77-3.23-.88-6.46-1.7-9.6-2.89-2.09-.8-3.88-.24-5.49,1.27-1.75,1.64-3.53,3.24-4.88,5.26-1.47,2.21-1.8,4.45-.4,6.85.76,1.31,1.3,2.74,1.98,4.09.66,1.31,1.64,2.25,3.16,2.48,8.77,1.32,17.43,3.23,26.16,4.71,8.98,1.52,18.06,2.31,27.07,3.6,5.73.82,11.4,2.02,16.95,3.7,1.16.35,2.23.89,3.18,1.63,9.67,7.61,19.48,15.07,28.56,23.4,5.39,4.94,10.93,9.76,15.63,15.38,1.63,1.94,3.05,2.18,5.23,1.34,2.34-.91,4.77-1.59,6.96-2.87,3.03-1.77,3.76-3.48,2.86-6.88-.65-2.43-1.35-4.85-1.98-7.28-.27-1.05-.82-1.84-1.64-2.55-2.64-2.26-5.22-4.59-7.82-6.9Z"/>
      <path class="cls-79" d="m58.98,26.7c1.39.17,2.77.34,4.16.51.34-.15.52-.65,1.02-.45.45.08.79.28.85.78,1.38.25,2.77.51,4.15.76.71-.66,1.16.07,1.71.32,1.4.33,2.78.71,4.2.96,2.7.48,5.04,1.62,7.18,3.35,10.46,8.43,20.86,16.92,30.64,26.15,3.95,3.73,7.88,7.48,11.65,11.41,1.33,1.38,1.33,1.37,3.16.65,1.64-.64,3.28-1.25,4.92-1.88.9-.35,1.72-.82,2.54-1.33.66-.41.71-.71.08-1.22-4.55-3.71-9.02-7.53-13.7-11.08-6.15-4.66-12.28-9.34-18.31-14.14-6.13-4.88-12.24-9.77-18.39-14.62-1.25-.99-2.63-1.81-4.07-2.51-.83-.4-1.59-.92-2.33-1.65.81-.21,1.5-.06,2.19.21,3.16,1.24,5.87,3.24,8.58,5.21,8.17,5.9,15.83,12.44,23.74,18.67,6.72,5.29,13.61,10.36,19.91,16.17,1.1,1.02,2.14,2.11,3.43,3.38-.07-1.14-.05-2.01-.2-2.85-.36-2.01-.74-4.01-.88-6.04-.03-.49-.29-.78-.66-1.07-9.63-7.67-19.55-14.94-29.58-22.07-4.79-3.4-9.46-6.96-14.39-10.15-2.27-1.47-4.67-2.62-7.26-3.36-5.22-1.51-10.51-2.73-15.86-3.68-.39.75-1.07.84-1.81.78-.29,0-.58,0-.83.18-.42.49-.5,1.05-.3,1.66.74.2,1.48.43,2.26.36.58-.51,1,.07,1.48.21.33.33.74.49,1.2.52.91.13,1.83.2,2.73.43.15.01.3.02.45.01-.11.1-.24,0-.37.03-.38-.05-.77-.21-1.04.22-.06.24.12.57-.24.72-.16-.29.14-.63-.1-.9-.3-.31-.72-.3-1.1-.39-.71-.15-1.43-.03-2.14,0-.5-.04-1.01-.08-1.51-.12-1.05.69-1.43.64-2.03-.24-1.33-.18-2.66-.37-3.99-.55-.46.09-.5.44-.49.81.33.58.9,1.07.69,1.85-.18.33-.44.45-.76.23-.3-.2-.15-.47-.04-.72.14-.31.44-.55.4-.94-.14-.18-.29-.34-.5-.44-.22-.06-.57.51-.67-.14-.17-.19-.38-.31-.64-.32-.34.08-.55.3-.73.58-.13.22-.18.46-.18.71-.06.78,1.04,1.11.75,1.98-.19.52-.17,1.01.25,1.43.37.37.37.86.41,1.33.09.14.21.25.39.27Z"/>
      <path class="cls-8" d="m24.11,6.45c-.85-.27-1.68-.66-2.6-.68-.38-.04-.69-.28-1.03-.42-.49-.21-.96-.49-1.52-.44-.04.1-.04.21-.01.31.25.56.19.97-.53,1.04-.51,0-1,.07-1.38.46-.3.31-.65.37-1.05.28-.74-.08-1.35.11-1.69.84-.3.8.4,1.28.61,1.92.02.23.02.46.05.68.09.49.26.92.82,1.03.62.13,1.23.25,1.85.38.35-.26.64-.14.9.15,1.49.21,2.94.71,4.47.74.57-.11,1.17-.35,1.59.32,1.57.28,3.15.56,4.72.83.49-.77.86-.29,1.24.11,1.46.4,2.96.6,4.46.73.49-.09,1.03-.42,1.39.23.55.18,1.12.28,1.7.24.46-.44-.24-.73-.14-1.12.21-1.05,1.04-.19,1.49-.48.28-.12.52-.29.7-.53.66-1.24.58-1.48-.59-1.92-.38-.18-.75-.2-1.12.04-.28.18-.57.55-.94.26-.35-.28.04-.67-.04-1.01-.92-.26-1.85-.52-2.77-.79-.55.29-.99.19-1.28-.38-1.68-.59-3.38-1.1-5.13-1.48-.02.12,0,.23,0,.35.02.27.1.63-.32.58-.3-.03-.23-.36-.19-.59.03-.16.04-.31.03-.47-.7-.43-1.51-.52-2.29-.71-.7.19-.57.68-.43,1.18.03.54.68.83.62,1.54-.78-.38-.35-1.1-.62-1.54-.21-.63-.74-1.09-.98-1.71Z"/>
      <path class="cls-8" d="m21.07,20.35c1.26.29,2.48.73,3.78.81.62.04.81-.45,1.08-.84.55-1.04-.5-1.45-.83-2.15-.06-.22-.07-.43-.05-.66.05-.45.06-.9-.26-1.28-.24-.28-.47-.57-.64-.89-1.58-.35-3.17-.6-4.78-.69-.55.18-1.11.23-1.69.21-.34.06-.67.13-.95.34-.14.12-.24.26-.31.42-.2.52-.15,1.03.09,1.52.16.47,1.13,1.01-.14,1.33-.39.11-.94-.16-1.09.47,1.4.35,2.81.7,4.21,1.05,1.11-.75,1.3-.71,1.58.37Z"/>
      <path class="cls-8" d="m25.66,20.23c-.32.27-.36.78-.81.93,1.44.56,2.96.8,4.48,1.06.34-.17.6.12.91.16,1.56.48,3.16.81,4.78,1.03.77-.95-.07-1.58-.45-2.31-.07-.32.04-.64.03-.96,0-.52-.11-1-.46-1.41-.56-.41-.43-1.02-.46-1.58-.07-.23-.18-.41-.43-.48-.65-.22-1.33-.21-2-.25-.58.6-.98.12-1.4-.23-.75-.12-1.49-.23-2.24-.35,0,.06,0,.11,0,.17.25.64,1.11.99.91,1.85-.03.43.07.81.37,1.12.21.26.59.48.39.89-.23.46-.67.24-1.04.22-.41-.03-.83.03-1.11.33-.59.62-1.02.28-1.45-.18Z"/>
      <path class="cls-123" d="m64.94,18.19c.23-.02.47-.03.7-.05.3-.25.71-.32.96-.64.19-.23.33-.49-.15-.56-1.74-.36-3.48-.72-5.22-1.08-.43.26.3,1.15-.46,1.08-.66-.06-.13-.82-.36-1.21-.74-.17-1.47-.44-2.25-.44-.26.08-.36.27-.37.53.01.29.07.57.2.83.46.38.94.73.82,1.47-.05.3.22.49.53.55,1.35.3,2.7.6,4.05.9.18,0,.32-.11.29-.27-.13-1,.43-1.2,1.25-1.11Z"/>
      <path class="cls-15" d="m14.39,7.99c.39-.59.96-.81,1.64-.77,0-.05.01-.11.02-.16-.05-.31-.14-.62-.14-.94,0-.49-.02-.97-.41-1.34-.18-.23-.45-.4-.57-.69-1.25-.35-2.51-.67-3.75-1.06-.87-.27-1.17-.07-.92.84.08.3.1.62.14.93.41.47.55.98.26,1.56-.04.45-.03.89.18,1.31.7.29,1.41.42,2.13.06,1.01-.78,1.03-.77,1.27.19.05.02.1.05.15.07Z"/>
      <path class="cls-15" d="m33.91,18.88c.41.36.36.87.44,1.34.47.06.93.22,1.41.13.37-.1.71-.24,1.04-.43.45-.38.97-.3,1.49-.23.85.08,1.02-.66,1.38-1.16.06-.11.09-.23.1-.36-.04-.33-.18-.6-.53-.7-.55-.18-1.11-.31-1.69-.19-.5.17-.94.55-1.53.41-.59-.1-.99.22-1.36.6-.2.25-.62.24-.74.6Z"/>
      <path class="cls-81" d="m58.59,25.04c-.58-.31-.54-.81-.41-1.34-.05,0-.11,0-.16,0-.53.2-1.06.4-1.61.08-.32-.51.45-.92.14-1.42-.37-.5-.71-1.03-1.34-1.24-.11-.02-.23-.01-.34.02-.15.09-.25.22-.3.39-.05.54-.44.85-.78,1.19-.07.09-.1.19-.1.31.06.17.17.29.31.38.63.39,1.7.52,1,1.7-.51,1.05.61.79.94,1.17.28.19.58.16.89.11.6-.26.87-1.02,1.61-1.06.1-.06.15-.15.16-.27Z"/>
      <path class="cls-17" d="m39,24.07c.52.12,1.04.23,1.55.35.64-.41,1.24-1.02,2.1-.5.77-.03,1.27-.34,1.25-1.19-.04-.3-.09-.6-.23-.88-.16-.27-.39-.46-.69-.57-.28-.07-.66-.12-.79.07-.72,1.03-1.78.8-2.77.83-.47.28-.87.63-1.17,1.08,0,.5.44.6.76.81Z"/>
      <path class="cls-14" d="m10.16,14.87c-.46.52-.91,1.05-1.37,1.57-.41.53.1.58.39.74.13.13.26.23.46.17.44-.01.7-.27.92-.62.18-.28.34-.66.81-.5.11.04.21.07.32.1.65.16,1.18.01,1.57-.56.07-.1.11-.21.14-.33.04-.24,0-.47-.12-.68-.25-.49-.86-.65-1.06-1.17,0-.09-.01-.18-.05-.27-.62-.32-1.03-.09-1.29.51-.06.47-.24.85-.71,1.02Z"/>
      <path class="cls-10" d="m39.39,11.23c1.15.29.96,1.04.61,1.83.05,0,.11,0,.17,0,1.2-.58,1.21-.58,1.31.76.05.69.45,1.07,1.05,1.3.47.13.86-.03,1.19-.37.68-1.05.62-1.45-.32-2.2-.2-.16-.55-.21-.49-.59-1.05-.49-2.14-.82-3.29-.99-.17,0-.25.09-.23.26Z"/>
      <path class="cls-10" d="m4.9,13.98l.05.1.09.07c.83.91.86.9,1.77-.47,0-.62-.67-1.15-.21-1.82-.02-.76-.35-1.27-1.14-1.41-.36-.03-.7.07-1.02.23-.37.3-.82.45-1.27.59.16.48.39.92.79,1.26.57.32,1.05.7.96,1.45Z"/>
      <path class="cls-62" d="m48.29,18.55c-.94-.13-1.89-.26-2.83-.38-.09.24-.02.47.09.68.56.57,1.11,1.11.98,2.04-.05.39.26.74.63.96,1.19.46,1.35.39,1.83-.82.08-.65-.5-1-.67-1.54-.03-.31.07-.63-.03-.94Z"/>
      <path class="cls-22" d="m15.27,18.93c.32-.39.77-.06,1.13-.21-.12-.59-.04-1.15.23-1.69-.02-.45-.05-.89-.07-1.34-1.86-.11,0-.86-.22-1.26-.1-.15-.22-.25-.4-.27h.01c-.66.14-1.02.68-1.45,1.12-.27.59-.54,1.18-.78,1.79-.08.29-.09.57.13.81.47.24.95.47,1.2.98.08.03.15.05.23.08Z"/>
      <path class="cls-104" d="m42.92,21.43c.24.19.47.38.71.56.96-.01.85-.8,1.01-1.39-.04-.23-.16-.42-.29-.61-.53-.53-.36-1.15-.21-1.77-.06-.1-.14-.16-.25-.19-.64-.1-1.27-.2-1.91-.3-.44.16-.62.45-.46.91.05.09.13.17.21.24.33.22.69.42.83.83.03.15.03.29,0,.44-.09.35-.37.69-.08,1.07.13.11.28.19.46.22Z"/>
      <path class="cls-60" d="m42.6,24.68c1.49.23,2.97.46,4.46.69.17-.06.2-.21.24-.37.04-.26.15-.52.11-.79-.09-.41-.31-.75-.65-1-.1-.06-.2-.11-.31-.15-.57-.17-.99.09-1.35.5-.2.22-.33.58-.75.41-.76-.2-1.56-.48-1.74.72Z"/>
      <path class="cls-61" d="m15.2,4.86c.55.32.4.88.45,1.36.32.05.7-.17.97.18.05.44-.52.43-.59.78,0,0,0,.03,0,.03.37.27.76.28,1.01-.09.38-.56.92-.62,1.5-.59-.07-.55.37-.95.41-1.47,0-.05,0-.1,0-.15-1.08-.2-2.15-.4-3.23-.6-.12.23-.43.29-.52.55Z"/>
      <path class="cls-63" d="m6.75,4.74c-.71.87-1.78,1.4-2.31,2.45.42.09.72-.28,1.11-.3.71.08,1.35-.04,1.83-.63.41-.36.89.07,1.31-.12.1-.21.09-.43,0-.64-.04-.64-.11-1.27-.02-1.91h0c-.42-.47-.51.31-.83.22-.06.02-.11.06-.14.12-.42.16-.55.64-.95.82Z"/>
      <path class="cls-100" d="m58.07,16.57c.09-.23.07-.46-.04-.68-.8.09-1.28-.43-1.76-.94-.35-.07-.7-.14-1.05-.22-.12.03-.18.11-.18.23.01.08.02.19.07.21.71.36.43.86.21,1.35-.03.29-.04.57.13.82.36.34.68.74,1.2.86.27.15.56.24.87.17.21-.59.25-1.24.56-1.81Z"/>
      <path class="cls-60" d="m37.55,14.05c-.14.55.66.65.55,1.17,1.01.18,2.03.36,3.04.53.31-.31.44-.7.46-1.13-.14-.91-.89-1.2-1.57-1.56,0,0-.03,0-.03,0-.22.14-.45.28-.67.42-.42.74-1,.97-1.78.57Z"/>
      <path class="cls-54" d="m47.91,19.37c-.04.71.85.85.91,1.5.95.29,1.92.98,2.76-.2.07-.1.12-.2.16-.31.24-.65-.2-1.04-.57-1.45-.59-.06-1.18-.13-1.77-.19-.18.93-.73,1.03-1.49.66Z"/>
      <path class="cls-8" d="m11.04,8.91c.11.58.23,1.17.34,1.75.43-.17.86-.3,1.33-.22,1.5-.24,1.85-.87,1.23-2.19-.13-.14-.29-.25-.47-.33-1.1-.37-1.72.42-2.44.99Z"/>
      <path class="cls-9" d="m4.52,10.79c.28-.07.56-.14.84-.22-.05-.88.52-.98,1.19-.93.1-.07.14-.17.12-.29-.18-.44-.5-.77-.84-1.08-.69-.33-1.38-.64-2.11-.1-.48.54-.78,1.16-.83,1.89.56.2,1.18.26,1.63.73Z"/>
      <path class="cls-19" d="m54.95,21.17c.62.25.89.91,1.44,1.24.53.04.91-.12.97-.72.05-.17.09-.34.14-.51,0-.59-.25-1.07-.62-1.51-.38-.14-.77-.19-1.17-.12-.27.53-1.05.82-.75,1.62Z"/>
      <path class="cls-19" d="m8.19,12.09c.63-.48.83-1.11.68-1.87-.34-.45-.7-.87-1.17-1.19-.41,0-.82,0-1.04.45v.03c.03.76-.57,1.58.19,2.28.42.24.85.41,1.34.31Z"/>
      <path class="cls-59" d="m13.97,17.88c-.13-.25-.13-.49-.02-.75-.1-.61-.59-1.03-.8-1.59-.35.58-.88.68-1.49.6.04.61-.32,1.17-.26,1.78.86.23,1.71.46,2.57.69.16-.24.39-.49,0-.73Z"/>
      <path class="cls-60" d="m24.57,16.37c.43.32.19.77.23,1.17.48.03.95.15,1.43.2.43,0,.82-.12,1.11-.46.34-.41.36-.89.28-1.39,0,0,0-.06,0-.06-.84-.12-1.68-.25-2.53-.37-.14.32-.41.56-.51.91Z"/>
      <path class="cls-87" d="m42.91,11.97c-.24.45-.05.68.37.9.79.43.89,1.02.24,1.68-.09.33-.32.66.03.97.23.22.51.32.82.32.25-.01.47-.08.67-.25.08-.08.16-.17.22-.27.32-.54.51-1.08-.2-1.48-.67-.38-.24-1.08-.5-1.58-.55-.1-1.11-.2-1.66-.3Z"/>
      <path class="cls-30" d="m50.96,17.31c.85.14,1.7.28,2.55.42.15-1.79-.72-2.63-2.19-2.13-.42.27-.7.64-.76,1.15,0,.28.05.54.41.57Z"/>
      <path class="cls-31" d="m44.57,12.27c-.36.78-.56,1.49.5,1.94.71.3-.23.73,0,1.1.55-.07,1.11-.12,1.53-.55-.02-.36-.45-.65-.2-1.06.1-.31.36-.58.25-.94-.67-.27-1.37-.43-2.09-.49Z"/>
      <path class="cls-109" d="m51.39,15.8c.97-.28,1.67.1,1.85,1.06.06.31.05.62.27.87.36.06.73.13,1.09.19.41-.09.79-.23.97-.66-.01-.23-.03-.47-.04-.7-.56-.11-1.16-.07-1.6-.54-.68-.42-1.36-.84-1.57-1.69-.38,0-.64.24-.92.43-.14.11-.25.25-.3.42-.03.25.06.46.25.62Z"/>
      <path class="cls-34" d="m46.55,14.73c-.51.16-1.14,0-1.48.58-.05.06-.1.12-.15.18-.05.27-.35.51-.09.81.83.14,1.67.28,2.5.42.17-.36.26-.73.19-1.12-.04-.17-.1-.34-.2-.49-.2-.25-.42-.45-.77-.38Z"/>
      <path class="cls-15" d="m13.71,8.34c.59,1.27.23,1.8-1.24,1.82,0,.3.1.57.26.82.27.03.54.06.81.09.35-.28.62-.09.88.15.43.25.9.27,1.38.26-.45-.26-.43-.76-.6-1.17-.22-.07-.66.09-.59-.31.05-.28.45-.17.71-.19-.06-.73-.99-1.03-.91-1.83,0,0-.02,0-.02,0-.28,0-.54.04-.66.35Z"/>
      <path class="cls-57" d="m58.07,16.57c-.74.43-1.02,1.01-.56,1.81.59.24,1.21.31,1.84.3-.15-.17-.41-.32-.3-.59.38-.97-.23-1.29-.98-1.52Z"/>
      <path class="cls-104" d="m52.33,14.36c-.26.74.03,1.17.74,1.44.28.11.52.35.78.52.34-.24.33-.69.59-.99.16-.24.34-.47.29-.79-.72-.16-1.43-.32-2.15-.47-.18.01-.26.11-.24.29Z"/>
      <path class="cls-33" d="m50.96,25.73c.74.1,1.49.2,2.23.3,0-.05.01-.11.02-.16-.09-.64.01-1.36-.7-1.77-.15-.11-.31-.19-.49-.23-.44-.03-.71.24-.94.56-.21.41-.39.83-.13,1.3Z"/>
      <path class="cls-86" d="m42.6,24.68c.47-.87,1.12-.78,1.83-.33.43-.11.62-.49.85-.8.41-.56.01-.89-.45-1.11-.43-.21-.97-.64-1.13.29.09.75-.5.86-1,1.05-.27.23-.48.48-.43.86.11.02.22.04.33.05Z"/>
      <path class="cls-11" d="m14.49,15.49c.67-.24,1.02-.83,1.46-1.33-.74-.46-1.59-.43-2.4-.58-.06.1-.11.22-.14.33-.19.8.15,1.3.89,1.58.06,0,.12,0,.18,0Z"/>
      <path class="cls-109" d="m3.72,8.17c.71-.3,1.33.25,2.02.18,1.11-1.02,1.09-1.13-.29-1.86-.44.08-.68.44-1.01.69-.24.33-.48.65-.72.98Z"/>
      <path class="cls-133" d="m7.68,9.07c.18.61.54,1.03,1.19,1.15.08-.69.09-1.38-.07-2.07-.14-.31-.2-.66-.5-.88-.27-.11-.54-.2-.78.07.13.57.09,1.15.16,1.73Z"/>
      <path class="cls-130" d="m39.39,11.23c.08-.09.15-.17.23-.26-.72-.17-1.43-.34-2.15-.51-.5.33-.76.78-.34,1.28.47.56.93.19,1.31-.19.27-.27.55-.45.95-.32Z"/>
      <path class="cls-18" d="m64.94,18.19c-.33-.65-.77-.31-1.18-.12-.43.19-.61.51-.35.95.12.2.09.37-.02.55.38.06.75.11,1.13.17.14-.52.28-1.03.42-1.55Z"/>
      <path class="cls-118" d="m8.19,12.09c-.39-.2-.77-.41-1.22-.43-.19.02-.43-.1-.5.21-.6.62-.53,1.12.26,1.5.35.11.58,0,.68-.35l.78-.93Z"/>
      <path class="cls-97" d="m34.2,21.06c.36.75,1.19,1.34.81,2.35.44.23.92.24,1.4.23.2-.02.34-.13.4-.32,0-.9-.93-1.04-1.31-1.62-.42-.24-.75-.68-1.3-.63Z"/>
      <path class="cls-77" d="m7.56,7.38c.22-.01.45-.02.67-.03.52-.11.35-.57.46-.89,0-.11,0-.21,0-.32-.46-.15-.85-.69-1.42-.26.01.31-.31.43-.4.68-.23.63-.11,1.01.68.82Z"/>
      <path class="cls-129" d="m54.95,21.17c-.11-.71,1.06-.82.75-1.62-.44-.23-.92-.26-1.4-.24-.35.18-.73.39-.6.85.17.61.61.95,1.26,1h0Z"/>
      <path class="cls-127" d="m4.52,10.79c-.06-.68-.66-.94-1.63-.73-.12.45-.02.84.26,1.2.73.63.98-.12,1.37-.48Z"/>
      <path class="cls-101" d="m11.4,17.92c.26-.57,1.03-1.07.26-1.78-.07-.03-.12-.07-.17-.13-.72-.15-.96.41-1.14.89-.16.41.11.73.57.83.14.12.28.26.49.2Z"/>
      <path class="cls-27" d="m34.74,18.66c.35-.38.64-.89,1.3-.74.13-.28.22-.58.13-.89-.96-.2-1.93-.38-2.92-.37.08.18.16.37.23.55.86.1.95.86,1.25,1.45Z"/>
      <path class="cls-76" d="m42.27,24.63c.19-.26.54-.45.43-.86-1.06-.94-1.66-.33-2.14.65.57.07,1.14.14,1.71.22Z"/>
      <path class="cls-58" d="m60.42,15.74c.03.43-.85.77-.23,1.2.27.18.47.84.91.5.53-.41.58-1,.14-1.57-.26-.13-.53-.2-.82-.13Z"/>
      <path class="cls-22" d="m54.96,21.17c-.42-.55-1.65-.8-.66-1.85-.09,0-.19-.02-.28-.03-.72.31-1.42.25-2.08-.15-.07.01-.12.05-.17.1-.1.41.04.75.33,1.04.33.29.74.44,1.13.62.45.15.78.55,1.26.65.06,0,.12-.02.18-.03.1-.12.2-.24.29-.36Z"/>
      <path class="cls-78" d="m47.91,19.37c.36.3.63,1,1.18.67.36-.21.67-.78.31-1.32-.37-.05-.74-.11-1.11-.16-.13.27-.25.55-.38.82Z"/>
      <path class="cls-89" d="m11.04,8.91c.35.23.63.1.81-.21.36-.61.89-.73,1.53-.64-.04-.32-.23-.46-.54-.48-.65.32-1.34-.18-1.99.09.07.41.13.82.2,1.23Z"/>
      <path class="cls-25" d="m58.43,25.2c-1.08-.35-1.22.59-1.62,1.18.72.11,1.44.22,2.17.32-.1-.1-.19-.21-.29-.31.07-.43-.2-.79-.26-1.19Z"/>
      <path class="cls-13" d="m64.11,20.6c0,.37-.31.83.44.93.71.09,1.39.3,1.59-.69-.67-.12-1.33-.36-2.03-.24Z"/>
      <path class="cls-21" d="m41.72,18.73c-.21-.41-.03-.72.24-1.01-.93.09-1.84-.03-2.73-.26.14.24.28.48.42.73.68.16.75.89,1.18,1.29.41-.11.76-.3.89-.74Z"/>
      <path class="cls-88" d="m21.07,20.35c-.06-.36.73-.83-.16-1.07-.71-.2-1.33-.31-1.42.71.53.12,1.05.24,1.58.37Z"/>
      <path class="cls-25" d="m52.33,14.36c.08-.1.16-.19.24-.29-.66-.13-1.29-.42-1.99-.34-.13.05-.22.14-.25.28.04.77.45,1.06,1.19.94.42.02.54-.38.8-.59Z"/>
      <path class="cls-71" d="m59.7,20.88c.14-.28.28-.55.42-.83-.78-.1-1.56-.19-2.34-.29-.16.37-.07.62.35.72.18.16.36.31.54.47.26.03.48-.15.74-.12.09.05.19.07.29.06Z"/>
      <path class="cls-85" d="m27.81,7.69c-.31.4-.76.82-.24,1.32.25.24.65.33.96,0,.46-.5.16-.86-.23-1.2-.16-.04-.33-.08-.49-.12Z"/>
      <path class="cls-56" d="m66.46,16.95c.27.77-.96.51-.82,1.2.34,0,.69-.03,1.02.04.68.13.66.15.54-.56-.02-.15.17-.33.26-.5-.32-.16-.63-.33-1.01-.17Z"/>
      <path class="cls-99" d="m50.43,13.96c.05-.08.1-.15.16-.23-.64-.41-1.38-.39-2.09-.47-.32-.11-.57-.02-.75.26-.13.31-.35.62-.06.96.73-.26,1.46-.39,2.2-.03.11,0,.22-.02.33-.07.14-.11.24-.24.22-.43Z"/>
      <path class="cls-72" d="m56.27,14.94c.34,1.2.69,1.39,1.76.94.05-.19.09-.39.14-.58-.61-.26-1.25-.33-1.9-.35Z"/>
      <path class="cls-76" d="m41.44,14.68c-.21.33-.33.68-.29,1.08.48.06.96.12,1.45.18.49-.2.67-.46.18-.86-.54.17-.72-.86-1.34-.4Z"/>
      <path class="cls-60" d="m36.71,23.3c-.1.11-.19.22-.29.34.85.24,1.7.43,2.59.43-.08-.42-.49-.49-.75-.72-.14-.31-.43-.37-.72-.46-.36-.03-.74-.12-.83.41Z"/>
      <path class="cls-6" d="m50.96,25.73l.29-1.11c0-.11-.06-.18-.17-.21-.34.04-.48.51-.89.42-.7-.21-1.38-.36-1.6.63.79.09,1.57.18,2.36.26Z"/>
      <path class="cls-139" d="m25.09,8.19c.11-.42.05-.89.43-1.22-.41-.35-.91-.43-1.41-.53-.38.99.55,1.23,1,1.75h-.02Z"/>
      <path class="cls-120" d="m47.36,15.7c.05.34-.38.67-.03,1.02.36.07.73.14,1.09.21.12-.02.21-.09.26-.2.12-.3.09-.59-.11-.85-.37-.28-.72-.74-1.22-.18Z"/>
      <path class="cls-128" d="m36.17,17.03c-.23.27-.46.54-.13.89.8.48,1.1-.21,1.5-.65-.46-.05-.88-.38-1.37-.25Z"/>
      <path class="cls-134" d="m30.54,14.02c.24-.76-.31-.89-.82-.89-.5,0-.69.3-.41.78.4.13.81.21,1.24.11Z"/>
      <path class="cls-135" d="m48.6,25.47c.51-.84,1.19-.44,1.85-.26-.03-.55-.41-.81-.85-1.02-.55-.05-1.1.03-1.65.11-.14.18-.15.43.02.53.37.2.18.39.05.6.19.01.39.03.58.04Z"/>
      <path class="cls-55" d="m64.29,26.55c-.89-.68-.99.04-1.15.65.45.07.9.14,1.36.22.49-.43-.16-.58-.21-.87Z"/>
      <path class="cls-132" d="m58.13,20.48c-.12-.24-.23-.48-.35-.72-.3-.03-.61-.06-.91-.09-.12.64.36,1.03.62,1.51.21-.23.42-.47.64-.7Z"/>
      <path class="cls-65" d="m51.93,19.13c.63.94,1.31,1.17,2.08.15-.69-.14-1.38-.29-2.08-.15Z"/>
      <path class="cls-11" d="m15.94,14.16c.12.12.25.24.37.36.02.37.15.68.54.81.29-.08.57-.16.86-.24.04-.26.41-.39.27-.72l-2.04-.21Z"/>
      <path class="cls-1" d="m69.53,20.61c-.39-.12-.79-.23-1.18-.35-.1-.03-.15-.01-.16.04,0,.05,0,.09.03.11.31.69-.54.2-.56.55l2.07.23c.31-.32.17-.49-.19-.59Z"/>
      <path class="cls-35" d="m47.87,13.62c.21-.12.42-.24.63-.36-.56-.36-1.19-.47-1.84-.5-.18.31-.56.51-.5.94.56-.26,1.16.32,1.72-.08Z"/>
      <path class="cls-4" d="m12.72,10.98c.27-.38.02-.61-.26-.82-.51-.15-.95-.16-1.09.49.38.41.88.3,1.34.32Z"/>
      <path class="cls-138" d="m29.85,16.18c-.02.59.38.9.85.97.44.07.56-.34.54-.73-.45-.16-.91-.31-1.4-.23Z"/>
      <path class="cls-7" d="m55.58,17.25c-.42.08-.72.33-.97.66.68.11,1.33.38,2.04.29-.33-.35-.58-.78-1.07-.95Z"/>
      <path class="cls-107" d="m13.71,13.81c-.05-.08-.1-.16-.15-.24-.45-.16-.91-.29-1.39-.23-.05.08-.1.16-.16.24.21.48.63.74,1.05.99.36-.13.56-.4.65-.76Z"/>
      <path class="cls-107" d="m17.98,14.37c-.14.22-.4.4-.27.72.59.01,1.28.38,1.66-.44-.43-.25-.9-.28-1.38-.28Z"/>
      <path class="cls-28" d="m7.41,13.02c-.23.12-.45.24-.68.35-.57,1.34-.74,1.42-1.69.78.08.45.44.73.72,1.17.5-.86,1.3-1.41,1.65-2.3Z"/>
      <path class="cls-37" d="m4.9,13.98c.95-1.32-.28-1.2-.96-1.45.21.55.48,1.07.96,1.45Z"/>
      <path class="cls-136" d="m68.21,20.42c.03-.06.08-.11.13-.16-.3-.24-.59-.51-.92-.7-.65-.39-.69.04-.64.53.43.3.97.16,1.43.32Z"/>
      <path class="cls-124" d="m48.02,25.42c.78-.39-.16-.73-.03-1.1-.04-.14-.13-.2-.28-.18-.3.23-.56.49-.66.88,0,.12,0,.23,0,.35.31.17.64.1.96.05Z"/>
      <path class="cls-108" d="m13.97,17.88c0,.24,0,.49,0,.73.36.08.71.16,1.07.24.25-.99-.53-.85-1.07-.97Z"/>
      <path class="cls-98" d="m24.58,13.08c-.26-1.03-.62-1.11-1.59-.32.49.29,1.04.28,1.59.32Z"/>
      <path class="cls-32" d="m36.4,14.99c.07-.34.07-.62-.34-.76-.56-.2-.79.2-1.06.53.44.22.91.29,1.39.23Z"/>
      <path class="cls-95" d="m24.57,16.37c.44-.15.88-.3.51-.91-.31-.04-.62-.08-.93-.13-.33.54.15.74.43,1.03Z"/>
      <path class="cls-69" d="m10.9,17.73c-.69-.89-.6-1.16.58-1.71-.32-.3-.56-.52-.86.08-.23.47-.49.97-.98,1.26.42.12.84.25,1.26.37Z"/>
      <path class="cls-50" d="m50.96,17.31c-.07-.15-.13-.3-.2-.45,0-.33-.24-.39-.49-.43-.56.06-1.27-.32-1.54.55.74.11,1.48.23,2.22.34Z"/>
      <path class="cls-29" d="m44.43,15.68c-.24-.09-.47-.18-.71-.27-.49-.11-.74.1-.81.57.56.15,1.12.32,1.72.28.07-.24.08-.46-.2-.58Z"/>
      <path class="cls-38" d="m10.66,6.37c.67-.64.94-1.22-.26-1.56-.12.55.16,1.04.26,1.56Z"/>
      <path class="cls-94" d="m33.43,9.29c-.24.55.18.67.54.82.44.18.66-.01.74-.44-.43-.13-.85-.25-1.28-.38Z"/>
      <path class="cls-93" d="m55.92,26.26c.08-.39-.17-.44-.46-.45-.46-.02-.5-.24-.27-.59-.37-.38-.65-.24-.88.16-.04.35.24.54.41.79.4.03.8.06,1.2.09Z"/>
      <path class="cls-64" d="m10.16,14.87c1.12.28.88-.4.71-1.02-.3.29-.62.58-.71,1.02Z"/>
      <path class="cls-90" d="m70.87,28.61c-.34-.36-.71-.7-.71-1.3-.63.14-.61.77-1,.99.1.02.2.04.31.05.42-.21.71.15,1.06.23l.34.04Z"/>
      <path class="cls-66" d="m43.87,18.02c.06.08.13.16.19.24.35.44.82.67,1.35.79.16-.09.25-.22.23-.41-.07-.16-.13-.32-.19-.48-.53-.05-1.06-.09-1.59-.14Z"/>
      <path class="cls-81" d="m53.19,26.03c.4.05.8.09,1.2.14.03-.85-.25-1.02-1.16-.74-.15.18-.1.38-.02.57l-.02.03Z"/>
      <path class="cls-113" d="m64.29,26.55c.07.29.14.58.21.87.15.12.31.21.51.12.67-1-.21-.86-.72-.99Z"/>
      <path class="cls-36" d="m15.2,4.86c.25-.11.98.23.52-.55-.26-.07-.53-.14-.8-.21-.25.38.04.56.27.77Z"/>
      <path class="cls-26" d="m42.91,15.97c.19-.31.48-.47.81-.57-.28-.23-.14-.56-.2-.85-.24.38-.62.38-1.01.37-.02.13.04.19.18.18.36.32.12.57-.09.83.1.01.21.02.31.03Z"/>
      <path class="cls-137" d="m53.2,25.68c.65-.46,1.05-.3,1.2.49.11,0,.22,0,.33,0,.09-.35-.16-.53-.36-.73-.1-.43-.37-.75-.81-.6-.3.1-.76.34-.36.84Z"/>
      <path class="cls-22" d="m8.69,6.46c-.15.3-.31.59-.46.89.1.33.25.63.57.81.07-.57.07-1.14-.11-1.7Z"/>
      <path class="cls-53" d="m8.68,3.58c-.37.64-.26,1.27.02,1.91.16-.64.11-1.27-.02-1.91Z"/>
      <path class="cls-35" d="m48.74,16.97c.42-.54,1.03-.17,1.53-.31-.72-.84-1-.83-1.73.09-.04.06-.08.12-.12.18.09.11.2.11.32.04Z"/>
      <path class="cls-98" d="m52.34,20.14c-.3-.23-.47-.55-.57-.9-.2-.11-.4-.22-.59-.33-.07.5.58.75.44,1.28.25.15.5.32.72-.04Z"/>
      <path class="cls-8" d="m14.41,11.22c.01-.59-.41-.58-.8-.53-.31.04-.23.22-.08.38.29.05.58.1.88.15Z"/>
      <path class="cls-5" d="m18.53,12.01c.05-.32-.1-.51-.41-.56-.29-.04-.53.03-.5.41.3.05.6.1.9.15Z"/>
      <path class="cls-69" d="m9.18,17.19c-.2-.21-.47-.39-.39-.74-.23.06-.55.17-.43.43.13.3.51.32.83.31Z"/>
      <path class="cls-119" d="m30.24,22.38c-.29-.12-.46-.92-.91-.16.26.27.58.24.91.16Z"/>
      <path class="cls-24" d="m54.73,14.54c-.21.25-.41.5-.62.75.53.32.73-.14,1-.43.04-.04.08-.09.12-.13-.12-.19-.28-.25-.5-.19Z"/>
      <path class="cls-73" d="m20.48,5.35c.3.25.51.71,1.03.42-.24-.39-.64-.4-1.03-.42Z"/>
      <path class="cls-49" d="m70.53,28.57c-.32-.25-.58-.77-1.06-.23.35.08.71.15,1.06.23Z"/>
      <path class="cls-53" d="m7.85,3.8c.28-.07.56-.15.83-.22-.47-.65-.57.08-.83.22Z"/>
      <path class="cls-96" d="m44.43,15.68c.07.19.13.38.2.58.06.04.13.06.21.04.03-.27.06-.54.09-.81-.16.06-.33.13-.49.19Z"/>
      <path class="cls-70" d="m6.75,4.74c.5-.06.67-.51.95-.82-.46.11-.73.44-.95.82Z"/>
      <path class="cls-68" d="m59.89,21.37c-.57.36-.9.89-.88,1.55,0,.36.48.37.74.48.43.18.78.05.77-.52.19-.67-.04-1.16-.63-1.51Z"/>
      <path class="cls-114" d="m67.12,23.21c-.69-.37-1.38-1.07-1.83.24-.2.57-.09.8.46.94.52.13.75.08.6-.56-.13-.57.57-.26.76-.62Z"/>
      <path class="cls-41" d="m61.44,24.69c-.46-.33-.89-.45-1.35.06-.36.4-.34.78-.07,1.18.17.26.47.6.76.42.51-.32,1.11-.69.83-1.5-.34.01-.39.47-.74.48-.13.08-.06-.12-.04-.12.36.02.55-.18.61-.53Z"/>
      <path class="cls-39" d="m61.73,21.65c-.31.27-.18.54.09.78.64.56,1.01-.09,1.43-.37.24-.16.18-.48-.09-.57-.47-.16-.98-.44-1.42.16Z"/>
      <path class="cls-121" d="m57.35,21.7c-.32.24-.64.48-.97.72.16.61-1.03,1.05-.21,1.74.03-.02.08-.04.1-.07q.77-1.21,1.87-.4s.04.01.04.01c.65-1.05-.79-1.24-.82-2Z"/>
      <path class="cls-3" d="m69.53,20.61c.16.17.27.34.19.59.35.07.71.14,1.06.22.18-.03.31.2.5.1.34,0,.68-.02,1.01-.03.19-.16.2-.31-.04-.43-.89-.29-1.81-.39-2.74-.45Z"/>
      <path class="cls-43" d="m63.42,23.54c-.11.04-.23.07-.32.14-.4.33-.41.82-.42,1.27,0,.24.36.32.56.28.57-.1.27-.73.56-1.01.33-.49-.08-.55-.38-.68Z"/>
      <path class="cls-112" d="m68.67,25.23c-.2.24-.36.56-.15.67.41.22.88.3,1.31-.08.23-.2.14-.34-.03-.46-.36-.26-.75-.45-1.13-.13Z"/>
      <path class="cls-44" d="m71.29,21.51c-.15-.11-.31-.19-.5-.1-.01.11,0,.23-.03.34-.11.3-.44.61-.06.91.25.19.49.05.71-.17.38-.39.2-.68-.11-.97Z"/>
      <path class="cls-106" d="m69.76,19.81c.33.21.51-.01.69-.23.15-.18.31-.4,0-.57-.19-.1-.45-.25-.6.06-.11.23-.35.46-.09.74Z"/>
      <path class="cls-67" d="m61.44,24.69c-.15.11-.29.27-.47.33-.21.07-.52-.62-.66.04-.04.19.2.54.4.66.33.2.46-.11.57-.38.08-.18.21-.33.32-.49-.04-.07-.1-.12-.17-.16Z"/>
      <path class="cls-11" d="m66.97,26.04c-.47-.02-1.06-.09-1.1.52-.02.34.42.56.81.21.34-.14.7-.28.3-.73Z"/>
      <path class="cls-42" d="m73.23,19.24c-.64-.69-1.1-.78-1.61-.7-.02,0-.06.16-.03.21.36.51.89.24,1.64.49Z"/>
      <path class="cls-51" d="m59.89,21.37c.38.43.6.93.63,1.51.66-1.05-.36-1.41-.82-2-.06-.05-.12-.11-.19-.16-.1,0-.15.03-.17.1-.02.06-.02.1,0,.12l.54.44Z"/>
      <path class="cls-74" d="m72.27,21.06c.01.14.03.29.04.43.4.06.81.33,1.29-.09-.44-.25-.84-.45-1.32-.34Z"/>
      <path class="cls-52" d="m66.97,26.04c.11.33-.14.51-.3.73.13.16.17.59.42.4.35-.25.4-.71.24-1.14-.14-.2-.26-.18-.38.02h.01Z"/>
      <path class="cls-40" d="m66.95,26.05c.13,0,.25-.01.38-.02.22-.34.1-.58-.23-.76-.16-.08-.32-.05-.41.09-.21.33.1.48.26.68Z"/>
      <path class="cls-116" d="m63.42,23.54c.2.19.44.34.38.68.25,0,.7.15.61-.27-.09-.45-.59-.43-1-.41Z"/>
      <path class="cls-105" d="m58.43,25.2c-.39.5.17.79.26,1.19.36-.48.04-.91-.1-1.35-.06.05-.11.1-.16.16Z"/>
      <path class="cls-112" d="m73.95,22.73c-.13.14-.11.29-.02.42.14.18.35.19.53.1.24-.12.08-.22-.04-.34-.14-.14-.24-.32-.48-.18Z"/>
      <path class="cls-68" d="m59.34,20.94c.06-.07.11-.14.17-.22-.33-.11-.61-.04-.84.22.23.54.45.22.67,0Z"/>
      <path class="cls-115" d="m71.3,24.88c0,.08,0,.24.05.36.01.04.23.05.3,0,.15-.11.1-.28,0-.41-.07-.1-.19-.12-.36.04Z"/>
      <path class="cls-91" d="m72.06,27.21c0,.09-.06.21-.02.29.06.13.2.11.26.01.05-.08.07-.21.04-.3-.06-.17-.17-.06-.29,0Z"/>
      <path class="cls-131" d="m68.26,19.21c-.15-.03-.27-.08-.36-.06-.14.04-.13.17-.04.25.08.06.2.1.3.09.04,0,.06-.16.1-.29Z"/>
      <path class="cls-86" d="m74.07,20.68c-.13.15-.04.23.05.29.1.07.19.29.33.08.03-.05-.04-.22-.11-.28-.07-.06-.19-.06-.28-.09Z"/>
      <path class="cls-83" d="m37.55,14.05c1.16,1.13,1.2,1.12,1.78-.57-.74-.25-1.51-.64-1.78.57Z"/>
      <path class="cls-87" d="m20.1,7.99c-.36-.03-.76-.64-1.09-.03-.15.26-.63.66-.08,1,.36.22.81.47,1.15-.03.18-.27.48-.6.02-.94Z"/>
      <path class="cls-82" d="m25.11,8.19c-.09.35-.2.69-.26,1.04-.07.49.33.68.66.88.26.15.45,0,.56-.25.16-.36.16-.68-.18-.96-.28-.22-.54-.47-.8-.71,0,0,.02,0,.02,0Z"/>
      <path class="cls-82" d="m34.3,12.47c.41.21.77.35,1.12-.01.28-.3.39-.6.02-.9-.28-.23-.63-.47-.92-.11-.21.27-.47.64-.23,1.02Z"/>
      <path class="cls-92" d="m30.99,10.81c.4.22.8.37,1.17-.08.2-.24.3-.5.02-.73-.38-.31-.82-.36-1.2-.04-.29.24-.24.56.02.85Z"/>
      <path class="cls-87" d="m19.98,11.67c.25.17.52.46.79.07.24-.35.27-.74-.1-1.05-.26-.22-.57-.36-.82-.03-.27.35-.3.72.13,1.01Z"/>
      <path class="cls-101" d="m22.56,8.17c.23-.34.33-.68-.05-.94-.35-.24-.67-.1-.92.2-.22.26-.38.52-.04.8.36.3.71.28,1.01-.06Z"/>
      <path class="cls-110" d="m31.81,12.62c-.24.31-.27.63.03.85.26.19.64.47.91.05.18-.27.37-.68.02-.96-.31-.24-.67-.16-.96.07Z"/>
      <path class="cls-86" d="m28.45,10.91c-.22.25-.4.52-.07.8.3.26.66.33.92-.02.21-.28.39-.66.07-.95-.32-.29-.66-.13-.92.16Z"/>
      <path class="cls-82" d="m18.96,5.07c-.32.44-1.27.7-.41,1.47.42.02.71-.08.88-.55.2-.54-.15-.7-.47-.92Z"/>
      <path class="cls-75" d="m25.97,11.39c-.28.48-.41.81.01,1.06.35.21.68.19.93-.16.25-.36.01-.59-.25-.79-.26-.21-.54-.35-.69-.11Z"/>
      <path class="cls-87" d="m15.3,9.82c-.32-.35-.66-.58-1.09-.18-.27.26-.26.53.02.8.38.36.68.27.95-.13.04-.16.08-.33.12-.49Z"/>
      <path class="cls-84" d="m23.24,9.83c-.31-.09-.62-.32-.86.04-.21.31-.12.59.16.83.25.21.5.22.72-.04.23-.28.24-.56,0-.82Z"/>
      <path class="cls-102" d="m16.86,8.94c-.13.24-.13.47.08.65.24.19.45.09.62-.11.18-.21.2-.44-.06-.6-.22-.14-.45-.13-.64.07Z"/>
      <path class="cls-86" d="m25.66,20.23c.03.38-.05.8.44.98.42.16.69-.05.9-.35.3-.43.76-.51,1.21-.63,0-.19-.1-.33-.25-.43-.73-.12-1.39-.38-1.87-.99-.46-.27-.81-.77-1.42-.75-.02.53.46.68.75.96.39.36.6.72.23,1.2Z"/>
      <path class="cls-82" d="m24.67,18.07c.48.3.74.95,1.42.94.55-.48.95-.97.07-1.52-.45.05-.94-.64-1.37.05-.04.18-.09.35-.13.53Z"/>
      <path class="cls-101" d="m16.63,17.03c-.64.49-1.05,1-.23,1.69.43.02.88.03,1-.52.15-.65-.47-.81-.77-1.17Z"/>
      <path class="cls-103" d="m23.48,18.37c-.39-.14-.79-.44-1.1-.06-.22.27-.55.65-.21,1.04.3.34.68.38,1.02.02.27-.28.52-.59.29-1.01Z"/>
      <path class="cls-85" d="m21.53,16.84c.37.19.76.35,1.06-.07.24-.33.39-.73-.05-1.03-.29-.19-.65-.41-.92.02-.2.32-.43.68-.09,1.07Z"/>
      <path class="cls-101" d="m16.85,15.33c-.06-.35-.26-.61-.54-.81-.58.2-1.2.51-.9,1.2.18.42.77.5,1.15-.03.1-.12.19-.24.29-.36Z"/>
      <path class="cls-85" d="m19.08,16.81c-.2.32-.19.62.1.84.25.19.53.17.74-.06.24-.27.27-.58-.01-.83-.27-.23-.58-.2-.83.05Z"/>
      <path class="cls-20" d="m26.17,17.49c.62.54-.03,1.02-.07,1.52.28.88.95,1.01,1.75.9.64-.11.9-.68,1.31-1.07-.4-.23-.37-.64-.41-1.01-.58-.14-1.04-.5-1.56-.75-.23.4-.64.36-1.01.42Z"/>
      <path class="cls-101" d="m27.18,17.07c.28.75.78,1.04,1.56.75.43-1.11-.59-1.38-1.13-1.93-.4.3-.07.87-.43,1.18Z"/>
      <path class="cls-101" d="m29.15,18.84c-.85-.15-.83.77-1.31,1.07.12.11.24.22.36.32.5.32.99.48,1.39-.15.4-.62-.07-.91-.45-1.25Z"/>
      <path class="cls-103" d="m34.2,21.06c.42.25.64.82,1.24.79.45-.51,1.1-.99.23-1.67-.44.06-.89-.43-1.31.05-.05.28-.1.56-.15.84Z"/>
      <path class="cls-122" d="m34.74,18.66c.28-1.12-.12-1.58-1.25-1.45-.18.64-.38,1.28.43,1.67.28-.07.61.07.83-.22Z"/>
      <path class="cls-101" d="m31.8,18.3c-.28-.17-.61-.31-.81.05-.19.36-.43.82.07,1.16.31.21.6.1.83-.17.3-.36.3-.71-.09-1.03Z"/>
      <path class="cls-87" d="m31.9,21.19c-.15.3-.14.58.12.76.31.21.52-.04.69-.26.17-.21.24-.43-.07-.57-.26-.12-.53-.19-.74.07Z"/>
      <path class="cls-101" d="m12.83,7.58c.18.16.36.32.54.48.11.09.23.18.34.28.22-.12.44-.23.66-.35-.21-.37.72-.74.02-1.09-.77-.39-1.15.2-1.56.68Z"/>
      <path class="cls-111" d="m12.37,5.18c.44.19.84.41,1.24.03.22-.21.35-.48.06-.71-.34-.27-.74-.52-1.16-.16-.27.23-.29.53-.14.83Z"/>
      <path class="cls-82" d="m16.04,7.19c.44-.12.98-.08,1.11-.67.06-.26-.17-.42-.39-.52-.42-.21-.82-.26-1.11.23-.02.38-.04.76.38.97Z"/>
      <path class="cls-48" d="m35.67,20.17c.47.63-.27,1.1-.23,1.67.08.78,1.14.71,1.27,1.45.23-.3.56-.15.84-.21.2-.48.37-.96.41-1.48-.17-.8-.8-1.29-1.26-1.89-.34.15-.69.3-1.03.45Z"/>
      <path class="cls-16" d="m39.51,18.36c-.5.3-.46,1.24-1.32,1.11-.28.71-.36,1.4.13,2.06.18.19.4.33.65.4.68.1,1.17-.15,1.48-.77.21-.55.02-.99-.36-1.38-.56-.32-.21-1.02-.58-1.42Z"/>
      <path class="cls-125" d="m38.45,21.35c-.51-.57.16-1.3-.25-1.89-.54-.15-1.09-.35-1.5.26-.24,1,1.07,1.13,1.11,1.98.33.09.59.07.64-.35Z"/>
      <path class="cls-117" d="m39.51,18.36c-.06.52-.47,1.09.22,1.49.37.12.77.4,1-.19,0-.06,0-.12,0-.17.26-.95.02-1.48-1.08-1.29-.04.06-.09.12-.14.17Z"/>
      <path class="cls-46" d="m53.2,25.68c.17-1.13.68-.62,1.16-.24.23-.25.51-.33.83-.22.74-1.04.46-1.52-1.16-1.98-.64.23-1.03.82-1.61,1.13.87.25-.02,1.35.79,1.64,0-.11-.01-.22-.02-.32Z"/>
      <path class="cls-47" d="m58.14,23.68c-.18-.5-.25-1.06-1.04-.94-.88.13-.85.78-.92,1.4.69,0,1.47.37,1.97-.47Z"/>
      <path class="cls-126" d="m52.42,24.37c.99.27,1.14-.66,1.61-1.13-.11-.1-.22-.2-.34-.3-.41-.76-.9-.51-1.41-.11-.23.38-.44.77-.2,1.23.11.1.22.2.33.31Z"/>
      <path class="cls-22" d="m52.34,23.02c.43-.38.89-.42,1.36-.08.05-.06.11-.11.16-.17,0-.05,0-.1,0-.15-.22-.51-.78-.4-1.15-.66-.11-.02-.21,0-.3.07-.23.32-.5.63-.06.99Z"/>
      <path class="cls-22" d="m53.86,22.77c.63-.18,1.09-.47.8-1.25,0,0-.03,0-.03,0-.49.26-.73.68-.77,1.22v.02Z"/>
      <path class="cls-45" d="m43.7,22.72c.54-.81.94,0,1.33.17.5.22.15.58-.05.85-.16.22-.36.41-.55.61.47.35.48-.18.65-.36.36-.41.68-.87,1.33-.77,0-.56-.03-1.13-.19-1.66-.24-.79-.68-1.39-1.66-.94-.47.35-.27,1.15-.93,1.38-.09.25-.09.5.07.73Z"/>
      <path class="cls-101" d="m40.33,21.03c-.28.53-.78.67-1.32.74.03.35.25.49.57.53.08.01.15.02.23.03,1.16.11,1.15.09,2.24-.64.24-.16.58-.18.88-.27-.13-.12-.27-.25-.4-.37-.29-.1-.58-.23-.87-.33-.31-.12-.58-.35-.94-.26-.19.15-.34.32-.37.57Z"/>
      <path class="cls-80" d="m39.57,22.3c-.19-.18-.38-.36-.57-.53-.19-.14-.37-.28-.56-.42-.22.12-.43.23-.64.35-.15.45-.63.84-.25,1.39.23.09.47.17.7.26.64-.1.9-.67,1.32-1.05Z"/>
      <path class="cls-117" d="m13.15,15.54c-.44.88.38,1.14.8,1.59.15-.56.83-.94.55-1.65,0,0,0,0,0,0-.42.1-.71-1.03-1.21-.13-.04.07-.09.13-.14.19Z"/>
      <path class="cls-22" d="m13.29,15.35c.46-.47.79.27,1.21.13-.5-.44-1.12-.83-.79-1.67-.21.23-.42.47-.64.7-.07.12.02.24.03.36.06.16.12.32.19.48Z"/>
      <path class="cls-11" d="m13.1,14.87c0-.12-.02-.24-.03-.36-.36-.31-.71-.62-1.07-.94-.45.14-.17.31,0,.44.36.29.73.57,1.1.85Z"/>
      <path class="cls-92" d="m42.69,15.11c-.06-.06-.12-.12-.18-.18-.36-.34-.92-.55-.78-1.22.11-.51.47-1.06-.37-1.36-.77-.28-.95.36-1.33.71.08.88,1.37.7,1.4,1.61.53-.18.73.58,1.25.43Z"/>
      <path class="cls-101" d="m6.46,11.87c.17-.07.33-.14.5-.21-.37-.31-.29-.69-.17-1.08.12-.38.26-.76-.14-1.08-.46,0-.93-.65-1.4.1-.26.42-.26.68.11.97.68.17.94.69,1.1,1.29Z"/>
      <path class="cls-126" d="m44.56,20.62c1.07,0,1.6.53,1.44,1.6-.07.46.09.74.41,1l.09.06.08.07c.54.31,1.07.55,1.26-.36.22-.68,0-1.14-.69-1.37-.14-.28-.47-.65-.39-.81.62-1.26-.59-1.53-1.11-2.16-.11.13-.22.26-.33.39-.38.44-.81.8-1.32,1.08.18.17.37.34.55.51Z"/>
      <path class="cls-82" d="m47.15,21.62c.59.31.53.82.43,1.35.71-.29,1.34-.09,1.93.31.17.04.34.03.51-.05.4-.63.88-1.2,1.37-1.76.1-.37.56-.7.11-1.12-.44.75-1.07.85-1.82.53-.28-.12-.57-.36-.86-.01-.24.94-.77,1.26-1.67.75Z"/>
      <path class="cls-16" d="m40.82,20.53c.27.17.45.51.84.46.67,0,.94-.48,1.19-.98,0-.11-.02-.21-.03-.32-.26-.45-.62-.78-1.1-.97,0,0,0,0,0,0-.42.14-.72.42-.99.75,0,0,0,0,0,0,.03.35-.53.75.08,1.06Z"/>
      <path class="cls-12" d="m44,20.11c.88.19,1.22-.31,1.32-1.08-.18-.66-.78-.62-1.26-.77-.79.59-.46,1.22-.06,1.85Z"/>
      <path class="cls-21" d="m42.85,20.02c-.35.39-.68.78-1.19.98.27.16.55.24.85.06-.08-.41.46-.61.33-1.04Z"/>
      <path class="cls-21" d="m41.72,18.73c.37.32.73.65,1.1.97-.13-.59-.51-.9-1.1-.97Z"/>
      <path class="cls-6" d="m49.64,23.19c-.63-.59-1.24-1.36-2.06-.22-.06.86-.64.32-1,.38.25.33.5.67.75,1,.2.03.29-.22.49-.18l.09.07s.08.08.08.08c.48.28.96.48,1.4-.07.52-.25.48-.63.25-1.06Z"/>
      <path class="cls-135" d="m47.81,24.16c-.22-.08-.35.06-.49.18-.14.2-.39.36-.27.67.25-.29.51-.57.76-.86Z"/>
      <path class="cls-22" d="m7.56,7.38c-1.3-.28-.15-1.01-.28-1.5-.42.76-1.06.89-1.83.62,1.2.45.52,1.19.29,1.86.14.51.54.8.91,1.12.34-.15.76-.08,1.02-.41.32-.59.54-1.17-.12-1.69Z"/>
      <path class="cls-23" d="m55.11,14.86c-.44-.1-.58.48-1,.43-.34.28-.17.69-.26,1.03.52.41,1.05.71,1.69.23.39-.7.1-1.23-.43-1.7Z"/>
      <path class="cls-117" d="m51.5,20.35c.15.42-.45.66-.26,1.08.24.75.83.58,1.38.53h0c.65-.16,1-.49.73-1.2-.24-.37-.69-.39-1.01-.63-.24.01-.48.03-.72.04-.04.06-.08.11-.11.17Z"/>
      <path class="cls-103" d="m48.55,16.75c.55-.51,1.12-.62,1.73-.09.21-.04.36.05.5.19.1-.41.3-.77.62-1.06.06-.23-.06-.4-.21-.55-.25-.43-.58-.77-1.07-.92h.01c-.59.54-.92,1.31-1.61,1.77,0,.22.02.44.03.66Z"/>
      <path class="cls-101" d="m47.87,13.62c-.57-.01-1.19-.94-1.72.08-.61.63.07.76.4,1.03.25.2.5.4.74.6.49-.12.52-.47.43-.87.05-.28.1-.55.15-.83Z"/>
      <path class="cls-35" d="m50.11,14.32c.36.31.72.62,1.07.93.11-.1.23-.2.35-.3-.54-.13-.94-.43-1.1-.99-.11.12-.21.24-.32.37Z"/>
      <path class="cls-35" d="m47.72,14.45c-.14.29-.29.58-.43.87.02.13.04.25.06.38.46-.1.82.11,1.16.39,1.16-.03,1.3-.97,1.61-1.77-.82-.34-1.66-.98-2.4.13Z"/>
      <path class="cls-23" d="m52.62,21.97c-.4-.34-1.03-.07-1.38-.53-.65.41-1.25.85-1.23,1.74.19.57.8.8,1.08,1.3.05.05.11.1.16.15.25-.23.4-.61.84-.56.08-.35.17-.69.25-1.04-.07-.39.07-.73.28-1.05Z"/>
      <path class="cls-23" d="m53.35,20.76c-.05.52-.41.85-.73,1.2.17.65.97.29,1.24.78.34-.36.69-.7.77-1.22-.42-.27-.64-.86-1.28-.76Z"/>
      <path class="cls-124" d="m51.09,24.47c.22-.92-.62-.95-1.08-1.3-.13,0-.25.01-.38.02-.08.35-.17.7-.25,1.06.35.32.71.64,1.06.96.51.02.36-.55.65-.73Z"/>
      <path class="cls-21" d="m40.82,20.53c-.23-.34.03-.71-.08-1.06-.23.42-.62.39-1,.37.39.3.66.66.59,1.18.16-.17.33-.33.49-.5Z"/>
    </g>
  </g>
</svg>