<?xml version="1.0" encoding="UTF-8"?>
<svg id="_圖層_2" data-name="圖層 2" xmlns="http://www.w3.org/2000/svg" viewBox="0 0 139.49 103.68">
  <defs>
    <style>
      .cls-1 {
        fill: #755922;
      }

      .cls-1, .cls-2, .cls-3, .cls-4, .cls-5, .cls-6, .cls-7, .cls-8, .cls-9, .cls-10, .cls-11, .cls-12, .cls-13, .cls-14, .cls-15, .cls-16, .cls-17, .cls-18, .cls-19, .cls-20, .cls-21, .cls-22, .cls-23, .cls-24, .cls-25, .cls-26, .cls-27, .cls-28, .cls-29, .cls-30, .cls-31, .cls-32, .cls-33, .cls-34, .cls-35, .cls-36, .cls-37, .cls-38, .cls-39, .cls-40, .cls-41, .cls-42, .cls-43, .cls-44, .cls-45, .cls-46, .cls-47, .cls-48, .cls-49, .cls-50, .cls-51, .cls-52, .cls-53, .cls-54, .cls-55, .cls-56, .cls-57, .cls-58, .cls-59, .cls-60, .cls-61, .cls-62, .cls-63, .cls-64, .cls-65, .cls-66, .cls-67, .cls-68, .cls-69, .cls-70, .cls-71, .cls-72, .cls-73, .cls-74, .cls-75, .cls-76, .cls-77, .cls-78, .cls-79, .cls-80, .cls-81, .cls-82, .cls-83, .cls-84, .cls-85, .cls-86, .cls-87, .cls-88, .cls-89, .cls-90, .cls-91, .cls-92, .cls-93, .cls-94, .cls-95, .cls-96, .cls-97, .cls-98, .cls-99, .cls-100, .cls-101, .cls-102, .cls-103, .cls-104, .cls-105, .cls-106, .cls-107, .cls-108, .cls-109, .cls-110, .cls-111, .cls-112, .cls-113, .cls-114, .cls-115, .cls-116, .cls-117, .cls-118, .cls-119, .cls-120, .cls-121, .cls-122, .cls-123, .cls-124, .cls-125, .cls-126, .cls-127, .cls-128, .cls-129, .cls-130, .cls-131, .cls-132, .cls-133, .cls-134, .cls-135, .cls-136, .cls-137, .cls-138, .cls-139, .cls-140, .cls-141, .cls-142, .cls-143, .cls-144, .cls-145, .cls-146, .cls-147, .cls-148, .cls-149, .cls-150, .cls-151, .cls-152, .cls-153, .cls-154, .cls-155, .cls-156, .cls-157, .cls-158, .cls-159, .cls-160, .cls-161, .cls-162, .cls-163, .cls-164, .cls-165, .cls-166, .cls-167, .cls-168, .cls-169, .cls-170, .cls-171, .cls-172, .cls-173, .cls-174, .cls-175, .cls-176, .cls-177, .cls-178, .cls-179, .cls-180, .cls-181, .cls-182, .cls-183, .cls-184, .cls-185, .cls-186, .cls-187, .cls-188, .cls-189, .cls-190, .cls-191, .cls-192, .cls-193, .cls-194, .cls-195, .cls-196, .cls-197, .cls-198, .cls-199, .cls-200, .cls-201, .cls-202, .cls-203, .cls-204, .cls-205, .cls-206, .cls-207, .cls-208, .cls-209, .cls-210, .cls-211, .cls-212, .cls-213, .cls-214, .cls-215, .cls-216, .cls-217, .cls-218, .cls-219, .cls-220, .cls-221, .cls-222, .cls-223, .cls-224, .cls-225, .cls-226, .cls-227, .cls-228, .cls-229, .cls-230, .cls-231, .cls-232, .cls-233, .cls-234, .cls-235, .cls-236, .cls-237, .cls-238, .cls-239, .cls-240, .cls-241, .cls-242, .cls-243, .cls-244, .cls-245, .cls-246, .cls-247, .cls-248 {
        stroke-width: 0px;
      }

      .cls-2 {
        fill: #5b441e;
      }

      .cls-3 {
        fill: #543c1a;
      }

      .cls-4 {
        fill: #6e582a;
      }

      .cls-5 {
        fill: #6e5729;
      }

      .cls-6 {
        fill: #c4ae54;
      }

      .cls-7 {
        fill: #e2cf68;
      }

      .cls-8 {
        fill: #e2ce67;
      }

      .cls-9 {
        fill: #dfb130;
      }

      .cls-10 {
        fill: #dfb12f;
      }

      .cls-11 {
        fill: #dfb53a;
      }

      .cls-12 {
        fill: #d3a327;
      }

      .cls-13 {
        fill: #d3a329;
      }

      .cls-14 {
        fill: #dda820;
      }

      .cls-15 {
        fill: #ddad2a;
      }

      .cls-16 {
        fill: #ddad2b;
      }

      .cls-17 {
        fill: #ddaa23;
      }

      .cls-18 {
        fill: #ddaa25;
      }

      .cls-19 {
        fill: #ddab26;
      }

      .cls-20 {
        fill: #ddac28;
      }

      .cls-21 {
        fill: #deb63d;
      }

      .cls-22 {
        fill: #dda922;
      }

      .cls-23 {
        fill: #dda921;
      }

      .cls-24 {
        fill: #dda923;
      }

      .cls-25 {
        fill: #deaa24;
      }

      .cls-26 {
        fill: #deaa23;
      }

      .cls-27 {
        fill: #deb133;
      }

      .cls-28 {
        fill: #dead29;
      }

      .cls-29 {
        fill: #dead28;
      }

      .cls-30 {
        fill: #dead2a;
      }

      .cls-31 {
        fill: #deae2a;
      }

      .cls-32 {
        fill: #deab26;
      }

      .cls-33 {
        fill: #deab25;
      }

      .cls-34 {
        fill: #deac28;
      }

      .cls-35 {
        fill: #deac27;
      }

      .cls-36 {
        fill: #deac26;
      }

      .cls-37 {
        fill: #deac29;
      }

      .cls-38 {
        fill: #cfb95a;
      }

      .cls-39 {
        fill: #d1a023;
      }

      .cls-40 {
        fill: #ccaf4a;
      }

      .cls-41 {
        fill: #d9a827;
      }

      .cls-42 {
        fill: #e0bc46;
      }

      .cls-43 {
        fill: #e0ca62;
      }

      .cls-44 {
        fill: #d9ab2e;
      }

      .cls-45 {
        fill: #e0b02e;
      }

      .cls-46 {
        fill: #d7ab30;
      }

      .cls-47 {
        fill: #d7a728;
      }

      .cls-48 {
        fill: #d7a72a;
      }

      .cls-49 {
        fill: #d7a726;
      }

      .cls-50 {
        fill: #d4a324;
      }

      .cls-51 {
        fill: #dba926;
      }

      .cls-52 {
        fill: #dba925;
      }

      .cls-53 {
        fill: #dbab2c;
      }

      .cls-54 {
        fill: #dba924;
      }

      .cls-55 {
        fill: #e2cc62;
      }

      .cls-56 {
        fill: #dba823;
      }

      .cls-57 {
        fill: #dba822;
      }

      .cls-58 {
        fill: #dfb231;
      }

      .cls-59 {
        fill: #e2b93d;
      }

      .cls-60 {
        fill: #e2d16c;
      }

      .cls-61 {
        fill: #e1cf6b;
      }

      .cls-62 {
        fill: #e1d16e;
      }

      .cls-63 {
        fill: #e1b639;
      }

      .cls-64 {
        fill: #e1b535;
      }

      .cls-65 {
        fill: #e2ba3e;
      }

      .cls-66 {
        fill: #dcc863;
      }

      .cls-67 {
        fill: #e1b538;
      }

      .cls-68 {
        fill: #e1b537;
      }

      .cls-69 {
        fill: #e1b53a;
      }

      .cls-70 {
        fill: #e1b536;
      }

      .cls-71 {
        fill: #e1b941;
      }

      .cls-72 {
        fill: #d6a930;
      }

      .cls-73 {
        fill: #dfad29;
      }

      .cls-74 {
        fill: #dfad28;
      }

      .cls-75 {
        fill: #dfad2a;
      }

      .cls-76 {
        fill: #dfb02e;
      }

      .cls-77 {
        fill: #dfae2a;
      }

      .cls-78 {
        fill: #dfaf2d;
      }

      .cls-79 {
        fill: #dfaf2c;
      }

      .cls-80 {
        fill: #d5a528;
      }

      .cls-81 {
        fill: #d3b043;
      }

      .cls-82 {
        fill: #d3a429;
      }

      .cls-83 {
        fill: #e1b436;
      }

      .cls-84 {
        fill: #e1b437;
      }

      .cls-85 {
        fill: #d6a321;
      }

      .cls-86 {
        fill: #e1b434;
      }

      .cls-87 {
        fill: #dcab28;
      }

      .cls-88 {
        fill: #dcab29;
      }

      .cls-89 {
        fill: #dcb33a;
      }

      .cls-90 {
        fill: #dcb339;
      }

      .cls-91 {
        fill: #dcae30;
      }

      .cls-92 {
        fill: #dcaa26;
      }

      .cls-93 {
        fill: #dcaf32;
      }

      .cls-94 {
        fill: #dca922;
      }

      .cls-95 {
        fill: #dcaa25;
      }

      .cls-96 {
        fill: #dcaa27;
      }

      .cls-97 {
        fill: #dca823;
      }

      .cls-98 {
        fill: #dcad2e;
      }

      .cls-99 {
        fill: #dca926;
      }

      .cls-100 {
        fill: #dca924;
      }

      .cls-101 {
        fill: #dca923;
      }

      .cls-102 {
        fill: #dca925;
      }

      .cls-103 {
        fill: #dca821;
      }

      .cls-104 {
        fill: #d3bd5b;
      }

      .cls-105 {
        fill: #d9c663;
      }

      .cls-106 {
        fill: #d9a624;
      }

      .cls-107 {
        fill: #dabe53;
      }

      .cls-108 {
        fill: #e0b131;
      }

      .cls-109 {
        fill: #e0b12f;
      }

      .cls-110 {
        fill: #e0b132;
      }

      .cls-111 {
        fill: #e0b130;
      }

      .cls-112 {
        fill: #e0b233;
      }

      .cls-113 {
        fill: #e0b232;
      }

      .cls-114 {
        fill: #daa826;
      }

      .cls-115 {
        fill: #daa824;
      }

      .cls-116 {
        fill: #daac2f;
      }

      .cls-117 {
        fill: #daac2d;
      }

      .cls-118 {
        fill: #e0b333;
      }

      .cls-119 {
        fill: #daaa29;
      }

      .cls-120 {
        fill: #daaa2a;
      }

      .cls-121 {
        fill: #c0a141;
      }

      .cls-122 {
        fill: #d8a727;
      }

      .cls-123 {
        fill: #d8ae35;
      }

      .cls-124 {
        fill: #d8a92b;
      }

      .cls-125 {
        fill: #d8a828;
      }

      .cls-126 {
        fill: #d8ac33;
      }

      .cls-127 {
        fill: #cdb554;
      }

      .cls-128 {
        fill: #cfb049;
      }

      .cls-129 {
        fill: #977220;
      }

      .cls-130 {
        fill: #a07d28;
      }

      .cls-131 {
        fill: #856b2f;
      }

      .cls-132 {
        fill: #745d2c;
      }

      .cls-133 {
        fill: #654d22;
      }

      .cls-134 {
        fill: #edd96b;
      }

      .cls-135 {
        fill: #eddc72;
      }

      .cls-136 {
        fill: #edda6e;
      }

      .cls-137 {
        fill: #eddd72;
      }

      .cls-138 {
        fill: #f1e379;
      }

      .cls-139 {
        fill: #f1e378;
      }

      .cls-140 {
        fill: #f1e277;
      }

      .cls-141 {
        fill: #e3ce63;
      }

      .cls-142 {
        fill: #eedd71;
      }

      .cls-143 {
        fill: #eedd72;
      }

      .cls-144 {
        fill: #eedd73;
      }

      .cls-145 {
        fill: #eeda6d;
      }

      .cls-146 {
        fill: #eedc6e;
      }

      .cls-147 {
        fill: #eedc71;
      }

      .cls-148 {
        fill: #eedc6f;
      }

      .cls-149 {
        fill: #eedb6d;
      }

      .cls-150 {
        fill: #eeda6c;
      }

      .cls-151 {
        fill: #eedb6e;
      }

      .cls-152 {
        fill: #ead96f;
      }

      .cls-153 {
        fill: #ead669;
      }

      .cls-154 {
        fill: #ead05f;
      }

      .cls-155 {
        fill: #ead76c;
      }

      .cls-156 {
        fill: #e3d069;
      }

      .cls-157 {
        fill: #e4be44;
      }

      .cls-158 {
        fill: #e7c853;
      }

      .cls-159 {
        fill: #e7c650;
      }

      .cls-160 {
        fill: #e9d163;
      }

      .cls-161 {
        fill: #e4bf46;
      }

      .cls-162 {
        fill: #e4bf45;
      }

      .cls-163 {
        fill: #e9ca57;
      }

      .cls-164 {
        fill: #eed96b;
      }

      .cls-165 {
        fill: #e4c350;
      }

      .cls-166 {
        fill: #e9cd5a;
      }

      .cls-167 {
        fill: #ebd363;
      }

      .cls-168 {
        fill: #e9ce5c;
      }

      .cls-169 {
        fill: #e9cb58;
      }

      .cls-170 {
        fill: #e9da72;
      }

      .cls-171 {
        fill: #e9d569;
      }

      .cls-172 {
        fill: #e3c351;
      }

      .cls-173 {
        fill: #e4bd44;
      }

      .cls-174 {
        fill: #e3c24e;
      }

      .cls-175 {
        fill: #e9d86f;
      }

      .cls-176 {
        fill: #e9d86e;
      }

      .cls-177 {
        fill: #e4bd43;
      }

      .cls-178 {
        fill: #e9d66b;
      }

      .cls-179 {
        fill: #e4cf65;
      }

      .cls-180 {
        fill: #e5d46d;
      }

      .cls-181 {
        fill: #e5bf49;
      }

      .cls-182 {
        fill: #efde73;
      }

      .cls-183 {
        fill: #efde72;
      }

      .cls-184 {
        fill: #efde71;
      }

      .cls-185 {
        fill: #efdd71;
      }

      .cls-186 {
        fill: #efdd70;
      }

      .cls-187 {
        fill: #efdf74;
      }

      .cls-188 {
        fill: #efe074;
      }

      .cls-189 {
        fill: #ebda6f;
      }

      .cls-190 {
        fill: #ebdb73;
      }

      .cls-191 {
        fill: #e3bc42;
      }

      .cls-192 {
        fill: #e3bc43;
      }

      .cls-193 {
        fill: #e3b93d;
      }

      .cls-194 {
        fill: #e3bb41;
      }

      .cls-195 {
        fill: #e3ba3f;
      }

      .cls-196 {
        fill: #e6d46b;
      }

      .cls-197 {
        fill: #e6d36a;
      }

      .cls-198 {
        fill: #e6c957;
      }

      .cls-199 {
        fill: #e6d56e;
      }

      .cls-200 {
        fill: #e6c34c;
      }

      .cls-201 {
        fill: #edd769;
      }

      .cls-202 {
        fill: #eddb70;
      }

      .cls-203 {
        fill: #eddb6f;
      }

      .cls-204 {
        fill: #edd869;
      }

      .cls-205 {
        fill: #edd86a;
      }

      .cls-206 {
        fill: #e5c048;
      }

      .cls-207 {
        fill: #e5c049;
      }

      .cls-208 {
        fill: #e5c047;
      }

      .cls-209 {
        fill: #e5c046;
      }

      .cls-210 {
        fill: #e5c149;
      }

      .cls-211 {
        fill: #e5c14a;
      }

      .cls-212 {
        fill: #e5cf65;
      }

      .cls-213 {
        fill: #efdc6f;
      }

      .cls-214 {
        fill: #eede73;
      }

      .cls-215 {
        fill: #ecd86c;
      }

      .cls-216 {
        fill: #ecd96d;
      }

      .cls-217 {
        fill: #ecdc73;
      }

      .cls-218 {
        fill: #ecd566;
      }

      .cls-219 {
        fill: #ecd363;
      }

      .cls-220 {
        fill: #f0e175;
      }

      .cls-221 {
        fill: #f0e074;
      }

      .cls-222 {
        fill: #f0e076;
      }

      .cls-223 {
        fill: #f0df74;
      }

      .cls-224 {
        fill: #f0df72;
      }

      .cls-225 {
        fill: #f0df73;
      }

      .cls-226 {
        fill: #f0e277;
      }

      .cls-227 {
        fill: #ecd96e;
      }

      .cls-228 {
        fill: #ecdb70;
      }

      .cls-229 {
        fill: #ecd464;
      }

      .cls-230 {
        fill: #ecda70;
      }

      .cls-231 {
        fill: #ecda6f;
      }

      .cls-232 {
        fill: #e8cf61;
      }

      .cls-233 {
        fill: #e8cb58;
      }

      .cls-234 {
        fill: #e8d871;
      }

      .cls-235 {
        fill: #e8d366;
      }

      .cls-236 {
        fill: #e8d367;
      }

      .cls-237 {
        fill: #e8d76f;
      }

      .cls-238 {
        fill: #e8d469;
      }

      .cls-239 {
        fill: #e8d468;
      }

      .cls-240 {
        fill: #e8d66d;
      }

      .cls-241 {
        fill: #e8c955;
      }

      .cls-242 {
        fill: #e8ca57;
      }

      .cls-243 {
        fill: #e8ca56;
      }

      .cls-244 {
        fill: #e7d368;
      }

      .cls-245 {
        fill: #e7d66e;
      }

      .cls-246 {
        fill: #e7d56c;
      }

      .cls-247 {
        fill: #e7d266;
      }

      .cls-248 {
        fill: #e7d267;
      }
    </style>
  </defs>
  <g id="OBJECTS">
    <path class="cls-3" d="m118.39,35.8c-.15.12-.29.09-.43,0-3.56-2.6-7.68-4.05-11.67-5.77-7.74-3.33-15.63-6.29-23.55-9.15-11.9-4.3-23.86-8.43-36-12.03-7.31-2.17-14.58-4.47-21.82-6.87-1.06-.35-2.08-.82-3.02-1.44-.98-.64-1.99-.69-3.07-.19C13.49,2.79,8.08,5.05,2.45,6.77c-.34.1-.67.26-.99.42-1.68.82-1.94,2.18-.65,3.56,1.32,1.43,2.85,2.48,4.79,3.01,5.71,1.56,11.17,3.84,16.71,5.87,6.86,2.51,13.71,5.04,20.53,7.67,14.09,5.42,28.29,10.53,42.53,15.51,6.41,2.24,12.77,4.61,18.98,7.36,3.72,1.65,7.37,3.47,11.02,5.27,1.38.68,2.66,1.02,4.23.49,1.84-.63,3.82-.83,5.67-1.51,2.46-.9,3.03-2.14,2.04-4.54-1.5-3.63-3.48-7-5.74-10.22-.23-.32-.72-.56-.51-1.1-.11-.11-.22-.23-.33-.34-.81-.55-1.48-1.23-2.01-2.07-.11-.11-.22-.23-.33-.34Z"/>
    <path class="cls-138" d="m55.78,23.39c3.65.55,7.03,1.99,10.45,3.24,12.01,4.38,23.88,9.1,35.64,14.11,6.8,2.9,13.54,5.91,20.28,8.94.65.29,1.32.56,1.94.82.29-.23.14-.4.05-.56-1.67-2.86-3.25-5.77-5.19-8.47-1.77-2.47-4.04-4.26-6.74-5.62-8.47-4.25-17.22-7.85-26.05-11.26-9.76-3.78-19.57-7.4-29.42-10.93-.26-.09-.54-.14-.8-.21-.72.13-.49.8-.7,1.22-.59.63-.67,0-.86-.35-.89-1.66-1.69-2.02-3.47-1.59-.51.12-.88.31-.95.88-.06.49-.09.96.38,1.28.53.36.88-.07,1.27-.3.07-.04.14-.07.22-.09.28-.02.6-.17.69.27-.15.3-.38.23-.62.14-.11-.04-.22-.05-.33-.06-.85.52-1.24,1.22-.85,2.22.07.09.15.18.23.25.47.32.8.25.97-.33.16-.56.42-.87.99-.42.15.34.03.61-.23.83-.72.47-2.06.49-1.46,1.95.04.1.08.19.14.28.23.29.5.54.9.54.2-.02.39-.07.59-.09.25-.03.51-.01.72-.17.38-.46.54-.06.74.19.39.52.25,1.11.22,1.68.22.4.2.83.2,1.26.27.35.63.44,1.05.35Z"/>
    <path class="cls-139" d="m52.28,20.06c-.28-.17-.56-.35-.85-.52-.19.08-.2.25-.18.42.07.4.13.82-.46.84-.42.01-.7-.15-.42-.64.22-.44.62-.55,1.06-.62-.58-1.38.76-1.44,1.38-2,.21-.38.25-.83.55-1.17-.86-.48-1.65-.83-1.73.69-.02.41-.31.21-.5.09-.27.1-.38.35-.5.58-.18.7-.99-.14-1.2.48.12.51-.03,1.01-.04,1.52-.38-.12-.69-.35-.97-.64-.14-.05-.3-.08-.44-.12-.27-.09-.56-.24-.48-.54.11-.44.47-.25.76-.19.31.08.63.16.96.15.11-.03.18-.1.21-.21.19-.41.22-.96.86-.98.24-.03.53.1.7-.2-.46-.92.2-1.45.7-2.04.39-.21.55-.47.21-.85-.18.07-.38.12-.54.23-.26.17-.34.7-.83.4-.45-.27-.25-.67-.28-1.05-.04-.58.32-.56.72-.65,1.97-.45,2.59-.1,3.28,1.8.39,1.06.89.42,1.35.01q-.7-.87-.62-1.76c-1.68-.75-3.46-1.19-5.24-1.6-.31.12-.21.36-.16.58.4,1.12-.49.99-1.09,1.13-.33.14-.65.3-1.03.26-.48,0-.88.34-1.37.27-.38-.06-.76-.19-1.12.08-.43.49-1.1.47-1.62.78-.29.49-.45.97-.02,1.47.33.09.6-.07.88-.22.27-.14.56-.15.71.14.17.35-.09.57-.36.75-.26.16-.63.01-.86.28-.11.34.26.76-.16,1.07-.63-.21-.26-.91-.62-1.25-.34-.05-.57.21-.86.31-.24.08-.48.09-.57-.2-.09-.3.11-.41.37-.46.28-.06.66.04.74-.4-.12-.47-.41-.83-.78-1.13-.46-.07-.92-.18-1.34.13-.23,1.07-.47,2.14.35,3.09.82.52,1.77.7,2.68.98.19.1.3.32.53.37.23.02.44-.03.58-.24.08-.57.74-.6.97-1.03.22-.66.72-1.19.88-1.87.01-.08.03-.16.03-.23,0-.49.13-.88.72-.86.28,0,.45.19.42.46-.06.59-.53.45-.91.47-.12,0-.22.07-.26.19-.07.4.37.58.4.92-.39.38-.99.4-1.27.88-.08.46-.06.9.25,1.28.22.23.51.4.67.68.2.28.48.45.8.55.32.1.65.13.98.07.38-.04.59.09.53.51-.53.7,0,1.18.34,1.7.2.32.54.62.08.99-.29.16-.62.12-.93.17-.82.16-1.44.48-1.16,1.49.11.23.27.42.45.6.34.26.66.57,1.15.37.1-.07.16-.16.2-.28.12-.65.43-.79.95-.35.18.43-.06.8-.2,1.17-.04.17,0,.31.18.38.81.55,1.76.72,2.67,1,.9-1.03.86.14,1.16.5,5.52,2.19,11.08,4.3,16.68,6.29,7.34,2.6,14.68,5.18,22,7.82,8.3,3,16.39,6.51,24.3,10.44,1.33.66,2.65.78,4.05.33,1.53-.5,3.18-.7,4.78-1.91-3.47-.52-6.36-1.89-9.3-3.09-10.23-4.19-20.43-8.45-30.67-12.63-6.76-2.76-13.57-5.41-20.33-8.17-2.92-1.19-5.86-2.32-8.63-3.84-.21-.11-.38-.28-.57-.43-.43-.23-.81-.54-1.23-.8-.15-.41-.79-.39-.79-.91.03-.13.1-.23.24-.27.15-.02.3-.04.43-.12.41-.67.43-1.3-.16-1.88-.44-.12-.76.4-1.21.22-.15-.04-.29-.04-.44-.04-.18,0-.37.08-.54-.04Z"/>
    <path class="cls-226" d="m45.06,14.02c.35-.4.69.09,1.03.01.11-.41-.32-1,.35-1.21.73-.22.79.43,1,.86.45.22.76,0,1.05-.32.15-.76.8-.99,1.37-1.3-.14-.17-.24-.36-.15-.59-.87-.26-1.73-.52-2.6-.78-.92.52-1.58.17-2.12-.62-1.25-.35-2.51-.7-3.76-1.06-.55.33-.93.92-1.58,1.11-.26.29-.25.62-.16.96.26.27.59.11.88.15.24.04.46.1.53.37.04.17-.03.3-.16.41-.2.17-.42.18-.65.06-.28-.15-.43-.45-.69-.63-.38-.18-.76-.33-1.12.04.12.62-.15,1.15-.37,1.69.74.72.92-.35,1.41-.44.33.16.44.55.74.74.62.2,1.29.22,1.86.57.32.05.63.16.97.14.14-.09.18-.24.22-.4.19-.79.51-.92,1.16-.47.29.2.42.58.79.7Z"/>
    <path class="cls-140" d="m39.51,11.07c.29-.24.12-.58.19-.87-.13-.67-.08-1.42-.78-1.86-1.32-.33-2.64-.66-3.95-1-.41.5-.78,1.11-1.59.68-.55-.11-.95.08-1.22.57-.2.54-.26,1.06.1,1.57.19.28.37.56.46.88.17.42-.23.89.11,1.3.41.39.85.67,1.44.42.66-.61,1.32-.53,1.97.03.43.27.75.91,1.42.45-.39-.81.08-1.29.67-1.72.34,0,.68.01,1.02.02.26-.09.23-.28.16-.48Z"/>
    <path class="cls-139" d="m39.02,23.33c.13.07.26.13.39.2.47-.07.28-.49.39-.74.12-.28.29-.48.61-.45.32.03.45.27.51.56.1.43-.21.95.27,1.31.47.2.93.4,1.4.59.52-.02.83-.41,1.23-.65.71-.08,1.44-.08,2.02-.58.51-.28.78.03,1.01.43.1.14.22.25.38.32.34.05.68.03,1-.11.09-.08.15-.17.2-.27.09-.39.32-.73.38-1.13-.28-.66-.36-1.41-1-1.87-.15-.1-.31-.17-.47-.26-.28-.08-.57-.14-.86-.07-.1.06-.16.15-.2.26.05.75-.28,1.19-1.02,1.33-.37.05-.77-.04-1.12.15-.4.22-.79.57-1.27.22-.53-.39-.18-.92-.19-1.4-.12-.42-.61-.57-.72-1-.15-.32-.13-.74-.49-.95-.43-.2-.85-.45-1.36-.36-.08,0-.15.03-.19.08-.04.06-.06.09-.05.1.82,1.28.78,1.42-.5,1.83-.33.03-.62-.29-.97-.15-.96,1.25-.93,1.38.62,2.62Z"/>
    <path class="cls-138" d="m37.63,13.21c-.55.18-.8-.34-1.19-.51-.34.1-.41.4-.51.67-.1.46-.18.92.11,1.35.54.49.48,1.1.36,1.73.51.37,1.12.48,1.7.66,1.01-.43,1.53.33,2.14.88.18.07.35.13.53.2-.35-1-.16-2.05-.3-3.06-.26-.53.55-1.23-.27-1.67-.11-.21-.18-.45-.32-.63-.33-.43-.69-.87-1.06-.03-.17.38-.46.52-.86.42-.1-.16-.21-.17-.32,0Z"/>
    <path class="cls-24" d="m19.14,12.07c-.59-.02-1.16.06-1.71.27-.04.59.19,1.15.14,1.74-.07.94.85,1.12,1.33,1.63.47.29.98.46,1.53.56.01-.05.02-.11.04-.16-.02-.08-.05-.15-.08-.22-.15-.28-.59-.48-.28-.89.1-.13.25-.22.4-.18.51.12.1.64.36.88.63-.03,1.2-.39,1.85-.31.1-.06.14-.15.14-.27-.35-.45-.25-.96-.21-1.47-.73-.44-1.66-.41-2.35-.95-.66.31-1.03.07-1.15-.62Z"/>
    <path class="cls-187" d="m38.53,20.71c.26.21.41.59.85.5-.19-.82-.27-1.61.53-2.18.06-.06.12-.13.18-.19-.73-.46-1.58-.52-2.39-.74-.66.18-1.29.73-2.01.16-.34-.08-.6.08-.83.31q-1,1.42-.04,2.33c.39.28.78.24,1.19.04.48-.44.86-1.08,1.69-.79.36.06.6.29.83.55Z"/>
    <path class="cls-94" d="m14.98,5.42c-.4.17-.79.34-1.19.51-.41.1-.72.46-1.17.48-.47.15-.96.25-1.34.6-.41.19-.72.42-.47.94.11.18.25.31.43.42.56.28,1.1.29,1.61-.11.49-.42.96-.71,1.19.23.05.2.12.38.39.36.37-.1.62-.35.87-.62.32-.4.5-.85.54-1.35,0-.37-.13-.7-.36-.99-.13-.19-.32-.32-.5-.46Z"/>
    <path class="cls-94" d="m24.38,17.73c.81.32,1.62.64,2.44.97.34-.12.57.03.76.3.77.27,1.54.55,2.31.82.04-.1.05-.21,0-.31-.28-.46-1.01-.66-.82-1.4.16-.6.21-1.18-.3-1.66-.18-.18-.38-.33-.62-.41-.48-.09-.84.15-1.18.43-.45.5-1.04.32-1.59.32-.53.11-.95.33-1,.94Z"/>
    <path class="cls-103" d="m15.15,7.97c-.3.28-.61.57-.91.85-.31.05-.37.27-.36.54.06.31.17.59.55.64.62-.04,1.24-.08,1.86-.13.32-.32.66-.06,1-.04.4-.04.79-.08,1.19-.12.29-.23.47-.51.48-.89.03-.44-.07-.83-.4-1.15-.13-.13-.27-.23-.43-.3-.35-.13-.75-.19-.98.14-.54.79-1.24.71-1.99.45Z"/>
    <path class="cls-51" d="m14.43,10.01c-.11-.23-.23-.46-.34-.7-.6-.3-1.06-.74-1.31-1.37-.36.52-.88.35-1.37.32-.07.19-.03.39-.08.57-.07.25-.21.43-.49.37-.23-.05-.29-.22-.29-.44,0-.22.09-.48-.24-.56-.48.16-.97.32-1.34.7.04.59-.53,1-.45,1.59,1.98-.08,3.97-.13,5.92-.49Z"/>
    <path class="cls-182" d="m32.89,12.14c-.07-.42.47-.75.16-1.2-.62.45-1.26.77-2.07.42-.39-.17-.78,0-1.07.33-.44.73-1.01.32-1.56.17-.51.04-.81.32-.95.79,0,.22.14.35.33.44.42.17.85.35,1.27.52.2.04.41.06.61.02.35-.05.7-.1,1.06-.08.32,0,.63.09.95,0,.48-.28.8-.73,1.19-1.1.05-.1.07-.21.08-.32Z"/>
    <path class="cls-114" d="m9,8.93c.61.08,1.02-.27,1.38-.69.29.02.56.01.69-.31-.34-.4-.03-.65.21-.93-2.07.55-4.05,1.34-6.01,2.16-.01.13.02.25.09.35.59.63,1.31.57,1.96.24.56-.28,1.16-.49,1.68-.83Z"/>
    <path class="cls-142" d="m32.89,12.14c-.06.07-.12.13-.19.2.36.65.75,1.27.43,2.09-.19.48.13.82.59,1,.39.32.86.46,1.33.59.4-.47.64-1.08,1.2-1.43-.38-.36.05-.82-.15-1.2-.88.25-1.42-.21-1.85-.89-.58.37-.93-.15-1.37-.35Z"/>
    <path class="cls-136" d="m32.06,20.62c.47.21.93.42,1.4.63.29-.12.39-.38.49-.64.09-.32.12-.65-.18-.87-.67-.48-.66-1.11-.43-1.79.04-.25-.03-.47-.19-.66-.08-.09-.18-.16-.28-.23-.39-.15-.77-.34-1.19-.09-.33.21-.59.54-.98.67-.21.1-.43.17-.5.43.03.18.12.32.26.42,1.44.02,1.42,1.13,1.58,2.12Z"/>
    <path class="cls-96" d="m24.38,17.73c.33-.34.66-.68,1.15-.78.17-.63.73-1.15.46-1.89-.25-.3-.55-.53-.93-.64-.24-.21-.52-.3-.83-.24-.39.44-.98.61-1.39,1.03v.02c.1.51-.21,1.06.12,1.55.71-.16,1.29-.13,1.21.84.07.03.14.07.21.1Z"/>
    <path class="cls-24" d="m19.96,3.61c-.38-.04-.72.09-1.03.3-.26.42-.27.92-.41,1.38.22,1.44.86,1.79,2.03,1.11.22-.3.46-.58.81-.72,0-.46,0-.91,0-1.37-.55-.06-.98-.37-1.4-.7Z"/>
    <path class="cls-144" d="m48.14,24.07c-.27.04-.54.08-.82.12-.29.2-.56.44-.94.43-.28-.04-.37-.22-.34-.48.01-.1,0-.19,0-.29-.03-.2-.12-.38-.27-.51-.64.35-1.3.57-2.04.36.31.59.18,1.37.79,1.83.52.19,1.04.38,1.55.56.44-.08.89-.11,1.2-.5-.25-1.05.55-1.04,1.2-1.19,0-.22-.13-.33-.34-.34Z"/>
    <path class="cls-52" d="m18.35,7.83c.38.26.33.67.34,1.05.39.23.85.31,1.21.6,1.56.08,1.47-1,1.42-2.04-.21-.21-.41-.46-.72-.53-.95-.17-1.55.49-2.25.93Z"/>
    <path class="cls-187" d="m9,8.93c-.46-.03-.9-.21-1.32.23-.66.7-1.44.73-2.24.21-.75.28-.87.66-.18,1.16.45.17.91.14,1.37.02.39-.2.79-.26,1.21-.07.22,0,.45,0,.67,0,.17-.52,1.36-.72.49-1.56Z"/>
    <path class="cls-79" d="m32.27,8.75c.28-.45.69-.59,1.19-.49.03-.45.43-.9.02-1.36-.1-.03-.2-.06-.3-.09-.77.77-1.72-.06-2.54.31-.45.31-.56.77-.54,1.28.04.26.13.49.31.69,1.12.65,1.26.63,1.86-.33Z"/>
    <path class="cls-15" d="m33.72,15.43c-.24-.3-.6-.58-.33-1.02.58-.97.22-1.6-.69-2.07-.62.15-.8.75-1.19,1.14-.32.84.51,1.03.84,1.51.43.23.86.45,1.36.44Z"/>
    <path class="cls-20" d="m32.06,20.62c.33-1.95.1-2.3-1.47-2.23-.75.15-.83.67-.71,1.29,0,.04,0,.09,0,.13.73.27,1.46.54,2.18.81Z"/>
    <path class="cls-160" d="m22.73,5.58c-.11.23-.08.45,0,.68.24.53.68.89,1.11,1.26.21.11.43.18.67.12.28-.63.57-1.25.93-1.84.03-.2,0-.38-.13-.54-1.7-.85-1.99-.81-2.6.33Z"/>
    <path class="cls-101" d="m22.99,16.75c.03-.52.52-1.09-.16-1.53-.72-.2-1.4-.27-1.88.48-.28,0-.45.15-.5.43,0,.05,0,.09,0,.14.89.33,1.78.66,2.67.99.12-.21.14-.39-.11-.51Z"/>
    <path class="cls-54" d="m30.24,17.99c.17-.03.34-.06.52-.09.38-.1.56-.45.84-.67.19-.18.3-.38.2-.65-.53-.44-1.2-.45-1.82-.63-.39.38-.96.38-1.4.67.66.46.23,1.03.17,1.57.5-.08.99-.21,1.5-.2Z"/>
    <path class="cls-155" d="m24.1,11.72c.47.26.96.49,1.5.55.37-.17.52-.5.64-.86.15-.75-.62-1.12-.74-1.75-.07-.28-.05-.62-.42-.73-.39.05-.71.19-.86.59,0,.48-.1.93-.36,1.36-.2.34-.23.68.25.85Z"/>
    <path class="cls-122" d="m16.76,12.42c-.58.02-1.16.02-1.71.24.06.58.12,1.15.02,1.73.82.31,1.64.61,2.46.92.2-.5.06-.97-.25-1.34-.39-.46-.45-1-.52-1.55Z"/>
    <path class="cls-147" d="m16.76,12.42c-.36.49-.58.99.07,1.43.53.36.38,1.02.7,1.47.46.13.92.27,1.38.4.09-.34-.09-.53-.38-.64-.7-.28-.83-.86-.66-1.47.16-.57-.1-.91-.44-1.26-.22.02-.45.05-.67.07Z"/>
    <path class="cls-102" d="m29.06,5.8c-.61-.18-1.21-.36-1.82-.53-.2.16-.36.35-.45.6-.29.6-.11,1.08.41,1.43.56.37,1.15.54,1.7-.05.27-.46.45-.93.15-1.45Z"/>
    <path class="cls-92" d="m41.18,24.2c-.1-.32-.02-.62.07-.93.15-.51,0-.93-.43-1.24-.29-.21-.59-.21-.87,0-.39.29-.77.58-.46,1.16.04.07-.05.22-.08.33.59.23,1.18.45,1.77.68Z"/>
    <path class="cls-188" d="m24.27,9.47c.33-.1.64-.24.87-.51.68-.78.52-1.12-.65-1.36-.16-.13-.32-.25-.55-.18-.65.19-.82.73-.97,1.29.02.19.04.38.06.57.36.4.8.32,1.24.18Z"/>
    <path class="cls-87" d="m24.27,9.47c-.39-.19-.81-.2-1.24-.18-.08.52-.26.99-.54,1.43.1.65.76.55,1.12.86.14.12.29.2.49.14-.38-.44,0-.7.23-1.01.31-.42.43-.85-.06-1.24Z"/>
    <path class="cls-220" d="m29.06,5.8l-.19,1.18c.08.33-.62.51-.18.92.54.08.85.95,1.56.47.15-.4.18-.84.51-1.16.03-.22-.05-.4-.17-.57-.26-.32-.67-.44-.97-.71-.19-.04-.37-.08-.56-.12Z"/>
    <path class="cls-117" d="m38.92,8.35c.37.57.16,1.39.78,1.86.95.18,1.24-.5,1.53-1.17-.74-.33-1.5-.57-2.31-.68Z"/>
    <path class="cls-17" d="m26.12,11.36c-.29.23-.42.56-.52.91.71.28,1.42.55,2.13.83-.08-.11-.17-.23-.25-.34.13-.49.7-.89.21-1.49-.48-.58-1.04-.56-1.57.09Z"/>
    <path class="cls-56" d="m36.25,14.58c-1.06-.08-1.14.67-1.2,1.43.43.22.85.44,1.35.44.84-.7.52-1.3-.15-1.87Z"/>
    <path class="cls-198" d="m22.73,5.58c.8-1.2,1.74-.2,2.62-.17.33-.02.51-.2.53-.53-1.1-.32-2.19-.64-3.39-.98.05.63,0,1.17.24,1.68Z"/>
    <path class="cls-53" d="m33.76,20.64c-.1.2-.2.41-.3.61.66.25,1.32.5,1.98.76.21,0,.28-.2.42-.3.28-.08.47.19.73.19.12-.03.2-.11.23-.23-.06-.5-.33-.78-.84-.82-.34-.08-.69.19-1.02-.02-.4-.09-.67-1-1.2-.18Z"/>
    <path class="cls-202" d="m22.83,15.21c.78.08,1.24-.27,1.39-1.03-.52-.18-1.05-.35-1.57-.53-.71.61-.63,1.13.18,1.56Z"/>
    <path class="cls-88" d="m33.48,6.9c0,.45-.54.9-.02,1.36,1.08.66,1.41.07,1.51-.9-.5-.15-.99-.3-1.49-.46Z"/>
    <path class="cls-46" d="m25.06,14.41c.28.28.56.57.84.85.71.27.89.92,1.13,1.54.3-.29.61-.58,1.04-.66.21-.17.37-.36.33-.66-1.14-.29-2.16-.94-3.34-1.08Z"/>
    <path class="cls-190" d="m18.73,5.15c.34-.37.32-.79.19-1.23-.79.14-1.53.42-2.2.87.05.26.27.35.47.47.1.06.2.11.31.15.48.25.98.55,1.24-.25Z"/>
    <path class="cls-227" d="m15.07,14.39c.63-.58.62-1.16-.02-1.73-.22,0-.44.02-.66.03-.48.36-.89.73-.36,1.36.35.11.7.23,1.05.34Z"/>
    <path class="cls-119" d="m41.45,19.2c.07.36,0,.76.3,1.05.76.87,1.13.81,1.89-.31.04-.17-.03-.27-.19-.3-.67-.15-1.33-.29-2-.43Z"/>
    <path class="cls-39" d="m14.02,14.05c-.23-.55.29-.89.36-1.36-.74-.11-1.45.1-2.17.18-.07.31.15.5.31.7.47.24.95.47,1.5.47Z"/>
    <path class="cls-44" d="m44.53,25.53c-.13-.67-.01-1.44-.79-1.83-.39.37-.77.73-1.16,1.1.65.25,1.3.49,1.95.74Z"/>
    <path class="cls-238" d="m38.53,20.71c.23-.65-.21-.68-.65-.71.04.67-.3,1.21-.61,1.76.25.41-.35.5-.31.83.69.25,1.37.49,2.06.74-.05-.15-.07-.38-.17-.43-1.26-.57-.73-1.39-.32-2.19Z"/>
    <path class="cls-120" d="m35.64,18.45c.88,1.03,1.47.3,2.07-.35-.69-.33-1.43-.41-2.17-.55-.05.09-.07.19-.06.3,0,.21.13.39.16.59Z"/>
    <path class="cls-175" d="m30.42,6.84c.12.12.23.24.35.36.44.15.9.07,1.36.26.5.2,1.01.05,1.06-.66-.55-.22-1.13-.33-1.73-.27-.36.03-.78-.09-1.03.3Z"/>
    <path class="cls-47" d="m22.98,8.72c.45-.34.7-.82.97-1.29-.17-.63-.74-.85-1.21-1.18-.09.84.09,1.65.24,2.47Z"/>
    <path class="cls-11" d="m54.96,13.09q-.97,1.05.62,1.76c.41-.39-.29-1.07.36-1.4-.29-.22-.61-.35-.98-.36Z"/>
    <path class="cls-244" d="m28.4,15.49c-.18.19-.39.35-.33.66.17.16.33.32.5.48.7.27,1.21.13,1.4-.67-.49-.26-1.02-.4-1.57-.47Z"/>
    <path class="cls-202" d="m25.88,4.88c-.18.18-.35.35-.53.53,0,.12,0,.23,0,.35.21.47.65.51,1.07.58.34-.05.55-.23.64-.56.06-.17.12-.34.19-.5-.45-.13-.91-.26-1.36-.39Z"/>
    <path class="cls-176" d="m22.99,16.75c.04.17.08.34.11.51.33.2.67.35,1.06.36.25-.33.71-.65.14-1.08-.49-.37-.95-.34-1.31.2Z"/>
    <path class="cls-116" d="m44.99,10.09c.56,1.65.85,1.74,2.12.62-.71-.21-1.41-.41-2.12-.62Z"/>
    <path class="cls-144" d="m20.59,7.08c.19.22.4.41.73.36,0-.58.02-1.17.03-1.75-.4-.23-.73-.28-.77.33.06.36-.83.72.01,1.07Z"/>
    <path class="cls-126" d="m53.65,29.07q.12-.47-.84-1.69c-.42.31-.1.83-.32,1.19.35.25.72.46,1.16.5Z"/>
    <path class="cls-248" d="m17.38,5.13c-.22-.11-.44-.23-.66-.34-.62.11-1.21.3-1.74.64.06.17.12.34.18.51.42.27.83.53,1.24-.05.24-.34.78-.34.98-.76Z"/>
    <path class="cls-72" d="m47.29,25.6c-.52-.12-.9.08-1.2.5.72.29,1.45.58,2.17.87.06-.41-.5-.47-.47-.86-.16-.17-.33-.34-.49-.5Z"/>
    <path class="cls-123" d="m40.24,17.98c-.82-1.55-.97-1.62-2.14-.88.71.29,1.43.58,2.14.88Z"/>
    <path class="cls-156" d="m19.14,12.07c-.35.47-.3.79.27,1.08.59.31.76,0,.88-.46-.32-.33-.61-.71-1.15-.62Z"/>
    <path class="cls-216" d="m35.64,18.45c.14-.21.14-.43.02-.65-.48-.02-.89-.28-1.34-.42-.15-.28-.44-.2-.67-.27-.28-.04-.54-.06-.68.27.14.16.24.33.16.55.72.07,1.34.37,1.87.85.18-.17.34-.4.64-.33Z"/>
    <path class="cls-239" d="m19.96,3.61c.22.72.53,1.28,1.4.7.04-1.24-.8-.73-1.4-.7Z"/>
    <path class="cls-15" d="m30.66,13.31c-.4-.01-.8-.09-1.17.15.15.49.67.46,1,.69.32.3.72.44,1.14.52-.12-.6-.31-1.15-.97-1.37Z"/>
    <path class="cls-139" d="m36.96,22.59c.08-.26.77-.21.36-.71-.21-.17-.44-.09-.67-.07v.07c-.38-.03-.56-.61-1.03-.37-.06.17-.12.33-.18.5.49.24.94.56,1.52.58Z"/>
    <path class="cls-212" d="m19.9,9.48c-.13-.74-.67-.67-1.21-.6-.07.28-.14.56-.21.84.5.05.97-.05,1.42-.24Z"/>
    <path class="cls-196" d="m47.78,26.1c-.09.42.31.57.47.86.49.29.99.56,1.57.61-.01-.13-.02-.26-.03-.4-.15-.5-.51-.7-1.01-.71-.44.17-.73-.06-1-.36Z"/>
    <path class="cls-189" d="m30.66,13.31c.32.46.65.91.97,1.37.2.2.44.31.73.31-.05-.63-.83-.86-.84-1.51-.28-.08-.54-.26-.86-.17Z"/>
    <path class="cls-141" d="m5.25,10.54c-.4-.46-.2-.83.18-1.16-.06-.07-.12-.14-.17-.21-.36.1-.92.16-.92.53,0,.41.32.87.91.84Z"/>
    <path class="cls-80" d="m30.42,6.84c.38.02.77.08,1.03-.3-.52-.48-1.21-.45-1.83-.62.27.31.53.61.8.92Z"/>
    <path class="cls-6" d="m23.61,11.58c-.25-.45-.81-.49-1.12-.86-.27.17-.8.32-.13.62.38.17.83.16,1.25.23Z"/>
    <path class="cls-234" d="m34.32,17.38c.37.39.69.9,1.34.42-.04-.08-.08-.17-.12-.25-.39-.2-.77-.37-1.22-.17Z"/>
    <path class="cls-4" d="m54.6,23.14c.36.43.82.67,1.37.75-.06-.17-.13-.33-.19-.5-.33-.13-.67-.26-1.01-.39-.08-.02-.13,0-.15.04-.03.05-.04.08-.02.09Z"/>
    <path class="cls-10" d="m32.97,17.38c.23-.09.45-.18.68-.27-.37-.38-.84-.47-1.34-.45,0,.33.22.48.5.57.06.05.12.1.17.15Z"/>
    <path class="cls-105" d="m12.52,13.57c.08-.32-.13-.5-.31-.7-.13,0-.25,0-.38,0-.23,0-.35.13-.37.35.33.2.67.35,1.06.35Z"/>
    <path class="cls-128" d="m17.29,9.84c-.34-.27-.7-.8-1,.04.34.08.67.1,1-.04Z"/>
    <path class="cls-12" d="m30.49,14.15c-.33-.23-.67-.46-1-.69-.16.05-.33.1-.49.16.45.3.95.47,1.49.53Z"/>
    <path class="cls-216" d="m32.81,17.23c-.17-.19-.33-.38-.5-.57-.17-.03-.34-.05-.51-.08-.06.15-.11.31-.17.46-.03.11.02.17.13.18.35-.4.7.07,1.05,0Z"/>
    <path class="cls-114" d="m7.83,10.49c-.43-.51-.83-.36-1.21.07.4-.02.81-.05,1.21-.07Z"/>
    <path class="cls-40" d="m12.62,6.41c.55.24.84-.16,1.17-.48-.46,0-.86.13-1.17.48Z"/>
    <path class="cls-66" d="m27.57,18.99c-.09-.51-.28-.75-.75-.3.25.1.5.2.75.3Z"/>
    <path class="cls-133" d="m43.46,19.63l.08.07.06.09c.16.18.32.15.48,0,.08-.19.11-.36-.13-.46-.17-.06-.34-.11-.51-.17,0,.16,0,.31,0,.47Z"/>
    <path class="cls-130" d="m11.46,13.22c.12-.12.25-.24.37-.35-.3-.06-.66-.07-.78.22-.07.19.23.17.41.13Z"/>
    <path class="cls-172" d="m54.6,23.14c.07-.04.12-.08.18-.14.32-.45.38-.86-.14-1.21-.17-.06-.34-.11-.51-.17-.3-.09.17.63-.34.33-.63,1.02.5.83.82,1.19Z"/>
    <path class="cls-157" d="m53.12,20.26c.68.77.9-.25,1.35-.35-.06-.39-.26-.6-.69-.6-.5,0-.21.39-.31.58-.21.03-.35.13-.36.37Z"/>
    <path class="cls-110" d="m55.55,18.93c.21.16.16.57.53.58.39,0,.97.17,1.06-.27.13-.63-.52-.17-.75-.35-.09-.07-.12-.2-.18-.3-.31-.06-.62-.13-.66.34Z"/>
    <path class="cls-206" d="m59.23,17.99c-.28-.17-.57-.12-.82.15-.19.2-.25.45.03.59.32.16.63.02.88-.2.17-.15.15-.36-.09-.54Z"/>
    <path class="cls-243" d="m59.59,22.12c-.14-.53.28-1.04-.43-1.18-.13-.03-.39.05-.4.12-.1.54.34.71.83,1.06Z"/>
    <path class="cls-173" d="m51.88,14.11c-.07.28-.14.57-.21.85.06.05.11.11.17.16.4.09.62-.38,1.01-.32q.02-.54-.98-.69Z"/>
    <path class="cls-158" d="m52.86,14.8c-.5-.39-.71.09-1.01.32.63.82.73-.03,1.01-.32Z"/>
    <path class="cls-229" d="m58.63,16.25c.21-.29.44-.62-.01-.86-.27-.14-.54-.06-.49.36.04.29.17.49.5.5Z"/>
    <path class="cls-191" d="m53.36,16.37c-.59.2-.73.61-.55,1.17.79-.1.36-.78.55-1.17Z"/>
    <path class="cls-206" d="m58.63,16.25c-.17-.17-.33-.34-.5-.5-.06.28-.39.6-.02.84.26.17.56.1.52-.34Z"/>
    <path class="cls-194" d="m55.56,16.88c.24.39.52.42.8.06.28-.36-.06-.45-.29-.56-.32.01-.46.21-.51.51Z"/>
    <path class="cls-201" d="m55.55,18.93c.22-.11.44-.23.66-.34.1-.12.19-.24.29-.36-.31.05-.63.05-.92.15-.36.13-.17.35-.03.54Z"/>
    <path class="cls-158" d="m55.56,16.88c.17-.17.34-.34.51-.51.06-.31-.14-.48-.37-.38-.41.19-.21.57-.15.88Z"/>
    <path class="cls-241" d="m63.66,17.04c-.09.12-.21.26,0,.35.17.07.38.09.51-.08.04-.06,0-.23-.06-.31-.16-.25-.3-.07-.44.04Z"/>
    <path class="cls-218" d="m61.02,18.11c-.08.15.01.28.13.38.11.1.28.23.35,0,.03-.11-.07-.29-.16-.41-.07-.1-.2-.11-.32.03Z"/>
    <path class="cls-154" d="m56.81,21.44c-.28.39-.27.64.11.89.03-.3.19-.55-.11-.89Z"/>
    <path class="cls-195" d="m50.8,17.84c.11-.23.22-.46.32-.69-.05-.05-.1-.1-.15-.15-.23-.01-.46-.03-.69-.04-.03.41.11.72.51.88Z"/>
    <path class="cls-168" d="m62.21,20.25c.04-.19.18-.36-.06-.42-.09-.02-.24.03-.3.1-.12.15-.05.31.1.38.07.03.18-.04.26-.06Z"/>
    <path class="cls-192" d="m53.12,20.26c.12-.12.24-.24.36-.37-.23-.11-.46-.09-.69-.01-.22.12-.19.24,0,.36.11,0,.22,0,.33.01Z"/>
    <path class="cls-167" d="m52.79,20.25c0-.12,0-.24,0-.36-.21-.06-.36.04-.5.17,0,.52.25.36.51.19Z"/>
    <path class="cls-138" d="m42.89,14.16c-.26-.27-.53-.5-.91-.18-.49.2-.66.51-.33.99.12.52.5.86.85,1.23-.03.27,0,.53.3.65,0,.08.04.18.01.23-.42.67.21,1,.51,1.4.14.18.48-.06.6-.22.37-.48.08-.88-.26-1.24.04-.36.08-.72-.27-.97-.29-.46.03-.93-.03-1.39-.02-.3-.17-.47-.48-.5Z"/>
    <path class="cls-34" d="m42.89,14.16c.16.17.32.33.48.5.67.07,1.28,0,1.69-.63-.08-.21-.15-.44-.26-.64-.37-.65-1-.78-1.61-.55-.63.24-.29.86-.3,1.33Z"/>
    <path class="cls-86" d="m46.4,16.42c.52.01,1.19.63,1.48-.29.11-.35.21-.84-.21-1.09-.44-.26-.96-.18-1.34.12-.5.39-.21.85.06,1.26h0Z"/>
    <path class="cls-28" d="m43.39,16.05c.06.33,0,.7.27.97.26.06.56.23.78.16.45-.16.83-.5.94-.98.05-.24-.05-.58-.35-.69-.41-.15-.82-.25-1.15.2-.11.15-.32.22-.48.33Z"/>
    <path class="cls-45" d="m41.65,14.97c0-.37.1-.7.33-.99-.44-.71-1.08-.73-1.78-.53.52.49-.6,1.24.27,1.67.39-.04.83.26,1.18-.15Z"/>
    <path class="cls-76" d="m47.44,13.69c.16-.48.26-.96-.33-1.2-.48-.2-1.02-.07-1.3.3-.32.41-.13.9.28,1.25.51.12.88-.33,1.36-.34Z"/>
    <path class="cls-138" d="m48.41,19.17c-.23.89.97.53,1.02,1.17.07-.04.2-.1.19-.11-.21-.69.67-1.48-.2-2.09h0c-.07.06-.14.13-.21.19-.35-.01-.67.02-.87.36-.07.17-.05.33.06.48Z"/>
    <path class="cls-78" d="m42.8,16.85c-.1-.22-.2-.44-.3-.65-.31-.01-.62-.06-.92-.04-.53.04-.57.41-.56.84,0,.56.35.63.78.6.48-.04.7-.45,1-.75Z"/>
    <path class="cls-30" d="m49.86,12.07c-1.12-.14-1.5.23-1.37,1.3,1.33.14,1.67-.18,1.37-1.3Z"/>
    <path class="cls-138" d="m46.4,16.42c-.61.46-1.05,1.01-.88,1.84h0c.15-.05.3-.08.45-.14,1.5-.55,1.51-.59.42-1.71,0,0,0,0,0,0Z"/>
    <path class="cls-37" d="m48.41,19.17c0-.11,0-.23.01-.34-.03-.23.17-.47,0-.7-.31-.36-.65-.58-1.12-.23-.31.24-.29.55-.15.85.27.53.69.73,1.25.43Z"/>
    <path class="cls-25" d="m48.66,22.88c-.24.3-.73.51-.36,1.02.26.37.64.39,1.03.35,1.04-.43.38-.89.01-1.34-.23.03-.44-.45-.69-.03Z"/>
    <path class="cls-34" d="m50.25,20.03c-.07.27-.78.33-.28.8.38.36.91.45,1.32.25.48-.24.53-.73.14-1.18-.41-.06-.81-.09-1.18.14Z"/>
    <path class="cls-98" d="m45.97,19.44c-.33-.33-.07-.87-.44-1.19,0,0,0,0,0,0-.5.2-1.5-.07-1.01,1.06.23.57.64.75,1.22.6.16-.12.27-.27.23-.48Z"/>
    <path class="cls-111" d="m50.8,17.84c-.17-.29-.34-.59-.51-.88-1.11-.21-.94.51-.85,1.17,0,0,0,0,0,0,.43-.24,1.18,1.03,1.37-.3Z"/>
    <path class="cls-132" d="m45.66,19.78c-.43-.02-.79-.25-1.15-.46-.19,0-.37,0-.56,0,0,.16,0,.31,0,.47.15.56.7.47,1.08.65.47.12.93.36,1.45.22.22.02.44.04.66.05.16.01.22-.06.19-.21-.28-.16-.57-.32-.85-.48-.2-.35-.52-.28-.83-.26Z"/>
    <path class="cls-108" d="m51.92,23.34c.18-.38.79-.66.39-1.01-.53-.46-1.01.19-1.44.41-.34.18.13.53.28.72.31.41.59.15.77-.13Z"/>
    <path class="cls-112" d="m48.78,26.46c.29.3.6.58,1.01.71.33-.39.67-.79.35-1.35-.56-.05-1.2-.37-1.5.46.05.06.09.12.13.19Z"/>
    <path class="cls-118" d="m49.63,15.95c.32-.26,1.04-.28.72-.95-.24-.51-.67-.48-1.05-.08-.27.14-.28.37-.21.62.08.27.27.39.55.41Z"/>
    <path class="cls-200" d="m48.66,22.89c.23.01.46.02.69.03-.18-.51-1.04-.96-.14-1.57-.19-.3-.52-.32-.82-.42-.28.04-.61-.33-.86.08.56.51.91,1.16,1.13,1.88Z"/>
    <path class="cls-138" d="m48.16,14.04c-.16.22-.56.42-.21.75.28.26.5-.04.69-.23.19-.18.48-.39.23-.68-.26-.29-.48-.03-.7.15Z"/>
    <path class="cls-166" d="m54.71,28.08c.06.05.13.11.19.16.44-.07.9-.1,1.01-.66.54-.7.08-.82-.5-.87-.02.19.18.45-.18.52h0c.07.43-.61.4-.52.85Z"/>
    <path class="cls-65" d="m50.25,20.03c.42.14.82.17,1.18-.14,0-.12,0-.24,0-.35,0,0,0,0,0,0-.63-.4-1.05-.31-1.19.49Z"/>
    <path class="cls-162" d="m55.33,24.8c-.3-.05-.66-.18-.99-.12-.19.03-.06.41.08.48.3.15.66.34.99.11.12-.09.09-.29-.08-.46Z"/>
    <path class="cls-181" d="m48.64,26.28c.38-.54,1.03-.2,1.5-.46-.7-.5-1.35-.85-1.5.46Z"/>
    <path class="cls-129" d="m48.36,21.18c.28.06.57.11.85.17-.25-.35-.08-1.36-1.01-.65-.06.2.17.3.16.48Z"/>
    <path class="cls-138" d="m49.63,15.95c-.17-.17-.33-.35-.5-.52-.08,0-.13.02-.16.07-.03.05-.03.08-.02.1-.14.2-.54.4-.22.65.35.28.64-.06.89-.3Z"/>
    <path class="cls-194" d="m55.91,27.58c-.34.22-.67.44-1.01.66,1.11.96.91-.08,1.01-.66Z"/>
    <path class="cls-159" d="m54.71,28.08c.06-.35.93-.21.52-.85-.23.13-.48.23-.68.39-.28.24-.3.44.16.46Z"/>
    <path class="cls-63" d="m52.72,25.33c-.19.16-.64-.11-.64.31,0,.23.28.43.53.34.36-.13.32-.39.1-.65h.01Z"/>
    <path class="cls-1" d="m48.36,21.18c.08-.21-.04-.34-.16-.48-.29-.06-.57-.12-.86-.18-.06.07-.13.14-.19.21.13.09.25.18.38.27.28.06.55.11.83.17Z"/>
    <path class="cls-67" d="m52.71,25.32c.2-.12.61-.05.46-.48-.03-.09-.28-.2-.37-.16-.35.15-.27.4-.08.64h-.01Z"/>
    <path class="cls-83" d="m53.78,21.95c.24.16.35.54.75.47.21-.45-.61-.37-.41-.8-.31-.09-.37.07-.34.33Z"/>
    <path class="cls-59" d="m48.42,18.13c-.11.23-.12.47,0,.7.27-.16.54-.33.8-.49-.22-.26-.5-.31-.81-.2Z"/>
    <path class="cls-201" d="m59.05,28.94c-.21.47.15.6.21,1.07.23-.56.15-.8-.21-1.07Z"/>
    <path class="cls-200" d="m49.34,24.26c-.34-.12-.69-.23-1.03-.35-.05.06-.1.11-.16.17.11.11.23.23.34.34.28-.07.62.17.85-.16Z"/>
    <path class="cls-138" d="m45.66,19.78c.28.09.55.17.83.26.16-.5-.27-.46-.52-.6-.1.11-.2.23-.31.34Z"/>
    <path class="cls-169" d="m57.77,26.88c0,.08-.05.2,0,.28.06.14.19.09.26,0,.05-.08.09-.22.05-.29-.05-.12-.18-.11-.3.02Z"/>
    <path class="cls-154" d="m48.96,15.59c.06-.06.12-.11.18-.17.05-.17.11-.34.16-.51-.54.01-.64.25-.34.68Z"/>
    <path class="cls-177" d="m55.23,27.23c.29-.09.47-.23.18-.52-.52.02-.36.27-.18.52Z"/>
    <path class="cls-33" d="m39.51,11.07c-.05.16-.11.32-.16.48.08.36.22.68.57.87.33.18.66.27.99-.03.26-.25.53-.46.44-.9-.1-.47-.48-.44-.8-.57-.4-.16-.68.2-1.03.16Z"/>
    <path class="cls-79" d="m37.63,13.21c.11,0,.21,0,.32,0,.54-.47,1.17-.91.38-1.68-1.49.44-1.58.66-.7,1.67Z"/>
    <path class="cls-113" d="m42.79,10.74c-.23.32-.08.7.14.93.27.28.77.41,1.08.18.34-.25.14-.7-.12-.93-.28-.25-.63-.53-1.1-.19Z"/>
    <path class="cls-220" d="m32.27,8.75c-.56.81-1.21.49-1.86.13-.22-.32-.47-.14-.72-.04-.39.28-.75.6-.9,1.09-.04.29.1.51.3.71.24.21.53.33.82.46.5.22,1.01.36,1.37-.22.31-.5.95-.37,1.3-.76-.56-.35-.16-.92-.32-1.36Z"/>
    <path class="cls-29" d="m32.58,10.11c-.67-.15-1.28-.12-1.58.63-.26.68-.67.04-.99.13-.19.35-.42.71,0,1.06.32-.34.63-.5,1.12-.25.87.44,1.58.28,1.91-.74-.16-.28-.31-.56-.47-.83Z"/>
    <path class="cls-32" d="m34.25,12.49c.23,1.38.67,1.6,1.85.89.11-.23.22-.45.34-.68-.67-.71-1.36-1.19-2.19-.21Z"/>
    <path class="cls-33" d="m35.3,9.62c-.45-.31-.92-.25-1.26.13-.32.35-.28.82.04,1.18.38.43.87.39,1.23,0,.35-.38.3-.87,0-1.31Z"/>
    <path class="cls-78" d="m36.63,9.19c-.27.35-.17.8.09,1.13.24.3.7.29.95-.02.28-.34.47-.82.1-1.18-.29-.29-.72-.32-1.14.07Z"/>
    <path class="cls-143" d="m45.15,20.28c-.4-.16-.79-.32-1.19-.48-.12,0-.24,0-.36-.01-.54.44-.96,1.39-1.84.46-.04.59.42.69.82.85.78.2,1.1.94,1.65,1.4.36,0,.71-.01,1.07-.02.05-.6-.4-1.21.03-1.81.03-.17.03-.33-.18-.4Z"/>
    <path class="cls-73" d="m39.91,19.03c-1.19.34-1.34.97-.53,2.18.33-.11.7-.16.98-.35.71-.48.51-1.27-.44-1.83Z"/>
    <path class="cls-76" d="m44.23,22.5c-.23-.84-.49-1.66-1.65-1.4-.33.59-.71,1.18.03,1.74.65.49,1.16.17,1.62-.33Z"/>
    <path class="cls-118" d="m45.15,20.64c-.81.68-.2,1.25.15,1.84.78-.28,1.72-.46,1.04-1.66-.39-.11-.76-.33-1.18-.18Z"/>
    <path class="cls-75" d="m46.27,24.89c.62.18.98-.03,1.06-.69-.11-.11-.22-.22-.33-.32-.36-.37-.72-.38-1.09-.01-.04.06-.08.12-.12.18.1.31,0,.75.48.84Z"/>
    <path class="cls-211" d="m45.91,23.86c.36,0,.72,0,1.08.01-.21-.64-.46-1.18-1.22-.53.05.17.09.35.14.52Z"/>
    <path class="cls-43" d="m45.15,20.64c.39.11.75.35,1.18.18.05-.05.1-.09.15-.14-.42-.21-.85-.4-1.34-.4v.36Z"/>
    <path class="cls-64" d="m37.6,15.38c.56.53,1.12.62,1.59.19.37-.34.27-.92-.04-1.19-.36-.33-.95-.56-1.4-.19-.4.33-.33.84-.16,1.19Z"/>
    <path class="cls-235" d="m20.44,16.13c.17-.14.33-.29.5-.43-.09-.4.83-.83-.09-1.23-.71-.31-1.02.18-1.24.57-.48.85.61.67.83,1.09Z"/>
    <path class="cls-10" d="m35,18.78c-.29-1.02-.88-1.37-1.87-.85-.37.73-.53,1.45.35,1.91.42.22.22.53.28.8.48-.48.77.31,1.2.18-.85-.69-.43-1.37.04-2.04Z"/>
    <path class="cls-33" d="m36.65,21.8c.21.2.44.13.67.07.49-.53,1.31-.97.55-1.88-1.02-.57-1.56-.1-1.89.85.23.31.67.48.66.96Z"/>
    <path class="cls-31" d="m17.38,5.13c-.47.07-1.01.07-1.24.58-.25.56-.63.25-.98.23.26.23.41.53.5.86.83.59,1.65.82,2.44-.08.45-.84-.08-1.24-.71-1.59h0Z"/>
    <path class="cls-150" d="m17.87,6.66c-.68.95-1.49-.09-2.21.13-.17.39-.34.78-.51,1.17.7.82,1.42.88,2-.06.25-.4.54-.37.88-.38.08-.31.2-.63-.16-.86Z"/>
    <path class="cls-213" d="m12.77,7.93c-.39,1.24.55,1.23,1.31,1.37.05-.16.11-.32.16-.49-.02-.43.35-.92-.26-1.24-.54-.29-.88-.02-1.21.36Z"/>
    <path class="cls-213" d="m11.07,7.93c-.23.1-.46.21-.69.31.2.38-.82.76,0,1.14.33.15.67.53,1.02.07.29-.38.53-.8,0-1.2-.11-.11-.22-.22-.33-.32Z"/>
    <path class="cls-184" d="m27.03,16.81c.27-1.07.03-1.4-1.13-1.54.03.59-.91.97-.38,1.68.52.21,1.05.44,1.5-.14Z"/>
    <path class="cls-183" d="m30.24,17.99c-.6-.66-1.07-.37-1.5.2-.23.97.68,1.06,1.15,1.49.22-.44.29-.96.71-1.29-.12-.13-.23-.26-.35-.39Z"/>
    <path class="cls-145" d="m17.87,6.66c.06.28-.13.62.16.86.11.1.21.21.32.31.92.26,1.32-1.01,2.24-.76-.4-.35.1-.71-.01-1.07-.31.29-.57.76-1.1.5-.53-.27-.84-.72-.75-1.36-.46.7-.9-.08-1.35-.03.49.41.87.85.49,1.54Z"/>
    <path class="cls-25" d="m30.01,11.94c0-.35,0-.71,0-1.06-.22-.11-.44-.21-.67-.32-.74-.17-1.11.18-1.23.88,0,.28.31.39.36.64.56.46,1.11.81,1.54-.14Z"/>
    <path class="cls-87" d="m28.47,12.08c.07-.22-.03-.38-.17-.53-.26-.03-.26-.3-.4-.44-.34-.35-.69-.69-1.16-.86-.63.04-1.02-.58-1.63-.61-.03.78.98.96,1,1.71.39-.47.8-.35,1.24-.07.69.44.05.98.12,1.47.31-.25.46-.75,1-.67Z"/>
    <path class="cls-20" d="m31.75,17.23c-.03-.07-.08-.13-.13-.18-.29.29-.58.57-.87.86.5.03.68-.42,1-.67Z"/>
    <path class="cls-112" d="m46.27,24.89c-.16-.28-.32-.56-.48-.84-.13.45-.13.82.48.84Z"/>
    <path class="cls-146" d="m29.86,9.05c.16-.14.33-.24.55-.17-.05-.17-.1-.34-.15-.52-.61.09-.85-.87-1.54-.54,0,.05,0,.11,0,.16.33.41.71.77,1.14,1.06Z"/>
    <path class="cls-17" d="m25.12,9.65c.52.36.78,1.34,1.71.7.43-.1.76-.36,1.07-.66,0-.42.18-.88-.21-1.24-.83.05-1.29-.22-1.04-1.15.12-.45-.1-.83-.31-1.2-.33-.12-.65-.23-.98-.35-.58.48-1.13.98-.86,1.85.39.37,1.33.48.65,1.36,0,.23-.02.45-.03.68Z"/>
    <path class="cls-146" d="m26.33,6.1c.06.5.21.99-.03,1.49-.15.32-.27.68.16.91.41.22.82.53,1.22,0,.47,0,.81-.21,1.03-.63,0,0,0-.04,0-.04.05-.28.11-.56.16-.85-.48.64-.99.38-1.53.09-.61-.33-.39-.82-.29-1.3-.21.18-.39.42-.73.33Z"/>
    <path class="cls-238" d="m35.63,21.5c.34.12.68.24,1.02.37-.36-.06-.36-1.13-1.02-.37Z"/>
    <path class="cls-26" d="m28.71,7.87c-.44.04-.75.31-1.03.63.06.4-.25.85.16,1.2-.02.18.08.3.22.4.27.11.53.12.78-.06.34-.33.68-.66,1.02-.99-.07-.71-.63-.92-1.16-1.18Z"/>
    <path class="cls-182" d="m28.84,10.04c-.23-.02-.46-.04-.69-.05-.08.25.68.55-.06.78-.21.07-.26.38-.28.62.13.15.29.24.5.17.04-.66.53-.84,1.04-1-.17-.17-.34-.35-.5-.52Z"/>
    <path class="cls-220" d="m27.81,11.39c.23-.44,1.36-.66.34-1.4-.1-.1-.21-.19-.31-.29-.61-.21-.77.29-1.02.65.14.53.7.65.98,1.04Z"/>
    <path class="cls-3" d="m127.69,76.73c-7.82-6.05-15.7-11.99-23.55-17.99-3.01-2.3-6.15-4.45-9.12-6.82-4.44-3.55-9.56-5.27-15.05-6.36-11.2-2.21-22.52-3.82-33.64-6.42-8.29-1.94-16.39-4.53-24.59-6.77-3.23-.88-6.46-1.7-9.6-2.89-2.09-.8-3.88-.24-5.49,1.27-1.75,1.64-3.53,3.24-4.88,5.26-1.47,2.21-1.8,4.45-.4,6.85.76,1.31,1.3,2.74,1.98,4.09.66,1.31,1.64,2.25,3.16,2.48,8.77,1.32,17.43,3.23,26.16,4.71,8.98,1.52,18.06,2.31,27.07,3.6,5.73.82,11.4,2.02,16.95,3.7,1.16.35,2.23.89,3.18,1.63,9.67,7.61,19.48,15.07,28.56,23.4,5.39,4.94,10.93,9.76,15.63,15.38,1.63,1.94,3.05,2.18,5.23,1.34,2.34-.91,4.77-1.59,6.96-2.87,3.03-1.77,3.76-3.48,2.86-6.88-.65-2.43-1.35-4.85-1.98-7.28-.27-1.05-.82-1.84-1.64-2.55-2.64-2.26-5.22-4.59-7.82-6.9Z"/>
    <path class="cls-138" d="m59.46,55.82c1.39.17,2.77.34,4.16.51.34-.15.52-.65,1.02-.45.45.08.79.28.85.78,1.38.25,2.77.51,4.15.76.71-.66,1.16.07,1.71.32,1.4.33,2.78.71,4.2.96,2.7.48,5.04,1.62,7.18,3.35,10.46,8.43,20.86,16.92,30.64,26.15,3.95,3.73,7.88,7.48,11.65,11.41,1.33,1.38,1.33,1.37,3.16.65,1.64-.64,3.28-1.25,4.92-1.88.9-.35,1.72-.82,2.54-1.33.66-.41.71-.71.08-1.22-4.55-3.71-9.02-7.53-13.7-11.08-6.15-4.66-12.28-9.34-18.31-14.14-6.13-4.88-12.24-9.77-18.39-14.62-1.25-.99-2.63-1.81-4.07-2.51-.83-.4-1.59-.92-2.33-1.65.81-.21,1.5-.06,2.19.21,3.16,1.24,5.87,3.24,8.58,5.21,8.17,5.9,15.83,12.44,23.74,18.67,6.72,5.29,13.61,10.36,19.91,16.17,1.1,1.02,2.14,2.11,3.43,3.38-.07-1.14-.05-2.01-.2-2.85-.36-2.01-.74-4.01-.88-6.04-.03-.49-.29-.78-.66-1.07-9.63-7.67-19.55-14.94-29.58-22.07-4.79-3.4-9.46-6.96-14.39-10.15-2.27-1.47-4.67-2.62-7.26-3.36-5.22-1.51-10.51-2.73-15.86-3.68-.39.75-1.07.84-1.81.78-.29,0-.58,0-.83.18-.42.49-.5,1.05-.3,1.66.74.2,1.48.43,2.26.36.58-.51,1,.07,1.48.21.33.33.74.49,1.2.52.91.13,1.83.2,2.73.43.15.01.3.02.45.01-.11.1-.24,0-.37.03-.38-.05-.77-.21-1.04.22-.06.24.12.57-.24.72-.16-.29.14-.63-.1-.9-.3-.31-.72-.3-1.1-.39-.71-.15-1.43-.03-2.14,0-.5-.04-1.01-.08-1.51-.12-1.05.69-1.43.64-2.03-.24-1.33-.18-2.66-.37-3.99-.55-.46.09-.5.44-.49.81.33.58.9,1.07.69,1.85-.18.33-.44.45-.76.23-.3-.2-.15-.47-.04-.72.14-.31.44-.55.4-.94-.14-.18-.29-.34-.5-.44-.22-.06-.57.51-.67-.14-.17-.19-.38-.31-.64-.32-.34.08-.55.3-.73.58-.13.22-.18.46-.18.71-.06.78,1.04,1.11.75,1.98-.19.52-.17,1.01.25,1.43.37.37.37.86.41,1.33.09.14.21.25.39.27Z"/>
    <path class="cls-14" d="m24.59,35.58c-.85-.27-1.68-.66-2.6-.68-.38-.04-.69-.28-1.03-.42-.49-.21-.96-.49-1.52-.44-.04.1-.04.21-.01.31.25.56.19.97-.53,1.04-.51,0-1,.07-1.38.46-.3.31-.65.37-1.05.28-.74-.08-1.35.11-1.69.84-.3.8.4,1.28.61,1.92.02.23.02.46.05.68.09.49.26.92.82,1.03.62.13,1.23.25,1.85.38.35-.26.64-.14.9.15,1.49.21,2.94.71,4.47.74.57-.11,1.17-.35,1.59.32,1.57.28,3.15.56,4.72.83.49-.77.86-.29,1.24.11,1.46.4,2.96.6,4.46.73.49-.09,1.03-.42,1.39.23.55.18,1.12.28,1.7.24.46-.44-.24-.73-.14-1.12.21-1.05,1.04-.19,1.49-.48.28-.12.52-.29.7-.53.66-1.24.58-1.48-.59-1.92-.38-.18-.75-.2-1.12.04-.28.18-.57.55-.94.26-.35-.28.04-.67-.04-1.01-.92-.26-1.85-.52-2.77-.79-.55.29-.99.19-1.28-.38-1.68-.59-3.38-1.1-5.13-1.48-.02.12,0,.23,0,.35.02.27.1.63-.32.58-.3-.03-.23-.36-.19-.59.03-.16.04-.31.03-.47-.7-.43-1.51-.52-2.29-.71-.7.19-.57.68-.43,1.18.03.54.68.83.62,1.54-.78-.38-.35-1.1-.62-1.54-.21-.63-.74-1.09-.98-1.71Z"/>
    <path class="cls-14" d="m21.55,49.48c1.26.29,2.48.73,3.78.81.62.04.81-.45,1.08-.84.55-1.04-.5-1.45-.83-2.15-.06-.22-.07-.43-.05-.66.05-.45.06-.9-.26-1.28-.24-.28-.47-.57-.64-.89-1.58-.35-3.17-.6-4.78-.69-.55.18-1.11.23-1.69.21-.34.06-.67.13-.95.34-.14.12-.24.26-.31.42-.2.52-.15,1.03.09,1.52.16.47,1.13,1.01-.14,1.33-.39.11-.94-.16-1.09.47,1.4.35,2.81.7,4.21,1.05,1.11-.75,1.3-.71,1.58.37Z"/>
    <path class="cls-14" d="m26.14,49.36c-.32.27-.36.78-.81.93,1.44.56,2.96.8,4.48,1.06.34-.17.6.12.91.16,1.56.48,3.16.81,4.78,1.03.77-.95-.07-1.58-.45-2.31-.07-.32.04-.64.03-.96,0-.52-.11-1-.46-1.41-.56-.41-.43-1.02-.46-1.58-.07-.23-.18-.41-.43-.48-.65-.22-1.33-.21-2-.25-.58.6-.98.12-1.4-.23-.75-.12-1.49-.23-2.24-.35,0,.06,0,.11,0,.17.25.64,1.11.99.91,1.85-.03.43.07.81.37,1.12.21.26.59.48.39.89-.23.46-.67.24-1.04.22-.41-.03-.83.03-1.11.33-.59.62-1.02.28-1.45-.18Z"/>
    <path class="cls-222" d="m65.42,47.32c.23-.02.47-.03.7-.05.3-.25.71-.32.96-.64.19-.23.33-.49-.15-.56-1.74-.36-3.48-.72-5.22-1.08-.43.26.3,1.15-.46,1.08-.66-.06-.13-.82-.36-1.21-.74-.17-1.47-.44-2.25-.44-.26.08-.36.27-.37.53.01.29.07.57.2.83.46.38.94.73.82,1.47-.05.3.22.49.53.55,1.35.3,2.7.6,4.05.9.18,0,.32-.11.29-.27-.13-1,.43-1.2,1.25-1.11Z"/>
    <path class="cls-23" d="m14.87,37.12c.39-.59.96-.81,1.64-.77,0-.05.01-.11.02-.16-.05-.31-.14-.62-.14-.94,0-.49-.02-.97-.41-1.34-.18-.23-.45-.4-.57-.69-1.25-.35-2.51-.67-3.75-1.06-.87-.27-1.17-.07-.92.84.08.3.1.62.14.93.41.47.55.98.26,1.56-.04.45-.03.89.18,1.31.7.29,1.41.42,2.13.06,1.01-.78,1.03-.77,1.27.19.05.02.1.05.15.07Z"/>
    <path class="cls-23" d="m34.39,48.01c.41.36.36.87.44,1.34.47.06.93.22,1.41.13.37-.1.71-.24,1.04-.43.45-.38.97-.3,1.49-.23.85.08,1.02-.66,1.38-1.16.06-.11.09-.23.1-.36-.04-.33-.18-.6-.53-.7-.55-.18-1.11-.31-1.69-.19-.5.17-.94.55-1.53.41-.59-.1-.99.22-1.36.6-.2.25-.62.24-.74.6Z"/>
    <path class="cls-143" d="m59.07,54.17c-.58-.31-.54-.81-.41-1.34-.05,0-.11,0-.16,0-.53.2-1.06.4-1.61.08-.32-.51.45-.92.14-1.42-.37-.5-.71-1.03-1.34-1.24-.11-.02-.23-.01-.34.02-.15.09-.25.22-.3.39-.05.54-.44.85-.78,1.19-.07.09-.1.19-.1.31.06.17.17.29.31.38.63.39,1.7.52,1,1.7-.51,1.05.61.79.94,1.17.28.19.58.16.89.11.6-.26.87-1.02,1.61-1.06.1-.06.15-.15.16-.27Z"/>
    <path class="cls-26" d="m39.48,53.2c.52.12,1.04.23,1.55.35.64-.41,1.24-1.02,2.1-.5.77-.03,1.27-.34,1.25-1.19-.04-.3-.09-.6-.23-.88-.16-.27-.39-.46-.69-.57-.28-.07-.66-.12-.79.07-.72,1.03-1.78.8-2.77.83-.47.28-.87.63-1.17,1.08,0,.5.44.6.76.81Z"/>
    <path class="cls-22" d="m10.63,44c-.46.52-.91,1.05-1.37,1.57-.41.53.1.58.39.74.13.13.26.23.46.17.44-.01.7-.27.92-.62.18-.28.34-.66.81-.5.11.04.21.07.32.1.65.16,1.18.01,1.57-.56.07-.1.11-.21.14-.33.04-.24,0-.47-.12-.68-.25-.49-.86-.65-1.06-1.17,0-.09-.01-.18-.05-.27-.62-.32-1.03-.09-1.29.51-.06.47-.24.85-.71,1.02Z"/>
    <path class="cls-17" d="m39.87,40.36c1.15.29.96,1.04.61,1.83.05,0,.11,0,.17,0,1.2-.58,1.21-.58,1.31.76.05.69.45,1.07,1.05,1.3.47.13.86-.03,1.19-.37.68-1.05.62-1.45-.32-2.2-.2-.16-.55-.21-.49-.59-1.05-.49-2.14-.82-3.29-.99-.17,0-.25.09-.23.26Z"/>
    <path class="cls-17" d="m5.38,43.11l.05.1.09.07c.83.91.86.9,1.77-.47,0-.62-.67-1.15-.21-1.82-.02-.76-.35-1.27-1.14-1.41-.36-.03-.7.07-1.02.23-.37.3-.82.45-1.27.59.16.48.39.92.79,1.26.57.32,1.05.7.96,1.45Z"/>
    <path class="cls-100" d="m48.77,47.68c-.94-.13-1.89-.26-2.83-.38-.09.24-.02.47.09.68.56.57,1.11,1.11.98,2.04-.05.39.26.74.63.96,1.19.46,1.35.39,1.83-.82.08-.65-.5-1-.67-1.54-.03-.31.07-.63-.03-.94Z"/>
    <path class="cls-35" d="m15.75,48.06c.32-.39.77-.06,1.13-.21-.12-.59-.04-1.15.23-1.69-.02-.45-.05-.89-.07-1.34-1.86-.11,0-.86-.22-1.26-.1-.15-.22-.25-.4-.27h.01c-.66.14-1.02.68-1.45,1.12-.27.59-.54,1.18-.78,1.79-.08.29-.09.57.13.81.47.24.95.47,1.2.98.08.03.15.05.23.08Z"/>
    <path class="cls-187" d="m43.4,50.56c.24.19.47.38.71.56.96-.01.85-.8,1.01-1.39-.04-.23-.16-.42-.29-.61-.53-.53-.36-1.15-.21-1.77-.06-.1-.14-.16-.25-.19-.64-.1-1.27-.2-1.91-.3-.44.16-.62.45-.46.91.05.09.13.17.21.24.33.22.69.42.83.83.03.15.03.29,0,.44-.09.35-.37.69-.08,1.07.13.11.28.19.46.22Z"/>
    <path class="cls-97" d="m43.08,53.81c1.49.23,2.97.46,4.46.69.17-.06.2-.21.24-.37.04-.26.15-.52.11-.79-.09-.41-.31-.75-.65-1-.1-.06-.2-.11-.31-.15-.57-.17-.99.09-1.35.5-.2.22-.33.58-.75.41-.76-.2-1.56-.48-1.74.72Z"/>
    <path class="cls-99" d="m15.68,33.99c.55.32.4.88.45,1.36.32.05.7-.17.97.18.05.44-.52.43-.59.78,0,0,0,.03,0,.03.37.27.76.28,1.01-.09.38-.56.92-.62,1.5-.59-.07-.55.37-.95.41-1.47,0-.05,0-.1,0-.15-1.08-.2-2.15-.4-3.23-.6-.12.23-.43.29-.52.55Z"/>
    <path class="cls-102" d="m7.23,33.87c-.71.87-1.78,1.4-2.31,2.45.42.09.72-.28,1.11-.3.71.08,1.35-.04,1.83-.63.41-.36.89.07,1.31-.12.1-.21.09-.43,0-.64-.04-.64-.11-1.27-.02-1.91h0c-.42-.47-.51.31-.83.22-.06.02-.11.06-.14.12-.42.16-.55.64-.95.82Z"/>
    <path class="cls-182" d="m58.55,45.69c.09-.23.07-.46-.04-.68-.8.09-1.28-.43-1.76-.94-.35-.07-.7-.14-1.05-.22-.12.03-.18.11-.18.23.01.08.02.19.07.21.71.36.43.86.21,1.35-.03.29-.04.57.13.82.36.34.68.74,1.2.86.27.15.56.24.87.17.21-.59.25-1.24.56-1.81Z"/>
    <path class="cls-97" d="m38.03,43.18c-.14.55.66.65.55,1.17,1.01.18,2.03.36,3.04.53.31-.31.44-.7.46-1.13-.14-.91-.89-1.2-1.57-1.56,0,0-.03,0-.03,0-.22.14-.45.28-.67.42-.42.74-1,.97-1.78.57Z"/>
    <path class="cls-87" d="m48.39,48.5c-.04.71.85.85.91,1.5.95.29,1.92.98,2.76-.2.07-.1.12-.2.16-.31.24-.65-.2-1.04-.57-1.45-.59-.06-1.18-.13-1.77-.19-.18.93-.73,1.03-1.49.66Z"/>
    <path class="cls-14" d="m11.52,38.03c.11.58.23,1.17.34,1.75.43-.17.86-.3,1.33-.22,1.5-.24,1.85-.87,1.23-2.19-.13-.14-.29-.25-.47-.33-1.1-.37-1.72.42-2.44.99Z"/>
    <path class="cls-16" d="m5,39.92c.28-.07.56-.14.84-.22-.05-.88.52-.98,1.19-.93.1-.07.14-.17.12-.29-.18-.44-.5-.77-.84-1.08-.69-.33-1.38-.64-2.11-.1-.48.54-.78,1.16-.83,1.89.56.2,1.18.26,1.63.73Z"/>
    <path class="cls-30" d="m55.43,50.3c.62.25.89.91,1.44,1.24.53.04.91-.12.97-.72.05-.17.09-.34.14-.51,0-.59-.25-1.07-.62-1.51-.38-.14-.77-.19-1.17-.12-.27.53-1.05.82-.75,1.62Z"/>
    <path class="cls-30" d="m8.67,41.22c.63-.48.83-1.11.68-1.87-.34-.45-.7-.87-1.17-1.19-.41,0-.82,0-1.04.45v.03c.03.76-.57,1.58.19,2.28.42.24.85.41,1.34.31Z"/>
    <path class="cls-95" d="m14.45,47.01c-.13-.25-.13-.49-.02-.75-.1-.61-.59-1.03-.8-1.59-.35.58-.88.68-1.49.6.04.61-.32,1.17-.26,1.78.86.23,1.71.46,2.57.69.16-.24.39-.49,0-.73Z"/>
    <path class="cls-97" d="m25.05,45.5c.43.32.19.77.23,1.17.48.03.95.15,1.43.2.43,0,.82-.12,1.11-.46.34-.41.36-.89.28-1.39,0,0,0-.06,0-.06-.84-.12-1.68-.25-2.53-.37-.14.32-.41.56-.51.91Z"/>
    <path class="cls-151" d="m43.39,41.1c-.24.45-.05.68.37.9.79.43.89,1.02.24,1.68-.09.33-.32.66.03.97.23.22.51.32.82.32.25-.01.47-.08.67-.25.08-.08.16-.17.22-.27.32-.54.51-1.08-.2-1.48-.67-.38-.24-1.08-.5-1.58-.55-.1-1.11-.2-1.66-.3Z"/>
    <path class="cls-52" d="m51.44,46.44c.85.14,1.7.28,2.55.42.15-1.79-.72-2.63-2.19-2.13-.42.27-.7.64-.76,1.15,0,.28.05.54.41.57Z"/>
    <path class="cls-54" d="m45.05,41.4c-.36.78-.56,1.49.5,1.94.71.3-.23.73,0,1.1.55-.07,1.11-.12,1.53-.55-.02-.36-.45-.65-.2-1.06.1-.31.36-.58.25-.94-.67-.27-1.37-.43-2.09-.49Z"/>
    <path class="cls-203" d="m51.87,44.93c.97-.28,1.67.1,1.85,1.06.06.31.05.62.27.87.36.06.73.13,1.09.19.41-.09.79-.23.97-.66-.01-.23-.03-.47-.04-.7-.56-.11-1.16-.07-1.6-.54-.68-.42-1.36-.84-1.57-1.69-.38,0-.64.24-.92.43-.14.11-.25.25-.3.42-.03.25.06.46.25.62Z"/>
    <path class="cls-57" d="m47.03,43.86c-.51.16-1.14,0-1.48.58-.05.06-.1.12-.15.18-.05.27-.35.51-.09.81.83.14,1.67.28,2.5.42.17-.36.26-.73.19-1.12-.04-.17-.1-.34-.2-.49-.2-.25-.42-.45-.77-.38Z"/>
    <path class="cls-23" d="m14.19,37.47c.59,1.27.23,1.8-1.24,1.82,0,.3.1.57.26.82.27.03.54.06.81.09.35-.28.62-.09.88.15.43.25.9.27,1.38.26-.45-.26-.43-.76-.6-1.17-.22-.07-.66.09-.59-.31.05-.28.45-.17.71-.19-.06-.73-.99-1.03-.91-1.83,0,0-.02,0-.02,0-.28,0-.54.04-.66.35Z"/>
    <path class="cls-91" d="m58.55,45.69c-.74.43-1.02,1.01-.56,1.81.59.24,1.21.31,1.84.3-.15-.17-.41-.32-.3-.59.38-.97-.23-1.29-.98-1.52Z"/>
    <path class="cls-187" d="m52.81,43.49c-.26.74.03,1.17.74,1.44.28.11.52.35.78.52.34-.24.33-.69.59-.99.16-.24.34-.47.29-.79-.72-.16-1.43-.32-2.15-.47-.18.01-.26.11-.24.29Z"/>
    <path class="cls-56" d="m51.44,54.86c.74.1,1.49.2,2.23.3,0-.05.01-.11.02-.16-.09-.64.01-1.36-.7-1.77-.15-.11-.31-.19-.49-.23-.44-.03-.71.24-.94.56-.21.41-.39.83-.13,1.3Z"/>
    <path class="cls-150" d="m43.08,53.81c.47-.87,1.12-.78,1.83-.33.43-.11.62-.49.85-.8.41-.56.01-.89-.45-1.11-.43-.21-.97-.64-1.13.29.09.75-.5.86-1,1.05-.27.23-.48.48-.43.86.11.02.22.04.33.05Z"/>
    <path class="cls-18" d="m14.97,44.61c.67-.24,1.02-.83,1.46-1.33-.74-.46-1.59-.43-2.4-.58-.06.1-.11.22-.14.33-.19.8.15,1.3.89,1.58.06,0,.12,0,.18,0Z"/>
    <path class="cls-203" d="m4.2,37.3c.71-.3,1.33.25,2.02.18,1.11-1.02,1.09-1.13-.29-1.86-.44.08-.68.44-1.01.69-.24.33-.48.65-.72.98Z"/>
    <path class="cls-237" d="m8.16,38.2c.18.61.54,1.03,1.19,1.15.08-.69.09-1.38-.07-2.07-.14-.31-.2-.66-.5-.88-.27-.11-.54-.2-.78.07.13.57.09,1.15.16,1.73Z"/>
    <path class="cls-232" d="m39.87,40.36c.08-.09.15-.17.23-.26-.72-.17-1.43-.34-2.15-.51-.5.33-.76.78-.34,1.28.47.56.93.19,1.31-.19.27-.27.55-.45.95-.32Z"/>
    <path class="cls-27" d="m65.42,47.32c-.33-.65-.77-.31-1.18-.12-.43.19-.61.51-.35.95.12.2.09.37-.02.55.38.06.75.11,1.13.17.14-.52.28-1.03.42-1.55Z"/>
    <path class="cls-214" d="m8.67,41.22c-.39-.2-.77-.41-1.22-.43-.19.02-.43-.1-.5.21-.6.62-.53,1.12.26,1.5.35.11.58,0,.68-.35l.78-.93Z"/>
    <path class="cls-178" d="m34.68,50.19c.36.75,1.19,1.34.81,2.35.44.23.92.24,1.4.23.2-.02.34-.13.4-.32,0-.9-.93-1.04-1.31-1.62-.42-.24-.75-.68-1.3-.63Z"/>
    <path class="cls-136" d="m8.04,36.51c.22-.01.45-.02.67-.03.52-.11.35-.57.46-.89,0-.11,0-.21,0-.32-.46-.15-.85-.69-1.42-.26.01.31-.31.43-.4.68-.23.63-.11,1.01.68.82Z"/>
    <path class="cls-231" d="m55.43,50.3c-.11-.71,1.06-.82.75-1.62-.44-.23-.92-.26-1.4-.24-.35.18-.73.39-.6.85.17.61.61.95,1.26,1h0Z"/>
    <path class="cls-228" d="m5,39.92c-.06-.68-.66-.94-1.63-.73-.12.45-.02.84.26,1.2.73.63.98-.12,1.37-.48Z"/>
    <path class="cls-183" d="m11.88,47.05c.26-.57,1.03-1.07.26-1.78-.07-.03-.12-.07-.17-.13-.72-.15-.96.41-1.14.89-.16.41.11.73.57.83.14.12.28.26.49.2Z"/>
    <path class="cls-48" d="m35.22,47.79c.35-.38.64-.89,1.3-.74.13-.28.22-.58.13-.89-.96-.2-1.93-.38-2.92-.37.08.18.16.37.23.55.86.1.95.86,1.25,1.45Z"/>
    <path class="cls-135" d="m42.75,53.76c.19-.26.54-.45.43-.86-1.06-.94-1.66-.33-2.14.65.57.07,1.14.14,1.71.22Z"/>
    <path class="cls-93" d="m60.9,44.87c.03.43-.85.77-.23,1.2.27.18.47.84.91.5.53-.41.58-1,.14-1.57-.26-.13-.53-.2-.82-.13Z"/>
    <path class="cls-35" d="m55.43,50.3c-.42-.55-1.65-.8-.66-1.85-.09,0-.19-.02-.28-.03-.72.31-1.42.25-2.08-.15-.07.01-.12.05-.17.1-.1.41.04.75.33,1.04.33.29.74.44,1.13.62.45.15.78.55,1.26.65.06,0,.12-.02.18-.03.1-.12.2-.24.29-.36Z"/>
    <path class="cls-137" d="m48.39,48.5c.36.3.63,1,1.18.67.36-.21.67-.78.31-1.32-.37-.05-.74-.11-1.11-.16-.13.27-.25.55-.38.82Z"/>
    <path class="cls-153" d="m11.52,38.03c.35.23.63.1.81-.21.36-.61.89-.73,1.53-.64-.04-.32-.23-.46-.54-.48-.65.32-1.34-.18-1.99.09.07.41.13.82.2,1.23Z"/>
    <path class="cls-41" d="m58.91,54.32c-1.08-.35-1.22.59-1.62,1.18.72.11,1.44.22,2.17.32-.1-.1-.19-.21-.29-.31.07-.43-.2-.79-.26-1.19Z"/>
    <path class="cls-21" d="m64.59,49.73c0,.37-.31.83.44.93.71.09,1.39.3,1.59-.69-.67-.12-1.33-.36-2.03-.24Z"/>
    <path class="cls-33" d="m42.2,47.86c-.21-.41-.03-.72.24-1.01-.93.09-1.84-.03-2.73-.26.14.24.28.48.42.73.68.16.75.89,1.18,1.29.41-.11.76-.3.89-.74Z"/>
    <path class="cls-152" d="m21.55,49.48c-.06-.36.73-.83-.16-1.07-.71-.2-1.33-.31-1.42.71.53.12,1.05.24,1.58.37Z"/>
    <path class="cls-41" d="m52.81,43.49c.08-.1.16-.19.24-.29-.66-.13-1.29-.42-1.99-.34-.13.05-.22.14-.25.28.04.77.45,1.06,1.19.94.42.02.54-.38.8-.59Z"/>
    <path class="cls-124" d="m60.18,50.01c.14-.28.28-.55.42-.83-.78-.1-1.56-.19-2.34-.29-.16.37-.07.62.35.72.18.16.36.31.54.47.26.03.48-.15.74-.12.09.05.19.07.29.06Z"/>
    <path class="cls-149" d="m28.29,36.82c-.31.4-.76.82-.24,1.32.25.24.65.33.96,0,.46-.5.16-.86-.23-1.2-.16-.04-.33-.08-.49-.12Z"/>
    <path class="cls-90" d="m66.94,46.07c.27.77-.96.51-.82,1.2.34,0,.69-.03,1.02.04.68.13.66.15.54-.56-.02-.15.17-.33.26-.5-.32-.16-.63-.33-1.01-.17Z"/>
    <path class="cls-180" d="m50.91,43.09c.05-.08.1-.15.16-.23-.64-.41-1.38-.39-2.09-.47-.32-.11-.57-.02-.75.26-.13.31-.35.62-.06.96.73-.26,1.46-.39,2.2-.03.11,0,.22-.02.33-.07.14-.11.24-.24.22-.43Z"/>
    <path class="cls-125" d="m56.75,44.07c.34,1.2.69,1.39,1.76.94.05-.19.09-.39.14-.58-.61-.26-1.25-.33-1.9-.35Z"/>
    <path class="cls-135" d="m41.91,43.81c-.21.33-.33.68-.29,1.08.48.06.96.12,1.45.18.49-.2.67-.46.18-.86-.54.17-.72-.86-1.34-.4Z"/>
    <path class="cls-97" d="m37.18,52.43c-.1.11-.19.22-.29.34.85.24,1.7.43,2.59.43-.08-.42-.49-.49-.75-.72-.14-.31-.43-.37-.72-.46-.36-.03-.74-.12-.83.41Z"/>
    <path class="cls-9" d="m51.44,54.86l.29-1.11c0-.11-.06-.18-.17-.21-.34.04-.48.51-.89.42-.7-.21-1.38-.36-1.6.63.79.09,1.57.18,2.36.26Z"/>
    <path class="cls-247" d="m25.57,37.32c.11-.42.05-.89.43-1.22-.41-.35-.91-.43-1.41-.53-.38.99.55,1.23,1,1.75h-.02Z"/>
    <path class="cls-217" d="m47.84,44.83c.05.34-.38.67-.03,1.02.36.07.73.14,1.09.21.12-.02.21-.09.26-.2.12-.3.09-.59-.11-.85-.37-.28-.72-.74-1.22-.18Z"/>
    <path class="cls-230" d="m36.65,46.16c-.23.27-.46.54-.13.89.8.48,1.1-.21,1.5-.65-.46-.05-.88-.38-1.37-.25Z"/>
    <path class="cls-239" d="m31.02,43.15c.24-.76-.31-.89-.82-.89-.5,0-.69.3-.41.78.4.13.81.21,1.24.11Z"/>
    <path class="cls-240" d="m49.08,54.6c.51-.84,1.19-.44,1.85-.26-.03-.55-.41-.81-.85-1.02-.55-.05-1.1.03-1.65.11-.14.18-.15.43.02.53.37.2.18.39.05.6.19.01.39.03.58.04Z"/>
    <path class="cls-89" d="m64.77,55.68c-.89-.68-.99.04-1.15.65.45.07.9.14,1.36.22.49-.43-.16-.58-.21-.87Z"/>
    <path class="cls-236" d="m58.61,49.61c-.12-.24-.23-.48-.35-.72-.3-.03-.61-.06-.91-.09-.12.64.36,1.03.62,1.51.21-.23.42-.47.64-.7Z"/>
    <path class="cls-106" d="m52.41,48.26c.63.94,1.31,1.17,2.08.15-.69-.14-1.38-.29-2.08-.15Z"/>
    <path class="cls-18" d="m16.42,43.29c.12.12.25.24.37.36.02.37.15.68.54.81.29-.08.57-.16.86-.24.04-.26.41-.39.27-.72l-2.04-.21Z"/>
    <path class="cls-2" d="m70.01,49.74c-.39-.12-.79-.23-1.18-.35-.1-.03-.15-.01-.16.04,0,.05,0,.09.03.11.31.69-.54.2-.56.55l2.07.23c.31-.32.17-.49-.19-.59Z"/>
    <path class="cls-58" d="m48.35,42.75c.21-.12.42-.24.63-.36-.56-.36-1.19-.47-1.84-.5-.18.31-.56.51-.5.94.56-.26,1.16.32,1.72-.08Z"/>
    <path class="cls-7" d="m13.2,40.11c.27-.38.02-.61-.26-.82-.51-.15-.95-.16-1.09.49.38.41.88.3,1.34.32Z"/>
    <path class="cls-246" d="m30.33,45.31c-.02.59.38.9.85.97.44.07.56-.34.54-.73-.45-.16-.91-.31-1.4-.23Z"/>
    <path class="cls-13" d="m56.05,46.38c-.42.08-.72.33-.97.66.68.11,1.33.38,2.04.29-.33-.35-.58-.78-1.07-.95Z"/>
    <path class="cls-197" d="m14.19,42.94c-.05-.08-.1-.16-.15-.24-.45-.16-.91-.29-1.39-.23-.05.08-.1.16-.16.24.21.48.63.74,1.05.99.36-.13.56-.4.65-.76Z"/>
    <path class="cls-197" d="m18.46,43.5c-.14.22-.4.4-.27.72.59.01,1.28.38,1.66-.44-.43-.25-.9-.28-1.38-.28Z"/>
    <path class="cls-49" d="m7.89,42.15c-.23.12-.45.24-.68.35-.57,1.34-.74,1.42-1.69.78.08.45.44.73.72,1.17.5-.86,1.3-1.41,1.65-2.3Z"/>
    <path class="cls-61" d="m5.38,43.11c.95-1.32-.28-1.2-.96-1.45.21.55.48,1.07.96,1.45Z"/>
    <path class="cls-242" d="m68.69,49.55c.03-.06.08-.11.13-.16-.3-.24-.59-.51-.92-.7-.65-.39-.69.04-.64.53.43.3.97.16,1.43.32Z"/>
    <path class="cls-223" d="m48.5,54.55c.78-.39-.16-.73-.03-1.1-.04-.14-.13-.2-.28-.18-.3.23-.56.49-.66.88,0,.12,0,.23,0,.35.31.17.64.1.96.05Z"/>
    <path class="cls-199" d="m14.45,47.01c0,.24,0,.49,0,.73.36.08.71.16,1.07.24.25-.99-.53-.85-1.07-.97Z"/>
    <path class="cls-179" d="m25.06,42.21c-.26-1.03-.62-1.11-1.59-.32.49.29,1.04.28,1.59.32Z"/>
    <path class="cls-55" d="m36.88,44.11c.07-.34.07-.62-.34-.76-.56-.2-.79.2-1.06.53.44.22.91.29,1.39.23Z"/>
    <path class="cls-171" d="m25.05,45.5c.44-.15.88-.3.51-.91-.31-.04-.62-.08-.93-.13-.33.54.15.74.43,1.03Z"/>
    <path class="cls-115" d="m11.38,46.86c-.69-.89-.6-1.16.58-1.71-.32-.3-.56-.52-.86.08-.23.47-.49.97-.98,1.26.42.12.84.25,1.26.37Z"/>
    <path class="cls-82" d="m51.44,46.44c-.07-.15-.13-.3-.2-.45,0-.33-.24-.39-.49-.43-.56.06-1.27-.32-1.54.55.74.11,1.48.23,2.22.34Z"/>
    <path class="cls-50" d="m44.9,44.81c-.24-.09-.47-.18-.71-.27-.49-.11-.74.1-.81.57.56.15,1.12.32,1.72.28.07-.24.08-.46-.2-.58Z"/>
    <path class="cls-62" d="m11.14,35.5c.67-.64.94-1.22-.26-1.56-.12.55.16,1.04.26,1.56Z"/>
    <path class="cls-170" d="m33.9,38.42c-.24.55.18.67.54.82.44.18.66-.01.74-.44-.43-.13-.85-.25-1.28-.38Z"/>
    <path class="cls-165" d="m56.4,55.39c.08-.39-.17-.44-.46-.45-.46-.02-.5-.24-.27-.59-.37-.38-.65-.24-.88.16-.04.35.24.54.41.79.4.03.8.06,1.2.09Z"/>
    <path class="cls-104" d="m10.63,44c1.12.28.88-.4.71-1.02-.3.29-.62.58-.71,1.02Z"/>
    <path class="cls-161" d="m71.35,57.74c-.34-.36-.71-.7-.71-1.3-.63.14-.61.77-1,.99.1.02.2.04.31.05.42-.21.71.15,1.06.23l.34.04Z"/>
    <path class="cls-107" d="m44.35,47.15c.06.08.13.16.19.24.35.44.82.67,1.35.79.16-.09.25-.22.23-.41-.07-.16-.13-.32-.19-.48-.53-.05-1.06-.09-1.59-.14Z"/>
    <path class="cls-143" d="m53.67,55.16c.4.05.8.09,1.2.14.03-.85-.25-1.02-1.16-.74-.15.18-.1.38-.02.57l-.02.03Z"/>
    <path class="cls-207" d="m64.77,55.68c.07.29.14.58.21.87.15.12.31.21.51.12.67-1-.21-.86-.72-.99Z"/>
    <path class="cls-60" d="m15.68,33.99c.25-.11.98.23.52-.55-.26-.07-.53-.14-.8-.21-.25.38.04.56.27.77Z"/>
    <path class="cls-42" d="m43.38,45.1c.19-.31.48-.47.81-.57-.28-.23-.14-.56-.2-.85-.24.38-.62.38-1.01.37-.02.13.04.19.18.18.36.32.12.57-.09.83.1.01.21.02.31.03Z"/>
    <path class="cls-245" d="m53.68,54.81c.65-.46,1.05-.3,1.2.49.11,0,.22,0,.33,0,.09-.35-.16-.53-.36-.73-.1-.43-.37-.75-.81-.6-.3.1-.76.34-.36.84Z"/>
    <path class="cls-35" d="m9.17,35.59c-.15.3-.31.59-.46.89.1.33.25.63.57.81.07-.57.07-1.14-.11-1.7Z"/>
    <path class="cls-85" d="m9.16,32.71c-.37.64-.26,1.27.02,1.91.16-.64.11-1.27-.02-1.91Z"/>
    <path class="cls-58" d="m49.22,46.1c.42-.54,1.03-.17,1.53-.31-.72-.84-1-.83-1.73.09-.04.06-.08.12-.12.18.09.11.2.11.32.04Z"/>
    <path class="cls-179" d="m52.82,49.27c-.3-.23-.47-.55-.57-.9-.2-.11-.4-.22-.59-.33-.07.5.58.75.44,1.28.25.15.5.32.72-.04Z"/>
    <path class="cls-14" d="m14.89,40.35c.01-.59-.41-.58-.8-.53-.31.04-.23.22-.08.38.29.05.58.1.88.15Z"/>
    <path class="cls-8" d="m19.01,41.14c.05-.32-.1-.51-.41-.56-.29-.04-.53.03-.5.41.3.05.6.1.9.15Z"/>
    <path class="cls-115" d="m9.66,46.32c-.2-.21-.47-.39-.39-.74-.23.06-.55.17-.43.43.13.3.51.32.83.31Z"/>
    <path class="cls-215" d="m30.71,51.51c-.29-.12-.46-.92-.91-.16.26.27.58.24.91.16Z"/>
    <path class="cls-38" d="m55.21,43.67c-.21.25-.41.5-.62.75.53.32.73-.14,1-.43.04-.04.08-.09.12-.13-.12-.19-.28-.25-.5-.19Z"/>
    <path class="cls-127" d="m20.96,34.48c.3.25.51.71,1.03.42-.24-.39-.64-.4-1.03-.42Z"/>
    <path class="cls-81" d="m69.95,59.23c-.32-.25-.58-.77-1.06-.23.35.08.71.15,1.06.23Z"/>
    <path class="cls-85" d="m8.33,32.93c.28-.07.56-.15.83-.22-.47-.65-.57.08-.83.22Z"/>
    <path class="cls-174" d="m44.9,44.81c.07.19.13.38.2.58.06.04.13.06.21.04.03-.27.06-.54.09-.81-.16.06-.33.13-.49.19Z"/>
    <path class="cls-121" d="m7.23,33.87c.5-.06.67-.51.95-.82-.46.11-.73.44-.95.82Z"/>
    <path class="cls-113" d="m60.37,50.5c-.57.36-.9.89-.88,1.55,0,.36.48.37.74.48.43.18.78.05.77-.52.19-.67-.04-1.16-.63-1.51Z"/>
    <path class="cls-208" d="m67.6,52.34c-.69-.37-1.38-1.07-1.83.24-.2.57-.09.8.46.94.52.13.75.08.6-.56-.13-.57.57-.26.76-.62Z"/>
    <path class="cls-68" d="m61.92,53.82c-.46-.33-.89-.45-1.35.06-.36.4-.34.78-.07,1.18.17.26.47.6.76.42.51-.32,1.11-.69.83-1.5-.34.01-.39.47-.74.48-.13.08-.06-.12-.04-.12.36.02.55-.18.61-.53Z"/>
    <path class="cls-63" d="m62.21,50.78c-.31.27-.18.54.09.78.64.56,1.01-.09,1.43-.37.24-.16.18-.48-.09-.57-.47-.16-.98-.44-1.42.16Z"/>
    <path class="cls-219" d="m57.83,50.82c-.32.24-.64.48-.97.72.16.61-1.03,1.05-.21,1.74.03-.02.08-.04.1-.07q.77-1.21,1.87-.4s.04.01.04.01c.65-1.05-.79-1.24-.82-2Z"/>
    <path class="cls-5" d="m70.01,49.74c.16.17.27.34.19.59.35.07.71.14,1.06.22.18-.03.31.2.5.1.34,0,.68-.02,1.01-.03.19-.16.2-.31-.04-.43-.89-.29-1.81-.39-2.74-.45Z"/>
    <path class="cls-70" d="m63.9,52.67c-.11.04-.23.07-.32.14-.4.33-.41.82-.42,1.27,0,.24.36.32.56.28.57-.1.27-.73.56-1.01.33-.49-.08-.55-.38-.68Z"/>
    <path class="cls-206" d="m69.15,54.36c-.2.24-.36.56-.15.67.41.22.88.3,1.31-.08.23-.2.14-.34-.03-.46-.36-.26-.75-.45-1.13-.13Z"/>
    <path class="cls-71" d="m71.77,50.64c-.15-.11-.31-.19-.5-.1-.01.11,0,.23-.03.34-.11.3-.44.61-.06.91.25.19.49.05.71-.17.38-.39.2-.68-.11-.97Z"/>
    <path class="cls-195" d="m70.24,48.94c.33.21.51-.01.69-.23.15-.18.31-.4,0-.57-.19-.1-.45-.25-.6.06-.11.23-.35.46-.09.74Z"/>
    <path class="cls-109" d="m61.92,53.82c-.15.11-.29.27-.47.33-.21.07-.52-.62-.66.04-.04.19.2.54.4.66.33.2.46-.11.57-.38.08-.18.21-.33.32-.49-.04-.07-.1-.12-.17-.16Z"/>
    <path class="cls-18" d="m67.44,55.17c-.47-.02-1.06-.09-1.1.52-.02.34.42.56.81.21.34-.14.7-.28.3-.73Z"/>
    <path class="cls-69" d="m73.71,48.37c-.64-.69-1.1-.78-1.61-.7-.02,0-.06.16-.03.21.36.51.89.24,1.64.49Z"/>
    <path class="cls-83" d="m60.37,50.5c.38.43.6.93.63,1.51.66-1.05-.36-1.41-.82-2-.06-.05-.12-.11-.19-.16-.1,0-.15.03-.17.1-.02.06-.02.1,0,.12l.54.44Z"/>
    <path class="cls-131" d="m72.75,50.18c.01.14.03.29.04.43.4.06.81.33,1.29-.09-.44-.25-.84-.45-1.32-.34Z"/>
    <path class="cls-84" d="m67.44,55.17c.11.33-.14.51-.3.73.13.16.17.59.42.4.35-.25.4-.71.24-1.14-.14-.2-.26-.18-.38.02h.01Z"/>
    <path class="cls-67" d="m67.43,55.17c.13,0,.25-.01.38-.02.22-.34.1-.58-.23-.76-.16-.08-.32-.05-.41.09-.21.33.1.48.26.68Z"/>
    <path class="cls-210" d="m63.9,52.67c.2.19.44.34.38.68.25,0,.7.15.61-.27-.09-.45-.59-.43-1-.41Z"/>
    <path class="cls-193" d="m58.91,54.32c-.39.5.17.79.26,1.19.36-.48.04-.91-.1-1.35-.06.05-.11.1-.16.16Z"/>
    <path class="cls-206" d="m74.43,51.85c-.13.14-.11.29-.02.42.14.18.35.19.53.1.24-.12.08-.22-.04-.34-.14-.14-.24-.32-.48-.18Z"/>
    <path class="cls-113" d="m59.82,50.06c.06-.07.11-.14.17-.22-.33-.11-.61-.04-.84.22.23.54.45.22.67,0Z"/>
    <path class="cls-209" d="m71.78,54.01c0,.08,0,.24.05.36.01.04.23.05.3,0,.15-.11.1-.28,0-.41-.07-.1-.19-.12-.36.04Z"/>
    <path class="cls-163" d="m72.54,56.33c0,.09-.06.21-.02.29.06.13.2.11.26.01.05-.08.07-.21.04-.3-.06-.17-.17-.06-.29,0Z"/>
    <path class="cls-233" d="m68.74,48.34c-.15-.03-.27-.08-.36-.06-.14.04-.13.17-.04.25.08.06.2.1.3.09.04,0,.06-.16.1-.29Z"/>
    <path class="cls-150" d="m74.55,49.81c-.13.15-.04.23.05.29.1.07.19.29.33.08.03-.05-.04-.22-.11-.28-.07-.06-.19-.06-.28-.09Z"/>
    <path class="cls-146" d="m38.03,43.18c1.16,1.13,1.2,1.12,1.78-.57-.74-.25-1.51-.64-1.78.57Z"/>
    <path class="cls-151" d="m20.58,37.12c-.36-.03-.76-.64-1.09-.03-.15.26-.63.66-.08,1,.36.22.81.47,1.15-.03.18-.27.48-.6.02-.94Z"/>
    <path class="cls-145" d="m25.59,37.32c-.09.35-.2.69-.26,1.04-.07.49.33.68.66.88.26.15.45,0,.56-.25.16-.36.16-.68-.18-.96-.28-.22-.54-.47-.8-.71,0,0,.02,0,.02,0Z"/>
    <path class="cls-145" d="m34.78,41.6c.41.21.77.35,1.12-.01.28-.3.39-.6.02-.9-.28-.23-.63-.47-.92-.11-.21.27-.47.64-.23,1.02Z"/>
    <path class="cls-164" d="m31.47,39.93c.4.22.8.37,1.17-.08.2-.24.3-.5.02-.73-.38-.31-.82-.36-1.2-.04-.29.24-.24.56.02.85Z"/>
    <path class="cls-151" d="m20.46,40.8c.25.17.52.46.79.07.24-.35.27-.74-.1-1.05-.26-.22-.57-.36-.82-.03-.27.35-.3.72.13,1.01Z"/>
    <path class="cls-183" d="m23.04,37.3c.23-.34.33-.68-.05-.94-.35-.24-.67-.1-.92.2-.22.26-.38.52-.04.8.36.3.71.28,1.01-.06Z"/>
    <path class="cls-204" d="m32.29,41.74c-.24.31-.27.63.03.85.26.19.64.47.91.05.18-.27.37-.68.02-.96-.31-.24-.67-.16-.96.07Z"/>
    <path class="cls-150" d="m28.92,40.04c-.22.25-.4.52-.07.8.3.26.66.33.92-.02.21-.28.39-.66.07-.95-.32-.29-.66-.13-.92.16Z"/>
    <path class="cls-145" d="m19.44,34.2c-.32.44-1.27.7-.41,1.47.42.02.71-.08.88-.55.2-.54-.15-.7-.47-.92Z"/>
    <path class="cls-134" d="m26.45,40.52c-.28.48-.41.81.01,1.06.35.21.68.19.93-.16.25-.36.01-.59-.25-.79-.26-.21-.54-.35-.69-.11Z"/>
    <path class="cls-151" d="m15.78,38.95c-.32-.35-.66-.58-1.09-.18-.27.26-.26.53.02.8.38.36.68.27.95-.13.04-.16.08-.33.12-.49Z"/>
    <path class="cls-148" d="m23.72,38.96c-.31-.09-.62-.32-.86.04-.21.31-.12.59.16.83.25.21.5.22.72-.04.23-.28.24-.56,0-.82Z"/>
    <path class="cls-185" d="m17.34,38.07c-.13.24-.13.47.08.65.24.19.45.09.62-.11.18-.21.2-.44-.06-.6-.22-.14-.45-.13-.64.07Z"/>
    <path class="cls-150" d="m26.14,49.36c.03.38-.05.8.44.98.42.16.69-.05.9-.35.3-.43.76-.51,1.21-.63,0-.19-.1-.33-.25-.43-.73-.12-1.39-.38-1.87-.99-.46-.27-.81-.77-1.42-.75-.02.53.46.68.75.96.39.36.6.72.23,1.2Z"/>
    <path class="cls-145" d="m25.15,47.2c.48.3.74.95,1.42.94.55-.48.95-.97.07-1.52-.45.05-.94-.64-1.37.05-.04.18-.09.35-.13.53Z"/>
    <path class="cls-183" d="m17.11,46.16c-.64.49-1.05,1-.23,1.69.43.02.88.03,1-.52.15-.65-.47-.81-.77-1.17Z"/>
    <path class="cls-186" d="m23.96,47.5c-.39-.14-.79-.44-1.1-.06-.22.27-.55.65-.21,1.04.3.34.68.38,1.02.02.27-.28.52-.59.29-1.01Z"/>
    <path class="cls-149" d="m22.01,45.97c.37.19.76.35,1.06-.07.24-.33.39-.73-.05-1.03-.29-.19-.65-.41-.92.02-.2.32-.43.68-.09,1.07Z"/>
    <path class="cls-183" d="m17.33,44.46c-.06-.35-.26-.61-.54-.81-.58.2-1.2.51-.9,1.2.18.42.77.5,1.15-.03.1-.12.19-.24.29-.36Z"/>
    <path class="cls-149" d="m19.56,45.94c-.2.32-.19.62.1.84.25.19.53.17.74-.06.24-.27.27-.58-.01-.83-.27-.23-.58-.2-.83.05Z"/>
    <path class="cls-32" d="m26.65,46.62c.62.54-.03,1.02-.07,1.52.28.88.95,1.01,1.75.9.64-.11.9-.68,1.31-1.07-.4-.23-.37-.64-.41-1.01-.58-.14-1.04-.5-1.56-.75-.23.4-.64.36-1.01.42Z"/>
    <path class="cls-183" d="m27.66,46.2c.28.75.78,1.04,1.56.75.43-1.11-.59-1.38-1.13-1.93-.4.3-.07.87-.43,1.18Z"/>
    <path class="cls-183" d="m29.63,47.97c-.85-.15-.83.77-1.31,1.07.12.11.24.22.36.32.5.32.99.48,1.39-.15.4-.62-.07-.91-.45-1.25Z"/>
    <path class="cls-186" d="m34.68,50.19c.42.25.64.82,1.24.79.45-.51,1.1-.99.23-1.67-.44.06-.89-.43-1.31.05-.05.28-.1.56-.15.84Z"/>
    <path class="cls-221" d="m35.22,47.79c.28-1.12-.12-1.58-1.25-1.45-.18.64-.38,1.28.43,1.67.28-.07.61.07.83-.22Z"/>
    <path class="cls-183" d="m32.28,47.43c-.28-.17-.61-.31-.81.05-.19.36-.43.82.07,1.16.31.21.6.1.83-.17.3-.36.3-.71-.09-1.03Z"/>
    <path class="cls-151" d="m32.38,50.32c-.15.3-.14.58.12.76.31.21.52-.04.69-.26.17-.21.24-.43-.07-.57-.26-.12-.53-.19-.74.07Z"/>
    <path class="cls-183" d="m13.31,36.71c.18.16.36.32.54.48.11.09.23.18.34.28.22-.12.44-.23.66-.35-.21-.37.72-.74.02-1.09-.77-.39-1.15.2-1.56.68Z"/>
    <path class="cls-205" d="m12.85,34.31c.44.19.84.41,1.24.03.22-.21.35-.48.06-.71-.34-.27-.74-.52-1.16-.16-.27.23-.29.53-.14.83Z"/>
    <path class="cls-145" d="m16.52,36.32c.44-.12.98-.08,1.11-.67.06-.26-.17-.42-.39-.52-.42-.21-.82-.26-1.11.23-.02.38-.04.76.38.97Z"/>
    <path class="cls-79" d="m36.14,49.3c.47.63-.27,1.1-.23,1.67.08.78,1.14.71,1.27,1.45.23-.3.56-.15.84-.21.2-.48.37-.96.41-1.48-.17-.8-.8-1.29-1.26-1.89-.34.15-.69.3-1.03.45Z"/>
    <path class="cls-25" d="m39.99,47.49c-.5.3-.46,1.24-1.32,1.11-.28.71-.36,1.4.13,2.06.18.19.4.33.65.4.68.1,1.17-.15,1.48-.77.21-.55.02-.99-.36-1.38-.56-.32-.21-1.02-.58-1.42Z"/>
    <path class="cls-224" d="m38.92,50.48c-.51-.57.16-1.3-.25-1.89-.54-.15-1.09-.35-1.5.26-.24,1,1.07,1.13,1.11,1.98.33.09.59.07.64-.35Z"/>
    <path class="cls-213" d="m39.99,47.49c-.06.52-.47,1.09.22,1.49.37.12.77.4,1-.19,0-.06,0-.12,0-.17.26-.95.02-1.48-1.08-1.29-.04.06-.09.12-.14.17Z"/>
    <path class="cls-77" d="m53.68,54.81c.17-1.13.68-.62,1.16-.24.23-.25.51-.33.83-.22.74-1.04.46-1.52-1.16-1.98-.64.23-1.03.82-1.61,1.13.87.25-.02,1.35.79,1.64,0-.11-.01-.22-.02-.32Z"/>
    <path class="cls-78" d="m58.62,52.81c-.18-.5-.25-1.06-1.04-.94-.88.13-.85.78-.92,1.4.69,0,1.47.37,1.97-.47Z"/>
    <path class="cls-225" d="m52.9,53.5c.99.27,1.14-.66,1.61-1.13-.11-.1-.22-.2-.34-.3-.41-.76-.9-.51-1.41-.11-.23.38-.44.77-.2,1.23.11.1.22.2.33.31Z"/>
    <path class="cls-35" d="m52.82,52.15c.43-.38.89-.42,1.36-.08.05-.06.11-.11.16-.17,0-.05,0-.1,0-.15-.22-.51-.78-.4-1.15-.66-.11-.02-.21,0-.3.07-.23.32-.5.63-.06.99Z"/>
    <path class="cls-35" d="m54.34,51.9c.63-.18,1.09-.47.8-1.25,0,0-.03,0-.03,0-.49.26-.73.68-.77,1.22v.02Z"/>
    <path class="cls-74" d="m44.18,51.85c.54-.81.94,0,1.33.17.5.22.15.58-.05.85-.16.22-.36.41-.55.61.47.35.48-.18.65-.36.36-.41.68-.87,1.33-.77,0-.56-.03-1.13-.19-1.66-.24-.79-.68-1.39-1.66-.94-.47.35-.27,1.15-.93,1.38-.09.25-.09.5.07.73Z"/>
    <path class="cls-183" d="m40.8,50.16c-.28.53-.78.67-1.32.74.03.35.25.49.57.53.08.01.15.02.23.03,1.16.11,1.15.09,2.24-.64.24-.16.58-.18.88-.27-.13-.12-.27-.25-.4-.37-.29-.1-.58-.23-.87-.33-.31-.12-.58-.35-.94-.26-.19.15-.34.32-.37.57Z"/>
    <path class="cls-140" d="m40.05,51.43c-.19-.18-.38-.36-.57-.53-.19-.14-.37-.28-.56-.42-.22.12-.43.23-.64.35-.15.45-.63.84-.25,1.39.23.09.47.17.7.26.64-.1.9-.67,1.32-1.05Z"/>
    <path class="cls-213" d="m13.63,44.67c-.44.88.38,1.14.8,1.59.15-.56.83-.94.55-1.65,0,0,0,0,0,0-.42.1-.71-1.03-1.21-.13-.04.07-.09.13-.14.19Z"/>
    <path class="cls-35" d="m13.77,44.48c.46-.47.79.27,1.21.13-.5-.44-1.12-.83-.79-1.67-.21.23-.42.47-.64.7-.07.12.02.24.03.36.06.16.12.32.19.48Z"/>
    <path class="cls-18" d="m13.58,44c0-.12-.02-.24-.03-.36-.36-.31-.71-.62-1.07-.94-.45.14-.17.31,0,.44.36.29.73.57,1.1.85Z"/>
    <path class="cls-164" d="m43.17,44.24c-.06-.06-.12-.12-.18-.18-.36-.34-.92-.55-.78-1.22.11-.51.47-1.06-.37-1.36-.77-.28-.95.36-1.33.71.08.88,1.37.7,1.4,1.61.53-.18.73.58,1.25.43Z"/>
    <path class="cls-183" d="m6.94,41c.17-.07.33-.14.5-.21-.37-.31-.29-.69-.17-1.08.12-.38.26-.76-.14-1.08-.46,0-.93-.65-1.4.1-.26.42-.26.68.11.97.68.17.94.69,1.1,1.29Z"/>
    <path class="cls-225" d="m45.04,49.75c1.07,0,1.6.53,1.44,1.6-.07.46.09.74.41,1l.09.06.08.07c.54.31,1.07.55,1.26-.36.22-.68,0-1.14-.69-1.37-.14-.28-.47-.65-.39-.81.62-1.26-.59-1.53-1.11-2.16-.11.13-.22.26-.33.39-.38.44-.81.8-1.32,1.08.18.17.37.34.55.51Z"/>
    <path class="cls-145" d="m47.63,50.75c.59.31.53.82.43,1.35.71-.29,1.34-.09,1.93.31.17.04.34.03.51-.05.4-.63.88-1.2,1.37-1.76.1-.37.56-.7.11-1.12-.44.75-1.07.85-1.82.53-.28-.12-.57-.36-.86-.01-.24.94-.77,1.26-1.67.75Z"/>
    <path class="cls-25" d="m41.3,49.66c.27.17.45.51.84.46.67,0,.94-.48,1.19-.98,0-.11-.02-.21-.03-.32-.26-.45-.62-.78-1.1-.97,0,0,0,0,0,0-.42.14-.72.42-.99.75,0,0,0,0,0,0,.03.35-.53.75.08,1.06Z"/>
    <path class="cls-19" d="m44.48,49.23c.88.19,1.22-.31,1.32-1.08-.18-.66-.78-.62-1.26-.77-.79.59-.46,1.22-.06,1.85Z"/>
    <path class="cls-33" d="m43.33,49.15c-.35.39-.68.78-1.19.98.27.16.55.24.85.06-.08-.41.46-.61.33-1.04Z"/>
    <path class="cls-33" d="m42.19,47.86c.37.32.73.65,1.1.97-.13-.59-.51-.9-1.1-.97Z"/>
    <path class="cls-9" d="m50.12,52.32c-.63-.59-1.24-1.36-2.06-.22-.06.86-.64.32-1,.38.25.33.5.67.75,1,.2.03.29-.22.49-.18l.09.07s.08.08.08.08c.48.28.96.48,1.4-.07.52-.25.48-.63.25-1.06Z"/>
    <path class="cls-240" d="m48.29,53.29c-.22-.08-.35.06-.49.18-.14.2-.39.36-.27.67.25-.29.51-.57.76-.86Z"/>
    <path class="cls-35" d="m8.04,36.51c-1.3-.28-.15-1.01-.28-1.5-.42.76-1.06.89-1.83.62,1.2.45.52,1.19.29,1.86.14.51.54.8.91,1.12.34-.15.76-.08,1.02-.41.32-.59.54-1.17-.12-1.69Z"/>
    <path class="cls-36" d="m55.59,43.99c-.44-.1-.58.48-1,.43-.34.28-.17.69-.26,1.03.52.41,1.05.71,1.69.23.39-.7.1-1.23-.43-1.7Z"/>
    <path class="cls-213" d="m51.98,49.48c.15.42-.45.66-.26,1.08.24.75.83.58,1.38.53h0c.65-.16,1-.49.73-1.2-.24-.37-.69-.39-1.01-.63-.24.01-.48.03-.72.04-.04.06-.08.11-.11.17Z"/>
    <path class="cls-186" d="m49.02,45.88c.55-.51,1.12-.62,1.73-.09.21-.04.36.05.5.19.1-.41.3-.77.62-1.06.06-.23-.06-.4-.21-.55-.25-.43-.58-.77-1.07-.92h.01c-.59.54-.92,1.31-1.61,1.77,0,.22.02.44.03.66Z"/>
    <path class="cls-183" d="m48.35,42.75c-.57-.01-1.19-.94-1.72.08-.61.63.07.76.4,1.03.25.2.5.4.74.6.49-.12.52-.47.43-.87.05-.28.1-.55.15-.83Z"/>
    <path class="cls-58" d="m50.59,43.45c.36.31.72.62,1.07.93.11-.1.23-.2.35-.3-.54-.13-.94-.43-1.1-.99-.11.12-.21.24-.32.37Z"/>
    <path class="cls-58" d="m48.2,43.58c-.14.29-.29.58-.43.87.02.13.04.25.06.38.46-.1.82.11,1.16.39,1.16-.03,1.3-.97,1.61-1.77-.82-.34-1.66-.98-2.4.13Z"/>
    <path class="cls-36" d="m53.1,51.1c-.4-.34-1.03-.07-1.38-.53-.65.41-1.25.85-1.23,1.74.19.57.8.8,1.08,1.3.05.05.11.1.16.15.25-.23.4-.61.84-.56.08-.35.17-.69.25-1.04-.07-.39.07-.73.28-1.05Z"/>
    <path class="cls-36" d="m53.83,49.89c-.05.52-.41.85-.73,1.2.17.65.97.29,1.24.78.34-.36.69-.7.77-1.22-.42-.27-.64-.86-1.28-.76Z"/>
    <path class="cls-223" d="m51.57,53.6c.22-.92-.62-.95-1.08-1.3-.13,0-.25.01-.38.02-.08.35-.17.7-.25,1.06.35.32.71.64,1.06.96.51.02.36-.55.65-.73Z"/>
    <path class="cls-33" d="m41.3,49.66c-.23-.34.03-.71-.08-1.06-.23.42-.62.39-1,.37.39.3.66.66.59,1.18.16-.17.33-.33.49-.5Z"/>
  </g>
</svg>