<?xml version="1.0" encoding="UTF-8" standalone="no"?>
<!-- Created with Inkscape (http://www.inkscape.org/) -->

<svg
   version="1.1"
   id="svg1"
   width="118.98077"
   height="73.218628"
   viewBox="0 0 118.98077 73.218628"
   sodipodi:docname="89.eps"
   xmlns:inkscape="http://www.inkscape.org/namespaces/inkscape"
   xmlns:sodipodi="http://sodipodi.sourceforge.net/DTD/sodipodi-0.dtd"
   xmlns="http://www.w3.org/2000/svg"
   xmlns:svg="http://www.w3.org/2000/svg">
  <defs
     id="defs1" />
  <sodipodi:namedview
     id="namedview1"
     pagecolor="#ffffff"
     bordercolor="#999999"
     borderopacity="1"
     inkscape:showpageshadow="2"
     inkscape:pageopacity="0"
     inkscape:pagecheckerboard="0"
     inkscape:deskcolor="#d1d1d1" />
  <g
     id="g1"
     inkscape:groupmode="layer"
     inkscape:label="1"
     transform="translate(-578.61054,-495.94623)">
    <g
       id="g96"
       transform="translate(363.38009,-64.600905)"
       inkscape:export-filename="../../Desktop/portfolio-next-v2/public/images/logo.png"
       inkscape:export-xdpi="96"
       inkscape:export-ydpi="96">
      <path
         id="path13-5"
         d="m 269.71328,632.61594 c 0.46111,0.062 1.01485,-0.46022 0.51235,-0.57527 -0.0946,0.2602 -0.4887,0.24958 -0.51235,0.57527 z m 0.76656,-2.06921 c -0.42959,0.0743 -0.65226,0.32923 -1.28088,0.23012 -0.43747,0.71687 -1.37348,0.98415 -1.91932,1.61075 1.49762,-0.22834 2.27206,-1.10452 3.2002,-1.84087 z m 3.2002,0.45845 c 0.49265,-0.0938 1.14095,-0.0495 1.15278,-0.57528 -0.37637,0.0319 -0.39609,-0.25842 -0.76852,-0.2301 0.0492,0.42836 -0.52023,0.30268 -0.38426,0.80538 z m -0.89464,-6.32268 c -1.42867,1.36472 -3.25538,2.36658 -4.48107,3.90831 1.82671,-0.38765 2.678,-1.65502 4.35298,-2.18426 0.0828,-0.61598 0.41382,-1.00541 0.51039,-1.60723 -0.16553,-0.007 -0.17735,-0.14868 -0.3823,-0.11682 z m -2.05136,-0.45844 c 1.47201,-0.60183 4.08695,-1.3842 3.33026,-3.22153 -0.95967,1.21073 -2.32331,2.05681 -3.33026,3.22153 z m 0.13006,-2.75954 c 1.65724,-0.46553 2.43759,-1.71696 4.09484,-2.18426 -0.15961,-0.74166 0.51234,-1.62139 0,-1.95593 -1.22963,0.98593 -3.36179,2.71351 -4.09484,4.14019 z m 0.77048,-3.90831 c 1.76564,-0.1363 2.08291,-1.57713 3.8367,-1.72582 0.1478,-0.61421 0.69562,-2.03204 0.12607,-2.52765 -1.34196,1.40013 -2.7588,2.73299 -3.96282,4.25347 z m 2.30164,-5.17214 c 1.11731,-0.14868 1.43654,-1.00893 2.55977,-1.15054 0,-0.30622 0,-0.61421 0,-0.92043 -1.10353,-0.35755 -1.93511,1.25851 -2.55977,2.07097 z m -2.43169,-2.5312 c 0.0709,-0.15221 0.58329,-0.78944 0,-0.80537 -0.20888,0.13629 -0.46505,0.72926 0,0.80537 z m 1.91934,-0.45844 c 0.57738,-0.36464 1.41093,-0.49385 1.66315,-1.15055 -0.12813,-0.30621 -0.20887,-0.65315 -0.64043,-0.69032 -0.25815,0.61598 -1.18825,1.2302 -1.02272,1.84087 z m -3.19824,-1.72581 c -0.0729,-0.20003 0.15371,-0.6744 -0.13006,-0.68857 -0.24829,0.16993 -0.39017,0.65847 0.13006,0.68857 z m 1.91736,-0.92044 c 0.71926,-0.1204 1.15476,-0.49208 1.41093,-1.03372 -0.33302,-0.009 -0.13789,-0.49385 -0.64043,-0.34516 -0.19115,0.5204 -0.65226,0.79476 -0.7705,1.37888 z m -3.83866,-2.06744 c 0.15765,0.27967 0.1104,0.7452 0.51235,0.80715 0.34288,-0.51155 0.86311,-1.37357 0.63846,-1.72582 -0.3882,0.30092 -0.71531,0.6567 -1.15081,0.91867 z m 2.68786,-0.11324 c 0.64634,0.004 0.83551,-0.40181 1.28086,-0.57705 -0.0237,-0.4018 -0.29755,-0.57703 -0.63847,-0.69209 -0.29164,0.35578 -0.57145,0.71511 -0.64239,1.26914 z m -4.22096,-1.84264 c -0.0256,0.29029 0.19509,0.36286 0.38228,0.46198 0.10833,-0.13275 0.16751,-0.30975 0.12607,-0.57526 -0.24042,-0.0248 -0.2818,0.12744 -0.50841,0.11324 z m 2.55977,-0.80184 c 0.41578,-0.0478 0.82566,-0.10262 0.89463,-0.46023 -0.30937,-0.58588 -0.71335,0.22481 -0.89463,0.46023 z m -3.71453,-0.69209 c 0.19115,0.0992 0.27391,0.29028 0.25814,0.5735 0.58921,-0.15754 0.48476,-0.93991 0.76458,-1.37889 -0.46504,0.15754 -0.72911,0.49561 -1.02272,0.80539 z m 14.84627,1.03548 c -0.007,-0.71687 0.95572,-1.71874 0.38427,-2.18249 -0.42368,0.42835 -1.45823,1.81609 -0.38427,2.18249 z m -1.53507,-2.52943 c 0.47293,0.0425 0.536,-0.28675 0.64043,-0.57703 -0.35471,0.0673 -0.71925,0.12386 -0.64043,0.57703 z m -13.82354,0.1151 c 0.22857,-0.60005 0.40001,-1.2479 0.89463,-1.60723 -0.0768,-0.007 -0.14976,-0.0177 -0.12415,-0.11855 -0.0847,0 -0.17143,0 -0.25814,0 -0.065,0.64077 -1.8681,1.2178 -0.51234,1.72582 z m 1.27889,-4.02513 c 0.41777,0.0319 0.61678,-0.1363 0.64241,-0.45845 -0.17342,-0.0372 -0.24632,-0.16285 -0.51039,-0.1151 0.10243,0.32569 -0.18326,0.29738 -0.13197,0.57351 z m -3.45244,0.57704 c 0.34879,0.29914 0.26603,0.98415 0.76458,1.14877 0.0808,-0.96646 1.05623,-1.12222 1.02667,-2.18426 -0.55175,-0.0708 -1.27102,0.69564 -1.79125,1.03549 z m 16.12518,-1.72405 c 0.65225,-0.48499 1.84051,-1.10275 1.9213,-1.72581 -0.65226,0.56464 -2.03166,0.47791 -1.9213,1.72581 z m -15.3606,-0.69209 c 0.70349,-0.44606 1.84249,-0.49385 1.92131,-1.49217 -0.86113,-0.13806 -1.41683,0.93282 -1.92131,1.49217 z m -2.42971,-0.11324 c 0.14587,0.28675 0.061,0.78769 0.51039,0.80539 0.36652,-0.86026 1.41682,-1.7152 1.40895,-2.52943 -0.32318,0.86026 -1.65725,0.80715 -1.91934,1.72404 z m -1.02469,-1.26559 c 1.20007,-0.65316 3.25538,-1.51696 4.35298,-2.64448 -1.70848,-0.2372 -3.11744,1.70103 -4.35298,2.64448 z m 19.07117,-0.69033 c 0.10641,0.36817 0.10833,0.23896 -0.12814,0.46022 1.09565,-1.08328 4.10667,-1.06204 4.09485,-2.75777 -1.69271,0.43367 -2.22084,1.91345 -3.96676,2.29755 z m 5.88411,-3.90831 c 0,0.11683 0,0.23011 0,0.34693 -1.2119,4.1101 -1.69468,9.12647 -2.94205,12.87371 -0.37047,1.11336 -0.66802,2.27453 -1.40698,3.10469 -1.44641,-0.71157 -1.68682,-2.41968 -2.30557,-3.67819 -1.90948,-3.90655 -3.82882,-8.19719 -6.01221,-11.83999 -2.61888,-0.15399 -5.17472,-0.4195 -7.16893,-0.34693 3.68694,4.78095 6.67037,10.79386 9.59864,16.78555 0.77837,1.58952 2.93023,3.62332 3.07211,4.9438 0.061,0.55934 -0.3409,1.41073 -0.51234,2.18426 -0.18524,0.84077 -0.36259,1.72758 -0.51038,2.52765 -0.96952,5.21462 -2.4238,9.92477 -3.97069,13.91096 1.36166,0.78237 4.1382,0.86379 6.1462,0.68855 1.21781,-2.21257 2.01787,-4.75085 2.94206,-7.35639 1.31831,-3.71891 2.12625,-7.58297 3.32829,-11.26825 1.26116,-3.86759 2.74303,-7.3086 3.96479,-10.80272 1.37152,-3.91539 2.76668,-7.72634 3.71452,-11.84352 -2.91644,-0.33986 -5.24763,0.20356 -7.93746,-0.23011 z m 9.34445,-0.5735 c 0.42959,1.8922 -0.71137,3.67997 -1.2789,5.40402 -3.549,10.71068 -7.39949,21.36471 -10.75143,32.417 -0.22661,0.74521 -0.63846,1.65678 -1.02272,2.52766 -0.35274,0.79831 -0.79612,2.05328 -1.15082,2.41437 -0.55963,0.56996 -1.97648,1.09567 -3.07409,1.72405 -1.90357,1.09921 -2.71149,1.89397 -6.01417,1.8391 -2.31936,-0.0354 -6.03389,-0.52395 -6.39844,-1.60723 -0.42959,-1.26559 1.0779,-2.8622 1.66512,-4.25169 0.2621,-0.63722 0.31727,-1.30809 0.51039,-1.84087 1.08776,-3.03567 2.59917,-6.44659 3.45441,-9.88583 0.1438,-0.58413 0.0847,-1.2479 0.2542,-1.8391 0.18523,-0.64077 0.51628,-1.09921 0.51432,-1.61076 -0.004,-1.58421 -1.91736,-3.78971 -2.81398,-5.28719 -1.11336,-1.85857 -2.20703,-3.25692 -3.33025,-4.82874 -1.66317,-2.33827 -2.81201,-4.80928 -4.60917,-7.59006 -0.36258,-0.55933 -1.52917,-1.86564 -1.5331,-2.41259 -10e-4,-1.36118 2.59721,-2.29932 3.71255,-3.33304 0.55571,-0.51863 0.72123,-1.05496 1.2789,-1.61076 3.3342,0.4372 6.82211,-0.56288 9.08433,0.46199 1.1114,0.50092 2.02573,2.64271 2.55977,3.6782 0.74093,1.43021 1.04439,2.97902 2.04938,4.02159 0.12223,-1.75591 0.10833,-2.95424 0.38426,-4.48358 0.78626,-0.79831 2.0691,-1.30631 3.45639,-2.06744 1.38334,-0.75936 2.15186,-2.02319 3.96675,-2.18426 2.81989,-0.25135 5.84472,0.14868 9.0863,0.34516"
         style="fill:#312930;fill-opacity:1;fill-rule:evenodd;stroke:none;stroke-width:0.186762" />
      <path
         id="path18-7"
         d="m 332.9158,614.61658 c -2.24142,0.008 -5.05456,0.63079 -6.32954,-0.39784 -0.30172,-1.92977 0.71009,-4.00902 -1.20465,-4.41124 -1.64023,0.3231 -1.368,1.99133 -2.27365,2.93424 -3.33672,3.47932 -11.58441,4.10133 -15.68748,1.70559 -6.76603,-3.94527 -5.07519,-15.6888 -5.11943,-23.73321 2.88004,-0.19343 4.84469,0.58685 7.78691,0.3231 -0.38998,5.52997 -1.77954,14.49972 2.33942,17.05371 4.59494,2.8507 8.30985,1.91879 10.57237,-1.45503 2.48395,-3.7079 3.27118,-10.25553 2.87415,-15.42725 2.37075,-0.0659 3.93839,0.72971 6.57003,0.38464 0.0318,8.16091 0.68512,14.99426 0.47187,23.02329 z m -9.00882,-0.50334 c -0.2314,-1.02203 0.73278,-1.00004 0.88706,-1.6858 0.72143,0.57586 -0.14072,1.65064 -0.88706,1.6858 z m -13.44856,2.77379 c 1.19537,-0.67037 3.38869,0.66598 0,0 z m -9.85546,-7.51251 c -0.42877,-0.17584 1.57738,-2.25068 1.44286,-0.30771 -0.60096,-0.002 -1.16994,0.0242 -1.44286,0.30771 z m 0.40155,3.03534 c -0.68696,-0.0115 -1.0547,-0.35826 -1.02974,-1.12535 0.50953,-0.37364 1.27612,-0.5187 1.64726,-1.02203 1.07512,0.18902 -0.86299,1.23743 -0.61752,2.14738 z m -0.0754,-10.81381 c 0.67174,0.60444 -0.44149,1.54735 -1.13001,1.70339 0.36071,-0.57804 0.81807,-1.07917 1.13001,-1.70339 z m -2.59217,6.23991 c -1.68107,-1.3627 -2.19764,-4.67718 0.20554,-5.41568 0.24638,0.5231 -0.97211,1.67701 -1.0785,2.63532 0.25272,0.73629 1.01476,0.74948 1.72098,0.38682 0.0204,1.06381 -1.01635,1.20007 -0.84802,2.39354 z m 0.087,1.64186 c -0.0153,-0.3143 -0.0339,-0.62641 -0.0516,-0.93632 0.92607,-0.23078 0.99255,1.07699 0.0516,0.93632 z m 2.48757,-17.52407 c -0.60096,1.41767 -2.26864,1.89242 -3.74872,2.5364 -0.0219,-0.39123 -0.0415,-0.78026 -0.0619,-1.17148 1.46827,-0.18025 2.53612,-1.74297 3.81065,-1.36492 z m -3.28953,6.74323 c 0.36956,-1.01323 2.05766,-2.81993 3.44721,-3.69031 0.055,2.28584 -2.4708,2.31002 -3.44721,3.69031 z m 1.53654,1.57592 c 0.47846,-0.84839 1.42495,-1.29239 1.82832,-2.20671 0.64951,0.95389 -0.97053,1.83086 -1.82832,2.20671 z m 22.76887,-5.58054 c 0.69851,0.30991 -0.988,2.21551 -1.80063,2.67708 -0.4104,-1.77592 1.22915,-1.75835 1.80063,-2.67708 z m 2.50367,-3.17601 c -0.86208,1.47922 -3.01139,1.83748 -4.20948,3.02655 -0.20826,-1.53195 2.63368,-2.3188 4.20948,-3.02655 z m -0.33349,7.53891 c -0.75092,-0.13402 -0.86912,0.28132 -1.44172,0.30331 0.35549,-0.72972 1.16041,-1.06819 1.35552,-1.94738 0.66471,0.24838 0.0613,1.22426 0.0863,1.64407 z m 0.51725,-4.02442 c -0.86207,-0.0857 -0.55354,0.86378 -1.41564,0.77368 0.363,-0.57587 0.81672,-1.07479 1.12527,-1.69681 0.33349,0.0572 0.2314,0.57366 0.29037,0.92313 z m 8.98159,-4.67059 c -2.95378,-0.0374 -5.69658,-0.3165 -8.54827,-0.99126 -1.56311,1.08576 -4.27278,2.07483 -6.13375,3.35403 -0.84189,4.42442 2.78092,17.23176 -4.57269,14.80084 -5.29503,-1.74735 -2.59217,-12.69743 -2.86689,-17.72848 -2.68519,0.0902 -6.52238,-0.10765 -9.4866,-0.47695 -1.814,0.64839 -4.36623,2.58917 -6.35403,3.83539 -2.39888,11.58087 2.59647,23.45408 12.23392,25.26956 4.86513,0.91654 10.74047,-1.21106 14.90119,-2.84411 0.12403,0.86158 -0.0973,2.08802 0.37659,2.56937 2.61688,0.41321 5.3143,0.0681 8.02762,0.31431 1.34984,-0.86819 2.13026,-1.7957 3.03771,-2.26386 -0.24727,-8.5016 -0.50136,-18.19665 -0.6148,-25.83884"
         style="fill:#312930;fill-opacity:1;fill-rule:evenodd;stroke:none;stroke-width:0.2233" />
      <path
         id="path89-4"
         d="m 246.21891,580.56315 c 0.8633,-1.16534 1.55765,-2.50059 3.2564,-2.83486 0.0613,0.73688 -0.0334,1.31863 -0.20423,1.82281 -1.30886,-0.59468 -1.81384,0.91232 -3.05217,1.01205 z m 2.44138,-5.46657 c 0.48826,2.06105 -1.96052,2.88842 -3.66484,3.44062 0.83545,-1.53102 1.87698,-2.85703 3.66484,-3.44062 z m -1.01925,-1.41835 c -1.20304,1.16349 -2.23715,2.50058 -4.27379,2.83485 0.78719,-1.38326 3.02619,-4.46929 4.27379,-2.83485 z m -2.239,-1.82465 c -0.18566,1.23366 -1.34044,1.50144 -2.24087,2.02594 0.31377,-1.01574 0.9617,-2.62985 2.24087,-2.02594 z m -5.49725,1.82465 c -0.14296,-1.01576 1.38313,-3.02139 2.85166,-2.43042 -0.45857,1.30016 -1.34228,2.1737 -2.85166,2.43042 z m 2.24085,9.92294 c -1.78043,0.63345 -4.18466,0.31026 -5.90383,-0.20316 -0.65722,-2.18109 -1.10279,-4.57457 -1.0174,-7.49252 4.51329,-1.46638 9.02656,3.19683 6.92123,7.69568 z m -6.92123,-10.1261 c 0.23579,0.0332 0.36018,-0.0443 0.40659,-0.20315 0.45301,0.0849 0.15967,1.07484 0,1.21521 -0.44743,-0.0314 -0.43814,-0.50972 -0.40659,-1.01206 z m 0.20238,-2.63355 c 0.49013,0.0831 0.44185,-0.36937 1.01738,-0.2013 0.039,0.71102 -0.68692,0.66485 -0.81317,1.21336 -0.44371,0.037 -0.0929,-0.71842 -0.20421,-1.01206 z m 3.86719,-0.2013 c 0.33233,0.47648 -0.42329,1.22628 -1.21976,1.21336 -0.10958,-0.91603 0.29891,-1.32233 1.21976,-1.21336 z m 11.40294,7.28937 c -0.0575,-7.00681 -9.27348,-9.91554 -16.08517,-7.89882 -0.6795,4.06483 -0.78902,10.85742 0.61266,14.17799 7.62301,1.90223 15.5245,-0.0277 15.47251,-6.27917 z m 2.64745,33.21683 c -1.08051,-0.40446 -1.9234,-2.29929 -2.85167,-3.64746 -0.98025,-1.42389 -2.1833,-2.52275 -2.85166,-3.64561 -2.99277,-5.04181 -4.19582,-9.33012 -11.80767,-9.71979 -0.66279,5.25603 1.60034,10.41418 0.6108,15.99896 -3.08002,0.85876 -6.97506,0.25671 -10.38184,0.40445 -0.94127,-16.15041 -1.03224,-32.1623 0.20423,-48.80765 6.97692,0.91787 14.4811,-0.42661 21.83119,0.74612 4.47429,0.71102 9.08781,4.21628 10.742,8.56923 3.70197,9.73825 -1.1789,18.55126 -11.4382,18.6713 0.48641,2.18847 14.54422,18.64546 15.10304,21.63176 -3.23783,-0.0406 -6.79498,0.68147 -9.16022,-0.20131 z m 1.42211,4.85897 c 1.17705,-1.35187 2.34855,-4.32523 4.68593,-3.24116 -1.18818,1.45529 -2.41536,2.86441 -4.68593,3.24116 z m -2.03292,1.21521 c -0.40844,0 -0.81689,0 -1.22347,0 0.22835,-0.65008 0.78904,-0.96957 1.6282,-1.0139 0.0334,0.50418 -0.31933,0.62976 -0.40473,1.0139 z m 3.25453,-4.86082 c -1.11764,1.72493 -2.8628,2.82194 -5.08695,3.44247 1.41655,-1.4239 2.08862,-3.58837 5.08695,-3.44247 z m -9.15837,1.0139 c -0.0798,-1.56609 2.52306,-2.21248 3.2564,-3.64562 0.65165,-0.17729 0.63679,0.31212 0.81502,0.60761 -1.14178,1.22998 -2.75883,1.98164 -4.07142,3.03801 z m 2.23715,4.05006 c -0.40658,0 -0.81317,0 -1.22162,0 0.22651,-0.85877 0.99512,-1.17087 1.42583,-1.8228 0.8893,0.0997 -0.18379,1.32048 -0.20421,1.8228 z m -2.84796,-6.68362 c 0.70178,-1.073 2.45809,-3.59205 3.66113,-2.2291 -1.16592,0.79782 -2.0515,1.87267 -3.66113,2.2291 z m -1.42768,-1.41835 c 0.69064,-1.47192 1.68946,-2.64095 3.46247,-3.03801 -0.47899,1.6843 -2.15175,2.18294 -3.46247,3.03801 z m 2.239,-4.65768 c -1.02296,1.14134 -1.99951,2.33069 -3.66298,2.83487 0.0464,-1.10255 2.25386,-3.75273 3.66298,-2.83487 z m -1.42398,-2.4304 c -0.3156,1.32785 -2.25384,2.73698 -4.07142,3.23931 0.89858,-1.40173 2.62331,-3.05647 4.07142,-3.23931 z m -1.01738,-1.8228 c -1.27175,1.24844 -2.78483,3.28732 -4.68408,3.24116 0.84844,-1.5144 3.22483,-4.31047 4.68408,-3.24116 z m -1.83242,-2.22726 c -0.39544,1.31308 -2.17403,2.9512 -3.86906,3.64375 0.61267,-1.7674 2.15361,-3.64191 3.86906,-3.64375 z m -1.83428,-1.41652 c -0.40844,1.00836 -1.38684,1.45344 -2.44136,1.82097 0.19679,-1.12841 1.11021,-2.48028 2.44136,-1.82097 z m -3.25638,0.80891 c -1.32001,-0.44694 -0.32676,-3.01585 0.81502,-1.61965 -0.0149,0.79412 -0.50499,1.11731 -0.81502,1.61965 z m -5.49725,14.98691 c 0.026,-0.5171 0.29704,-0.78674 0.81502,-0.81075 0.14109,0.67962 -0.3416,0.74057 -0.81502,0.81075 z m -1.83242,3.03801 c 0.92085,-1.11178 1.82313,-2.23649 3.46061,-2.63356 -0.79089,1.12471 -2.11647,2.72036 -3.46061,2.63356 z m -5.29304,-0.81075 c 0.42887,-1.20044 2.05892,-3.79151 4.47987,-3.03801 -1.22904,1.27615 -3.19513,1.81727 -4.47987,3.03801 z m 0.40659,1.2152 c 0.74076,-1.42574 2.265,-2.06843 3.86906,-2.63171 -1.01368,1.15241 -1.49452,2.83117 -3.86906,2.63171 z m -0.81317,-20.25218 c -2.2947,0.9585 -3.75765,2.74252 -5.49725,4.25137 0.64423,-2.4655 3.26196,-4.72046 5.49725,-6.27547 0.52726,0.58174 -0.0929,1.25398 0,2.0241 z m 0.20422,10.1261 c -2.31512,0.60021 -3.33437,2.4895 -5.4991,3.24116 1.07865,-2.50614 3.27124,-3.90417 4.88829,-5.87473 0.90415,0.18099 0.51798,1.64367 0.61081,2.63357 z m -1.83427,5.26711 c 0.001,0.74242 -0.71291,0.77566 -1.01554,1.21336 -0.44742,-0.39152 0.47342,-1.1358 1.01554,-1.21336 z m -2.44322,5.26342 c 0.74818,-1.14687 2.09047,-1.70092 3.05402,-2.63355 0.0464,1.13025 -1.38498,2.53752 -3.05402,2.63355 z m -3.2564,-3.03616 c 0.71849,-1.98533 2.4191,-2.99369 3.86906,-4.25321 0.92828,0.35089 -0.72963,1.36109 -1.22161,1.61965 -0.64608,1.11363 -1.23833,2.27897 -2.64745,2.63356 z m 4.27379,-9.31718 c -0.57554,1.92622 -2.68087,4.07961 -4.27379,5.67156 -0.57181,-3.08049 2.87024,-3.88569 4.27379,-5.67156 z m 3.05588,-3.44247 c -1.96052,1.22259 -3.45504,2.90873 -5.49725,4.05006 1.14735,-2.63725 3.12272,-4.45266 5.09066,-6.27732 0.85773,0.024 0.20051,1.55318 0.40659,2.22726 z m -3.05588,-1.41836 c -0.90415,1.5384 -2.80525,4.89037 -4.478,5.67158 0.12991,-3.2467 2.90736,-3.85985 4.478,-5.67158 z m -4.68223,-5.46656 c 2.07006,-1.04715 3.11716,-3.11374 5.29489,-4.05193 -1.82499,1.96502 -3.22854,4.34925 -5.29489,6.07603 0,-0.67593 0,-1.35003 0,-2.0241 z m 4.68223,-8.70959 c 0.36573,-0.0572 0.41958,0.19206 0.20421,0.20314 -0.60152,1.31494 -2.07748,2.2679 -3.05217,3.44062 -0.56624,0.68148 -0.81687,2.27158 -2.03663,1.82466 1.18262,-2.26604 2.95192,-3.95034 4.88459,-5.46842 z m -4.68223,-5.87287 c 2.51934,-1.20598 3.82264,-3.62531 6.10806,-5.06397 -1.1622,2.35469 -4.08999,4.70568 -6.10806,6.88492 -0.51983,-0.54111 0.12254,-1.06745 0,-1.82095 z m 6.31228,-14.38116 c -1.66903,2.45811 -3.86534,4.39173 -5.90384,6.48232 -0.54768,-3.86169 3.03918,-5.34099 5.90384,-6.48232 z m -5.90384,10.53239 c -0.12434,-1.96502 2.55834,-2.84041 3.66298,-4.25321 -0.53468,1.29277 -2.31697,3.09341 -3.66298,4.25321 z m 6.51279,-5.46842 c 0.27292,0 0.54396,0 0.81688,0 0,0.67409 0,1.35002 0,2.02412 -2.2984,1.15979 -3.73167,3.17466 -6.10805,4.25505 1.04338,-2.80901 3.73352,-3.97989 5.29117,-6.27917 z m -5.08696,11.54445 c 0.34347,-2.76284 3.80594,-4.1775 5.49725,-6.27733 0.32861,-0.0572 0.34904,0.19022 0.61081,0.2013 -0.72777,3.32611 -4.20509,3.91894 -6.10806,6.07603 z m -1.83427,5.26526 c -0.14852,-3.48124 3.43463,-4.93653 5.49911,-6.88493 -0.78161,2.53014 -3.62585,4.76294 -5.49911,6.88493 z m 3.46248,-1.8228 c 0.6535,-1.58087 2.40794,-3.81553 4.27563,-4.86082 0.2525,3.28733 -2.98904,3.1045 -4.27563,4.86082 z m -1.83242,6.27917 c 0.89672,-2.22172 3.62398,-5.43333 6.10805,-6.07602 -0.0557,2.89026 -4.73049,4.21628 -6.10805,6.07602 z m 3.05217,3.44247 c -0.0706,0.13297 -0.15595,0.2604 -0.24321,0.38598 -0.98211,1.52732 -2.83867,4.14979 -4.23479,4.87929 0.1838,-2.09983 2.96676,-3.11373 4.23479,-4.87929 0.0873,-0.13671 0.17266,-0.26963 0.24321,-0.38598 z m -2.84796,1.01205 c 0.86887,-1.95762 4.12341,-5.61062 5.90384,-5.87288 0,0.40445 0,0.81076 0,1.21522 -2.23529,1.28538 -3.68711,3.35381 -5.90384,4.65766 z m 6.10806,-29.77067 c -0.15966,2.67604 -2.97604,2.70744 -4.47985,4.05007 1.25687,-1.58641 2.3671,-3.31688 4.47985,-4.05007 z m 37.05307,41.71957 c -2.32441,-3.36675 -3.64442,-5.94674 -5.9057,-8.70958 -2.14989,-2.62618 -4.05656,-5.02703 -5.69961,-7.49069 3.5683,-1.22074 7.01591,-2.21618 8.75365,-4.86267 4.61167,-7.01235 1.19561,-18.05631 -4.06772,-22.47944 -6.71514,-5.63832 -19.8094,-2.37315 -30.33791,-3.24116 -2.12018,2.40825 -7.37423,3.10265 -8.55128,6.48232 -0.51612,1.483 -0.50126,3.82845 -0.61081,5.46658 -0.73147,11.1086 0.37317,24.56819 0.81504,35.64539 0.12072,3.06202 -0.68507,6.36043 1.22161,8.70774 4.6618,0.59283 9.68935,-0.19022 13.64193,0 2.3634,-1.83205 4.42046,-3.97066 6.92123,-5.66972 0.0167,-1.5107 -0.73147,-4.16458 0.20236,-5.26528 3.00577,3.42215 5.47312,7.38357 6.92309,12.35335 1.53722,0.50049 3.10786,-0.0924 4.88645,-0.20315 2.51005,-0.15328 5.48796,0.62239 7.53203,0.20315 1.42026,-0.2918 2.48591,-2.01672 3.4606,-2.83486 1.32188,-1.10439 3.0986,-1.75447 3.26012,-3.24116 0.1578,-1.48484 -1.37014,-3.30395 -2.44508,-4.86082"
         style="fill:#312930;fill-opacity:1;fill-rule:evenodd;stroke:none;stroke-width:0.185167" />
    </g>
  </g>
</svg>
