<?xml version="1.0" encoding="UTF-8"?>
<svg id="_圖層_2" data-name="圖層 2" xmlns="http://www.w3.org/2000/svg" viewBox="0 0 103.23 91.55">
  <defs>
    <style>
      .cls-1 {
        fill: #ff8744;
        stroke: #222221;
        stroke-linecap: round;
        stroke-linejoin: round;
      }
    </style>
  </defs>
  <g id="_圖層_2-2" data-name="圖層 2">
    <path class="cls-1" d="m1.71,71.73c2.24-3.6,6.93-4.85,10.67-2.77l.16.09c15.59,8.65,17.2,5.79,17.81,4.71.8-1.43.36-3.13-1.47-7.84-1.76-4.53-3.95-10.17-2.55-16.64,1.47-6.79,5.16-11.96,10.41-14.58,4.86-2.43,10.61-2.35,16.19.21,3.11,1.43,5.75,3.29,8.08,4.92,2.67,1.88,4.98,3.5,7.36,4.12.05.01.1.03.15.04-.2-1.47-.82-3.55-2.02-5.42-.53-.83-1.13-1.69-1.74-2.57-3.89-5.63-10.91-15.8-4.49-26.13.45-.73.97-1.46,1.57-2.19,6.84-8.41,18.62-9.55,28.02-2.71,4,2.92,7.52,5.84,10.45,8.7,3.17,3.08,3.24,8.15.15,11.31-3.08,3.17-8.15,3.23-11.31.15-2.39-2.33-5.32-4.76-8.71-7.23-.16-.12-3.98-2.85-6.18-.14-1.06,1.3-.66,2.87,3.67,9.14.72,1.04,1.42,2.05,2.04,3.03,4.44,6.93,6.89,17.6,1.75,24.69-1.71,2.36-6.84,7.55-17.38,4.81-5.18-1.35-9.08-4.09-12.53-6.51-1.94-1.37-3.78-2.66-5.57-3.48-1.04-.48-1.94-.64-2.36-.44-.61.3-1.47,1.58-1.92,3.65-.38,1.77.69,4.54,1.83,7.47,2.17,5.59,5.14,13.24.49,21.49-4.41,7.81-12.59,10.98-22.47,8.73-6.55-1.49-12.86-4.99-17.04-7.31l-.16-.09c-3.86-2.14-5.26-7.01-3.11-10.88.06-.12.13-.23.2-.34Z"/>
  </g>
</svg>