<?xml version="1.0" encoding="UTF-8"?>
<svg id="_圖層_2" data-name="圖層 2" xmlns="http://www.w3.org/2000/svg" viewBox="0 0 44.93 52.24">
  <defs>
    <style>
      .cls-1 {
        fill: #f2eadb;
      }

      .cls-1, .cls-2, .cls-3, .cls-4, .cls-5, .cls-6, .cls-7, .cls-8, .cls-9, .cls-10, .cls-11, .cls-12, .cls-13, .cls-14, .cls-15, .cls-16, .cls-17, .cls-18, .cls-19, .cls-20, .cls-21, .cls-22, .cls-23, .cls-24, .cls-25, .cls-26, .cls-27, .cls-28, .cls-29, .cls-30, .cls-31, .cls-32, .cls-33, .cls-34, .cls-35, .cls-36, .cls-37, .cls-38, .cls-39, .cls-40, .cls-41, .cls-42, .cls-43, .cls-44, .cls-45, .cls-46, .cls-47, .cls-48, .cls-49, .cls-50, .cls-51, .cls-52, .cls-53, .cls-54, .cls-55, .cls-56, .cls-57, .cls-58, .cls-59, .cls-60, .cls-61, .cls-62, .cls-63, .cls-64, .cls-65, .cls-66, .cls-67, .cls-68, .cls-69, .cls-70, .cls-71, .cls-72, .cls-73, .cls-74, .cls-75, .cls-76, .cls-77, .cls-78, .cls-79, .cls-80, .cls-81, .cls-82, .cls-83, .cls-84, .cls-85, .cls-86, .cls-87, .cls-88, .cls-89, .cls-90, .cls-91, .cls-92, .cls-93, .cls-94, .cls-95, .cls-96, .cls-97, .cls-98, .cls-99, .cls-100, .cls-101, .cls-102, .cls-103, .cls-104, .cls-105, .cls-106, .cls-107, .cls-108, .cls-109, .cls-110, .cls-111, .cls-112, .cls-113, .cls-114, .cls-115, .cls-116, .cls-117, .cls-118, .cls-119, .cls-120, .cls-121, .cls-122, .cls-123, .cls-124, .cls-125, .cls-126, .cls-127, .cls-128, .cls-129, .cls-130, .cls-131, .cls-132, .cls-133, .cls-134, .cls-135, .cls-136, .cls-137, .cls-138, .cls-139, .cls-140, .cls-141, .cls-142, .cls-143, .cls-144, .cls-145, .cls-146, .cls-147, .cls-148, .cls-149, .cls-150, .cls-151, .cls-152, .cls-153, .cls-154, .cls-155, .cls-156, .cls-157, .cls-158, .cls-159, .cls-160, .cls-161, .cls-162, .cls-163, .cls-164, .cls-165, .cls-166, .cls-167, .cls-168, .cls-169, .cls-170, .cls-171, .cls-172, .cls-173, .cls-174, .cls-175, .cls-176, .cls-177, .cls-178, .cls-179, .cls-180, .cls-181, .cls-182, .cls-183, .cls-184, .cls-185, .cls-186, .cls-187, .cls-188, .cls-189, .cls-190, .cls-191, .cls-192, .cls-193, .cls-194, .cls-195, .cls-196, .cls-197 {
        stroke-width: 0px;
      }

      .cls-2 {
        fill: #f8f1e4;
      }

      .cls-3 {
        fill: #543c1a;
      }

      .cls-4 {
        fill: #c77406;
      }

      .cls-5 {
        fill: #c77707;
      }

      .cls-6 {
        fill: #e38304;
      }

      .cls-7 {
        fill: #e38203;
      }

      .cls-8 {
        fill: #e08002;
      }

      .cls-9 {
        fill: #e3870a;
      }

      .cls-10 {
        fill: #de8005;
      }

      .cls-11 {
        fill: #ddae58;
      }

      .cls-12 {
        fill: #df9e34;
      }

      .cls-13 {
        fill: #de8307;
      }

      .cls-14 {
        fill: #cb8716;
      }

      .cls-15 {
        fill: #cd973a;
      }

      .cls-16 {
        fill: #e0870c;
      }

      .cls-17 {
        fill: #e18b0d;
      }

      .cls-18 {
        fill: #e18b0a;
      }

      .cls-19 {
        fill: #df8104;
      }

      .cls-20 {
        fill: #df8207;
      }

      .cls-21 {
        fill: #e28305;
      }

      .cls-22 {
        fill: #e28406;
      }

      .cls-23 {
        fill: #e28e0f;
      }

      .cls-24 {
        fill: #e29013;
      }

      .cls-25 {
        fill: #e29217;
      }

      .cls-26 {
        fill: #c97b0f;
      }

      .cls-27 {
        fill: #e29b27;
      }

      .cls-28 {
        fill: #d77d05;
      }

      .cls-29 {
        fill: #e18407;
      }

      .cls-30 {
        fill: #e09f2f;
      }

      .cls-31 {
        fill: #d68f1d;
      }

      .cls-32 {
        fill: #e18808;
      }

      .cls-33 {
        fill: #dc8f14;
      }

      .cls-34 {
        fill: #da830c;
      }

      .cls-35 {
        fill: #da840a;
      }

      .cls-36 {
        fill: #bd8217;
      }

      .cls-37 {
        fill: #b27203;
      }

      .cls-38 {
        fill: #d98204;
      }

      .cls-39 {
        fill: #a57e23;
      }

      .cls-40 {
        fill: #af811f;
      }

      .cls-41 {
        fill: #a9852d;
      }

      .cls-42 {
        fill: #d39937;
      }

      .cls-43 {
        fill: #ce7900;
      }

      .cls-44 {
        fill: #b57b10;
      }

      .cls-45 {
        fill: #906e18;
      }

      .cls-46 {
        fill: #c27905;
      }

      .cls-47 {
        fill: #c2871c;
      }

      .cls-48 {
        fill: #b77515;
      }

      .cls-49 {
        fill: #edac3e;
      }

      .cls-50 {
        fill: #f2b84d;
      }

      .cls-51 {
        fill: #f2b64b;
      }

      .cls-52 {
        fill: #f2b74b;
      }

      .cls-53 {
        fill: #f2b74c;
      }

      .cls-54 {
        fill: #f2b64a;
      }

      .cls-55 {
        fill: #f1b244;
      }

      .cls-56 {
        fill: #e48507;
      }

      .cls-57 {
        fill: #eea126;
      }

      .cls-58 {
        fill: #ec9613;
      }

      .cls-59 {
        fill: #eeb247;
      }

      .cls-60 {
        fill: #ee9f26;
      }

      .cls-61 {
        fill: #eb900d;
      }

      .cls-62 {
        fill: #eb8805;
      }

      .cls-63 {
        fill: #eb8e0d;
      }

      .cls-64 {
        fill: #eb8e0c;
      }

      .cls-65 {
        fill: #eb8e0b;
      }

      .cls-66 {
        fill: #eb8905;
      }

      .cls-67 {
        fill: #eb8906;
      }

      .cls-68 {
        fill: #eb8907;
      }

      .cls-69 {
        fill: #eb9514;
      }

      .cls-70 {
        fill: #e9ad43;
      }

      .cls-71 {
        fill: #eb910c;
      }

      .cls-72 {
        fill: #e88b07;
      }

      .cls-73 {
        fill: #e88808;
      }

      .cls-74 {
        fill: #e88604;
      }

      .cls-75 {
        fill: #e88603;
      }

      .cls-76 {
        fill: #e88806;
      }

      .cls-77 {
        fill: #e88908;
      }

      .cls-78 {
        fill: #e88706;
      }

      .cls-79 {
        fill: #e7ad45;
      }

      .cls-80 {
        fill: #ea8501;
      }

      .cls-81 {
        fill: #ea8603;
      }

      .cls-82 {
        fill: #ea8703;
      }

      .cls-83 {
        fill: #ea8704;
      }

      .cls-84 {
        fill: #ea8805;
      }

      .cls-85 {
        fill: #ea8806;
      }

      .cls-86 {
        fill: #ea8803;
      }

      .cls-87 {
        fill: #ea8906;
      }

      .cls-88 {
        fill: #ea8400;
      }

      .cls-89 {
        fill: #ea8602;
      }

      .cls-90 {
        fill: #ea8804;
      }

      .cls-91 {
        fill: #e9ae45;
      }

      .cls-92 {
        fill: #e9b963;
      }

      .cls-93 {
        fill: #ea8d0c;
      }

      .cls-94 {
        fill: #ea8d0b;
      }

      .cls-95 {
        fill: #ea8a06;
      }

      .cls-96 {
        fill: #e9af48;
      }

      .cls-97 {
        fill: #ec9415;
      }

      .cls-98 {
        fill: #ec9211;
      }

      .cls-99 {
        fill: #ec9313;
      }

      .cls-100 {
        fill: #ea9210;
      }

      .cls-101 {
        fill: #ea8b09;
      }

      .cls-102 {
        fill: #ea8b08;
      }

      .cls-103 {
        fill: #ea8f0d;
      }

      .cls-104 {
        fill: #e58d0d;
      }

      .cls-105 {
        fill: #ea9316;
      }

      .cls-106 {
        fill: #ea9c23;
      }

      .cls-107 {
        fill: #f0b142;
      }

      .cls-108 {
        fill: #e5a83f;
      }

      .cls-109 {
        fill: #e68807;
      }

      .cls-110 {
        fill: #f0b347;
      }

      .cls-111 {
        fill: #e68707;
      }

      .cls-112 {
        fill: #f0ad3c;
      }

      .cls-113 {
        fill: #f0b449;
      }

      .cls-114 {
        fill: #f0af3f;
      }

      .cls-115 {
        fill: #f0ae3e;
      }

      .cls-116 {
        fill: #f0b143;
      }

      .cls-117 {
        fill: #efb449;
      }

      .cls-118 {
        fill: #ec910a;
      }

      .cls-119 {
        fill: #ec9717;
      }

      .cls-120 {
        fill: #ec910f;
      }

      .cls-121 {
        fill: #ec9111;
      }

      .cls-122 {
        fill: #ec9110;
      }

      .cls-123 {
        fill: #ec900d;
      }

      .cls-124 {
        fill: #ec900f;
      }

      .cls-125 {
        fill: #e6aa42;
      }

      .cls-126 {
        fill: #e79216;
      }

      .cls-127 {
        fill: #e7991d;
      }

      .cls-128 {
        fill: #e7971b;
      }

      .cls-129 {
        fill: #e78802;
      }

      .cls-130 {
        fill: #e78908;
      }

      .cls-131 {
        fill: #e78a0b;
      }

      .cls-132 {
        fill: #e6b151;
      }

      .cls-133 {
        fill: #e78f10;
      }

      .cls-134 {
        fill: #e68d0c;
      }

      .cls-135 {
        fill: #e68e12;
      }

      .cls-136 {
        fill: #e68505;
      }

      .cls-137 {
        fill: #eba230;
      }

      .cls-138 {
        fill: #ebb148;
      }

      .cls-139 {
        fill: #ebb047;
      }

      .cls-140 {
        fill: #ebb656;
      }

      .cls-141 {
        fill: #efb54b;
      }

      .cls-142 {
        fill: #efa32a;
      }

      .cls-143 {
        fill: #efb347;
      }

      .cls-144 {
        fill: #efb244;
      }

      .cls-145 {
        fill: #ecab3d;
      }

      .cls-146 {
        fill: #ebe5da;
      }

      .cls-147 {
        fill: #eca029;
      }

      .cls-148 {
        fill: #ed9719;
      }

      .cls-149 {
        fill: #ed991c;
      }

      .cls-150 {
        fill: #ed991b;
      }

      .cls-151 {
        fill: #efa733;
      }

      .cls-152 {
        fill: #efb143;
      }

      .cls-153 {
        fill: #efb146;
      }

      .cls-154 {
        fill: #ecb34a;
      }

      .cls-155 {
        fill: #ed9a1f;
      }

      .cls-156 {
        fill: #ed9b1c;
      }

      .cls-157 {
        fill: #ed9b1f;
      }

      .cls-158 {
        fill: #f1af3f;
      }

      .cls-159 {
        fill: #f1b549;
      }

      .cls-160 {
        fill: #f1b548;
      }

      .cls-161 {
        fill: #f1b141;
      }

      .cls-162 {
        fill: #f1b142;
      }

      .cls-163 {
        fill: #f1b74c;
      }

      .cls-164 {
        fill: #f1b447;
      }

      .cls-165 {
        fill: #f1b448;
      }

      .cls-166 {
        fill: #f1b041;
      }

      .cls-167 {
        fill: #f1b346;
      }

      .cls-168 {
        fill: #f1b345;
      }

      .cls-169 {
        fill: #e99516;
      }

      .cls-170 {
        fill: #e98f12;
      }

      .cls-171 {
        fill: #e7a436;
      }

      .cls-172 {
        fill: #f5f3ef;
      }

      .cls-173 {
        fill: #f5ecdc;
      }

      .cls-174 {
        fill: #e99316;
      }

      .cls-175 {
        fill: #e98907;
      }

      .cls-176 {
        fill: #e98a09;
      }

      .cls-177 {
        fill: #e98a08;
      }

      .cls-178 {
        fill: #e98d0f;
      }

      .cls-179 {
        fill: #e98603;
      }

      .cls-180 {
        fill: #eb8b09;
      }

      .cls-181 {
        fill: #eb8b08;
      }

      .cls-182 {
        fill: #eab659;
      }

      .cls-183 {
        fill: #eb8d0a;
      }

      .cls-184 {
        fill: #eb8d0c;
      }

      .cls-185 {
        fill: #eb8d0b;
      }

      .cls-186 {
        fill: #eb8c0b;
      }

      .cls-187 {
        fill: #eb8c09;
      }

      .cls-188 {
        fill: #eb8c08;
      }

      .cls-189 {
        fill: #eb8a08;
      }

      .cls-190 {
        fill: #eb8a07;
      }

      .cls-191 {
        fill: #e8971c;
      }

      .cls-192 {
        fill: #e89b1f;
      }

      .cls-193 {
        fill: #eaa434;
      }

      .cls-194 {
        fill: #eaa433;
      }

      .cls-195 {
        fill: #f4f0ea;
      }

      .cls-196 {
        fill: #e88d0e;
      }

      .cls-197 {
        fill: #eb991c;
      }
    </style>
  </defs>
  <g id="_圖層_2-2" data-name=" 圖層 2">
    <path class="cls-3" d="m36.7,3.12c8.82,6.96,10.46,17.17,5.34,25.01-.51.77-.96,1.6-1.56,2.3-.83.99-.89,2.02-.47,3.17.56,1.54,1.1,3.1,1.65,4.65.65,1.87.87,3.78.78,5.75-.24,5.63-5.3,8.66-9.97,8.19-.4-.04-.81-.13-1.21-.21-2.04-.41-3.75-1.29-4.82-3.2-.65-1.16-1.51-2.21-2.11-3.4-.72-1.41-1.72-2.09-3.33-2.27-3.08-.34-6.04-1.18-8.88-2.45C1.88,36.1-2.78,24.33,1.71,14.2,4,9.02,7.81,5.21,12.91,2.77,17.25.69,21.86-.23,26.68.05c4.26.25,8.14,1.6,10.01,3.07h.01Z"/>
    <path class="cls-50" d="m25.17,12.18c-.29.18-.56.36-.84.55-1.22-.12-1.17.36-.54,1.13-.14.73-.15,1.46-.1,2.2.17.83-.2,1.28-1.01,1.42-1,.24-.66.77-.28,1.3.09.19.13.4.11.61-.27.68.01,1.27.29,1.87,0,.44-.24.8-.43,1.19-.08.13-.18.23-.3.31-.2.09-.41.13-.62.11-.47-.04-1.03-.29-1.15.49-.12.41,1.01,1.09-.24,1.27-.37-.18-.8-.23-1.12-.53-.29-1.03-.96-.72-1.61-.45-.77-.03-1.52-.16-2.29.05-1.77.5-2.31,2.28-1.03,3.64,1.3,1.37,2.86,2.12,4.81,1.89.25-.03.44.08.54.31-.01.82-.09,1.6,1.2,1.03.87-.38,1.45.14,1.61,1.04.06.37-.08.81.53,1.07.09-1.03-.93-2.14.33-2.91.51.38.98.81,1.22,1.42.06.76.39,1.33,1.14,1.57.13.17.27.34.4.51-.95,1.06.35.8.66,1.12l.67,1.16c-.03.62-.56.49-.92.56-.74.14-.73.6-.52,1.15.26,1-.11,1.57-1.14,1.7-.15.14-.79-.14-.37.46.17,0,.33-.07.47-.15.19-.09.38-.13.59-.09.38.12.68.35.91.67.08.14.13.29.14.45-.26.84-.74,1.17-1.57.69-.33-.18-.66-.2-1.01-.15-.54-.14-1.11-.08-1.62-.34-.16-.61-.35-1.23-.54-1.85-.03-.59.27-1,.72-1.32.42-.28,1.08-.12,1.33-.71-.17-.48-.48-.24-.71-.1-.47.28-.92.33-1.37-.05-.1-.08-.18-.19-.24-.31-.05-.12-.07-.23-.08-.35,0-.11.01-.22.02-.34,0-.06,0-.11-.01-.16-.05-.15-.13-.28-.26-.38-.14-.08-.3-.12-.46-.11-.3.06-.53.26-.8.36-.19.06-.37.09-.57.09-.83-.01-.96.47-.82,1.16.02.21.03.42-.01.63-.09.36-.23.68-.48.96-.2.15-.41.15-.63.07-.21-.09-.39-.2-.55-.37-.51-.5-.11-1.08-.18-1.62-.17-.61-.65-1.09-.63-1.79.02-.61-.4-.56-.82-.4-.53.12-1.08.06-1.59.32.7,0,1.49-.54,2.01.36.27.52.31,1-.18,1.42-.43.22-.93.11-1.38.24-.31.23-.54.45-.02.7.3,0,.41-.25.55-.45.04-.05.08-.1.12-.16.1-.09.2-.14.34-.15.26.03.47.14.64.33.15.17.28.37.47.5.09.07.18.14.25.23.08.17.07.33,0,.49-.07.09-.14.17-.23.23-.08,0-.21.06-.21.12.01.1.18.06.23.17.22.32.37.65.35,1.04-.03.13-.1.23-.24.27-.43-.1-.87-.16-1.24-.42-.4-.46-.93-.57-1.5-.52-.5-.21-1.04-.31-1.45-.72-.15-.81-.83-.62-1.36-.73-.56-.31-1.06-.7-1.51-1.15-.16-.6-.42-1.08-1.17-.97-.94-.71-1.61-1.66-2.29-2.61-.26-.48.08-1.32-.86-1.37-2.55-4.09-3.14-8.51-2.14-13.16.64-3.01,2.04-5.69,4.06-8.01,1.41-1.62,2.99-3.09,4.85-4.21.58-.09,1.29.04,1.43-.82,4.07-2.01,8.37-2.99,12.92-2.8.39.78,1.05,1.01,1.97.68.65.03,1.31.03,1.93-.21.67.1,1.33.26,1.92.59-.32.85-.51,1.56.86,1.01.69-.28,1.35.26,2.05.2.21.12.42.24.63.36.69.51.43.8-.24.96-.44.11-.89.07-.86.78.08,2.03.06,2.04-2.03,2.11-.58.12-1.18.41-1.7-.16-.13-.16-.24-.34-.23-.54.07-1.39-.63-1.24-1.5-.75-.41.08-.76-.23-1.17-.17-.85.5-.13.9.08,1.34.08.13.12.26.15.4,0,.14,0,.29-.05.42-.2.58-.23,1.08.63.9.57-.12,1.18-.63,1.65.11.44.7.01,1.27-.37,1.82-.12.1-.24.14-.4.13-1.34-.32-2.64.28-3.96.18v-.03Z"/>
    <path class="cls-88" d="m31.95,8.1c.34-.16.68-.07,1.04-.01.8.1,1.25-.56.82-1.21-.31-.48-.56-.85-.17-1.38.34-.46.75-.36,1.24-.24.7.17.47-.27.29-.6.84.22,1.4.83,2,1.37.05.36-.19.53-.43.7-.43.13-.85-.24-1.31.02.3.4.63.08.92.08.71-.34,1.36-.1,2,.18.4.2.57.62.83.94-.07.38-.52.34-.67.62-.41.87.54,2-.5,2.76-.46.34-.99-.03-1.8.18.91.3,1.54-.19,2.11.13.42.23.66.58.73,1.05-.01.69.14,1.16.95.62.17-.13.35-.25.55-.33.15-.03.29-.03.44,0,.5.19.89.52,1.17.98.09.2.08.4.02.6-.04.19-.06.37-.04.56.08.46.41.55.79.53.2.4.24.81.15,1.24-.19.17-.39.33-.62.46-1.49.8-2.05.51-2.37-1.2-.02-.09-.04-.18-.07-.26-.1.14.02.27.03.41.09.62.17,1.23.14,1.85.03.32.2.58.34.86.04.11.06.24.05.36-.05.28-.16.57.03.85.36.4.75.2,1.14.09.45-.13.93-.25,1.14.38,0,1.28-.51,2.4-.98,3.55-.58.25-.99.88-1.71.81-.15-.03-.29-.07-.42-.14-.27-.16-.41-.42-.46-.72-.03-1.34,1.08-1.22,1.93-1.43-2.02.03-2.23.19-1.95,1.29.14.45-.2.83-.15,1.26.08.15.2.23.38.25.24-.05.42-.21.62-.34.12-.06.24-.11.36-.15.35,0,.68.01.84.4-.38.61-.54,1.33-1.09,1.84-.85.49-1.83.58-2.98.72.88.56,1.68-.9,2.26.29-.37.5-.74,1-1.11,1.51-.5.25-.87.9-1.44.83-1.62-.23-1.47.6-1.08,1.63-.18.6-.53,1.05-1.12,1.28-.2.03-.33-.05-.38-.25-.44-.33-.66-.81-.94-1.26-.07-.48-.1-.97-.73-1.04-.86-1.13-1.66-2.3-2.36-3.54.49-.75,1.26-.43,1.93-.54.69-.11,1.28-.6,2.02-.67-.78-.07-1.83.57-2.04-.83.04-.39.24-.69.53-.93.12-.08.24-.14.39-.18.27-.04.55,0,.83-.06.51-.21.47-.56.24-.95-.25-.41-.27-.82,0-1.24.26-.38.61-.64,1.08-.7.36-.03.75.1,1.05-.21.07-.16.06-.3-.03-.44-.12-.14-.24-.28-.35-.43-.08-.11-.13-.24-.15-.37.01-.14.04-.28.1-.41.22-.47.58-.81,1.08-.98.21-.06.45-.02.69-.07-.25-.04-.47.04-.69.07-1.52.31-1.61-.79-1.8-1.86-.38.67.29,1.47-.3,2.06-.24.31-.56.49-.95.52-.28,0-.55-.1-.81-.15-.5-.06-.76.47-1.23.53-.31,0-.54-.14-.77-.32-.1-.09-.19-.21-.27-.33-.09-.19-.14-.39-.14-.6.01-.32.12-.63.08-.96-.05-.29-.28-.42-.5-.56-.05-.04-.11-.07-.17-.11-.05-.04-.09-.1-.13-.14-.03-.06-.05-.12-.07-.18,0-.13.03-.25.07-.36.07-.16.16-.32.24-.47.09-.23.03-.44-.11-.64-.29-.42-.41-.87-.18-1.37.24-.43.6-.7,1.11-.72.15.02.3.06.43.13.52.32.43.85.42,1.34.06.3.17.54.53.56.43-.2.25-.46.09-.72-.24-.37-.5-.74-.36-1.23.1-.23.26-.38.49-.48.72-.14,1.23.19,1.62.76.28.35-.12.9.32,1.22.33-.31-.01-.55-.06-.8-.12-.31-.21-.64-.12-.98.04-.29.2-.57.06-.87-.12-.21-.27-.41-.38-.63-.12-.32-.15-.65-.11-.98.03-.33.06-.65-.38-.75-.33,0-.55.24-.84.33-.52.16-1.04.12-1.34-.35-.37-.59-.09-1.03.49-1.32h-.03Z"/>
    <path class="cls-75" d="m31.16,32.4c.27.38.62.71.73,1.2-.19.19-.52.25-.59.59.35.16.6-.2.91-.17.5.46.86,1.03,1.13,1.65-.25,1.05-1.27.24-1.89.85.95.09,1.88-.73,2.62.16.24.31.06.56-.16.74-.36.31-.76.59-1.14.88-.74-.19-1.13.99-1.95.48-.36-.5-.47-1.1-.65-1.68.06-.28-.22-.43-.28-.66-.28-.37-.52-.77-.57-1.24.16-.74-.51-1.18-.66-1.8.68-1.42,1.04-1.57,2.5-1.01h0Z"/>
    <path class="cls-101" d="m23.02,29.76c-.08.71-.75,1.41.09,2.12.4.35.37.82,0,1.22-.2.21-.45.27-.69.11-.4-.28-.97-.46-.77-1.14.06-.19.2-.39.19-.56-.03-.6-.75-.92-1.33-.49-.5.36-.92.44-1.37.04-.58-.52-.25-1,.13-1.47,1.04-.21,2.04-.66,3.14-.53.32.15.49.41.6.73h0Z"/>
    <path class="cls-143" d="m39.93,18.4c-.3-.66.05-1.32-.02-1.99,0-.29.15-.45.43-.5,0,.15,0,.31.03.46.22,1.17.68,1.42,1.64.8.34-.22.59-.58,1.05-.26.25,1.27.19,2.54-.19,3.79-.37-.22-.72-.25-1.14-.03-.99.51-1,.49-1.59-.54-.06-.36.42-.53.34-.91h0c0-.16.08-.25.26-.26.43-.06.78.59,1.26.17.08-.07.08-.22,0-.28-.51-.45-.93.23-1.43.13-.29-.1-.52-.26-.63-.56v-.03Z"/>
    <path class="cls-59" d="m25.62,29.44c-.54-.34-.85-.88-1.22-1.36,0-.68-.38-1.28-.5-1.95.33-.39.66-.79,1-1.18.58-.05,1.14-.3,1.74-.2.68,1.05,1.25,2.14,1.72,3.29-.18.84-.75.53-1.25.42-.13-.06-.27-.13-.39-.22-.52-.36.02-1.21-.74-1.58-.23.72.63,1.11.4,1.72-.16.42-.29.86-.76,1.06Z"/>
    <path class="cls-179" d="m29.7,26.37c-.22-.15-.35-.34-.35-.62.37-.73.05-1.03-.67-1.1-.35-.48-.64-.98-.74-1.57.51-.37,1.18-.11,1.71-.43.4-.15.81-.33,1.27-.23.31.11.54.3.69.59.09.22.12.46.1.71-.03.41-.01.81.17,1.18.34.7.43,1.4-.3,1.89-.73.48-1.33.07-1.88-.41h0Z"/>
    <path class="cls-110" d="m29.7,26.37c.34-.1.58.13.85.27.43.21.79.09,1.09-.27s.37-.79.01-1.11c-.63-.57-.61-1.13-.13-1.75.77-.42,1.7-.05,2.46-.5.41.55.03.9-.32,1.26-.15.08-.3.14-.47.18h0c-.44.16-.69.47-.75.94.16.63.58.83,1.16.63.28-.1.53-.31.8-.43.37-.16.57.07.71.38.15.35-.01.74-.3.73-.9-.04-1.67.25-2.39.75-.09.06-.32,0-.43-.06-.58-.38-1.09,0-1.63.1-.28-.32-.56-.66-.66-1.1h0Z"/>
    <path class="cls-113" d="m30.16,13.81c-.17.58.21.91.59,1.23.06.25-.17.44-.14.68l-.36.45c-.26.06-.52.12-.79.11-.52-.08-1.04.4-1.56.04-.02-.4-.03-.8-.05-1.2.17-.46.91-.23,1-.81-.31-.56-.83-.15-1.23-.26-.27-.47-.54-.95-.8-1.42.7-.69,1.75-.24,2.51-.72h0c.52-.09.92.21,1.32.48.1.1.14.23.14.38-.16.37-.6.57-.61,1.02h0Z"/>
    <path class="cls-145" d="m22.25,19.35c-.02-.15-.04-.31-.05-.46.21-.57.38-1.15.24-1.78.78.07,1.13-.35,1.26-1.06.44.95.41,2.02.76,3-.18.69.22,1.18.58,1.68l-.02.05c-.78,1.56-1.09,1.61-1.96.35.19-.8-.37-1.25-.8-1.77h0Z"/>
    <path class="cls-171" d="m21.56,22.69c.15,0,.3-.01.45-.02.12-.02.24,0,.33.08.17.14.33.31.57.35.23,0,.44-.07.66-.13.18-.04.36-.03.52.07-.25,1.04-1.11,1.65-1.7,2.44-.21.28-.5.25-.8.06-.51-.33-1.03-.62-1.54-.94.3-.16.51-.34.13-.63-.2-.16-.35-.35-.33-.63.66,0,1.27-.1,1.71-.66h0Z"/>
    <path class="cls-163" d="m21.32,35.92c.47.4.86.71,1.53.14.62-.52.86-.33,1.34.63-.65-.12-1.13.22-1.6.59-.28.47-.88.76-.74,1.44-.47.52-.95,1.04-1.3,1.67-.23-.04-.47-.08-.71-.13-.05-.09-.1-.19-.13-.3-.08-.16-.16-.31-.27-.45-.08-.1-.15-.22-.2-.34-.1-.82.37-1.17,1.08-1.36.98-.01,1.46-.34.86-1.35-.06-.21-.09-.42.16-.54h0Z"/>
    <path class="cls-152" d="m34.62,33.45c.39-.46.78-.93,1.16-1.39,0-.15.05-.25.19-.31.56.32,1.16.58,1.7.94.03.17.06.33.1.49-.37.55-.79,1.07-.81,1.77-.38.26-.67,1.15-1.23.18.07-.85-.81-1.07-1.12-1.68h0Z"/>
    <path class="cls-139" d="m26.11,43.82c-.3-.66-.59-1.31-.9-1.96.1-.48.51-.34.81-.39.32,0,.64-.02.95-.12.48-.2.95-.44,1.49-.34.26.04.54.06.65.37-.36.63-1.01.98-1.52,1.48-.61.16-.93.75-1.5.97h0Z"/>
    <path class="cls-79" d="m17.07,25.81c1.06.16,1.97.64,2.97,1.28-1.06.66-2,.9-3.05.35-.51-.38-.29-.89-.23-1.37.07-.14.17-.22.31-.26Z"/>
    <path class="cls-131" d="m34.53,4.29c-.36.18-.71.49-1.11.21-.47-.34-.83-.15-1.22.13-.48.32-.99.33-1.32-.2-.35-.56-.05-.95.48-1.2.1-.04.18-.1.27-.14.13-.07.25-.04.36.07.14.18.29.31.54.27.74.13,1.42.42,2.02.87h0Z"/>
    <path class="cls-143" d="m36.01,31.8c-.07.09-.14.18-.22.26-.25-.25-.57-.46-.72-.76-.29-.55.21-1.35.69-1.14.9.42,1.52,0,2.21-.4.1-.06.3.03.45.05-.1.52-.4.96-.66,1.4-.56.24-1.14.47-1.73.59h0Z"/>
    <path class="cls-1" d="m32.85,46.27c-.52.39-1.04.77-1.56,1.16-.54-.07-1.1-.12-1.38-.72,1.18-.96,2.7-1.41,3.79-2.49.44.2.37.52.21.87-.36.38-.82.68-1.05,1.18h0Z"/>
    <path class="cls-144" d="m39.51,28.3c-.61-.41-1.05-.13-1.44.37-.27.34-.59.37-.93.09-.37-.31-.42-.68-.18-1.09.21-.36.5-.52.89-.28.5.32.94.28,1.39-.11.31-.26.66-.2,1,.01-.16.4-.41.72-.72,1.01Z"/>
    <path class="cls-82" d="m29.33,11.92c-.43.63-.92,1.12-1.77.65-.23-.13-.5-.05-.74.06-.49-.39-1.06-.43-1.64-.46.27-.45.59-.63,1.12-.38.48.23.83.16,1.27-.32.68-.76,1.22.05,1.76.44h0Z"/>
    <path class="cls-179" d="m25.39,37.2c-.51-1.12-.36-1.43.77-1.5.33-.02.68.13.97-.18.34.47.61.98.76,1.55-.23.16-.47.04-.69.02-.18,0-.33.08-.47.2-.1.09-.2.16-.32.22-.42.15-.81.21-1.01-.32h0Z"/>
    <path class="cls-173" d="m35.96,44.37c-.18.14-.36.26-.54.4-.48-.23-.83-.57-.89-1.14.87-.97,2.22-1.28,3.09-2.24.42-.06.7.13.89.49-.08.81-1.24.36-1.36,1.14-.4.45-.91.8-1.2,1.34h0Z"/>
    <path class="cls-125" d="m22.42,29.03c-.19.04-.45.02-.57.14-.77.76-1.68.53-2.57.4-.15-.12-.31-.23-.47-.34.56-.22,1.17-.38,1.68-.67.85-.49,1.42-.24,1.93.48h0Z"/>
    <path class="cls-56" d="m38.31,8.03c.28-.03.57-.06.85-.09.76.5,1.18,1.28,1.56,2.07,0,.37-.19.61-.52.76-.33.07-.66.01-.98-.14-.49-.29-.9-.86-.57-1.23.68-.78-.33-.91-.34-1.37h0Z"/>
    <path class="cls-49" d="m34.08,36.67c-.68-.13-1.37-.46-1.9.38-.31.49-.71.19-1.04-.09-.27-.23-.38-.49-.16-.8.24-.33.47-.75.98-.45.49.29.94.41,1.38-.05.38.24.49.67.73,1.01h0Z"/>
    <path class="cls-182" d="m38.48,42.07l-.85-.68c.52-.38,1.05-.76,1.57-1.14.39-.09.68.12.98.31-.09.98-.81,1.46-1.52,1.95-.24-.08-.17-.26-.17-.44h0Z"/>
    <path class="cls-135" d="m27.83,2.88c-.33.13-.6.37-.89.59-.71.54-1.11.34-1.19-.54-.03-.3.02-.61.04-.91.73-.07,1.46-.05,2.16.19.09.25.03.47-.13.68h0Z"/>
    <path class="cls-136" d="m20.56,40.39c.03-.87.46-1.42,1.3-1.67.24.56.9,1.07.22,1.75-.51.17-1.01.05-1.52-.08h0Z"/>
    <path class="cls-78" d="m25.62,29.44c.07-.43.21-.81.55-1.11.27-.16.55-.13.84-.09l.02-.02c.52.1.84.41.91.95-.03.34-.19.59-.43.8-.49.33-1,.28-1.51.05-.12-.19-.24-.38-.36-.57h0Z"/>
    <path class="cls-178" d="m27.89,16.32c.57-.04,1.02-.69,1.67-.29.26.03.45.14.5.42h0c.03.2.19.38.14.6-.08.28-.26.49-.51.64-.19.09-.4.13-.61.12-.51-.03-.88-.3-1.18-.7-.11-.27-.13-.53,0-.8v.02Z"/>
    <path class="cls-155" d="m25.39,37.2c.36.31.74.06,1.12.06.48.34,1,.21,1.52.12.12.09.17.21.13.36-.14.49.22.96.1,1.46-.36.28-.69.09-1.01-.08-.33-.16-.62-.63-1.01-.43-.49.25-.03.68-.03,1.04-.02.15-.11.25-.26.28l-.96-.76c-.4-.01-.67-.19-.75-.6,1.24-.08,1.34-.39,1.13-1.43h.01Z"/>
    <path class="cls-74" d="m27.62,14.06c.26-.33.54-.65,1.01-.54.48.12.86.4.81.95-.04.5-.37.69-.85.68-.25,0-.51-.02-.76-.03-.12-.34-.28-.68-.23-1.06h0Z"/>
    <path class="cls-81" d="m27.24,20.52c0-.09.05-.15.1-.21.04-.25.26-.44.19-.73h0c0-.23.23-.42.15-.68h0c0-.18.09-.28.27-.3.24.06.41.21.49.44-.15.9.18,1.7.48,2.51-.1.53-.39.9-.9,1.1-.2.04-.32-.05-.38-.23h0c.03-.26-.25-.39-.26-.63h0c0-.24-.27-.37-.24-.61v-.03c-.1-.24.14-.42.09-.65v.02Z"/>
    <path class="cls-107" d="m27.87,22.58c.33-.39.67-.78,1-1.17.08,0,.16-.01.25-.02.51.14.89.42,1.03.96-.05.25-.18.44-.45.52-.52.64-1.17.25-1.77.2-.07-.09-.13-.19-.2-.29v-.14s.13-.06.13-.06h.01Z"/>
    <path class="cls-73" d="m36.01,31.8c.41-.68.97-.94,1.73-.59-.02.49-.04.99-.06,1.48-.86.26-1.41-.04-1.67-.89Z"/>
    <path class="cls-151" d="m20.45,38.01c-1.03.54-1.07.61-.71,1.41-.27.52-.85.41-1.28.62-.12-.02-.25-.03-.38-.06-.08-.42.14-.73.35-1.05.54-.52.62-1.14.39-1.83.45-.52,1.29-.51,1.66-1.15.26-.17.52-.34.81-.06l.04.03c0,.15.03.29.04.44-.21.6-.77,1.01-.91,1.65h-.01Z"/>
    <path class="cls-7" d="m29.4,29.72c.43.48.79,1.02,1.03,1.62-.63,1.21-1.26.57-1.89,0-.16-.24-.21-.51-.13-.79.17-.46.47-.77.99-.84h0Z"/>
    <path class="cls-137" d="m24.09,23.04c-.17.03-.33.07-.51.09-.2-.77-.71-.95-1.44-.73-.12-.52.29-.79.53-1.14.07-.48.22-.86.83-.59-.26.44-.15.77.3.98.35.16.56-.06.76-.3l.47-.59c.02.89-.44,1.59-.94,2.27h0Z"/>
    <path class="cls-132" d="m34.54,43.64c.4.3.76.62.89,1.14-.37.23-.67.58-1.14.63-.29.03-.4-.12-.39-.38-.06-.26-.13-.53-.19-.79.18-.33.51-.45.83-.58h0Z"/>
    <path class="cls-175" d="m23.8,13.85c-1.19-.45-1.43-.92-.75-1.48.59-.49.91.04,1.29.35-.18.38-.35.75-.54,1.13Z"/>
    <path class="cls-146" d="m29.9,48.32c-.27.22-.55.45-.84.64-.3.21-.57.21-.65-.24.11-.45-.1-.97.3-1.36.33-.19.65-.37.98-.55.56.43.26.99.22,1.5h0Z"/>
    <path class="cls-28" d="m23.9,26.14c.68.61.84,1.26.5,1.95-.27-.21-.56-.41-.79-.64-.56-.58-.47-1.02.3-1.29h0Z"/>
    <path class="cls-111" d="m26.64,24.76c-.52.53-1.11.6-1.74.2.33-.54.66-1.09,1.02-1.67.46.44.66.93.72,1.47h0Z"/>
    <path class="cls-13" d="m16.91,26.09c.28.44-.03.91.08,1.35-.79-.12-1.28-.64-1.58-1.31-.2-.47.21-.44.52-.44.16.06.31.06.47.02h0c.26,0,.3.29.51.38h0Z"/>
    <path class="cls-194" d="m28.64,31.13c.56.38,1.1.98,1.8.21.38.26.51.69.74,1.07-1.08-.2-1.91.13-2.45,1.12-.06,0-.12,0-.18.01-.16-.09-.27-.22-.32-.4h0c0-.13.03-.25.11-.36.52-.42.28-.89.1-1.35,0-.15.08-.24.21-.3h-.01Z"/>
    <path class="cls-194" d="m29.4,29.72c-.26.31-.53.62-.8.94-.47-.37-.33-1.09-.84-1.43-.12-.43-.37-.77-.74-1.02.43-.16.96.43,1.33-.17.35.56.7,1.12,1.04,1.67h0Z"/>
    <path class="cls-154" d="m28.38,19.06c-.18-.11-.34-.23-.52-.35-.08,0-.14-.02-.16-.07-.02-.05-.02-.08,0-.11.07-.47.13-.94.2-1.41.46.05.79.37,1.19.55.07,0,.14,0,.21,0,.08.12.12.26.1.41-.14.43-.39.76-.8.96-.07,0-.14.02-.21.02h0Z"/>
    <path class="cls-10" d="m36.96,34.95c-.45-1.1-.42-1.19.81-1.77.59,1.5.4,1.31-.81,1.77Z"/>
    <path class="cls-116" d="m32.22,34.03c-.15.21-.29.42-.46.62-.27.34-.56.42-.91.12-.45-.38-.19-.71.08-1.05.29-.36.61-.29.96-.12.11.14.22.27.33.43Z"/>
    <path class="cls-22" d="m27.67,32.33c-.47-.47-.84-1-1.08-1.62.32-.96.84-.45,1.34-.2.18.16.28.37.33.61,0,.23.02.45,0,.67-.06.22-.18.39-.38.51-.07,0-.14.02-.21.02h0Z"/>
    <path class="cls-9" d="m26.46,34.38c-.09.02-.2.02-.29.05-.52.2-1.14.47-1.36-.28-.28-.86.54-.73,1.01-.9.24.36.57.66.66,1.12h-.01Z"/>
    <path class="cls-96" d="m41.74,14.66l.37-.46c.28-.03.44.14.56.36.23.34.31.7.24,1.1-.65.57-.77.51-1.18-.58,0-.14,0-.29,0-.43h0Z"/>
    <path class="cls-155" d="m26.16,41.74c-.32.04-.62.08-.94.12-.42-.46-.93-.81-1.51-1.04.32-.31.71-.42,1.08-.15.74.53,1.05-.02,1.41-.49.14.01.25.08.31.22,0,.48-.19.91-.34,1.35h0Z"/>
    <path class="cls-12" d="m30.83,38.79c.4.02.62-.25.83-.52.4-.51.75-.26,1.12.03-.28.52-.8.77-1.25,1.06-.76.51-.65-.16-.69-.59h0Z"/>
    <path class="cls-170" d="m17.31,23.64c.17-.25.36-.48.65-.62.33-.16.65-.26.98.01.44.36.22.71-.02,1.06-.54-.14-1.07-.3-1.61-.45Z"/>
    <path class="cls-6" d="m29.13,41.37c-.2-.05-.41-.1-.6-.14-.94-.34-.43-.84-.14-1.31.12-.12.25-.21.41-.27.08,0,.16-.01.25-.02.31.57.99,1.12.09,1.75h0Z"/>
    <path class="cls-2" d="m38.48,42.07c.17.11.17.27.17.44-.34.29-.63.69-1.11.78-.25.02-.4-.1-.46-.34.12-1.02.13-1.02,1.4-.88h0Z"/>
    <path class="cls-92" d="m29.9,48.32c-.49-.44.02-1.03-.22-1.5.04-.12.12-.15.24-.09.53.11,1,.31,1.39.72-.46.3-.93.59-1.4.88h0Z"/>
    <path class="cls-141" d="m18.83,39.04l-.74.93c-.32.02-.64-.03-.92-.22-.17,0-.29-.1-.34-.27,0-.16.03-.31.1-.45.43-.68,1-.67,1.65-.35.14.08.23.21.27.37h-.01Z"/>
    <path class="cls-143" d="m28.68,24.65c.45-.37.94-.48,1.25.08.27.51.13.97-.58,1.02-.34-.3-.49-.7-.67-1.1h0Z"/>
    <path class="cls-153" d="m28.02,37.37c-.86.95-1.02.94-1.52-.12l.18-.23c.02-.27.14-.42.41-.47.26.17.52.34.78.52.05.1.09.2.14.29h0Z"/>
    <path class="cls-16" d="m27.83,2.88c-.12-.26-.03-.47.13-.68.6-.07,1.18.08,1.73.28-.51.67-1.12.83-1.86.39h0Z"/>
    <path class="cls-21" d="m25.4,32.75c-1.33-.06-1.59-.41-1.14-1.57.55.4.88.97,1.14,1.57Z"/>
    <path class="cls-138" d="m41.67,11.78c.36.51.64,1.04.66,1.69-.78.65-1.01-.3-1.49-.52-.12-.29-.03-.54.12-.78.18-.23.4-.38.7-.39Z"/>
    <path class="cls-140" d="m37.08,42.95c.15.12.3.23.46.34-.43.51-.99.83-1.58,1.08.02-.75.32-1.29,1.12-1.42Z"/>
    <path class="cls-106" d="m4.7,31.02c1.06-.41,1.15-.36,1.02.63-.03.25-.1.5-.16.74-.39-.39-.73-.82-.86-1.37Z"/>
    <path class="cls-193" d="m40.26,24.94c.31-.15.63-.28.85-.56s.49-.29.79-.14c-.17.42-.23.88-.57,1.21-.29-.07-.6-.1-.83-.32-.1.02-.17,0-.21-.06s-.05-.1-.03-.12h-.01Z"/>
    <path class="cls-20" d="m34.62,33.45c.22.11.43.24.64.32.74.26.86.72.47,1.36-.57-.53-1.07-1.09-1.36-1.83.08.05.15.1.24.15h0Z"/>
    <path class="cls-108" d="m38.33,7c-.19.16-.43.31-.66.12-.39-.34-.82-.2-1.26-.17-.02-.15.04-.23.19-.24l.55-.69c.46.24.87.55,1.17.98h0Z"/>
    <path class="cls-8" d="m28.27,39.09c-.58-.41-.63-.86-.11-1.35.43.56.7,1.21.87,1.89l-.05.02c-.38,0-.63-.17-.71-.56h0Z"/>
    <path class="cls-126" d="m7.85,35c.3-.33.66-.46,1.04-.22.51.33.17.78.13,1.19-.44-.26-.85-.57-1.17-.97h0Z"/>
    <path class="cls-35" d="m10.54,37.13s.09-.05.13-.07c.78-.43,1.19-.16,1.22.81-.47-.21-1-.3-1.36-.73Z"/>
    <path class="cls-172" d="m33.9,45.01c.13.13.26.26.38.39-.4.41-.86.73-1.43.87-.07-.77.28-1.18,1.05-1.26h0Z"/>
    <path class="cls-34" d="m25.04,20.73c-.78-.48-.97-1.04-.58-1.68.36.51.49,1.08.58,1.68Z"/>
    <path class="cls-19" d="m18.46,40.03c.26-.56.76-.6,1.28-.62l.2.16c.05.14.06.29.07.44-.06.08-.1.16-.16.25-.49.11-.95-.01-1.39-.23h-.01Z"/>
    <path class="cls-70" d="m28.71,33.53c.73.56.94,1.12.61,1.69-.4-.41-.61-.92-.78-1.45-.06-.16,0-.25.18-.24h0s0,0,0,0Z"/>
    <path class="cls-143" d="m40.13,10.66c.2-.21.4-.44.6-.65.42.39.62.89.8,1.42-.12.26-.33.25-.56.19-.22-.08-.4-.2-.57-.36-.16-.17-.28-.36-.28-.6Z"/>
    <path class="cls-91" d="m32.71,31c.35-.31.66-.18.92.11.33.38.02.64-.19.93-.36-.26-.53-.66-.73-1.04h0Z"/>
    <path class="cls-109" d="m13.34,38.57c1.17-.5,1.3-.46,1.5.52-.56-.02-1.04-.25-1.5-.52Z"/>
    <path class="cls-194" d="m28.01,30.95c-.44-.27-.82-.85-1.4-.24-.2-.23-.41-.47-.61-.69.41-.1.81-.16,1.22-.06.57.1,1.1.22.8,1h0Z"/>
    <path class="cls-174" d="m40.84,12.79c.47.28.79.92,1.49.67.23.34.36.69.34,1.1l-.55-.36-1.46-1.16c0-.12.06-.21.19-.24h0Z"/>
    <path class="cls-42" d="m26.06,15.6c.11.28.14.57.07.86-.02.27-.14.45-.41.49-.22-.56-.31-1.12-.21-1.73.3-.04.46.12.56.38h0Z"/>
    <path class="cls-26" d="m26.11,43.82c.38-.51.66-1.16,1.5-.97-.43.44-.65,1.18-1.5.97Z"/>
    <path class="cls-40" d="m12.88,4.81c-.26.33-.25.73-.24,1.15-.44-.12-.82-.23-1.19-.33.42-.38.85-.73,1.43-.82Z"/>
    <path class="cls-11" d="m28.71,47.36c-.07.46.18.98-.3,1.36-.35-.61-.25-1.06.3-1.36Z"/>
    <path class="cls-4" d="m26.06,15.6c-.18-.12-.37-.26-.56-.38-.02-.14-.05-.29-.03-.43.02-.14.09-.27.17-.52.49.38.43.86.42,1.32h0Z"/>
    <path class="cls-195" d="m40.18,40.55c-.45.27-.7-.05-.98-.31.1-.1.21-.19.29-.29.05-.03.09-.05.14-.08.74-.22.52.32.54.67h0Z"/>
    <path class="cls-48" d="m25.71,16.95c.13-.16.28-.32.41-.49.08.45.04.87-.11,1.32-.4-.23-.35-.53-.3-.83Z"/>
    <path class="cls-151" d="m16.87,39.47c.1.09.19.18.29.28-.39.07-.74-.05-1.08-.23l.13-.16c.3-.41.5-.25.67.12h0Z"/>
    <path class="cls-174" d="m41.1,11.46c.15,0,.28-.02.43-.03.12.09.17.2.13.35-.16.17-.32.35-.47.52-.41-.24-.45-.51-.09-.84h0Z"/>
    <path class="cls-75" d="m28.4,32.91c-.06.08-.12.16-.18.24-.27-.22-.52-.44-.55-.82h.06c.38,0,.63.16.66.57h0Z"/>
    <path class="cls-5" d="m16.91,26.09c-.39.17-.37-.21-.51-.38.24-.1.47-.04.67.09-.05.1-.11.18-.16.28h0Z"/>
    <path class="cls-50" d="m32.51,3.41c-.3.16-.47.04-.54-.27.18.09.36.18.54.27Z"/>
    <path class="cls-15" d="m29.9,36.46c.25.16.42.34.28.66-.19-.19-.32-.38-.28-.66Z"/>
    <path class="cls-75" d="m28.73,33.52l-.19.24c-.2-.16-.36-.35-.34-.63.17.14.34.27.52.4h.01Z"/>
    <path class="cls-29" d="m27.68,18.91c.13.27.03.49-.15.69-.09-.25,0-.48.15-.69Z"/>
    <path class="cls-29" d="m27.54,19.59c.15.3,0,.52-.19.73-.07-.28.03-.51.19-.73Z"/>
    <path class="cls-29" d="m27.24,20.52c.11.24.02.45-.1.65-.16-.25-.06-.46.1-.65Z"/>
    <path class="cls-29" d="m27.14,21.19c.17.17.3.35.24.61-.2-.16-.31-.35-.24-.61Z"/>
    <path class="cls-29" d="m27.38,21.81c.2.16.35.35.28.63-.19-.16-.31-.36-.28-.63Z"/>
    <path class="cls-29" d="m27.87,22.58l-.05.11-.07.09c-.13-.1-.14-.21-.09-.35.08.05.15.1.22.15h0Z"/>
    <polygon class="cls-182" points="39.64 39.88 39.61 39.99 39.5 39.96 39.54 39.87 39.64 39.88"/>
    <path class="cls-29" d="m27.7,18.53c.07.06.13.11.17.19-.06.07-.12.15-.19.21-.07-.13-.08-.27.02-.39Z"/>
    <path class="cls-5" d="m16.41,25.7c-.16.09-.32.08-.47-.02.16.01.31,0,.47.02Z"/>
    <path class="cls-82" d="m30.71,12.65c-.56-.07-.98-.41-1.41-.72.15-.38.29-.75.45-1.13.14-.34,0-.62-.23-.82-.23-.18-.48-.09-.69.08-.09.06-.16.13-.24.18-.52.35-1.03.42-1.49-.1-.51-.58.06-.9.33-1.28.12-.03.22-.09.32-.18.05-.02.11-.04.17-.07.18-.05.37-.06.55-.1.25-.09.43-.22.48-.49-.03-.4-.45-.64-.41-1.06.16-.2.3-.41.47-.6.34-.33.71-.35,1.11-.09.33.21.51.5.43.9-.05.29-.29.55-.17.87,1.18.91.82,2.35,1.18,3.54.14.48-.25.95-.84,1.06h0Z"/>
    <path class="cls-166" d="m30.71,12.65c.57-.62.92-1.25.12-1.95-.21-.2-.24-.51-.1-.71.5-.77-.14-1.31-.34-1.93.5.64,1.04.12,1.55.04-.29.41-.73.87-.14,1.3.45.35.96.25,1.32-.26.24-.33.53-.46.9-.17-.12.45-.24.92.21,1.29.11.28.14.57.06.87-.05.52.11.79.69.61.19.39-.14.63-.3.91-.63,1.12-.98-.08-1.47-.18-.08-.13-.13-.26-.16-.41-.07-.41.38-.87-.09-1.24-.12-.09-.31-.06-.38.08-.29.6.42.83.49,1.3,0,.25-.12.4-.37.46l-.39.49c-.26.56-.59-.01-.88.07-.08-.06-.17-.11-.26-.16-.26,0-.43-.13-.47-.4h0s.03,0,.03,0Z"/>
    <path class="cls-66" d="m14.91,33.59c.28-.37.62-.54,1.06-.29.38.21.45.59.28.94-.42.85.57,1.12.66,1.74-.12.55-.43.96-.95,1.21h0c-.26,0-.43-.11-.49-.38-.23-.21-.46-.4-.69-.61-.05-.14,0-.22.16-.22.44-.38.33-.86.27-1.34-.05-.37-.51-.61-.31-1.05h0Z"/>
    <path class="cls-87" d="m17.74,20.06c-.31-.25-.65-.48-.92-.78-.31-.35-.23-.73.06-1.09.32-.41.74-.31,1.09-.14.39.18.36.56.22.91-.15.37-.31.73-.48,1.1h0s.01,0,.01,0Z"/>
    <path class="cls-184" d="m18.46,32.59c.26.26.24,1.05-.08,1.26-.38.25-.8.24-1.14-.08-.35-.33-.31-.74-.01-1.11.27-.34.94-.38,1.24-.09h0Z"/>
    <path class="cls-122" d="m14.91,33.59c.12.34.38.65.31,1.05-.28-.2-.52-.52-.93-.26-.21.14-.43.27-.65.37-.45.21-.87.06-1.01-.37-.17-.52.32-.66.69-.83.54-.25,1.06.43,1.6.03Z"/>
    <path class="cls-190" d="m32.42,5.77c.37.36.51.84.24,1.24-.39.59-.91.17-1.34-.04-.44-.22-.33-.58-.1-.9.3-.43.7-.57,1.2-.29h0Z"/>
    <path class="cls-121" d="m16.77,21.26c-.25.36-.31.86-.84,1.02-.37.11-.69.14-.97-.16-.19-.2-.24-.46-.16-.7.12-.4.44-.54.83-.52.41.03.8.11,1.13.37h0s0-.02,0-.02Z"/>
    <path class="cls-85" d="m29.75,4c.33.35.51.72.12,1.06-.36.31-.8.45-1.21.03-.32-.33-.39-.73-.07-1.08.38-.43.8-.28,1.17-.01h0Z"/>
    <path class="cls-53" d="m22.14,10.55c.09-.6.04-1.18-.21-1.73.17-.05.33-.03.49.02.1.02.21.04.32.05.06,0,.11-.01.16-.03.16-.06.31-.15.45-.24.11-.07.22-.12.34-.16.13-.04.26-.04.39-.03.14.02.26.07.39.14.59.47.46.94.02,1.42-.1.09-.21.15-.33.21-.24.05-.48,0-.72-.03-.11,0-.22-.02-.32-.03-.15.02-.3.07-.43.17-.08.07-.17.13-.26.19-.1.03-.21.05-.32.07h.03Z"/>
    <path class="cls-77" d="m22.72,6.67c-.41.32-.77.22-1.09-.07-.4-.36-.45-.79-.05-1.18.35-.34.74-.24,1.07.05.44.38.28.79.07,1.2Z"/>
    <path class="cls-80" d="m22.15,22.41c.36-.29.52-1.01,1.21-.59.54.34.56.8.23,1.32-.17.18-.36.33-.64.29-.37-.03-.6-.22-.72-.57-.06-.06-.14-.13-.21-.18.05-.09.1-.18.14-.26h0Z"/>
    <path class="cls-179" d="m25.53,9.27c.32.33.98.55.57,1.2-.47.72-1.01.46-1.55.04-.08-.01-.16-.02-.24-.04-.07-.16-.06-.31.04-.45.39-.25.37-1.16,1.19-.74h0Z"/>
    <path class="cls-67" d="m18.85,15.65c.27-.46.69-.45,1.15-.19.53.29.29.71.09,1.04-.25.41-.66.47-1.06.22-.42-.26-.52-.6-.17-1.07Z"/>
    <path class="cls-84" d="m21.56,22.69c-.42,1.38-.51,1.42-1.71.66.34-1.21.55-1.29,1.71-.66Z"/>
    <path class="cls-117" d="m28.27,39.09l.71.56-.09.12-.09.12c-.59.26-.9,1.2-1.79.73-.2-.05-.41-.12-.57-.28-.08-.06-.16-.12-.25-.17l-.24-.19c.06-.08.13-.14.19-.21.11-.16.26-.25.42-.35.2-.14.33-.35.46-.55.08-.1.19-.14.33-.14.27.21.51.47.9.34h.03Z"/>
    <path class="cls-81" d="m27.37,8.36c-1.19-.98-1.18-1.24,0-1.93,1.36.83,1.36,1.15,0,1.93Z"/>
    <path class="cls-52" d="m20.69,36.2c-.41.73-.98,1.17-1.88.89l-.12.09c-.1.04-.19.06-.3.06l-.15-.04c-.12-.04-.16-.12-.11-.25,0-.15-.03-.3-.04-.45.27-.58.86-.68,1.37-.91.37-.03.7.1,1.02.27.12.09.19.2.21.35h0Z"/>
    <path class="cls-196" d="m15.21,12.43c.48-.75.8-1.36,1.52-.86.29.21.48.68.14,1.07-.65.75-1.01-.11-1.66-.21h0Z"/>
    <path class="cls-186" d="m23.5,20.69c-.42,0-.6.33-.82.59-.79-.5-.96-1.13-.42-1.93.75.13,1.43.34,1.25,1.34h0Z"/>
    <path class="cls-189" d="m17.79,30.4c.26.37.39.82.08,1.21-.32.4-.74.21-1.06-.08-.38-.34-.29-.74.01-1.06.25-.26.59-.39.97-.08h0Z"/>
    <path class="cls-175" d="m24.76,6.73c-.26-.24-.56-.45-.76-.73-.2-.26-.15-.58.07-.85.23-.25.53-.32.83-.18.37.16.52.47.44.88-.08.37-.37.6-.59.87h0s0,0,0,0Z"/>
    <path class="cls-177" d="m20.78,8.32c.36.3.49.67.23,1.08-.28.42-.7.44-1.07.16-.38-.3-.35-.72-.08-1.09.25-.35.57-.41.92-.14Z"/>
    <path class="cls-185" d="m19.51,35.67c-.3.58-.88.66-1.41.82-.21-.45-.56-.88-.09-1.37.38-.39.8-.35,1.22-.06.2.16.32.34.28.61h0Z"/>
    <path class="cls-190" d="m20.74,33.19c-.27.34-.56.6-1,.26-.46-.35-.37-.8-.1-1.19.23-.34.62-.28.94-.07.42.26.48.6.16,1Z"/>
    <path class="cls-87" d="m22.44,17.11c.75.87.72,1.1-.24,1.78-1.11-1-1.08-1.25.24-1.78Z"/>
    <path class="cls-104" d="m19.93,3.72c.3.41.32.77.03,1.06-.36.35-.75.31-1.07-.06-.27-.3-.27-.67.02-.97.37-.37.74-.22,1.03-.03h0Z"/>
    <path class="cls-190" d="m16.87,39.47c-.2-.16-.41-.24-.67-.12l-.56-1.25c-.02-.14.04-.23.18-.26.07-.07.14-.14.2-.22.27-.17.58-.12.86-.09.15.12.3.25.44.38.23.51-.23.89-.28,1.35l-.17.22h0Z"/>
    <path class="cls-63" d="m20.31,17.78c.38.33.4.73.11,1.07-.25.28-.65.3-.98.09s-.38-.97-.1-1.23c.24-.22.66-.19.98.07h0Z"/>
    <path class="cls-90" d="m24.69,3.85c-.35.41-.67.36-.97.08-.42-.41-.23-.86.06-1.22.21-.26.57-.21.83,0,.43.37.36.78.09,1.14h0Z"/>
    <path class="cls-130" d="m18.21,13.58c.34-.37.71-.37,1.1-.13.34.22.45.54.2.9s-.62.58-1.02.27c-.31-.25-.51-.62-.27-1.04Z"/>
    <path class="cls-176" d="m21.22,11.7c-.22.28-.49.48-.79.2-.37-.34-.44-.81-.2-1.24.17-.31.53-.3.8-.12.48.32.43.74.18,1.15h0Z"/>
    <path class="cls-95" d="m22.03,3.1c.37.41.43.84.2,1.28-.18.34-.49.31-.78.11-.45-.32-.53-.74-.23-1.19.19-.29.51-.29.8-.21h0Z"/>
    <path class="cls-82" d="m25.24,7.13c.27.2.59.39.54.8-.22,1.11-.9,1.02-1.69.64h0c-.07,0-.15-.02-.23-.02-.07-.14-.08-.29-.01-.43.43-.37.6-1.12,1.39-.98h0Z"/>
    <path class="cls-69" d="m5.61,18.38c.21.35.57.71.24,1.18-.18.26-.5.33-.8.17-.29-.15-.48-1.12-.29-1.33.18-.21.59-.23.85-.03h0Z"/>
    <path class="cls-65" d="m10.18,34.34c.28-.51.64-.41,1.02-.14.37.27.38.6.08.92-.41.43-.87.28-1.24-.01-.31-.24-.13-.55.14-.77h0Z"/>
    <path class="cls-186" d="m22.05,34.51c.22-.27.43-.57.83-.59s.68.16.76.57c.1.46-.17.66-.58.69-.25.02-.5-.01-.74-.03-.09,0-.16-.02-.2-.08-.04-.07-.05-.1-.03-.12h0c-.02-.15-.03-.29-.04-.44h0Z"/>
    <path class="cls-97" d="m10.77,31.93c.39.32.31.75.1,1.09-.25.39-.64.19-.91-.02-.24-.19-.66-.39-.25-.81.3-.32.64-.48,1.08-.24h0Z"/>
    <path class="cls-63" d="m13.62,32.16c-.35.45-.73.5-1.12.26-.35-.22-.4-.59-.19-.93.32-.54.72-.13,1.07,0,.39.14.31.45.25.7h0Z"/>
    <path class="cls-67" d="m22.35,10.32c.06-.08.12-.16.18-.24.24-.03.37-.28.61-.3.08.04.16.09.24.14.24,0,.43.24.68.18h0c.12-.03.19-.01.23.05.04.07.03.12.02.14h0c.02.14-.04.23-.19.24l-.6.7c-.14.03-.28.06-.42.08-.52.16-.56-.29-.73-.58-.03-.14-.03-.28-.02-.42h0Z"/>
    <path class="cls-123" d="m8.11,29.92c.36.31.17.57-.02.81-.24.3-.5.52-.9.25-.36-.24-.42-.54-.15-.89.32-.42.71-.25,1.06-.17Z"/>
    <path class="cls-62" d="m20.69,36.2c-.08-.06-.16-.12-.26-.18-.18,0-.3-.09-.36-.25-.4-.62-.15-1.04.42-1.35.41-.11.65.16.91.38,0,.14.03.29.06.42h0c0,.15.02.3,0,.44l-.18.23c-.27-.03-.45.12-.6.3h0Z"/>
    <path class="cls-181" d="m10.04,27.2c.24.39.35.74-.05,1-.33.21-.69.22-.96-.1-.23-.26-.28-.6-.02-.82.32-.27.71-.37,1.03-.08Z"/>
    <path class="cls-183" d="m13.8,37.43c-.75-.38-.81-.95-.2-1.71.47.07.79.31.96.76h0c-.07.46-.32.79-.76.96h0Z"/>
    <path class="cls-180" d="m21.15,15.34c.41-.32.82-.23,1.18.13.2.21.22.46,0,.66-.35.33-.73.3-1.09,0-.27-.21-.38-.48-.09-.8h0Z"/>
    <path class="cls-95" d="m20.41,6.07c.3.34.34.72.03,1.07-.22.26-.52.33-.77.03-.26-.31-.49-.68-.2-1.08.26-.34.61-.23.93-.03h0Z"/>
    <path class="cls-189" d="m22.41,9.19c-.16-.12-.33-.25-.49-.36.11-.43.08-.98.76-.98h.43c.08.05.17.1.25.16.28-.01.44.12.49.39h0c.02.14-.04.23-.2.25-.06.08-.14.14-.2.22-.24.03-.37.28-.61.32h0c-.14,0-.29.01-.42.02h0Z"/>
    <path class="cls-187" d="m20.95,20.92c-.34.24-.69.6-1.19.31-.28-.17-.41-.5-.13-.75.33-.31.76-.54,1.23-.23.26.17.25.41.08.67h.01Z"/>
    <path class="cls-102" d="m16.94,13.98c.25.29.33.65.06.95-.36.43-.75.08-1.08-.08-.26-.13-.29-.42-.02-.6.3-.21.56-.66,1.04-.27Z"/>
    <path class="cls-133" d="m9.09,22.72c.28.3.18.58-.05.82-.26.28-.6.45-.93.16-.32-.28-.25-.65.03-.94.29-.3.63-.26.94-.04h.01Z"/>
    <path class="cls-180" d="m15.05,30.92c.34.31.65.55.34.95-.27.34-.64.32-.95.09-.36-.26-.24-.65-.08-.97.22-.42.5-.11.69-.08h0Z"/>
    <path class="cls-183" d="m14.09,28.81c.29-.41.67-.23.96-.09.32.15.35.49.21.79-.2.43-.56.42-.9.24-.39-.2-.32-.59-.26-.94h0Z"/>
    <path class="cls-187" d="m26.38,4.73c.22-.28.54-.41.83-.24.45.29.34.69.07,1.06-.22.27-.48.41-.77.14-.32-.29-.29-.63-.12-.96Z"/>
    <path class="cls-185" d="m24.26,38.62c.25.2.5.4.75.6-.12.16-.26.31-.39.47-.15,0-.29.04-.43.08-.52.09-.78-.19-.78-.66,0-.57.44-.56.87-.5h0Z"/>
    <path class="cls-124" d="m21.73,13.87c-.34.22-.69.22-.95-.1-.22-.26-.28-.58-.02-.82.31-.28.67-.21.94.09.22.25.25.54.03.83h0Z"/>
    <path class="cls-100" d="m11.54,14.95c.16-.13.31-.5.59-.22.27.27.69.58.27,1.02-.23.25-.56.28-.84.11-.45-.27-.25-.59-.01-.92h0Z"/>
    <path class="cls-134" d="m17.78,4.39c.26.32.13.58-.11.8-.32.31-.68.26-.97.01-.21-.17-.19-.47,0-.68.31-.36.68-.39,1.07-.13Z"/>
    <path class="cls-103" d="m8.5,32.13c.34.22.37.46.23.71-.23.44-.59.52-1.02.3-.29-.14-.28-.42-.16-.65.22-.44.61-.46.95-.36Z"/>
    <path class="cls-76" d="m17.96,20.28c1.02.86,1.02.95-.02,1.54-1.31-.53-.66-1.03.02-1.54Z"/>
    <path class="cls-68" d="m22.6,37.28c.39-1.23.54-1.29,1.6-.59-.41.55-.85.98-1.6.59Z"/>
    <path class="cls-33" d="m6.45,14.55c-.32-.28-.29-.61-.09-.95.13-.21.33-.49.6-.3.35.24.58.62.31,1.04-.17.28-.49.35-.82.22Z"/>
    <path class="cls-46" d="m17.34,9.15c.22-.31.55-.53.9-.32.41.25.38.67.1,1.04-.16.2-.36.38-.6.08-.18-.24-.73-.29-.39-.78h0Z"/>
    <path class="cls-18" d="m5.8,23.21c.31-.36.61-.31.92-.03.21.19.28.43.08.66-.26.3-.61.36-.95.13-.33-.23-.24-.5-.05-.76Z"/>
    <path class="cls-30" d="m8.63,11.68c-.82.03-.63-.5-.42-.88.24-.43.59-.39.98-.05.47.39.1.59-.13.81-.09.08-.27.08-.41.12h0s0,0,0,0Z"/>
    <path class="cls-93" d="m12.65,17.99c-.25.29-.51.39-.79.1-.28-.29-.3-.63-.03-.94.18-.21.44-.2.68-.04.34.25.41.55.15.87h-.01Z"/>
    <path class="cls-98" d="m13.76,14.69c.32-.29.66-.32.97-.08.31.24.18.53-.04.77-.25.28-.52.27-.78.05s-.35-.47-.14-.75h0Z"/>
    <path class="cls-37" d="m8.54,21.39c-.23.16-.49.34-.7.14-.3-.28-.49-.64-.19-1.05.17-.23.45-.34.64-.16.27.28.36.67.26,1.06h0Z"/>
    <path class="cls-71" d="m12.34,26.98c.09.43.07.87-.36,1.16-.17.12-.43.04-.51-.16-.17-.44-.19-.89.31-1.15.17-.08.39-.09.56.15Z"/>
    <path class="cls-127" d="m6.84,15.95c.28-.26.61-.42.93-.12.29.27.09.5-.12.77s-.41.49-.73.28c-.37-.24-.27-.6-.08-.93h0Z"/>
    <path class="cls-105" d="m13.65,22.67c-.23.19-.52.3-.8.07s-.3-.57-.03-.79c.26-.22.62-.49.94-.14.22.24.16.57-.11.86h0Z"/>
    <path class="cls-86" d="m17.93,11.39c.29-.3.62-.43.94-.12.26.24.21.57,0,.83-.23.29-.56.23-.83.08-.35-.2-.27-.5-.1-.79h0Z"/>
    <path class="cls-94" d="m15.15,16.68c.2.38.06.68-.21.93-.26.25-.55.23-.77-.04-.2-.25-.26-.58,0-.81.28-.24.64-.26.98-.09h0Z"/>
    <path class="cls-17" d="m14,10.69c-.32.29-.67.2-.95,0-.3-.21-.18-.56,0-.8.22-.29.53-.22.77-.01s.31.49.18.81Z"/>
    <path class="cls-47" d="m10.11,16.48c-.12.16-.36.24-.5.06-.23-.29-.67-.56-.41-1.03.15-.27.41-.25.66-.1.45.25.42.65.24,1.08h0Z"/>
    <path class="cls-38" d="m17.11,6.61c.23-.27.51-.29.8-.12.32.19.36.46.12.75-.2.25-.46.42-.77.18-.27-.21-.31-.5-.15-.82h0Z"/>
    <path class="cls-188" d="m12.7,29.79c-.19.22-.44.29-.68.18-.39-.2-.41-.55-.21-.89.17-.29.49-.46.75-.25.28.22.26.62.14.97Z"/>
    <path class="cls-64" d="m17.42,17.2c-.28.21-.57.2-.81-.03-.22-.22-.38-.5-.09-.76.27-.23.61-.37.92-.03.24.27.09.55-.03.83h0Z"/>
    <path class="cls-87" d="m15.55,19.15c.2.23.2.46-.02.66-.29.28-.62.3-.94.07-.24-.16-.28-.42-.08-.64.31-.34.68-.37,1.04-.09h0Z"/>
    <path class="cls-60" d="m27.37,8.36c.82-.76,1.06-1.29,0-1.93.53-.14.8.31,1.17.54.35.38.99.53,1,1.2-.62-.06-1.19.08-1.7.41-.07,0-.13.02-.2.03-.08-.08-.17-.16-.24-.24h0Z"/>
    <path class="cls-150" d="m24.3,10.3l-.24-.19c.43-.5.9-1,.04-1.54.67.07,1.35.16,1.69-.64.16.5-.32.87-.26,1.34-.69.02-.85.65-1.23,1.03h0Z"/>
    <path class="cls-120" d="m9.39,25.9c-.24.12-.5.37-.79.13-.27-.22-.22-.54-.02-.79.25-.31.53-.18.77.03.2.17.32.38.04.63h0Z"/>
    <path class="cls-24" d="m13.48,8.4c-.36.25-.66.25-.9.03-.3-.29-.23-.64.01-.93.14-.18.38-.13.51.07.17.27.48.5.38.84Z"/>
    <path class="cls-128" d="m6.88,25.67c.22.24.34.52.02.77-.19.14-.47.35-.67.07-.19-.27-.06-.58.1-.84.15-.22.35-.12.55,0Z"/>
    <path class="cls-119" d="m11.38,10.9c-.26.2-.58.28-.83.06-.21-.18-.15-.47.03-.69.19-.24.43-.26.66-.05.2.18.27.41.14.68Z"/>
    <path class="cls-156" d="m6.36,21.05c.15.3-.03.49-.2.66-.28.27-.57.2-.74-.1-.14-.25.02-.48.27-.59.23-.11.46-.17.67.04h0Z"/>
    <path class="cls-197" d="m7.17,18.29c.19-.29.45-.21.66-.1.26.13.37.37.21.63-.14.23-.39.39-.65.27-.33-.16-.28-.49-.23-.81h0Z"/>
    <path class="cls-191" d="m11.83,13.39c-.28.21-.48.01-.66-.15-.2-.2-.25-.44-.02-.67.18-.18.38-.14.54,0,.25.22.35.49.14.81Z"/>
    <path class="cls-99" d="m10.47,30.12c-.19.29-.43.33-.66.17-.22-.15-.34-.39-.2-.63.14-.26.41-.22.63-.1.24.14.34.35.21.57h.01Z"/>
    <path class="cls-151" d="m17.06,39.25c-.08-.48.05-.93.28-1.35.15-.02.3-.03.44-.06.07.01.13.01.2.03.34.25.6.54.59.99-.53.03-1.16-.35-1.52.39h.01Z"/>
    <path class="cls-169" d="m9.62,13.7c-.19.22-.47.2-.75.07-.19-.1-.32-.27-.18-.48.2-.3.5-.25.78-.12.18.09.31.24.15.53h0Z"/>
    <path class="cls-142" d="m5.14,28.37c.19.13.18.27.1.41-.2.33-.53.44-.89.46-.04,0-.17-.26-.13-.36.16-.43.54-.52.92-.51h0Z"/>
    <path class="cls-72" d="m12.77,20.84c-.11-.1-.25-.18-.31-.31-.13-.3-.45-.64-.11-.94.3-.26.65-.13.95.11.03.47-.16.84-.53,1.14h0Z"/>
    <path class="cls-39" d="m3.95,21.75c.17.32.01.43-.17.53-.24.13-.48.17-.67-.07-.15-.18-.12-.39.08-.51.3-.18.56-.1.77.06h0Z"/>
    <path class="cls-23" d="m14.16,12.98c-.17.13-.37.19-.53.05-.21-.18-.22-.46-.13-.68.13-.27.32-.09.47.02.21.15.34.35.18.61Z"/>
    <path class="cls-147" d="m10.1,20.85c-.11-.24-.21-.51-.03-.72.13-.16.39-.06.56.04.22.11.27.35.13.5-.16.17-.38.33-.66.18h0Z"/>
    <path class="cls-112" d="m16.89,37.54c-.28.13-.57.16-.86.09-.02-.14-.03-.3-.05-.44.32-.4.63-.8.95-1.21.1.24.03.47-.11.68-.25.32-.2.62.09.89h0Z"/>
    <path class="cls-25" d="m15.02,5c.08.12.16.27.02.4-.21.18-.46.26-.67.03-.18-.19-.07-.38.11-.51.2-.15.37-.09.54.09Z"/>
    <path class="cls-44" d="m10.96,8.13c.19.19.11.37-.03.52-.16.18-.38.14-.54,0-.2-.16-.16-.36,0-.51.17-.15.37-.13.56-.01h0Z"/>
    <path class="cls-121" d="m17.96,20.28c-.47.51-.81,1.02-.02,1.54-.54.13-.81-.32-1.17-.56h0c.32-.39.65-.8.97-1.21h-.01c.09.07.17.15.24.22h0Z"/>
    <path class="cls-150" d="m23.85,8.38l-.49-.39c.67-.2.99-.77,1.4-1.26h0c.16.13.32.26.48.4-.65.2-1,.75-1.39,1.25Z"/>
    <path class="cls-58" d="m10.95,24.8c.21-.12.47-.22.67.03.11.13.05.29-.08.38-.19.12-.39.12-.57,0-.14-.11-.15-.25-.01-.4Z"/>
    <path class="cls-61" d="m7.64,28.45c.11.15.05.28-.06.38-.19.18-.42.28-.67.15-.14-.08-.18-.27-.07-.39.22-.25.51-.26.8-.14Z"/>
    <path class="cls-14" d="m12.77,20.84c.06-.43.22-.82.53-1.14.37.75.32.85-.53,1.14Z"/>
    <path class="cls-27" d="m5.31,16.44c.15.12.11.25.01.37-.14.18-.29.43-.58.27-.14-.08-.14-.24-.04-.38.15-.21.33-.35.6-.25h0Z"/>
    <path class="cls-192" d="m3.35,20.03c-.17.11-.37.28-.55.15-.17-.14-.13-.38-.02-.57.1-.18.26-.36.47-.13.12.15.26.32.11.54Z"/>
    <path class="cls-129" d="m15.37,10.16c-.19-.2-.1-.37.05-.53.12-.11.26-.17.4-.04.16.15.22.39.09.55s-.36.15-.55.01h0Z"/>
    <path class="cls-31" d="m4.42,24.23c-.23.39-.52.27-.78.15-.05-.02-.09-.19-.07-.22.19-.24.46-.36.75-.27.07.01.07.25.09.35h0Z"/>
    <path class="cls-57" d="m4.85,26.28c.05.09.14.2.13.23-.19.24-.42.24-.66.11-.06-.04-.14-.2-.11-.24.16-.3.42-.16.65-.1Z"/>
    <path class="cls-150" d="m11.21,23.04c-.14.11-.33.12-.51,0-.13-.11-.17-.26-.04-.39.15-.15.36-.18.53-.04.13.1.15.26.01.43Z"/>
    <path class="cls-185" d="m20.5,34.42c-.42.4-.37.88-.28,1.38-.4-.12-.95-.15-.56-.82.23-.25.42-.59.84-.56Z"/>
    <path class="cls-151" d="m19.66,34.98c-.04.43.28.62.56.82.07.07.15.15.22.22-.4.12-.65-.17-.92-.36-.18-.16-.32-.35-.28-.61.15-.02.29-.05.43-.07h0Z"/>
    <path class="cls-32" d="m10.17,18.04c.12.12.17.26.05.39-.12.12-.27.08-.37-.04-.11-.12-.15-.3-.04-.42.11-.13.26-.04.37.06Z"/>
    <path class="cls-41" d="m6.34,11.6c.12-.09.28-.2.36.02.04.12.02.31-.05.42-.1.15-.27.14-.37-.02-.08-.14-.04-.29.05-.42h0Z"/>
    <path class="cls-112" d="m14.55,36.47l-.96-.76c.5-.16.88.28,1.36.27l-.09.11-.08.12c-.07.09-.16.18-.24.27h0Z"/>
    <path class="cls-112" d="m13.8,37.43l.76-.96c.1.6-.15.93-.76.96Z"/>
    <path class="cls-36" d="m4.93,14.06c.12.11.17.25.09.37-.11.16-.25.08-.36-.03-.07-.06-.14-.2-.11-.25.07-.15.22-.17.37-.1h0Z"/>
    <path class="cls-151" d="m18.13,36.94l.24.19c.02.4-.18.64-.57.72h-.04c-.12-.4.15-.65.36-.92h0Z"/>
    <path class="cls-118" d="m15.38,7.28s-.02.1-.05.1c-.04,0-.1,0-.13-.04-.08-.1-.05-.18.07-.16.04,0,.06.06.09.1h.01Z"/>
    <path class="cls-112" d="m15.48,36.81c.16.13.32.25.49.38-.36.13-.52,0-.49-.38Z"/>
    <path class="cls-150" d="m23.11,7.83h-.43c.14,0,.28,0,.43,0Z"/>
    <path class="cls-112" d="m15.81,37.85c-.05.08-.11.17-.18.26-.09-.18-.04-.27.18-.26Z"/>
    <path class="cls-151" d="m21.46,35.23c-.02-.14-.04-.29-.06-.42.02.14.04.29.06.42Z"/>
    <path class="cls-151" d="m21.47,35.67c0-.14,0-.29,0-.43,0,.14,0,.29,0,.43Z"/>
    <path class="cls-151" d="m22.05,34.51c0,.15.03.29.04.44,0-.15-.03-.29-.04-.44Z"/>
    <path class="cls-151" d="m22.09,34.94c.08.06.16.14.23.21-.21.09-.3.02-.23-.21Z"/>
    <path class="cls-155" d="m24.17,39.79c.15-.02.29-.05.43-.08-.15.02-.29.05-.43.08Z"/>
    <path class="cls-150" d="m22.35,10.32c0,.14.01.28.02.42l-.24-.19c.06-.08.15-.15.21-.23h0Z"/>
    <path class="cls-60" d="m27.85,8.78c-.15.02-.29.05-.43.08l.2-.25h0c.1-.03.17,0,.21.05.04.06.05.1.03.12h0Z"/>
    <path class="cls-150" d="m23.09,11.33c.14-.03.28-.05.42-.08-.12.11-.26.12-.42.08Z"/>
    <path class="cls-150" d="m24.1,10.55l.19-.24c.09.07.17.14.24.21-.15,0-.29.03-.44.04h0Z"/>
    <path class="cls-68" d="m33.9,23.05c-.58,1.28-1.53.65-2.39.45,0-.13-.02-.27-.03-.42-.07-.33.1-.62.19-.92.06-.4-.25-.5-.53-.62-.07-.03-.13-.05-.19-.08-.13-.06-.26-.13-.38-.21-.37-.33-.89-.59-.68-1.25.36-.2.67.04.99.13.28.06.49-.05.62-.3.04-.05.07-.11.1-.16.08-.1.2-.15.33-.16.39-.34.5-1.03,1.23-.97.02.33-.13.63-.19.93-.04.5.46.74.57,1.16-.11.83.41,1.58.35,2.39h0Z"/>
    <path class="cls-168" d="m37.1,18.49l-1.15,1.45c-.87-.05-1.61-.23-1.24-1.38.46-.58.07-1.02-.22-1.5-.2-.35-.03-.69.22-.96.2-.21.44-.24.67-.08.28.2.59.34.58.8-.06,1.25-.05,1.25,1.13,1.69h0s0-.03,0-.03Z"/>
    <path class="cls-143" d="m38.31,8.03c.43.36,1.28.46.62,1.4-.29.42.15.83.55,1.1.32.02.5.18.55.49-.29.93-.71,1.53-1.74.74-.2-.16-.46-.29-.5-.59.45-.51.65-1.12.23-1.68-.49-.66-.08-1.02.29-1.46h0Z"/>
    <path class="cls-165" d="m33.9,23.05c-.39-.74-1.17-1.4-.52-2.37l.06-.22c.14-.08.29-.1.45-.07.45.17.81.44.98.92.04.42-.44.61-.44,1-.25.44-.04.75.3,1.02.31.24.45.51.2.89-.27.41-.58.69-1.09.38-.26,0-.41-.12-.48-.38.23-.37.68-.63.54-1.17h0Z"/>
    <path class="cls-161" d="m39.3,24.17c-.08-.06-.17-.12-.24-.19-.3-.3-.89-.46-.67-1.05.23-.61.7-.39,1.16-.28.42.09.82-.1,1.09-.42.36-.42.68-.36,1.04-.06.21.18.33.4.19.68-.19.36-.43.85-.9.59-.97-.54-1.25.25-1.69.75h0s.02,0,.02,0Z"/>
    <path class="cls-67" d="m38.29,11.59c.97.83,1.18-.29,1.68-.66.24-.08.41.2.64.15l.49.39c-.07.29-.04.57.09.84-.13.16-.24.33-.36.5l-.09.12-.09.12h0c-.21.02-.39.16-.61.17-.43-.04-.85-.1-1.19-.41-.16-.41-.4-.77-.77-1.01-.03-.17.04-.25.22-.2h0Z"/>
    <path class="cls-189" d="m34.8,21.4l-1.21-.96c-.1-.5.03-.96.3-1.38.3-.13.61-.23.82-.51-.07.89.86.9,1.24,1.38h0c0,.79-.39,1.28-1.16,1.46h0Z"/>
    <path class="cls-114" d="m38.29,11.59c-.07.06-.15.12-.22.2-.53-.19-.84.24-1.24.42-.36.17-.71.05-.94-.28-.15-.22-.16-.48-.01-.72.21-.36.54-.47.92-.33.33.12.59.43.99.3.17.14.33.28.5.42h0Z"/>
    <path class="cls-160" d="m29.53,17.6c.19-.24.39-.49.56-.73,0-.15.06-.22.21-.23h0c.46.07.79.33.96.76-.11.31-.21.61-.31.93,0,.14.01.28.04.42.06.07.13.14.2.2.04.14,0,.24-.13.31-.13,0-.26-.01-.38-.06-.11-.06-.21-.13-.31-.22-.09-.08-.16-.18-.23-.29-.17-.26-.42-.41-.67-.56-.09-.07-.14-.18-.14-.31h0c-.02-.14.05-.22.19-.24v.02Z"/>
    <path class="cls-54" d="m36.61,6.71l-.09.12-.09.12c-.25.34-.51.63-1.01.48-.34-.1-.77-.15-.7-.63.07-.43.39-.73.86-.7.42.03.72.35,1.03.6h0Z"/>
    <path class="cls-53" d="m34.77,13.52c.45.36.89.74.41,1.36-.26.33-.63.33-.94.09-.63-.5-.25-.96.09-1.41.13-.15.29-.05.44-.04h0Z"/>
    <path class="cls-166" d="m38.84,12.79c.5-.14.95.05,1.38.28.1.15,0,.3.02.45-.22.26-.41.55-.84.51-.81-.06-.95-.35-.56-1.24h0Z"/>
    <path class="cls-115" d="m36.68,9.6c-.26.36-.57.57-.99.24-.27-.22-.33-.47-.15-.78.26-.42.83-.54,1.15-.25.28.26.18.53-.02.79h0Z"/>
    <path class="cls-164" d="m33.89,19.06c.28.54.03.97-.3,1.38h0c-.55-.13-.95-.46-1.21-.96.26-.3.53-.62.79-.92.24.16.48.33.73.5h0Z"/>
    <path class="cls-53" d="m37.58,14.37c-.24.31-.51.48-.89.2-.35-.27-.38-.55-.1-.89.33-.39.76-.29,1.08-.07.35.24.07.53-.1.76h.01Z"/>
    <path class="cls-160" d="m36.19,20.17c.15.12.31.24.46.35.03.24.29.37.29.62-.36.6-.78,1.03-1.47.39-.38-.79.24-1.04.72-1.37h0Z"/>
    <path class="cls-158" d="m33.27,16.69c.27.28.36.61.09.94-.31.39-.62.17-.9-.05-.31-.24-.51-.53-.16-.88.29-.29.63-.25.97-.01Z"/>
    <path class="cls-162" d="m37.99,16.34c-.27.44-.67.4-1.06.24-.43-.17-.29-.46-.1-.71.25-.35.52-.65.98-.31.28.21.39.46.17.78Z"/>
    <path class="cls-167" d="m33.15,28.4c.27.21.38.45.18.77-.27.42-.64.49-1.03.22-.32-.21-.2-.53-.03-.79.22-.34.5-.48.87-.2h0Z"/>
    <path class="cls-50" d="m36.11,22.9c.41-.3.66.05.91.26.22.17.28.43.08.67-.3.35-.69.21-.97.02-.4-.27-.14-.62-.02-.95Z"/>
    <path class="cls-55" d="m38.87,20.32c.32.32.23.63-.05.9-.26.27-.54.17-.78-.05-.34-.31-.22-.62.05-.9.26-.27.54-.18.79.04Z"/>
    <path class="cls-149" d="m31.45,13.19c.3-.02.59-.05.88-.07.16.25.28.53.46.75.75.92.73,1-.43,1.62.07-.6-.09-1.01-.8-.98-.14-.43.45-.93-.12-1.32Z"/>
    <path class="cls-53" d="m31.56,14.51c.32-.32.62-.76,1.11-.27.56.56-.05.87-.31,1.25-.34-.27-.83-.42-.8-.98Z"/>
    <path class="cls-53" d="m37.48,25.51c.27.24.31.5.05.76-.3.28-.64.27-.93,0-.21-.2-.17-.45,0-.67.26-.36.56-.36.89-.09Z"/>
    <path class="cls-54" d="m35.56,29.09c-.3.36-.59.26-.84.06s-.38-.5-.18-.81.51-.31.81-.15c.43.24.27.6.21.89Z"/>
    <path class="cls-161" d="m37.1,18.5c.22-.27.4-.57.8-.6.26-.02.49.04.63.3.11.2.05.39-.06.55-.15.21-.36.38-.63.24s-.49-.33-.74-.5h0s0,.01,0,.01Z"/>
    <path class="cls-52" d="m34.22,10.26c-.46.12-.83-.06-.93-.5-.13-.53.42-.59.74-.78.61.34.67.77.21,1.29h0Z"/>
    <path class="cls-52" d="m40.26,24.94l.24.19-.09.12-.09.12c-.37.04-.44.51-.81.57-.4.12-.64-.14-.9-.37.17-.8.59-1.15,1.41-.8.08.05.17.11.26.18h0Z"/>
    <path class="cls-53" d="m34.98,11.73l-.27.34c-.2.21-.41.5-.74.27-.42-.29-.14-.6.05-.88.09-.12.19-.24.27-.34.23.21.46.4.69.61Z"/>
    <path class="cls-159" d="m40.35,15.91c-.14.17-.28.34-.43.5-.22-.2-.52-.39-.47-.73.05-.32.25-.63.59-.58.48.07.51.42.31.8Z"/>
    <path class="cls-83" d="m34.77,13.52c-.15,0-.29.03-.44.04-.49-.39-.95-.85-1.63-.91.12-.16.24-.33.36-.5h0c.51.24.83,1.13,1.6.49.03.3.06.58.09.88h.01Z"/>
    <path class="cls-157" d="m36.19,20.17c-.3.43-.86.71-.72,1.37-.42.15-.76.42-1.04.77-.11-.39.15-.64.36-.91l1.16-1.46c.09.07.16.15.24.23Z"/>
    <path class="cls-193" d="m40,24.77c-.67-.09-1.08.28-1.41.8-.15-.65.45-.95.7-1.4h-.01s.72.6.72.6Z"/>
    <path class="cls-82" d="m30.71,12.63c.16.13.31.26.47.4-.41.17-.76.42-1.03.78-.1-.53.32-.81.55-1.18h0Z"/>
    <path class="cls-148" d="m31.26,17.41l-.96-.76c.59-.09.92.16.96.76Z"/>
    <path class="cls-68" d="m32.42,25.39c-.09-.58.16-.89.75-.94l-.75.94Z"/>
    <path class="cls-193" d="m39.5,25.93c.21-.28.39-.6.81-.57-.21.28-.38.59-.81.57Z"/>
    <path class="cls-186" d="m40.47,19.2c.15.4-.13.64-.34.91-.15-.4.14-.64.34-.91Z"/>
    <path class="cls-186" d="m39.93,18.4c.24.19.49.38.74.56h0c-.08.07-.14.15-.2.24-.25-.21-.57-.39-.54-.8h0Z"/>
    <path class="cls-148" d="m31.04,19.2c.06-.08.1-.16.16-.25.25.2.5.38.76.57l-.19.24c-.4.01-.64-.18-.71-.57h0Z"/>
    <path class="cls-157" d="m36.95,21.15c-.18-.16-.31-.36-.29-.62.21.15.37.33.29.62Z"/>
    <path class="cls-68" d="m33.36,24.21l.48.38c-.25.11-.46,0-.66-.14l.18-.23h0Z"/>
    <path class="cls-174" d="m40.25,13.52c0-.15-.01-.3-.02-.45.13,0,.27-.02.42-.03-.13.16-.26.33-.4.49h0Z"/>
    <path class="cls-148" d="m30.06,16.45c-.17-.14-.32-.28-.5-.42.25-.08.47.02.69.15-.07.09-.13.18-.19.27h0Z"/>
    <path class="cls-148" d="m30.61,15.73c-.09-.26,0-.48.14-.68.14.26.03.48-.14.68Z"/>
    <path class="cls-148" d="m30.99,18.75c-.1-.13-.12-.27-.04-.42.02.14.02.27.04.42Z"/>
    <path class="cls-174" d="m41.74,14.66c0,.14,0,.28,0,.43,0-.14,0-.28,0-.43Z"/>
    <path class="cls-148" d="m30.3,16.65c-.06.08-.12.16-.21.23-.02-.14-.02-.28-.03-.42l.24.19Z"/>
    <path class="cls-43" d="m19.66,30.52c0-.08-.04-.19,0-.23.1-.13.24-.11.32.03.03.06-.02.19-.07.24-.05.03-.15-.02-.23-.03h0Z"/>
    <path class="cls-186" d="m40.67,18.97c.2-.24.37-.51.6-.7.45-.34.89-.2,1.21.22.29.38.2.83-.11,1.12-.31.29-.77.34-1.13.05-.24-.19-.38-.47-.57-.71h0s0,.02,0,.02Z"/>
    <path class="cls-180" d="m27.01,28.24c-.27.13-.54.17-.84.09.03-.42-.3-.6-.57-.83-.33-.3-.54-.66-.21-1.04.23-.27.58-.44.94-.27.4.17.66.49.57.95-.07.38-.32.76.08,1.1h0Z"/>
    <path class="cls-54" d="m32.23,22.14l-.75.95c-.25-.18-.49-.36-.74-.55-.5-.7,0-.96.54-1.19h0c.45.11.8.33.95.79Z"/>
    <path class="cls-148" d="m31.28,21.35c-.23.38-.68.65-.54,1.19-.34.11-.64.36-1.03.33.13-.16.25-.34.37-.5,0-.65.32-1.06.96-1.21l.24.19h0Z"/>
    <path class="cls-137" d="m22.22,22.86l.72.57c-.48.12-.72-.07-.72-.57Z"/>
    <path class="cls-83" d="m20.45,38.01c-.31-.87-.22-1.02.91-1.65.47.34.86.72.48,1.35-.35.57-.83.63-1.39.3h0Z"/>
    <path class="cls-151" d="m20.01,40.02c-.02-.15-.05-.29-.07-.44.11.14.13.28.07.44Z"/>
    <path class="cls-80" d="m26.44,40.35c.14-.02.29-.03.44-.05.95.35.98.79.16,1.35-.28.15-.57.19-.87.09-.6-.6.04-.95.28-1.38Z"/>
    <path class="cls-155" d="m27.03,41.65c.47-.51.42-.96-.16-1.35.72.1.88.06,1.93-.42-.25.41-.87.75-.28,1.35-.55-.04-.99.28-1.48.42h-.01Z"/>
    <path class="cls-155" d="m27.1,36.57c-.14.16-.27.31-.41.47-.08-.35.03-.52.41-.47Z"/>
    <path class="cls-174" d="m40.63,11.08c-.25.09-.45,0-.64-.15l-.5-.4c.24-.1.45-.02.65.13.16.13.33.28.49.41Z"/>
    <path class="cls-50" d="m28.01,30.95c0-.55-.49-.71-.8-1,.19-.24.37-.47.56-.72.66.15.94.63.84,1.43,0,.15.03.3.03.46-.06.08-.12.15-.17.23.02.15-.03.25-.17.29-.15-.02-.23-.09-.23-.24-.02-.15-.04-.3-.07-.45h0Z"/>
    <path class="cls-148" d="m29.53,17.6l-.19.24-.24-.19c.15-.02.29-.04.43-.06h0Z"/>
    <path class="cls-88" d="m26.59,39.71c-.15.02-.29.04-.43.06-.22-.21-.47-.4-.64-.65-.21-.31,0-.57.21-.81.21-.26.47-.42.79-.22.3.19.57.42.86.63l-.09.12-.09.12c-.05.37-.24.61-.59.74h0Z"/>
    <path class="cls-164" d="m28.88,21.41c-1.4-1.05-1.07-.85-.49-2.36h-.01c1.36.78,1.47,1.29.49,2.36h0s0,0,0,0Z"/>
    <path class="cls-81" d="m28.86,21.42c.67-.96.15-1.67-.49-2.36l.97-1.22.24.19c.37.05.61.26.77.6.07.06.13.13.19.21.07.34-.03.64-.18.93-.07.11-.17.18-.3.21-.05.7.63.83.98,1.21l-.96,1.21c-.41-.32-.81-.64-1.21-.96Z"/>
    <path class="cls-89" d="m17.82,37.85l.57-.72h0c.15,0,.29-.03.44-.05h0c.6.54.61,1.19.02,1.96-.08-.06-.16-.12-.25-.17-.37-.26-.61-.6-.76-1.02h-.01Z"/>
    <path class="cls-50" d="m28.28,31.59l.18-.23c1.03.93,1.03.98-.07,1.55-.21-.2-.44-.39-.66-.59.11-.16.22-.32.33-.48,0-.16.07-.24.22-.25h0Z"/>
    <path class="cls-194" d="m28.28,31.59c-.07.09-.14.17-.22.25,0-.14,0-.29,0-.43.07.06.15.12.21.18Z"/>
    <path class="cls-53" d="m27.85,8.78c-.08-.06-.16-.12-.24-.18.62-.74,1.26-.89,1.92-.44-.32.4-.52,1.03-1.24.61-.14,0-.29-.02-.43,0h-.01Z"/>
    <path class="cls-60" d="m27.86,8.78c.14,0,.28,0,.43-.01-.14,0-.28,0-.43.01Z"/>
    <path class="cls-83" d="m33.08,12.15c-.29-.08-.62-.08-.83-.34-.36-.44-.44-.95-.08-1.39s.79-.3,1.21-.01c.57.4.48.81.09,1.27-.12.16-.25.32-.39.47h0Z"/>
    <path class="cls-150" d="m24.05,10.1c-.27.12-.48,0-.68-.18.26-.09.48.02.68.18Z"/>
    <path class="cls-150" d="m23.13,9.78c-.16.2-.34.33-.61.3.15-.22.33-.37.61-.3Z"/>
    <path class="cls-150" d="m22.85,9.16c.16-.2.34-.34.61-.32-.15.22-.33.37-.61.32Z"/>
    <path class="cls-150" d="m22.41,9.19c.14,0,.28-.02.42-.02-.14,0-.28.02-.42.02Z"/>
    <path class="cls-150" d="m23.66,8.62l.2-.25.24.19c-.14.02-.29.04-.44.05h0Z"/>
    <path class="cls-155" d="m26.59,39.71l.59-.74c.1.49-.1.72-.59.74Z"/>
    <path class="cls-151" d="m18.81,37.08c-.14.02-.3.03-.44.05.14-.02.3-.03.44-.05Z"/>
    <path class="cls-45" d="m8.63,11.68c0-.07-.02-.14-.02-.2,0,.07.02.13.04.21h-.01s0,0,0,0Z"/>
    <path class="cls-51" d="m30.05,19.95c.06-.07.1-.15.15-.22.04-.37.23-.61.58-.73l.26.21.71.57h0c-.08.46-.32.79-.77.96-.31-.25-.61-.51-.93-.78Z"/>
    <path class="cls-148" d="m32.38,19.47l1.21.96c-.07.09-.15.15-.21.24-.34-.39-.99-.52-.99-1.2h0Z"/>
    <path class="cls-148" d="m30.98,20.72l.76-.96c.09.59-.14.93-.76.96Z"/>
    <path class="cls-148" d="m32.23,22.14c-.32-.25-.63-.53-.94-.79.58-.06.93.16.94.79Z"/>
    <path class="cls-148" d="m30.78,19l-.58.73c-.14-.39.13-.63.33-.91l.24.19h0Z"/>
    <path class="cls-148" d="m30.35,18.61c-.25-.2-.51-.4-.77-.6.48-.09.73.11.77.6Z"/>
  </g>
</svg>