<?xml version="1.0" encoding="UTF-8"?>
<svg id="_圖層_2" data-name="圖層 2" xmlns="http://www.w3.org/2000/svg" viewBox="0 0 60.75 55.38">
  <defs>
    <style>
      .cls-1 {
        fill: #59bfc7;
      }

      .cls-1, .cls-2, .cls-3 {
        stroke-width: 0px;
      }

      .cls-2 {
        fill: #1d1d1b;
      }

      .cls-3 {
        fill: #fff;
      }
    </style>
  </defs>
  <g id="_圖層_2-2" data-name=" 圖層 2">
    <path class="cls-3" d="M59.07,25.66c-1.78-2.55-4.57-4.08-7.48-4.08-1.06,0-2.09.2-3.15.63-.83.35-1.66.69-2.49,1.04.05-1.88-.35-3.98-1.62-6.18-1.53-2.77-4.7-4.62-7.93-4.62-.36,0-.72.02-1.08.07.02-.04.04-.08.05-.12,1.32-2.73,1.16-5.86-.43-8.39-1.57-2.51-4.26-4-7.18-4-1.35,0-2.67.32-3.99.97l-2.05,1.05c-5.59,2.86-11.37,5.83-16.78,9.99-.01.01-.03.02-.04.03l-.25.13c-.58.31-1.16.61-1.73.92C.71,14.27-.43,16.76.15,19.2c.6,2.52,2.81,4.28,5.38,4.28.15,0,.31,0,.46-.02,1.13.68,2.44,1.07,3.79,1.07.88,0,1.73-.16,2.53-.47-.09.37-.19.74-.28,1.11-.6,2.3-.21,4.74.98,6.78.08.94.38,1.85.91,2.66,1.12,1.72,3.13,2.79,5.24,2.79.83,0,1.63-.16,2.38-.48.03-.01.5-.23.7-.32-.04.26-.08.53-.12.79-.27,1.8,0,3.7.71,5.42-.05,1.21.26,2.43.92,3.5,1.12,1.8,3.03,2.88,5.13,2.88,1,0,1.99-.25,2.88-.73.79-.1,1.58-.31,2.35-.64,1.21-.51,2.44-1.02,3.66-1.52.17,1.55.77,3,1.76,4.2.65.79,1.45,1.44,2.36,1.95.22.37.48.71.78,1.03,1.14,1.21,2.77,1.91,4.48,1.91,3.04,0,5.54-2.04,6.16-4.84.31-.36.59-.75.83-1.15,2.31-3.85,3.64-8.05,4.92-12.11.39-1.25.79-2.48,1.2-3.68.92-2.56.47-5.52-1.21-7.94Z"/>
    <g id="OBJECTS">
      <g>
        <path class="cls-1" d="M50.37,26.82c-4.3,1.8-8.7,3.6-13,5.4.6-1.5,1.3-3,2.1-4.5,1.5-2.8,2.2-5.3.5-8.2-.8-1.5-3-2.5-4.6-1.9-3,1.1-5.9,2.3-8.9,3.4,1.2-3.7,2.7-7.2,4.4-10.8,1.5-3.1-1.6-6.4-4.8-4.8-6.2,3.2-12.4,6.2-18,10.5-2,1.6.6,4.4,2.6,3.4,3.4-1.7,6.7-3.4,10.2-4.9-1.7,3.9-3,7.9-4,12-.7,2.7,1.9,5.8,4.8,4.8,2.7-.9,5.4-1.9,8.1-2.9-.3.6-.5,1-.5,1.2-1.1,2.8-1.8,5.7-2.2,8.6-.4,2.7,1.8,6.5,5.1,5.1,4-1.7,8.1-3.3,12.2-5-.7,2.2-1.3,4.4-1.6,6.7-.5,4,5.3,4.9,7.1,1.9,2.7-4.5,4-10,5.7-14.9,1-2.7-2.2-6.3-5.2-5.1h0Z"/>
        <path class="cls-2" d="M51.47,29.22c-6.8,3.7-13.6,7.4-20.4,11.1,2.6-6,4.8-12.2,6.7-18.5.2-.9-.8-1.7-1.6-1.2-5,3.2-10.1,6.1-15.4,8.7,2.6-7.3,5.1-14.6,7.2-22,.2-.8-.6-1.4-1.3-1-7.1,3.8-14.4,7.4-21.4,11.2-.6.3-.1,1.2.5.9,6.7-3.1,13.2-6.4,19.9-9.6-2.4,7.5-4.9,14.9-7.6,22.3-.4.9.8,1.5,1.5,1.2,5.3-2.4,10.4-5.2,15.4-8.2-2,6.3-4.3,12.4-7,18.4-.5,1,.5,2.1,1.5,1.5,6.8-3.6,13.6-7.3,20.4-11-2,5.2-3.3,10.6-3.8,16.2-.1,1.6,2.3,1.5,2.4,0,.5-6.4,2.1-12.4,4.8-18.3.3-1.2-.7-2.3-1.8-1.7h0Z"/>
      </g>
    </g>
  </g>
</svg>