<?xml version="1.0" encoding="UTF-8"?>
<svg id="_圖層_2" data-name="圖層 2" xmlns="http://www.w3.org/2000/svg" viewBox="0 0 79.66 40.06">
  <defs>
    <style>
      .cls-1 {
        fill: none;
        stroke: #543c1a;
        stroke-linecap: round;
        stroke-linejoin: round;
        stroke-width: 2.25px;
      }

      .cls-2 {
        fill: #b4d1e2;
      }

      .cls-2, .cls-3 {
        stroke-width: 0px;
      }

      .cls-3 {
        fill: #fff;
      }
    </style>
  </defs>
  <g id="_圖層_2-2" data-name=" 圖層 2">
    <path class="cls-3" d="M74.69,21.09c-.53-.6-1.1-1.16-1.69-1.64-.32-.27-.66-.52-1.01-.76-1.08-.74-2.26-1.32-3.51-1.72-.39-.13-.8-.24-1.19-.33-.5-7.92-5.45-13.64-13.78-15.82-2.11-.55-4.16-.82-6.1-.82-7.92,0-12.88,4.51-15.54,8.82-1.07-.21-2.26-.36-3.51-.36-3.3,0-8.92,1.04-12.6,7.36-5.35.12-9.63,1.94-12.42,5.26C.31,24.69-.66,29.69.44,35.93c.42,2.39,2.5,4.13,4.92,4.13h69.3c1.34,0,2.63-.54,3.57-1.5s1.46-2.26,1.43-3.6c-.02-.86-.3-8.58-4.97-13.87Z"/>
    <g id="OBJECTS">
      <g>
        <g>
          <path class="cls-3" d="M5.36,35.06h69.3s-.3-15.3-12.7-13.7c0,0,3.3-12.3-9.7-15.7-14.3-3.7-17.7,9.3-17.7,9.3,0,0-11.3-6-15.7,6,.1.1-16.5-2.9-13.5,14.1h0Z"/>
          <path class="cls-2" d="M31.26,35.06h43.4s-.3-15.3-12.7-13.7c0,0,.4-1.4.4-3.4-1.3,2-1.7,3.8-1.7,3.8,0,0-11.3-6-15.7,6,0,0-11.8-2.2-13.7,7.3Z"/>
        </g>
        <path class="cls-1" d="M5.36,35.06h69.3s-.3-15.3-12.7-13.7c0,0,3.3-12.3-9.7-15.7-14.3-3.7-17.7,9.3-17.7,9.3,0,0-11.3-6-15.7,6,.1.1-16.5-2.9-13.5,14.1h0Z"/>
      </g>
    </g>
  </g>
</svg>