<?xml version="1.0" encoding="UTF-8"?>
<svg id="_圖層_2" data-name="圖層 2" xmlns="http://www.w3.org/2000/svg" viewBox="0 0 147.85 55.06">
  <defs>
    <style>
      .cls-1 {
        fill: #f7be29;
      }

      .cls-1, .cls-2 {
        stroke-width: 0px;
      }

      .cls-2 {
        fill: #1d1d1b;
      }
    </style>
  </defs>
  <g id="OBJECTS">
    <g>
      <path class="cls-1" d="m131.14,4.39c-2.93,5.21-5.63,10.53-8.13,15.94-4.44-4.96-8.89-9.93-13.33-14.89-4.06-4.54-11.02-2.7-14.04,1.81l-10.69,15.94c-4.09-4.32-7.91-8.89-11.4-13.74-3.07-4.27-9.96-6.56-14.01-1.8-5.24,6.16-10.48,12.31-15.73,18.47-2.51-2.92-5.03-5.83-7.54-8.75-4.53-5.25-10.55-10.32-17.76-6.15-5.24,3.03-8.14,10.43-10.78,15.58C4.6,32.93,1.13,39.77.07,46.64c-.85,5.55,6.17,11.82,10.75,6.26,3.69-4.48,6.35-9.61,9.39-14.54,1.45-2.36,2.87-4.74,4.35-7.08.1-.15.2-.3.29-.45,1.18,1.55,2.29,3.13,3.25,4.25,3.15,3.66,6.3,7.32,9.45,10.98,2.97,3.45,9.64,3.47,12.59,0,5.12-6.01,10.25-12.02,15.37-18.03,4.49,5.43,9.3,10.58,14.51,15.38,4.42,4.07,10.74,3.08,14.02-1.81,3.43-5.11,6.87-10.22,10.3-15.33,5,5.59,10,11.18,15,16.77,4.91,5.49,12.69,1.85,14.96-3.95,3.47-8.85,7.63-17.38,12.3-25.65,5.68-10.06-9.81-19.11-15.48-9.05Z"/>
      <path class="cls-2" d="m136.81,10.91c-6.28,7.26-11.21,15.35-14.78,24.21-4.96-7.41-10.34-14.49-16.18-21.22-.43-.49-1.37-.49-1.8,0-6.28,7.26-12.56,14.52-18.85,21.78-5.34-7.41-10.97-14.59-16.81-21.62-.39-.47-1.27-.44-1.66,0-7.45,8.36-14.9,16.73-22.34,25.11-5.97-8.18-13.14-15.51-21.55-21.2-.35-.23-.93-.09-1.12.29-4.45,9.17-9.25,18.17-13.79,27.3-.25.5.48.94.76.44,4.72-8.66,9.21-17.46,13.99-26.08,7.91,6.31,14.84,13.25,20.66,21.59.39.56,1.25.81,1.77.23,7.48-8.34,14.95-16.7,22.41-25.05,5.77,7.01,11.24,14.25,16.51,21.65.44.61,1.41.92,1.99.26,6.31-7.28,12.61-14.56,18.92-21.84,5.9,6.89,11.33,14.12,16.29,21.72.63.97,1.95.73,2.33-.31,3.48-9.38,8.52-17.88,15.07-25.45,1.08-1.24-.73-3.06-1.81-1.81Z"/>
    </g>
  </g>
</svg>