<?xml version="1.0" encoding="utf-8"?>
<!-- Generator: Adobe Illustrator 28.1.0, SVG Export Plug-In . SVG Version: 6.00 Build 0)  -->
<svg version="1.1" xmlns="http://www.w3.org/2000/svg" xmlns:xlink="http://www.w3.org/1999/xlink" x="0px" y="0px"
	 viewBox="0 0 147.9 55.1" style="enable-background:new 0 0 147.9 55.1;" xml:space="preserve">
<style type="text/css">
	.st0{fill:#FFFFFF;stroke:#543C1A;stroke-miterlimit:10;}
	.st1{fill:#F7BE29;}
	.st2{fill:#1D1D1B;}
</style>
<g id="outer">
</g>
<g id="main">
	<g>
		<path class="st0" d="M154.5,0.9C151-5.1,144.3-9,137.4-9c-6.6,0-12.5,3.5-15.8,9.5c-0.1,0.2-0.2,0.4-0.3,0.5
			c-0.5,0.9-1,1.8-1.5,2.7l-3.5-3.9c-3.4-3.8-8.2-6-13.3-6c-6.5,0-12.8,3.4-16.5,8.9l-3.4,5c-0.8-1-1.6-2.1-2.3-3.1
			C77-0.7,70.7-4,64.4-4C59.2-4,54.4-1.8,51,2.2c-2.7,3.2-5.4,6.4-8.2,9.6C38.8,7,32.2,0.7,23,0.7c-3.6,0-7,1-10.4,2.9
			C5.6,7.6,1.9,15.3-0.9,20.8c-0.4,0.8-0.8,1.6-1.2,2.4c-3.3,6.4-7.3,14.3-8.6,22.9c-0.8,4.9,0.8,10,4.2,14
			c3.2,3.8,7.7,5.9,12.3,5.9c4.5,0,8.8-2.1,11.8-5.8c3-3.7,5.3-7.5,7.5-11.2l3.9,4.5c3.3,3.9,8.4,6.1,13.9,6.1
			c5.5,0,10.6-2.2,13.9-6.1l7.9-9.3c2.5,2.6,5,5.1,7.6,7.5c3.6,3.3,8.3,5.2,13,5.2c6.4,0,12.4-3.3,16.1-8.8l3.1-4.6l6.4,7.2
			c3.5,3.9,8.2,6,13.2,6c0,0,0,0,0,0c7.9,0,15.5-5.4,18.5-13c3.2-8.1,7-16.1,11.7-24.4C157.8,13.4,157.8,6.6,154.5,0.9z"/>
		<g>
			<g id="OBJECTS">
				<g>
					<path class="st1" d="M130.3,5.4c-2.9,5.2-5.6,10.5-8.1,15.9c-4.4-5-8.9-9.9-13.3-14.9c-4.1-4.5-11-2.7-14,1.8L84.1,24.2
						c-4.1-4.3-7.9-8.9-11.4-13.7c-3.1-4.3-10-6.6-14-1.8C53.4,14.8,48.2,21,42.9,27.1c-2.5-2.9-5-5.8-7.5-8.8
						C30.9,13.1,24.8,8,17.6,12.2c-5.2,3-8.1,10.4-10.8,15.6c-3.1,6.1-6.6,13-7.7,19.8c-0.9,5.5,6.2,11.8,10.7,6.3
						c3.7-4.5,6.4-9.6,9.4-14.5c1.5-2.4,2.9-4.7,4.4-7.1c0.1-0.1,0.2-0.3,0.3-0.5c1.2,1.6,2.3,3.1,3.2,4.3c3.1,3.7,6.3,7.3,9.4,11
						c3,3.5,9.6,3.5,12.6,0c5.1-6,10.2-12,15.4-18c4.5,5.4,9.3,10.6,14.5,15.4c4.4,4.1,10.7,3.1,14-1.8c3.4-5.1,6.9-10.2,10.3-15.3
						c5,5.6,10,11.2,15,16.8c4.9,5.5,12.7,1.8,15-4c3.5-8.9,7.6-17.4,12.3-25.7C151.4,4.4,135.9-4.7,130.3,5.4L130.3,5.4z"/>
					<path class="st2" d="M135.9,11.9c-6.3,7.3-11.2,15.3-14.8,24.2c-5-7.4-10.3-14.5-16.2-21.2c-0.4-0.5-1.4-0.5-1.8,0
						c-6.3,7.3-12.6,14.5-18.8,21.8c-5.3-7.4-11-14.6-16.8-21.6c-0.4-0.5-1.3-0.4-1.7,0C58.4,23.4,51,31.8,43.5,40.2
						C37.5,32,30.4,24.7,22,19c-0.4-0.2-0.9-0.1-1.1,0.3c-4.4,9.2-9.2,18.2-13.8,27.3c-0.2,0.5,0.5,0.9,0.8,0.4
						c4.7-8.7,9.2-17.5,14-26.1c7.9,6.3,14.8,13.3,20.7,21.6c0.4,0.6,1.2,0.8,1.8,0.2c7.5-8.3,15-16.7,22.4-25.1
						c5.8,7,11.2,14.2,16.5,21.7c0.4,0.6,1.4,0.9,2,0.3c6.3-7.3,12.6-14.6,18.9-21.8c5.9,6.9,11.3,14.1,16.3,21.7
						c0.6,1,1.9,0.7,2.3-0.3c3.5-9.4,8.5-17.9,15.1-25.5C138.8,12.5,137,10.7,135.9,11.9L135.9,11.9z"/>
				</g>
			</g>
		</g>
	</g>
</g>
</svg>
