<?xml version="1.0" encoding="UTF-8"?>
<svg id="_圖層_2" data-name="圖層 2" xmlns="http://www.w3.org/2000/svg" viewBox="0 0 190.09 96.03">
  <defs>
    <style>
      .cls-1 {
        fill: #1d1d1b;
      }

      .cls-1, .cls-2 {
        stroke-width: 0px;
      }

      .cls-2 {
        fill: #f0a3a3;
      }
    </style>
  </defs>
  <g id="OBJECTS">
    <g>
      <path class="cls-2" d="m179.23,17.95c-10.94-13.05-30.16-17.35-46.08-12.01-7.73,2.6-14.65,7.08-19.74,13.5-2.35,2.96-4.45,6.11-7,8.91-1.41,1.55-2.35,2.82-3.84,1.84-2.66-1.75-4.2-6.28-5.93-8.86-2.65-3.95-5.75-7.68-9.4-10.75C80.04,4.53,71.07.14,61.5,0c-8.3-.12-17.46,3.84-21.28,11.55-2.06,4.15-2.12,8.83-.7,13.19.59,1.83,1.48,3.58,2.37,5.29-2.33-.1-4.65-.26-6.98-.3-5.36-.1-10.98.27-16.08,2.03C9.58,34.95,1.62,42.2.25,52.22c-.57,4.2-.15,7.97,1.02,11.33,1.51,18.09,19.23,29.77,36.42,31.98,10.54,1.35,21.3-.06,31.15-4.03,8.62-3.48,16.65-8.62,25.54-11.38,9.06-2.8,15.77-.1,23.8,4.21,8.23,4.42,16.52,7.81,26.02,7.83,16.93.03,34.35-9.59,41.67-25.17,7.56-16.08,4.72-35.5-6.65-49.05Zm-122.72,1.33c-1.3-1.9.52-.89,0,0h0Z"/>
      <path class="cls-1" d="m173.44,15.95c-23.83-18.53-55.65-2.8-68.14,21.31-6.84-7.9-11.31-17.79-19.31-24.69-6.83-5.88-15.73-9.77-24.8-10.01-7.76-.21-16.36,2.53-20.54,9.51-3.37,5.64-3.53,12.96.6,18.07-10.04-3.64-21.6-.71-28.94,7.08-7.41,7.88-8.5,19.55-4.1,29.22,5.14,11.3,16.58,16.4,28.59,15.91,16.01-.65,30.05-9.46,45.73-11.7,9.44-1.35,17.82,1.1,26.63,4.19,7.87,2.77,15.86,5.08,24.15,6.17,13.59,1.77,27.83-.09,39.23-8.14,9.36-6.61,16.28-17.07,16.02-28.83-.24-11.1-6.51-21.4-15.12-28.09Zm.48,52.83c-10.2,8.57-23.57,11.27-36.61,10.24-13.96-1.1-26.09-7.29-39.53-10.26-25.24-5.58-48.61,18.23-73.38,9.53-12.45-4.37-19.44-18.97-15.14-31.48,4.42-12.88,19.73-18.97,32.22-14.94.49.16.82-.13.92-.51.73.57,1.68-.45,1.04-1.19-5.9-6.79-3.29-17.2,3.86-21.99,7.07-4.73,16.49-4.31,24.25-1.69,8.51,2.87,15.23,8.54,20.46,15.72,4.27,5.85,7.87,12.12,12.77,17.5.16.18.34.25.52.28.51.29,1.19.25,1.53-.44,10.07-20.56,35.56-36.97,58.27-25.91,9.83,4.79,17.84,13.92,20.3,24.69,2.65,11.63-2.56,22.97-11.46,30.45Z"/>
      <path class="cls-1" d="m163.89,19.33c-3.31-1.48-6.71-2.78-10.05-4.17-.41-.17-.72.54-.3.72,3.32,1.45,6.61,3,9.97,4.36.52.21.9-.68.39-.92Z"/>
      <path class="cls-1" d="m174.33,32.42c-1.67-2.39-3.55-4.65-5.35-6.95-.33-.43-1.03.12-.75.58,1.5,2.43,2.94,4.92,4.57,7.26.64.92,2.17.04,1.52-.89Z"/>
      <path class="cls-1" d="m177.05,38.84c-.02-.58-.87-.58-.9,0-.14,3.65-.48,7.35-.37,11,.03,1.05,1.6,1.05,1.63,0,.11-3.65-.23-7.35-.37-11Z"/>
      <path class="cls-1" d="m173.32,55.57c-2.36,1.88-4.72,3.77-7.17,5.53-.92.66.13,2.01.95,1.23,2.21-2.12,4.55-4.11,6.87-6.11.45-.39-.2-1-.65-.65Z"/>
      <path class="cls-1" d="m157.98,25.2c-3.32-2.31-6.78-4.54-10.29-6.55-.58-.33-1.01.49-.51.87,3.23,2.44,6.65,4.75,10.08,6.89.78.49,1.44-.7.71-1.21Z"/>
      <path class="cls-1" d="m166.65,38.53c-.74-2.32-1.77-4.66-2.79-6.87-.23-.49-.98-.14-.85.36.59,2.31,1.25,4.71,2.13,6.93.36.91,1.82.57,1.51-.42Z"/>
      <path class="cls-1" d="m168.15,44.84c-.02-.7-1.07-.7-1.09,0-.07,2.33-.32,4.67-.28,7,.02,1.06,1.64,1.06,1.65,0,.04-2.33-.21-4.67-.28-7Z"/>
      <path class="cls-1" d="m164.39,57.44c-2.48,1.89-5.15,3.66-7.46,5.74-1.01.91.45,2.29,1.47,1.47,2.37-1.91,4.48-4.21,6.68-6.31.46-.44-.17-1.3-.69-.9Z"/>
    </g>
  </g>
</svg>