<?xml version="1.0" encoding="UTF-8"?>
<svg id="_圖層_2" data-name="圖層 2" xmlns="http://www.w3.org/2000/svg" viewBox="0 0 69.46 76.44">
  <defs>
    <style>
      .cls-1 {
        fill: #59bfc7;
        stroke-width: 0px;
      }
    </style>
  </defs>
  <g id="OBJECTS">
    <g>
      <path class="cls-1" d="m38.8,55.27c-1.79-.26-3.68-.26-5.61-.1-.09-1.58-.17-3.17-.2-4.75-.05-2.5-4.18-3.3-4.56-.62-.25,1.77-.6,3.93-.78,6.16-2.36.45-4.68.98-6.83,1.42-2.13.43-1.39,3.33.48,3.52,2.03.21,4.23.52,6.46.74.31,2.06,1.01,3.94,2.35,5.32.74.76,2.2.64,2.71-.35.77-1.49.9-3.05.85-4.65,1.78-.02,3.51-.19,5.14-.59,2.85-.7,3.18-5.64,0-6.1Z"/>
      <path class="cls-1" d="m64.5,64.22c-2.3.36-4.57.75-6.84,1.09-.08-1.19-.14-2.37-.24-3.56-.18-2.19-3.52-2.98-4.07-.55-.34,1.46-.61,3.1-.76,4.77-1.3.13-2.62.22-3.95.26-2.85.09-2.75,4.08,0,4.36,1.31.13,2.63.24,3.96.32.16,1.48.47,2.91,1.02,4.18,1.14,2.64,4.72.96,4.91-1.33.08-.91-.02-1.83-.16-2.74,2.62-.07,5.24-.31,7.78-.84,3.96-.83,2.21-6.56-1.65-5.97Z"/>
      <path class="cls-1" d="m67.39,34.36c-2.31-.66-4.76-.56-7.15-.3-.25-1.88-.35-3.76-.56-5.65-.2-1.78-2.92-2.51-3.38-.46-.45,2-.71,4.37-.7,6.74-2,.35-3.94.91-5.54,2.21-1,.8-.38,2.46.73,2.76,1.74.47,3.56.34,5.36.21.25,1.11.58,2.16,1.04,3.11,1.05,2.18,4.74,1.14,4.59-1.24-.04-.62-.14-1.22-.26-1.82,1.71.13,3.43.27,5.11.1,3.09-.32,4.09-4.71.77-5.66Z"/>
      <path class="cls-1" d="m39.3,28.22c-.68-.07-1.38-.12-2.09-.16-.35-1.87-.58-3.74-.71-5.64-.22-3.22-5.03-3.29-5.06,0-.02,1.89.07,3.78.25,5.65-1.91.1-3.8.3-5.56.6-2,.34-1.81,3.4,0,3.86,1.97.51,4.16.9,6.37,1.16.29,1.18.76,2.28,1.63,3.22,1.25,1.35,3.93.76,4.29-1.13.11-.6.13-1.17.1-1.72.26,0,.53,0,.79,0,3.83-.07,3.67-5.46,0-5.84Z"/>
      <path class="cls-1" d="m52.63,5.57c-.24-.03-.48-.03-.71-.04-.04-1.03-.08-2.07-.1-3.1-.05-2.66-4.34-3.49-4.83-.65-.22,1.25-.43,2.59-.6,3.97-1.87.16-3.95.2-5.68.93-1.71.72-2.22,3.49,0,4,1.77.41,3.62.27,5.44.32.09,1.97.45,3.87,1.23,5.54.97,2.07,4.8,1.69,5.14-.67.23-1.56.06-3.03-.13-4.53.08,0,.16,0,.24,0,3.79-.05,3.61-5.37,0-5.77Z"/>
      <path class="cls-1" d="m16.63,36.63c-1.52.2-3.05.34-4.57.44-.26-1.15-.55-2.24-.79-3.19-.53-2.09-4.09-1.73-3.87.52.09.95.16,1.9.2,2.85-1.88.02-3.76,0-5.64-.13-2.24-.14-2.74,3.46-.53,3.94,2.01.43,4.04.76,6.07,1.04-.14,1.45-.3,2.88,0,4.32.54,2.65,4.1,2.14,4.88,0,.41-1.11.54-2.4.5-3.76,1.25.08,2.5.14,3.76.16,4.09.07,3.85-6.69,0-6.19Z"/>
    </g>
  </g>
</svg>