<?xml version="1.0" encoding="UTF-8"?>
<svg id="_圖層_2" data-name="圖層 2" xmlns="http://www.w3.org/2000/svg" viewBox="0 0 64.41 52.97">
  <defs>
    <style>
      .cls-1 {
        fill: #1d1d1b;
      }

      .cls-1, .cls-2 {
        stroke-width: 0px;
      }

      .cls-2 {
        fill: #f0a3a3;
      }
    </style>
  </defs>
  <g id="OBJECTS">
    <g>
      <path class="cls-2" d="m60.4,20.93c-3.02-2.49-6.68-3.1-10.34-2.74-.28-.16-.56-.31-.83-.46.41-1.92.43-3.91.08-5.79.11-.75.16-1.43.15-2.02-.26-10.14-11.31-12.17-18.66-7.65-5.03,3.1-6.64,7.21-6.12,11.41-6.93-2.43-14.49-3.85-19.89-.15C1.68,15.68-.39,19.41.06,23.23c.52,4.45,4.1,6.91,7.97,8.45,1.45.58,3.41,1.33,5.6,2-2.11,2.52-3.57,5.41-3.42,8.15-.05.72.12,1.4.44,2.01.39.98,1.03,1.93,2,2.8,5.23,4.73,12.12,2.16,16.75-2.3,1.23,5.22,5.03,9.6,11.33,8.43,7.44-1.38,8.28-8.45,6.8-14.62.5.16,1.01.3,1.52.42.67.19,1.35.32,2.07.37,5.92.74,11.9-1.37,13.16-8.4.67-3.72-1.01-7.27-3.86-9.62Z"/>
      <path class="cls-1" d="m45.55,19.02c3.06-5.83,1.89-13.71-5.07-16.26-8.61-3.15-13.97,5.63-14.29,13.08-6.33-3.42-17.24-5.83-20.12,2.93-2.7,8.23,6.44,11.79,13.25,12.75-4.46,3.57-10.24,11.64-4.52,15.42,6.59,4.36,13.19-3.98,17.08-9.06-.59,5.59,4.25,10.94,10.31,10.03,6.19-.93,6.33-8.41,4.25-13.48,5.51,2.68,13.47.39,14.26-6.48.97-8.4-8.68-10.35-15.17-8.92Zm8.21,14.75c-2.86.9-5.53.18-8.11-1.03-.26-.44-.53-.85-.81-1.21-.59-.74-1.84.23-1.32,1.02,2.38,3.61,4.72,12.44-1.64,13.65-5.99,1.14-9.6-4.89-8.72-10.07.01-.04.01-.08.02-.12.03-.16.05-.32.08-.47.09-.37-.27-.54-.53-.41-.24-.12-.54-.1-.8.18-3.27,3.62-6.5,9.46-11.5,10.81-6.96,1.88-6.64-5.25-4.19-9.33,1.2-2,2.77-3.59,4.47-5.12.5.05.99.08,1.44.1.99.04.93-1.39,0-1.5-3.33-.4-6.99-.52-9.99-2.21-3.98-2.23-6.67-7.33-3.09-11.2,4.73-5.1,11.64-2,17.11.06,0,.17,0,.33.02.5.07,1.08,1.74,1.1,1.7,0-.23-6.29,3.61-15.56,11.62-13.15,6.9,2.08,7.23,9.78,4.44,15.17-.08.03-.16.05-.24.08-.56.2-.66.77-.44,1.16-.07.44.55.88.88.46.03-.03.05-.07.08-.11,5.09-1.08,13.54-1.9,14.69,5.18.57,3.53-1.94,6.51-5.17,7.53Z"/>
    </g>
  </g>
</svg>