<?xml version="1.0" encoding="UTF-8"?>
<svg id="_圖層_2" data-name="圖層 2" xmlns="http://www.w3.org/2000/svg" viewBox="0 0 31.53 33.27">
  <defs>
    <style>
      .cls-1 {
        fill: #9c2c32;
      }

      .cls-1, .cls-2, .cls-3, .cls-4, .cls-5, .cls-6, .cls-7, .cls-8, .cls-9, .cls-10, .cls-11, .cls-12, .cls-13, .cls-14, .cls-15, .cls-16, .cls-17, .cls-18, .cls-19, .cls-20, .cls-21, .cls-22, .cls-23, .cls-24, .cls-25, .cls-26, .cls-27, .cls-28, .cls-29, .cls-30, .cls-31, .cls-32, .cls-33, .cls-34, .cls-35, .cls-36, .cls-37, .cls-38, .cls-39, .cls-40, .cls-41, .cls-42, .cls-43, .cls-44, .cls-45, .cls-46, .cls-47, .cls-48, .cls-49, .cls-50, .cls-51, .cls-52, .cls-53, .cls-54, .cls-55, .cls-56, .cls-57, .cls-58, .cls-59, .cls-60, .cls-61, .cls-62, .cls-63, .cls-64, .cls-65, .cls-66, .cls-67, .cls-68, .cls-69, .cls-70, .cls-71, .cls-72, .cls-73, .cls-74, .cls-75, .cls-76, .cls-77, .cls-78, .cls-79, .cls-80, .cls-81, .cls-82, .cls-83, .cls-84, .cls-85, .cls-86, .cls-87, .cls-88, .cls-89, .cls-90, .cls-91, .cls-92, .cls-93, .cls-94, .cls-95, .cls-96, .cls-97, .cls-98, .cls-99, .cls-100, .cls-101, .cls-102, .cls-103, .cls-104, .cls-105, .cls-106, .cls-107, .cls-108, .cls-109, .cls-110, .cls-111, .cls-112, .cls-113, .cls-114, .cls-115, .cls-116, .cls-117, .cls-118, .cls-119, .cls-120, .cls-121, .cls-122, .cls-123, .cls-124, .cls-125, .cls-126, .cls-127, .cls-128, .cls-129, .cls-130, .cls-131, .cls-132, .cls-133, .cls-134, .cls-135, .cls-136, .cls-137, .cls-138, .cls-139, .cls-140, .cls-141, .cls-142, .cls-143, .cls-144, .cls-145, .cls-146, .cls-147, .cls-148, .cls-149, .cls-150, .cls-151, .cls-152, .cls-153, .cls-154, .cls-155, .cls-156, .cls-157, .cls-158, .cls-159, .cls-160, .cls-161, .cls-162, .cls-163 {
        stroke-width: 0px;
      }

      .cls-2 {
        fill: #9c2b32;
      }

      .cls-3 {
        fill: #543c1a;
      }

      .cls-4 {
        fill: #a4303a;
      }

      .cls-5 {
        fill: #a52f39;
      }

      .cls-6 {
        fill: #a52e39;
      }

      .cls-7 {
        fill: #a52e38;
      }

      .cls-8 {
        fill: #a42c37;
      }

      .cls-9 {
        fill: #a42c36;
      }

      .cls-10 {
        fill: #a42d37;
      }

      .cls-11 {
        fill: #a3323a;
      }

      .cls-12 {
        fill: #962d31;
      }

      .cls-13 {
        fill: #9d242e;
      }

      .cls-14 {
        fill: #a52d37;
      }

      .cls-15 {
        fill: #a52d38;
      }

      .cls-16 {
        fill: #a44a4a;
      }

      .cls-17 {
        fill: #a4313a;
      }

      .cls-18 {
        fill: #a93640;
      }

      .cls-19 {
        fill: #a9363f;
      }

      .cls-20 {
        fill: #a93740;
      }

      .cls-21 {
        fill: #c55320;
      }

      .cls-22 {
        fill: #c5666c;
      }

      .cls-23 {
        fill: #c5656c;
      }

      .cls-24 {
        fill: #c5666d;
      }

      .cls-25 {
        fill: #c75722;
      }

      .cls-26 {
        fill: #c85923;
      }

      .cls-27 {
        fill: #c85a23;
      }

      .cls-28 {
        fill: #ca6026;
      }

      .cls-29 {
        fill: #ca5f26;
      }

      .cls-30 {
        fill: #c65a24;
      }

      .cls-31 {
        fill: #c65923;
      }

      .cls-32 {
        fill: #cc6428;
      }

      .cls-33 {
        fill: #cc6227;
      }

      .cls-34 {
        fill: #ad3e46;
      }

      .cls-35 {
        fill: #ae3e47;
      }

      .cls-36 {
        fill: #c26369;
      }

      .cls-37 {
        fill: #c2646a;
      }

      .cls-38 {
        fill: #c26269;
      }

      .cls-39 {
        fill: #ab3f46;
      }

      .cls-40 {
        fill: #be5a61;
      }

      .cls-41 {
        fill: #ab454a;
      }

      .cls-42 {
        fill: #ab3842;
      }

      .cls-43 {
        fill: #ab3741;
      }

      .cls-44 {
        fill: #ab3943;
      }

      .cls-45 {
        fill: #c05e65;
      }

      .cls-46 {
        fill: #bd585f;
      }

      .cls-47 {
        fill: #bd5860;
      }

      .cls-48 {
        fill: #c26067;
      }

      .cls-49 {
        fill: #a8333d;
      }

      .cls-50 {
        fill: #a85151;
      }

      .cls-51 {
        fill: #a5363e;
      }

      .cls-52 {
        fill: #a5353d;
      }

      .cls-53 {
        fill: #ac3b44;
      }

      .cls-54 {
        fill: #ac3a43;
      }

      .cls-55 {
        fill: #ac3a44;
      }

      .cls-56 {
        fill: #c4636a;
      }

      .cls-57 {
        fill: #c4646b;
      }

      .cls-58 {
        fill: #bf5321;
      }

      .cls-59 {
        fill: #bf6066;
      }

      .cls-60 {
        fill: #b44951;
      }

      .cls-61 {
        fill: #c15e66;
      }

      .cls-62 {
        fill: #ae5657;
      }

      .cls-63 {
        fill: #a63e43;
      }

      .cls-64 {
        fill: #a54648;
      }

      .cls-65 {
        fill: #a6303a;
      }

      .cls-66 {
        fill: #a63039;
      }

      .cls-67 {
        fill: #a6303b;
      }

      .cls-68 {
        fill: #b0464e;
      }

      .cls-69 {
        fill: #b1464e;
      }

      .cls-70 {
        fill: #b0424a;
      }

      .cls-71 {
        fill: #b0414a;
      }

      .cls-72 {
        fill: #b2454d;
      }

      .cls-73 {
        fill: #b1434c;
      }

      .cls-74 {
        fill: #b44f55;
      }

      .cls-75 {
        fill: #ab5354;
      }

      .cls-76 {
        fill: #ab5052;
      }

      .cls-77 {
        fill: #ab4f51;
      }

      .cls-78 {
        fill: #b3464f;
      }

      .cls-79 {
        fill: #b34750;
      }

      .cls-80 {
        fill: #b3474f;
      }

      .cls-81 {
        fill: #be5961;
      }

      .cls-82 {
        fill: #be5960;
      }

      .cls-83 {
        fill: #c06167;
      }

      .cls-84 {
        fill: #ce672a;
      }

      .cls-85 {
        fill: #af4048;
      }

      .cls-86 {
        fill: #af4149;
      }

      .cls-87 {
        fill: #af4049;
      }

      .cls-88 {
        fill: #a62f39;
      }

      .cls-89 {
        fill: #a62e39;
      }

      .cls-90 {
        fill: #a5303a;
      }

      .cls-91 {
        fill: #a7373f;
      }

      .cls-92 {
        fill: #aa3740;
      }

      .cls-93 {
        fill: #aa3d45;
      }

      .cls-94 {
        fill: #a7313c;
      }

      .cls-95 {
        fill: #a7303b;
      }

      .cls-96 {
        fill: #a7323c;
      }

      .cls-97 {
        fill: #c15f66;
      }

      .cls-98 {
        fill: #aa3640;
      }

      .cls-99 {
        fill: #d06c2b;
      }

      .cls-100 {
        fill: #d06d2c;
      }

      .cls-101 {
        fill: #ad3c45;
      }

      .cls-102 {
        fill: #ad3d46;
      }

      .cls-103 {
        fill: #b9525a;
      }

      .cls-104 {
        fill: #c45120;
      }

      .cls-105 {
        fill: #c4511f;
      }

      .cls-106 {
        fill: #b65b5e;
      }

      .cls-107 {
        fill: #c45220;
      }

      .cls-108 {
        fill: #b6585c;
      }

      .cls-109 {
        fill: #ba525a;
      }

      .cls-110 {
        fill: #b7575c;
      }

      .cls-111 {
        fill: #b95159;
      }

      .cls-112 {
        fill: #ba545b;
      }

      .cls-113 {
        fill: #a02a33;
      }

      .cls-114 {
        fill: #9f2731;
      }

      .cls-115 {
        fill: #9e383c;
      }

      .cls-116 {
        fill: #9f2932;
      }

      .cls-117 {
        fill: #9e2f36;
      }

      .cls-118 {
        fill: #9f242f;
      }

      .cls-119 {
        fill: #9f2630;
      }

      .cls-120 {
        fill: #9f2530;
      }

      .cls-121 {
        fill: #9e2d35;
      }

      .cls-122 {
        fill: #9e2731;
      }

      .cls-123 {
        fill: #bc6328;
      }

      .cls-124 {
        fill: #c36168;
      }

      .cls-125 {
        fill: #c36269;
      }

      .cls-126 {
        fill: #c3636a;
      }

      .cls-127 {
        fill: #c3656b;
      }

      .cls-128 {
        fill: #b54a52;
      }

      .cls-129 {
        fill: #b85b25;
      }

      .cls-130 {
        fill: #c34e1e;
      }

      .cls-131 {
        fill: #b85622;
      }

      .cls-132 {
        fill: #c35521;
      }

      .cls-133 {
        fill: #c34f1e;
      }

      .cls-134 {
        fill: #9b272f;
      }

      .cls-135 {
        fill: #bc565d;
      }

      .cls-136 {
        fill: #bc575e;
      }

      .cls-137 {
        fill: #bc565e;
      }

      .cls-138 {
        fill: #bb545c;
      }

      .cls-139 {
        fill: #9a282f;
      }

      .cls-140 {
        fill: #993336;
      }

      .cls-141 {
        fill: #a32a35;
      }

      .cls-142 {
        fill: #a32b36;
      }

      .cls-143 {
        fill: #a22933;
      }

      .cls-144 {
        fill: #a32c36;
      }

      .cls-145 {
        fill: #a12832;
      }

      .cls-146 {
        fill: #a12732;
      }

      .cls-147 {
        fill: #a12731;
      }

      .cls-148 {
        fill: #a12f38;
      }

      .cls-149 {
        fill: #a32934;
      }

      .cls-150 {
        fill: #a22833;
      }

      .cls-151 {
        fill: #a22733;
      }

      .cls-152 {
        fill: #a22934;
      }

      .cls-153 {
        fill: #a02630;
      }

      .cls-154 {
        fill: #a02631;
      }

      .cls-155 {
        fill: #a12c35;
      }

      .cls-156 {
        fill: #a12f37;
      }

      .cls-157 {
        fill: #a12632;
      }

      .cls-158 {
        fill: #a02530;
      }

      .cls-159 {
        fill: #a02731;
      }

      .cls-160 {
        fill: #edb34b;
      }

      .cls-161 {
        fill: #ebaf49;
      }

      .cls-162 {
        fill: #efb34b;
      }

      .cls-163 {
        fill: #f1b74d;
      }
    </style>
  </defs>
  <g id="OBJECTS">
    <g>
      <path class="cls-3" d="m0,20.79c.43-.34.39-.9.62-1.34,1.44-2.67,3.15-4.2,6.11-5.35-.41-.31-.78-.59-1.15-.89-1.8-1.45-3.22-3.14-3.58-5.52-.4-2.61,1.25-5.15,3.78-5.92,1.02-.31,1.97-.16,2.89.33,1.76.94,2.9,2.49,3.97,4.1.15.23.29.47.49.81.15-.71.26-1.33.41-1.93.35-1.43.91-2.77,1.91-3.89,1.38-1.53,3.13-1.62,4.54-.12,2.19,2.33,2.77,5.05,1.75,8.13.38.11.65-.14.95-.29,2.59-1.32,5.65-.87,7.44,1.1,2.14,2.35,1.79,5.61-.81,7.43-1.29.9-2.72,1.46-4.39,1.76.95.65,1.77,1.31,2.43,2.14,1.17,1.47,1.79,3.11,1.38,4.99-.67,3.06-3.51,4.42-6.47,3.12-2.04-.89-3.45-2.46-4.58-4.31-.11-.18-.21-.35-.41-.71-.11.83-.17,1.5-.28,2.16-.34,1.99-1.18,3.75-2.58,5.22-.67.71-1.48,1.17-2.45,1.36-.19.18-.43.06-.64.08-2.23-.34-3.64-2.01-3.73-4.29-.06-1.48.37-2.83.93-4.17.08-.19.2-.37.24-.58,0-.02-.02-.04-.04-.1-.39.13-.74.34-1.11.52-1.26.6-2.57.97-3.97.77-1.77-.26-3.13-1.1-3.66-2.94v-.14c.11-.42.11-.84,0-1.25v-.28Z"/>
      <path class="cls-24" d="m20.5,16.05c-.06-.47-.12-.93-.18-1.4-.02-.26.22-.23.33-.32-.12.01-.27.12-.43.04-.14-.62-.52-1.13-.84-1.78.48.15.77-.1,1.02-.36,1.07-1.11,2.33-1.93,3.78-2.38,2.76-.86,5.51.6,6.02,3.58.05.29-.05.55-.12.82-.24.08-.13.27-.12.42-.53,1.33-1.66,2.02-2.86,2.59-1.51.71-3.1,1.09-4.78.75-.11-.02-.21-.09-.31-.14-.25-.31.29-.53.08-.83-.03-.05-.07-.1-.11-.14-.39-.08-.8-.1-1.04-.49-.09-.2-.28-.27-.45-.36Z"/>
      <path class="cls-22" d="m11.98,11.3c-.61.31-1.07.79-1.51,1.29-.31.19-.51.45-.56.82-.36.75-.84.19-1.27.12-.2-.2-.23-.7-.72-.43-.23-.13-.46-.27-.69-.4-.08-.28-.01-.75-.55-.42-.28-.12-.55-.27-.7-.55.05-.17.4-.3.15-.51-.25-.22-.29.33-.55.22-.31-.22-.56-.5-.75-.83.17-.41-.19-.32-.38-.4-.48-.75-1-1.48-1.14-2.39-.04-.32.37-.23.42-.47-.11-.2-.4-.04-.52-.23-.02-.57-.11-1.15.25-1.67.18-.09.09-.28.15-.41.5-.96,1.27-1.62,2.25-2.03.9-.37,1.71-.12,2.49.36.03.36.29.39.57.4,1.91,1.58,3.38,3.48,4.17,5.85-.27.23.19.26.11.43.19.62-.22.75-.68.85-.48-.3-.44.14-.56.38Z"/>
      <path class="cls-24" d="m19.03,12.26c-1.11-1.23-2.5-1.78-4.08-1.89-.26-.02-.44-.05-.45-.38-.07-2.35-.11-4.68,1.07-6.85,1.27-2.34,2.73-2.41,4.23-.19,1.7,2.51,1.27,5.92-.15,8.09-.24.37-.46.74-.61,1.21Z"/>
      <path class="cls-23" d="m25.65,28.33c-.39.28-.83.29-1.27.26-.26-.37-.5-.8-1-.25-.08.09-.25.06-.38,0-.23-.1-.46-.21-.7-.31-.04-.17.09-.21.2-.27.23-.06.45-.15.57-.38.12-.56.45-.74.99-.55.17.1.26.27.37.42.03.05.07.1.1.15.08.11.17.15.29.06.09-.09.16-.18.19-.3-.01-.15-.13-.16-.24-.17-.06,0-.12-.02-.17-.05-.2-.13-.42-.23-.6-.4-.13-.17-.04-.51-.37-.51-.33,0-.38.29-.47.52-.46.56-.75.51-1.08-.2-.06-.07-.14-.12-.22-.17-.14-.07-.28-.11-.43-.16-.15-.05-.3-.1-.42-.21-.03-.04-.05-.08-.07-.12-.1-.22-.1-.55-.46-.5-.35.05-.28.37-.35.6-.08.12-.18.2-.34.14-.32-.21-.53-.52-.71-.85,0-.02,0-.05,0-.07.03-.28.71-.21.39-.63-.26-.35-.48.24-.78.15-.06-.1-.11-.2-.17-.3-.12-.37.17-.67.18-1.02.02-.06.05-.12.09-.17.1-.1.22-.16.35-.2.46-.12.48-.36.2-.69-.46-.11-.69-.46-.88-.85-.09-.12-.26-.2-.21-.4.1-.09.2-.18.31-.27.52.04.8-.14.66-.71.1-.14.19-.28.29-.42.05-.04.11-.05.17-.05.16-.06.72.17.24-.34-.09-.09-.08-.2-.02-.31,1,.21,1.92.71,2.93.88.27.13-.07.65.41.64.1-.04.16-.13.23-.21.06-.06.12-.11.21-.05,1.18.54,2.22,1.26,2.95,2.37-.3.5-.09.68.42.68.04.1.08.2.12.3-.03.28.07.51.28.7.13.61.35,1.19-.15,1.79-.1.12.14.59-.13.87-.68-.04-.55.44-.53.84-.12.17-.25.32-.45.39-.25-.01-.58-.19-.55.3Z"/>
      <path class="cls-163" d="m17.81,13.84c.34.56.7,1.12.75,1.8.19.36-.29.77.08,1.12-.04,1.55-.89,2.92-2.06,3.35-.17-.14-.18-.37-.3-.54-.09-.12-.21-.18-.36-.14-.12.03-.2.13-.19.26.02.15.12.24.26.29.19.07.42-.05.59.12-.22.36-.55.53-.97.54-.32-.28-.71-.11-1.07-.19-.09-.05-.15-.13-.19-.23-.04-.45-.17-.81-.73-.82-.22,0-.38-.16-.49-.35-.11-.24-.29-.41-.56-.45-.24-.04-.43-.16-.54-.38-.12-.29-.29-.52-.66-.41-.29.03-.16.53-.52.48-.3-1.41-.44-2.8.54-4.04.16-.1.19-.29.29-.42.45-.57,1.04-.95,1.68-1.27.22-.08.52-.14.64,0,.48.54.46-.04.61-.24.95,0,1.81.24,2.48.96.17.26.4.44.68.56Z"/>
      <path class="cls-23" d="m4.72,24.25c-.42-.04-.83-.08-1.25-.12-.21-.41-.51-.6-.97-.41-.24,0-.37-.18-.54-.3-.03-.07-.02-.13.01-.19.32-.61.3-.65-.39-.7-.07,0-.14-.01-.2-.05-.24-.36-.12-.76-.12-1.15.04-.05.07-.13.13-.15q.68-.32.26-.94l.33-.69c.24-.19.32.06.43.17.18.17.35.21.53,0,.1-.14.13-.31.25-.43.26-.22.55-.24.85-.1.21.15.28.36.27.6-.04.49-.49.42-.78.57-.37.55.1.6.44.72.27.09.37.32.43.57.02.11.01.22-.03.33-.2.29-.5.25-.8.23-.25-.04-.39-.2-.49-.42-.08-.18-.18-.44-.43-.25-.2.16-.09.37.08.52.07.06.16.09.24.12.24.08.34.28.45.48.21.3.44.49.75.11.08-.39.24-.72.67-.83.34-.34.31-.6-.19-.72-.13-.03-.27-.03-.39-.12-.36-.66-.13-1.13.56-1.24.25-.17.09-.47.22-.67.15-.22.4-.23.63-.28.29-.03.4.2.55.38.56.5.62.49.89-.13.1-.21.34-.27.49-.43.38-.49.07-.67-.35-.81-.17-.04-.32-.09-.42-.25-.09-.19-.13-.39-.11-.6.03-.1.1-.17.19-.23.28-.13.63-.1.84-.37.11-.44.41-.69.83-.82.18-.16.36-.21.54,0-.16.37-.17.75,0,1.12-.02,1.06.41,1.99.85,2.91-.23.23-.53.41-.58.78-.06.13-.14.23-.27.3-.17.07-.34.08-.52.06-.28-.03-.4-.24-.54-.43-.44-.43-.64-.16-.78.27-.04.09-.1.16-.17.23-.2.23-.76.26-.43.78.89.33,1.02.65.55,1.33-.35.12-.67.09-.91-.23-.15-.17-.19-.52-.51-.44-.31.07-.23.4-.33.61-.13.27-.44.23-.65.35-.41.27.02.67-.16.97Z"/>
      <path class="cls-118" d="m9.08,28.05c0-.49.22-.94.29-1.41.22-.13.26-.33.24-.56.13-.32.26-.64.39-.96.3.19.58.34.68-.19.03-.18.15-.33.31-.43.35-.14.61-.02.84.26.45.53.46.52.81-.11.1-.12.23-.19.37-.23.87,0,1.05.25.81,1.07-.18.3-.6.31-.76.63-.13.22-.26.45-.47.61-.24.21-.44.42-.02.66.24.1.47.21.6.46.08.15.14.3.13.48-.03.14-.09.26-.21.35-.06.04-.13.06-.2.08-.21.04-.42.04-.63-.03-.22-.08-.29-.28-.38-.47-.46-.61-.49-.07-.61.23-.31.55-.74.53-1.22.25-.18-.44-.51-.66-.97-.68Z"/>
      <path class="cls-57" d="m6.97,16.88c-.05.05-.1.1-.15.16-.32.08-.72.05-.79.52-.05.33-.32.44-.57.57-.07.06-.13.12-.19.19-.15.24-.1.57-.38.74-.28.11-.56.21-.86.21-.28,0-.57-.03-.82.14-.15-.23,0-.32.18-.41.18-.09.42-.13.39-.39-.02-.26-.28-.25-.45-.33-.06-.03-.12-.07-.16-.12.19-.3.44-.54.74-.73.11.05.16.16.25.24.11.1.24.16.37.06.18-.16.05-.28-.07-.4-.08-.08-.18-.14-.14-.28.19-.15.38-.3.57-.44.31-.06.7.04.82-.4.9-.56,1.91-.59,2.93-.56-.31.27-.6.56-.7.98-.09-.08-.13-.18-.18-.28-.07-.15-.16-.29-.36-.25-.19.04-.22.21-.25.37-.02.16-.05.32-.17.44Z"/>
      <path class="cls-118" d="m12.97,31.52c-.16.27-.42.36-.7.42-.28.03-.58-.09-.83.12-.87-.15-1.54-.57-1.94-1.38.1-.13.26-.15.38-.24.21-.25.14-.68.52-.82.24-.13.55-.18.6-.53.4-.66.75-.71,1.32-.19.05.1.06.21.05.33-.06.26-.23.43-.45.55-.49.33-.5.4-.03.68.51.19.78.64,1.09,1.05Z"/>
      <path class="cls-57" d="m12.95,26.09c-.05-.55.47-.37.71-.55.28-.05.27.22.38.35.15.23.32.53.63.28.24-.19.07-.41-.14-.55-.75-.21-.83-.38-.51-1.09.26.22.38.64.84.56.44.14,1.13,0,.92.84-.02.14-.03.28-.05.42-.29.23-.55.47-.57.88-.04.09-.1.16-.19.21-.54.08-.92.3-.82.94-.16.3-.47.25-.73.3-.07,0-.14-.02-.2-.06-.04-.1-.05-.2.02-.3-.05-.14-.1-.28-.14-.42-.14-.28.09-.36.26-.47.18-.11.37-.22.34-.47-.02-.26-.25-.3-.45-.34-.32-.06-.43-.22-.29-.53Z"/>
      <path class="cls-153" d="m10.75,23.59c.14-.42.39-.77.64-1.13.17.1,1.18.03,1.4-.1.44-.27.86-.04,1.03.54,0,.22-.06.43-.23.59-.29.19-.58.35-.69.73-.07.23-.29.35-.5.44-.38.1-.67,0-.83-.37-.12-.28-.36-.38-.62-.46-.1-.05-.16-.13-.2-.23Z"/>
      <path class="cls-38" d="m13.66,22.87c.02-.31-.14-.5-.43-.49-.23.01-.49.06-.58.38-.09.28-.07.68-.54.67-.45,0-.34-.41-.47-.64-.07-.12-.17-.22-.25-.33.02-.05.04-.09.06-.14.44-.05.86-.14,1.22-.43.72.32,1.47.44,2.25.43.09.18,0,.34-.04.5-.08.2-.08.44-.3.57-.51.19-.83.04-.91-.52Z"/>
      <path class="cls-56" d="m18.54,21.21c.28.33.43.8.96.85-.53.19-.57.67-.7,1.11h0c-.28.17-.57.08-.85,0-.3-.48-.59-.96-.66-1.54.22-.17.33.05.49.13.61.3.56-.3.75-.56Z"/>
      <path class="cls-37" d="m22.59,27.89c-.11,0-.22.03-.29.14-.41-.17-.8-.38-1.12-.69-.13-.17-.13-.32.04-.47.19-.12.44-.11.62-.24.17-.13.14-.39.31-.53.05.1.13.19.14.29.02.23.06.39.34.4.32,0,.37-.19.38-.44.37,0,.64.37,1.03.31.1.03.21.07.21.2,0,.08-.08.08-.14.07-.5-.13-.78.12-.95.56-.08-.04-.13-.12-.19-.19-.13-.16-.3-.23-.47-.08-.16.13-.06.29.03.43.05.08.09.16.07.25Z"/>
      <path class="cls-31" d="m13.25,18.95c.13.16.24.35.49.32.79-.1.82.38.73.96-.18.32-.6.28-.82.53-.3-.09-.62-.14-.86-.36.36-.27.45-.61.23-1.02,0-.18.05-.33.22-.43Z"/>
      <path class="cls-83" d="m22.15,16.9c.6.41-.18.64-.13.97-.45-.15-.91-.29-1.36-.44-.44-.14-.12-.45-.17-.68.19-.13.23-.47.55-.42.26.19.47.48.88.31.14-.06.22.11.23.26-.1.13-.3.11-.4.26.19,0,.27-.17.4-.26Z"/>
      <path class="cls-144" d="m8.64,20.66h.55c.13,0,.25.03.34.13.11.33.39.51.64.71-.19.25-.45.4-.73.52-.1-.03-.21-.04-.31-.06-.32-.04-.67-.04-.82-.39-.18-.4-.2-.76.33-.92Z"/>
      <path class="cls-82" d="m8.64,20.66c-.28.21-.34.47-.23.79.11.31.35.33.61.33.12,0,.23.03.3.13-.18.19-.54.2-.55.57-.05.05-.1.1-.15.15-.32,0-.25-.32-.4-.46-.15-.22-.41-.22-.63-.31-.16-.08-.21-.23-.25-.38-.04-.25-.22-.44-.25-.69.05-.04.1-.09.14-.13.35-.08.77,0,.97-.42.18.1.12.44.43.42Z"/>
      <path class="cls-13" d="m15.77,25.93c.04-.77-.65-.47-.99-.68-.23-.24-.3-.53-.21-.85.06-.11.15-.19.26-.24.36-.09.72-.15,1.04.12-.03.55.11,1.11-.1,1.65Z"/>
      <path class="cls-154" d="m14.08,28.31c-.25-.72-.09-.91.83-.97.56.06.32.52.4.82-.08.14-.15.28-.23.43-.03,0-.07,0-.1.01-.34.01-.7.1-.9-.29Z"/>
      <path class="cls-38" d="m15.08,28.59c-.05.64-.67.97-.86,1.53-.13.17-.24.38-.5.39-.37-.08-.44-.37-.44-.67,0-.41.38-.39.62-.52.08-.06.16-.13.21-.22.12-.53.42-.72.94-.51h.04Z"/>
      <path class="cls-161" d="m10.87,18.29c.24-.17.05-.62.44-.69.15.29-.11.86.55.8.64.08.55.58.59,1.02-.05.1-.13.18-.23.22-.19.07-.36,0-.53-.09-.45-.31-.68-.76-.82-1.26Z"/>
      <path class="cls-146" d="m3.17,18.15c.23,0,.46-.06.68.07.19.11.2.29.19.48,0,.2-.09.35-.31.4-.2.05-.5-.06-.52.3-.02.15,0,.32-.14.43-.19-.2-.41-.39-.6-.59.16-.35.43-.64.59-.99l.1-.1Z"/>
      <path class="cls-122" d="m4.72,24.25c-.06-.37-.52-.74,0-1.1.28-.08.56-.11.83.04.19.23.38.46.56.7-.45.2-.93.28-1.4.37Z"/>
      <path class="cls-126" d="m9.08,28.05c.56-.23.96-.2.95.55.08.21-.11.26-.22.35-.19.1-.38.2-.59.26-.06,0-.12-.01-.16-.06,0-.37.01-.74.02-1.1Z"/>
      <path class="cls-146" d="m14.76,22.74c.05-.14.1-.28.15-.41.14-.04.28-.07.42-.11.56.11.49.54.47.94-.19.42-.54.36-.86.25-.35-.11-.27-.41-.18-.67Z"/>
      <path class="cls-162" d="m12.26,19.54s.09-.09.14-.14c.23-.2.46-.2.7,0,.46.56.38.83-.3,1-.1-.04-.2-.09-.3-.13-.12-.23-.38-.41-.24-.72Z"/>
      <path class="cls-153" d="m9.34,20.37c0-.46.21-.71.68-.71.14.19.29.39.43.58.09.13.12.26.04.41-.21.2-.47.17-.72.14-.07-.01-.14-.04-.2-.08-.13-.08-.18-.21-.23-.34Z"/>
      <path class="cls-36" d="m10.75,23.59s.08.07.12.11c.21.26.21.55.14.85-.08.19-.21.37-.22.56-.02.21.09.41-.25.42-.32.01-.54-.06-.54-.43.06-.14.12-.28.19-.42.39-.21.42-.61.53-.98.01-.04.02-.09.04-.13Z"/>
      <path class="cls-119" d="m7.68,21.78c.26,0,.54-.05.69.25.09.24.1.48,0,.72-.05.1-.14.13-.25.13-.24.14-.51.09-.58-.14-.1-.31-.27-.7.15-.97Z"/>
      <path class="cls-126" d="m12.97,31.52c-.55-.12-.63-.79-1.14-.97.08-.25.1-.53.29-.74.07-.01.13,0,.19.05.14.34.31.63.73.7.26.04.35.26.33.51-.03.11-.07.21-.15.28-.08.05-.17.11-.25.16Z"/>
      <path class="cls-4" d="m18.67,24.57c.18-.13.23-.38.48-.47.37-.13.51.15.61.37.1.24.06.51-.32.51-.14,0-.27.02-.37.13-.22-.11-.28-.35-.39-.54Z"/>
      <path class="cls-114" d="m1.38,22.48c.33-.18.69-.33.95.08.29.45-.13.63-.37.87-.25-.28-.58-.51-.58-.94Z"/>
      <path class="cls-116" d="m18.54,21.21c.13.77-.11.96-.85.7-.09-.13-.08-.29-.13-.43.23-.18.46-.36.69-.54.1.09.2.18.29.27Z"/>
      <path class="cls-122" d="m1.65,20.24c.33.11.6.31.54.68-.08.59-.65.22-.94.42.03-.4.12-.78.39-1.1Z"/>
      <path class="cls-148" d="m22.99,28.34c.09-.02.2,0,.27-.06q.85-.71,1.12.31c-.48.02-.95-.03-1.38-.25Z"/>
      <path class="cls-134" d="m12.66,21.9c-.2.73-.69.64-1.22.43.25-.59.57-.98,1.22-.43Z"/>
      <path class="cls-144" d="m4.31,17.04c.19.19.62.16.55.59-.04.25-.24.33-.44.36-.42.06-.48-.25-.52-.56.09-.18.23-.3.41-.39Z"/>
      <path class="cls-159" d="m2.5,19.26c.41-.03.59.17.57.57-.24.47-.53.34-.8.04-.1-.11-.07-.32-.29-.33.02-.15.12-.23.24-.29.09-.08.18-.09.28,0Z"/>
      <path class="cls-121" d="m17.96,23.17c.28-.23.57-.07.85-.01.09.42-.16.75-.31,1.11-.25-.33-.43-.7-.55-1.1Z"/>
      <path class="cls-126" d="m10.03,30.68c-.18,0-.35,0-.53,0-.14-.26-.32-.51-.31-.82-.04-.15.06-.2.17-.23.27,0,.55.01.73.26-.01.27.08.54-.06.8Z"/>
      <path class="cls-113" d="m6.42,22.59c.19.35.53.28.83.29.14.09.39.05.41.31-.37.17-.74.35-1.11.52-.08-.06-.12-.14-.14-.22-.02-.18-.12-.33-.19-.5,0-.17.05-.31.2-.4Z"/>
      <path class="cls-69" d="m14.76,22.74c.04.21-.08.52.26.54.26.02.62.19.73-.26.04-.06.08-.06.12,0,0,.32,0,.65,0,.97-.27.07-.32-.49-.69-.23.16.28.52.16.69.36,0,.05,0,.1.01.15-.37,0-.74,0-1.11,0-.23-.3-.25-.64-.14-.99.02-.19-.05-.41.13-.56Z"/>
      <path class="cls-23" d="m15.86,24.13c-.14,0-.28.01-.41,0-.21-.02-.5.08-.52-.28-.02-.19,0-.38.25-.41.29-.03.57-.05.59.37,0,.06.07.12.1.17.01.05,0,.09,0,.14Z"/>
      <path class="cls-110" d="m7.66,23.19c-.14-.1-.27-.21-.41-.31.26-.74.19-.87-.55-.97-.12-.02-.22-.04-.28-.16.35-.18.73-.26,1.09-.42.02.16,0,.34.17.45-.3.74-.24.89.43,1.1-.1.17-.26.26-.45.3Z"/>
      <path class="cls-131" d="m14.64,12.32c-.02.24.29.52-.12.71-.38.19-.39-.09-.51-.32-.13-.25-.41-.12-.63-.16.4-.16.82-.27,1.26-.24Z"/>
      <path class="cls-59" d="m6.54,23.44c0,.09,0,.18,0,.26-.14.06-.28.12-.42.18-.39,0-.5-.26-.57-.58.38-.44.63-.4.98.13Z"/>
      <path class="cls-17" d="m5.59,11.45c.19-.17.07-.67.55-.53.22.07.34.28.35.47,0,.3-.28.3-.5.34-.14-.08-.31-.12-.4-.29Z"/>
      <path class="cls-57" d="m10.18,21.51c-.51.05-.71-.23-.71-.7-.03-.13.02-.18.15-.15h0c.27.19.73-.12.88.36.02.07,0,.14-.05.19l-.27.3Z"/>
      <path class="cls-126" d="m20.74,26.94c-.27-.19-.53-.4-.69-.7.06-.21.22-.26.41-.29.15-.01.29,0,.43.07.1.06.18.14.23.24.05.11.06.22.06.34-.05.24-.1.49-.45.34Z"/>
      <path class="cls-39" d="m27.05,23.13s-.09.02-.13.03c-.27.08-.63.31-.77-.03-.07-.17.04-.64.48-.68.25.16.34.41.42.68Z"/>
      <path class="cls-120" d="m15.05,27.2c-.09-.53.1-.85.68-.85,0,.35-.07.69-.25,1-.21.14-.32.01-.43-.15Z"/>
      <path class="cls-39" d="m26.64,27.63c-.24-.28-.31-.61-.11-.91.2-.3.43-.05.64.07-.07.35-.25.63-.53.84Z"/>
      <path class="cls-139" d="m2.5,23.73c.13-.29.38-.34.63-.27.33.09.33.4.34.68-.35-.08-.71-.13-.97-.41Z"/>
      <path class="cls-11" d="m19.22,19.96c.12.22.45.42.18.7-.24.25-.55.26-.84.01.22-.24.44-.48.66-.71Z"/>
      <path class="cls-132" d="m14.65,20.39c.37-.1.79-.38.97.25-.31.2-.65.16-.99.16-.1-.14-.13-.28.03-.41Z"/>
      <path class="cls-156" d="m3.22,7.13c.26,0,.6-.22.74.18.08.24-.07.38-.33.4-.11,0-.21.08-.31.12-.19-.21-.1-.46-.1-.7Z"/>
      <path class="cls-160" d="m14.65,20.39c0,.14-.02.27-.03.41-.33.06-.65.02-.97-.05,0-.6.58-.3.82-.53.06.06.11.11.17.17Z"/>
      <path class="cls-155" d="m6.69,12.29c.05-.29.2-.51.5-.35.34.19.21.49.06.76-.18-.14-.37-.28-.55-.42Z"/>
      <path class="cls-1" d="m13.22,31.36c.01-.09.02-.17.03-.26.03-.34.13-.64.54-.68.14-.1.28-.2.42-.3-.21.52-.51.95-1,1.24Z"/>
      <path class="cls-117" d="m11.98,11.3c.01-.23-.31-.5-.02-.68.27-.16.45.06.57.3-.19.13-.37.25-.56.38Z"/>
      <path class="cls-127" d="m8.79,22.47q-.2-.55.55-.57s.08.08.11.12c-.2.17-.35.43-.66.44Z"/>
      <path class="cls-106" d="m2.5,19.26h-.28c.18-.41.49-.73.84-1.01-.07.4-.1.83-.56,1.01Z"/>
      <path class="cls-52" d="m25.65,28.33c-.17-.09-.38-.17-.16-.41.28-.3.51-.18.7.11-.13.19-.33.26-.55.3Z"/>
      <path class="cls-51" d="m7.92,13.11c.05-.19.13-.42.35-.33.31.12.36.45.37.76-.24-.14-.48-.29-.72-.43Z"/>
      <path class="cls-2" d="m5.71,16.19c.11.92-.42.53-.82.4.24-.21.51-.34.82-.4Z"/>
      <path class="cls-93" d="m19.9,18.83c.02.06.03.14.07.19.14.16.6.11.42.46-.16.3-.48.26-.76.06.06-.05.14-.1,0-.15.03-.22.11-.41.28-.57Z"/>
      <path class="cls-58" d="m12.26,19.54c.1.23.29.44.24.72-.36-.13-.59-.42-.82-.71.19,0,.38,0,.57,0Z"/>
      <path class="cls-34" d="m23.41,20.51c-.94.28-.51-.44-.57-.79.1.04.2.08.29.12.08.23.32.39.28.67Z"/>
      <path class="cls-20" d="m4.46,10.22c.22-.1.47-.3.65,0,.13.22,0,.38-.27.4-.17-.09-.29-.23-.38-.4Z"/>
      <path class="cls-91" d="m21.03,16.33c-.18.14-.24.45-.55.42,0-.23,0-.47.01-.7.28-.09.46,0,.54.28Z"/>
      <path class="cls-84" d="m18.65,16.76c-.34-.11-.56-.26-.22-.61.14-.15.09-.34.14-.51.2.36.07.75.08,1.12Z"/>
      <path class="cls-90" d="m9.17,16.75c-.4-.37-.39-.74,0-1.12,0,.37,0,.75,0,1.12Z"/>
      <path class="cls-153" d="m10.71,23.72c.04.44.12.91-.53.98.18-.33.35-.65.53-.98Z"/>
      <path class="cls-115" d="m9.91,13.42c-.05-.43-.08-.85.56-.82-.09.34-.38.54-.56.82Z"/>
      <path class="cls-62" d="m15.05,27.2c.14.05.28.1.43.15.05.29-.07.55-.17.81-.21-.24-.03-.66-.4-.82.05-.05.09-.09.14-.14Z"/>
      <path class="cls-140" d="m27.45,24.13c-.46-.09-.53-.33-.28-.7.2.19.28.43.28.7Z"/>
      <path class="cls-123" d="m17.81,13.84c-.31-.09-.77.01-.68-.56.38,0,.47.36.68.56Z"/>
      <path class="cls-77" d="m11.43,32.06c.21-.47.53-.27.83-.12-.25.24-.55.14-.83.12Z"/>
      <path class="cls-75" d="m15.87,23.02s-.08,0-.12,0c.09-.39-.2-.57-.41-.8.8-.15.5.44.53.8Z"/>
      <path class="cls-64" d="m13.21,10.07c-.2-.15-.53-.18-.52-.56.19-.1.26.13.4.14.15.11.14.27.11.43Z"/>
      <path class="cls-74" d="m8.93,3.79c-.49.29-.6.05-.57-.4.13.21.46.15.57.4Z"/>
      <path class="cls-68" d="m20.74,26.94c.28-.02.3-.22.29-.43.31,0,.34.18.28.42-.16.1-.13.26-.13.41-.19-.09-.33-.22-.44-.39Z"/>
      <path class="cls-12" d="m10.44,21.21s0-.09,0-.14c-.06-.08-.06-.17-.04-.26.11-.11.17-.26.34-.29.47.47-.1.5-.29.69Z"/>
      <path class="cls-41" d="m29.96,14.67c-.06-.21-.38,0-.36-.18.02-.27.28-.24.49-.25.01.16.02.31-.12.42Z"/>
      <path class="cls-152" d="m20.22,14.37c.2-.13.42-.16.7-.09-.22.13-.41.25-.6.36-.1-.07-.11-.17-.1-.28Z"/>
      <path class="cls-154" d="m19.63,19.4c.15-.05.28-.18.45-.09.03.01.06.09.04.11-.12.21-.33.08-.49.13-.04,0-.08,0-.12-.02.04-.05.08-.09.12-.14Z"/>
      <path class="cls-76" d="m9.61,26.07c.27.34.11.49-.24.56.08-.19.16-.38.24-.56Z"/>
      <path class="cls-35" d="m20.48,26.07c-.14.05-.28.11-.43.16-.1-.09-.19-.18-.29-.28.09-.05.18-.11.27-.16.2,0,.42-.02.44.28Z"/>
      <path class="cls-63" d="m3.62,5.05c.04.13.27.15.21.31-.06.16-.23.09-.36.1,0-.15,0-.31.15-.41Z"/>
      <path class="cls-152" d="m23.41,20.51c-.22-.17-.33-.39-.28-.67.05.04.09.07.14.11.08.1.19.18.27.3,0,.11,0,.22-.13.27Z"/>
      <path class="cls-50" d="m9.33,29.71c-.05.05-.1.1-.15.15-.19-.21-.12-.47-.12-.71.04,0,.09,0,.13,0,.18.15.24.33.15.56Z"/>
      <path class="cls-16" d="m10.74,20.52c-.09.09-.19.19-.28.28-.04-.03-.06-.06-.05-.1.01-.03.03-.05.04-.05,0-.14,0-.27,0-.41.09.09.19.18.28.27Z"/>
      <path class="cls-144" d="m8.36,22.75c0-.24,0-.48,0-.72.09.2.18.4.27.59-.09.04-.18.08-.27.13Z"/>
      <path class="cls-129" d="m11.7,13.82c.03.23,0,.42-.29.42.02-.2.12-.33.29-.42Z"/>
      <path class="cls-108" d="m17.56,21.48c.15.11.14.27.13.43-.14-.08-.18-.29-.39-.27.04-.12.15-.14.26-.16Z"/>
      <path class="cls-34" d="m23.53,20.24c-.18-.01-.27-.11-.27-.3.15.02.31,0,.41.15-.05.05-.1.1-.15.15Z"/>
      <path class="cls-101" d="m22.64,15.71c.29,0,.46.09.48.38.03.28-.13.48-.37.46-.23-.02-.43-.26-.48-.47-.03-.12.11-.4.36-.36Z"/>
      <path class="cls-5" d="m22.67,13.59c.22.41.42.67.14.93-.13.13-.33,0-.41-.13-.21-.35.2-.43.27-.81Z"/>
      <path class="cls-109" d="m21.87,15.2c-.01.21-.07.41-.29.39-.33-.02-.11-.37-.26-.55-.15-.18.13-.27.25-.27.28,0,.25.25.3.42Z"/>
      <path class="cls-66" d="m25.57,16.44c.31.28.71.24.7.67,0,.1-.06.26-.2.23-.39-.1-.42-.43-.51-.9Z"/>
      <path class="cls-42" d="m21.93,13.3c-.06.13-.25.2-.27.17-.14-.25-.59.03-.6-.35,0-.2.21-.19.37-.2.28,0,.37.21.5.38Z"/>
      <path class="cls-55" d="m23.87,17.43c-.22.02-.31-.06-.31-.23,0-.2.1-.3.3-.3.16,0,.26.11.29.25.05.26-.23.16-.27.27Z"/>
      <path class="cls-87" d="m23.72,14.72c.16.06.34.2.27.27-.14.14-.1.47-.36.44-.36-.04.07-.3-.1-.48-.16-.16.13-.16.19-.24Z"/>
      <path class="cls-72" d="m25,14.03c-.04.14-.13.28-.28.24-.13-.04-.24-.18-.36-.27.12-.1.17-.29.35-.3.2,0,.25.16.28.32Z"/>
      <path class="cls-60" d="m25.16,16.39c-.7.08-.55-.37-.74-.7.43.11.45.45.74.7Z"/>
      <path class="cls-103" d="m26.74,12.03c-.07,0-.18.04-.23,0-.05-.04-.05-.15-.07-.23.06,0,.14,0,.18.02.06.04.2.03.12.2Z"/>
      <path class="cls-135" d="m23.77,11.36s-.12.06-.15.04c-.07-.05-.11-.12-.16-.19.05-.02.11-.06.15-.05.08.02.18.05.16.2Z"/>
      <path class="cls-112" d="m23.48,13.03s.09.11.12.18c0,.02-.08.08-.13.12-.04-.05-.08-.1-.11-.16-.03-.07-.01-.12.12-.13Z"/>
      <path class="cls-150" d="m8.1,10.7c.18.13.37.29.34.53-.02.21-.16.4-.42.35-.26-.04-.39-.27-.39-.49,0-.22.25-.3.47-.4Z"/>
      <path class="cls-6" d="m9.47,12.15c-.03.26-.18.3-.35.27-.28-.05-.46-.22-.45-.52,0-.18.14-.33.32-.24.21.11.48.2.48.48Z"/>
      <path class="cls-15" d="m8.95,9.67c.22,0,.37.11.36.33,0,.17-.04.4-.29.38-.18-.01-.38-.05-.38-.31,0-.21.1-.35.31-.4Z"/>
      <path class="cls-89" d="m7.42,10.3c.04.23-.16.26-.29.29-.23.05-.43-.07-.48-.28-.05-.22.15-.32.33-.36.26-.05.36.15.44.35Z"/>
      <path class="cls-94" d="m10.44,10.92c0,.21-.1.36-.32.37-.22.01-.35-.12-.34-.33,0-.22.16-.32.37-.33.2-.01.29.1.3.29Z"/>
      <path class="cls-49" d="m5.44,7.18c.03-.18.14-.31.32-.3.25.02.34.23.31.45-.01.11-.05.3-.24.26-.21-.04-.38-.15-.39-.41Z"/>
      <path class="cls-71" d="m7.62,4.73c.22-.06.3.08.3.25,0,.2-.12.37-.31.4-.21.04-.28-.12-.32-.33-.06-.31.18-.25.32-.32Z"/>
      <path class="cls-8" d="m5.84,8.96c.2,0,.29.11.3.3,0,.2-.04.38-.3.37-.22,0-.26-.16-.26-.33,0-.18.05-.32.26-.33Z"/>
      <path class="cls-18" d="m7.91,9.36c-.19,0-.31-.09-.35-.26-.05-.21.09-.31.26-.33.22-.03.34.14.36.33.02.16-.11.24-.26.27Z"/>
      <path class="cls-98" d="m4.11,6.27c.32-.07.41-.48.71-.18.09.09.18.25.06.37-.31.31-.44-.11-.78-.2Z"/>
      <path class="cls-7" d="m10.24,8.91c-.09.2-.12.42-.35.4-.18-.02-.24-.2-.24-.36,0-.19.16-.26.33-.26.17,0,.22.11.25.22Z"/>
      <path class="cls-70" d="m12.46,8.73c-.06.26-.32.2-.49.28-.16.08-.25-.01-.27-.18-.04-.35.24-.16.36-.22.15-.07.3-.09.39.11Z"/>
      <path class="cls-71" d="m8.92,6.16c-.2.13-.36.13-.51-.09-.08-.11-.11-.17-.03-.28.17-.21.35-.16.54-.03.09.13.11.27,0,.4Z"/>
      <path class="cls-151" d="m7.03,6.22c.01.09-.06.19-.19.18-.21-.02-.44-.07-.48-.31-.02-.12.13-.17.25-.19.22-.03.36.04.42.32Z"/>
      <path class="cls-8" d="m4.72,8.12c.15,0,.28.04.28.22,0,.15-.09.27-.25.28-.14.01-.31-.05-.33-.19-.02-.16.09-.31.3-.31Z"/>
      <path class="cls-151" d="m11.01,9.65c.3-.13.35.12.38.29.02.1-.09.28-.19.33-.14.07-.16-.09-.2-.2-.11-.14-.09-.28,0-.42Z"/>
      <path class="cls-73" d="m7.94,7.11c-.02.15-.05.29-.2.25-.15-.03-.22-.17-.21-.32,0-.07-.03-.24.09-.18.11.06.36.02.32.24Z"/>
      <path class="cls-86" d="m11.26,7.73c0,.16-.08.23-.21.24-.11,0-.25.01-.26-.15,0-.13.1-.2.22-.23.13-.03.23.01.25.14Z"/>
      <path class="cls-102" d="m6.35,4.29c.14-.28.33-.23.57-.12-.17.25-.35.21-.57.12Z"/>
      <path class="cls-94" d="m8.97,7.86s.13.1.13.16c.02.13-.08.21-.2.19-.07-.01-.17-.09-.18-.15-.02-.12.07-.2.25-.2Z"/>
      <path class="cls-35" d="m5.39,5.14c.17-.1.32-.15.41.04.02.04-.03.15-.07.16-.23.1-.18-.2-.34-.21Z"/>
      <path class="cls-65" d="m9.93,7.24s-.11-.05-.12-.09c-.03-.1.03-.18.13-.2.04-.01.13.04.15.09.05.11-.04.16-.15.21Z"/>
      <path class="cls-53" d="m6.83,8.38c-.05-.08-.11-.13-.12-.18,0-.1.04-.19.15-.15.04.01.08.11.08.16,0,.05-.06.1-.12.17Z"/>
      <path class="cls-80" d="m11.01,9.65c0,.14,0,.28,0,.42-.43-.15-.21-.29,0-.42Z"/>
      <path class="cls-150" d="m8.92,6.16c0-.13,0-.27,0-.4.24.13.41.27,0,.4Z"/>
      <path class="cls-78" d="m18.54,8.08c-.22.22-.39.4-.66.33-.09-.02-.16-.19-.07-.29.2-.22.43-.16.73-.04Z"/>
      <path class="cls-111" d="m18.88,6.79c.12.27.47.37.4.68-.02.11-.19.09-.29.03-.32-.18-.26-.42-.11-.71Z"/>
      <path class="cls-9" d="m14.66,9.59c.24-.23.4-.41.65-.27.05.03.09.21.07.23-.19.17-.42.11-.72.03Z"/>
      <path class="cls-35" d="m17.23,9.85c-.05-.32-.3-.49-.13-.76.01-.02.1-.04.12-.02.23.2.18.43.01.78Z"/>
      <path class="cls-6" d="m16.92,7.66c-.1-.09-.2-.14-.22-.22-.07-.2.13-.2.23-.24.1-.04.18.04.15.15-.03.1-.1.19-.16.31Z"/>
      <path class="cls-81" d="m17.67,4.44c-.19-.3.03-.41.21-.61.19.36-.21.39-.21.61Z"/>
      <path class="cls-138" d="m16.04,8.79c-.12-.03-.23-.07-.2-.22.02-.1.1-.15.2-.14.12.02.21.1.2.23,0,.12-.11.13-.2.12Z"/>
      <path class="cls-136" d="m15.41,4.18c.25.06.4.1.65.15-.3.2-.46.21-.65-.15Z"/>
      <path class="cls-101" d="m17.92,10.39c.17-.03.34-.23.46.03.02.05,0,.17-.03.19-.21.09-.29-.1-.43-.22Z"/>
      <path class="cls-128" d="m20.54,8.06c-.03.1-.1.16-.2.14-.11-.02-.14-.11-.11-.2.02-.05.09-.11.14-.11.09,0,.16.07.17.18Z"/>
      <path class="cls-79" d="m18.93,3.46c-.13-.03-.21-.09-.18-.19.02-.07.1-.13.15-.2.08.08.15.16.23.24-.07.05-.14.1-.2.14Z"/>
      <path class="cls-137" d="m18.08,6.49s-.14-.07-.17-.14c-.04-.1.04-.16.14-.16.1,0,.16.07.18.17,0,.08-.02.13-.15.13Z"/>
      <path class="cls-137" d="m15.98,6.38s-.1.11-.18.14c-.02.01-.09-.06-.13-.09.06-.06.11-.13.18-.17.07-.04.12,0,.13.12Z"/>
      <path class="cls-137" d="m18.76,5.05c.07.11.12.16.12.22,0,.05-.04.1-.07.15-.04-.04-.11-.07-.13-.11-.01-.04.02-.11.07-.26Z"/>
      <path class="cls-158" d="m20.48,26.07c-.15-.09-.29-.18-.44-.28-.16-.28-.12-.52.14-.72.18-.14.41-.17.58-.06.3.17.28.5.26.8,0,.12-.03.21-.13.27-.14,0-.28,0-.41,0Z"/>
      <path class="cls-141" d="m18.81,23.17c-.17-.82,0-1.08.7-1.11q.37.73-.7,1.11Z"/>
      <path class="cls-149" d="m22.59,27.89c-.25-.19-.57-.36-.37-.76.13-.26.38-.21.6-.2.4,0,.29.33.33.55-.07.29-.31.36-.56.41Z"/>
      <path class="cls-158" d="m21.32,26.92c-.09-.14-.18-.28-.28-.42,0-.09,0-.18,0-.27-.01-.33.16-.39.43-.3.15.02.32-.01.42.14.24.2.26.44.12.7-.21.14-.45.16-.69.15Z"/>
      <path class="cls-8" d="m23.96,26.78c-.43.09-.71-.15-.96-.44.07-.09.14-.18.2-.27.15-.26.41-.28.64-.22.39.09.15.45.25.67.09.15-.06.19-.13.27Z"/>
      <path class="cls-157" d="m21.43,24.7c-.22.02-.44-.05-.45-.35-.01-.29.22-.4.47-.4.29,0,.49.21.5.47.01.27-.26.27-.52.28Z"/>
      <path class="cls-95" d="m20.38,21.77c-.27-.03-.57-.05-.58-.42,0-.26.21-.38.41-.36.23.03.51.08.45.46-.03.19.01.38-.28.33Z"/>
      <path class="cls-49" d="m23.93,24.23c-.03.23-.13.41-.38.38-.16-.02-.44.1-.43-.27,0-.29.06-.52.37-.57.31-.04.32.27.44.46Z"/>
      <path class="cls-88" d="m20.36,23.92c-.37-.04-.32-.37-.39-.57-.06-.22.15-.3.34-.32.32-.04.35.18.4.42.08.34-.18.37-.36.48Z"/>
      <path class="cls-6" d="m25.05,25.35c-.01.2-.22.27-.42.29-.25.03-.38-.14-.38-.38,0-.22.06-.42.35-.39.25.02.43.13.45.47Z"/>
      <path class="cls-96" d="m25.79,24c-.07.16.14.51-.3.43-.21-.04-.43-.03-.4-.34.03-.32.26-.52.53-.54.26-.01.09.29.17.44Z"/>
      <path class="cls-152" d="m22.26,23.59c-.16-.02-.41-.03-.33-.23.09-.22.14-.55.47-.58.18-.02.3.14.29.31-.02.27-.13.48-.44.5Z"/>
      <path class="cls-88" d="m22.66,21.37c-.06.21-.09.41-.36.32-.22-.07-.43-.11-.43-.43,0-.32.19-.25.39-.29.41-.08.25.29.39.39Z"/>
      <path class="cls-65" d="m24.86,23.2c-.06.23-.22.35-.44.37-.19.01-.32-.08-.3-.28.01-.23.07-.49.35-.51.24-.01.28.26.4.42Z"/>
      <path class="cls-92" d="m26.57,24.65c.22-.04.38.1.4.27.04.27-.17.41-.42.44-.22.03-.33-.12-.36-.33-.04-.28.16-.34.37-.39Z"/>
      <path class="cls-10" d="m21.1,20.72c-.23-.1-.36-.27-.34-.53.01-.18.09-.31.3-.27.2.04.42.07.4.36-.02.22-.14.37-.36.44Z"/>
      <path class="cls-96" d="m21.19,21.95c.29.05.42.22.45.48.03.22-.09.3-.29.26-.16-.04-.43.05-.41-.24.02-.18,0-.43.24-.5Z"/>
      <path class="cls-142" d="m25.64,25.75c.17.02.4.03.35.28-.03.18-.11.44-.37.42-.22-.01-.37-.19-.39-.41-.02-.26.24-.21.4-.29Z"/>
      <path class="cls-152" d="m22.74,25.43c.05.21,0,.37-.21.32-.22-.04-.33-.22-.36-.45-.03-.24.11-.34.32-.35.44-.03.12.36.26.48Z"/>
      <path class="cls-19" d="m23.25,21.83c.27.12.41.28.4.5-.01.19-.17.37-.37.34-.15-.02-.36-.16-.3-.37.05-.17.18-.32.27-.47Z"/>
      <path class="cls-43" d="m24.51,21.09c0,.19-.11.24-.27.24-.2,0-.28-.12-.26-.31.02-.16.13-.25.27-.25.21,0,.21.2.26.33Z"/>
      <path class="cls-67" d="m24.39,27.47s0-.09,0-.13c-.05-.24-.07-.46.28-.43h0c.17.11.44.04.54.29-.09.14-.18.28-.27.42-.21.04-.4,0-.55-.15Z"/>
      <path class="cls-54" d="m25.31,21.78c.1.02.26,0,.26.15,0,.21-.17.32-.35.37-.12.04-.24,0-.25-.16-.01-.23.12-.33.34-.36Z"/>
      <path class="cls-85" d="m24.67,26.91c-.24.05-.18.29-.28.43-.18-.08-.28-.22-.28-.42.12-.21-.09-.09-.14-.14.04-.09.09-.18.13-.27.21.1.46.15.57.39Z"/>
      <path class="cls-72" d="m25.21,27.2c-.16-.14-.49.04-.54-.29.32-.15.58-.22.54.29Z"/>
      <path class="cls-35" d="m21.47,25.93c-.2.02-.35.11-.43.3-.04-.05-.09-.1-.13-.15,0-.11.02-.21.13-.27.16,0,.32-.03.44.12Z"/>
      <path class="cls-46" d="m24.39,27.47c.2-.01.38.05.55.15-.25.19-.46.26-.55-.15Z"/>
      <path class="cls-68" d="m22.01,26.78c.04-.25-.02-.48-.12-.7.09,0,.18,0,.26.01-.03.23.11.5-.14.69Z"/>
      <path class="cls-21" d="m13.1,19.39c-.23,0-.47,0-.7,0-.3-.21.05-.84-.55-.85-.05-.23-.03-.43.28-.41.14.18.3.3.56.3.31,0,.58.11.57.51-.05.15-.1.3-.15.44Z"/>
      <path class="cls-30" d="m16.59,20.1c-.2.04-.41.12-.6.1-.3-.04-.49-.27-.5-.57-.01-.28.22-.39.45-.44.29-.06.48.13.56.38.06.17.05.36.08.54h0Z"/>
      <path class="cls-25" d="m16.79,19.11c-.36,0-.53-.16-.49-.48.03-.27.16-.5.48-.47.29.03.48.2.46.5-.02.28-.16.49-.45.45Z"/>
      <path class="cls-133" d="m12.13,18.14c-.09.14-.19.27-.28.41-.77-.03-.82-.13-.54-.95.39,0,.85-.09.82.54Z"/>
      <path class="cls-133" d="m13.66,18.38c-.31-.09-.44-.3-.43-.62,0-.33.27-.37.49-.37.32,0,.38.27.38.55,0,.3-.18.4-.43.44Z"/>
      <path class="cls-27" d="m13.56,15.37c.28-.05.45.12.46.37.01.28-.22.48-.46.53-.27.05-.42-.17-.44-.42-.03-.31.11-.49.45-.48Z"/>
      <path class="cls-26" d="m14.8,19.25c-.39-.03-.5-.27-.52-.52-.03-.3.27-.38.47-.39.3-.01.43.24.43.51,0,.28-.19.39-.38.4Z"/>
      <path class="cls-27" d="m15.04,16.82c.03.34-.2.38-.4.4-.28.03-.5-.09-.55-.39-.04-.23.03-.45.29-.46.33-.01.53.21.66.45Z"/>
      <path class="cls-104" d="m12.47,15.37c-.33,0-.5-.14-.49-.41,0-.28.16-.5.45-.51.22,0,.39.13.4.39.01.29-.09.49-.35.53Z"/>
      <path class="cls-130" d="m15.59,17.25c.35.08.5.34.55.65.04.23-.14.25-.31.25-.39.02-.55-.24-.59-.55-.02-.19.13-.33.35-.35Z"/>
      <path class="cls-105" d="m12.51,17.32c-.22-.02-.38-.14-.38-.39,0-.32.24-.42.51-.44.25-.02.4.13.38.37-.03.28-.19.46-.51.46Z"/>
      <path class="cls-107" d="m16.71,17.14c-.29-.06-.43-.21-.42-.49,0-.29.18-.33.42-.33.23,0,.49.13.46.32-.04.19-.18.47-.46.5Z"/>
      <path class="cls-100" d="m13.75,13.84c-.06.22-.14.4-.41.39-.29-.01-.39-.19-.38-.45,0-.16,0-.36.23-.33.24.03.49.11.56.39Z"/>
      <path class="cls-29" d="m11.4,16.4c-.27-.05-.33-.28-.35-.5-.02-.27.21-.25.39-.26.28-.02.43.1.41.4-.02.28-.23.31-.44.36Z"/>
      <path class="cls-99" d="m14.48,14.39c.21,0,.44.02.41.32-.02.22-.19.39-.39.4-.21,0-.39-.14-.41-.38-.02-.28.15-.35.39-.33Z"/>
      <path class="cls-100" d="m16.39,15.15c-.19-.07-.37-.19-.32-.39.06-.24.31-.33.53-.34.13,0,.36.09.32.27-.05.26-.3.37-.54.45Z"/>
      <path class="cls-33" d="m17.8,17.17c.23,0,.36.13.34.3-.02.18-.16.35-.36.37-.18.02-.32-.07-.26-.29.05-.17.04-.39.28-.38Z"/>
      <path class="cls-32" d="m17.54,15.25c.24.06.34.25.34.46,0,.16-.16.21-.31.18-.21-.05-.3-.19-.3-.4,0-.16.09-.25.27-.23Z"/>
      <path class="cls-28" d="m15.56,15.92c-.17,0-.35-.01-.35-.24,0-.2.14-.3.31-.3.2,0,.27.17.3.32.04.21-.13.2-.26.22Z"/>
      <path class="cls-27" d="m15.43,13.91c-.13-.01-.22-.1-.21-.22.02-.19.13-.36.34-.34.13.01.27.13.24.29-.04.18-.22.21-.37.27Z"/>
      <path class="cls-56" d="m7.8,18.83c-.13.21-.39.16-.55.29-.36,0-.71-.1-1.05-.2-.29-.22-.25-.55-.3-.86.25-.57.69-.38,1.11-.27.42.23.33.84.79,1.04Z"/>
      <path class="cls-145" d="m6.28,18.86c.35-.02.72-.1.96.26-.05.24.16.59-.25.69-.39.1-.65-.11-.85-.41-.13-.23-.12-.42.14-.54Z"/>
      <path class="cls-10" d="m6.97,16.88c0-.09,0-.19,0-.28-.02-.36-.05-.77.44-.78.51-.01.55.4.52.8-.27.25-.6.32-.96.27Z"/>
      <path class="cls-90" d="m9.06,17.15c.01.39-.15.57-.49.58-.31,0-.58-.12-.57-.44.01-.35.28-.57.64-.58.33,0,.39.25.42.45Z"/>
      <path class="cls-158" d="m4.03,19.26c.22-.27.53-.28.85-.28.17.02.21.16.28.28-.03.23.16.46,0,.69-.34.08-.69.22-.96-.14,0-.2-.05-.39-.15-.56Z"/>
      <path class="cls-152" d="m2.93,22.31c-.33,0-.5-.19-.55-.5-.04-.23-.02-.48.25-.57.28-.09.48.02.6.3.07.17-.02.43.24.52.05.04.07.1.07.16-.04.1-.1.15-.21.15-.13-.08-.26-.17-.41-.06Z"/>
      <path class="cls-158" d="m3.35,22.33s.09-.09.14-.14c.93-.15.95-.13.85.71-.41.45-.74.42-.99-.15-.1-.14-.1-.28,0-.42Z"/>
      <path class="cls-118" d="m4.32,21.91c0-.09-.01-.18-.02-.27-.09-.23-.11-.43.15-.57.3-.07.62-.12.78.21.14.29.09.58-.21.78-.26.06-.53.17-.7-.15Z"/>
      <path class="cls-158" d="m3.9,21.19c-.69-.12-.79-.28-.55-.95.31-.05.71-.27.87.15.1.26.19.7-.32.81Z"/>
      <path class="cls-158" d="m7.51,21.33c-.19.59-.67.44-1.09.42-.16-.59.19-.83.68-.97.24.1.3.34.41.55Z"/>
      <path class="cls-158" d="m6.42,22.59c-.05.14-.1.28-.15.42-.3.11-.59.21-.82-.13-.04-.36-.05-.71.41-.81.43-.09.49.22.56.52Z"/>
      <path class="cls-146" d="m8.22,20.24c-.06.64-.19.69-.97.42.02-.26-.06-.57.29-.67.28-.08.53-.04.68.25Z"/>
      <path class="cls-149" d="m7.8,18.83c-.79.08-.58-.55-.68-.96.07-.1.2-.05.28-.14.63.18.77.54.4,1.09Z"/>
      <path class="cls-142" d="m5.86,17.44c.18-.48.46-.72.96-.41.1.17.16.35.14.55-.52.34-.83.3-1.1-.14Z"/>
      <path class="cls-9" d="m6.25,20.49c0,.3-.14.43-.39.43-.28,0-.42-.15-.43-.43,0-.2.02-.38.27-.39.3-.01.44.18.55.39Z"/>
      <path class="cls-6" d="m8.7,18.85c.21.03.43.13.45.4.02.23-.17.38-.39.4-.3.03-.39-.19-.4-.44,0-.21.06-.36.34-.35Z"/>
      <path class="cls-85" d="m3.9,21.19c.29-.19.38-.48.24-.77-.16-.35-.52-.13-.79-.19.18-.33.75.1.84-.42.3.2.64.13.96.14-.53.19-1.21.28-.69,1.12-.05.19-.1.38-.15.57-.16-.12-.11-.45-.41-.44Z"/>
      <path class="cls-40" d="m5.86,17.44c.32.42.7.34,1.1.14.1.17.28.14.43.15-.09.05-.19.09-.28.14-.37.11-.86-.28-1.12.27-.03.02-.05.03-.08.05-.23.01-.45,0-.62-.18.17-.21.66-.09.56-.57Z"/>
      <path class="cls-44" d="m4.32,21.91c.21.14.46.15.7.15-.5.05-.57.47-.7.84.13-.73-.33-.76-.85-.71,0-.04,0-.09,0-.13.28-.07.6.11.84-.15Z"/>
      <path class="cls-60" d="m5.45,22.88c.25.18.54.16.82.13.28.03.29.22.28.43-.29-.33-.61-.41-.98-.13-.25-.19-.55-.13-.83-.16.18-.25.55,0,.72-.27Z"/>
      <path class="cls-109" d="m5.15,19.26c-.09-.09-.19-.18-.28-.28.21-.24.03-.61.28-.84.21.23.16.63.51.77.02.03.04.05.05.08-.13.21-.44.05-.57.27Z"/>
      <path class="cls-109" d="m6.28,18.86c-.11.16-.17.34-.14.54-.19-.08-.11-.44-.42-.41,0,0-.01-.01-.01-.01,0-.31.09-.58.28-.82,0,0,0-.02,0-.02.26.17.01.55.29.72Z"/>
      <path class="cls-103" d="m9.61,20.66s-.1.1-.15.15c-.11-.01-.21-.04-.27-.15.05-.09.1-.19.14-.28.09.1.18.19.27.29Z"/>
      <path class="cls-44" d="m3.35,22.33c0,.14,0,.28,0,.42-.18-.11-.12-.44-.42-.43.15-.16.29-.16.42.02Z"/>
      <path class="cls-147" d="m14.63,23.3c.2.31.13.65.14.99-.05.04-.09.09-.14.13-.16.16-.35.18-.56.13-.54.88.32.76.7.98-.25.21-.59.25-.85.44-.09-.14-.18-.29-.27-.43.28-.83.19-.96-.7-.98.29-.32.76-.55.57-1.12.1-.17.16-.36.14-.56.15.53.59.42.97.43Z"/>
      <path class="cls-56" d="m11.01,24.56c-.26-.25-.1-.57-.14-.85.39,0,.79-.06.86.53.04.37.4.31.67.32.17-.09.3-.1.29.15-.02.27.05.58-.34.67-.37.08-.49-.19-.59-.45-.14-.36-.43-.38-.74-.36Z"/>
      <path class="cls-143" d="m12.95,26.09c.04.16-.05.38.27.37.3-.02.64,0,.69.41.05.41-.19.65-.58.74-.16.04-.23.14-.25.29-.18-.13-.36-.27-.54-.4.11-.29.1-.57,0-.86.14-.18.27-.36.41-.54Z"/>
      <path class="cls-97" d="m12.69,24.7c-.06-.12-.17-.15-.29-.15.12-.16.41-.2.4-.43-.03-.54.34-.61.72-.69q.35.79-.57,1.12c-.09.05-.17.1-.26.15Z"/>
      <path class="cls-49" d="m10.03,30.68c0-.27,0-.55,0-.82-.23-.29-.2-.66-.28-.99.09-.09.19-.18.28-.27.43.12.89.41,1.12-.28.29-.01.61.14.85-.14.09.14.18.28.27.43.04.05.08.1.09.16,0,.1-.02.19-.11.25-.6-.49-.95-.4-1.11.28-.05.02-.09.02-.13,0-.17-.08-.32-.31-.54-.15-.21.16-.02.38-.02.57-.45.19-.13.71-.43.97Z"/>
      <path class="cls-23" d="m12.25,29.02c0-.09.01-.18.02-.27.2-.19.49.02.69-.15.05,0,.09,0,.14-.02.16.17.21.39.25.6.01.08,0,.15,0,.23-.22.43-.58.34-.94.26-.17-.09-.26-.2-.15-.39,0-.09,0-.18,0-.28Z"/>
      <path class="cls-61" d="m10.54,26.8c.23,0,.32.18.31.41-.02.39-.33.46-.63.52-.18.03-.34-.03-.29-.26.06-.33.16-.64.61-.68Z"/>
      <path class="cls-124" d="m11.99,28.17c-.16.77-.51.42-.85.14-.03-.32.07-.53.44-.56.32-.02.4.15.41.42Z"/>
      <path class="cls-125" d="m12.54,26.63c.44.29.44.57,0,.86-.2-.02-.41,0-.43-.3-.02-.32.09-.52.43-.56Z"/>
      <path class="cls-48" d="m11.3,25.68c.29-.02.41.11.4.37,0,.27-.11.44-.4.45-.3,0-.3-.21-.31-.42,0-.24.05-.41.3-.39Z"/>
      <path class="cls-73" d="m13.22,29.16c-.18-.16-.11-.38-.12-.58.04-.09.09-.18.13-.27,0,.1,0,.2.01.29.14.19.17.38-.01.56Z"/>
      <path class="cls-73" d="m12.96,28.6c-.19.22-.46.1-.69.15,0-.05,0-.1,0-.15.23,0,.46,0,.7,0Z"/>
      <path class="cls-146" d="m5.98,18.16c.02.31.05.63-.28.82-.74.09-.53-.45-.55-.83.05-.05.09-.09.14-.14.24-.02.48,0,.69.15Z"/>
      <path class="cls-45" d="m10.45,29.72c-.37-.08-.28-.37-.27-.6.01-.21.19-.2.36-.24.37-.08.46.21.6.43-.08.39-.44.31-.69.42Z"/>
      <path class="cls-57" d="m12.12,29.84c-.06.25.16.62-.29.71-.37.22-.41-.07-.48-.31-.14-.46.23-.45.5-.54.16-.09.27-.09.28.14Z"/>
      <path class="cls-47" d="m10.85,31.64c-.3,0-.4-.17-.41-.44,0-.21.06-.37.3-.35.23.01.47.06.52.35.05.3-.19.38-.41.45Z"/>
      <path class="cls-49" d="m12.12,29.84c-.06-.11-.17-.13-.28-.14.14-.14.27-.27.41-.41.05.09.1.19.15.28.07.16-.02.23-.15.29-.04,0-.09-.01-.13-.02Z"/>
      <path class="cls-154" d="m13.92,25.97c.07-.57.51-.41.85-.44.24.31.33.67-.04.87-.37.2-.7,0-.81-.44Z"/>
      <path class="cls-118" d="m13.22,29.16c0-.19,0-.37.01-.56.04,0,.09-.01.13-.02.94-.13.96-.12.84.71l-.14.14c-.3.09-.6.18-.83-.14,0-.04-.01-.09-.02-.13Z"/>
      <path class="cls-23" d="m14.07,24.55c.15-.18.37-.11.56-.13.05.28.1.55.16.83-.57.1-.8-.13-.71-.7Z"/>
      <path class="cls-73" d="m14.21,29.29c.14-.74-.35-.73-.84-.71.17-.25.53-.01.71-.27.27.26.7,0,.96.28-.61-.16-.68.32-.83.7Z"/>
      <path class="cls-14" d="m22.15,16.9c-.02.06-.01.16-.05.19-.18.11-.13.48-.44.42-.16-.03-.2-.18-.17-.32.06-.3.29-.3.53-.29.05,0,.09,0,.14,0,0,0,0,0,0,0Z"/>
      <path class="cls-10" d="m13.24,29.29c.26.17.54.14.83.14-.79.3-.85.51-.28.99-.27.15-.39.43-.54.68,0-.22-.03-.44-.34-.4-.67.07-.69-.36-.66-.83.05-.1.1-.19.15-.29.27-.12.7.21.84-.28Z"/>
      <path class="cls-158" d="m9.75,28.87c.53.21.19.66.28.99-.24,0-.48,0-.69-.16-.1-.17-.16-.36-.15-.56.15-.17.34-.25.56-.28Z"/>
      <path class="cls-103" d="m10.45,20.65s0,.1,0,.15c0,.09-.01.18-.02.28-.16-.36-.6-.18-.83-.42.28,0,.56,0,.84,0Z"/>
    </g>
  </g>
</svg>