<?xml version="1.0" encoding="utf-8"?>
<!-- Generator: Adobe Illustrator 28.1.0, SVG Export Plug-In . SVG Version: 6.00 Build 0)  -->
<svg version="1.1" id="_圖層_2" xmlns="http://www.w3.org/2000/svg" xmlns:xlink="http://www.w3.org/1999/xlink" x="0px" y="0px"
	 viewBox="0 0 1370 1329.2" style="enable-background:new 0 0 1370 1329.2;" xml:space="preserve">
<style type="text/css">
	.st0{fill:#FFFFFF;}
	.st1{fill:#E20011;}
	.st2{fill:#D7000F;}
	.st3{fill:#DB0010;}
	.st4{fill:#E94528;}
	.st5{fill:#EC6640;}
	.st6{fill:#ED7054;}
	.st7{fill:#231815;}
</style>
<g id="群組">
	<g>
		<path class="st0" d="M741.4,1089.3c-2.2,7.8-3.1,16.2-2.2,24.3c1.2,10.3,8.4,18.6,19.7,17s16.6-11.4,14.4-21.7
			c-0.1-0.4-0.7-4.7-0.5-2.7s-0.1-2.9,0-2.8c0-1.1,0-2.2,0.1-3.3c0.2-5-0.7,2.7,0.3-2.2c1.5-8.4-2.3-18.1-11.5-20.2
			C752.9,1075.9,743.9,1080.5,741.4,1089.3L741.4,1089.3L741.4,1089.3z"/>
		<g>
			<path class="st1" d="M-20.7,329c0,0-67.5,23.7-30.3,74.1s79.2-25.6,54.3-53.6C-21.6,321.5-20.7,329-20.7,329L-20.7,329z"/>
			<path class="st1" d="M34.4,1007.5c0,0-23.4,60.2,10.7,76.4s70.6,15.6,72.5-24.6C119.6,1019.2,108.4,959.8,34.4,1007.5
				L34.4,1007.5z"/>
			<path class="st1" d="M473.1-69.3c0,0,33.3,25.3,19.1,73S447.7,41.3,436,8.5C424.4-24.3,435.6-78,473.1-69.3"/>
			<path class="st1" d="M1062.4-94.3c0,0,66.2-12.2,75.9,28.5S1117.8,1,1081,3.9c-36.8,3-56.2-16.4-62.9-41.1
				C1011.4-61.9,1041-92.6,1062.4-94.3z"/>
			<path class="st1" d="M957,860.2c0,0-7.3-34.9,25.9-48.1c33.3-13.2,64.3,18.5,45.3,59.9C1009.2,913.5,953.2,907.7,957,860.2z"/>
			<path class="st1" d="M717.1,780.4c0,0,23.8-30.5,64.7,13.6c40.9,44.1,83.9,64.4,119.9,32.8c36-31.7-21.5-75.8-50.6-93.4
				c-29.1-17.6-71.5-43.8-50.9-78.3c20.5-34.6,82.9-10.6,135.1,13.8c52.1,24.4,221.9,110,262.5,2.5
				c40.6-107.5-131.9-111-160.2-112.5s-199.7,26-234.9-22s5.4-72.3,47.6-76.7s153-39.3,149.7-96.9c0,0-9-42.6-62.5-29.5
				c-19.7,4.8-35.2,21.5-50.4,38c-26.1,28.4-51.4,56.5-95.5,23.4c0,0-37.4-47.9,24.3-89.6s194.3-106.2,216.9-185.7
				S973.2,5.3,916.6,32.3S807.4,152.6,770,214.3c-37.4,61.7-70.5,93.4-103.2,72.5s6.4-101.7-16.8-132c-23.2-30.3-49.5-30.6-52.2,2.1
				s-10.8,54.2-37.8,39.7s-29-109.6-69.6-99.6c-20.4,5-18.2,48.9-17,93.2c1.2,43.9,1.4,88.2-22.3,95.5
				c-47.7,14.6-73.1-28.5-89.1-67.8c-16-39.2-82.2-131.3-153.1-127.7s-13.5,103,8.3,135s127.1,117.3,108.3,195.1
				c-18.8,77.8-120.1,0.3-120.1,0.3s-85.4-45-116.9,24.1s145.9,55.6,145.9,55.6s73.4,21.7,23.8,65.4
				c-49.6,43.7-202.5,33.5-247.1,34.2s-174.8,3.7-163.4,96.3S28.1,739,90.1,710.6c62-28.5,185.3-65.5,233.9-19.2
				s78.4,111.6,23.9,159.7c-16.6,14.7-45,26-74.4,37.7c-66.9,26.6-139.3,55.6-92.9,132.6c0,0,57.4,45.9,119-11.9
				c61.5-57.8,85.4-139.4,136-108.1c50.6,31.4-31.6,148.5,23.3,188.2s77.6-25,75-93.4c-2.7-68.3,31.5-81.2,71.6-65.8
				c40.1,15.3,54,66.4,53.6,102.4c-0.4,36,31,183.4,94.7,184s82.1-67.6,64.1-179.4c-18-111.9-73.5-158.4-90.4-177.2
				S699.4,800.4,717.1,780.4"/>
			<path class="st2" d="M433.5,686.6c1.5-4,2.6-8.1,3.6-12.3c0.2-0.9,0.5-1.9,0.7-2.8c-0.1,0.5-0.2,0.9-0.2,1.3
				c-2,3.7-0.6,0.9-0.2,0.2c2.1-3.6,4.3-7.2,4.8-11.5c0.7-6.1-1.6-12.9-3.2-18.7c-1.4-4.9-2.8-9.7-4.7-14.5
				c-3.7-9.2-8.7-18.2-14.4-26.3c-5.2-7.4-11.6-13.6-17-20.7c1.7,3.9,3.3,7.9,5,11.8c-0.2-2.1-0.4-4.2-0.4-6.4
				c0,2.5,0.1,4.9,0.1,7.4c0-3.8,0.5-7.6,1.3-11.2c-0.7,3-1.4,5.9-2.1,8.9c0.1-0.5,0.2-1,0.4-1.5c-1.5,2.7-2.9,5.5-4.3,8.2
				c4.1-6.6,6.1-11.2,7.1-19.1c-0.8,3.1-1.5,6.2-2.2,9.4c0.4-1.1,0.9-2.1,1.4-3.1c-1.6,2.9-3.1,5.9-4.7,8.8c0.8-1.4,1.7-2.6,2.8-3.8
				c-2.5,2.6-4.9,5.2-7.4,7.8c0.9-0.9,1.8-1.7,2.8-2.4c-10.9,2.9-21.7,5.8-32.6,8.7c0.1,0,0.2,0,0.3,0c14.8,2.4,33.1-3.9,41.1-17.3
				c0.3-0.6,0.6-1,1.1-1.4c-2.7,2.8-5.3,5.6-7.9,8.5c0.9-0.9,1.9-1.7,3-2.4c-3.5,2.1-6.9,4.1-10.4,6.2c2.4-1.4,4.8-2.3,7.5-3
				c-4,1.1-8,2.1-12.1,3.2c8.5-2.2,17.4-3.5,25.5-7.1c7.6-3.4,15.2-7.8,21.5-13.4c9.5-8.5,15.8-19,21-30.8
				c3.4-7.7,5.3-16.4,6.5-24.8c2.7-17.9-1.4-34.2-6.8-51.3c-1.3-4-2.5-8.2-4.5-12c-2-3.9-3.8-7.8-5-11.9c1.2,4.5,2.5,9,3.7,13.4
				c-0.7-2.5-1.2-5-1.2-7.5c0.1,4.4,0.2,8.7,0.2,13.1c0-1.7,0.2-3.3,0.5-4.9c-1,4.1-2,8.2-2.9,12.2c0.5-1.8,1.1-3.4,1.9-5
				c-1.9,3.6-3.8,7.2-5.8,10.8c1.1-1.9,2.5-3.5,4-5.2c-2.7,2.9-5.5,5.8-8.2,8.7c1.2-0.9,2.4-1.7,3.7-2.5c-3.5,2.1-7,4.2-10.5,6.3
				c12.3-7.3,25.3-13.5,35.6-23.8c14.6-14.5,29.1-31.8,32.5-53.5c2.5-16.2-5.9-32.4-17.9-42.6c-0.3-0.2-0.5-0.4-0.8-0.6
				c-5.6,23.5-11.1,47-16.7,70.5c0.2,0,0.3-0.1,0.5-0.1c-13.8-11.1-27.6-22.2-41.4-33.3c2.8,14.7,8.8,29.2,18.6,40.6
				c5,5.9,10.7,11.8,16.9,16.3c4.8,3.5,10.1,6.4,15.2,9.3c2,1.1,4,2.2,6,3.1c3.8,1.6,7.8,2.6,11.7,3.8c4,1.2,8,2.5,12,3.2
				c8.4,1.4,17.1,1.5,25.4,0.6c4.4-0.5,8.6-1.9,12.8-3c4.3-1.1,8.8-2,12.9-3.9c5-2.2,9.5-5.5,14.9-7c-5.6,1.5-11.2,3-16.8,4.4
				c1.2-0.3,2.3-0.3,3.5-0.5c-5.7-0.1-11.5-0.2-17.2-0.3c0.8,0.2,1.5,0.3,2.2,0.5c-5.6-1.6-11.2-3.3-16.8-4.9c1,0.3,2,0.7,3,1
				c6.2,1.9,12.3,3.7,18.5,5.4c6.1,0.1,12.2,0.2,18.2,0.3c2.6-0.2,5.2-0.4,7.8-0.5c5.7-0.3,11.4-0.5,17.1-0.8
				c2.7-0.1,5.5-0.3,8.2-0.4c1.4-0.1,2.7-0.1,4.1-0.2c0.7,0,1.4-0.1,2-0.1c10-0.8,19-4.1,27-9.9c5.1-3.1,8.9-5.4,13.2-9
				c1.9-1.6,3.8-3.3,5.9-4.8c-4.9,2.9-9.8,5.8-14.6,8.8c3.5-1.3,6.9-2.7,10.3-4c0.8-0.3,1.6-0.6,2.4-1c2.6-1.3,5.1-2.7,7.5-4.4
				c5-2.1,9-5.4,12.2-9.8c6.7-7.1,5-4.6,9.5-13.2c3-4.2,4.8-9,5.4-14.3c1.3-3.8,2-7.7,2.2-11.8c-27.5,3.4-55.1,6.7-82.6,10.1
				c5.4,12,11.4,24,16.1,36.3c-0.9-3.2-1.8-6.3-2.6-9.5c4.3,16,8.5,32.1,13,48.1c-0.8-3-1.7-6-2.5-8.9c2.6,10,5.3,20.4,9.5,29.9
				c5.1,11.5,11.7,20.9,20.7,29.4c-1.9-2-3.8-3.9-5.8-5.8c3.8,4.1,7.7,8.4,12.4,11.3c7.4,4.6,12.6,6.8,20.9,9
				c5.5,1.5,11.2,1.9,16.7,3.5c-2.6-0.8-5.2-1.5-7.8-2.3c1.8,0.6,3.5,1.3,5.2,2.2c-2.3-1.4-4.7-2.8-7-4.2c0.9,0.6,1.7,1.2,2.5,1.9
				c-2-2-4-4-5.9-6c0.8,0.8,1.4,1.6,2,2.5c-1.5-2.5-2.9-5.1-4.4-7.6c0.6,1.1,1.1,2.1,1.5,3.2c-0.8-2.8-1.6-5.7-2.4-8.5
				c0.4,1.4,0.5,2.8,0.6,4.3c0-2.8-0.1-5.7-0.2-8.5c-0.1,1.8-0.3,3.5-0.7,5.3c0.6-2.7,1.3-5.4,1.9-8.1c-0.5,2.1-1.2,4.2-1.9,6.3
				c1.3-2.4,2.6-4.8,3.9-7.3c-0.2,0.3-0.3,0.5-0.5,0.8c4.3-3.5,8.7-7,13-10.5c-4.1,2.2-8.1,4.6-12.1,7.1c2.8-1.7,5.6-3.3,8.4-5
				c-7.1,3.5-13.1,7.9-17.2,14.9c-4.3,7.2-7.9,14.3-8.9,23c-1.6,14.7,4.7,29.1,12.8,41c7.8,11.3,20.8,20.6,34.2,21.4
				c10,0.6,18.4,0.1,27.8-3.5c-2.7,0.7-5.4,1.4-8,2.1c6-0.3,12.5-1.7,17.6-4.7c4.6-2.7,9-5.5,13.4-8.5c10.3-7.2,8.1-23.5-0.9-31
				c-2.7-2.2-5.3-4.4-7.8-6.8c-2.7-2.5-5.7-4.5-8.7-6.8c2,2,3.9,4,5.9,6c-0.9-1.4-1.9-2.8-2.8-4.2c1.6,2.8,3.2,5.6,4.8,8.3
				c-1.2-2.2-2.1-4.4-2.8-6.7c1,3.5,2,7.1,3,10.6c-0.1-0.3-0.1-0.5-0.2-0.8c-0.6-5.8-2.6-11-5.8-15.6c-1.5-2.7-2.4-4.5-4.1-6.6
				c-1.2-1.4-2.3-2.8-3.3-4.4c1.9,3.3,3.8,6.5,5.7,9.8c-1.1-1.9-2-3.8-2.6-5.9c1,3.7,2,7.3,3,10.9c-2.3-9-3.8-17-10-24.7
				c1.9,3.2,3.8,6.5,5.6,9.7c-0.7-1.4-1.2-2.7-1.7-4.2c1,3.4,1.9,6.8,2.9,10.3c-0.6-2.3-1.2-4.5-1.8-6.8c-1.5-5.3-3.7-10.2-7-14.6
				c1.7,3,3.4,5.9,5.2,8.9c-0.9-1.5-1.6-3.1-2.4-4.7c0.8,5.8,1.7,11.5,2.6,17.3c0-0.3,0-0.6,0.1-1c-0.7,2.7-1.3,5.4-1.9,8.1
				c2.7-9.9,5-18.7,3.9-29.2c-1.3-12.2-8.3-24.5-18-31.9c-7.6-5.7-16.4-8.8-25.4-10.3c-4.8-0.8-9.6-1.1-14.3-2.4
				c2.5,0.7,5.1,1.5,7.7,2.2c-2.1-0.6-4.1-1.5-6-2.5c2.3,1.4,4.6,2.8,6.9,4.1c-1.9-1.2-3.7-2.5-5.3-4.1c1.9,2,3.8,3.9,5.8,5.8
				c-1.6-1.6-2.8-3.6-4-5.6c1.5,2.5,2.9,5,4.3,7.5c-2.5-4.5-4.3-9.4-5.7-14.4c0.8,2.9,1.6,5.7,2.4,8.6c-2.4-9-3.5-18.3-5.1-27.4
				c-0.9-5.4-1.8-10.8-2.8-16.3c-1-5.6-2.4-11.3-2.8-17c0,3.2,0.1,6.3,0.2,9.5c-0.1-10.5-0.2-20.9-0.4-31.3c0-1.4,0-2.7,0-4.1
				c0-0.5,0-0.9,0-1.4c0.9-6,0.3-11.8-1.8-17.5c-2.5-8.9-6.3-17-11.6-24.5c-3.5-4.6-7.5-8.5-12-11.9c-4.5-2.7-9-5.4-13.5-8.1
				c-8.9-4.4-19.8-5.2-29.4-6.6c5.3,1.5,10.6,3.1,15.9,4.6c-2.6-1-5.1-2.5-7.7-3.7c-7.8-3.9-13.8-6.4-23.5-7.9
				c-12.3-1.9-23.2,0.4-34.9,2.4c-5.8,1-11.6,1.9-17.3,2.9c-13.9,2.4-28.2,5.9-39.2,15.4c-5,4.3-9.6,9.6-14,14.5
				c-0.9,1-1.8,2.1-2.6,3.2c3.9-4.2,7.8-8.4,11.8-12.5c-0.3,0.2-0.6,0.5-1,0.8c-3.9,4.2-7.8,8.3-11.7,12.5c-0.5,0.6-0.9,1.2-1.4,1.8
				c-1.1,1.4-2.1,2.8-3,4.4c-4.2,7.2-7.8,14.7-11.7,22.1c2.5-4.6,4.9-9.3,7.4-13.9c-1.7,3-3.5,5.8-5.8,8.4
				c3.4-3.6,6.8-7.3,10.3-10.9c-2.6,2.7-5.4,5-8.6,6.9c4.2-2.5,8.3-5,12.5-7.5c-3.5,2-7.1,3.5-11,4.6c4.4-1.1,8.7-2.3,13.1-3.5
				c-4.2,1.1-8.5,1.6-12.9,1.6c4.1,0.1,8.1,0.2,12.2,0.2c-4.1-0.1-8.1-0.6-12.1-1.7c3.6,1,7.2,2.1,10.8,3.1
				c-3.6-1.1-7.1-2.5-10.5-4.4c3,1.8,6,3.6,9,5.4c-3-1.8-5.8-4-8.3-6.5c2.3,2.4,4.7,4.7,7,7.1c-0.4-0.4-0.8-0.9-1.3-1.4
				c0.5,15.3,0.9,30.7,1.4,46c0.1-0.1,0.2-0.2,0.3-0.3c-2.2,2.3-4.4,4.7-6.6,7c0.1,0,0.1-0.1,0.2-0.1c2.3-2.4,4.5-4.8,6.8-7.2
				c1.5-2.9,3.1-5.8,4.7-8.7c3-8,3-16.8,0.7-25.1c-2-7.1-5.3-12.8-10.4-18c-2.1-2.8-4.8-4.8-7.9-6.2c-4.2-3-8.7-4.7-13.8-5.3
				c-0.4-0.1-0.7-0.2-1.1-0.3c3.4,1,6.9,2,10.3,3c-2.8-0.9-8.2-2.7-11.1-3.2c-11.8-2.4-23.4,2-32.7,8.8c-5.2,3.8-8,8.4-11.4,13.5
				c-2.7,4-5.7,7.8-9,11.3c2.7-2.8,5.3-5.6,8-8.5c-5.3,5.6-11.3,10.4-17.9,14.3c3.5-2.1,6.9-4.1,10.4-6.2c-3.1,1.8-6.3,3.4-9.6,4.9
				c-6.6,3-12.9,6.7-18.9,10.8c3.5-2.1,7-4.2,10.6-6.3c-4.7,2.1-9.3,5-13.5,7.9c-1.2,0.8-2.3,1.8-3.3,2.8
				c-8.1,7.9-12.6,13.9-17.4,24.4c-2.5,5.5-3.7,11.9-4.7,17.9c-1.1,6.3-0.5,13.8-0.2,19.8c0.2,5,0.9,9.9,2.1,14.8
				c1.8,7.2,4,14,6.5,21c0.9,2.6,1.8,5.2,2.6,7.8c-1.3-4.7-2.6-9.3-3.9-14c1.1,3.9,1.7,7.8,1.8,11.8c-0.1-4.6-0.2-9.3-0.2-13.9
				c0,3.8-0.4,7.4-1.3,11.1c1-4.4,2.1-8.8,3.2-13.2c-0.9,3.6-2.2,7-3.9,10.3c2.1-3.9,4.2-7.8,6.3-11.8c-0.7,1.3-1.5,2.6-2.3,3.9
				c-3.1,4.6-5.6,9.7-8.1,14.6c2.1-3.9,4.2-7.8,6.2-11.7c-1.6,2.9-3.5,5.5-5.7,7.9c2.9-3.1,5.9-6.2,8.8-9.4
				c-3.7,3.9-8.2,6.5-12.4,9.6c-5,3.7-9.4,8.5-13.2,13.4c-3.7,4.6-5.8,10.4-8.5,15.7c-2.8,7.5-3.6,15.2-2.5,23.3
				c1.3,8.4,4.5,16,9.6,22.8c0.1,0.1,0.2,0.2,0.2,0.3c-3.1-7.5-6.3-14.9-9.4-22.4c0.1,1.1,0.4,2.2,0.6,3.2c1.1,4.6,2.2,9.5,4.1,13.9
				c2.2,5.1,5.2,10.2,8.6,14.7c-1.7-3-3.4-5.9-5.1-8.9c3.5,7,6.7,12.3,13,17c-2.2-2.3-4.5-4.5-6.8-6.8c6.2,7.1,11.7,12,20,16.2
				c5.1,2.6,10.9,4,16.4,5.3c-3.7-1.6-7.3-3.2-11-4.8c4.5,4.3,9.1,8.6,13.5,13c-1.4-1.4-2.8-2.8-4.2-4.2
				c6.3,6.5,11.8,13.6,16.4,21.5c-1-1.7-2-3.4-2.9-5c4.5,7.9,8,16.2,10.5,25c-0.5-1.8-1-3.5-1.5-5.3c0.8,3.1,1.5,6,3.2,8.8
				c1.6,2.7,3.5,4.6,5.8,6.6c1.1,1,2.2,1.9,3.3,2.9c-1.6-2.1-3.2-4.3-4.9-6.4c0.9,1.5,1.7,3,2.6,4.5c-1-1.7-1.1-1.8-0.4-0.3
				c0.4,1.1,0.9,2.2,1.3,3.2c1,2.5,1.8,5,2.6,7.5C419.2,694.5,431,693.6,433.5,686.6"/>
			<path class="st3" d="M451.6,786.4c2.7,4.6,6.1,8.9,9.9,12.5c4.2,4,9.5,6.2,14.3,9.2c1.4,0.8,3.6,2.8,5.5,4.3
				c2.3,1.8,4.7,3.8,7.1,5.5c0.5,0.3,0.9,0.7,1.4,1c2.7,1.6-1-0.7-1-1.2c0,0.7,1.5,2.1,1.9,2.8c2.7,3.9,6.1,6.7,10,9.1
				c2.2,1.4,4.4,2.7,6.4,4.4c1,0.8,2,1.7,3,2.5c5.3,4.1,11.1,5.5,17.3,7c5.8,1.4,11.7,2.7,17.6,3.8c5.9,1.1,11.7,1.8,17.6,2
				c8,0.3,17.1,1.3,25.1,0c5.2-0.9,10.4-2.7,15.5-4.2c3-0.9,6.1-1.8,8.9-3.2c8.6-4.4,17-9.4,22.7-17.5c7.3-10.4,3.3-27-9.1-32
				c-7.6-3-16.3-4.7-24.5-5.4c-3.4-0.3-6.8-0.7-10.1-1.2c-6.2-1-12.3-1-18.5-1c2.7,0,5.5,0.1,8.2,0.2c-9.8-0.2-19.6-1.2-29.3-1.9
				c-4.8-0.4-9.5-0.9-14.2-1.5c-4.6-0.6-9.2-1.3-13.8-1c-4.3,0.3-9.2,2.6-13.5,3.9c2.3-0.6,4.6-1.2,6.9-1.8
				c-6.9,0.9-14.6,0.8-20.3,5.2c-1.7,0.8-1.1,0.8,1.8,0c-0.7,0.1-1.5,0.2-2.2,0.2c-1.5,0.2-2.9,0.4-4.4,0.6
				c-2.7,0.5-5.4,0.9-8.2,1.4c-4.7,0.8-9.3,0.4-14.8-0.2c-5.8-0.7-10.9-0.9-15.9-4.6C451.9,784.5,451.1,785.6,451.6,786.4
				L451.6,786.4z"/>
			<path class="st4" d="M536.8,654.1c-0.1,0.2-0.3,0.4-0.4,0.6c0.2-0.2,0.4-0.4,0.5-0.6C536.9,654.1,536.9,654.1,536.8,654.1
				 M537.1,653.5c0,0,0,0.1,0,0.1c0,0,0,0,0,0C537.1,653.5,537.1,653.5,537.1,653.5 M446,719c0,0,0.5-0.6,1.7-1.8c0,0,0,0,0,0
				C446.6,718.5,446,719.1,446,719 M465.9,697.7c0.2-0.9,0.4-1.7,0.6-2.6C466.3,695.9,466.1,696.8,465.9,697.7 M515.9,625.5
				c0.1-7.7,1.5-15.3,4.2-22.5c4-10.5,10.3-19.3,18.8-26.2c1.2-1,2.4-2,3.6-2.9c5.2-3.9,10.5-7.8,16.4-10.3c0.6-0.2,1.2-0.5,1.8-0.7
				c6.2-2.2,13.2-3.8,19.7-5c1.7-0.3,3.4-0.8,5.1-1c6.1-0.2,12.3-0.2,18.5,0.3c11.5,1.8,21.9,6.4,31.3,13.7
				c15,9.9,25,27.8,27.6,45.6c1.5,10.4,0.7,24.6-3.9,34c-2.6,5.4-5.5,11.5-8.8,16.5c-5.7,8.8-15.8,17-25.7,21.1
				c-1.2,0.5-2.4,1-3.6,1.3c-6.8,2.2-13.9,3.8-20.9,5.5c-4.3,1.1-7.5,0.5-12.5,0.5c-5.7-0.1-7.7,0.1-12.3-1.1
				c-6.5-1.8-13.1-3-19.3-5.8c-9.7-4.3-17.9-10.5-24.7-18.8c-1.2,1.4-2.8,2.6-4.6,3.3c-3.7,1.5-8,1.3-11.4-1.6
				c-3.7-3.2-6.9-7.2-8.5-12c-2.2-6.4-1.9-12-0.2-18.3c1.2-4.3,3.3-8.5,6-11.9C513.7,628,514.8,626.7,515.9,625.5 M496.6,555.4
				c-3.4,1.4-6.8,3.2-10.8,5.6c-3.2,1.9-6.9,3.8-9.9,6.3c-2.3,2-4.6,4.7-6.5,6.8c-2.4,1.7-4.2,3.8-5.5,6.2
				c-2.3,4.3-4.6,8.6-6.9,12.9c-1.2,4.8-2.3,9.6-3.5,14.4c-0.1,0.4-0.2,0.8-0.2,1.1c-0.1,0.7-0.2,1.3-0.3,2c-0.1,1.5,0,3.1-0.3,4.5
				c-1,9.5,0.4,18.7,4.1,27.7c1.2,2.9,2.7,5.7,4.3,8.3c0.5,3.2,1.2,6.5,2.1,9.9c1.9,7.1,3.9,13.9,4.6,21.1
				c-0.2,3.5-0.6,6.9-1.3,10.3c0.2-0.7,0.3-1.4,0.5-2.2c-0.6,2.8-1,5.7-1.5,8.5c0,0.1-0.1,0.3-0.1,0.4c-1.2,1.9-2.5,3.7-3.9,5.5
				c-0.7,0.9-1.4,1.7-2.2,2.6c-0.6,0.6-1.2,1.1-1.8,1.7c-2.4,2.2-4.9,3.9-7.4,5.9c-0.9,0.5-1.7,1.2-2.3,2.1c-0.5,0.5-1,1-1.5,1.5
				c-1.2,1.2-2.4,2.3-3.9,3.2c-2.5,1.6-4,4.2-4.8,7c-1.4,0.3-2.8,0.5-4.2,0.7c-0.7,0.1-1.3,0.3-1.9,0.5c-6.9,2.9-6.7,15.5,2.2,16.2
				c2,0.2,4,0.2,6,0.2c0.6,0,1.3,0,1.9,0c0,0,0,0,0.1,0c0.2,0.2,0.5,0.3,0.7,0.4c3.3,2.9,8,4.4,12.2,3.8c5.1-0.7,9.8-0.4,14.8-2.4
				c0.1,0,0.2-0.1,0.3-0.1c4.5-1.9,8.7-4.5,12.8-7.1c6.3-4,11.6-9,16.6-14.5c4.4-3.7,8.4-8,12.1-12.4c-0.4,0.5-0.8,0.9-1.3,1.3
				c1-1.2,1.9-2.5,2.7-3.8c0,0,0.1,0.1,0.1,0.1c-0.2,0.3-0.3,0.6-0.5,0.8c0.2-0.3,0.3-0.5,0.5-0.8c6.5,6.3,9.4,7.8,23.1,15.2
				c1.3,0.7,2.5,1.3,3.9,1.8c6.4,2.3,14.9,4.8,21.5,6.2c0.7,0.1,1.4,0.3,2.1,0.4c8.3,1,16.8,1,25,0.5c1.5-0.1,2.9-0.3,4.4-0.6
				c7.3-1.5,15.3-3.7,22.4-5.9c0.9-0.3,1.7-0.5,2.6-0.8c0.5-0.2,0.9-0.3,1.4-0.5c0.9-0.4,1.9-0.8,2.8-1.3c1.7-0.9,3.4-1.8,5.2-2.8
				c1.8,1.8,3.7,3.6,5.5,5.3c4.1,3.8,9.4,6.6,14.2,9c4.7,2.4,10.1,4.2,15.2,4.8c11.6,1.3,23.2-0.7,34.7-1.9c9.3-1,18.7-1.9,28-2.9
				c2.5-0.3,5-0.6,7.5-0.8c5-0.6,10.3-1.3,14.9-3.2c0.1,0,0.2-0.1,0.2-0.1c8.6-3.7,16.7-8.8,22.4-16.6c4-5.4,5.7-12.3,5.6-19.1
				c-0.1-6.9-2.1-14.6-6.7-20c-5.6-6.6-10.5-10.3-18.2-14c-5.3-2.5-10.9-4.6-16.7-5.3c-5.9-0.7-11.9-1-17.8-1.4
				c-5.9-0.4-11.9-0.9-17.8-1.3c-1.1-0.1-2.2-0.1-3.3-0.2c0-0.2-0.1-0.3-0.1-0.5c-0.1-3-0.3-6-0.5-7.8c-0.5-4.8-2.1-9.9-3.8-14.9
				c0-1.9,0-3.8-0.1-5.7c0-1.1,0-2.2-0.1-3.3c0.1-2.8,0-5.7-0.2-8.5l0,0c-0.7-6.8-2.5-13.5-5.6-20c-3.5-6-6.9-12-10.4-17.9
				c-8.3-10.7-18.5-18.8-30.7-24.1c-6.3-3.7-15.1-5.4-22.8-6.5c-7.2-1-19.2-1.1-22.4-0.6c-3.9,0.7-7.7,1.7-11.4,2.9
				c-3.2,0.2-6.2,0.9-9,2.1c-0.8,0.3-1.6,0.7-2.4,1.2c-2,1-4,2.2-5.9,3.3c-0.1,0.1-0.2,0.1-0.3,0.2c-5.1-1.6-10.4-2.9-13.7-3.8
				c-7.5-2-14.9-2.2-22.5-2.1c-4.5-0.2-9.1-0.3-13.6-0.2c-1.6,0-3.1,0.1-4.6,0.4C507,551.8,501.7,553.2,496.6,555.4"/>
			<path class="st5" d="M536.4,654.6c0.2-0.2,0.3-0.4,0.4-0.6c0,0,0.1,0,0.1,0C536.8,654.3,536.6,654.5,536.4,654.6 M537.1,653.6
				c0-0.1,0-0.1,0-0.1C537.1,653.5,537.1,653.6,537.1,653.6C537.1,653.6,537.1,653.6,537.1,653.6 M606.8,659.4
				c-1.5,0.6-3.1,1.2-4.8,1.6c-6.6,1.8-14.9,3.3-21.7,1.9c-6.8-1.3-16.2-4.5-21.4-9.4c-4.7-3.7-8.2-8.3-10.5-13.8
				c-0.8-2.9-1.6-5.7-2.4-8.6c-1.6-8.4,1.4-17.2,5.7-24c3.5-5.6,12.2-11.9,18.2-14.5c5-2.1,11-2.9,16.4-3.3
				c6.3-0.5,10.5,0.3,16.2,1.9c3.5,1,7.1,1.7,10.5,3c7.4,2.8,15.4,10.6,17.8,18.5c2.7,8.7,3.7,16.5,0.5,25c-3.4,9-9.5,13.6-17.4,18
				C611.5,657.2,609.2,658.4,606.8,659.4 M559.1,563.5c-5.9,2.5-11.3,6.4-16.4,10.3c-1.2,0.9-2.5,1.9-3.6,2.9
				c-8.5,7-14.8,15.7-18.8,26.2c-2.7,7.3-4.1,14.8-4.2,22.5c-1.1,1.2-2.2,2.5-3.2,3.7c-2.7,3.4-4.8,7.6-6,11.9
				c-1.7,6.3-2,11.9,0.2,18.3c1.7,4.8,4.8,8.8,8.5,12c3.4,2.9,7.7,3.1,11.4,1.6c1.8-0.7,3.3-1.9,4.6-3.3c6.8,8.2,15,14.5,24.7,18.8
				c6.2,2.8,12.8,4,19.3,5.8c4.5,1.2,6.6,1,12.3,1.1c5,0.1,8.2,0.6,12.5-0.5c7-1.8,14.1-3.3,20.9-5.5c1.2-0.4,2.4-0.8,3.6-1.3
				c9.9-4.2,20-12.3,25.7-21.1c3.2-5,6.2-11.1,8.8-16.5c4.5-9.5,5.4-23.6,3.9-34c-2.6-17.8-12.6-35.7-27.6-45.6
				c-9.4-7.3-19.8-11.8-31.3-13.7c-6.2-0.4-12.3-0.5-18.5-0.3c-1.7,0.3-3.4,0.7-5.1,1c-6.5,1.2-13.5,2.8-19.7,5
				C560.3,563,559.7,563.3,559.1,563.5"/>
			<path class="st6" d="M569.9,592.7c-6,2.5-14.7,8.8-18.2,14.5c-4.3,6.8-7.3,15.5-5.7,24c0.8,2.9,1.6,5.7,2.4,8.6
				c2.3,5.5,5.8,10.1,10.5,13.8c5.2,4.9,14.6,8,21.4,9.4c6.9,1.4,15.1-0.2,21.7-1.9c1.7-0.5,3.3-1,4.8-1.6c2.4-1,4.7-2.2,7.1-3.6
				c7.9-4.4,14-9,17.4-18c3.2-8.5,2.2-16.2-0.5-25c-2.4-7.9-10.5-15.6-17.8-18.5c-3.4-1.3-7-2.1-10.5-3c-5.7-1.6-9.9-2.4-16.2-1.9
				C580.9,589.8,574.9,590.6,569.9,592.7"/>
			<path class="st3" d="M-18.5,733.8c-0.9,0.2-2,0.3-2.9,0.6c-2,0.6,0.7,0.8-0.9,0.3c-2.1-0.7-4.2-1.7-6.5-1.4
				c-3.9,0.3-7.8,1.3-11.7,1.6c-7.3,0.5-13.9,0-21.8-1.7c1.7,0.7,3.3,1.4,5,2.2c-3.3-2.6-7.1-3.5-10.9-4.9c-3.3-1.2-6.5-2.6-9.6-4.2
				c-1.4-0.7-2.8-1.5-4.2-2.3c-1.6-0.8,2.3,1.5,0,0c-0.7-0.5-1.5-0.9-2.2-1.4c-2.9-2-5.9-3.8-8.8-5.8c-2.8-1.9-5.5-4-8.1-6.3
				c-0.7-0.6-1.4-1.3-2.1-1.9c-1.6-1.5-1.3-1,0.1,0.2c-1.4-1.2-2.7-2.8-3.9-4.2c-2.5-2.9-4.9-5.9-7.4-8.8c-2.8-3.1-5.5-5.9-9.5-7
				c-2.1-0.6-3.9-0.8-6.1-0.5c-1.6,0.2-6.2,1.5-2.1,0.5c2.6,1.1,5.1,2.2,7.7,3.4c-3.8-5-5.5-12-6.5-18.1c-0.5-3-0.9-6-1-9
				c-0.1-4.1,0.8-8.1,0.2-12.2c-1-8.3-11.9-9.2-14.9-2.3c-1.8,4.3-1.6,9.5-1.4,14.2c0.1,3.9,0.6,7.8,1.4,11.7c1.7,8.5,5.4,16,8,24.2
				c0.8-3.4,1.6-6.8,2.4-10.2c-17.9,16.8,11,42.2,25.2,51.4c8.2,5.3,16.4,8.5,25.8,10.8c7.8,2,18.5,4.4,26,1.3
				c-1.8,0.2-3.6,0.4-5.4,0.7c8.1,0.5,16.3,0.4,24.2-0.9c4.1-0.7,8.2-1.7,12.3-2.9c1.9-0.6,4.1-1.1,5.8-2.4c1.6-1.3,2.8-3.3,4-5
				c-0.7,0.6-1.4,1.1-2.1,1.7c1.8-1.1,3.6-2.2,5.4-3.3C-11.6,739.5-14.4,732.9-18.5,733.8L-18.5,733.8z"/>
			<path class="st3" d="M180.1,483.7c-1.7-3-3.2-4.8-6.3-6.2c-1.7-0.8-3.4-1.4-5.2-2c-4-1.4-8.1-2.5-12.1-3.5
				c-0.9-0.2-1.8-0.5-2.7-0.7c-0.4-0.1-0.7-0.2-1.1-0.3c-1.4-0.4-0.8-0.1,1.9,0.9c-0.1-0.7-3.3-2.6-4-3.2c-1.3-1.1-2.6-2.3-3.9-3.5
				c-2.5-2.2-5.1-3.1-8-4.2c-1.8-0.7-3.5-1.5-5.1-2.3c-0.7-0.3-1.3-0.7-2-1c-1.8-0.9-0.9-0.3,0,0.2c0.9,0.5,1.9,1.1,0.2,0
				c-3-2-5.9-4.1-8.6-6.5c-0.6-0.5-1.4-1.6-2.1-2c2.5,2.6,2.6,2.6,0.1,0.2c-0.7-0.8-1.4-1.5-2.2-2.2c-0.6-0.5-1.4-1.6-2.1-1.9
				c2,2.1,2.5,2.6,1.5,1.5c-0.3-0.3-0.5-0.6-0.8-0.9c-0.7-0.8-1.3-1.6-2-2.4c-1.2-1.3-0.8-0.5-0.2,0.3c0.5,0.7,1.1,1.4,0.6,0.4
				c-0.6-1.5-0.4-0.7,0.6,2.2c0,1,0.1,1.9,0.1,2.9c-0.2,0.9-0.4,1.8-0.7,2.7c0.3-0.6,0.5-1.1,0.7-1.7c2.5-7.3,0.5-16.8-6.1-21.5
				c-6.5-4.6-15.2-5.2-21.4-0.1c-6.7,5.6-9.8,15.2-8,24.2c1.4,7.2,5.1,13.5,9.8,19.1c7.4,8.9,17.2,15.6,27.4,20.2
				c5.3,2.4,11.6,5,17.3,5.1c4.7,0.1,11.3-1.7,15.7-3.9c2.8-1.4-4-0.2-0.7,0c1.1,0.1,2.2,0.1,3.4,0.2c2.2,0.1,4.5,0.2,6.7,0.4
				c4.9,0.5,10.5,2.6,15.1,0.7C179.7,493.2,182.4,487.7,180.1,483.7"/>
			<path class="st3" d="M289.1,287.2c-4.1-6.1-8-12.6-12.7-18.2c-1.1-1.3-2.1-2.6-3.3-3.8c-1.3-1.4-3.1-2.4-4.3-3.9
				c-2.4-2.7-4.1-6.7-6-9.8c-3.9-6.3-7.8-12.7-11.7-19c-3.7-6-6.5-13.2-10.3-19.7c-1.8-3-3.6-6-5.4-9c-1-1.6,0.2,0.4,0.3,0.6
				c-0.5-0.8-0.9-1.6-1.4-2.4c-1-1.8-2-3.6-3-5.4c-3.4-6.2-6.5-12.6-9.2-19.1c-2.8-6.5-4.9-13.2-7.1-19.9c-0.7-2.1,0.5,1.8,0.5,1.8
				c-0.1-0.8-0.5-1.8-0.7-2.6c-0.4-1.8-0.8-3.5-1.1-5.3c-0.5-2.9-0.9-5.8-1.1-8.8c0-0.3,0-2-0.1-2.1c0.2,0.2,0,5,0.1,2.1
				c0.1-1.5,0.1-3.1,0.3-4.6c0.2-1.5,0.4-3,0.7-4.5c0.3-1.6,1.2-2.5-0.5,2.1c0.2-0.6,0.4-1.3,0.6-1.9c0.5-1.4,1-2.7,1.6-4
				c0.9-2.2-2.6,3.9-1.1,2.1c0.5-0.6,0.8-1.3,1.3-1.9c0.2-0.2,1-1.5,1.1-1.5c0.1,0-3.9,3.7-1.7,1.8c1.2-1,2.4-2,3.8-2.8
				c-1.6,0.9-3.1,1.9-4.7,2.8c2-1.1,4.1-2,6.3-2.6c-1.8,0.5-3.5,0.9-5.3,1.4c3.6-0.9,6.4-1.5,9.5-3.4c1.5-0.9,3-1.9,4.5-2.8
				c-1.5,0.9-3,1.8-4.4,2.6c3.1-1.8,6.1-3.7,9.1-5.6c-2.6,1.1-5.2,2.2-7.8,3.3c2.6-0.2,5.3-0.3,7.9-0.6c2.2-0.3-0.5-0.2-0.5-0.1
				c0-0.1,1.9,0.2,2.1,0.2c1.4,0.2,2.8,0.3,4.2,0.5c3.4,0.4,7.2,1.2,10.5,0.9c5.7-0.7,11.2-5.4,11-11.8c-0.2-5.6-3.9-10.4-9-12.4
				c-2.6-1-5.4-1.8-8-2.7c-6.4-2.2-12.3-5-18.9-6.7c2.5,1.1,5,2.2,7.5,3.3c-9.4-7.4-21.3-9.8-31.9-4.8c-9.7,4.6-16.6,11.9-21.5,21.5
				c-7,13.7-6.7,31.5-2.9,46.5c2.5,9.7,5.6,19,10.4,27.8c4.8,8.6,10,16.9,16,24.7c5.3,7,10.8,13.8,16.7,20.2
				c3.2,3.5,6.9,6.6,10.4,9.9c3.1,2.9,5.7,5.9,8.7,9.2c3.5,3.9,7,7.8,10.5,11.7c2.9,3.2,6.8,6.6,8.9,10.3c1.4,2.5,2.5,5.1,4.1,7.6
				c1.5,2.2,2.9,4.3,4.6,6.4c3.3,4,6.6,8.1,10,12.1C283.6,305.5,295.1,296,289.1,287.2L289.1,287.2z"/>
			<path class="st3" d="M865.9,261.5c4.4-2.1,8.9-4.6,13.6-6c1.9-0.6,3.9-1.1,5.8-1.6c2.8-0.8,5.4-2.5,8-3.8c4-2.1,8-4.3,12-6.4
				c4.4-2.2,9-4,13.5-5.9c9.4-4.1,18.2-10.1,26.8-15.8c8.2-5.4,16-11.2,23.6-17.4c14.9-12.2,29.5-25.6,41.9-40.6
				c5.3-6.4,10-13.2,14-20.6c5.3-9.7,8.6-19.8,10.5-30.9c0.8-4.5,1.2-9,1.1-13.6c0-8.1-1.2-14.8-3.4-22.6
				c-3.8-13.1-15.4-30.3-30.5-27.7c2.6,0.8,5.2,1.5,7.8,2.3c-0.9-0.8-1-0.9-0.2-0.3c-0.3-0.4-0.6-0.9-0.9-1.3
				c-0.6-0.9-1.3-1.7-1.9-2.6c-1.4-1.8-3-3.6-4.6-5.3c-3.5-3.7-7.2-7.3-11.2-10.5c-4.1-3.2-8.4-6-12.8-8.6c-4.1-2.4-10.1-4.8-14.7-5
				c-3.6-0.2-7.7,0.6-9.7,4.1c-0.2,0.3-0.3,0.6-0.6,0.9c1-0.8,2-1.6,3-2.4c-0.7,0.4-1.4,0.8-2.2,1.2c-3.2,1.8-3.9,5-1.9,8.3
				c1,1.9,0.9,0.9-0.3-3.2c-0.1,1-0.1,2,0,3c0.6,2.9,1.9,5.4,4.2,7.4c2.3,1.9,5.4,3.2,8,4.6c0.3,0.2,0.6,0.4,0.9,0.5
				c-1.6-1-1-0.6,1.9,1.1c0.9,0.5,1.9,1,2.9,1.4c1.3,0.6,2.5,1.3,3.8,2c2.1,1.1-1.1-0.8,1.2,0.7c3.9,2.5,7.7,5.3,11.2,8.4
				c0.9,0.8,1.8,1.7,2.8,2.6c0.6,0.5,0.5,0.5-0.1-0.1c0.5,0.5,1,1,1.5,1.6c0.7,0.8,1.4,1.6,2.1,2.4c0.5,0.6,0.9,1.1,1.4,1.7
				c-0.5-1-0.5-0.9,0,0.3c0.4-3.6,0.7-7.3,1.1-10.9c-3.5,5.3-4.3,10.7-3.4,17.1c0.5,3.2,0.5,6.6,1.3,9.7c1.6,6.5,1.9,13.1,2.1,19.6
				c0-1.9-0.1-3.7-0.1-5.6c0,3.2-0.2,6.3-0.5,9.4c-0.2,1.7-0.5,3.5-0.8,5.2c-0.1,0.7-0.3,1.4-0.4,2.1c1.1-6.3,0.7-2.7,0.2-1.2
				c-1.7,6.3-4.1,12.5-6.5,18.5c-1.2,3-2.6,5.9-4,8.7c-0.4,0.8-0.9,1.6-1.2,2.4c0.1-0.2,2.3-4.2,0.8-1.5c-0.9,1.6-1.8,3.1-2.7,4.7
				c-3.7,6.1-7.7,12-12,17.7c-4.8,6.3-9.9,12.4-15.3,18.1c2.2-2.4-1.1,1.1-1.7,1.7c-1.3,1.4-2.6,2.7-4,4c-2.8,2.8-5.7,5.6-8.6,8.3
				c-11.7,10.9-23.8,21.2-35,32.6c-6.1,6.2-12.8,11.4-19.5,16.8c-3.5,2.7-6.1,5.9-9,9.2c-3.1,3.5-7.2,6.3-10.7,9.2
				C863.8,260.3,864.7,262.1,865.9,261.5L865.9,261.5z"/>
			<path class="st3" d="M944.4,32.6c0.3-0.1,0.1-0.6-0.2-0.5C943.9,32.3,944.1,32.8,944.4,32.6z"/>
			<path class="st3" d="M870.1,641.4c-0.8-0.7-1.7-1.3-2.5-1.9c-0.8-0.6-2,0.5-1.2,1.3c0.7,0.8,1.5,1.5,2.2,2.3
				c0.5,0.5,1.2,0.7,1.7,0.1C870.7,642.7,870.7,641.9,870.1,641.4L870.1,641.4z"/>
			<path class="st3" d="M862.2,639.3c1.4,0.4,3.8,0.5,4.9,1.4c0.9,0.7,1.1,1.8,1.8,2.6c0.8,1.1,1.4,1.3,2.2,2
				c-1-0.9-0.3-0.2,0.5,0.5c0.5,0.5,1,0.9,1,0.9c1.4,1.1,3,1.7,4.6,2c1.9,0.4,3.8,0.7,5.6,1.1c6.4,1.5,9.5,2.2,15.8,4.9
				c11.8,5.1,23.9,9.2,35.8,14.2c12.6,5.2,25,10.6,37.7,15.4c14.4,5.5,29.3,9.8,44.1,14c27.5,7.8,55.4,14.5,83.4,18.9
				c14.4,2.3,29.8,3.3,43.9,0.2c14.1-3.1,27.2-8.6,38.5-17.8c13.6-11,22.3-26.1,25.7-43.6c1.6-8,1.1-16.5-0.7-24.6
				c-1-4.7-2.2-9.6-4-14.1c-2.3-5.7-7.3-10.1-12.6-12.6c-4.3-2-8.1-2.1-12.6-1.7c3.4,2.1,6.8,4.1,10.2,6.2c-1.6-3.3-3.4-6.6-5.3-9.8
				c-1.9-3.2-4.2-5.6-6.8-8.2c-6.7-6.5-17.8,2.8-13.7,11c1.5,2.9,3.1,5.8,4.9,8.5c0.7,1.1,1.4,2.2,2.1,3.3c-0.6-1,1.2,2.2,1.3,2.6
				c0.9-3.9,1.8-7.7,2.7-11.6c-7.2,6.2-11.2,14.8-9.1,24.9c0.8,3.9,1.3,7.9,1.4,11.9c0-1.9-0.1-3.8-0.1-5.8
				c0.1,6.1-0.3,12.2-1.7,18.1c0.4-1.8,0.9-3.7,1.3-5.5c-1,3.8-2.3,7.3-4.1,10.7c0.9-1.6,1.7-3.2,2.6-4.9c-2.3,4.2-5.1,8.1-8.3,11.6
				c1.2-1.3,2.5-2.6,3.7-4c-3.8,4-8.1,7.3-12.8,10.2c1.6-0.9,3.1-1.9,4.7-2.8c-5.7,3.3-11.7,5.8-18,7.6c1.7-0.5,3.5-0.9,5.2-1.4
				c-8.9,2.3-18.2,3.5-27.5,3.5c-1.2,0-5.4-0.3,0,0c-0.8-0.1-1.7,0-2.5-0.1c-2.5-0.1-5-0.2-7.5-0.5c-4.8-0.4-9.5-1-14.2-1.9
				c-19.3-3.3-38.5-7.5-57.5-12.3c-4.4-1.1-8.8-2.3-13.2-3.5c-2.3-0.6-4.6-1.3-6.9-1.9c-1.2-0.3-2.5-0.7-3.8-1.1
				c0.6,0.2,1.2,0.4,1.8,0.5c-0.8-0.2-1.7-0.5-2.5-0.7c-4.6-1.4-9.2-2.8-13.7-4.2c-3.3-1-6.6-1.9-9.9-2.8c-1-0.3-2.1-0.6-3.1-0.9
				c4.2,1.3-1.3-0.4-2.1-0.6c-18.1-5.4-35.9-11.6-54.1-16.5c-4.9-1.3-9.7-2.4-14.7-2.8c-4.6-0.4-9.2-0.7-13.7-1
				c-5.3-0.4-11.1-1-16.3-0.4c-2.6,0.3-6.6,2.6-8.2,5c-1.3,1.8-0.8,1.9-2.6,2.8c-1.2,0.6-2.7,1-4,1.6
				C861.3,638.2,861.5,639.2,862.2,639.3"/>
			<path class="st3" d="M777.4,786.2c1.4,2.9,2.8,6.2,4.8,8.8c2.2,2.7,5.6,4.9,8.3,7c5.5,4.3,11.3,8.4,17.1,12.2
				c6,3.9,12.1,7.5,18.3,11c5.7,3.2,10.8,7.2,16.9,10.6c2.5,1.4,5.1,2.7,7.7,3.8c1.5,0.6,11.4,3.2,11.4,3.4c0,0-0.4-0.1-0.8-0.3
				c-0.8-0.3-1.5-0.5,0.2,0.2c1.5,0.6,3.7,1.3,4.9,1.5c2.2,0.4,4.6,0.2,6.8,0c4-0.4,8-1.5,11.7-2.8c6.2-2.2,12-6.1,16.7-10.8
				c3.9-3.9,6.6-7.5,8.8-12.7c1.7-3.8,2.7-8,3.4-12c1.5-8.6,0.2-17.5-2.4-25.9c-1.2-3.7-2.8-6.9-4.8-10.3
				c-3.6-6.2-8.7-8.7-15.2-10.2c-6.3-1.5-13.2,4.2-13.6,10.7c-0.3,4.3-0.7,8.1,1,12.4c0.4,1,0.8,2,1.2,3c0.5,1.2,0.2,2.5-0.2-1.2
				c0.1,0.7,0.3,1.4,0.5,2.1c0.2,1.2,0.4,2.5,0.6,3.7c0,0.4,0,1.2,0.1,1.6c0,0,0-0.6,0-1.2c0-0.9,0-1.7-0.1-0.6
				c-0.1,1.2-0.1,2.5-0.2,3.7c-0.1,0.5-0.1,1.1-0.2,1.6c-0.5,2.8-0.4,0.4,0.3-0.8c-0.5,0.8-0.6,2.1-1,3c-0.2,0.6-2.1,4.5-0.7,1.8
				c1.3-2.6-0.6,0.8-1.1,1.5c-0.8,1.2-1.5,2.4-2.2,3.5c-0.6,0.9-1.2,1.7-1.9,2.5c-0.9,1.2-0.2,0.5,0.4-0.1c0.5-0.6,0.9-1.1-0.5,0.2
				c-0.9,0.8-1.8,1.6-2.8,2.3c-0.4,0.3-0.9,0.6-1.2,0.9c-1,0.8,0.4,0,1.2-0.5c0.5-0.3,0.8-0.6,0-0.2c-1.1,0.5-2.1,1.1-3.2,1.5
				c-0.6,0.2-4.4,1.8-1.8,0.7c1.8-0.7,0.9-0.5-0.3-0.1c-1.2,0.4-2.7,0.9-2.7,0.9c-0.5,0.2-1,0.3-1.5,0.5c-0.2,0.1-0.5,0.2-0.7,0.3
				c-0.7,0.2-1.2,0.3,0.2,0.3c2.1-0.1-0.3-0.1-0.8,0c-1.3,0.1-2.5,0.2-3.8,0.2c2.6-0.1-0.6-0.1-1.6-0.2c-2.6-0.2-5.2-0.7-7.8-1.2
				c-5.4-1.1-9.3-2.3-14.2-4.6c-5.4-2.5-10.7-5.1-15.9-7.8c-5.6-3-11-6.1-16.3-9.5c-2.7-1.7-5.3-3.6-7.9-5.4
				c-3.1-2.1-6.8-2.7-10.2-3.8C779.3,780.4,775.8,783,777.4,786.2"/>
			<path class="st3" d="M666.7,1086c0.5,2,1.3,4.2,1.4,6.2c0.1,2-0.5,4.1-0.6,6.1c-0.2,5.7,2.4,11.2,4.3,16.5
				c2.9,8.1,5.7,16.2,8.6,24.3c5.1,14.1,12.2,28.3,21.5,40c10.3,12.9,23.7,22.6,39.5,26c16.5,3.6,34.2-3,47.2-12.6
				c6.9-5.1,13-11.8,17.7-19.2c2.6-4.1,4.9-8.4,6.8-12.9c2.7-6.3,4.3-11.9,1.6-18.9c0.3,1.9,0.6,3.8,0.8,5.6c1.1-9,2.2-18,4.4-26.8
				c2.5-10.3,5.1-20.4,6.5-30.9c0.6-4.7,1.3-9.4,1.9-14.2c0.6-4.9,1.4-9.9,0.1-14.8c-2-7.5,1.1-21.3-8.1-24.6
				c-1.1-0.4-2.5-0.4-3.4,0.4c-1.4,1.4-2.5,2.7-3,4.8c-0.5,2.2,0.1,4.6,0.1,6.9c0.1,3.8,0,7.7-1.4,11.3c-1.8,4.6-2.3,9.5-3.3,14.3
				c-0.9,4.5-2,8.9-3,13.4c-2.1,9.5-3.2,19.1-4.3,28.8c-0.5,4.6-1.3,9-2.3,13.5c-1,4.3-2.4,7.9-4.2,11.9c1-1.5,2.1-2.9,3.1-4.4
				c-4.4,2.9-5.8,7.2-7.8,11.9c-0.6,1.4-1.2,2.8-1.9,4.2c-0.2,0.4-1.1,2.1-0.1,0.2c-0.5,1-1.1,2-1.7,2.9c-1.6,2.6-3.3,5.1-5.2,7.4
				c-0.6,0.7-1.2,1.4-1.8,2.1c-0.7,0.8-0.2,0.4,0.1,0.1c0.3-0.3,0.5-0.6-0.2,0c-1.4,1.2-2.7,2.6-4.1,3.8c-1.2,0.9-2.3,1.8-3.5,2.7
				c-0.8,0.5-1.5,1.1-2.3,1.5c0.5-0.3,2.2-1.1,0-0.1c-1.3,0.6-2.6,1.2-4,1.8c-0.7,0.3-1.4,0.5-2,0.8c-0.4,0.1-3.9,1.1-0.8,0.4
				c-3,0.7-6,1.2-9.1,1.4c-0.7,0-1.5,0-2.2,0.1c-0.9,0.1-0.5,0.1,0.1,0.2c0.7,0,1.6,0-0.4-0.2c-1.6-0.2-3.2-0.3-4.9-0.6
				c-1.6-0.2-3.2-0.4-4.9-0.8c-0.7-0.2-1.4-0.3-2.1-0.5c2.6,0.6,0.8,0.2,0.2,0c-1.3-0.5-2.6-1-3.9-1.6c-0.8-0.4-1.5-0.7-2.3-1.1
				c-1.3-0.7-1.7-0.9-0.2,0c-2.6-1.7-5-3.5-7.4-5.6c-0.5-0.4-1.8-1.8,0.2,0.2c-0.5-0.5-1-1-1.4-1.5c-1.2-1.3-2.3-2.6-3.4-4
				c-1.8-2.2-3.4-4.6-5-7c-0.5-0.8-1-1.5-1.4-2.3c-0.2-0.4-1.4-2.4-0.5-0.8s-0.2-0.4-0.5-0.8c-0.5-1-1.1-1.9-1.6-2.9
				c-3-5.7-5.6-11.6-8.3-17.4c-3.8-8-7.5-16-11.2-24c-2-4.4-3.8-9.7-6.8-13.5c-1.6-2-3.7-3.6-5.6-5.2c-1.8-1.6-2.7-3.2-3.9-5.4
				c-1.4-2.4-3.5-4-6.2-3.2C668.2,1080.8,666,1083.3,666.7,1086"/>
			<path class="st3" d="M451.1,1008.3c-1.6,9.6-3.2,19.3-3,29.2c0.1,2.5,0.3,5.1,0.5,7.6c0.2,2.4-0.4,4.7-0.6,7
				c-0.4,4.4,1.8,7.8,4.2,11.4c0-1.5-0.1-3-0.1-4.4c-10.5,12.2,8.3,26.2,18.7,29.5c12.6,4,25.3,0.4,35.5-7.2
				c9.4-7,15.8-17.8,19-29.3c1-3.7,2.1-7.3,1.6-11.2c-0.4-2.9-1.2-5.8-1.5-8.7c-0.6-5.7,0.3-12.2-2.8-17.2c-1.8-2.9-6.2-2.5-7.9,0
				c-2.8,4-2.1,9.4-3.6,14c-1.3,4.2-4.5,7.6-5.7,12c-0.6,2.3-1.4,4.7-2.3,6.9c-0.5,1.2-1,2.4-1.5,3.6c-0.5,1-0.3,0.8-0.2,0.7
				c0.1-0.2,0.1-0.3-0.5,0.7c-1.1,1.8-2.3,3.4-3.5,5.1c-0.8,1.1-0.5,0.8-0.3,0.5c0.2-0.2,0.3-0.4-0.5,0.3c-0.9,0.8-1.7,1.6-2.7,2.4
				c-0.8,0.6-1.6,1.2-2.4,1.8c-0.4,0.3-0.8,0.6-1.3,0.8c1.2-0.7,1.2-0.7,0-0.1c-1.8,0.8-3.6,1.5-5.5,2.3c2.3-0.9-0.2,0-0.8,0.1
				c-1,0.2-1.9,0.2-2.9,0.3c-1.3,0-1.3,0.1,0.1,0.1c-1,0-2,0-3-0.1c2.7,0.2-0.9-0.2-1.4-0.3c-0.4-0.1-3.1-0.8-2-0.4
				c1.1,0.4-2-0.9-2.3-1.1c-1-0.4-0.8-0.2-0.6-0.1c0.3,0.2,0.6,0.3-0.4-0.5c-0.8-0.6-1.6-1.2-2.4-1.8c-0.1-0.1-2.6-2.2-1-0.8
				c-2.2-2.1-4-3.6-7-4.2c-2.5-0.5-4.9-0.2-7.4,0.5c1.5,0.7,3.1,1.3,4.7,2c-0.8-1.8-1.4-3.6-2.1-5.4c-0.7-1.9-1.8-3.2-3-4.7
				c-3-3.9-3.5-8.4-3.6-13.1c-0.3-9.5,1.1-18.9,2.6-28.2C452.1,1007.8,451.2,1007.7,451.1,1008.3"/>
			<path class="st3" d="M199.5,938.2c-3.2,1-6.2,2.4-9.1,4.3c-1.3,0.8-2.4,1.9-3.8,2.5c-1,0.4-2,0.2-3.1,0.7c-1.1,0.5-2.1,1.3-3,2.1
				c-2.9,2.5-5.6,5.2-7.9,8.3c-3.4,4.3-4.6,9.6-5.3,15.1c-2.5,20,5.8,38.7,20.3,52.3c13.5,12.6,34.6,20.6,52.2,17
				c10-2,19.3-5.7,28.3-10.4c4.5-2.4,8.9-5,13.2-7.8c1-0.6,1.9-1.3,2.9-1.9c0.3-0.2,3.2-2.6,0.9-0.9c2.4-1.8,5.3-3.2,7.8-4.8
				c8.5-5.5,16.3-12,23.5-19.2c2.1-2.1,4.2-4.3,6.2-6.6c1.3-1.4,2.2-2.5,3-4.5c0.2-0.5,1.1-6.1,1-6c-0.4,0.1-1.2,2.1,0,0.2
				c0.8-1.3,1.6-2.7,2.4-4.1c2.5-4.6,2.6-7.6,0-12.3c-0.1,0.6-0.1,1.2-0.2,1.7c1-1.8,2-3.7,2.9-5.6c0.6-1.2-1.2-2.2-2-1.2
				c-1.2,1.6-2.4,3.1-3.6,4.6c0.5-0.2,1-0.4,1.6-0.7c-3.4-0.8-6.3-0.9-9.1,1.2c-1.2,0.9-3.3,2.7-4.1,4c-0.3,0.3-0.6,0.5-0.9,0.8
				c1.9-0.4,2.3-0.6,1.3-0.4c0-0.4-6.3,1.7-4.3,0.9c-2.8,1.1-4.5,2.8-6.6,4.9c-5.6,5.7-11.7,10.9-18.2,15.5
				c-1.6,1.1-3.2,2.2-4.8,3.3c-0.6,0.4-1.3,0.8-2,1.3c0.1-0.1-3.1,2-1.5,1c1.6-1-1.7,1-1.6,0.9c-0.7,0.4-1.3,0.8-2,1.1
				c-2.1,1-4.3,1.8-6.5,2.6c-3.6,1.3-7.4,2.5-11.1,3.6c-0.4,0.1-1.9,0.8-2.3,0.6c0.5-0.1,1.1-0.3,1.6-0.4c-0.6,0.1-1.1,0.3-1.7,0.4
				c-2,0.5-4.1,0.9-6.2,1.3c-4.3,0.8-8.6,1.6-12.9,1.9c-0.9,0.1-1.8,0.1-2.7,0.1c-0.3,0-0.7,0-1,0c4,0.1,3.3,0.1-2,0
				c-0.6,0-1.3,0-2,0.1c-3.3,0.2,4.2,0.3,0,0c-3.1-0.2-6.2-0.7-9.3-1.4c-3.5-0.8,3.6,1.3,0.2,0.1c-0.6-0.2-1.3-0.4-1.9-0.7
				c-1.9-0.7-3.7-1.5-5.5-2.4c-0.6-0.3-1.2-0.6-1.8-0.9c-3-1.6,2.4,1.6,0.5,0.3c-1.4-1-2.8-1.9-4.1-2.9c-0.3-0.3-3.2-3.1-3.4-3
				c0.5,0.5,1,1,1.5,1.5c-0.5-0.5-0.9-1-1.4-1.5c-0.7-0.8-1.3-1.5-2-2.3c-1-1.3-2-2.8-2.9-4.2c-1.7-2.4,0.6,0.9,0.5,0.9
				c-0.1,0-1.3-2.5-1.4-2.7c-0.6-1.4-1.2-2.8-1.7-4.2c-0.5-1.4-0.1-2.6,0,0.4c0-0.9-0.5-2.1-0.7-3c-0.4-2-0.6-4-0.7-6
				c-0.2-2.5-0.1,0.2,0,0.5c-0.2-1,0.1-2.5,0.1-3.5c0.2-2.6,0.2-5.1-0.1-7.7c-0.1-0.9-0.2-1.8-0.3-2.7c-0.2-2.1-0.1,1.4,0-1.1
				c0.1-1.7,0.3-3.4,0.5-5.1c0.2-2.3-0.8-3.7-0.1-4.8c2.1-3.4,4.5-6.4,7.5-9C201.7,939.4,200.7,937.8,199.5,938.2L199.5,938.2z"/>
			<path class="st4" d="M925.8,63.8c-0.1,0.1-0.2,0.1-0.4,0.1c-7.4,3.2-10.8,6.8-16.2,12.7c-1.6,1.8-3.2,3.6-4.7,5.4
				c-5.9,7.3-8.9,16.5-8.5,25.9c-5.6,9-11.1,18.1-17.1,26.9c-3.9,5.7-7,11.6-9.7,18c-1,2.4-2.1,4.7-3.2,7c-0.5,0.5-1,1-1.6,1.4
				c-1.1,1-2.3,2-3.5,2.9c-7,5.8-0.2,18.9,8.3,15.3c0.2-0.1,0.3-0.1,0.5-0.2c1.3-0.7,2.7-1.3,4-2c0.6-0.3,1.4-0.6,1.9-1.1
				c0.2-0.1,1.3-1,0.6-0.7c0,0-0.1,0-0.1,0c0.2-0.1,0.3-0.1,0.5-0.2c2.9-1.2,6.5-1.5,9.5-2.4c2.3-0.7,4.4-1.4,6.5-2.3
				c4.5-1.9,8.6-4.3,12.6-7.5c8.2-6.4,16-13.3,24.2-19.6c5.3,0.4,10.5-0.2,15.4-2.3c1.1-0.5,2.2-1,3.3-1.6c2.1-1.2,4.2-2.2,6.3-3.4
				c7.1-3.7,10.8-7.1,15.9-12.9c1-1.1,1.9-2.2,2.8-3.3c1.5-2.8,2.9-5.5,4.4-8.2c1.9-4.5,2.6-9.2,2.1-14.1
				c-0.1-8.1-2.5-16.9-7.9-23.3c-4.2-5-9.2-8.9-14.9-11.8c-8.8-4.3-18.9-3.3-27.6-0.3C928.3,62.8,927,63.3,925.8,63.8"/>
			<path class="st4" d="M1032,599.4c-1.8,0.8-3.7,1.7-5.5,2.7c-4,2.3-8.2,4.3-11.4,7.7c-1.9,2-3.1,4.1-4.1,6.4
				c-1.8,0.8-3.7,1.3-5.8,1.8c-0.2,0-0.3,0.1-0.4,0.1c-1.9,0.8-3.1,3.8-0.8,5.3c2,1.3,3.9,2.4,5.7,3.9c0.9,6.6,4.7,11.2,9.2,15.7
				c2.4,2.4,4.9,5.3,7.6,7.3c2.6,2,5.6,3.5,8.3,5.1c3,1.8,5.9,3.6,8.9,5.4c3,1.9,6,3.7,9.1,5.4c3.6,1.3,7.2,2.3,10.8,3
				c1.7,0.4,3.4,0.7,5.1,1.1c3.4,0.7,6.8,1.4,10.3,2.1c7,1.4,13.7,1.8,20.7,2c1.7,0,3.5,0.1,5.2,0.2c3.9,0.1,7.8,0.2,11.8,0.2
				c3.9-0.6,7.8-1.6,11.6-2.9c3.1-0.8,6.1-1.7,9.1-2.5c0.8-0.2,1.5-0.5,2.2-0.8c2.2-0.9,4.2-2.2,6.3-3.4c4.3-2.5,9.8-4.8,13.4-8.1
				c2-1.8,3.8-3.8,5.2-6c0,0,0,0,0-0.1c0.7-3.8,0.9-7.6,1-11.4c-0.2-3.3-0.6-6.5-1.3-9.8c-0.8-3.7-0.7-7.2,0-10.4
				c-1.7-2.6-3.8-5-6.3-7.3c-3.2-3-7.7-5.1-11.3-7.4c-5.1-3.2-8.7-5.2-13.8-7.1c-3.8-1.4-7.4-2.8-11.3-3.9
				c-14.6-4.2-30.4-4-45.2-3.8c-5.1,0.1-10.2-0.1-15.3,0.1c-4.7,0.2-10.5,2.9-15.3,4.5c-2.2,0.7-4.3,1.5-6.5,2.2
				C1036.6,597.7,1034.3,598.5,1032,599.4"/>
			<path class="st4" d="M717.1,956c-1.5,0.6-2.6,2.3-1.8,4.3c1.7,4.8,3.4,9.7,5,14.6c1.5,4.4,3.6,9.1,3.5,13.7
				c-0.3,10,0.2,19.6,2.2,29.5c0.9,4.8,1.8,9.5,2.7,14.3c0.4,2.3,0.8,4.6,1.2,6.8c0,0.1,0.4,2.5,0.5,2.7c0,0.7-0.2,1.5-0.2,2.2
				c-0.5,7.8-1,15.6-2.2,23.3c-0.5,1.1-0.9,2.3-1.4,3.4c-0.4,1.1-0.9,2.1-1.3,3.2c-1.9,5.3-2,10.6-1.8,16.3c0.2,4.8,1,9.7,1.5,14.5
				c0.8,8.2,2.6,17,6.8,24.1c5.2,9,13.8,15.7,24,17.1c5.4,0.7,10.8-0.1,15.6-2.1c5-2.1,9.4-5.5,12.7-10c10.2-14,6-31.1,2.1-46.8
				c-1.7-7-3.2-14.2-7.8-20c-1.4-1.8-3.1-3.3-4.6-5c-2.4-2.6-4.4-5.6-6.3-8.7c-2.3-4-4.6-8-6.9-11.9c-1.1-1.8-2.2-3.7-3.3-5.5
				c-0.4-0.7-1.1-1.4-1.3-2.2c0.5,0.7,0.8,1.1,0.8,1.1c0,0,0-0.2-0.2-0.7c-0.2-0.7-0.5-1.3-0.7-2c-3-8.5-6.2-16.9-9.5-25.3
				c-1.6-4.1-3.9-7.5-6.3-11.7c-2.4-4.2-5.9-7.3-8.4-11.3c-2.4-3.8-3.5-9.1-5.1-13.2c-1.7-4.3-3.4-8.7-5.1-13
				C720.4,955.7,718.5,955.3,717.1,956"/>
			<path class="st4" d="M801.5,744.6c-0.8,0.4-1.6,0.8-2.2,1.4c-0.1,0-0.3,0.1-0.4,0.2c-5,2.1-8.2,7.2-5.7,13.2
				c0.1,0.3,0.2,0.5,0.3,0.8c0,0.1,0,0.2,0.1,0.4c0,0.3,0.1,0.5,0.1,0.8c1.1,5.7,4.1,9.7,8.4,13.4c3.4,3,7,6.3,10.8,8.7
				c4.8,3.1,9.9,5.7,14.9,8.5c2.7,1.5,5.1,3,8.1,3.8c3.8,1.1,8.5,1.2,12.4,0.5c1.6-0.3,3.1-0.7,4.5-1.3c3.5-1.5,6.3-3.9,8.3-7.7
				c2.5-4.6,3.3-11,0.7-16c-1.5-2.9-3.2-6.1-5.3-8.6c-3.3-4-7.7-6.3-12.2-8.5c-4.2-2-8.3-4.2-12.6-6c-5-2.1-10.5-3.1-15.8-4.5
				c-3.7-1-7.1-1.2-10.7-0.3C804.2,743.8,802.8,744.1,801.5,744.6"/>
			<path class="st4" d="M467.9,991.1c0.5-0.9,0.8-1.6,1-2C468.6,989.9,468.2,990.9,467.9,991.1 M482.9,967.6
				c-3.6,1.5-6.5,4.4-8.2,8.4c-1.8,4.1-3.6,8.2-5.5,12.2c0,0.1-0.1,0.2-0.2,0.4l0,0c0,0-0.2,0.2-0.5,0.6c-0.2,0.3-0.5,0.6-0.7,0.9
				c-1.3,1.7-2.7,3.4-4,5.2c-3.8,4.8-6.2,10-8.7,15.6c-1.4,3.2-2.5,6-3.3,9.5c-1.3,5.4-0.8,10.4,0.4,15.7
				c2.1,9.4,6.9,17.2,15.9,21.1c2,0.9,4.1,1.5,6.3,1.8c0,0,0,0-0.1,0c0.1,0,0.2,0,0.2,0c4.4,0.6,9,0.2,13-1.5c2-0.8,3.9-2,5.5-3.5
				c0,0,0,0,0,0c0.5-0.5,1-0.9,1.6-1.4c2.2-2.1,4.8-4.3,6.5-6.7c3-4.2,4.7-9.5,5.5-14.7c1-6.8,1.9-14.2,0.7-21
				c-0.9-4.8-2.3-9.8-2.5-14.6c-0.2-5-0.4-10-0.7-15.1c-0.4-6.7-7.1-13.2-13.4-13.9C487.9,966.2,485.2,966.6,482.9,967.6"/>
			<path class="st4" d="M228.2,925.8c-4.9,2.1-9.5,4.8-12.6,7.8c-4.9,4.8-8.4,9.6-10,16.5c-1.5,6.4-1.5,13.9,1.5,20.2
				c6,12.7,18.6,21.1,32.2,19.6c4-0.4,8.4-1.7,12.7-3.5c5.9-2.5,11.6-6,15.3-10c1.1-1.1,2.1-2.2,3.2-3.3c1.6-1.8,3.3-3.5,5-5.3
				c1.6-2,2.9-4.2,3.9-6.7c0.7-0.5,1.4-1.1,2.1-1.6c6.8-5.2,9.6-16.6,5.8-24.8c-1.6-3.4-3.9-6.4-6.8-8.9c-3.5-3-10.6-5.4-15-4.3
				c-1.2,0.3-2.5,0.6-3.7,0.9c-1.4-0.3-2.8-0.6-4.1-0.8c-4.7-0.7-9.4-0.2-14,0.1C239.1,922.1,233.5,923.6,228.2,925.8"/>
			<path class="st4" d="M-76.3,632.7c-1.5,0.6-2.9,1.3-4.4,2.2c-2.6,1.5-4.5,2.8-6.7,4.6c-10.3,8.4-14.3,22.7-10.6,35.9
				c1.7,6.2,4.6,11.2,9.1,15.8c5.6,5.6,11.4,8.2,18.9,10.1c11.9,2.9,25.5-1.3,36.6-5.5c3.4-1.3,6.7-2.5,10.1-3.7
				c0.4-0.2,0.9-0.3,1.3-0.5c2.9-1.2,5.5-2.9,8.4-4.1c0.1,0,0.2-0.1,0.4-0.2c6.2-2.6,12.9-4.3,19.2-6.8c6-2.4,12.1-4.6,18.2-6.6
				c4.6-1,9.1-2,13.7-2.9c3.4-0.7,6.8-1.2,9.9-2.5c1.2-0.5,2.5-1.2,3.6-2c1.5-1.1,2.7-2.5,3.7-4.1c8.1-1.8,16.1-3.5,24.2-5.6
				c0.1,0,0.3-0.1,0.4-0.2c2.1-0.9,3.3-3.9,3-6.2c-0.4-2.8-2.6-4.7-5.1-5.3c-8.1-2.1-16.1-3.4-24.3-4.5c-0.9-0.9-1.8-1.8-2.8-2.6
				c-4.1-3.2-8.6-3.6-13.3-4c-4.9-0.3-9.8-0.6-14.7-0.8c-9.9-0.5-19.8-2.7-29.6-3.5c-4.8-0.4-9.7-0.2-14.5-0.5
				c-2.3-0.2-4.6-0.6-6.8-0.9c-4.9-0.6-9.8-0.5-14.7-0.4c-5.2,0-10.5-0.2-15.6,0.5c-2.6,0.4-5.1,0.8-7.7,1.3
				C-70.1,630.6-73.2,631.4-76.3,632.7"/>
			<path class="st4" d="M148.1,422.5c-10.8,4.5-18,14.7-17.8,27.7c0,2.4,0.3,4.9,0.9,7.4c0.1,0,0.1,0.1,0.2,0.1c0,0,0.1,0,0.1,0.1
				c0.7,0.3,1.3,0.7,2,1c1.7,0.8,3.4,1.6,5.1,2.3c2.9,1.1,5.5,2.1,8,4.2c1.3,1.2,2.5,2.3,3.9,3.5c0.5,0.4,2.7,1.8,3.5,2.6
				c0.8,0.2,1.6,0.4,2.4,0.6c4.1,1,8.2,2.1,12.1,3.5c1.7,0.6,3.5,1.2,5.2,2c0.9,0.4,1.6,0.8,2.3,1.3c0.4-0.1,0.7-0.3,1.1-0.4
				c0.6-0.2,1.2-0.5,1.8-0.8c6.8-3.1,11.5-7.9,14.4-14.2c4.2-3.4,6.8-9.2,5.8-14.8c-0.9-4.8-3.2-8.3-6.5-10.8
				c-3.3-5.9-9.1-10.7-14.8-13.3c-7.2-3.4-14.8-5.5-22.6-4.1C152.6,420.8,150.3,421.5,148.1,422.5"/>
			<path class="st4" d="M255.8,148.2c-1.1,0.5-2.2,1-3.3,1.7c-4.5,2.7-9.4,7.2-10.8,12.6c-1.5,5.8-2.5,10-1.5,16.1
				c0.6,3.3,1.5,7.6,2.7,10.2c2.1,4.8,5.3,9.2,8.3,13.4c3.7,5.1,7.5,10.2,11.3,15.2c7.4,9.7,15,19.2,22.5,28.7
				c3.8,4.8,7.9,9.4,11.9,14.1c5.1,5.9,10.1,12.9,16.3,17.5c9.8,7.3,20.2,13.6,30,21.1c4.5,3.5,9.8,3.8,14.1,1.9
				c6.9-2.9,11.5-11,7.8-19.5c-4.7-10.9-8.7-22.1-12.7-33.3c-2.7-7.5-8.1-14.2-12.6-20.7c-3.6-5.3-7.2-10.6-11-15.7
				c-7.3-9.7-14.6-19.5-21.7-29.4c-10.1-14-19.6-33.6-38.2-35.7C264.2,145.9,259.9,146.5,255.8,148.2"/>
			<path class="st4" d="M492,121.9c-3.2,1.3-5.9,3.5-7.9,6.7c-3.5,5.6-4.8,11.4-5.2,18c-0.4,7.1,2.1,14.2,4.6,20.9
				c2.6,7,6.9,13.6,10.6,20c2.5,4.4,5.2,8.4,10.1,10.3c3.9,1.5,7.7,1.8,11.6,0.8c0.8-0.2,1.7-0.5,2.4-0.8
				c7.5-3.1,11.1-10.8,10.5-19.4c-0.4-6.1-0.6-12.2-0.7-18.3c0,1.7,0.1,3.4,0.1,5.1c-0.1-5.8-0.5-11.3-1.4-17
				c-1.3-8.1-7-18.6-13.4-23.4C507.4,120.3,498.8,119.1,492,121.9"/>
			<path class="st4" d="M457.9-35.4c-0.2,0.1-0.5,0.2-0.7,0.3c-2,1.2-3.9,2.3-5.9,3.5c-1.5,1.6-3,3.2-4.6,4.9
				c-2.6,3.7-4.2,7.8-4.7,12.4c0,0.2-0.1,0.4-0.1,0.6c-0.5,4.6,0.2,9,2,13.3c1.8,4.3,4.5,7.9,8.2,10.7c0.2,0.1,0.3,0.2,0.5,0.3
				c2.7,2.3,5.7,3.7,9,4.4c2.1,0.9,4.3,1.3,6.5,1c3.2,0.3,6.3-0.1,9.2-1.4c0.2-0.1,0.5-0.2,0.7-0.3c2-1.2,3.9-2.3,5.9-3.5
				c1.5-1.6,3-3.2,4.6-4.9c2.1-2.7,3.4-5.8,3.9-9.1c0.8-2.2,1-4.4,0.7-6.7c0.2-3.6-0.4-7-2-10.4c-1.2-2.1-2.4-4.1-3.6-6.2
				c-1.6-1.6-3.2-3.3-4.9-4.9c-2.7-2.3-5.7-3.7-9-4.4c-2.1-0.9-4.3-1.2-6.5-1C464-37.1,460.9-36.6,457.9-35.4"/>
			<path class="st0" d="M466.4-21.5c5.1-2.2,8-9,5.5-14.4c-2.6-5.5-8.6-8.5-14.1-6.2c-5.1,2.2-8,9-5.5,14.4
				C454.9-22.2,461-19.2,466.4-21.5z"/>
			<path class="st0" d="M1101.9-24.1c11.5-4.9,18.1-20.2,12.3-32.5c-5.8-12.4-19.5-19.1-31.8-13.9c-11.5,4.9-18.1,20.2-12.3,32.5
				C1075.9-25.6,1089.5-18.8,1101.9-24.1z"/>
			<path class="st0" d="M1013.4,842.6c-0.4-0.1-0.8-0.2-1.2-0.4c-1-0.3-2-0.6-2.9-0.8c-1,0-2,0-3.1-0.1c-1.6,0.1-3.1,0.7-4.4,1.6
				c-1,0.4-1.8,1-2.4,1.9c-0.8,0.7-1.4,1.5-1.8,2.5c-0.6,0.8-1,1.8-1.1,2.8c-0.4,1-0.5,2-0.3,3.1c-0.1,1.6,0.2,3.2,0.9,4.8
				c0.6,1,1.1,1.9,1.7,2.9c0.7,0.8,1.5,1.5,2.2,2.2c0.9,0.5,1.8,1.1,2.7,1.6c1,0.3,2,0.6,2.9,0.9c1,0,2,0,3.1,0.1
				c1.6-0.1,3.1-0.7,4.4-1.6c1-0.4,1.8-1,2.4-1.9c1.2-1,2-2.3,2.5-3.8c0.2-0.4,0.4-0.8,0.6-1.1c0.6-1.3,0.8-2.7,0.6-4.2
				c0.1-1.5-0.2-2.9-0.8-4.3c-0.5-0.9-1-1.7-1.5-2.6C1016.7,844.5,1015.2,843.3,1013.4,842.6L1013.4,842.6z"/>
			<path class="st0" d="M46.1,1048.7c-0.1,0.9-0.2,1.7-0.3,2.6c0,1.8,0.1,3.6,0.1,5.4c0.3,2.9,1.3,5.6,2.9,7.9
				c0.8,1.8,1.9,3.2,3.3,4.4c1.8,2.1,3.9,3.7,6.5,4.7c1.7,0.5,3.4,1,5,1.5c1.8,0,3.5,0.1,5.3,0.1c2.8-0.2,5.3-1.2,7.6-2.8
				c2.4-1.2,4.4-2.9,5.9-5.2c0.5-0.7,1-1.4,1.5-2.1c2.1-3,3.4-6.4,3.8-10.1c0.4-3.9-0.1-7.6-1.7-11.3c-1-1.7-2-3.4-2.9-5.1
				c-2.4-3-5.2-5.3-8.7-6.8c-2.6-1.2-5.2-1.8-7.9-1.6c-2.8-0.3-5.5,0.2-8.1,1.4C51.7,1034.5,47,1041.1,46.1,1048.7L46.1,1048.7z"/>
			<path class="st0" d="M-31.8,659.1c-2.1-0.2-4.2-0.4-6.4-0.5c1.8,1.8,3.6,3.7,5.4,5.6c-1-7.4-6.7-10.4-12.5-13.4
				c-5.5-2.8-11.3-2.5-17.1-2.4c-4,0.1-8.1,0.3-11.9,1.2c-4.7,1.2-8.6,2.1-12.5,5.1c-5,3.8-7.6,10-7.5,16.4
				c0.2,13.8,13.8,22.4,26,19.2c4.6-1.2,8.7-3.1,13.1-4.8c4.5-1.8,9.1-2.9,13.1-5.9c4.5-3.4,9.3-7.6,9.5-13.8
				c-1.7,1.8-3.4,3.6-5.2,5.4c2.1-0.2,4.2-0.3,6.3-0.3C-25.2,670.6-25.4,659.8-31.8,659.1L-31.8,659.1z"/>
			<path class="st0" d="M258.8,946.7c-0.9-0.4-1.7-0.8-2.6-1.1c-3.8-1.5,1.2,1,1.3,2c-0.2-1.6-5.3-4.3-6.1-4.6
				c-1.6-0.6-3.4-1.1-5-1.5c-3.8-1-7.9-1.4-11.5,0.3c-5.1,2.4-9.4,7.4-10,13.4c-1,10.4,7.1,18.3,16.8,18.5
				c7.2,0.1,12.8-5.1,17.2-10.3c-1.6,1.3-3.2,2.6-4.8,3.8c1.3-0.4,1.4-0.4,0.3-0.2c0.7-0.2,1.5-0.3,2.2-0.4
				C266.3,964.7,268.3,951.2,258.8,946.7L258.8,946.7z"/>
			<path class="st0" d="M466.6,1020.7c0,0.9-0.1,1.8-0.3,2.7c-0.5,3.1,0.6-2,0,0.3c1.2-1.7,2.4-3.4,3.7-5.1c1.7-0.7,3.5-1.4,5.2-2.1
				c-1.2,0.3-2.4,0.6-3.6,1c-1.2,0.5-2.7,1.5-3.8,2.2c-2.2,1.6-4,3.5-5.3,6c-2.1,4-2.8,9.2-1.7,13.8c0.9,3.6,2.3,7.2,5.5,9.5
				c2.9,2.1,6.3,3.3,9.9,2.8c7.2-0.9,13.6-6.2,15.4-13.5c1.7-7.1-1.1-14.4-6.4-19.3c1.4,1.8,2.8,3.7,4.2,5.5
				c-0.1-0.2-0.2-0.4-0.3-0.6c0.3,2.2,0.7,4.4,1,6.6c0-3.2,0-6.3-0.7-9.4c-1.3-5.8-5.5-10.3-11.5-10.4
				C472.4,1010.6,466.9,1014.8,466.6,1020.7L466.6,1020.7z"/>
			<path class="st0" d="M1060.6,640.3c7.2,2.1,14.6,4.9,22,5.7c4.6,0.5,9.6,1.6,14.1,1c8-0.9,15.2-6.3,15.1-15.3
				c-0.2-8.7-7.2-14.3-14.9-15.7c-4.6-0.8-9.5,0-14.1,0.3c-7.7,0.5-15.1,3-22.5,4.8C1049.8,623.8,1050.1,637.3,1060.6,640.3
				L1060.6,640.3z"/>
			<path class="st0" d="M817.5,770.9c3.2,2.1,2.4,3.2,3.5,5.7c1.3,3.2,4.9,5.6,7.3,7.9c4.8,4.5,11.8,9,18.2,10
				c12.6,2.2,20.1-16.1,9.1-24c-5.4-3.9-13.2-5.8-19.7-6c-3-0.1-6.5-0.7-9.3,0c-3.4,0.9-3.7,2.8-7.5,2.1
				C816.9,766.3,815.5,769.6,817.5,770.9z"/>
			<path class="st0" d="M913.9,151.1c0.3,0,0.6,0,0.8,0c-2.7-0.4-5.5-0.8-8.2-1.2c3.9,1.1,6.7,1.9,10.9,1.8c1.6-0.1,2.8-0.4,4.5-0.8
				c4.4-1.2,7.9-3.6,11.7-6c-1.7,1-3.5,2.1-5.2,3.1c4.7-2.8,9.7-4.9,14-8.3c2.9-2.4,6-4.6,9.2-6.5c-1.9,1.1-3.8,2.3-5.7,3.4
				c3.9-2.3,7.6-4.3,10.8-7.7c1.7-1.8,3.4-3.6,4.9-5.7c4.8-6.4,5.5-15.6,2.3-23.1c-3-7-10.4-14.2-18.2-14.5c-3.4-0.1-7-0.4-10.4,0.1
				c-6.1,0.8-10.2,3.5-15.2,6.6c-3.5,2.2-7,4.5-10.2,7.3c-5.6,5-8.8,11.2-12.3,17.9c-3.8,7.5-4.6,20.1,2.1,26.9
				c-1.2-2.9-2.5-5.8-3.7-8.8c0.1,0.6,0.3,1.2,0.4,1.8C898.8,146,904.8,151.4,913.9,151.1L913.9,151.1z"/>
			<path class="st0" d="M580.7,652.3c7.3,1.7,12.7,0,19.6-2c-2.5,0.7-4.9,1.3-7.4,2c0.7-0.2,1.3-0.3,2-0.5c1.6-0.2,3.1-0.6,4.7-1.1
				c2.6-0.3,4.9-1.3,6.9-2.9c5.7-3.4,9.6-8.4,12.1-14.7c2.6-6.7,2.3-14.3-0.5-21.1c-2.1-5.1-5.6-9.4-9.7-13
				c-6.4-5.5-14.7-6.3-22.4-6c-3.7,0.2-7.5,1-11,2.3c-5.5,2.1-10,6.5-13.5,11.2c-5.9,7.7-6.7,19-2.8,28.1
				C562.8,644.6,571,650,580.7,652.3L580.7,652.3z"/>
		</g>
		<g>
			<path class="st7" d="M793,153.3c-18.9,30.5-32.4,65.1-53.9,93.6c-15.2,20.1-58,60-77.1,21.7c-17.7-35.5,10.2-74.4-4.5-110.5
				c-9.9-24.3-46.9-43.8-61.1-14.7c-6.7,13.8-2.1,30.6-7.6,44.6c-6.6,16.8-26.7,7.8-34.9-3.5c-11.4-15.9-11-38.3-17.1-56.5
				c-5.2-15.5-15.6-31.3-30.8-36.5c-12.6-4.3-25.9,0.5-33.6,11.2c-8.3,11.6-10.8,26.9-11.4,41.4c-0.8,19.4,2.3,39.2,4.1,58.6
				c1,11.3,2.2,22.5,3,33.8c0.8,10.3,1.3,21.6-3.7,30.6c-6.6,11.9-20.7,15.4-33,14.1c-16.1-1.6-29.2-11.5-39.7-24.5
				c-12-14.9-20.3-33-29.3-50c-8.3-15.7-17.5-30.8-28-45c-20.6-27.9-46.1-53.1-76.8-67.3C233.5,83.5,191.3,72,174,99.9
				c-8.9,14.3-5.2,34-0.9,49.9c3.6,13.2,9,26,15.4,38c27.9,52.1,73.6,89.3,105.8,138c14.8,22.4,26.3,47.6,27.7,75.1
				c0.7,14.6-1.5,32.7-12.8,42.2c-14.6,12.3-39.8,0.6-55.4-5.8c-34.3-14.2-67-35.2-104.4-35.6c-29.5-0.3-65.9,15.6-67.6,52
				c-1.9,39.6,48.1,47.4,74.9,48.5c18,0.8,36-0.2,54.1,1.4c16.3,1.4,35.5,5.2,48.6,17.2c33.8,30.9-46.2,57.5-63.2,62
				c-36.8,9.6-75.4,10-113.5,9.4c-38.1-0.7-76.4-2.8-114.3,0.2c-35.3,2.7-73.9,8.3-101.7,32.7c-24.6,21.6-37.5,61.2-19.5,93.4
				c15.2,27.3,46.2,37.3,73.5,39.5c36.5,2.9,73.9-7.4,108.2-18.1c38.8-12.1,76.6-27.4,115.3-39.8c17.1-5.5,34.2-10.8,51.4-16.2
				c13.9-4.4,27.9-8.6,42.3-11c14-2.3,28.9-2.8,42.9,0.4c10.5,2.3,20.4,6.6,29.9,12c20,13.1,37.3,33.1,48.7,53.9
				c15.7,28.7,18.7,61.5,1.3,88.8c-14.7,23.1-39.5,36.9-63.2,47.2c-26.1,11.4-53.3,20-78.7,33c-24.7,12.6-56.5,33.3-60.8,65.4
				c-4.4,33.1,21.8,62.1,49.5,72.3c33.3,12.2,66.9-6,91.2-28.3c27-24.8,45.5-58.2,70.6-84.9c17.3-18.4,58.6-52.7,75.1-13.2
				c13.2,31.6-1.5,62.3-9.3,92c-4.4,16.6-7.4,34.7-3,52c4.2,16.5,15.6,29.8,30.4,36c31,12.9,62-6.8,73.6-37.6
				c5.9-15.7,6.2-32.7,5.4-49.6c-0.9-17.5-3.4-36.2,1.2-53.1c9.5-35.2,48.5-32.9,72.2-13.6c29.3,23.8,34.2,69.3,40.3,104.8
				c4,22.9,8.8,45.7,14.6,68.2c4.7,18.5,9.6,37.1,17.2,54.7c13.8,32,39.7,56.7,73.7,51.9c33.8-4.8,57.7-32.4,67.8-65.9
				c11.3-37.2,7.9-80,0.4-118.4c-7.7-39.3-21.9-77.5-41.5-112.2c-9.5-16.9-20.4-32.8-32.4-47.8c-12-15-26.1-29.1-34.2-47.2
				c-6.5-14.6-7.5-31.4,0.5-45.1c10-17.3,27.6-13.2,41.4-1.8c27.3,22.4,50.7,55,86,62.3c25.6,5.3,57.4-6,66.2-33.9
				c10-31.7-15.5-57.2-38.9-72.1c-25.9-16.5-61.8-28.4-71.2-63.4c-4.8-17.8,6.9-31.1,22.6-33.6c17.1-2.8,35.8,2.8,52.4,7.9
				c38.6,11.7,74.8,31.3,112.1,47.1c28.5,12,57.8,21.8,87.8,27.1c25.4,4.5,52.8,6.5,77.1-2.4c23.5-8.6,42.7-28.6,48.4-55.2
				c4.2-19.7,3-42.6-5.6-61.3c-16.7-36.4-58.2-47.9-91.9-52.8c-47-6.8-94.7-3.3-141.6-0.9c-22.9,1.2-45.8,2.5-68.7,2.5
				c-10.7,0-21.3-0.4-32-1.2c-19.2-1.5-40.8-4.4-55.6-19.8c-11.7-12-17.5-30.3-8.6-45.4c7.3-12.4,21.5-18.3,34.2-22.2
				c14.4-4.5,29.3-6.3,44-9.7c19.6-4.4,38.6-11,56.8-19.5c26.2-12.2,67.3-32.1,69.2-68.2c1.6-30-27-45.9-51.3-45
				c-32.8,1.1-54.1,30.6-75.9,52.5c-12.3,12.2-26,22.3-42.9,25.8c-15.1,3.1-32-0.4-41.2-15.5c-9.4-15.4-6.8-36,0.9-50.9
				c8.4-16.2,23.5-27.3,37.9-36.6c35.8-23.1,72.8-44.3,109.2-66.5c31.3-19,62.8-39.7,83.2-72.3c17.5-27.9,24.4-67.3,10.8-99.8
				c-13.7-33-45.7-50-77.7-50.2c-35.7-0.2-66.5,20.4-91.5,45.1C838.5,85.9,814.3,119,793,153.3L793,153.3z M968.7,30.9
				c14.9,1.9,29.8,8.3,40.7,19.9c11.6,12.3,17,29.3,17.5,46.2c1.1,37.9-20.1,68.9-46.3,91c-30.5,25.7-65.8,45.4-99.1,66.7
				c-17.3,11-34.7,21.9-51.8,33.2c-14.2,9.4-28.2,19.8-38.4,34.2c-17.1,24.2-21.3,66.1,6.8,85.5c25.6,17.6,58.2,3.9,78.6-14.3
				c23.6-21.1,44.7-57,79.2-57.2c12.3-0.1,26.7,4,34.8,15.1c10.8,14.5,4.6,32.6-5.5,44.3c-12.4,14.6-30.1,23.9-46.6,32.1
				c-17.6,8.8-36.2,15.5-55.3,20.2c-27.4,6.8-60.2,7.2-82.5,27.4c-9.4,8.5-15.1,21.3-14.2,35c1.1,16.6,11.1,31.3,23.5,40.8
				c24.3,18.7,58.3,18.5,86.5,18.9c21.9,0.4,43.8-0.5,65.6-1.3c46.2-1.7,93.2-4.6,139.5,2c30.4,4.3,72.6,13.1,85.9,48.1
				c7.3,19.2,6.1,43.4-2.7,61.1c-11.3,22.8-34.1,32.3-57.3,34.5c-25.7,2.5-51.9-2.1-77.1-8.5c-34.7-8.9-67.7-23.3-100.8-37.8
				c-34.1-15-70.1-31.6-106.8-35.1c-15.3-1.5-32.6,1-43,13.9c-8.8,10.9-10.3,25.6-5.5,39.4c5.3,15.2,16,28.2,27.7,38.2
				c12.2,10.3,26.1,16.5,39.6,24.4c21.4,12.6,57.1,40,36.8,69.3c-7.6,11-21.2,16.6-33.8,17.4c-16.2,1-31.1-5.8-44.8-15.4
				c-15.2-10.7-28.3-24.5-42-37.1c-12.5-11.5-27.6-23-44.6-19.7c-29.8,5.9-35.1,47.1-24.2,72.8c7.1,16.8,18.8,30.9,29.9,44.8
				c12.2,15.2,23.4,31.2,33.1,48.4c19.8,35,33.7,73.5,41,113.4c6.7,36.8,10.2,78.5-1.3,113.8c-10,30.8-39,59.2-72.1,50.2
				c-32.9-8.9-44.6-51.7-53.4-82c-6.5-22.4-12.2-45.1-16.8-68c-4-19.4-7-39-12.4-58.1c-9.4-33.4-27.3-64.9-59.7-76.3
				c-27.7-9.8-56.6,1.1-65.8,31.4c-10.1,33.2,5.9,70.8-7.1,103.3c-6.2,15.4-18,28.6-33.7,32.1c-14.6,3.3-31.6-1.9-40.9-15.5
				c-21.4-31.4,4.6-72.3,10.2-103.5c4.4-24.1,2.8-57.5-17.1-74.6c-28.2-24.4-64.2,6.4-83.8,27c-24.7,26.1-43,58.5-69.3,83.1
				c-24.7,23.2-60,40.3-92,19.6c-12.4-8-23.7-21.3-26.4-36.9c-3.3-18.7,8.2-33.8,20.5-44.8c20.9-18.7,47.1-29.2,72.5-39.1
				c46.9-18.2,110.4-39.7,118.8-101.8c7.6-56.3-36.2-107.3-83-128.2c-17.2-9-35.8-13.6-55.4-12.1c-32.5,2.5-63.7,14.5-95,22.5
				c-38.6,9.9-75.8,24.4-113.7,36.7c-35.3,11.4-73.3,22.8-110.9,21c-25.4-1.2-58-10-68.7-38.8c-6.5-17.5-2.1-36.7,7-51.5
				c9.6-15.4,25-25.4,41.1-31.6c34-13,72.2-14,108.3-14.1c38-0.1,76.2,2.4,114.2,0.9c36.2-1.4,72.7-6.5,106-21.2
				c15.3-6.8,31.7-14.8,41.4-29.8c9.2-14.2,7.9-32.2-4.6-44.7c-25.9-26-67.1-22.4-98.8-22.1c-23.5,0.2-90.4-1.5-77-44.3
				c11.9-38.1,59.7-35.7,89.2-25.8C219,431.4,251.7,458,289.2,462c35.8,3.9,48.8-33.9,46-66.4c-2.4-27-13.1-52.2-27.4-74.7
				c-31.1-48.8-76.4-85.7-105.3-136.2c-6.7-11.8-12.4-24.2-16.1-37.3c-4.1-14.4-9.4-35.8,4.3-45.3c12.4-8.6,30-5.6,43.8-1.8
				c16.3,4.5,31.6,12.6,45.6,23c27.6,20.5,49.8,49.7,67,80.4c16.7,29.8,30.8,69,62.3,84.6c23.1,11.4,56.5,9.5,68.1-17.4
				c8.1-18.8,3.1-42.5,1.4-62.6c-1.7-20.1-4.8-40.6-4.5-60.6c0.2-12.7,1.9-29.3,10.7-38.4c11.4-11.8,26.6-1.6,34.1,10.8
				c10.5,17.3,10.2,38.9,17.4,57.6c5.7,14.9,16,27.3,30.8,31.7c13.2,4,26.7-1.3,32.3-14.7c5.8-14,0.9-31.3,7.5-44.7
				c6.8-13.7,22.9-7.3,31.6,1.6c13.8,14.2,11.3,35.9,8.6,53.8c-2.6,17.6-5.7,34.8-2,52.8c2.9,14.3,10.4,29.2,23.1,36.1
				c15.4,8.4,32.4,2.5,46.3-5.3c13.5-7.6,25.1-18.8,34.9-31.2c21.8-27.6,36.9-61,55.3-91.2c20.7-34.1,44.7-66.7,72.2-94.6
				C901.6,47.1,932.9,26.3,968.7,30.9L968.7,30.9z"/>
			<path class="st7" d="M956.3,853.9c-0.8,1.6-1.6,3.2-2,4.9c-1.1,4.3-0.5,9,0.4,13.5c2,9.6,8.9,18.5,16.4,24
				c18.6,13.7,43.5,11.1,59.2-4.4c17.4-17.1,19.9-47.9,4.1-68.3c-13.6-17.7-38-25.5-56.4-14.1C964.2,818.1,955.3,836.3,956.3,853.9
				L956.3,853.9z M1018.5,826.1c5.9,5.7,10.6,12.8,12.5,21c2.2,9.6,0,20.1-4.4,28.3c-4.2,7.7-11.2,13.5-19,16.6
				c-7.6,3-16.8,4.7-24.9,2.7c-9.3-2.3-16.7-8.7-21.3-17.7c-2.5-4.9-4.4-11-4.3-16.7c0.5,2.7,1.3,5.4,2.4,8c0.2,0.4,0.7,0.2,0.6-0.2
				c-1.3-4.5-2.1-9.3-2-14c0.6-2,1.5-3.8,2.9-5.4c0.3-0.3-0.2-0.8-0.5-0.5c-0.8,0.9-1.5,1.9-2.2,2.9c0.3-3.5,1.1-6.9,2.4-10.1
				c3.4-8.1,7.3-15.1,14.3-20C988.2,811.5,1006.3,814.3,1018.5,826.1L1018.5,826.1z"/>
			<path class="st7" d="M1020.7-72.8c-8.8,14.8-8.9,35.4-1.1,51.3c7.3,14.8,21.8,26,37.3,26.7c0.3,0,0.6,0,0.9-0.1
				c9,3.8,18.7,5.7,28.2,5.3c29.1-1.3,57.4-24,61.5-55.9c2-15.8-1.6-32.6-13.2-43.9c-11.2-10.8-26.4-14.1-40.7-14.5
				C1067.2-104.7,1035.7-97.8,1020.7-72.8L1020.7-72.8z M1085.1-89.3c11,0.1,23,0.8,33.1,6.6c10.1,5.8,15.4,16,15.5,28.1
				c0.2,25.4-19.7,46.9-41.2,53.4c-13.3,4-27.3,3.1-40.2-3.2c-10.2-4.9-19.3-12.7-26.3-22.2c-4.9-11.1-5.1-24.6-0.1-35.3
				C1036.7-85.3,1062.6-89.5,1085.1-89.3L1085.1-89.3z"/>
			<path class="st7" d="M496.1,16.9c3.6-10.7,4.7-22.4,5.3-33.8c0.6-12.9-1-26.7-7.3-38.3c-11-20.4-38.6-29.8-53.2-10.1
				c-7.6,10.3-10.5,22.6-12,35.6c-1.9,15.4-1.1,31,2.9,46.2c0.5,1.8,2,2.5,3.5,2.3c3.6,7.5,8.8,14,15.6,18.4
				c8.9,5.7,18.8,7.4,28,2.8C487.8,35.7,492.9,26.4,496.1,16.9L496.1,16.9z M458.7,33.2c-9.8-2.7-17.6-12.1-21.4-21.8
				c-2.4-20.2-2-42.3,6.3-60.4c3.2-7,8.4-13.4,16.3-13.8c7.7-0.4,14.4,4.7,19.3,10.8c5.9,7.3,7.9,17.4,8.3,26.7
				c0.5,10-0.2,20-1.7,29.8c-1.1,7.6-3,15.7-7.5,21.7C473.7,32.5,466.2,35.2,458.7,33.2L458.7,33.2z"/>
			<path class="st7" d="M7.3,403.8c3.1-4.1,7.4-8.5,8.1-14c5.1-8.1,7.4-17.4,5.6-27.6c-1.9-10.5-8.2-20-16.5-26.1
				c-9.5-6.9-21-8.4-31.8-6.5c-21.1,3.6-40.7,22.2-42.9,45.7c-1.1,11.9,1.8,24.2,9.6,33.4c6.3,7.5,15.4,12.4,24.6,14
				c11,1.9,21.8-0.3,30.9-6.9C-0.5,412.4,3.7,408.6,7.3,403.8L7.3,403.8z M-56.8,385.7c-1.5-17.5,10.6-32.7,25-38.4
				c13.6-5.3,31.9-2.3,39.6,13.1c4.1,8.1,2.7,17.7-0.4,25.7c-3.2,8.1-9.4,14-14.8,20.4c-5.8,3.2-12.4,5-19,5.1
				C-40.7,412-55.3,402.3-56.8,385.7L-56.8,385.7z"/>
			<path class="st7" d="M117.6,1059.4c0.1-1.2,0.2-2.4,0.3-3.6c2.9-8.8,3.9-18.8,3.1-27.6c-1.1-13-6.6-25.6-16.9-33.3
				c-10.9-8.1-26.1-11-38.9-10.3c-12.9,0.7-25.6,5.5-34.8,15.2c-9.6,10.1-13.3,23.7-12.9,38.3c0.4,13.3,3.2,27.5,9.8,39.2
				c6.8,12.1,18,20.4,30.8,22.7c13.2,2.4,28.2,0.7,39.9-5.8C110.1,1087.2,116.1,1073.4,117.6,1059.4L117.6,1059.4z M43.2,1075.3
				c-6.1-7.1-9-17.2-10.3-26.4c-1.6-11.3-1.9-22.7,3.3-32.7c10.7-20.6,34.8-24.8,54.9-17.7c7.8,2.8,13.6,8,17.4,14.9
				c2.4,12.2,4.2,25.3,2,37.1c-1.8,9.7-5.7,19.5-12.6,26.1c-7.6,7.3-18.4,9.5-28.6,9.5C59.7,1086.2,50.1,1083.3,43.2,1075.3
				L43.2,1075.3z"/>
		</g>
	</g>
</g>
<g id="群組_00000036959178643335749370000003053246344089472143_">
	<g>
		<path class="st0" d="M741.4,1089.3c-2.2,7.8-3.1,16.2-2.2,24.3c1.2,10.3,8.4,18.6,19.7,17s16.6-11.4,14.4-21.7
			c-0.1-0.4-0.7-4.7-0.5-2.7s-0.1-2.9,0-2.8c0-1.1,0-2.2,0.1-3.3c0.2-5-0.7,2.7,0.3-2.2c1.5-8.4-2.3-18.1-11.5-20.2
			C752.9,1075.9,743.9,1080.5,741.4,1089.3L741.4,1089.3L741.4,1089.3z"/>
		<g>
			<path class="st1" d="M-20.7,329c0,0-67.5,23.7-30.3,74.1s79.2-25.6,54.3-53.6C-21.6,321.5-20.7,329-20.7,329L-20.7,329z"/>
			<path class="st1" d="M34.4,1007.5c0,0-23.4,60.2,10.7,76.4s70.6,15.6,72.5-24.6C119.6,1019.2,108.4,959.8,34.4,1007.5
				L34.4,1007.5z"/>
			<path class="st1" d="M473.1-69.3c0,0,33.3,25.3,19.1,73S447.7,41.3,436,8.5C424.4-24.3,435.6-78,473.1-69.3"/>
			<path class="st1" d="M1062.4-94.3c0,0,66.2-12.2,75.9,28.5S1117.8,1,1081,3.9c-36.8,3-56.2-16.4-62.9-41.1
				C1011.4-61.9,1041-92.6,1062.4-94.3z"/>
			<path class="st1" d="M957,860.2c0,0-7.3-34.9,25.9-48.1c33.3-13.2,64.3,18.5,45.3,59.9C1009.2,913.5,953.2,907.7,957,860.2z"/>
			<path class="st1" d="M717.1,780.4c0,0,23.8-30.5,64.7,13.6c40.9,44.1,83.9,64.4,119.9,32.8c36-31.7-21.5-75.8-50.6-93.4
				c-29.1-17.6-71.5-43.8-50.9-78.3c20.5-34.6,82.9-10.6,135.1,13.8c52.1,24.4,221.9,110,262.5,2.5
				c40.6-107.5-131.9-111-160.2-112.5s-199.7,26-234.9-22s5.4-72.3,47.6-76.7s153-39.3,149.7-96.9c0,0-9-42.6-62.5-29.5
				c-19.7,4.8-35.2,21.5-50.4,38c-26.1,28.4-51.4,56.5-95.5,23.4c0,0-37.4-47.9,24.3-89.6s194.3-106.2,216.9-185.7
				S973.2,5.3,916.6,32.3S807.4,152.6,770,214.3c-37.4,61.7-70.5,93.4-103.2,72.5s6.4-101.7-16.8-132c-23.2-30.3-49.5-30.6-52.2,2.1
				s-10.8,54.2-37.8,39.7s-29-109.6-69.6-99.6c-20.4,5-18.2,48.9-17,93.2c1.2,43.9,1.4,88.2-22.3,95.5
				c-47.7,14.6-73.1-28.5-89.1-67.8c-16-39.2-82.2-131.3-153.1-127.7s-13.5,103,8.3,135s127.1,117.3,108.3,195.1
				c-18.8,77.8-120.1,0.3-120.1,0.3s-85.4-45-116.9,24.1s145.9,55.6,145.9,55.6s73.4,21.7,23.8,65.4
				c-49.6,43.7-202.5,33.5-247.1,34.2s-174.8,3.7-163.4,96.3S28.1,739,90.1,710.6c62-28.5,185.3-65.5,233.9-19.2
				s78.4,111.6,23.9,159.7c-16.6,14.7-45,26-74.4,37.7c-66.9,26.6-139.3,55.6-92.9,132.6c0,0,57.4,45.9,119-11.9
				c61.5-57.8,85.4-139.4,136-108.1c50.6,31.4-31.6,148.5,23.3,188.2s77.6-25,75-93.4c-2.7-68.3,31.5-81.2,71.6-65.8
				c40.1,15.3,54,66.4,53.6,102.4c-0.4,36,31,183.4,94.7,184s82.1-67.6,64.1-179.4c-18-111.9-73.5-158.4-90.4-177.2
				S699.4,800.4,717.1,780.4"/>
			<path class="st2" d="M433.5,686.6c1.5-4,2.6-8.1,3.6-12.3c0.2-0.9,0.5-1.9,0.7-2.8c-0.1,0.5-0.2,0.9-0.2,1.3
				c-2,3.7-0.6,0.9-0.2,0.2c2.1-3.6,4.3-7.2,4.8-11.5c0.7-6.1-1.6-12.9-3.2-18.7c-1.4-4.9-2.8-9.7-4.7-14.5
				c-3.7-9.2-8.7-18.2-14.4-26.3c-5.2-7.4-11.6-13.6-17-20.7c1.7,3.9,3.3,7.9,5,11.8c-0.2-2.1-0.4-4.2-0.4-6.4
				c0,2.5,0.1,4.9,0.1,7.4c0-3.8,0.5-7.6,1.3-11.2c-0.7,3-1.4,5.9-2.1,8.9c0.1-0.5,0.2-1,0.4-1.5c-1.5,2.7-2.9,5.5-4.3,8.2
				c4.1-6.6,6.1-11.2,7.1-19.1c-0.8,3.1-1.5,6.2-2.2,9.4c0.4-1.1,0.9-2.1,1.4-3.1c-1.6,2.9-3.1,5.9-4.7,8.8c0.8-1.4,1.7-2.6,2.8-3.8
				c-2.5,2.6-4.9,5.2-7.4,7.8c0.9-0.9,1.8-1.7,2.8-2.4c-10.9,2.9-21.7,5.8-32.6,8.7c0.1,0,0.2,0,0.3,0c14.8,2.4,33.1-3.9,41.1-17.3
				c0.3-0.6,0.6-1,1.1-1.4c-2.7,2.8-5.3,5.6-7.9,8.5c0.9-0.9,1.9-1.7,3-2.4c-3.5,2.1-6.9,4.1-10.4,6.2c2.4-1.4,4.8-2.3,7.5-3
				c-4,1.1-8,2.1-12.1,3.2c8.5-2.2,17.4-3.5,25.5-7.1c7.6-3.4,15.2-7.8,21.5-13.4c9.5-8.5,15.8-19,21-30.8
				c3.4-7.7,5.3-16.4,6.5-24.8c2.7-17.9-1.4-34.2-6.8-51.3c-1.3-4-2.5-8.2-4.5-12c-2-3.9-3.8-7.8-5-11.9c1.2,4.5,2.5,9,3.7,13.4
				c-0.7-2.5-1.2-5-1.2-7.5c0.1,4.4,0.2,8.7,0.2,13.1c0-1.7,0.2-3.3,0.5-4.9c-1,4.1-2,8.2-2.9,12.2c0.5-1.8,1.1-3.4,1.9-5
				c-1.9,3.6-3.8,7.2-5.8,10.8c1.1-1.9,2.5-3.5,4-5.2c-2.7,2.9-5.5,5.8-8.2,8.7c1.2-0.9,2.4-1.7,3.7-2.5c-3.5,2.1-7,4.2-10.5,6.3
				c12.3-7.3,25.3-13.5,35.6-23.8c14.6-14.5,29.1-31.8,32.5-53.5c2.5-16.2-5.9-32.4-17.9-42.6c-0.3-0.2-0.5-0.4-0.8-0.6
				c-5.6,23.5-11.1,47-16.7,70.5c0.2,0,0.3-0.1,0.5-0.1c-13.8-11.1-27.6-22.2-41.4-33.3c2.8,14.7,8.8,29.2,18.6,40.6
				c5,5.9,10.7,11.8,16.9,16.3c4.8,3.5,10.1,6.4,15.2,9.3c2,1.1,4,2.2,6,3.1c3.8,1.6,7.8,2.6,11.7,3.8c4,1.2,8,2.5,12,3.2
				c8.4,1.4,17.1,1.5,25.4,0.6c4.4-0.5,8.6-1.9,12.8-3c4.3-1.1,8.8-2,12.9-3.9c5-2.2,9.5-5.5,14.9-7c-5.6,1.5-11.2,3-16.8,4.4
				c1.2-0.3,2.3-0.3,3.5-0.5c-5.7-0.1-11.5-0.2-17.2-0.3c0.8,0.2,1.5,0.3,2.2,0.5c-5.6-1.6-11.2-3.3-16.8-4.9c1,0.3,2,0.7,3,1
				c6.2,1.9,12.3,3.7,18.5,5.4c6.1,0.1,12.2,0.2,18.2,0.3c2.6-0.2,5.2-0.4,7.8-0.5c5.7-0.3,11.4-0.5,17.1-0.8
				c2.7-0.1,5.5-0.3,8.2-0.4c1.4-0.1,2.7-0.1,4.1-0.2c0.7,0,1.4-0.1,2-0.1c10-0.8,19-4.1,27-9.9c5.1-3.1,8.9-5.4,13.2-9
				c1.9-1.6,3.8-3.3,5.9-4.8c-4.9,2.9-9.8,5.8-14.6,8.8c3.5-1.3,6.9-2.7,10.3-4c0.8-0.3,1.6-0.6,2.4-1c2.6-1.3,5.1-2.7,7.5-4.4
				c5-2.1,9-5.4,12.2-9.8c6.7-7.1,5-4.6,9.5-13.2c3-4.2,4.8-9,5.4-14.3c1.3-3.8,2-7.7,2.2-11.8c-27.5,3.4-55.1,6.7-82.6,10.1
				c5.4,12,11.4,24,16.1,36.3c-0.9-3.2-1.8-6.3-2.6-9.5c4.3,16,8.5,32.1,13,48.1c-0.8-3-1.7-6-2.5-8.9c2.6,10,5.3,20.4,9.5,29.9
				c5.1,11.5,11.7,20.9,20.7,29.4c-1.9-2-3.8-3.9-5.8-5.8c3.8,4.1,7.7,8.4,12.4,11.3c7.4,4.6,12.6,6.8,20.9,9
				c5.5,1.5,11.2,1.9,16.7,3.5c-2.6-0.8-5.2-1.5-7.8-2.3c1.8,0.6,3.5,1.3,5.2,2.2c-2.3-1.4-4.7-2.8-7-4.2c0.9,0.6,1.7,1.2,2.5,1.9
				c-2-2-4-4-5.9-6c0.8,0.8,1.4,1.6,2,2.5c-1.5-2.5-2.9-5.1-4.4-7.6c0.6,1.1,1.1,2.1,1.5,3.2c-0.8-2.8-1.6-5.7-2.4-8.5
				c0.4,1.4,0.5,2.8,0.6,4.3c0-2.8-0.1-5.7-0.2-8.5c-0.1,1.8-0.3,3.5-0.7,5.3c0.6-2.7,1.3-5.4,1.9-8.1c-0.5,2.1-1.2,4.2-1.9,6.3
				c1.3-2.4,2.6-4.8,3.9-7.3c-0.2,0.3-0.3,0.5-0.5,0.8c4.3-3.5,8.7-7,13-10.5c-4.1,2.2-8.1,4.6-12.1,7.1c2.8-1.7,5.6-3.3,8.4-5
				c-7.1,3.5-13.1,7.9-17.2,14.9c-4.3,7.2-7.9,14.3-8.9,23c-1.6,14.7,4.7,29.1,12.8,41c7.8,11.3,20.8,20.6,34.2,21.4
				c10,0.6,18.4,0.1,27.8-3.5c-2.7,0.7-5.4,1.4-8,2.1c6-0.3,12.5-1.7,17.6-4.7c4.6-2.7,9-5.5,13.4-8.5c10.3-7.2,8.1-23.5-0.9-31
				c-2.7-2.2-5.3-4.4-7.8-6.8c-2.7-2.5-5.7-4.5-8.7-6.8c2,2,3.9,4,5.9,6c-0.9-1.4-1.9-2.8-2.8-4.2c1.6,2.8,3.2,5.6,4.8,8.3
				c-1.2-2.2-2.1-4.4-2.8-6.7c1,3.5,2,7.1,3,10.6c-0.1-0.3-0.1-0.5-0.2-0.8c-0.6-5.8-2.6-11-5.8-15.6c-1.5-2.7-2.4-4.5-4.1-6.6
				c-1.2-1.4-2.3-2.8-3.3-4.4c1.9,3.3,3.8,6.5,5.7,9.8c-1.1-1.9-2-3.8-2.6-5.9c1,3.7,2,7.3,3,10.9c-2.3-9-3.8-17-10-24.7
				c1.9,3.2,3.8,6.5,5.6,9.7c-0.7-1.4-1.2-2.7-1.7-4.2c1,3.4,1.9,6.8,2.9,10.3c-0.6-2.3-1.2-4.5-1.8-6.8c-1.5-5.3-3.7-10.2-7-14.6
				c1.7,3,3.4,5.9,5.2,8.9c-0.9-1.5-1.6-3.1-2.4-4.7c0.8,5.8,1.7,11.5,2.6,17.3c0-0.3,0-0.6,0.1-1c-0.7,2.7-1.3,5.4-1.9,8.1
				c2.7-9.9,5-18.7,3.9-29.2c-1.3-12.2-8.3-24.5-18-31.9c-7.6-5.7-16.4-8.8-25.4-10.3c-4.8-0.8-9.6-1.1-14.3-2.4
				c2.5,0.7,5.1,1.5,7.7,2.2c-2.1-0.6-4.1-1.5-6-2.5c2.3,1.4,4.6,2.8,6.9,4.1c-1.9-1.2-3.7-2.5-5.3-4.1c1.9,2,3.8,3.9,5.8,5.8
				c-1.6-1.6-2.8-3.6-4-5.6c1.5,2.5,2.9,5,4.3,7.5c-2.5-4.5-4.3-9.4-5.7-14.4c0.8,2.9,1.6,5.7,2.4,8.6c-2.4-9-3.5-18.3-5.1-27.4
				c-0.9-5.4-1.8-10.8-2.8-16.3c-1-5.6-2.4-11.3-2.8-17c0,3.2,0.1,6.3,0.2,9.5c-0.1-10.5-0.2-20.9-0.4-31.3c0-1.4,0-2.7,0-4.1
				c0-0.5,0-0.9,0-1.4c0.9-6,0.3-11.8-1.8-17.5c-2.5-8.9-6.3-17-11.6-24.5c-3.5-4.6-7.5-8.5-12-11.9c-4.5-2.7-9-5.4-13.5-8.1
				c-8.9-4.4-19.8-5.2-29.4-6.6c5.3,1.5,10.6,3.1,15.9,4.6c-2.6-1-5.1-2.5-7.7-3.7c-7.8-3.9-13.8-6.4-23.5-7.9
				c-12.3-1.9-23.2,0.4-34.9,2.4c-5.8,1-11.6,1.9-17.3,2.9c-13.9,2.4-28.2,5.9-39.2,15.4c-5,4.3-9.6,9.6-14,14.5
				c-0.9,1-1.8,2.1-2.6,3.2c3.9-4.2,7.8-8.4,11.8-12.5c-0.3,0.2-0.6,0.5-1,0.8c-3.9,4.2-7.8,8.3-11.7,12.5c-0.5,0.6-0.9,1.2-1.4,1.8
				c-1.1,1.4-2.1,2.8-3,4.4c-4.2,7.2-7.8,14.7-11.7,22.1c2.5-4.6,4.9-9.3,7.4-13.9c-1.7,3-3.5,5.8-5.8,8.4
				c3.4-3.6,6.8-7.3,10.3-10.9c-2.6,2.7-5.4,5-8.6,6.9c4.2-2.5,8.3-5,12.5-7.5c-3.5,2-7.1,3.5-11,4.6c4.4-1.1,8.7-2.3,13.1-3.5
				c-4.2,1.1-8.5,1.6-12.9,1.6c4.1,0.1,8.1,0.2,12.2,0.2c-4.1-0.1-8.1-0.6-12.1-1.7c3.6,1,7.2,2.1,10.8,3.1
				c-3.6-1.1-7.1-2.5-10.5-4.4c3,1.8,6,3.6,9,5.4c-3-1.8-5.8-4-8.3-6.5c2.3,2.4,4.7,4.7,7,7.1c-0.4-0.4-0.8-0.9-1.3-1.4
				c0.5,15.3,0.9,30.7,1.4,46c0.1-0.1,0.2-0.2,0.3-0.3c-2.2,2.3-4.4,4.7-6.6,7c0.1,0,0.1-0.1,0.2-0.1c2.3-2.4,4.5-4.8,6.8-7.2
				c1.5-2.9,3.1-5.8,4.7-8.7c3-8,3-16.8,0.7-25.1c-2-7.1-5.3-12.8-10.4-18c-2.1-2.8-4.8-4.8-7.9-6.2c-4.2-3-8.7-4.7-13.8-5.3
				c-0.4-0.1-0.7-0.2-1.1-0.3c3.4,1,6.9,2,10.3,3c-2.8-0.9-8.2-2.7-11.1-3.2c-11.8-2.4-23.4,2-32.7,8.8c-5.2,3.8-8,8.4-11.4,13.5
				c-2.7,4-5.7,7.8-9,11.3c2.7-2.8,5.3-5.6,8-8.5c-5.3,5.6-11.3,10.4-17.9,14.3c3.5-2.1,6.9-4.1,10.4-6.2c-3.1,1.8-6.3,3.4-9.6,4.9
				c-6.6,3-12.9,6.7-18.9,10.8c3.5-2.1,7-4.2,10.6-6.3c-4.7,2.1-9.3,5-13.5,7.9c-1.2,0.8-2.3,1.8-3.3,2.8
				c-8.1,7.9-12.6,13.9-17.4,24.4c-2.5,5.5-3.7,11.9-4.7,17.9c-1.1,6.3-0.5,13.8-0.2,19.8c0.2,5,0.9,9.9,2.1,14.8
				c1.8,7.2,4,14,6.5,21c0.9,2.6,1.8,5.2,2.6,7.8c-1.3-4.7-2.6-9.3-3.9-14c1.1,3.9,1.7,7.8,1.8,11.8c-0.1-4.6-0.2-9.3-0.2-13.9
				c0,3.8-0.4,7.4-1.3,11.1c1-4.4,2.1-8.8,3.2-13.2c-0.9,3.6-2.2,7-3.9,10.3c2.1-3.9,4.2-7.8,6.3-11.8c-0.7,1.3-1.5,2.6-2.3,3.9
				c-3.1,4.6-5.6,9.7-8.1,14.6c2.1-3.9,4.2-7.8,6.2-11.7c-1.6,2.9-3.5,5.5-5.7,7.9c2.9-3.1,5.9-6.2,8.8-9.4
				c-3.7,3.9-8.2,6.5-12.4,9.6c-5,3.7-9.4,8.5-13.2,13.4c-3.7,4.6-5.8,10.4-8.5,15.7c-2.8,7.5-3.6,15.2-2.5,23.3
				c1.3,8.4,4.5,16,9.6,22.8c0.1,0.1,0.2,0.2,0.2,0.3c-3.1-7.5-6.3-14.9-9.4-22.4c0.1,1.1,0.4,2.2,0.6,3.2c1.1,4.6,2.2,9.5,4.1,13.9
				c2.2,5.1,5.2,10.2,8.6,14.7c-1.7-3-3.4-5.9-5.1-8.9c3.5,7,6.7,12.3,13,17c-2.2-2.3-4.5-4.5-6.8-6.8c6.2,7.1,11.7,12,20,16.2
				c5.1,2.6,10.9,4,16.4,5.3c-3.7-1.6-7.3-3.2-11-4.8c4.5,4.3,9.1,8.6,13.5,13c-1.4-1.4-2.8-2.8-4.2-4.2
				c6.3,6.5,11.8,13.6,16.4,21.5c-1-1.7-2-3.4-2.9-5c4.5,7.9,8,16.2,10.5,25c-0.5-1.8-1-3.5-1.5-5.3c0.8,3.1,1.5,6,3.2,8.8
				c1.6,2.7,3.5,4.6,5.8,6.6c1.1,1,2.2,1.9,3.3,2.9c-1.6-2.1-3.2-4.3-4.9-6.4c0.9,1.5,1.7,3,2.6,4.5c-1-1.7-1.1-1.8-0.4-0.3
				c0.4,1.1,0.9,2.2,1.3,3.2c1,2.5,1.8,5,2.6,7.5C419.2,694.5,431,693.6,433.5,686.6"/>
			<path class="st3" d="M451.6,786.4c2.7,4.6,6.1,8.9,9.9,12.5c4.2,4,9.5,6.2,14.3,9.2c1.4,0.8,3.6,2.8,5.5,4.3
				c2.3,1.8,4.7,3.8,7.1,5.5c0.5,0.3,0.9,0.7,1.4,1c2.7,1.6-1-0.7-1-1.2c0,0.7,1.5,2.1,1.9,2.8c2.7,3.9,6.1,6.7,10,9.1
				c2.2,1.4,4.4,2.7,6.4,4.4c1,0.8,2,1.7,3,2.5c5.3,4.1,11.1,5.5,17.3,7c5.8,1.4,11.7,2.7,17.6,3.8c5.9,1.1,11.7,1.8,17.6,2
				c8,0.3,17.1,1.3,25.1,0c5.2-0.9,10.4-2.7,15.5-4.2c3-0.9,6.1-1.8,8.9-3.2c8.6-4.4,17-9.4,22.7-17.5c7.3-10.4,3.3-27-9.1-32
				c-7.6-3-16.3-4.7-24.5-5.4c-3.4-0.3-6.8-0.7-10.1-1.2c-6.2-1-12.3-1-18.5-1c2.7,0,5.5,0.1,8.2,0.2c-9.8-0.2-19.6-1.2-29.3-1.9
				c-4.8-0.4-9.5-0.9-14.2-1.5c-4.6-0.6-9.2-1.3-13.8-1c-4.3,0.3-9.2,2.6-13.5,3.9c2.3-0.6,4.6-1.2,6.9-1.8
				c-6.9,0.9-14.6,0.8-20.3,5.2c-1.7,0.8-1.1,0.8,1.8,0c-0.7,0.1-1.5,0.2-2.2,0.2c-1.5,0.2-2.9,0.4-4.4,0.6
				c-2.7,0.5-5.4,0.9-8.2,1.4c-4.7,0.8-9.3,0.4-14.8-0.2c-5.8-0.7-10.9-0.9-15.9-4.6C451.9,784.5,451.1,785.6,451.6,786.4
				L451.6,786.4z"/>
			<path class="st4" d="M536.8,654.1c-0.1,0.2-0.3,0.4-0.4,0.6c0.2-0.2,0.4-0.4,0.5-0.6C536.9,654.1,536.9,654.1,536.8,654.1
				 M537.1,653.5c0,0,0,0.1,0,0.1c0,0,0,0,0,0C537.1,653.5,537.1,653.5,537.1,653.5 M446,719c0,0,0.5-0.6,1.7-1.8c0,0,0,0,0,0
				C446.6,718.5,446,719.1,446,719 M465.9,697.7c0.2-0.9,0.4-1.7,0.6-2.6C466.3,695.9,466.1,696.8,465.9,697.7 M515.9,625.5
				c0.1-7.7,1.5-15.3,4.2-22.5c4-10.5,10.3-19.3,18.8-26.2c1.2-1,2.4-2,3.6-2.9c5.2-3.9,10.5-7.8,16.4-10.3c0.6-0.2,1.2-0.5,1.8-0.7
				c6.2-2.2,13.2-3.8,19.7-5c1.7-0.3,3.4-0.8,5.1-1c6.1-0.2,12.3-0.2,18.5,0.3c11.5,1.8,21.9,6.4,31.3,13.7
				c15,9.9,25,27.8,27.6,45.6c1.5,10.4,0.7,24.6-3.9,34c-2.6,5.4-5.5,11.5-8.8,16.5c-5.7,8.8-15.8,17-25.7,21.1
				c-1.2,0.5-2.4,1-3.6,1.3c-6.8,2.2-13.9,3.8-20.9,5.5c-4.3,1.1-7.5,0.5-12.5,0.5c-5.7-0.1-7.7,0.1-12.3-1.1
				c-6.5-1.8-13.1-3-19.3-5.8c-9.7-4.3-17.9-10.5-24.7-18.8c-1.2,1.4-2.8,2.6-4.6,3.3c-3.7,1.5-8,1.3-11.4-1.6
				c-3.7-3.2-6.9-7.2-8.5-12c-2.2-6.4-1.9-12-0.2-18.3c1.2-4.3,3.3-8.5,6-11.9C513.7,628,514.8,626.7,515.9,625.5 M496.6,555.4
				c-3.4,1.4-6.8,3.2-10.8,5.6c-3.2,1.9-6.9,3.8-9.9,6.3c-2.3,2-4.6,4.7-6.5,6.8c-2.4,1.7-4.2,3.8-5.5,6.2
				c-2.3,4.3-4.6,8.6-6.9,12.9c-1.2,4.8-2.3,9.6-3.5,14.4c-0.1,0.4-0.2,0.8-0.2,1.1c-0.1,0.7-0.2,1.3-0.3,2c-0.1,1.5,0,3.1-0.3,4.5
				c-1,9.5,0.4,18.7,4.1,27.7c1.2,2.9,2.7,5.7,4.3,8.3c0.5,3.2,1.2,6.5,2.1,9.9c1.9,7.1,3.9,13.9,4.6,21.1
				c-0.2,3.5-0.6,6.9-1.3,10.3c0.2-0.7,0.3-1.4,0.5-2.2c-0.6,2.8-1,5.7-1.5,8.5c0,0.1-0.1,0.3-0.1,0.4c-1.2,1.9-2.5,3.7-3.9,5.5
				c-0.7,0.9-1.4,1.7-2.2,2.6c-0.6,0.6-1.2,1.1-1.8,1.7c-2.4,2.2-4.9,3.9-7.4,5.9c-0.9,0.5-1.7,1.2-2.3,2.1c-0.5,0.5-1,1-1.5,1.5
				c-1.2,1.2-2.4,2.3-3.9,3.2c-2.5,1.6-4,4.2-4.8,7c-1.4,0.3-2.8,0.5-4.2,0.7c-0.7,0.1-1.3,0.3-1.9,0.5c-6.9,2.9-6.7,15.5,2.2,16.2
				c2,0.2,4,0.2,6,0.2c0.6,0,1.3,0,1.9,0c0,0,0,0,0.1,0c0.2,0.2,0.5,0.3,0.7,0.4c3.3,2.9,8,4.4,12.2,3.8c5.1-0.7,9.8-0.4,14.8-2.4
				c0.1,0,0.2-0.1,0.3-0.1c4.5-1.9,8.7-4.5,12.8-7.1c6.3-4,11.6-9,16.6-14.5c4.4-3.7,8.4-8,12.1-12.4c-0.4,0.5-0.8,0.9-1.3,1.3
				c1-1.2,1.9-2.5,2.7-3.8c0,0,0.1,0.1,0.1,0.1c-0.2,0.3-0.3,0.6-0.5,0.8c0.2-0.3,0.3-0.5,0.5-0.8c6.5,6.3,9.4,7.8,23.1,15.2
				c1.3,0.7,2.5,1.3,3.9,1.8c6.4,2.3,14.9,4.8,21.5,6.2c0.7,0.1,1.4,0.3,2.1,0.4c8.3,1,16.8,1,25,0.5c1.5-0.1,2.9-0.3,4.4-0.6
				c7.3-1.5,15.3-3.7,22.4-5.9c0.9-0.3,1.7-0.5,2.6-0.8c0.5-0.2,0.9-0.3,1.4-0.5c0.9-0.4,1.9-0.8,2.8-1.3c1.7-0.9,3.4-1.8,5.2-2.8
				c1.8,1.8,3.7,3.6,5.5,5.3c4.1,3.8,9.4,6.6,14.2,9c4.7,2.4,10.1,4.2,15.2,4.8c11.6,1.3,23.2-0.7,34.7-1.9c9.3-1,18.7-1.9,28-2.9
				c2.5-0.3,5-0.6,7.5-0.8c5-0.6,10.3-1.3,14.9-3.2c0.1,0,0.2-0.1,0.2-0.1c8.6-3.7,16.7-8.8,22.4-16.6c4-5.4,5.7-12.3,5.6-19.1
				c-0.1-6.9-2.1-14.6-6.7-20c-5.6-6.6-10.5-10.3-18.2-14c-5.3-2.5-10.9-4.6-16.7-5.3c-5.9-0.7-11.9-1-17.8-1.4
				c-5.9-0.4-11.9-0.9-17.8-1.3c-1.1-0.1-2.2-0.1-3.3-0.2c0-0.2-0.1-0.3-0.1-0.5c-0.1-3-0.3-6-0.5-7.8c-0.5-4.8-2.1-9.9-3.8-14.9
				c0-1.9,0-3.8-0.1-5.7c0-1.1,0-2.2-0.1-3.3c0.1-2.8,0-5.7-0.2-8.5l0,0c-0.7-6.8-2.5-13.5-5.6-20c-3.5-6-6.9-12-10.4-17.9
				c-8.3-10.7-18.5-18.8-30.7-24.1c-6.3-3.7-15.1-5.4-22.8-6.5c-7.2-1-19.2-1.1-22.4-0.6c-3.9,0.7-7.7,1.7-11.4,2.9
				c-3.2,0.2-6.2,0.9-9,2.1c-0.8,0.3-1.6,0.7-2.4,1.2c-2,1-4,2.2-5.9,3.3c-0.1,0.1-0.2,0.1-0.3,0.2c-5.1-1.6-10.4-2.9-13.7-3.8
				c-7.5-2-14.9-2.2-22.5-2.1c-4.5-0.2-9.1-0.3-13.6-0.2c-1.6,0-3.1,0.1-4.6,0.4C507,551.8,501.7,553.2,496.6,555.4"/>
			<path class="st5" d="M536.4,654.6c0.2-0.2,0.3-0.4,0.4-0.6c0,0,0.1,0,0.1,0C536.8,654.3,536.6,654.5,536.4,654.6 M537.1,653.6
				c0-0.1,0-0.1,0-0.1C537.1,653.5,537.1,653.6,537.1,653.6C537.1,653.6,537.1,653.6,537.1,653.6 M606.8,659.4
				c-1.5,0.6-3.1,1.2-4.8,1.6c-6.6,1.8-14.9,3.3-21.7,1.9c-6.8-1.3-16.2-4.5-21.4-9.4c-4.7-3.7-8.2-8.3-10.5-13.8
				c-0.8-2.9-1.6-5.7-2.4-8.6c-1.6-8.4,1.4-17.2,5.7-24c3.5-5.6,12.2-11.9,18.2-14.5c5-2.1,11-2.9,16.4-3.3
				c6.3-0.5,10.5,0.3,16.2,1.9c3.5,1,7.1,1.7,10.5,3c7.4,2.8,15.4,10.6,17.8,18.5c2.7,8.7,3.7,16.5,0.5,25c-3.4,9-9.5,13.6-17.4,18
				C611.5,657.2,609.2,658.4,606.8,659.4 M559.1,563.5c-5.9,2.5-11.3,6.4-16.4,10.3c-1.2,0.9-2.5,1.9-3.6,2.9
				c-8.5,7-14.8,15.7-18.8,26.2c-2.7,7.3-4.1,14.8-4.2,22.5c-1.1,1.2-2.2,2.5-3.2,3.7c-2.7,3.4-4.8,7.6-6,11.9
				c-1.7,6.3-2,11.9,0.2,18.3c1.7,4.8,4.8,8.8,8.5,12c3.4,2.9,7.7,3.1,11.4,1.6c1.8-0.7,3.3-1.9,4.6-3.3c6.8,8.2,15,14.5,24.7,18.8
				c6.2,2.8,12.8,4,19.3,5.8c4.5,1.2,6.6,1,12.3,1.1c5,0.1,8.2,0.6,12.5-0.5c7-1.8,14.1-3.3,20.9-5.5c1.2-0.4,2.4-0.8,3.6-1.3
				c9.9-4.2,20-12.3,25.7-21.1c3.2-5,6.2-11.1,8.8-16.5c4.5-9.5,5.4-23.6,3.9-34c-2.6-17.8-12.6-35.7-27.6-45.6
				c-9.4-7.3-19.8-11.8-31.3-13.7c-6.2-0.4-12.3-0.5-18.5-0.3c-1.7,0.3-3.4,0.7-5.1,1c-6.5,1.2-13.5,2.8-19.7,5
				C560.3,563,559.7,563.3,559.1,563.5"/>
			<path class="st6" d="M569.9,592.7c-6,2.5-14.7,8.8-18.2,14.5c-4.3,6.8-7.3,15.5-5.7,24c0.8,2.9,1.6,5.7,2.4,8.6
				c2.3,5.5,5.8,10.1,10.5,13.8c5.2,4.9,14.6,8,21.4,9.4c6.9,1.4,15.1-0.2,21.7-1.9c1.7-0.5,3.3-1,4.8-1.6c2.4-1,4.7-2.2,7.1-3.6
				c7.9-4.4,14-9,17.4-18c3.2-8.5,2.2-16.2-0.5-25c-2.4-7.9-10.5-15.6-17.8-18.5c-3.4-1.3-7-2.1-10.5-3c-5.7-1.6-9.9-2.4-16.2-1.9
				C580.9,589.8,574.9,590.6,569.9,592.7"/>
			<path class="st3" d="M-18.5,733.8c-0.9,0.2-2,0.3-2.9,0.6c-2,0.6,0.7,0.8-0.9,0.3c-2.1-0.7-4.2-1.7-6.5-1.4
				c-3.9,0.3-7.8,1.3-11.7,1.6c-7.3,0.5-13.9,0-21.8-1.7c1.7,0.7,3.3,1.4,5,2.2c-3.3-2.6-7.1-3.5-10.9-4.9c-3.3-1.2-6.5-2.6-9.6-4.2
				c-1.4-0.7-2.8-1.5-4.2-2.3c-1.6-0.8,2.3,1.5,0,0c-0.7-0.5-1.5-0.9-2.2-1.4c-2.9-2-5.9-3.8-8.8-5.8c-2.8-1.9-5.5-4-8.1-6.3
				c-0.7-0.6-1.4-1.3-2.1-1.9c-1.6-1.5-1.3-1,0.1,0.2c-1.4-1.2-2.7-2.8-3.9-4.2c-2.5-2.9-4.9-5.9-7.4-8.8c-2.8-3.1-5.5-5.9-9.5-7
				c-2.1-0.6-3.9-0.8-6.1-0.5c-1.6,0.2-6.2,1.5-2.1,0.5c2.6,1.1,5.1,2.2,7.7,3.4c-3.8-5-5.5-12-6.5-18.1c-0.5-3-0.9-6-1-9
				c-0.1-4.1,0.8-8.1,0.2-12.2c-1-8.3-11.9-9.2-14.9-2.3c-1.8,4.3-1.6,9.5-1.4,14.2c0.1,3.9,0.6,7.8,1.4,11.7c1.7,8.5,5.4,16,8,24.2
				c0.8-3.4,1.6-6.8,2.4-10.2c-17.9,16.8,11,42.2,25.2,51.4c8.2,5.3,16.4,8.5,25.8,10.8c7.8,2,18.5,4.4,26,1.3
				c-1.8,0.2-3.6,0.4-5.4,0.7c8.1,0.5,16.3,0.4,24.2-0.9c4.1-0.7,8.2-1.7,12.3-2.9c1.9-0.6,4.1-1.1,5.8-2.4c1.6-1.3,2.8-3.3,4-5
				c-0.7,0.6-1.4,1.1-2.1,1.7c1.8-1.1,3.6-2.2,5.4-3.3C-11.6,739.5-14.4,732.9-18.5,733.8L-18.5,733.8z"/>
			<path class="st3" d="M180.1,483.7c-1.7-3-3.2-4.8-6.3-6.2c-1.7-0.8-3.4-1.4-5.2-2c-4-1.4-8.1-2.5-12.1-3.5
				c-0.9-0.2-1.8-0.5-2.7-0.7c-0.4-0.1-0.7-0.2-1.1-0.3c-1.4-0.4-0.8-0.1,1.9,0.9c-0.1-0.7-3.3-2.6-4-3.2c-1.3-1.1-2.6-2.3-3.9-3.5
				c-2.5-2.2-5.1-3.1-8-4.2c-1.8-0.7-3.5-1.5-5.1-2.3c-0.7-0.3-1.3-0.7-2-1c-1.8-0.9-0.9-0.3,0,0.2c0.9,0.5,1.9,1.1,0.2,0
				c-3-2-5.9-4.1-8.6-6.5c-0.6-0.5-1.4-1.6-2.1-2c2.5,2.6,2.6,2.6,0.1,0.2c-0.7-0.8-1.4-1.5-2.2-2.2c-0.6-0.5-1.4-1.6-2.1-1.9
				c2,2.1,2.5,2.6,1.5,1.5c-0.3-0.3-0.5-0.6-0.8-0.9c-0.7-0.8-1.3-1.6-2-2.4c-1.2-1.3-0.8-0.5-0.2,0.3c0.5,0.7,1.1,1.4,0.6,0.4
				c-0.6-1.5-0.4-0.7,0.6,2.2c0,1,0.1,1.9,0.1,2.9c-0.2,0.9-0.4,1.8-0.7,2.7c0.3-0.6,0.5-1.1,0.7-1.7c2.5-7.3,0.5-16.8-6.1-21.5
				c-6.5-4.6-15.2-5.2-21.4-0.1c-6.7,5.6-9.8,15.2-8,24.2c1.4,7.2,5.1,13.5,9.8,19.1c7.4,8.9,17.2,15.6,27.4,20.2
				c5.3,2.4,11.6,5,17.3,5.1c4.7,0.1,11.3-1.7,15.7-3.9c2.8-1.4-4-0.2-0.7,0c1.1,0.1,2.2,0.1,3.4,0.2c2.2,0.1,4.5,0.2,6.7,0.4
				c4.9,0.5,10.5,2.6,15.1,0.7C179.7,493.2,182.4,487.7,180.1,483.7"/>
			<path class="st3" d="M289.1,287.2c-4.1-6.1-8-12.6-12.7-18.2c-1.1-1.3-2.1-2.6-3.3-3.8c-1.3-1.4-3.1-2.4-4.3-3.9
				c-2.4-2.7-4.1-6.7-6-9.8c-3.9-6.3-7.8-12.7-11.7-19c-3.7-6-6.5-13.2-10.3-19.7c-1.8-3-3.6-6-5.4-9c-1-1.6,0.2,0.4,0.3,0.6
				c-0.5-0.8-0.9-1.6-1.4-2.4c-1-1.8-2-3.6-3-5.4c-3.4-6.2-6.5-12.6-9.2-19.1c-2.8-6.5-4.9-13.2-7.1-19.9c-0.7-2.1,0.5,1.8,0.5,1.8
				c-0.1-0.8-0.5-1.8-0.7-2.6c-0.4-1.8-0.8-3.5-1.1-5.3c-0.5-2.9-0.9-5.8-1.1-8.8c0-0.3,0-2-0.1-2.1c0.2,0.2,0,5,0.1,2.1
				c0.1-1.5,0.1-3.1,0.3-4.6c0.2-1.5,0.4-3,0.7-4.5c0.3-1.6,1.2-2.5-0.5,2.1c0.2-0.6,0.4-1.3,0.6-1.9c0.5-1.4,1-2.7,1.6-4
				c0.9-2.2-2.6,3.9-1.1,2.1c0.5-0.6,0.8-1.3,1.3-1.9c0.2-0.2,1-1.5,1.1-1.5c0.1,0-3.9,3.7-1.7,1.8c1.2-1,2.4-2,3.8-2.8
				c-1.6,0.9-3.1,1.9-4.7,2.8c2-1.1,4.1-2,6.3-2.6c-1.8,0.5-3.5,0.9-5.3,1.4c3.6-0.9,6.4-1.5,9.5-3.4c1.5-0.9,3-1.9,4.5-2.8
				c-1.5,0.9-3,1.8-4.4,2.6c3.1-1.8,6.1-3.7,9.1-5.6c-2.6,1.1-5.2,2.2-7.8,3.3c2.6-0.2,5.3-0.3,7.9-0.6c2.2-0.3-0.5-0.2-0.5-0.1
				c0-0.1,1.9,0.2,2.1,0.2c1.4,0.2,2.8,0.3,4.2,0.5c3.4,0.4,7.2,1.2,10.5,0.9c5.7-0.7,11.2-5.4,11-11.8c-0.2-5.6-3.9-10.4-9-12.4
				c-2.6-1-5.4-1.8-8-2.7c-6.4-2.2-12.3-5-18.9-6.7c2.5,1.1,5,2.2,7.5,3.3c-9.4-7.4-21.3-9.8-31.9-4.8c-9.7,4.6-16.6,11.9-21.5,21.5
				c-7,13.7-6.7,31.5-2.9,46.5c2.5,9.7,5.6,19,10.4,27.8c4.8,8.6,10,16.9,16,24.7c5.3,7,10.8,13.8,16.7,20.2
				c3.2,3.5,6.9,6.6,10.4,9.9c3.1,2.9,5.7,5.9,8.7,9.2c3.5,3.9,7,7.8,10.5,11.7c2.9,3.2,6.8,6.6,8.9,10.3c1.4,2.5,2.5,5.1,4.1,7.6
				c1.5,2.2,2.9,4.3,4.6,6.4c3.3,4,6.6,8.1,10,12.1C283.6,305.5,295.1,296,289.1,287.2L289.1,287.2z"/>
			<path class="st3" d="M865.9,261.5c4.4-2.1,8.9-4.6,13.6-6c1.9-0.6,3.9-1.1,5.8-1.6c2.8-0.8,5.4-2.5,8-3.8c4-2.1,8-4.3,12-6.4
				c4.4-2.2,9-4,13.5-5.9c9.4-4.1,18.2-10.1,26.8-15.8c8.2-5.4,16-11.2,23.6-17.4c14.9-12.2,29.5-25.6,41.9-40.6
				c5.3-6.4,10-13.2,14-20.6c5.3-9.7,8.6-19.8,10.5-30.9c0.8-4.5,1.2-9,1.1-13.6c0-8.1-1.2-14.8-3.4-22.6
				c-3.8-13.1-15.4-30.3-30.5-27.7c2.6,0.8,5.2,1.5,7.8,2.3c-0.9-0.8-1-0.9-0.2-0.3c-0.3-0.4-0.6-0.9-0.9-1.3
				c-0.6-0.9-1.3-1.7-1.9-2.6c-1.4-1.8-3-3.6-4.6-5.3c-3.5-3.7-7.2-7.3-11.2-10.5c-4.1-3.2-8.4-6-12.8-8.6c-4.1-2.4-10.1-4.8-14.7-5
				c-3.6-0.2-7.7,0.6-9.7,4.1c-0.2,0.3-0.3,0.6-0.6,0.9c1-0.8,2-1.6,3-2.4c-0.7,0.4-1.4,0.8-2.2,1.2c-3.2,1.8-3.9,5-1.9,8.3
				c1,1.9,0.9,0.9-0.3-3.2c-0.1,1-0.1,2,0,3c0.6,2.9,1.9,5.4,4.2,7.4c2.3,1.9,5.4,3.2,8,4.6c0.3,0.2,0.6,0.4,0.9,0.5
				c-1.6-1-1-0.6,1.9,1.1c0.9,0.5,1.9,1,2.9,1.4c1.3,0.6,2.5,1.3,3.8,2c2.1,1.1-1.1-0.8,1.2,0.7c3.9,2.5,7.7,5.3,11.2,8.4
				c0.9,0.8,1.8,1.7,2.8,2.6c0.6,0.5,0.5,0.5-0.1-0.1c0.5,0.5,1,1,1.5,1.6c0.7,0.8,1.4,1.6,2.1,2.4c0.5,0.6,0.9,1.1,1.4,1.7
				c-0.5-1-0.5-0.9,0,0.3c0.4-3.6,0.7-7.3,1.1-10.9c-3.5,5.3-4.3,10.7-3.4,17.1c0.5,3.2,0.5,6.6,1.3,9.7c1.6,6.5,1.9,13.1,2.1,19.6
				c0-1.9-0.1-3.7-0.1-5.6c0,3.2-0.2,6.3-0.5,9.4c-0.2,1.7-0.5,3.5-0.8,5.2c-0.1,0.7-0.3,1.4-0.4,2.1c1.1-6.3,0.7-2.7,0.2-1.2
				c-1.7,6.3-4.1,12.5-6.5,18.5c-1.2,3-2.6,5.9-4,8.7c-0.4,0.8-0.9,1.6-1.2,2.4c0.1-0.2,2.3-4.2,0.8-1.5c-0.9,1.6-1.8,3.1-2.7,4.7
				c-3.7,6.1-7.7,12-12,17.7c-4.8,6.3-9.9,12.4-15.3,18.1c2.2-2.4-1.1,1.1-1.7,1.7c-1.3,1.4-2.6,2.7-4,4c-2.8,2.8-5.7,5.6-8.6,8.3
				c-11.7,10.9-23.8,21.2-35,32.6c-6.1,6.2-12.8,11.4-19.5,16.8c-3.5,2.7-6.1,5.9-9,9.2c-3.1,3.5-7.2,6.3-10.7,9.2
				C863.8,260.3,864.7,262.1,865.9,261.5L865.9,261.5z"/>
			<path class="st3" d="M944.4,32.6c0.3-0.1,0.1-0.6-0.2-0.5C943.9,32.3,944.1,32.8,944.4,32.6z"/>
			<path class="st3" d="M870.1,641.4c-0.8-0.7-1.7-1.3-2.5-1.9c-0.8-0.6-2,0.5-1.2,1.3c0.7,0.8,1.5,1.5,2.2,2.3
				c0.5,0.5,1.2,0.7,1.7,0.1C870.7,642.7,870.7,641.9,870.1,641.4L870.1,641.4z"/>
			<path class="st3" d="M862.2,639.3c1.4,0.4,3.8,0.5,4.9,1.4c0.9,0.7,1.1,1.8,1.8,2.6c0.8,1.1,1.4,1.3,2.2,2
				c-1-0.9-0.3-0.2,0.5,0.5c0.5,0.5,1,0.9,1,0.9c1.4,1.1,3,1.7,4.6,2c1.9,0.4,3.8,0.7,5.6,1.1c6.4,1.5,9.5,2.2,15.8,4.9
				c11.8,5.1,23.9,9.2,35.8,14.2c12.6,5.2,25,10.6,37.7,15.4c14.4,5.5,29.3,9.8,44.1,14c27.5,7.8,55.4,14.5,83.4,18.9
				c14.4,2.3,29.8,3.3,43.9,0.2c14.1-3.1,27.2-8.6,38.5-17.8c13.6-11,22.3-26.1,25.7-43.6c1.6-8,1.1-16.5-0.7-24.6
				c-1-4.7-2.2-9.6-4-14.1c-2.3-5.7-7.3-10.1-12.6-12.6c-4.3-2-8.1-2.1-12.6-1.7c3.4,2.1,6.8,4.1,10.2,6.2c-1.6-3.3-3.4-6.6-5.3-9.8
				c-1.9-3.2-4.2-5.6-6.8-8.2c-6.7-6.5-17.8,2.8-13.7,11c1.5,2.9,3.1,5.8,4.9,8.5c0.7,1.1,1.4,2.2,2.1,3.3c-0.6-1,1.2,2.2,1.3,2.6
				c0.9-3.9,1.8-7.7,2.7-11.6c-7.2,6.2-11.2,14.8-9.1,24.9c0.8,3.9,1.3,7.9,1.4,11.9c0-1.9-0.1-3.8-0.1-5.8
				c0.1,6.1-0.3,12.2-1.7,18.1c0.4-1.8,0.9-3.7,1.3-5.5c-1,3.8-2.3,7.3-4.1,10.7c0.9-1.6,1.7-3.2,2.6-4.9c-2.3,4.2-5.1,8.1-8.3,11.6
				c1.2-1.3,2.5-2.6,3.7-4c-3.8,4-8.1,7.3-12.8,10.2c1.6-0.9,3.1-1.9,4.7-2.8c-5.7,3.3-11.7,5.8-18,7.6c1.7-0.5,3.5-0.9,5.2-1.4
				c-8.9,2.3-18.2,3.5-27.5,3.5c-1.2,0-5.4-0.3,0,0c-0.8-0.1-1.7,0-2.5-0.1c-2.5-0.1-5-0.2-7.5-0.5c-4.8-0.4-9.5-1-14.2-1.9
				c-19.3-3.3-38.5-7.5-57.5-12.3c-4.4-1.1-8.8-2.3-13.2-3.5c-2.3-0.6-4.6-1.3-6.9-1.9c-1.2-0.3-2.5-0.7-3.8-1.1
				c0.6,0.2,1.2,0.4,1.8,0.5c-0.8-0.2-1.7-0.5-2.5-0.7c-4.6-1.4-9.2-2.8-13.7-4.2c-3.3-1-6.6-1.9-9.9-2.8c-1-0.3-2.1-0.6-3.1-0.9
				c4.2,1.3-1.3-0.4-2.1-0.6c-18.1-5.4-35.9-11.6-54.1-16.5c-4.9-1.3-9.7-2.4-14.7-2.8c-4.6-0.4-9.2-0.7-13.7-1
				c-5.3-0.4-11.1-1-16.3-0.4c-2.6,0.3-6.6,2.6-8.2,5c-1.3,1.8-0.8,1.9-2.6,2.8c-1.2,0.6-2.7,1-4,1.6
				C861.3,638.2,861.5,639.2,862.2,639.3"/>
			<path class="st3" d="M777.4,786.2c1.4,2.9,2.8,6.2,4.8,8.8c2.2,2.7,5.6,4.9,8.3,7c5.5,4.3,11.3,8.4,17.1,12.2
				c6,3.9,12.1,7.5,18.3,11c5.7,3.2,10.8,7.2,16.9,10.6c2.5,1.4,5.1,2.7,7.7,3.8c1.5,0.6,11.4,3.2,11.4,3.4c0,0-0.4-0.1-0.8-0.3
				c-0.8-0.3-1.5-0.5,0.2,0.2c1.5,0.6,3.7,1.3,4.9,1.5c2.2,0.4,4.6,0.2,6.8,0c4-0.4,8-1.5,11.7-2.8c6.2-2.2,12-6.1,16.7-10.8
				c3.9-3.9,6.6-7.5,8.8-12.7c1.7-3.8,2.7-8,3.4-12c1.5-8.6,0.2-17.5-2.4-25.9c-1.2-3.7-2.8-6.9-4.8-10.3
				c-3.6-6.2-8.7-8.7-15.2-10.2c-6.3-1.5-13.2,4.2-13.6,10.7c-0.3,4.3-0.7,8.1,1,12.4c0.4,1,0.8,2,1.2,3c0.5,1.2,0.2,2.5-0.2-1.2
				c0.1,0.7,0.3,1.4,0.5,2.1c0.2,1.2,0.4,2.5,0.6,3.7c0,0.4,0,1.2,0.1,1.6c0,0,0-0.6,0-1.2c0-0.9,0-1.7-0.1-0.6
				c-0.1,1.2-0.1,2.5-0.2,3.7c-0.1,0.5-0.1,1.1-0.2,1.6c-0.5,2.8-0.4,0.4,0.3-0.8c-0.5,0.8-0.6,2.1-1,3c-0.2,0.6-2.1,4.5-0.7,1.8
				c1.3-2.6-0.6,0.8-1.1,1.5c-0.8,1.2-1.5,2.4-2.2,3.5c-0.6,0.9-1.2,1.7-1.9,2.5c-0.9,1.2-0.2,0.5,0.4-0.1c0.5-0.6,0.9-1.1-0.5,0.2
				c-0.9,0.8-1.8,1.6-2.8,2.3c-0.4,0.3-0.9,0.6-1.2,0.9c-1,0.8,0.4,0,1.2-0.5c0.5-0.3,0.8-0.6,0-0.2c-1.1,0.5-2.1,1.1-3.2,1.5
				c-0.6,0.2-4.4,1.8-1.8,0.7c1.8-0.7,0.9-0.5-0.3-0.1c-1.2,0.4-2.7,0.9-2.7,0.9c-0.5,0.2-1,0.3-1.5,0.5c-0.2,0.1-0.5,0.2-0.7,0.3
				c-0.7,0.2-1.2,0.3,0.2,0.3c2.1-0.1-0.3-0.1-0.8,0c-1.3,0.1-2.5,0.2-3.8,0.2c2.6-0.1-0.6-0.1-1.6-0.2c-2.6-0.2-5.2-0.7-7.8-1.2
				c-5.4-1.1-9.3-2.3-14.2-4.6c-5.4-2.5-10.7-5.1-15.9-7.8c-5.6-3-11-6.1-16.3-9.5c-2.7-1.7-5.3-3.6-7.9-5.4
				c-3.1-2.1-6.8-2.7-10.2-3.8C779.3,780.4,775.8,783,777.4,786.2"/>
			<path class="st3" d="M666.7,1086c0.5,2,1.3,4.2,1.4,6.2c0.1,2-0.5,4.1-0.6,6.1c-0.2,5.7,2.4,11.2,4.3,16.5
				c2.9,8.1,5.7,16.2,8.6,24.3c5.1,14.1,12.2,28.3,21.5,40c10.3,12.9,23.7,22.6,39.5,26c16.5,3.6,34.2-3,47.2-12.6
				c6.9-5.1,13-11.8,17.7-19.2c2.6-4.1,4.9-8.4,6.8-12.9c2.7-6.3,4.3-11.9,1.6-18.9c0.3,1.9,0.6,3.8,0.8,5.6c1.1-9,2.2-18,4.4-26.8
				c2.5-10.3,5.1-20.4,6.5-30.9c0.6-4.7,1.3-9.4,1.9-14.2c0.6-4.9,1.4-9.9,0.1-14.8c-2-7.5,1.1-21.3-8.1-24.6
				c-1.1-0.4-2.5-0.4-3.4,0.4c-1.4,1.4-2.5,2.7-3,4.8c-0.5,2.2,0.1,4.6,0.1,6.9c0.1,3.8,0,7.7-1.4,11.3c-1.8,4.6-2.3,9.5-3.3,14.3
				c-0.9,4.5-2,8.9-3,13.4c-2.1,9.5-3.2,19.1-4.3,28.8c-0.5,4.6-1.3,9-2.3,13.5c-1,4.3-2.4,7.9-4.2,11.9c1-1.5,2.1-2.9,3.1-4.4
				c-4.4,2.9-5.8,7.2-7.8,11.9c-0.6,1.4-1.2,2.8-1.9,4.2c-0.2,0.4-1.1,2.1-0.1,0.2c-0.5,1-1.1,2-1.7,2.9c-1.6,2.6-3.3,5.1-5.2,7.4
				c-0.6,0.7-1.2,1.4-1.8,2.1c-0.7,0.8-0.2,0.4,0.1,0.1c0.3-0.3,0.5-0.6-0.2,0c-1.4,1.2-2.7,2.6-4.1,3.8c-1.2,0.9-2.3,1.8-3.5,2.7
				c-0.8,0.5-1.5,1.1-2.3,1.5c0.5-0.3,2.2-1.1,0-0.1c-1.3,0.6-2.6,1.2-4,1.8c-0.7,0.3-1.4,0.5-2,0.8c-0.4,0.1-3.9,1.1-0.8,0.4
				c-3,0.7-6,1.2-9.1,1.4c-0.7,0-1.5,0-2.2,0.1c-0.9,0.1-0.5,0.1,0.1,0.2c0.7,0,1.6,0-0.4-0.2c-1.6-0.2-3.2-0.3-4.9-0.6
				c-1.6-0.2-3.2-0.4-4.9-0.8c-0.7-0.2-1.4-0.3-2.1-0.5c2.6,0.6,0.8,0.2,0.2,0c-1.3-0.5-2.6-1-3.9-1.6c-0.8-0.4-1.5-0.7-2.3-1.1
				c-1.3-0.7-1.7-0.9-0.2,0c-2.6-1.7-5-3.5-7.4-5.6c-0.5-0.4-1.8-1.8,0.2,0.2c-0.5-0.5-1-1-1.4-1.5c-1.2-1.3-2.3-2.6-3.4-4
				c-1.8-2.2-3.4-4.6-5-7c-0.5-0.8-1-1.5-1.4-2.3c-0.2-0.4-1.4-2.4-0.5-0.8s-0.2-0.4-0.5-0.8c-0.5-1-1.1-1.9-1.6-2.9
				c-3-5.7-5.6-11.6-8.3-17.4c-3.8-8-7.5-16-11.2-24c-2-4.4-3.8-9.7-6.8-13.5c-1.6-2-3.7-3.6-5.6-5.2c-1.8-1.6-2.7-3.2-3.9-5.4
				c-1.4-2.4-3.5-4-6.2-3.2C668.2,1080.8,666,1083.3,666.7,1086"/>
			<path class="st3" d="M451.1,1008.3c-1.6,9.6-3.2,19.3-3,29.2c0.1,2.5,0.3,5.1,0.5,7.6c0.2,2.4-0.4,4.7-0.6,7
				c-0.4,4.4,1.8,7.8,4.2,11.4c0-1.5-0.1-3-0.1-4.4c-10.5,12.2,8.3,26.2,18.7,29.5c12.6,4,25.3,0.4,35.5-7.2
				c9.4-7,15.8-17.8,19-29.3c1-3.7,2.1-7.3,1.6-11.2c-0.4-2.9-1.2-5.8-1.5-8.7c-0.6-5.7,0.3-12.2-2.8-17.2c-1.8-2.9-6.2-2.5-7.9,0
				c-2.8,4-2.1,9.4-3.6,14c-1.3,4.2-4.5,7.6-5.7,12c-0.6,2.3-1.4,4.7-2.3,6.9c-0.5,1.2-1,2.4-1.5,3.6c-0.5,1-0.3,0.8-0.2,0.7
				c0.1-0.2,0.1-0.3-0.5,0.7c-1.1,1.8-2.3,3.4-3.5,5.1c-0.8,1.1-0.5,0.8-0.3,0.5c0.2-0.2,0.3-0.4-0.5,0.3c-0.9,0.8-1.7,1.6-2.7,2.4
				c-0.8,0.6-1.6,1.2-2.4,1.8c-0.4,0.3-0.8,0.6-1.3,0.8c1.2-0.7,1.2-0.7,0-0.1c-1.8,0.8-3.6,1.5-5.5,2.3c2.3-0.9-0.2,0-0.8,0.1
				c-1,0.2-1.9,0.2-2.9,0.3c-1.3,0-1.3,0.1,0.1,0.1c-1,0-2,0-3-0.1c2.7,0.2-0.9-0.2-1.4-0.3c-0.4-0.1-3.1-0.8-2-0.4
				c1.1,0.4-2-0.9-2.3-1.1c-1-0.4-0.8-0.2-0.6-0.1c0.3,0.2,0.6,0.3-0.4-0.5c-0.8-0.6-1.6-1.2-2.4-1.8c-0.1-0.1-2.6-2.2-1-0.8
				c-2.2-2.1-4-3.6-7-4.2c-2.5-0.5-4.9-0.2-7.4,0.5c1.5,0.7,3.1,1.3,4.7,2c-0.8-1.8-1.4-3.6-2.1-5.4c-0.7-1.9-1.8-3.2-3-4.7
				c-3-3.9-3.5-8.4-3.6-13.1c-0.3-9.5,1.1-18.9,2.6-28.2C452.1,1007.8,451.2,1007.7,451.1,1008.3"/>
			<path class="st3" d="M199.5,938.2c-3.2,1-6.2,2.4-9.1,4.3c-1.3,0.8-2.4,1.9-3.8,2.5c-1,0.4-2,0.2-3.1,0.7c-1.1,0.5-2.1,1.3-3,2.1
				c-2.9,2.5-5.6,5.2-7.9,8.3c-3.4,4.3-4.6,9.6-5.3,15.1c-2.5,20,5.8,38.7,20.3,52.3c13.5,12.6,34.6,20.6,52.2,17
				c10-2,19.3-5.7,28.3-10.4c4.5-2.4,8.9-5,13.2-7.8c1-0.6,1.9-1.3,2.9-1.9c0.3-0.2,3.2-2.6,0.9-0.9c2.4-1.8,5.3-3.2,7.8-4.8
				c8.5-5.5,16.3-12,23.5-19.2c2.1-2.1,4.2-4.3,6.2-6.6c1.3-1.4,2.2-2.5,3-4.5c0.2-0.5,1.1-6.1,1-6c-0.4,0.1-1.2,2.1,0,0.2
				c0.8-1.3,1.6-2.7,2.4-4.1c2.5-4.6,2.6-7.6,0-12.3c-0.1,0.6-0.1,1.2-0.2,1.7c1-1.8,2-3.7,2.9-5.6c0.6-1.2-1.2-2.2-2-1.2
				c-1.2,1.6-2.4,3.1-3.6,4.6c0.5-0.2,1-0.4,1.6-0.7c-3.4-0.8-6.3-0.9-9.1,1.2c-1.2,0.9-3.3,2.7-4.1,4c-0.3,0.3-0.6,0.5-0.9,0.8
				c1.9-0.4,2.3-0.6,1.3-0.4c0-0.4-6.3,1.7-4.3,0.9c-2.8,1.1-4.5,2.8-6.6,4.9c-5.6,5.7-11.7,10.9-18.2,15.5
				c-1.6,1.1-3.2,2.2-4.8,3.3c-0.6,0.4-1.3,0.8-2,1.3c0.1-0.1-3.1,2-1.5,1c1.6-1-1.7,1-1.6,0.9c-0.7,0.4-1.3,0.8-2,1.1
				c-2.1,1-4.3,1.8-6.5,2.6c-3.6,1.3-7.4,2.5-11.1,3.6c-0.4,0.1-1.9,0.8-2.3,0.6c0.5-0.1,1.1-0.3,1.6-0.4c-0.6,0.1-1.1,0.3-1.7,0.4
				c-2,0.5-4.1,0.9-6.2,1.3c-4.3,0.8-8.6,1.6-12.9,1.9c-0.9,0.1-1.8,0.1-2.7,0.1c-0.3,0-0.7,0-1,0c4,0.1,3.3,0.1-2,0
				c-0.6,0-1.3,0-2,0.1c-3.3,0.2,4.2,0.3,0,0c-3.1-0.2-6.2-0.7-9.3-1.4c-3.5-0.8,3.6,1.3,0.2,0.1c-0.6-0.2-1.3-0.4-1.9-0.7
				c-1.9-0.7-3.7-1.5-5.5-2.4c-0.6-0.3-1.2-0.6-1.8-0.9c-3-1.6,2.4,1.6,0.5,0.3c-1.4-1-2.8-1.9-4.1-2.9c-0.3-0.3-3.2-3.1-3.4-3
				c0.5,0.5,1,1,1.5,1.5c-0.5-0.5-0.9-1-1.4-1.5c-0.7-0.8-1.3-1.5-2-2.3c-1-1.3-2-2.8-2.9-4.2c-1.7-2.4,0.6,0.9,0.5,0.9
				c-0.1,0-1.3-2.5-1.4-2.7c-0.6-1.4-1.2-2.8-1.7-4.2c-0.5-1.4-0.1-2.6,0,0.4c0-0.9-0.5-2.1-0.7-3c-0.4-2-0.6-4-0.7-6
				c-0.2-2.5-0.1,0.2,0,0.5c-0.2-1,0.1-2.5,0.1-3.5c0.2-2.6,0.2-5.1-0.1-7.7c-0.1-0.9-0.2-1.8-0.3-2.7c-0.2-2.1-0.1,1.4,0-1.1
				c0.1-1.7,0.3-3.4,0.5-5.1c0.2-2.3-0.8-3.7-0.1-4.8c2.1-3.4,4.5-6.4,7.5-9C201.7,939.4,200.7,937.8,199.5,938.2L199.5,938.2z"/>
			<path class="st4" d="M925.8,63.8c-0.1,0.1-0.2,0.1-0.4,0.1c-7.4,3.2-10.8,6.8-16.2,12.7c-1.6,1.8-3.2,3.6-4.7,5.4
				c-5.9,7.3-8.9,16.5-8.5,25.9c-5.6,9-11.1,18.1-17.1,26.9c-3.9,5.7-7,11.6-9.7,18c-1,2.4-2.1,4.7-3.2,7c-0.5,0.5-1,1-1.6,1.4
				c-1.1,1-2.3,2-3.5,2.9c-7,5.8-0.2,18.9,8.3,15.3c0.2-0.1,0.3-0.1,0.5-0.2c1.3-0.7,2.7-1.3,4-2c0.6-0.3,1.4-0.6,1.9-1.1
				c0.2-0.1,1.3-1,0.6-0.7c0,0-0.1,0-0.1,0c0.2-0.1,0.3-0.1,0.5-0.2c2.9-1.2,6.5-1.5,9.5-2.4c2.3-0.7,4.4-1.4,6.5-2.3
				c4.5-1.9,8.6-4.3,12.6-7.5c8.2-6.4,16-13.3,24.2-19.6c5.3,0.4,10.5-0.2,15.4-2.3c1.1-0.5,2.2-1,3.3-1.6c2.1-1.2,4.2-2.2,6.3-3.4
				c7.1-3.7,10.8-7.1,15.9-12.9c1-1.1,1.9-2.2,2.8-3.3c1.5-2.8,2.9-5.5,4.4-8.2c1.9-4.5,2.6-9.2,2.1-14.1
				c-0.1-8.1-2.5-16.9-7.9-23.3c-4.2-5-9.2-8.9-14.9-11.8c-8.8-4.3-18.9-3.3-27.6-0.3C928.3,62.8,927,63.3,925.8,63.8"/>
			<path class="st4" d="M1032,599.4c-1.8,0.8-3.7,1.7-5.5,2.7c-4,2.3-8.2,4.3-11.4,7.7c-1.9,2-3.1,4.1-4.1,6.4
				c-1.8,0.8-3.7,1.3-5.8,1.8c-0.2,0-0.3,0.1-0.4,0.1c-1.9,0.8-3.1,3.8-0.8,5.3c2,1.3,3.9,2.4,5.7,3.9c0.9,6.6,4.7,11.2,9.2,15.7
				c2.4,2.4,4.9,5.3,7.6,7.3c2.6,2,5.6,3.5,8.3,5.1c3,1.8,5.9,3.6,8.9,5.4c3,1.9,6,3.7,9.1,5.4c3.6,1.3,7.2,2.3,10.8,3
				c1.7,0.4,3.4,0.7,5.1,1.1c3.4,0.7,6.8,1.4,10.3,2.1c7,1.4,13.7,1.8,20.7,2c1.7,0,3.5,0.1,5.2,0.2c3.9,0.1,7.8,0.2,11.8,0.2
				c3.9-0.6,7.8-1.6,11.6-2.9c3.1-0.8,6.1-1.7,9.1-2.5c0.8-0.2,1.5-0.5,2.2-0.8c2.2-0.9,4.2-2.2,6.3-3.4c4.3-2.5,9.8-4.8,13.4-8.1
				c2-1.8,3.8-3.8,5.2-6c0,0,0,0,0-0.1c0.7-3.8,0.9-7.6,1-11.4c-0.2-3.3-0.6-6.5-1.3-9.8c-0.8-3.7-0.7-7.2,0-10.4
				c-1.7-2.6-3.8-5-6.3-7.3c-3.2-3-7.7-5.1-11.3-7.4c-5.1-3.2-8.7-5.2-13.8-7.1c-3.8-1.4-7.4-2.8-11.3-3.9
				c-14.6-4.2-30.4-4-45.2-3.8c-5.1,0.1-10.2-0.1-15.3,0.1c-4.7,0.2-10.5,2.9-15.3,4.5c-2.2,0.7-4.3,1.5-6.5,2.2
				C1036.6,597.7,1034.3,598.5,1032,599.4"/>
			<path class="st4" d="M717.1,956c-1.5,0.6-2.6,2.3-1.8,4.3c1.7,4.8,3.4,9.7,5,14.6c1.5,4.4,3.6,9.1,3.5,13.7
				c-0.3,10,0.2,19.6,2.2,29.5c0.9,4.8,1.8,9.5,2.7,14.3c0.4,2.3,0.8,4.6,1.2,6.8c0,0.1,0.4,2.5,0.5,2.7c0,0.7-0.2,1.5-0.2,2.2
				c-0.5,7.8-1,15.6-2.2,23.3c-0.5,1.1-0.9,2.3-1.4,3.4c-0.4,1.1-0.9,2.1-1.3,3.2c-1.9,5.3-2,10.6-1.8,16.3c0.2,4.8,1,9.7,1.5,14.5
				c0.8,8.2,2.6,17,6.8,24.1c5.2,9,13.8,15.7,24,17.1c5.4,0.7,10.8-0.1,15.6-2.1c5-2.1,9.4-5.5,12.7-10c10.2-14,6-31.1,2.1-46.8
				c-1.7-7-3.2-14.2-7.8-20c-1.4-1.8-3.1-3.3-4.6-5c-2.4-2.6-4.4-5.6-6.3-8.7c-2.3-4-4.6-8-6.9-11.9c-1.1-1.8-2.2-3.7-3.3-5.5
				c-0.4-0.7-1.1-1.4-1.3-2.2c0.5,0.7,0.8,1.1,0.8,1.1c0,0,0-0.2-0.2-0.7c-0.2-0.7-0.5-1.3-0.7-2c-3-8.5-6.2-16.9-9.5-25.3
				c-1.6-4.1-3.9-7.5-6.3-11.7c-2.4-4.2-5.9-7.3-8.4-11.3c-2.4-3.8-3.5-9.1-5.1-13.2c-1.7-4.3-3.4-8.7-5.1-13
				C720.4,955.7,718.5,955.3,717.1,956"/>
			<path class="st4" d="M801.5,744.6c-0.8,0.4-1.6,0.8-2.2,1.4c-0.1,0-0.3,0.1-0.4,0.2c-5,2.1-8.2,7.2-5.7,13.2
				c0.1,0.3,0.2,0.5,0.3,0.8c0,0.1,0,0.2,0.1,0.4c0,0.3,0.1,0.5,0.1,0.8c1.1,5.7,4.1,9.7,8.4,13.4c3.4,3,7,6.3,10.8,8.7
				c4.8,3.1,9.9,5.7,14.9,8.5c2.7,1.5,5.1,3,8.1,3.8c3.8,1.1,8.5,1.2,12.4,0.5c1.6-0.3,3.1-0.7,4.5-1.3c3.5-1.5,6.3-3.9,8.3-7.7
				c2.5-4.6,3.3-11,0.7-16c-1.5-2.9-3.2-6.1-5.3-8.6c-3.3-4-7.7-6.3-12.2-8.5c-4.2-2-8.3-4.2-12.6-6c-5-2.1-10.5-3.1-15.8-4.5
				c-3.7-1-7.1-1.2-10.7-0.3C804.2,743.8,802.8,744.1,801.5,744.6"/>
			<path class="st4" d="M467.9,991.1c0.5-0.9,0.8-1.6,1-2C468.6,989.9,468.2,990.9,467.9,991.1 M482.9,967.6
				c-3.6,1.5-6.5,4.4-8.2,8.4c-1.8,4.1-3.6,8.2-5.5,12.2c0,0.1-0.1,0.2-0.2,0.4l0,0c0,0-0.2,0.2-0.5,0.6c-0.2,0.3-0.5,0.6-0.7,0.9
				c-1.3,1.7-2.7,3.4-4,5.2c-3.8,4.8-6.2,10-8.7,15.6c-1.4,3.2-2.5,6-3.3,9.5c-1.3,5.4-0.8,10.4,0.4,15.7
				c2.1,9.4,6.9,17.2,15.9,21.1c2,0.9,4.1,1.5,6.3,1.8c0,0,0,0-0.1,0c0.1,0,0.2,0,0.2,0c4.4,0.6,9,0.2,13-1.5c2-0.8,3.9-2,5.5-3.5
				c0,0,0,0,0,0c0.5-0.5,1-0.9,1.6-1.4c2.2-2.1,4.8-4.3,6.5-6.7c3-4.2,4.7-9.5,5.5-14.7c1-6.8,1.9-14.2,0.7-21
				c-0.9-4.8-2.3-9.8-2.5-14.6c-0.2-5-0.4-10-0.7-15.1c-0.4-6.7-7.1-13.2-13.4-13.9C487.9,966.2,485.2,966.6,482.9,967.6"/>
			<path class="st4" d="M228.2,925.8c-4.9,2.1-9.5,4.8-12.6,7.8c-4.9,4.8-8.4,9.6-10,16.5c-1.5,6.4-1.5,13.9,1.5,20.2
				c6,12.7,18.6,21.1,32.2,19.6c4-0.4,8.4-1.7,12.7-3.5c5.9-2.5,11.6-6,15.3-10c1.1-1.1,2.1-2.2,3.2-3.3c1.6-1.8,3.3-3.5,5-5.3
				c1.6-2,2.9-4.2,3.9-6.7c0.7-0.5,1.4-1.1,2.1-1.6c6.8-5.2,9.6-16.6,5.8-24.8c-1.6-3.4-3.9-6.4-6.8-8.9c-3.5-3-10.6-5.4-15-4.3
				c-1.2,0.3-2.5,0.6-3.7,0.9c-1.4-0.3-2.8-0.6-4.1-0.8c-4.7-0.7-9.4-0.2-14,0.1C239.1,922.1,233.5,923.6,228.2,925.8"/>
			<path class="st4" d="M-76.3,632.7c-1.5,0.6-2.9,1.3-4.4,2.2c-2.6,1.5-4.5,2.8-6.7,4.6c-10.3,8.4-14.3,22.7-10.6,35.9
				c1.7,6.2,4.6,11.2,9.1,15.8c5.6,5.6,11.4,8.2,18.9,10.1c11.9,2.9,25.5-1.3,36.6-5.5c3.4-1.3,6.7-2.5,10.1-3.7
				c0.4-0.2,0.9-0.3,1.3-0.5c2.9-1.2,5.5-2.9,8.4-4.1c0.1,0,0.2-0.1,0.4-0.2c6.2-2.6,12.9-4.3,19.2-6.8c6-2.4,12.1-4.6,18.2-6.6
				c4.6-1,9.1-2,13.7-2.9c3.4-0.7,6.8-1.2,9.9-2.5c1.2-0.5,2.5-1.2,3.6-2c1.5-1.1,2.7-2.5,3.7-4.1c8.1-1.8,16.1-3.5,24.2-5.6
				c0.1,0,0.3-0.1,0.4-0.2c2.1-0.9,3.3-3.9,3-6.2c-0.4-2.8-2.6-4.7-5.1-5.3c-8.1-2.1-16.1-3.4-24.3-4.5c-0.9-0.9-1.8-1.8-2.8-2.6
				c-4.1-3.2-8.6-3.6-13.3-4c-4.9-0.3-9.8-0.6-14.7-0.8c-9.9-0.5-19.8-2.7-29.6-3.5c-4.8-0.4-9.7-0.2-14.5-0.5
				c-2.3-0.2-4.6-0.6-6.8-0.9c-4.9-0.6-9.8-0.5-14.7-0.4c-5.2,0-10.5-0.2-15.6,0.5c-2.6,0.4-5.1,0.8-7.7,1.3
				C-70.1,630.6-73.2,631.4-76.3,632.7"/>
			<path class="st4" d="M148.1,422.5c-10.8,4.5-18,14.7-17.8,27.7c0,2.4,0.3,4.9,0.9,7.4c0.1,0,0.1,0.1,0.2,0.1c0,0,0.1,0,0.1,0.1
				c0.7,0.3,1.3,0.7,2,1c1.7,0.8,3.4,1.6,5.1,2.3c2.9,1.1,5.5,2.1,8,4.2c1.3,1.2,2.5,2.3,3.9,3.5c0.5,0.4,2.7,1.8,3.5,2.6
				c0.8,0.2,1.6,0.4,2.4,0.6c4.1,1,8.2,2.1,12.1,3.5c1.7,0.6,3.5,1.2,5.2,2c0.9,0.4,1.6,0.8,2.3,1.3c0.4-0.1,0.7-0.3,1.1-0.4
				c0.6-0.2,1.2-0.5,1.8-0.8c6.8-3.1,11.5-7.9,14.4-14.2c4.2-3.4,6.8-9.2,5.8-14.8c-0.9-4.8-3.2-8.3-6.5-10.8
				c-3.3-5.9-9.1-10.7-14.8-13.3c-7.2-3.4-14.8-5.5-22.6-4.1C152.6,420.8,150.3,421.5,148.1,422.5"/>
			<path class="st4" d="M255.8,148.2c-1.1,0.5-2.2,1-3.3,1.7c-4.5,2.7-9.4,7.2-10.8,12.6c-1.5,5.8-2.5,10-1.5,16.1
				c0.6,3.3,1.5,7.6,2.7,10.2c2.1,4.8,5.3,9.2,8.3,13.4c3.7,5.1,7.5,10.2,11.3,15.2c7.4,9.7,15,19.2,22.5,28.7
				c3.8,4.8,7.9,9.4,11.9,14.1c5.1,5.9,10.1,12.9,16.3,17.5c9.8,7.3,20.2,13.6,30,21.1c4.5,3.5,9.8,3.8,14.1,1.9
				c6.9-2.9,11.5-11,7.8-19.5c-4.7-10.9-8.7-22.1-12.7-33.3c-2.7-7.5-8.1-14.2-12.6-20.7c-3.6-5.3-7.2-10.6-11-15.7
				c-7.3-9.7-14.6-19.5-21.7-29.4c-10.1-14-19.6-33.6-38.2-35.7C264.2,145.9,259.9,146.5,255.8,148.2"/>
			<path class="st4" d="M492,121.9c-3.2,1.3-5.9,3.5-7.9,6.7c-3.5,5.6-4.8,11.4-5.2,18c-0.4,7.1,2.1,14.2,4.6,20.9
				c2.6,7,6.9,13.6,10.6,20c2.5,4.4,5.2,8.4,10.1,10.3c3.9,1.5,7.7,1.8,11.6,0.8c0.8-0.2,1.7-0.5,2.4-0.8
				c7.5-3.1,11.1-10.8,10.5-19.4c-0.4-6.1-0.6-12.2-0.7-18.3c0,1.7,0.1,3.4,0.1,5.1c-0.1-5.8-0.5-11.3-1.4-17
				c-1.3-8.1-7-18.6-13.4-23.4C507.4,120.3,498.8,119.1,492,121.9"/>
			<path class="st4" d="M457.9-35.4c-0.2,0.1-0.5,0.2-0.7,0.3c-2,1.2-3.9,2.3-5.9,3.5c-1.5,1.6-3,3.2-4.6,4.9
				c-2.6,3.7-4.2,7.8-4.7,12.4c0,0.2-0.1,0.4-0.1,0.6c-0.5,4.6,0.2,9,2,13.3c1.8,4.3,4.5,7.9,8.2,10.7c0.2,0.1,0.3,0.2,0.5,0.3
				c2.7,2.3,5.7,3.7,9,4.4c2.1,0.9,4.3,1.3,6.5,1c3.2,0.3,6.3-0.1,9.2-1.4c0.2-0.1,0.5-0.2,0.7-0.3c2-1.2,3.9-2.3,5.9-3.5
				c1.5-1.6,3-3.2,4.6-4.9c2.1-2.7,3.4-5.8,3.9-9.1c0.8-2.2,1-4.4,0.7-6.7c0.2-3.6-0.4-7-2-10.4c-1.2-2.1-2.4-4.1-3.6-6.2
				c-1.6-1.6-3.2-3.3-4.9-4.9c-2.7-2.3-5.7-3.7-9-4.4c-2.1-0.9-4.3-1.2-6.5-1C464-37.1,460.9-36.6,457.9-35.4"/>
			<path class="st0" d="M466.4-21.5c5.1-2.2,8-9,5.5-14.4c-2.6-5.5-8.6-8.5-14.1-6.2c-5.1,2.2-8,9-5.5,14.4
				C454.9-22.2,461-19.2,466.4-21.5z"/>
			<path class="st0" d="M1101.9-24.1c11.5-4.9,18.1-20.2,12.3-32.5c-5.8-12.4-19.5-19.1-31.8-13.9c-11.5,4.9-18.1,20.2-12.3,32.5
				C1075.9-25.6,1089.5-18.8,1101.9-24.1z"/>
			<path class="st0" d="M1013.4,842.6c-0.4-0.1-0.8-0.2-1.2-0.4c-1-0.3-2-0.6-2.9-0.8c-1,0-2,0-3.1-0.1c-1.6,0.1-3.1,0.7-4.4,1.6
				c-1,0.4-1.8,1-2.4,1.9c-0.8,0.7-1.4,1.5-1.8,2.5c-0.6,0.8-1,1.8-1.1,2.8c-0.4,1-0.5,2-0.3,3.1c-0.1,1.6,0.2,3.2,0.9,4.8
				c0.6,1,1.1,1.9,1.7,2.9c0.7,0.8,1.5,1.5,2.2,2.2c0.9,0.5,1.8,1.1,2.7,1.6c1,0.3,2,0.6,2.9,0.9c1,0,2,0,3.1,0.1
				c1.6-0.1,3.1-0.7,4.4-1.6c1-0.4,1.8-1,2.4-1.9c1.2-1,2-2.3,2.5-3.8c0.2-0.4,0.4-0.8,0.6-1.1c0.6-1.3,0.8-2.7,0.6-4.2
				c0.1-1.5-0.2-2.9-0.8-4.3c-0.5-0.9-1-1.7-1.5-2.6C1016.7,844.5,1015.2,843.3,1013.4,842.6L1013.4,842.6z"/>
			<path class="st0" d="M46.1,1048.7c-0.1,0.9-0.2,1.7-0.3,2.6c0,1.8,0.1,3.6,0.1,5.4c0.3,2.9,1.3,5.6,2.9,7.9
				c0.8,1.8,1.9,3.2,3.3,4.4c1.8,2.1,3.9,3.7,6.5,4.7c1.7,0.5,3.4,1,5,1.5c1.8,0,3.5,0.1,5.3,0.1c2.8-0.2,5.3-1.2,7.6-2.8
				c2.4-1.2,4.4-2.9,5.9-5.2c0.5-0.7,1-1.4,1.5-2.1c2.1-3,3.4-6.4,3.8-10.1c0.4-3.9-0.1-7.6-1.7-11.3c-1-1.7-2-3.4-2.9-5.1
				c-2.4-3-5.2-5.3-8.7-6.8c-2.6-1.2-5.2-1.8-7.9-1.6c-2.8-0.3-5.5,0.2-8.1,1.4C51.7,1034.5,47,1041.1,46.1,1048.7L46.1,1048.7z"/>
			<path class="st0" d="M-31.8,659.1c-2.1-0.2-4.2-0.4-6.4-0.5c1.8,1.8,3.6,3.7,5.4,5.6c-1-7.4-6.7-10.4-12.5-13.4
				c-5.5-2.8-11.3-2.5-17.1-2.4c-4,0.1-8.1,0.3-11.9,1.2c-4.7,1.2-8.6,2.1-12.5,5.1c-5,3.8-7.6,10-7.5,16.4
				c0.2,13.8,13.8,22.4,26,19.2c4.6-1.2,8.7-3.1,13.1-4.8c4.5-1.8,9.1-2.9,13.1-5.9c4.5-3.4,9.3-7.6,9.5-13.8
				c-1.7,1.8-3.4,3.6-5.2,5.4c2.1-0.2,4.2-0.3,6.3-0.3C-25.2,670.6-25.4,659.8-31.8,659.1L-31.8,659.1z"/>
			<path class="st0" d="M258.8,946.7c-0.9-0.4-1.7-0.8-2.6-1.1c-3.8-1.5,1.2,1,1.3,2c-0.2-1.6-5.3-4.3-6.1-4.6
				c-1.6-0.6-3.4-1.1-5-1.5c-3.8-1-7.9-1.4-11.5,0.3c-5.1,2.4-9.4,7.4-10,13.4c-1,10.4,7.1,18.3,16.8,18.5
				c7.2,0.1,12.8-5.1,17.2-10.3c-1.6,1.3-3.2,2.6-4.8,3.8c1.3-0.4,1.4-0.4,0.3-0.2c0.7-0.2,1.5-0.3,2.2-0.4
				C266.3,964.7,268.3,951.2,258.8,946.7L258.8,946.7z"/>
			<path class="st0" d="M466.6,1020.7c0,0.9-0.1,1.8-0.3,2.7c-0.5,3.1,0.6-2,0,0.3c1.2-1.7,2.4-3.4,3.7-5.1c1.7-0.7,3.5-1.4,5.2-2.1
				c-1.2,0.3-2.4,0.6-3.6,1c-1.2,0.5-2.7,1.5-3.8,2.2c-2.2,1.6-4,3.5-5.3,6c-2.1,4-2.8,9.2-1.7,13.8c0.9,3.6,2.3,7.2,5.5,9.5
				c2.9,2.1,6.3,3.3,9.9,2.8c7.2-0.9,13.6-6.2,15.4-13.5c1.7-7.1-1.1-14.4-6.4-19.3c1.4,1.8,2.8,3.7,4.2,5.5
				c-0.1-0.2-0.2-0.4-0.3-0.6c0.3,2.2,0.7,4.4,1,6.6c0-3.2,0-6.3-0.7-9.4c-1.3-5.8-5.5-10.3-11.5-10.4
				C472.4,1010.6,466.9,1014.8,466.6,1020.7L466.6,1020.7z"/>
			<path class="st0" d="M1060.6,640.3c7.2,2.1,14.6,4.9,22,5.7c4.6,0.5,9.6,1.6,14.1,1c8-0.9,15.2-6.3,15.1-15.3
				c-0.2-8.7-7.2-14.3-14.9-15.7c-4.6-0.8-9.5,0-14.1,0.3c-7.7,0.5-15.1,3-22.5,4.8C1049.8,623.8,1050.1,637.3,1060.6,640.3
				L1060.6,640.3z"/>
			<path class="st0" d="M817.5,770.9c3.2,2.1,2.4,3.2,3.5,5.7c1.3,3.2,4.9,5.6,7.3,7.9c4.8,4.5,11.8,9,18.2,10
				c12.6,2.2,20.1-16.1,9.1-24c-5.4-3.9-13.2-5.8-19.7-6c-3-0.1-6.5-0.7-9.3,0c-3.4,0.9-3.7,2.8-7.5,2.1
				C816.9,766.3,815.5,769.6,817.5,770.9z"/>
			<path class="st0" d="M913.9,151.1c0.3,0,0.6,0,0.8,0c-2.7-0.4-5.5-0.8-8.2-1.2c3.9,1.1,6.7,1.9,10.9,1.8c1.6-0.1,2.8-0.4,4.5-0.8
				c4.4-1.2,7.9-3.6,11.7-6c-1.7,1-3.5,2.1-5.2,3.1c4.7-2.8,9.7-4.9,14-8.3c2.9-2.4,6-4.6,9.2-6.5c-1.9,1.1-3.8,2.3-5.7,3.4
				c3.9-2.3,7.6-4.3,10.8-7.7c1.7-1.8,3.4-3.6,4.9-5.7c4.8-6.4,5.5-15.6,2.3-23.1c-3-7-10.4-14.2-18.2-14.5c-3.4-0.1-7-0.4-10.4,0.1
				c-6.1,0.8-10.2,3.5-15.2,6.6c-3.5,2.2-7,4.5-10.2,7.3c-5.6,5-8.8,11.2-12.3,17.9c-3.8,7.5-4.6,20.1,2.1,26.9
				c-1.2-2.9-2.5-5.8-3.7-8.8c0.1,0.6,0.3,1.2,0.4,1.8C898.8,146,904.8,151.4,913.9,151.1L913.9,151.1z"/>
			<path class="st0" d="M580.7,652.3c7.3,1.7,12.7,0,19.6-2c-2.5,0.7-4.9,1.3-7.4,2c0.7-0.2,1.3-0.3,2-0.5c1.6-0.2,3.1-0.6,4.7-1.1
				c2.6-0.3,4.9-1.3,6.9-2.9c5.7-3.4,9.6-8.4,12.1-14.7c2.6-6.7,2.3-14.3-0.5-21.1c-2.1-5.1-5.6-9.4-9.7-13
				c-6.4-5.5-14.7-6.3-22.4-6c-3.7,0.2-7.5,1-11,2.3c-5.5,2.1-10,6.5-13.5,11.2c-5.9,7.7-6.7,19-2.8,28.1
				C562.8,644.6,571,650,580.7,652.3L580.7,652.3z"/>
		</g>
		<g>
			<path class="st7" d="M793,153.3c-18.9,30.5-32.4,65.1-53.9,93.6c-15.2,20.1-58,60-77.1,21.7c-17.7-35.5,10.2-74.4-4.5-110.5
				c-9.9-24.3-46.9-43.8-61.1-14.7c-6.7,13.8-2.1,30.6-7.6,44.6c-6.6,16.8-26.7,7.8-34.9-3.5c-11.4-15.9-11-38.3-17.1-56.5
				c-5.2-15.5-15.6-31.3-30.8-36.5c-12.6-4.3-25.9,0.5-33.6,11.2c-8.3,11.6-10.8,26.9-11.4,41.4c-0.8,19.4,2.3,39.2,4.1,58.6
				c1,11.3,2.2,22.5,3,33.8c0.8,10.3,1.3,21.6-3.7,30.6c-6.6,11.9-20.7,15.4-33,14.1c-16.1-1.6-29.2-11.5-39.7-24.5
				c-12-14.9-20.3-33-29.3-50c-8.3-15.7-17.5-30.8-28-45c-20.6-27.9-46.1-53.1-76.8-67.3C233.5,83.5,191.3,72,174,99.9
				c-8.9,14.3-5.2,34-0.9,49.9c3.6,13.2,9,26,15.4,38c27.9,52.1,73.6,89.3,105.8,138c14.8,22.4,26.3,47.6,27.7,75.1
				c0.7,14.6-1.5,32.7-12.8,42.2c-14.6,12.3-39.8,0.6-55.4-5.8c-34.3-14.2-67-35.2-104.4-35.6c-29.5-0.3-65.9,15.6-67.6,52
				c-1.9,39.6,48.1,47.4,74.9,48.5c18,0.8,36-0.2,54.1,1.4c16.3,1.4,35.5,5.2,48.6,17.2c33.8,30.9-46.2,57.5-63.2,62
				c-36.8,9.6-75.4,10-113.5,9.4c-38.1-0.7-76.4-2.8-114.3,0.2c-35.3,2.7-73.9,8.3-101.7,32.7c-24.6,21.6-37.5,61.2-19.5,93.4
				c15.2,27.3,46.2,37.3,73.5,39.5c36.5,2.9,73.9-7.4,108.2-18.1c38.8-12.1,76.6-27.4,115.3-39.8c17.1-5.5,34.2-10.8,51.4-16.2
				c13.9-4.4,27.9-8.6,42.3-11c14-2.3,28.9-2.8,42.9,0.4c10.5,2.3,20.4,6.6,29.9,12c20,13.1,37.3,33.1,48.7,53.9
				c15.7,28.7,18.7,61.5,1.3,88.8c-14.7,23.1-39.5,36.9-63.2,47.2c-26.1,11.4-53.3,20-78.7,33c-24.7,12.6-56.5,33.3-60.8,65.4
				c-4.4,33.1,21.8,62.1,49.5,72.3c33.3,12.2,66.9-6,91.2-28.3c27-24.8,45.5-58.2,70.6-84.9c17.3-18.4,58.6-52.7,75.1-13.2
				c13.2,31.6-1.5,62.3-9.3,92c-4.4,16.6-7.4,34.7-3,52c4.2,16.5,15.6,29.8,30.4,36c31,12.9,62-6.8,73.6-37.6
				c5.9-15.7,6.2-32.7,5.4-49.6c-0.9-17.5-3.4-36.2,1.2-53.1c9.5-35.2,48.5-32.9,72.2-13.6c29.3,23.8,34.2,69.3,40.3,104.8
				c4,22.9,8.8,45.7,14.6,68.2c4.7,18.5,9.6,37.1,17.2,54.7c13.8,32,39.7,56.7,73.7,51.9c33.8-4.8,57.7-32.4,67.8-65.9
				c11.3-37.2,7.9-80,0.4-118.4c-7.7-39.3-21.9-77.5-41.5-112.2c-9.5-16.9-20.4-32.8-32.4-47.8c-12-15-26.1-29.1-34.2-47.2
				c-6.5-14.6-7.5-31.4,0.5-45.1c10-17.3,27.6-13.2,41.4-1.8c27.3,22.4,50.7,55,86,62.3c25.6,5.3,57.4-6,66.2-33.9
				c10-31.7-15.5-57.2-38.9-72.1c-25.9-16.5-61.8-28.4-71.2-63.4c-4.8-17.8,6.9-31.1,22.6-33.6c17.1-2.8,35.8,2.8,52.4,7.9
				c38.6,11.7,74.8,31.3,112.1,47.1c28.5,12,57.8,21.8,87.8,27.1c25.4,4.5,52.8,6.5,77.1-2.4c23.5-8.6,42.7-28.6,48.4-55.2
				c4.2-19.7,3-42.6-5.6-61.3c-16.7-36.4-58.2-47.9-91.9-52.8c-47-6.8-94.7-3.3-141.6-0.9c-22.9,1.2-45.8,2.5-68.7,2.5
				c-10.7,0-21.3-0.4-32-1.2c-19.2-1.5-40.8-4.4-55.6-19.8c-11.7-12-17.5-30.3-8.6-45.4c7.3-12.4,21.5-18.3,34.2-22.2
				c14.4-4.5,29.3-6.3,44-9.7c19.6-4.4,38.6-11,56.8-19.5c26.2-12.2,67.3-32.1,69.2-68.2c1.6-30-27-45.9-51.3-45
				c-32.8,1.1-54.1,30.6-75.9,52.5c-12.3,12.2-26,22.3-42.9,25.8c-15.1,3.1-32-0.4-41.2-15.5c-9.4-15.4-6.8-36,0.9-50.9
				c8.4-16.2,23.5-27.3,37.9-36.6c35.8-23.1,72.8-44.3,109.2-66.5c31.3-19,62.8-39.7,83.2-72.3c17.5-27.9,24.4-67.3,10.8-99.8
				c-13.7-33-45.7-50-77.7-50.2c-35.7-0.2-66.5,20.4-91.5,45.1C838.5,85.9,814.3,119,793,153.3L793,153.3z M968.7,30.9
				c14.9,1.9,29.8,8.3,40.7,19.9c11.6,12.3,17,29.3,17.5,46.2c1.1,37.9-20.1,68.9-46.3,91c-30.5,25.7-65.8,45.4-99.1,66.7
				c-17.3,11-34.7,21.9-51.8,33.2c-14.2,9.4-28.2,19.8-38.4,34.2c-17.1,24.2-21.3,66.1,6.8,85.5c25.6,17.6,58.2,3.9,78.6-14.3
				c23.6-21.1,44.7-57,79.2-57.2c12.3-0.1,26.7,4,34.8,15.1c10.8,14.5,4.6,32.6-5.5,44.3c-12.4,14.6-30.1,23.9-46.6,32.1
				c-17.6,8.8-36.2,15.5-55.3,20.2c-27.4,6.8-60.2,7.2-82.5,27.4c-9.4,8.5-15.1,21.3-14.2,35c1.1,16.6,11.1,31.3,23.5,40.8
				c24.3,18.7,58.3,18.5,86.5,18.9c21.9,0.4,43.8-0.5,65.6-1.3c46.2-1.7,93.2-4.6,139.5,2c30.4,4.3,72.6,13.1,85.9,48.1
				c7.3,19.2,6.1,43.4-2.7,61.1c-11.3,22.8-34.1,32.3-57.3,34.5c-25.7,2.5-51.9-2.1-77.1-8.5c-34.7-8.9-67.7-23.3-100.8-37.8
				c-34.1-15-70.1-31.6-106.8-35.1c-15.3-1.5-32.6,1-43,13.9c-8.8,10.9-10.3,25.6-5.5,39.4c5.3,15.2,16,28.2,27.7,38.2
				c12.2,10.3,26.1,16.5,39.6,24.4c21.4,12.6,57.1,40,36.8,69.3c-7.6,11-21.2,16.6-33.8,17.4c-16.2,1-31.1-5.8-44.8-15.4
				c-15.2-10.7-28.3-24.5-42-37.1c-12.5-11.5-27.6-23-44.6-19.7c-29.8,5.9-35.1,47.1-24.2,72.8c7.1,16.8,18.8,30.9,29.9,44.8
				c12.2,15.2,23.4,31.2,33.1,48.4c19.8,35,33.7,73.5,41,113.4c6.7,36.8,10.2,78.5-1.3,113.8c-10,30.8-39,59.2-72.1,50.2
				c-32.9-8.9-44.6-51.7-53.4-82c-6.5-22.4-12.2-45.1-16.8-68c-4-19.4-7-39-12.4-58.1c-9.4-33.4-27.3-64.9-59.7-76.3
				c-27.7-9.8-56.6,1.1-65.8,31.4c-10.1,33.2,5.9,70.8-7.1,103.3c-6.2,15.4-18,28.6-33.7,32.1c-14.6,3.3-31.6-1.9-40.9-15.5
				c-21.4-31.4,4.6-72.3,10.2-103.5c4.4-24.1,2.8-57.5-17.1-74.6c-28.2-24.4-64.2,6.4-83.8,27c-24.7,26.1-43,58.5-69.3,83.1
				c-24.7,23.2-60,40.3-92,19.6c-12.4-8-23.7-21.3-26.4-36.9c-3.3-18.7,8.2-33.8,20.5-44.8c20.9-18.7,47.1-29.2,72.5-39.1
				c46.9-18.2,110.4-39.7,118.8-101.8c7.6-56.3-36.2-107.3-83-128.2c-17.2-9-35.8-13.6-55.4-12.1c-32.5,2.5-63.7,14.5-95,22.5
				c-38.6,9.9-75.8,24.4-113.7,36.7c-35.3,11.4-73.3,22.8-110.9,21c-25.4-1.2-58-10-68.7-38.8c-6.5-17.5-2.1-36.7,7-51.5
				c9.6-15.4,25-25.4,41.1-31.6c34-13,72.2-14,108.3-14.1c38-0.1,76.2,2.4,114.2,0.9c36.2-1.4,72.7-6.5,106-21.2
				c15.3-6.8,31.7-14.8,41.4-29.8c9.2-14.2,7.9-32.2-4.6-44.7c-25.9-26-67.1-22.4-98.8-22.1c-23.5,0.2-90.4-1.5-77-44.3
				c11.9-38.1,59.7-35.7,89.2-25.8C219,431.4,251.7,458,289.2,462c35.8,3.9,48.8-33.9,46-66.4c-2.4-27-13.1-52.2-27.4-74.7
				c-31.1-48.8-76.4-85.7-105.3-136.2c-6.7-11.8-12.4-24.2-16.1-37.3c-4.1-14.4-9.4-35.8,4.3-45.3c12.4-8.6,30-5.6,43.8-1.8
				c16.3,4.5,31.6,12.6,45.6,23c27.6,20.5,49.8,49.7,67,80.4c16.7,29.8,30.8,69,62.3,84.6c23.1,11.4,56.5,9.5,68.1-17.4
				c8.1-18.8,3.1-42.5,1.4-62.6c-1.7-20.1-4.8-40.6-4.5-60.6c0.2-12.7,1.9-29.3,10.7-38.4c11.4-11.8,26.6-1.6,34.1,10.8
				c10.5,17.3,10.2,38.9,17.4,57.6c5.7,14.9,16,27.3,30.8,31.7c13.2,4,26.7-1.3,32.3-14.7c5.8-14,0.9-31.3,7.5-44.7
				c6.8-13.7,22.9-7.3,31.6,1.6c13.8,14.2,11.3,35.9,8.6,53.8c-2.6,17.6-5.7,34.8-2,52.8c2.9,14.3,10.4,29.2,23.1,36.1
				c15.4,8.4,32.4,2.5,46.3-5.3c13.5-7.6,25.1-18.8,34.9-31.2c21.8-27.6,36.9-61,55.3-91.2c20.7-34.1,44.7-66.7,72.2-94.6
				C901.6,47.1,932.9,26.3,968.7,30.9L968.7,30.9z"/>
			<path class="st7" d="M956.3,853.9c-0.8,1.6-1.6,3.2-2,4.9c-1.1,4.3-0.5,9,0.4,13.5c2,9.6,8.9,18.5,16.4,24
				c18.6,13.7,43.5,11.1,59.2-4.4c17.4-17.1,19.9-47.9,4.1-68.3c-13.6-17.7-38-25.5-56.4-14.1C964.2,818.1,955.3,836.3,956.3,853.9
				L956.3,853.9z M1018.5,826.1c5.9,5.7,10.6,12.8,12.5,21c2.2,9.6,0,20.1-4.4,28.3c-4.2,7.7-11.2,13.5-19,16.6
				c-7.6,3-16.8,4.7-24.9,2.7c-9.3-2.3-16.7-8.7-21.3-17.7c-2.5-4.9-4.4-11-4.3-16.7c0.5,2.7,1.3,5.4,2.4,8c0.2,0.4,0.7,0.2,0.6-0.2
				c-1.3-4.5-2.1-9.3-2-14c0.6-2,1.5-3.8,2.9-5.4c0.3-0.3-0.2-0.8-0.5-0.5c-0.8,0.9-1.5,1.9-2.2,2.9c0.3-3.5,1.1-6.9,2.4-10.1
				c3.4-8.1,7.3-15.1,14.3-20C988.2,811.5,1006.3,814.3,1018.5,826.1L1018.5,826.1z"/>
			<path class="st7" d="M1020.7-72.8c-8.8,14.8-8.9,35.4-1.1,51.3c7.3,14.8,21.8,26,37.3,26.7c0.3,0,0.6,0,0.9-0.1
				c9,3.8,18.7,5.7,28.2,5.3c29.1-1.3,57.4-24,61.5-55.9c2-15.8-1.6-32.6-13.2-43.9c-11.2-10.8-26.4-14.1-40.7-14.5
				C1067.2-104.7,1035.7-97.8,1020.7-72.8L1020.7-72.8z M1085.1-89.3c11,0.1,23,0.8,33.1,6.6c10.1,5.8,15.4,16,15.5,28.1
				c0.2,25.4-19.7,46.9-41.2,53.4c-13.3,4-27.3,3.1-40.2-3.2c-10.2-4.9-19.3-12.7-26.3-22.2c-4.9-11.1-5.1-24.6-0.1-35.3
				C1036.7-85.3,1062.6-89.5,1085.1-89.3L1085.1-89.3z"/>
			<path class="st7" d="M496.1,16.9c3.6-10.7,4.7-22.4,5.3-33.8c0.6-12.9-1-26.7-7.3-38.3c-11-20.4-38.6-29.8-53.2-10.1
				c-7.6,10.3-10.5,22.6-12,35.6c-1.9,15.4-1.1,31,2.9,46.2c0.5,1.8,2,2.5,3.5,2.3c3.6,7.5,8.8,14,15.6,18.4
				c8.9,5.7,18.8,7.4,28,2.8C487.8,35.7,492.9,26.4,496.1,16.9L496.1,16.9z M458.7,33.2c-9.8-2.7-17.6-12.1-21.4-21.8
				c-2.4-20.2-2-42.3,6.3-60.4c3.2-7,8.4-13.4,16.3-13.8c7.7-0.4,14.4,4.7,19.3,10.8c5.9,7.3,7.9,17.4,8.3,26.7
				c0.5,10-0.2,20-1.7,29.8c-1.1,7.6-3,15.7-7.5,21.7C473.7,32.5,466.2,35.2,458.7,33.2L458.7,33.2z"/>
			<path class="st7" d="M7.3,403.8c3.1-4.1,7.4-8.5,8.1-14c5.1-8.1,7.4-17.4,5.6-27.6c-1.9-10.5-8.2-20-16.5-26.1
				c-9.5-6.9-21-8.4-31.8-6.5c-21.1,3.6-40.7,22.2-42.9,45.7c-1.1,11.9,1.8,24.2,9.6,33.4c6.3,7.5,15.4,12.4,24.6,14
				c11,1.9,21.8-0.3,30.9-6.9C-0.5,412.4,3.7,408.6,7.3,403.8L7.3,403.8z M-56.8,385.7c-1.5-17.5,10.6-32.7,25-38.4
				c13.6-5.3,31.9-2.3,39.6,13.1c4.1,8.1,2.7,17.7-0.4,25.7c-3.2,8.1-9.4,14-14.8,20.4c-5.8,3.2-12.4,5-19,5.1
				C-40.7,412-55.3,402.3-56.8,385.7L-56.8,385.7z"/>
			<path class="st7" d="M117.6,1059.4c0.1-1.2,0.2-2.4,0.3-3.6c2.9-8.8,3.9-18.8,3.1-27.6c-1.1-13-6.6-25.6-16.9-33.3
				c-10.9-8.1-26.1-11-38.9-10.3c-12.9,0.7-25.6,5.5-34.8,15.2c-9.6,10.1-13.3,23.7-12.9,38.3c0.4,13.3,3.2,27.5,9.8,39.2
				c6.8,12.1,18,20.4,30.8,22.7c13.2,2.4,28.2,0.7,39.9-5.8C110.1,1087.2,116.1,1073.4,117.6,1059.4L117.6,1059.4z M43.2,1075.3
				c-6.1-7.1-9-17.2-10.3-26.4c-1.6-11.3-1.9-22.7,3.3-32.7c10.7-20.6,34.8-24.8,54.9-17.7c7.8,2.8,13.6,8,17.4,14.9
				c2.4,12.2,4.2,25.3,2,37.1c-1.8,9.7-5.7,19.5-12.6,26.1c-7.6,7.3-18.4,9.5-28.6,9.5C59.7,1086.2,50.1,1083.3,43.2,1075.3
				L43.2,1075.3z"/>
		</g>
	</g>
</g>
</svg>
