<?xml version="1.0" encoding="UTF-8"?>
<svg id="_圖層_2" data-name="圖層 2" xmlns="http://www.w3.org/2000/svg" viewBox="0 0 1369.97 1329.23">
  <defs>
    <style>
      .cls-1 {
        fill: #231815;
      }

      .cls-1, .cls-2, .cls-3, .cls-4, .cls-5, .cls-6, .cls-7, .cls-8 {
        stroke-width: 0px;
      }

      .cls-2 {
        fill: #e20011;
      }

      .cls-3 {
        fill: #d7000f;
      }

      .cls-4 {
        fill: #db0010;
      }

      .cls-5 {
        fill: #fff;
      }

      .cls-6 {
        fill: #e94528;
      }

      .cls-7 {
        fill: #ec6640;
      }

      .cls-8 {
        fill: #ed7054;
      }
    </style>
  </defs>
  <g id="_栝鍣_3" data-name="栝鍣 3">
    <g>
      <path class="cls-5" d="m902.72,1193.3c-2.22,7.85-3.1,16.18-2.2,24.29,1.15,10.32,8.44,18.55,19.66,17.04s16.56-11.41,14.43-21.66c-.09-.41-.68-4.65-.52-2.68s-.06-2.87-.05-2.75c-.02-1.11.04-2.22.07-3.34.15-4.99-.65,2.72.26-2.19,1.54-8.41-2.3-18.1-11.46-20.18-8.72-1.99-17.68,2.62-20.18,11.46h0Z"/>
      <g>
        <path class="cls-2" d="m140.62,432.93s-67.48,23.72-30.32,74.07,79.25-25.61,54.33-53.57c-24.92-27.97-24-20.5-24-20.5Z"/>
        <path class="cls-2" d="m195.64,1111.46s-23.36,60.2,10.73,76.44c34.09,16.24,70.61,15.56,72.55-24.57,1.94-40.13-9.25-99.58-83.28-51.87Z"/>
        <path class="cls-2" d="m634.41,34.63s33.34,25.34,19.06,73.01c-14.28,47.67-44.47,37.6-56.15,4.8-11.68-32.8-.43-86.45,37.09-77.8"/>
        <path class="cls-2" d="m1223.65,9.64s66.2-12.17,75.88,28.54c9.68,40.71-20.43,66.76-57.29,69.71-36.85,2.96-56.21-16.39-62.88-41.09-6.67-24.69,22.91-55.46,44.29-57.16Z"/>
        <path class="cls-2" d="m1118.31,964.22s-7.32-34.86,25.95-48.09c33.27-13.23,64.32,18.5,45.28,59.9-19.03,41.41-75.05,35.61-71.23-11.81Z"/>
        <path class="cls-2" d="m878.37,884.35s23.85-30.51,64.74,13.59c40.89,44.1,83.92,64.44,119.89,32.78,35.97-31.66-21.48-75.82-50.57-93.42-29.08-17.61-71.47-43.75-50.93-78.34,20.54-34.58,82.94-10.59,135.06,13.82,52.12,24.41,221.91,110.03,262.54,2.55,40.62-107.48-131.93-111.01-160.18-112.46-28.25-1.45-199.71,25.99-234.89-22.05-35.18-48.04,5.4-72.31,47.64-76.65,42.24-4.34,153.01-39.32,149.69-96.86,0,0-8.98-42.58-62.47-29.47-19.68,4.82-35.17,21.49-50.37,38.03-26.13,28.43-51.39,56.51-95.55,23.44,0,0-37.37-47.91,24.26-89.59,61.63-41.68,194.3-106.22,216.86-185.66,22.56-79.44-59.56-114.78-116.17-87.79-56.61,26.99-109.27,120.32-146.67,182.02-37.4,61.71-70.49,93.35-103.16,72.54-32.67-20.81,6.44-101.73-16.78-132.02-23.22-30.29-49.51-30.63-52.15,2.12-2.64,32.75-10.76,54.25-37.8,39.71-27.04-14.54-28.99-109.59-69.59-99.56-20.38,5.04-18.19,48.89-16.99,93.17,1.19,43.91,1.42,88.23-22.31,95.48-47.65,14.57-73.08-28.55-89.06-67.77-15.99-39.23-82.2-131.28-153.14-127.66-70.94,3.62-13.45,102.98,8.3,134.96,21.75,31.98,127.1,117.26,108.34,195.1-18.75,77.84-120.14.32-120.14.32,0,0-85.42-44.95-116.85,24.08-31.43,69.03,145.94,55.6,145.94,55.6,0,0,73.4,21.73,23.82,65.4-49.58,43.68-202.54,33.47-247.07,34.16-44.53.69-174.75,3.69-163.36,96.33,11.39,92.64,180.13,42.77,242.09,14.3,61.96-28.46,185.31-65.5,233.95-19.2,48.64,46.3,78.38,111.57,23.94,159.65-16.64,14.7-44.99,25.96-74.42,37.67-66.87,26.62-139.34,55.61-92.89,132.61,0,0,57.43,45.89,118.98-11.94,61.54-57.83,85.44-139.41,136-108.06,50.56,31.35-31.58,148.46,23.27,188.22,54.85,39.76,77.61-25.02,74.96-93.36-2.65-68.34,31.54-81.17,71.62-65.84,40.08,15.33,54.01,66.4,53.59,102.38-.41,35.98,30.95,183.39,94.72,184.03,63.77.64,82.09-67.59,64.09-179.45-17.99-111.86-73.47-158.43-90.36-177.24-16.89-18.81-28.12-59.66-10.42-79.69"/>
        <path class="cls-3" d="m594.75,790.6c1.48-4.03,2.62-8.14,3.62-12.34.23-.94.45-1.88.66-2.82-.08.45-.16.9-.24,1.34-2.02,3.67-.63.91-.21.18,2.09-3.62,4.32-7.18,4.8-11.54.66-6.08-1.57-12.88-3.2-18.74-1.36-4.89-2.8-9.73-4.69-14.45-3.69-9.25-8.7-18.17-14.37-26.32-5.15-7.4-11.62-13.59-17.05-20.74,1.66,3.94,3.32,7.89,4.98,11.83-.23-2.12-.38-4.24-.43-6.37.04,2.45.08,4.91.13,7.37,0-3.77.51-7.58,1.29-11.23-.71,2.96-1.42,5.92-2.12,8.88.12-.52.25-1.03.4-1.54-1.45,2.72-2.9,5.45-4.35,8.17,4.07-6.57,6.09-11.19,7.11-19.07-.75,3.12-1.49,6.24-2.24,9.36.43-1.06.91-2.07,1.44-3.08-1.57,2.94-3.13,5.88-4.7,8.82.8-1.39,1.7-2.64,2.75-3.83-2.45,2.61-4.9,5.22-7.36,7.83.88-.92,1.82-1.71,2.85-2.44-10.86,2.91-21.73,5.83-32.59,8.74.1.02.2.03.31.05,14.8,2.39,33.13-3.89,41.13-17.33.26-.56.62-1.04,1.07-1.44-2.65,2.82-5.3,5.64-7.94,8.45.93-.92,1.89-1.69,2.96-2.43-3.46,2.07-6.92,4.14-10.38,6.21,2.36-1.41,4.81-2.3,7.45-3.04-4.02,1.06-8.04,2.12-12.06,3.19,8.51-2.21,17.43-3.49,25.48-7.07,7.61-3.39,15.22-7.81,21.5-13.42,9.54-8.53,15.78-19.01,21.04-30.85,3.42-7.7,5.29-16.39,6.53-24.76,2.66-17.91-1.36-34.25-6.82-51.33-1.29-4.04-2.54-8.19-4.46-11.98-1.96-3.86-3.77-7.78-5.02-11.93,1.25,4.48,2.49,8.95,3.74,13.43-.69-2.49-1.15-4.98-1.23-7.55.08,4.36.15,8.73.23,13.09,0-1.69.16-3.3.51-4.94-.98,4.08-1.95,8.16-2.93,12.24.46-1.79,1.09-3.42,1.93-5.04-1.92,3.59-3.83,7.19-5.75,10.78,1.14-1.91,2.5-3.51,3.95-5.17-2.73,2.91-5.47,5.82-8.2,8.73,1.21-.86,2.43-1.68,3.69-2.46-3.51,2.1-7.02,4.2-10.53,6.3,12.35-7.29,25.3-13.54,35.63-23.79,14.61-14.51,29.13-31.82,32.45-53.47,2.49-16.18-5.87-32.4-17.94-42.57-.26-.22-.53-.43-.8-.63-5.56,23.52-11.13,47.03-16.69,70.55.17-.05.35-.07.54-.06-13.81-11.1-27.62-22.21-41.44-33.31,2.78,14.67,8.81,29.19,18.57,40.62,5.01,5.88,10.66,11.75,16.87,16.35,4.78,3.54,10.07,6.42,15.17,9.35,1.97,1.13,3.96,2.18,6.04,3.07,3.8,1.63,7.75,2.63,11.69,3.78,3.98,1.16,7.97,2.49,12.05,3.17,8.35,1.39,17.11,1.52,25.41.61,4.38-.48,8.63-1.86,12.85-2.98,4.32-1.14,8.76-2.05,12.86-3.89,5.03-2.25,9.52-5.45,14.86-7.02-5.59,1.48-11.18,2.95-16.77,4.43,1.17-.28,2.3-.26,3.49-.47-5.73-.11-11.46-.22-17.2-.33.75.15,1.49.32,2.22.53-5.6-1.63-11.21-3.27-16.81-4.9,1,.31,1.97.68,2.96,1.03,6.15,1.87,12.33,3.66,18.51,5.38,6.07.12,12.15.23,18.22.35,2.59-.16,5.17-.38,7.77-.51,5.69-.28,11.37-.55,17.06-.82,2.73-.13,5.46-.26,8.19-.39,1.37-.07,2.73-.13,4.09-.2.68-.03,1.37-.06,2.05-.09,10.04-.81,19.03-4.1,26.97-9.9,5.14-3.07,8.93-5.38,13.25-9,1.92-1.61,3.8-3.35,5.86-4.77-4.88,2.92-9.75,5.83-14.63,8.75,3.45-1.33,6.89-2.66,10.34-3.99.81-.31,1.61-.64,2.41-1,2.59-1.27,5.08-2.74,7.46-4.4,4.96-2.11,9.03-5.38,12.22-9.8,6.68-7.11,4.95-4.59,9.54-13.19,3-4.25,4.81-9.02,5.41-14.31,1.3-3.79,2.02-7.71,2.18-11.75-27.53,3.35-55.06,6.71-82.59,10.06,5.37,12.02,11.43,23.96,16.12,36.26-.88-3.15-1.76-6.31-2.64-9.46,4.31,16.05,8.48,32.14,13.04,48.12-.83-2.98-1.66-5.96-2.49-8.94,2.64,10.02,5.28,20.36,9.48,29.89,5.08,11.55,11.7,20.87,20.69,29.41-1.93-1.95-3.85-3.89-5.78-5.84,3.82,4.13,7.66,8.38,12.4,11.35,7.41,4.64,12.57,6.83,20.94,9.04,5.53,1.46,11.22,1.94,16.72,3.52-2.59-.75-5.17-1.51-7.76-2.26,1.81.57,3.51,1.26,5.17,2.24-2.35-1.4-4.7-2.81-7.05-4.21.89.58,1.69,1.2,2.47,1.92-1.98-2-3.96-4-5.93-6,.76.79,1.41,1.61,2.02,2.54-1.47-2.54-2.94-5.08-4.42-7.61.6,1.06,1.07,2.1,1.45,3.25-.79-2.83-1.58-5.67-2.37-8.5.37,1.43.54,2.81.57,4.28-.05-2.83-.1-5.66-.15-8.49-.06,1.81-.32,3.53-.71,5.28.64-2.7,1.29-5.39,1.93-8.09-.53,2.14-1.18,4.23-1.9,6.3,1.29-2.43,2.59-4.85,3.88-7.28-.16.26-.31.52-.47.78,4.35-3.49,8.69-6.97,13.04-10.46-4.13,2.15-8.11,4.61-12.06,7.09,2.8-1.67,5.59-3.34,8.39-5.02-7.06,3.55-13.07,7.94-17.15,14.88-4.26,7.24-7.93,14.33-8.88,23.02-1.61,14.71,4.68,29.12,12.83,41.05,7.75,11.34,20.75,20.58,34.19,21.38,10.04.6,18.39.09,27.81-3.52-2.68.71-5.36,1.42-8.04,2.12,6.01-.29,12.51-1.66,17.64-4.67,4.6-2.69,9.04-5.45,13.41-8.49,10.29-7.17,8.13-23.46-.92-31-2.65-2.2-5.29-4.42-7.81-6.78-2.71-2.55-5.7-4.53-8.66-6.76,1.97,1.99,3.93,3.97,5.9,5.96-.93-1.4-1.9-2.77-2.77-4.21,1.62,2.78,3.23,5.57,4.85,8.35-1.21-2.15-2.1-4.38-2.79-6.74.99,3.54,1.97,7.08,2.96,10.62-.07-.27-.14-.54-.21-.82-.63-5.76-2.57-10.97-5.82-15.63-1.55-2.67-2.39-4.49-4.12-6.62-1.17-1.43-2.27-2.84-3.26-4.42,1.89,3.26,3.79,6.53,5.68,9.79-1.09-1.9-1.95-3.82-2.6-5.92,1.02,3.65,2.03,7.29,3.05,10.94-2.34-8.99-3.84-16.98-9.99-24.65,1.88,3.23,3.75,6.47,5.63,9.7-.69-1.37-1.24-2.73-1.68-4.2.95,3.42,1.91,6.85,2.86,10.27-.6-2.29-1.15-4.49-1.8-6.82-1.47-5.27-3.71-10.15-7.02-14.57,1.72,2.96,3.43,5.92,5.15,8.88-.86-1.54-1.63-3.12-2.39-4.72.85,5.76,1.7,11.51,2.56,17.27.02-.32.04-.64.07-.95-.65,2.71-1.3,5.42-1.94,8.12,2.7-9.87,4.98-18.71,3.87-29.18-1.3-12.23-8.31-24.54-18.02-31.9-7.57-5.74-16.36-8.81-25.44-10.33-4.77-.8-9.59-1.11-14.3-2.37,2.55.74,5.11,1.49,7.66,2.23-2.12-.63-4.09-1.46-6.04-2.55,2.3,1.38,4.61,2.75,6.91,4.13-1.92-1.18-3.65-2.52-5.3-4.08,1.93,1.95,3.85,3.89,5.78,5.84-1.59-1.62-2.83-3.61-3.99-5.57,1.45,2.5,2.9,4.99,4.35,7.49-2.54-4.54-4.3-9.39-5.7-14.39.8,2.87,1.6,5.74,2.4,8.61-2.4-9-3.55-18.26-5.11-27.41-.92-5.43-1.85-10.85-2.77-16.28-.95-5.6-2.37-11.35-2.75-17,.05,3.16.11,6.32.16,9.49-.12-10.45-.24-20.89-.36-31.34-.02-1.36-.03-2.72-.05-4.09,0-.45-.01-.91-.02-1.36.88-6,.27-11.81-1.82-17.46-2.47-8.87-6.26-16.95-11.59-24.55-3.52-4.56-7.52-8.54-12-11.93-4.51-2.7-9.03-5.39-13.54-8.09-8.9-4.35-19.75-5.2-29.4-6.65,5.3,1.54,10.6,3.09,15.89,4.63-2.62-1.04-5.14-2.46-7.67-3.73-7.78-3.9-13.81-6.41-23.5-7.91-12.35-1.9-23.18.39-34.9,2.38-5.78.98-11.58,1.93-17.35,2.94-13.88,2.44-28.23,5.91-39.19,15.38-4.99,4.31-9.58,9.61-13.98,14.55-.93,1.04-1.8,2.08-2.62,3.23,3.93-4.18,7.85-8.36,11.78-12.53-.32.25-.64.51-.96.76-3.91,4.16-7.82,8.32-11.72,12.48-.48.59-.94,1.19-1.42,1.79-1.11,1.38-2.09,2.81-2.99,4.35-4.2,7.18-7.85,14.73-11.73,22.11,2.47-4.64,4.94-9.27,7.41-13.91-1.66,3.04-3.52,5.83-5.82,8.36,3.43-3.65,6.85-7.29,10.28-10.94-2.57,2.7-5.42,4.99-8.59,6.91,4.16-2.49,8.31-4.97,12.47-7.46-3.48,2-7.13,3.52-11,4.57,4.37-1.15,8.74-2.31,13.12-3.47-4.22,1.06-8.49,1.6-12.86,1.56,4.06.08,8.13.16,12.19.23-4.08-.11-8.09-.65-12.07-1.74,3.59,1.05,7.18,2.09,10.78,3.14-3.64-1.07-7.13-2.5-10.45-4.42,3,1.79,6.01,3.59,9.01,5.38-3.03-1.84-5.82-3.96-8.35-6.5,2.33,2.35,4.66,4.7,6.98,7.06-.43-.44-.85-.89-1.27-1.35.45,15.34.91,30.69,1.36,46.03.09-.11.18-.22.27-.33-2.21,2.35-4.41,4.7-6.62,7.05.06-.04.12-.09.18-.13,2.26-2.41,4.52-4.81,6.78-7.21,1.55-2.91,3.1-5.81,4.65-8.72,3.04-8.04,3.05-16.75.72-25.13-1.97-7.08-5.26-12.83-10.4-18.02-2.14-2.76-4.77-4.83-7.9-6.21-4.15-2.96-8.74-4.74-13.78-5.33-.36-.1-.73-.2-1.09-.3,3.44,1,6.89,2.01,10.33,3.01-2.83-.87-8.22-2.67-11.13-3.25-11.75-2.35-23.43,2.01-32.69,8.77-5.25,3.83-8.05,8.43-11.42,13.5-2.69,4.04-5.72,7.8-9,11.32,2.66-2.83,5.31-5.65,7.97-8.48-5.34,5.58-11.29,10.37-17.86,14.34,3.47-2.08,6.94-4.15,10.42-6.23-3.11,1.82-6.31,3.39-9.57,4.9-6.58,3.05-12.87,6.74-18.93,10.75,3.52-2.11,7.04-4.21,10.56-6.32-4.66,2.08-9.3,5.01-13.47,7.93-1.2.84-2.26,1.77-3.31,2.8-8.08,7.93-12.58,13.92-17.37,24.44-2.51,5.51-3.72,11.93-4.74,17.89-1.08,6.26-.48,13.85-.23,19.75.2,4.95.9,9.94,2.1,14.78,1.79,7.19,3.98,14.03,6.47,20.96.93,2.59,1.8,5.19,2.56,7.83-1.3-4.66-2.6-9.32-3.89-13.97,1.06,3.9,1.71,7.77,1.82,11.79-.08-4.63-.16-9.26-.24-13.89,0,3.78-.42,7.44-1.26,11.08,1.05-4.38,2.1-8.77,3.15-13.15-.93,3.63-2.22,7.05-3.91,10.34,2.09-3.92,4.18-7.84,6.26-11.75-.72,1.32-1.47,2.62-2.3,3.86-3.08,4.62-5.56,9.65-8.13,14.62,2.08-3.9,4.15-7.8,6.23-11.69-1.63,2.86-3.5,5.49-5.69,7.9,2.93-3.12,5.86-6.24,8.79-9.36-3.71,3.87-8.16,6.45-12.41,9.61-4.99,3.71-9.35,8.52-13.21,13.37-3.68,4.63-5.81,10.44-8.54,15.71-2.8,7.47-3.63,15.25-2.51,23.33,1.26,8.41,4.46,16.01,9.6,22.79.08.09.17.19.25.28-3.14-7.45-6.28-14.9-9.42-22.36.13,1.1.35,2.15.61,3.22,1.11,4.58,2.17,9.49,4.08,13.86,2.25,5.14,5.24,10.22,8.63,14.68-1.72-2.96-3.44-5.92-5.15-8.88,3.47,7.03,6.68,12.35,13,17.05-2.25-2.28-4.51-4.55-6.76-6.83,6.19,7.13,11.67,11.97,19.96,16.15,5.1,2.57,10.94,3.99,16.38,5.27-3.65-1.59-7.3-3.19-10.95-4.78,4.48,4.34,9.08,8.56,13.5,12.96-1.4-1.41-2.79-2.82-4.19-4.23,6.34,6.45,11.8,13.63,16.37,21.49-.98-1.68-1.95-3.37-2.93-5.05,4.48,7.91,7.98,16.25,10.45,25-.49-1.76-.98-3.51-1.47-5.27.83,3.13,1.52,6.01,3.15,8.82,1.57,2.71,3.46,4.6,5.8,6.6,1.12.95,2.23,1.9,3.31,2.9-1.62-2.13-3.25-4.27-4.87-6.4.87,1.5,1.73,3,2.61,4.5-1.01-1.74-1.14-1.84-.4-.3.36,1.1.92,2.16,1.34,3.23.98,2.48,1.84,4.99,2.61,7.54,2.47,8.12,14.25,7.23,16.82.2"/>
        <path class="cls-4" d="m612.88,890.42c2.68,4.61,6.06,8.86,9.88,12.52,4.19,4.02,9.47,6.24,14.31,9.21,1.36.83,3.6,2.81,5.5,4.3,2.35,1.85,4.67,3.77,7.12,5.46.46.32.92.66,1.39.95,2.71,1.61-1-.73-1-1.25,0,.68,1.5,2.14,1.94,2.76,2.74,3.89,6.1,6.7,10.04,9.11,2.25,1.38,4.37,2.67,6.39,4.39.98.83,1.95,1.69,2.96,2.47,5.26,4.08,11.14,5.49,17.27,7,5.84,1.44,11.7,2.74,17.6,3.85,5.89,1.11,11.66,1.81,17.61,2.04,8,.3,17.09,1.27,25.08-.05,5.18-.86,10.43-2.65,15.47-4.21,2.97-.92,6.11-1.78,8.88-3.2,8.6-4.42,16.98-9.41,22.7-17.48,7.35-10.37,3.26-27.05-9.09-32-7.63-3.05-16.32-4.71-24.45-5.44-3.38-.31-6.75-.7-10.11-1.21-6.17-.95-12.27-.95-18.48-1.04,2.72.05,5.45.1,8.17.16-9.78-.21-19.59-1.15-29.35-1.93-4.76-.38-9.51-.88-14.25-1.48-4.58-.58-9.18-1.27-13.79-.95-4.33.31-9.19,2.59-13.49,3.88,2.31-.61,4.61-1.22,6.92-1.83-6.85.93-14.63.85-20.32,5.25-1.66.82-1.06.81,1.78-.02-.74.08-1.48.17-2.21.25-1.48.17-2.93.39-4.4.64-2.72.47-5.44.93-8.17,1.38-4.74.79-9.32.39-14.76-.23-5.83-.67-10.86-.92-15.9-4.6-.92-.67-1.76.42-1.24,1.32Z"/>
        <path class="cls-6" d="m698.11,758.04c-.12.18-.27.37-.43.58.19-.16.39-.36.53-.58-.03,0-.07,0-.1,0m.3-.61s0,.08-.03.14c0,0,.02,0,.03,0,0-.05,0-.09,0-.13m-91.09,65.58s.55-.59,1.66-1.77c0,0,0,.01-.01.02-1.1,1.17-1.65,1.76-1.65,1.76m19.84-21.4c.21-.86.41-1.72.62-2.58-.2.84-.39,1.72-.62,2.58m50.07-72.13c.08-7.74,1.49-15.26,4.22-22.55,4.01-10.51,10.29-19.26,18.81-26.24,1.19-1.01,2.39-1.95,3.64-2.9,5.15-3.88,10.48-7.82,16.41-10.32.59-.25,1.19-.49,1.8-.71,6.2-2.24,13.23-3.8,19.74-4.99,1.71-.31,3.41-.75,5.12-1,6.14-.24,12.29-.15,18.45.28,11.47,1.83,21.9,6.39,31.3,13.68,14.98,9.9,24.98,27.77,27.6,45.59,1.54,10.44.67,24.57-3.87,34.01-2.6,5.43-5.51,11.54-8.77,16.55-5.74,8.84-15.79,16.95-25.71,21.12-1.19.5-2.39.95-3.57,1.33-6.85,2.22-13.94,3.76-20.92,5.54-4.3,1.09-7.52.55-12.48.46-5.68-.11-7.73.1-12.28-1.13-6.46-1.76-13.12-3-19.28-5.77-9.65-4.26-17.88-10.51-24.67-18.76-1.24,1.43-2.83,2.57-4.58,3.31-3.65,1.54-8.01,1.33-11.37-1.59-3.74-3.25-6.85-7.23-8.52-12.01-2.23-6.41-1.94-11.97-.23-18.28,1.16-4.28,3.31-8.46,5.96-11.91.97-1.26,2.03-2.53,3.16-3.72m-19.32-70.16c-3.42,1.44-6.81,3.24-10.81,5.63-3.21,1.92-6.94,3.77-9.86,6.33-2.31,2.03-4.56,4.7-6.53,6.79-2.36,1.67-4.21,3.75-5.55,6.24-2.3,4.31-4.59,8.62-6.89,12.93-1.15,4.81-2.3,9.62-3.45,14.43-.09.38-.17.75-.24,1.14-.11.68-.21,1.35-.28,2.04-.14,1.52.03,3.07-.3,4.54-1,9.5.36,18.72,4.1,27.65,1.24,2.93,2.69,5.7,4.34,8.31.52,3.23,1.21,6.49,2.09,9.86,1.86,7.09,3.9,13.9,4.56,21.1-.17,3.46-.6,6.89-1.29,10.29.17-.72.34-1.44.52-2.16-.57,2.83-.97,5.66-1.53,8.5-.04.14-.09.29-.14.43-1.21,1.88-2.49,3.71-3.88,5.46-.7.88-1.42,1.74-2.16,2.58-.59.57-1.17,1.14-1.77,1.69-2.36,2.16-4.92,3.94-7.44,5.89-.9.52-1.67,1.21-2.29,2.07-.51.45-.97.99-1.46,1.45-1.22,1.15-2.44,2.33-3.86,3.2-2.55,1.57-4.02,4.16-4.81,7.03-1.39.3-2.79.53-4.2.73-.67.1-1.29.27-1.86.51-6.9,2.91-6.65,15.52,2.15,16.2,2,.15,3.99.22,5.99.24.64,0,1.28.01,1.93,0,0,0,.05,0,.11,0,.24.15.49.29.73.44,3.34,2.91,8.04,4.36,12.16,3.82,5.14-.68,9.79-.37,14.76-2.41.12-.05.23-.1.35-.14,4.49-1.89,8.74-4.54,12.85-7.11,6.31-3.96,11.56-9.01,16.59-14.46,4.41-3.69,8.39-7.96,12.13-12.36-.42.45-.84.9-1.27,1.35,1.03-1.23,1.9-2.46,2.73-3.79.04.03.07.07.11.1-.15.28-.3.56-.45.84.16-.27.32-.54.48-.81,6.52,6.27,9.42,7.77,23.08,15.22,1.28.7,2.51,1.27,3.88,1.76,6.4,2.29,14.87,4.85,21.47,6.23.7.14,1.39.28,2.1.37,8.31.99,16.75.99,25.05.5,1.49-.09,2.93-.33,4.37-.64,7.29-1.55,15.28-3.73,22.41-5.9.87-.27,1.74-.52,2.59-.84.46-.17.92-.35,1.38-.55.94-.4,1.86-.83,2.76-1.31,1.72-.91,3.44-1.85,5.16-2.81,1.82,1.82,3.68,3.59,5.54,5.3,4.08,3.75,9.39,6.61,14.19,9.03,4.72,2.37,10.14,4.22,15.17,4.8,11.63,1.34,23.19-.73,34.66-1.93,9.33-.97,18.67-1.9,27.99-2.93,2.5-.28,5-.56,7.5-.85,4.96-.56,10.3-1.32,14.87-3.25.08-.03.15-.06.22-.1,8.64-3.74,16.67-8.82,22.36-16.57,3.99-5.44,5.7-12.28,5.58-19.11-.12-6.87-2.14-14.59-6.74-19.98-5.61-6.59-10.52-10.34-18.21-13.99-5.34-2.54-10.91-4.59-16.73-5.26-5.91-.68-11.88-.98-17.8-1.42-5.94-.44-11.87-.88-17.81-1.32-1.09-.08-2.2-.14-3.31-.2-.05-.17-.1-.34-.14-.51-.09-3.05-.29-6.04-.47-7.81-.49-4.82-2.07-9.94-3.81-14.9.05-1.89,0-3.79-.13-5.71-.02-1.09-.04-2.19-.08-3.31.12-2.85.03-5.67-.25-8.47h0c-.68-6.8-2.54-13.46-5.57-19.98-3.47-5.98-6.94-11.96-10.41-17.94-8.31-10.72-18.54-18.77-30.7-24.13-6.35-3.65-15.14-5.38-22.79-6.49-7.16-1.04-19.24-1.09-22.44-.6-3.87.68-7.66,1.66-11.39,2.93-3.18.22-6.18.92-8.99,2.1-.82.35-1.63.74-2.42,1.17-2.01,1.01-3.95,2.19-5.89,3.33-.11.07-.23.14-.34.21-5.07-1.58-10.42-2.89-13.68-3.76-7.45-2-14.93-2.19-22.47-2.13-4.52-.22-9.07-.27-13.56-.17-1.56.03-3.08.12-4.61.4-7.57,1.43-12.82,2.81-17.98,4.99"/>
        <path class="cls-7" d="m697.68,758.62c.16-.2.31-.4.43-.58.03,0,.07,0,.1,0-.14.22-.34.42-.53.58m.7-1.04c.02-.06.03-.1.03-.14,0,.04,0,.09,0,.13,0,0-.02,0-.03,0m69.72,5.8c-1.51.63-3.08,1.19-4.8,1.64-6.62,1.75-14.86,3.27-21.71,1.9-6.77-1.35-16.15-4.49-21.38-9.36-4.66-3.67-8.16-8.28-10.51-13.81-.8-2.87-1.6-5.73-2.39-8.6-1.58-8.44,1.41-17.22,5.68-23.99,3.55-5.63,12.23-11.92,18.23-14.45,4.96-2.09,10.95-2.9,16.42-3.31,6.34-.48,10.55.33,16.23,1.9,3.47.96,7.12,1.71,10.49,3.02,7.37,2.85,15.41,10.59,17.82,18.48,2.66,8.71,3.69,16.49.49,24.96-3.4,8.99-9.54,13.62-17.43,18.01-2.46,1.37-4.71,2.59-7.12,3.61m-47.78-95.89c-5.93,2.5-11.26,6.44-16.41,10.32-1.25.94-2.45,1.88-3.64,2.9-8.53,6.98-14.8,15.72-18.81,26.24-2.73,7.29-4.14,14.81-4.22,22.55-1.13,1.19-2.19,2.46-3.16,3.72-2.65,3.44-4.8,7.63-5.96,11.91-1.71,6.3-2,11.87.23,18.28,1.66,4.78,4.77,8.77,8.52,12.01,3.36,2.92,7.72,3.13,11.37,1.59,1.75-.74,3.34-1.87,4.58-3.31,6.79,8.25,15.02,14.5,24.67,18.76,6.16,2.76,12.82,4.01,19.28,5.77,4.54,1.23,6.6,1.02,12.28,1.13,4.95.09,8.17.64,12.48-.46,6.98-1.78,14.07-3.32,20.92-5.54,1.18-.38,2.37-.83,3.57-1.33,9.92-4.18,19.96-12.28,25.71-21.12,3.25-5.01,6.16-11.12,8.77-16.55,4.53-9.45,5.4-23.58,3.87-34.01-2.63-17.83-12.62-35.69-27.6-45.59-9.4-7.29-19.84-11.85-31.3-13.68-6.17-.43-12.32-.52-18.45-.28-1.72.26-3.42.69-5.12,1-6.51,1.19-13.54,2.75-19.74,4.99-.61.22-1.21.46-1.8.71"/>
        <path class="cls-8" d="m731.22,696.7c-6,2.53-14.68,8.82-18.23,14.45-4.27,6.78-7.27,15.55-5.68,23.99.8,2.87,1.6,5.73,2.39,8.6,2.35,5.53,5.85,10.14,10.51,13.81,5.24,4.87,14.61,8.01,21.38,9.36,6.86,1.37,15.09-.15,21.71-1.9,1.72-.46,3.29-1.01,4.8-1.64,2.41-1.02,4.66-2.24,7.12-3.61,7.89-4.39,14.03-9.02,17.43-18.01,3.2-8.47,2.17-16.25-.49-24.96-2.41-7.89-10.45-15.63-17.82-18.48-3.37-1.3-7.02-2.06-10.49-3.02-5.67-1.56-9.89-2.38-16.23-1.9-5.46.41-11.45,1.22-16.42,3.31"/>
        <path class="cls-4" d="m142.82,837.73c-.94.2-2.03.3-2.95.59-1.99.62.7.75-.86.26-2.15-.67-4.19-1.65-6.48-1.44-3.92.35-7.75,1.34-11.7,1.6-7.27.48-13.93-.04-21.81-1.65,1.65.72,3.31,1.44,4.96,2.17-3.35-2.6-7.11-3.46-10.94-4.9-3.27-1.22-6.47-2.64-9.6-4.23-1.42-.72-2.8-1.52-4.21-2.27-1.6-.85,2.31,1.51.04.02-.73-.48-1.47-.94-2.19-1.42-2.93-1.95-5.91-3.83-8.82-5.82-2.82-1.93-5.54-4.03-8.12-6.29-.71-.62-1.41-1.26-2.11-1.91-1.57-1.46-1.32-1.01.08.18-1.41-1.19-2.65-2.81-3.86-4.22-2.5-2.91-4.88-5.88-7.43-8.75-2.77-3.11-5.46-5.86-9.46-7.02-2.07-.6-3.92-.82-6.11-.53-1.63.21-6.15,1.55-2.06.5,2.58,1.13,5.15,2.25,7.73,3.38-3.76-4.97-5.46-11.99-6.52-18.1-.51-2.96-.9-6.01-.97-9-.09-4.1.75-8.11.25-12.21-1.01-8.27-11.93-9.25-14.88-2.26-1.83,4.34-1.58,9.46-1.43,14.17.13,3.92.58,7.84,1.37,11.7,1.73,8.48,5.38,16.04,8.01,24.19.78-3.38,1.57-6.77,2.35-10.15-17.88,16.83,11.05,42.24,25.19,51.41,8.24,5.35,16.41,8.49,25.76,10.84,7.84,1.97,18.53,4.43,26.02,1.33-1.8.22-3.61.44-5.41.66,8.13.53,16.26.42,24.25-.93,4.14-.7,8.23-1.71,12.25-2.91,1.94-.58,4.15-1.08,5.76-2.38,1.57-1.27,2.8-3.31,3.96-4.97-.71.57-1.42,1.14-2.13,1.71,1.83-1.07,3.65-2.16,5.42-3.32,3.5-2.29.68-8.89-3.38-8.02Z"/>
        <path class="cls-4" d="m341.4,587.68c-1.68-2.98-3.21-4.76-6.34-6.2-1.68-.77-3.42-1.41-5.16-2-4-1.36-8.08-2.46-12.15-3.49-.91-.23-1.83-.46-2.74-.68-.37-.09-.73-.18-1.1-.27-1.38-.37-.76-.07,1.85.89-.12-.67-3.32-2.64-3.95-3.16-1.33-1.12-2.58-2.32-3.88-3.47-2.46-2.16-5.09-3.12-7.95-4.25-1.75-.69-3.47-1.46-5.15-2.3-.68-.34-1.34-.71-2.01-1.05-1.77-.9-.93-.34-.03.2.93.55,1.92,1.08.22-.05-3.02-1.99-5.92-4.1-8.64-6.52-.62-.55-1.37-1.59-2.11-1.95,2.53,2.58,2.59,2.64.15.17-.69-.78-1.43-1.5-2.21-2.18-.59-.55-1.37-1.59-2.09-1.94,2.03,2.09,2.53,2.6,1.51,1.52-.28-.29-.55-.58-.81-.87-.69-.76-1.29-1.6-1.97-2.36-1.21-1.34-.76-.5-.19.3.5.72,1.09,1.4.64.44-.57-1.46-.35-.73.64,2.18.03.96.06,1.91.08,2.87-.22.89-.44,1.78-.66,2.67.27-.56.49-1.13.66-1.73,2.45-7.29.53-16.75-6.11-21.51-6.47-4.64-15.25-5.22-21.39-.12-6.71,5.57-9.78,15.22-7.99,24.17,1.43,7.18,5.13,13.52,9.77,19.07,7.43,8.88,17.15,15.57,27.45,20.24,5.31,2.41,11.64,4.96,17.34,5.06,4.69.09,11.28-1.73,15.67-3.93,2.82-1.42-4.02-.25-.7.01,1.12.09,2.25.1,3.37.15,2.23.11,4.46.24,6.69.44,4.91.45,10.54,2.64,15.15.68,3.68-1.57,6.46-6.99,4.17-11.04"/>
        <path class="cls-4" d="m450.43,391.13c-4.11-6.11-7.96-12.58-12.67-18.21-1.07-1.28-2.13-2.56-3.28-3.77-1.32-1.4-3.06-2.42-4.32-3.85-2.38-2.69-4.13-6.73-6.02-9.82-3.89-6.34-7.78-12.68-11.66-19.03-3.7-6.04-6.47-13.23-10.29-19.68-1.78-3-3.6-5.98-5.39-8.98-.95-1.58.21.36.33.57-.45-.79-.91-1.58-1.36-2.38-1.01-1.79-2-3.58-2.98-5.39-3.35-6.21-6.48-12.57-9.24-19.07-2.76-6.51-4.87-13.22-7.07-19.92-.7-2.13.48,1.75.48,1.77-.07-.8-.47-1.82-.66-2.63-.42-1.77-.8-3.54-1.12-5.33-.53-2.9-.93-5.82-1.11-8.76-.02-.29,0-2-.09-2.06.23.16-.05,5,.08,2.12.07-1.54.13-3.06.29-4.59.16-1.52.41-3,.68-4.49.28-1.55,1.23-2.53-.52,2.14.23-.6.36-1.26.57-1.87.46-1.38,1.04-2.68,1.61-4.01.94-2.19-2.57,3.88-1.1,2.09.47-.58.84-1.33,1.28-1.94.16-.21,1.03-1.48,1.15-1.46.1.02-3.86,3.69-1.68,1.82,1.21-1.03,2.4-1.97,3.75-2.82-1.56.93-3.12,1.86-4.68,2.8,2.01-1.15,4.06-2,6.29-2.61-1.77.47-3.55.94-5.32,1.41,3.64-.86,6.38-1.54,9.48-3.4,1.52-.91,2.96-1.88,4.46-2.81-1.48.88-2.96,1.77-4.43,2.65,3.09-1.78,6.1-3.66,9.1-5.59-2.58,1.09-5.16,2.18-7.75,3.26,2.62-.24,5.28-.29,7.89-.64,2.21-.3-.49-.17-.51-.14.05-.11,1.91.21,2.11.23,1.41.16,2.82.33,4.23.5,3.37.4,7.2,1.25,10.54.86,5.68-.67,11.25-5.43,11.03-11.75-.19-5.58-3.92-10.44-8.96-12.45-2.61-1.04-5.39-1.77-8.04-2.68-6.37-2.17-12.31-5.01-18.86-6.68,2.51,1.1,5.03,2.2,7.54,3.3-9.41-7.44-21.27-9.76-31.93-4.78-9.74,4.55-16.57,11.88-21.51,21.54-7.02,13.72-6.7,31.51-2.85,46.54,2.49,9.7,5.57,19.02,10.43,27.81,4.77,8.63,10,16.91,15.96,24.74,5.28,6.95,10.84,13.81,16.71,20.24,3.21,3.51,6.88,6.63,10.36,9.85,3.13,2.88,5.74,5.93,8.66,9.19,3.5,3.9,6.99,7.81,10.49,11.71,2.88,3.21,6.78,6.56,8.89,10.32,1.43,2.55,2.46,5.14,4.11,7.63,1.47,2.22,2.9,4.34,4.59,6.39,3.33,4.04,6.65,8.08,9.98,12.13,6.81,8.28,18.28-1.15,12.33-9.99Z"/>
        <path class="cls-4" d="m1027.16,365.51c4.44-2.07,8.86-4.6,13.57-5.98,1.93-.56,3.86-1.11,5.8-1.63,2.82-.77,5.41-2.46,8-3.82,4.02-2.11,7.99-4.34,12.03-6.42,4.36-2.24,9.03-3.96,13.53-5.93,9.45-4.15,18.18-10.12,26.79-15.8,8.18-5.4,16.03-11.23,23.64-17.44,14.95-12.2,29.5-25.61,41.86-40.63,5.26-6.39,10-13.22,14-20.55,5.28-9.66,8.57-19.81,10.54-30.86.8-4.48,1.15-9.01,1.14-13.58-.02-8.11-1.16-14.82-3.42-22.64-3.79-13.15-15.41-30.31-30.46-27.74,2.61.75,5.22,1.51,7.84,2.26-.94-.82-.99-.93-.16-.32-.3-.44-.62-.88-.93-1.32-.63-.87-1.28-1.73-1.94-2.58-1.44-1.84-2.96-3.61-4.56-5.31-3.51-3.74-7.19-7.31-11.18-10.49-4.05-3.22-8.37-5.98-12.81-8.56-4.1-2.38-10.1-4.79-14.7-5-3.55-.16-7.7.63-9.66,4.07-.18.31-.35.62-.55.92,1.01-.81,2.01-1.61,3.02-2.42-.72.4-1.44.8-2.15,1.21-3.15,1.82-3.94,5.03-1.93,8.32,1.04,1.91.95.86-.27-3.17-.09.99-.08,2,.03,3.01.55,2.94,1.93,5.42,4.23,7.35,2.3,1.93,5.39,3.16,8,4.56.31.18.63.36.94.54-1.6-.96-.98-.59,1.87,1.11.95.51,1.92.97,2.88,1.45,1.28.64,2.53,1.33,3.79,2.01,2.12,1.13-1.07-.75,1.16.68,3.93,2.53,7.7,5.28,11.23,8.4.94.83,1.85,1.69,2.76,2.56.55.54.51.5-.1-.11.5.52.99,1.04,1.48,1.57.72.8,1.43,1.61,2.13,2.43.46.55.91,1.1,1.36,1.66-.52-.98-.51-.88.04.3.37-3.64.73-7.28,1.1-10.92-3.46,5.28-4.35,10.73-3.39,17.1.49,3.21.5,6.57,1.27,9.71,1.6,6.46,1.94,13.06,2.06,19.65-.03-1.85-.06-3.7-.1-5.56,0,3.17-.15,6.31-.54,9.44-.21,1.74-.49,3.46-.82,5.17-.13.69-.31,1.37-.42,2.05,1.1-6.33.66-2.69.25-1.17-1.72,6.29-4.06,12.51-6.52,18.49-1.22,2.96-2.55,5.87-3.98,8.72-.39.79-.86,1.56-1.21,2.36.11-.24,2.29-4.16.76-1.46-.89,1.56-1.77,3.13-2.69,4.67-3.67,6.12-7.73,11.97-12,17.65-4.77,6.34-9.9,12.36-15.33,18.09,2.25-2.38-1.06,1.09-1.66,1.7-1.32,1.35-2.64,2.7-3.98,4.03-2.82,2.81-5.69,5.57-8.6,8.28-11.67,10.89-23.79,21.23-34.97,32.65-6.05,6.19-12.75,11.44-19.5,16.79-3.46,2.74-6.1,5.85-9.01,9.17-3.07,3.51-7.15,6.28-10.71,9.25-.96.8,0,2.59,1.18,2.03Z"/>
        <path class="cls-4" d="m1105.69,136.62c.29-.12.09-.59-.2-.47-.29.12-.09.59.2.47Z"/>
        <path class="cls-4" d="m1031.42,745.42c-.84-.65-1.69-1.3-2.53-1.94-.81-.62-2.01.53-1.24,1.32.74.76,1.48,1.52,2.22,2.27.49.5,1.19.66,1.7.12.46-.49.41-1.33-.16-1.76Z"/>
        <path class="cls-4" d="m1023.44,743.27c1.4.37,3.79.53,4.91,1.41.86.67,1.11,1.8,1.75,2.63.82,1.07,1.38,1.32,2.22,2.05-1.04-.9-.29-.23.46.45.5.45,1,.9.97.88,1.42,1.11,2.96,1.65,4.63,2.03,1.86.42,3.75.69,5.61,1.11,6.45,1.45,9.51,2.21,15.81,4.94,11.81,5.11,23.95,9.24,35.84,14.18,12.55,5.21,25.04,10.56,37.71,15.43,14.43,5.55,29.3,9.8,44.09,14.02,27.46,7.84,55.37,14.45,83.43,18.87,14.42,2.27,29.75,3.32,43.93.22,14.06-3.07,27.25-8.62,38.53-17.77,13.55-10.99,22.28-26.06,25.69-43.64,1.55-7.95,1.08-16.55-.68-24.57-1.04-4.7-2.18-9.62-4.03-14.1-2.34-5.7-7.29-10.09-12.61-12.64-4.27-2.04-8.09-2.1-12.61-1.68,3.39,2.06,6.77,4.11,10.16,6.17-1.59-3.35-3.37-6.57-5.26-9.75-1.91-3.23-4.18-5.63-6.85-8.24-6.65-6.51-17.83,2.83-13.65,10.96,1.51,2.94,3.05,5.77,4.86,8.54.71,1.09,1.41,2.18,2.06,3.31-.59-1.02,1.15,2.19,1.34,2.57.89-3.86,1.79-7.72,2.68-11.58-7.23,6.19-11.17,14.82-9.1,24.88.81,3.94,1.27,7.91,1.41,11.92-.03-1.92-.07-3.85-.1-5.78.09,6.07-.28,12.25-1.65,18.1.44-1.83.88-3.67,1.31-5.5-.97,3.76-2.31,7.31-4.05,10.72.86-1.62,1.73-3.24,2.59-4.86-2.28,4.25-5.06,8.08-8.3,11.58,1.24-1.32,2.48-2.64,3.71-3.95-3.84,3.99-8.11,7.35-12.8,10.21,1.57-.94,3.13-1.87,4.7-2.81-5.66,3.33-11.68,5.85-18.01,7.6,1.73-.46,3.47-.92,5.2-1.37-8.93,2.32-18.2,3.45-27.47,3.54-1.15.01-5.37-.31,0,.05-.82-.06-1.66-.05-2.49-.08-2.49-.1-4.98-.25-7.46-.45-4.78-.38-9.5-1.05-14.24-1.86-19.29-3.29-38.48-7.5-57.5-12.35-4.41-1.12-8.82-2.29-13.21-3.49-2.3-.63-4.6-1.27-6.9-1.92-1.25-.35-2.52-.68-3.76-1.08.61.18,1.22.36,1.83.54-.84-.24-1.67-.49-2.51-.74-4.59-1.36-9.16-2.81-13.74-4.19-3.29-.99-6.6-1.89-9.91-2.83-1.04-.3-2.08-.58-3.11-.89,4.25,1.3-1.32-.39-2.09-.63-18.05-5.39-35.89-11.64-54.06-16.54-4.92-1.33-9.65-2.43-14.7-2.82-4.57-.36-9.15-.73-13.72-1.05-5.26-.37-11.08-1.05-16.28-.4-2.59.32-6.56,2.64-8.22,4.97-1.29,1.81-.8,1.9-2.57,2.79-1.25.63-2.69,1.03-4,1.56-.67.27-.42,1.19.2,1.36"/>
        <path class="cls-4" d="m938.69,890.2c1.43,2.88,2.77,6.24,4.76,8.77,2.15,2.74,5.56,4.91,8.26,7.03,5.53,4.33,11.26,8.37,17.13,12.17,5.99,3.88,12.12,7.53,18.32,11.03,5.74,3.24,10.84,7.16,16.9,10.61,2.5,1.42,5.06,2.72,7.7,3.8,1.5.62,11.36,3.18,11.38,3.44,0,.02-.42-.13-.84-.27-.76-.26-1.52-.53.24.16,1.49.59,3.71,1.29,4.89,1.48,2.22.37,4.57.22,6.79,0,3.99-.41,7.98-1.48,11.72-2.85,6.16-2.25,12.04-6.06,16.68-10.76,3.86-3.91,6.57-7.54,8.85-12.69,1.66-3.75,2.65-7.98,3.36-12.04,1.51-8.63.19-17.52-2.43-25.9-1.15-3.68-2.84-6.94-4.77-10.27-3.59-6.19-8.68-8.74-15.19-10.22-6.35-1.45-13.18,4.24-13.61,10.74-.29,4.32-.66,8.11.96,12.39.38,1,.81,2,1.21,3,.49,1.22.22,2.46-.25-1.19.09.69.34,1.4.48,2.09.25,1.23.43,2.47.55,3.72.04.44-.03,1.2.13,1.61,0,0,.02-.58.03-1.15.02-.86.02-1.71-.05-.63-.08,1.24-.09,2.48-.24,3.71-.06.53-.14,1.06-.22,1.58-.46,2.85-.38.38.27-.77-.47.84-.63,2.07-.98,2.99-.23.6-2.1,4.53-.69,1.77,1.34-2.61-.64.78-1.11,1.48-.77,1.16-1.46,2.37-2.24,3.52-.58.86-1.23,1.66-1.86,2.49-.94,1.23-.19.54.38-.09.54-.6.93-1.13-.46.16-.88.82-1.81,1.59-2.77,2.31-.41.3-.86.56-1.25.88-.99.81.4.03,1.19-.49.5-.33.76-.56.02-.22-1.09.5-2.13,1.09-3.25,1.54-.61.25-4.39,1.77-1.81.71,1.75-.72.9-.49-.34-.1-1.18.37-2.71.89-2.71.89-.54.17-1,.31-1.51.54-.2.09-.48.18-.73.26-.66.2-1.16.34.19.29,2.1-.08-.32-.06-.77-.01-1.26.13-2.52.15-3.79.19,2.56-.09-.59-.08-1.57-.18-2.6-.25-5.19-.67-7.77-1.21-5.44-1.14-9.32-2.35-14.2-4.59-5.36-2.47-10.67-5.07-15.9-7.84-5.56-2.95-11.02-6.1-16.32-9.55-2.68-1.74-5.26-3.63-7.9-5.42-3.08-2.09-6.77-2.69-10.23-3.8-2.76-.89-6.25,1.65-4.64,4.87"/>
        <path class="cls-4" d="m828,1189.95c.52,2.01,1.35,4.17,1.42,6.25.07,2.02-.48,4.09-.56,6.11-.22,5.68,2.44,11.16,4.31,16.46,2.87,8.1,5.69,16.22,8.61,24.3,5.1,14.09,12.18,28.31,21.54,40.01,10.32,12.9,23.66,22.59,39.47,26.01,16.48,3.57,34.21-3.03,47.23-12.57,6.94-5.08,13.04-11.82,17.71-19.17,2.58-4.07,4.88-8.42,6.8-12.89,2.72-6.34,4.31-11.93,1.63-18.93.28,1.88.56,3.76.84,5.63,1.12-8.96,2.23-18,4.36-26.76,2.51-10.28,5.06-20.4,6.5-30.95.64-4.71,1.32-9.42,1.88-14.15.57-4.86,1.38-9.91.06-14.78-2.01-7.46,1.14-21.28-8.13-24.58-1.1-.39-2.51-.44-3.39.44-1.41,1.39-2.55,2.71-3.02,4.76-.5,2.19.1,4.63.14,6.89.07,3.84-.05,7.74-1.44,11.26-1.79,4.55-2.3,9.54-3.3,14.35-.93,4.49-1.96,8.95-2.96,13.43-2.13,9.52-3.18,19.1-4.32,28.83-.54,4.6-1.32,9.04-2.33,13.54-.97,4.29-2.37,7.94-4.24,11.87,1.04-1.46,2.09-2.91,3.13-4.37-4.37,2.86-5.81,7.24-7.75,11.91-.58,1.41-1.23,2.78-1.87,4.16-.17.36-1.09,2.1-.07.21-.54,1-1.12,1.98-1.71,2.95-1.58,2.58-3.33,5.05-5.23,7.37-.59.73-1.23,1.41-1.83,2.14-.65.79-.24.41.07.07.28-.3.5-.58-.17.03-1.38,1.25-2.68,2.57-4.12,3.76-1.15.95-2.32,1.85-3.54,2.7-.76.53-1.53,1.05-2.32,1.54.46-.29,2.15-1.07-.03-.05-1.31.62-2.61,1.24-3.96,1.77-.67.27-1.36.52-2.04.76-.4.14-3.9,1.12-.85.37-2.99.74-6.04,1.22-9.13,1.4-.73.04-1.46.03-2.19.08-.89.06-.47.14.06.17.7.04,1.57.02-.4-.19-1.63-.18-3.25-.34-4.88-.55-1.63-.22-3.25-.43-4.86-.77-.71-.15-1.42-.34-2.13-.51,2.57.59.75.22.16,0-1.32-.5-2.64-.99-3.93-1.58-.78-.36-1.55-.73-2.31-1.13-1.3-.68-1.66-.95-.19-.02-2.63-1.66-5-3.54-7.38-5.55-.47-.4-1.75-1.81.19.25-.48-.51-.96-1.01-1.42-1.52-1.18-1.29-2.31-2.64-3.39-4.01-1.77-2.24-3.41-4.57-4.96-6.97-.49-.76-.97-1.52-1.44-2.29-.23-.38-1.44-2.38-.5-.8.94,1.58-.25-.45-.46-.83-.53-.96-1.06-1.93-1.57-2.9-3-5.7-5.56-11.61-8.35-17.41-3.82-7.97-7.47-16.02-11.19-24.04-2.04-4.39-3.77-9.67-6.75-13.49-1.57-2.02-3.68-3.6-5.61-5.25-1.85-1.58-2.71-3.23-3.94-5.37-1.36-2.36-3.53-3.96-6.24-3.2-2.25.63-4.42,3.16-3.73,5.82"/>
        <path class="cls-4" d="m612.42,1112.29c-1.63,9.6-3.25,19.3-2.96,29.16.07,2.54.34,5.06.5,7.59.15,2.41-.4,4.65-.6,7.02-.37,4.45,1.82,7.8,4.2,11.45-.04-1.48-.09-2.97-.13-4.45-10.48,12.17,8.26,26.22,18.69,29.53,12.59,3.99,25.31.41,35.51-7.25,9.37-7.04,15.82-17.82,19.02-29.34,1.02-3.69,2.06-7.26,1.57-11.18-.36-2.92-1.21-5.76-1.53-8.69-.62-5.68.26-12.18-2.79-17.2-1.78-2.92-6.24-2.47-7.94-.04-2.79,3.98-2.09,9.4-3.55,13.98-1.35,4.23-4.45,7.58-5.65,12.02-.63,2.35-1.38,4.66-2.27,6.91-.48,1.21-1.02,2.39-1.55,3.58-.46,1.03-.31.84-.23.68.08-.16.11-.29-.51.71-1.1,1.77-2.29,3.42-3.55,5.07-.85,1.12-.49.8-.26.54.19-.22.29-.4-.49.33-.87.81-1.73,1.62-2.65,2.37-.79.64-1.59,1.25-2.43,1.83-.41.29-.83.57-1.26.84,1.17-.69,1.17-.71,0-.06-1.82.83-3.63,1.54-5.49,2.27,2.33-.92-.25.03-.85.13-.96.17-1.94.2-2.91.34-1.33.03-1.3.06.08.08-1-.02-2.01-.04-3.01-.06,2.67.15-.89-.19-1.41-.28-.38-.06-3.14-.81-2.01-.41,1.1.39-2-.92-2.34-1.05-.96-.37-.81-.21-.58-.07.26.15.61.27-.44-.47-.83-.59-1.64-1.17-2.43-1.82-.09-.07-2.57-2.23-1-.77-2.22-2.05-4-3.58-6.95-4.17-2.55-.51-4.89-.18-7.37.51,1.55.68,3.1,1.35,4.65,2.03-.79-1.79-1.41-3.6-2.07-5.44-.69-1.93-1.8-3.15-3.04-4.72-3.05-3.87-3.49-8.37-3.64-13.13-.3-9.53,1.13-18.92,2.57-28.24.09-.6-.81-.73-.91-.14"/>
        <path class="cls-4" d="m360.82,1042.14c-3.23,1.01-6.24,2.44-9.08,4.3-1.3.85-2.44,1.92-3.83,2.5-.99.42-1.99.22-3.06.67-1.11.47-2.06,1.35-2.98,2.12-2.89,2.47-5.59,5.22-7.93,8.26-3.35,4.35-4.63,9.56-5.32,15.07-2.53,20.02,5.78,38.69,20.28,52.27,13.48,12.62,34.6,20.56,52.23,16.97,9.98-2.03,19.35-5.69,28.33-10.4,4.52-2.37,8.91-5.04,13.19-7.84.96-.63,1.91-1.27,2.86-1.92.3-.21,3.24-2.59.9-.86,2.43-1.8,5.29-3.16,7.84-4.83,8.45-5.54,16.32-12,23.46-19.23,2.11-2.14,4.17-4.33,6.19-6.55,1.32-1.45,2.24-2.49,3.03-4.5.18-.46,1.11-6.05.99-6.03-.36.05-1.21,2.11-.04.25.84-1.34,1.6-2.74,2.36-4.13,2.51-4.55,2.57-7.56.01-12.33-.06.58-.12,1.15-.17,1.73.99-1.85,1.95-3.71,2.88-5.59.59-1.21-1.23-2.19-1.99-1.19-1.19,1.57-2.4,3.11-3.63,4.63.52-.22,1.04-.44,1.56-.66-3.38-.76-6.3-.93-9.1,1.22-1.2.92-3.27,2.71-4.13,3.97-.28.26-.57.52-.85.77,1.88-.41,2.3-.55,1.27-.42-.04-.4-6.34,1.69-4.3.91-2.79,1.07-4.54,2.85-6.61,4.94-5.64,5.69-11.73,10.88-18.2,15.54-1.58,1.14-3.18,2.24-4.81,3.31-.65.43-1.3.85-1.96,1.27.1-.07-3.14,1.96-1.53.97,1.61-.98-1.66.96-1.56.9-.66.38-1.34.8-2.03,1.13-2.07,1-4.31,1.77-6.47,2.56-3.65,1.35-7.36,2.52-11.1,3.61-.44.13-1.95.75-2.26.64.55-.14,1.1-.29,1.64-.43-.56.14-1.11.28-1.67.42-2.05.5-4.11.95-6.18,1.35-4.26.82-8.57,1.62-12.91,1.92-.88.06-1.79.05-2.67.13-.33,0-.66,0-.99.01,3.99.08,3.33.06-1.99-.04-.65.01-1.31.03-1.96.07-3.3.2,4.19.27,0,.01-3.15-.19-6.23-.74-9.32-1.44-3.48-.79,3.64,1.34.25.08-.63-.24-1.27-.43-1.9-.67-1.88-.7-3.72-1.51-5.52-2.42-.6-.3-1.18-.63-1.77-.94-3.02-1.61,2.4,1.63.54.31-1.37-.98-2.78-1.89-4.1-2.94-.34-.27-3.22-3.07-3.42-2.97.48.5.97,1,1.45,1.49-.47-.49-.93-.98-1.38-1.49-.67-.76-1.33-1.54-1.95-2.34-1.04-1.34-1.95-2.76-2.92-4.15-1.71-2.45.6.86.46.92-.08.03-1.32-2.53-1.41-2.72-.64-1.37-1.21-2.77-1.7-4.2-.48-1.39-.12-2.63.02.36-.04-.89-.49-2.08-.66-2.97-.38-1.99-.56-3.97-.73-5.98-.21-2.52-.09.18-.01.49-.25-1.01.07-2.49.15-3.52.21-2.58.18-5.1-.15-7.69-.12-.91-.17-1.82-.26-2.73-.22-2.11-.15,1.38-.03-1.07.09-1.71.31-3.39.45-5.09.19-2.3-.82-3.69-.15-4.75,2.15-3.42,4.46-6.41,7.53-8.99,1.02-.86,0-2.4-1.18-2.03Z"/>
        <path class="cls-6" d="m1087.05,167.78c-.12.05-.24.1-.36.15-7.42,3.25-10.79,6.8-16.15,12.68-1.62,1.77-3.19,3.57-4.71,5.43-5.95,7.29-8.92,16.46-8.5,25.89-5.6,9.02-11.09,18.11-17.05,26.87-3.9,5.73-6.96,11.56-9.68,18-1,2.38-2.09,4.69-3.17,7.02-.51.48-1.03.95-1.56,1.41-1.13,1.01-2.29,1.98-3.47,2.94-7.02,5.76-.18,18.9,8.31,15.33.16-.07.31-.14.47-.22,1.34-.66,2.67-1.33,3.99-2.05.63-.34,1.37-.65,1.95-1.09.18-.14,1.27-.96.61-.68-.03.01-.07.03-.12.05.15-.07.31-.14.47-.21,2.9-1.22,6.51-1.51,9.52-2.38,2.27-.66,4.44-1.42,6.53-2.3,4.48-1.89,8.61-4.33,12.61-7.48,8.17-6.42,16.03-13.26,24.25-19.6,5.27.45,10.51-.2,15.43-2.28,1.11-.47,2.19-1,3.27-1.62,2.07-1.18,4.18-2.25,6.29-3.35,7.14-3.74,10.76-7.07,15.95-12.95.96-1.09,1.89-2.2,2.84-3.29,1.46-2.75,2.93-5.5,4.39-8.24,1.89-4.5,2.6-9.18,2.12-14.05-.14-8.07-2.52-16.93-7.86-23.31-4.18-4.99-9.21-8.94-14.95-11.75-8.84-4.32-18.92-3.26-27.63-.34-1.28.43-2.56.87-3.8,1.4"/>
        <path class="cls-6" d="m1193.3,703.39c-1.85.78-3.66,1.65-5.49,2.71-4.02,2.32-8.21,4.29-11.44,7.73-1.87,1.99-3.12,4.06-4.07,6.37-1.84.76-3.71,1.32-5.85,1.8-.15.03-.3.08-.45.14-1.92.81-3.13,3.84-.83,5.27,2.03,1.27,3.9,2.41,5.65,3.87.91,6.59,4.69,11.24,9.18,15.71,2.44,2.42,4.86,5.26,7.57,7.34,2.56,1.97,5.6,3.47,8.35,5.14,2.96,1.8,5.93,3.58,8.9,5.36,2.97,1.9,5.98,3.71,9.05,5.42,3.55,1.31,7.15,2.32,10.82,3.05,1.71.38,3.42.73,5.13,1.09,3.42.72,6.84,1.41,10.27,2.09,6.98,1.38,13.68,1.83,20.74,2.05,1.74.05,3.48.1,5.22.15,3.92.1,7.84.17,11.77.23,3.94-.64,7.8-1.62,11.58-2.94,3.05-.82,6.09-1.65,9.12-2.51.76-.22,1.48-.48,2.19-.78,2.19-.92,4.2-2.18,6.29-3.37,4.35-2.49,9.79-4.84,13.4-8.12,2.04-1.85,3.79-3.84,5.22-5.98,0-.02.01-.04.02-.06.66-3.75.95-7.6,1.02-11.44-.21-3.28-.64-6.53-1.3-9.77-.76-3.68-.71-7.18.02-10.43-1.71-2.57-3.83-4.96-6.31-7.26-3.2-2.97-7.67-5.1-11.32-7.42-5.08-3.23-8.68-5.17-13.79-7.11-3.79-1.44-7.45-2.76-11.35-3.9-14.58-4.25-30.38-4.02-45.24-3.77-5.1.09-10.25-.08-15.34.11-4.71.18-10.51,2.9-15.27,4.51-2.15.73-4.31,1.45-6.47,2.16-2.43.8-4.72,1.6-6.96,2.54"/>
        <path class="cls-6" d="m878.34,1059.93c-1.47.62-2.56,2.27-1.83,4.32,1.7,4.84,3.37,9.69,4.98,14.57,1.45,4.38,3.62,9.06,3.46,13.66-.33,10.04.2,19.59,2.15,29.52.93,4.75,1.82,9.51,2.66,14.28.4,2.27.79,4.55,1.17,6.82.02.14.37,2.5.49,2.67-.04.73-.15,1.48-.2,2.19-.51,7.81-1.03,15.6-2.24,23.29-.45,1.14-.9,2.29-1.36,3.43-.43,1.06-.91,2.12-1.29,3.2-1.87,5.31-2.01,10.62-1.75,16.27.23,4.84.99,9.71,1.48,14.54.83,8.2,2.6,16.98,6.75,24.13,5.24,9.04,13.84,15.68,24.03,17.06,5.37.73,10.77-.05,15.64-2.1,4.97-2.09,9.39-5.51,12.66-9.98,10.22-13.98,6.01-31.07,2.09-46.77-1.74-6.99-3.22-14.18-7.85-19.96-1.4-1.75-3.08-3.34-4.61-4.97-2.43-2.59-4.43-5.58-6.29-8.65-2.28-3.99-4.59-7.96-6.92-11.92-1.08-1.83-2.16-3.65-3.26-5.47-.4-.66-1.08-1.45-1.32-2.18.48.72.75,1.07.81,1.05.05-.02-.03-.25-.22-.69-.23-.65-.46-1.31-.69-1.96-3-8.5-6.18-16.93-9.47-25.32-1.61-4.1-3.89-7.46-6.32-11.66-2.41-4.17-5.91-7.33-8.41-11.35-2.36-3.78-3.49-9.05-5.09-13.21-1.67-4.35-3.38-8.67-5.13-12.99-.82-2.03-2.66-2.43-4.11-1.82"/>
        <path class="cls-6" d="m962.81,848.58c-.85.36-1.63.81-2.17,1.39-.14.05-.28.11-.41.17-5,2.11-8.21,7.16-5.68,13.2.11.26.22.52.33.78.02.11.04.24.07.39.03.26.07.52.1.77,1.11,5.73,4.14,9.68,8.38,13.37,3.43,2.99,6.97,6.26,10.75,8.73,4.78,3.12,9.91,5.73,14.87,8.51,2.69,1.51,5.11,2.95,8.06,3.81,3.8,1.11,8.45,1.25,12.4.53,1.61-.29,3.11-.73,4.51-1.31,3.51-1.48,6.31-3.94,8.3-7.66,2.47-4.64,3.34-10.95.74-16.03-1.49-2.91-3.18-6.06-5.28-8.59-3.35-4.04-7.69-6.32-12.23-8.47-4.18-1.98-8.33-4.16-12.58-5.96-4.97-2.11-10.55-3.1-15.75-4.46-3.66-.96-7.1-1.24-10.73-.28-1.05.28-2.44.61-3.67,1.13"/>
        <path class="cls-6" d="m629.16,1095.09c.49-.9.83-1.56,1.03-1.97-.28.8-.66,1.8-1.03,1.97m15.03-23.5c-3.57,1.51-6.47,4.4-8.18,8.36-1.77,4.11-3.59,8.19-5.48,12.24-.04.09-.1.23-.16.41,0,0,0,0,0,0-.05.02-.21.21-.47.57-.24.31-.47.63-.71.94-1.32,1.73-2.65,3.45-3.99,5.15-3.75,4.76-6.25,10-8.74,15.57-1.44,3.23-2.45,6-3.29,9.53-1.29,5.38-.84,10.36.37,15.71,2.13,9.36,6.94,17.18,15.86,21.08,1.99.87,4.13,1.47,6.33,1.81-.02,0-.05.01-.07.02.08,0,.16,0,.24,0,4.39.63,9,.16,13.02-1.53,2.03-.85,3.9-2.02,5.52-3.51-.02,0-.03,0-.05.01.53-.46,1.05-.94,1.6-1.45,2.22-2.07,4.8-4.34,6.47-6.69,3.01-4.21,4.74-9.48,5.48-14.67.97-6.81,1.91-14.21.66-21.04-.88-4.83-2.29-9.76-2.47-14.64-.18-5.02-.41-10.03-.74-15.05-.44-6.68-7.09-13.21-13.42-13.9-2.79-.3-5.44.09-7.79,1.08"/>
        <path class="cls-6" d="m389.48,1029.81c-4.92,2.07-9.53,4.78-12.63,7.82-4.86,4.76-8.35,9.6-10,16.53-1.54,6.44-1.47,13.91,1.49,20.19,6,12.7,18.57,21.07,32.22,19.56,3.97-.44,8.42-1.7,12.73-3.51,5.91-2.49,11.56-6.04,15.35-9.96,1.07-1.11,2.14-2.21,3.2-3.32,1.65-1.76,3.3-3.52,4.96-5.28,1.61-2,2.9-4.22,3.86-6.68.71-.54,1.42-1.08,2.13-1.61,6.84-5.2,9.65-16.55,5.75-24.8-1.62-3.44-3.89-6.43-6.75-8.87-3.5-2.99-10.58-5.42-15.01-4.34-1.23.3-2.45.6-3.68.9-1.38-.31-2.76-.62-4.14-.82-4.67-.69-9.38-.25-14.02.12-4.53.37-10.17,1.86-15.45,4.08"/>
        <path class="cls-6" d="m84.96,736.68c-1.47.62-2.92,1.35-4.39,2.23-2.56,1.53-4.52,2.81-6.74,4.62-10.27,8.4-14.3,22.68-10.62,35.9,1.72,6.19,4.6,11.22,9.09,15.76,5.57,5.63,11.4,8.25,18.95,10.09,11.94,2.91,25.51-1.3,36.56-5.46,3.36-1.27,6.74-2.51,10.13-3.72.45-.16.89-.33,1.32-.52,2.87-1.21,5.52-2.87,8.39-4.1.12-.05.23-.1.35-.15,6.24-2.63,12.9-4.34,19.2-6.82,6-2.36,12.05-4.62,18.2-6.57,4.57-1.02,9.14-2,13.73-2.92,3.38-.68,6.77-1.21,9.89-2.52,1.25-.53,2.46-1.18,3.6-2.02,1.51-1.11,2.66-2.55,3.73-4.06,8.09-1.76,16.15-3.49,24.17-5.61.15-.04.3-.09.45-.15,2.14-.9,3.3-3.91,2.97-6.16-.41-2.84-2.57-4.66-5.14-5.32-8.09-2.07-16.1-3.38-24.28-4.5-.87-.91-1.78-1.8-2.75-2.57-4.05-3.2-8.56-3.62-13.3-3.95-4.9-.34-9.8-.63-14.71-.85-9.89-.46-19.75-2.66-29.62-3.53-4.83-.43-9.67-.2-14.49-.53-2.28-.16-4.56-.6-6.83-.89-4.87-.63-9.8-.48-14.68-.44-5.17.05-10.54-.23-15.64.54-2.56.38-5.13.83-7.65,1.35-3.62.73-6.81,1.56-9.91,2.86"/>
        <path class="cls-6" d="m309.38,526.44c-10.75,4.53-18.03,14.69-17.81,27.66.04,2.43.33,4.94.9,7.41.06.04.12.08.18.12.05.02.1.05.15.07.67.34,1.34.71,2.01,1.05,1.69.84,3.41,1.61,5.15,2.3,2.86,1.13,5.49,2.09,7.95,4.25,1.3,1.15,2.55,2.35,3.88,3.47.5.42,2.66,1.77,3.55,2.63.8.2,1.59.39,2.39.59,4.08,1.03,8.16,2.12,12.15,3.49,1.74.59,3.48,1.23,5.16,2,.88.4,1.63.83,2.29,1.31.36-.14.73-.29,1.09-.44.6-.25,1.2-.52,1.79-.79,6.77-3.14,11.49-7.91,14.37-14.16,4.18-3.4,6.8-9.19,5.75-14.78-.89-4.75-3.22-8.32-6.55-10.81-3.26-5.94-9.15-10.69-14.83-13.35-7.25-3.38-14.76-5.46-22.61-4.07-2.45.43-4.79,1.12-6.98,2.05"/>
        <path class="cls-6" d="m417.05,252.19c-1.12.47-2.22,1.03-3.3,1.68-4.45,2.66-9.38,7.25-10.77,12.65-1.49,5.79-2.54,10.03-1.47,16.15.57,3.29,1.52,7.56,2.66,10.19,2.09,4.82,5.26,9.16,8.31,13.38,3.7,5.12,7.48,10.17,11.32,15.18,7.39,9.66,14.98,19.17,22.55,28.68,3.83,4.81,7.91,9.41,11.93,14.06,5.11,5.91,10.14,12.9,16.34,17.54,9.81,7.34,20.25,13.64,29.97,21.15,4.55,3.52,9.79,3.77,14.13,1.93,6.86-2.89,11.51-10.95,7.81-19.55-4.71-10.94-8.66-22.13-12.72-33.32-2.72-7.49-8.14-14.16-12.64-20.69-3.63-5.27-7.17-10.61-11-15.72-7.3-9.74-14.62-19.47-21.74-29.35-10.09-14-19.65-33.59-38.24-35.72-4.66-.53-9.02.01-13.14,1.75"/>
        <path class="cls-6" d="m653.29,225.91c-3.15,1.33-5.92,3.53-7.86,6.68-3.46,5.61-4.78,11.41-5.17,17.99-.43,7.14,2.06,14.23,4.58,20.93,2.61,6.95,6.9,13.57,10.62,19.97,2.54,4.38,5.22,8.44,10.1,10.33,3.87,1.5,7.65,1.83,11.59.79.85-.23,1.66-.5,2.43-.83,7.47-3.15,11.08-10.79,10.55-19.42-.38-6.09-.62-12.18-.73-18.28.03,1.69.06,3.38.09,5.07-.11-5.75-.45-11.27-1.4-16.98-1.35-8.08-6.98-18.62-13.37-23.4-6.06-4.53-14.63-5.72-21.41-2.87"/>
        <path class="cls-6" d="m619.22,68.59c-.24.1-.49.21-.73.33-1.96,1.17-3.92,2.34-5.87,3.51-1.52,1.62-3.04,3.24-4.56,4.86-2.6,3.68-4.17,7.82-4.69,12.42-.03.19-.07.38-.1.57-.48,4.58.18,9.02,1.97,13.33,1.83,4.3,4.54,7.87,8.16,10.72.16.11.32.22.48.32,2.69,2.26,5.68,3.72,8.97,4.38,2.11.91,4.28,1.25,6.52.99,3.19.34,6.26-.11,9.21-1.36.25-.1.49-.21.74-.33,1.96-1.17,3.92-2.34,5.87-3.51,1.52-1.62,3.04-3.24,4.56-4.86,2.08-2.71,3.39-5.75,3.91-9.14.81-2.15,1.05-4.4.72-6.72.23-3.57-.43-7.02-1.99-10.37-1.2-2.07-2.4-4.14-3.61-6.22-1.62-1.64-3.24-3.27-4.86-4.91-2.69-2.26-5.68-3.72-8.97-4.38-2.11-.91-4.28-1.25-6.52-.99-3.19-.34-6.26.11-9.22,1.36"/>
        <path class="cls-5" d="m627.72,82.51c5.12-2.16,8.03-8.96,5.45-14.41-2.59-5.48-8.63-8.48-14.12-6.17-5.12,2.16-8.03,8.96-5.45,14.41,2.59,5.48,8.64,8.48,14.12,6.17Z"/>
        <path class="cls-5" d="m1263.16,79.91c11.54-4.86,18.1-20.2,12.29-32.51-5.83-12.35-19.47-19.13-31.85-13.91-11.54,4.86-18.1,20.2-12.29,32.51,5.83,12.35,19.47,19.13,31.85,13.91Z"/>
        <path class="cls-5" d="m1174.72,946.53c-.4-.13-.81-.25-1.21-.38-.98-.28-1.96-.57-2.93-.85-1.02-.02-2.04-.04-3.06-.06-1.63.13-3.1.67-4.39,1.61-.97.41-1.77,1.05-2.4,1.92-.8.66-1.39,1.48-1.77,2.46-.6.85-.96,1.8-1.08,2.85-.37.99-.48,2.02-.33,3.09-.11,1.64.2,3.23.91,4.77.55.95,1.1,1.9,1.66,2.86.74.75,1.49,1.5,2.23,2.25.89.53,1.77,1.06,2.66,1.59.98.29,1.96.57,2.93.86,1.02.02,2.04.04,3.06.06,1.63-.13,3.1-.67,4.39-1.61.97-.41,1.77-1.05,2.4-1.92,1.15-1.02,1.97-2.29,2.49-3.81.19-.38.38-.75.58-1.13.56-1.33.77-2.72.63-4.16.1-1.48-.18-2.92-.83-4.32-.5-.86-1-1.73-1.5-2.59-1.2-1.55-2.68-2.71-4.43-3.48Z"/>
        <path class="cls-5" d="m207.4,1152.63c-.1.86-.2,1.73-.29,2.59.03,1.82.06,3.63.09,5.45.32,2.92,1.3,5.56,2.95,7.92.75,1.76,1.86,3.22,3.34,4.39,1.77,2.1,3.93,3.66,6.48,4.66,1.68.49,3.36.98,5.04,1.47,1.75.03,3.51.07,5.26.1,2.81-.23,5.32-1.15,7.55-2.77,2.42-1.16,4.39-2.9,5.92-5.22.49-.69.98-1.39,1.47-2.08,2.12-3,3.4-6.38,3.83-10.12.41-3.87-.15-7.63-1.67-11.27-.98-1.69-1.96-3.38-2.94-5.07-2.35-3.03-5.24-5.3-8.67-6.81-2.56-1.23-5.2-1.76-7.92-1.57-2.81-.3-5.52.16-8.11,1.37-6.77,2.85-11.48,9.38-12.33,16.94Z"/>
        <path class="cls-5" d="m129.48,763.11c-2.11-.22-4.23-.4-6.35-.53,1.79,1.85,3.58,3.71,5.37,5.56-1.02-7.36-6.71-10.44-12.51-13.42-5.46-2.8-11.28-2.52-17.1-2.38-4.03.1-8.05.26-11.95,1.25-4.69,1.2-8.59,2.11-12.53,5.08-5.03,3.79-7.61,10.02-7.5,16.44.24,13.83,13.85,22.43,25.99,19.22,4.56-1.2,8.74-3.07,13.08-4.84,4.46-1.82,9.14-2.94,13.06-5.89,4.51-3.4,9.29-7.58,9.49-13.83-1.72,1.79-3.45,3.57-5.17,5.36,2.11-.16,4.22-.27,6.33-.33,6.44-.2,6.19-11.02-.21-11.7Z"/>
        <path class="cls-5" d="m420.06,1050.64c-.85-.4-1.7-.79-2.57-1.13-3.81-1.47,1.22,1.02,1.32,2.02-.17-1.64-5.29-4.26-6.06-4.56-1.63-.63-3.36-1.06-5.04-1.52-3.75-1.03-7.88-1.45-11.46.26-5.07,2.42-9.39,7.39-9.97,13.39-1,10.38,7.06,18.28,16.75,18.46,7.22.14,12.75-5.13,17.18-10.26-1.59,1.28-3.18,2.55-4.77,3.83,1.26-.39,1.36-.45.29-.19.73-.18,1.46-.33,2.21-.45,9.69-1.78,11.64-15.36,2.13-19.86Z"/>
        <path class="cls-5" d="m627.92,1124.67c-.05.9-.12,1.79-.26,2.67-.47,3.06.63-2.01-.04.28,1.22-1.7,2.44-3.41,3.67-5.11,1.74-.7,3.48-1.39,5.21-2.09-1.21.32-2.41.64-3.62.96-1.23.5-2.67,1.47-3.75,2.24-2.2,1.55-4,3.53-5.29,5.96-2.13,4-2.83,9.22-1.72,13.82.87,3.6,2.32,7.22,5.45,9.46,2.93,2.1,6.34,3.29,9.87,2.85,7.16-.88,13.62-6.22,15.36-13.48,1.7-7.12-1.14-14.35-6.44-19.25,1.4,1.84,2.79,3.67,4.19,5.51-.1-.19-.19-.39-.29-.58.33,2.2.65,4.4.98,6.59,0-3.18-.03-6.28-.74-9.4-1.34-5.82-5.49-10.26-11.47-10.38-5.36-.1-10.8,4.08-11.11,9.96Z"/>
        <path class="cls-5" d="m1221.85,744.31c7.22,2.08,14.56,4.89,21.98,5.69,4.55.49,9.57,1.56,14.1,1.04,7.99-.91,15.22-6.33,15.07-15.28-.15-8.68-7.15-14.31-14.95-15.7-4.58-.82-9.47-.05-14.06.26-7.65.51-15.07,2.97-22.47,4.82-10.41,2.6-10.17,16.15.34,19.18Z"/>
        <path class="cls-5" d="m978.74,874.88c3.19,2.13,2.44,3.19,3.52,5.73,1.33,3.15,4.88,5.63,7.31,7.9,4.83,4.49,11.77,8.95,18.17,10.05,12.61,2.16,20.07-16.13,9.06-23.97-5.42-3.86-13.21-5.81-19.69-6.03-2.95-.1-6.5-.69-9.31.05-3.41.9-3.72,2.84-7.47,2.07-2.19-.45-3.54,2.9-1.59,4.2Z"/>
        <path class="cls-5" d="m1075.15,255.07c.28,0,.55-.02.83-.03-2.74-.42-5.48-.83-8.22-1.25,3.9,1.14,6.71,1.95,10.87,1.79,1.63-.06,2.84-.39,4.5-.83,4.39-1.16,7.89-3.63,11.72-5.99-1.73,1.04-3.46,2.07-5.2,3.11,4.65-2.77,9.74-4.87,13.96-8.33,2.93-2.4,6.03-4.56,9.25-6.54-1.89,1.13-3.78,2.26-5.67,3.39,3.92-2.32,7.62-4.34,10.78-7.71,1.7-1.81,3.4-3.65,4.91-5.66,4.78-6.37,5.51-15.6,2.33-23.14-2.97-7.04-10.45-14.17-18.19-14.5-3.45-.15-6.99-.36-10.41.08-6.08.78-10.15,3.48-15.21,6.58-3.54,2.17-7.04,4.53-10.17,7.3-5.62,4.97-8.83,11.21-12.26,17.89-3.84,7.46-4.57,20.13,2.06,26.89-1.23-2.92-2.46-5.84-3.69-8.75.14.59.29,1.17.44,1.75,2.31,8.85,8.29,14.26,17.35,13.94Z"/>
        <path class="cls-5" d="m741.99,756.31c7.34,1.72,12.68.03,19.6-1.96-2.47.65-4.93,1.3-7.39,1.95.66-.17,1.32-.31,1.99-.46,1.59-.25,3.14-.63,4.67-1.14,2.58-.32,4.89-1.29,6.92-2.92,5.66-3.39,9.59-8.37,12.06-14.67,2.63-6.71,2.31-14.3-.5-21.09-2.12-5.12-5.56-9.44-9.7-12.97-6.4-5.46-14.66-6.32-22.39-6-3.71.16-7.54,1.05-10.97,2.33-5.55,2.07-9.97,6.49-13.55,11.16-5.87,7.66-6.67,19.04-2.84,28.13,4.17,9.9,12.36,15.33,22.11,17.62Z"/>
      </g>
      <g>
        <path class="cls-1" d="m954.31,257.32c-18.88,30.48-32.41,65.14-53.9,93.65-15.17,20.13-57.97,60.03-77.08,21.66-17.68-35.48,10.22-74.39-4.46-110.45-9.89-24.28-46.94-43.85-61.13-14.66-6.72,13.82-2.08,30.58-7.6,44.6-6.62,16.82-26.74,7.78-34.89-3.54-11.44-15.9-10.96-38.34-17.06-56.49-5.2-15.47-15.59-31.32-30.79-36.53-12.57-4.31-25.86.47-33.6,11.24-8.32,11.57-10.76,26.91-11.36,41.42-.8,19.36,2.35,39.24,4.08,58.58,1.01,11.26,2.15,22.53,3.01,33.8.79,10.32,1.35,21.59-3.66,30.65-6.61,11.94-20.67,15.39-33.03,14.15-16.06-1.61-29.17-11.48-39.68-24.51-12.05-14.94-20.31-32.95-29.32-49.98-8.29-15.66-17.51-30.81-27.97-44.95-20.65-27.94-46.15-53.1-76.8-67.26-24.27-11.21-66.44-22.77-83.82,5.13-8.93,14.34-5.19,33.98-.9,49.95,3.56,13.25,8.97,26.01,15.41,38.02,27.88,52.07,73.64,89.34,105.8,137.97,14.82,22.41,26.3,47.63,27.69,75.07.74,14.65-1.5,32.69-12.75,42.16-14.61,12.3-39.84.61-55.42-5.83-34.34-14.2-67.01-35.24-104.43-35.61-29.52-.29-65.88,15.63-67.58,51.98-1.85,39.6,48.1,47.38,74.9,48.55,18.02.79,36.05-.16,54.08,1.37,16.32,1.39,35.5,5.17,48.63,17.15,33.83,30.86-46.16,57.54-63.24,61.97-36.84,9.56-75.41,10.03-113.46,9.38-38.11-.65-76.36-2.75-114.31.16-35.28,2.71-73.88,8.26-101.7,32.67-24.63,21.61-37.53,61.15-19.52,93.43,15.23,27.3,46.19,37.35,73.5,39.51,36.49,2.89,73.85-7.43,108.17-18.11,38.84-12.08,76.62-27.4,115.33-39.84,17.08-5.49,34.23-10.8,51.35-16.16,13.9-4.36,27.93-8.63,42.34-10.98,14-2.28,28.86-2.78,42.95.37,10.5,2.35,20.43,6.58,29.85,12.01,20.04,13.14,37.27,33.1,48.66,53.9,15.74,28.73,18.73,61.53,1.34,88.84-14.74,23.14-39.48,36.86-63.16,47.18-26.1,11.37-53.3,19.95-78.73,32.98-24.68,12.65-56.54,33.34-60.83,65.35-4.43,33.11,21.78,62.12,49.46,72.27,33.3,12.21,66.95-5.98,91.21-28.29,27-24.84,45.49-58.16,70.62-84.93,17.3-18.42,58.64-52.73,75.08-13.25,13.16,31.62-1.45,62.31-9.27,91.97-4.37,16.58-7.4,34.7-2.98,52,4.23,16.52,15.6,29.81,30.42,35.99,30.99,12.93,62.02-6.85,73.56-37.63,5.9-15.73,6.22-32.67,5.38-49.64-.87-17.53-3.43-36.15,1.15-53.1,9.52-35.21,48.5-32.92,72.25-13.64,29.34,23.82,34.17,69.35,40.35,104.79,3.99,22.9,8.84,45.66,14.62,68.19,4.74,18.47,9.63,37.14,17.17,54.66,13.78,32.02,39.7,56.74,73.69,51.95,33.81-4.76,57.69-32.36,67.85-65.93,11.26-37.24,7.9-79.98.39-118.41-7.69-39.33-21.92-77.53-41.52-112.18-9.54-16.86-20.43-32.83-32.44-47.81-12.05-15.03-26.11-29.1-34.19-47.18-6.53-14.61-7.45-31.39.45-45.07,10.01-17.33,27.6-13.15,41.43-1.84,27.32,22.36,50.68,55,86.01,62.3,25.56,5.28,57.43-5.98,66.22-33.92,9.97-31.67-15.47-57.22-38.88-72.1-25.93-16.48-61.75-28.44-71.23-63.41-4.83-17.8,6.92-31.08,22.59-33.63,17.14-2.79,35.8,2.84,52.43,7.89,38.62,11.73,74.76,31.29,112.09,47.1,28.46,12.05,57.81,21.84,87.84,27.1,25.43,4.46,52.79,6.54,77.13-2.4,23.5-8.62,42.71-28.58,48.43-55.25,4.23-19.74,3.02-42.56-5.59-61.28-16.74-36.4-58.19-47.89-91.92-52.76-46.99-6.78-94.74-3.32-141.58-.91-22.87,1.18-45.77,2.46-68.71,2.46-10.68,0-21.35-.4-32.03-1.23-19.25-1.49-40.76-4.44-55.63-19.76-11.66-12.01-17.49-30.33-8.64-45.4,7.29-12.42,21.55-18.29,34.19-22.21,14.38-4.46,29.3-6.35,43.95-9.65,19.55-4.4,38.57-10.98,56.78-19.49,26.16-12.23,67.3-32.1,69.19-68.18,1.57-30.05-26.98-45.88-51.3-45.05-32.85,1.12-54.05,30.64-75.94,52.47-12.27,12.23-26.02,22.3-42.91,25.76-15.12,3.1-31.98-.4-41.18-15.5-9.39-15.41-6.84-36.05.86-50.9,8.41-16.21,23.45-27.3,37.92-36.65,35.81-23.13,72.82-44.34,109.19-66.48,31.29-19.04,62.75-39.7,83.22-72.33,17.51-27.92,24.37-67.3,10.85-99.84-13.71-32.98-45.68-49.98-77.73-50.17-35.69-.21-66.53,20.35-91.54,45.14-28.17,27.92-52.44,61.08-73.67,95.36Zm175.63-122.47c14.9,1.88,29.75,8.3,40.7,19.93,11.6,12.33,17.03,29.27,17.52,46.24,1.08,37.95-20.12,68.92-46.27,90.96-30.52,25.73-65.81,45.39-99.11,66.68-17.27,11.05-34.69,21.88-51.8,33.2-14.15,9.36-28.21,19.84-38.36,34.18-17.1,24.16-21.28,66.13,6.85,85.51,25.6,17.63,58.24,3.91,78.61-14.33,23.63-21.15,44.69-57,79.18-57.24,12.31-.09,26.65,4.03,34.82,15.07,10.75,14.51,4.56,32.56-5.5,44.34-12.44,14.58-30.07,23.93-46.62,32.15-17.64,8.76-36.24,15.49-55.28,20.22-27.44,6.81-60.15,7.18-82.46,27.44-9.41,8.55-15.1,21.32-14.21,35.01,1.08,16.56,11.06,31.27,23.48,40.83,24.26,18.65,58.28,18.45,86.48,18.94,21.91.38,43.78-.47,65.64-1.27,46.21-1.69,93.25-4.64,139.54,1.96,30.45,4.34,72.61,13.13,85.9,48.11,7.29,19.18,6.06,43.44-2.69,61.07-11.34,22.83-34.06,32.27-57.31,34.48-25.69,2.45-51.86-2.08-77.09-8.55-34.72-8.9-67.65-23.3-100.77-37.85-34.14-15-70.1-31.61-106.85-35.14-15.31-1.47-32.58.95-42.95,13.86-8.75,10.9-10.29,25.62-5.49,39.37,5.29,15.15,16.01,28.2,27.73,38.18,12.16,10.35,26.14,16.53,39.59,24.44,21.36,12.57,57.08,39.99,36.79,69.29-7.63,11.02-21.17,16.63-33.8,17.43-16.2,1.02-31.12-5.85-44.75-15.43-15.21-10.69-28.28-24.47-42.05-37.14-12.49-11.49-27.64-23.04-44.61-19.66-29.77,5.94-35.14,47.1-24.25,72.83,7.12,16.81,18.77,30.88,29.94,44.77,12.24,15.23,23.4,31.24,33.14,48.4,19.84,34.97,33.71,73.54,40.99,113.35,6.73,36.83,10.17,78.47-1.35,113.83-10.03,30.79-39.03,59.19-72.06,50.23-32.87-8.92-44.61-51.72-53.41-81.96-6.52-22.42-12.15-45.11-16.85-67.98-3.99-19.39-7.03-39.03-12.37-58.12-9.36-33.43-27.31-64.9-59.71-76.32-27.65-9.75-56.58,1.11-65.81,31.36-10.14,33.24,5.92,70.8-7.13,103.33-6.17,15.37-17.95,28.56-33.65,32.1-14.57,3.29-31.63-1.93-40.91-15.53-21.43-31.39,4.58-72.33,10.24-103.53,4.37-24.07,2.76-57.45-17.12-74.62-28.22-24.36-64.23,6.37-83.75,27.02-24.71,26.14-43.05,58.54-69.26,83.14-24.73,23.22-59.96,40.34-92.01,19.58-12.42-8.04-23.68-21.28-26.44-36.89-3.31-18.74,8.18-33.85,20.45-44.84,20.86-18.67,47.11-29.2,72.49-39.07,46.86-18.22,110.4-39.72,118.75-101.77,7.57-56.26-36.16-107.35-82.99-128.19-17.2-8.99-35.8-13.58-55.42-12.08-32.45,2.49-63.7,14.49-94.99,22.51-38.64,9.9-75.75,24.44-113.69,36.67-35.3,11.38-73.27,22.77-110.91,21.05-25.39-1.16-58.04-10.02-68.67-38.75-6.46-17.47-2.14-36.74,7-51.46,9.57-15.42,25.03-25.44,41.1-31.6,33.98-13.02,72.15-14.04,108.28-14.11,38.04-.08,76.17,2.36,114.16.88,36.18-1.41,72.73-6.46,106.02-21.2,15.33-6.79,31.73-14.8,41.45-29.81,9.22-14.24,7.85-32.18-4.62-44.67-25.9-25.95-67.1-22.37-98.83-22.11-23.47.2-90.39-1.53-77.03-44.28,11.89-38.06,59.69-35.7,89.17-25.82,35.57,11.92,68.28,38.48,105.76,42.54,35.84,3.88,48.8-33.91,45.97-66.4-2.35-26.98-13.06-52.21-27.38-74.67-31.12-48.83-76.4-85.67-105.35-136.19-6.74-11.76-12.35-24.16-16.11-37.31-4.13-14.43-9.38-35.76,4.32-45.28,12.37-8.59,29.98-5.55,43.75-1.76,16.34,4.49,31.63,12.65,45.59,23.02,27.65,20.55,49.82,49.69,67.02,80.43,16.67,29.8,30.82,69.04,62.27,84.62,23.07,11.42,56.55,9.46,68.14-17.41,8.11-18.78,3.13-42.52,1.4-62.62-1.72-20.06-4.8-40.56-4.47-60.65.21-12.72,1.88-29.26,10.73-38.43,11.41-11.83,26.64-1.55,34.09,10.76,10.49,17.34,10.18,38.87,17.37,57.56,5.73,14.9,16.02,27.27,30.83,31.71,13.19,3.95,26.67-1.34,32.29-14.74,5.85-13.95.86-31.27,7.48-44.68,6.77-13.73,22.91-7.34,31.59,1.55,13.84,14.18,11.28,35.88,8.62,53.77-2.61,17.64-5.72,34.78-2.03,52.76,2.94,14.3,10.37,29.22,23.09,36.12,15.39,8.35,32.39,2.51,46.29-5.32,13.5-7.61,25.09-18.78,34.9-31.18,21.84-27.61,36.9-60.96,55.26-91.24,20.67-34.09,44.65-66.72,72.23-94.57,24.53-24.77,55.82-45.57,91.56-41.06Z"/>
        <path class="cls-1" d="m1117.54,957.92c-.85,1.56-1.55,3.21-1.97,4.93-1.06,4.35-.53,9.05.39,13.47,1.99,9.59,8.9,18.49,16.37,23.98,18.56,13.65,43.49,11.12,59.22-4.37,17.39-17.13,19.89-47.86,4.11-68.33-13.63-17.68-37.99-25.52-56.41-14.09-13.75,8.53-22.65,26.78-21.71,44.41Zm62.25-27.87c5.9,5.7,10.61,12.75,12.54,21.02,2.24,9.57.04,20.1-4.42,28.26-4.2,7.7-11.19,13.54-19,16.58-7.64,2.97-16.75,4.72-24.92,2.7-9.28-2.3-16.73-8.66-21.34-17.7-2.49-4.88-4.37-10.96-4.35-16.71.53,2.71,1.31,5.38,2.37,7.96.15.37.67.23.56-.17-1.32-4.55-2.08-9.31-2.04-14,.6-1.95,1.53-3.78,2.86-5.41.27-.33-.2-.82-.48-.49-.77.92-1.52,1.9-2.24,2.92.29-3.47,1.06-6.86,2.4-10.07,3.38-8.09,7.32-15.07,14.34-20.04,13.38-9.46,31.51-6.65,43.72,5.13Z"/>
        <path class="cls-1" d="m1182.02,31.22c-8.8,14.75-8.91,35.4-1.14,51.28,7.26,14.83,21.83,25.99,37.33,26.69.32.01.6-.04.86-.12,9.02,3.82,18.68,5.73,28.22,5.29,29.07-1.35,57.44-23.97,61.53-55.92,2.02-15.76-1.57-32.62-13.2-43.87-11.16-10.79-26.44-14.1-40.72-14.5-26.4-.76-57.95,6.14-72.89,31.16Zm64.37-16.55c10.98.1,23.04.82,33.1,6.58,10.14,5.81,15.37,16.04,15.48,28.08.22,25.43-19.67,46.87-41.22,53.4-13.29,4.03-27.31,3.06-40.25-3.19-10.25-4.95-19.28-12.71-26.3-22.19-4.86-11.13-5.14-24.58-.14-35.28,10.92-23.38,36.85-27.61,59.33-27.41Z"/>
        <path class="cls-1" d="m657.42,120.92c3.6-10.7,4.74-22.39,5.27-33.81.6-12.92-1.03-26.68-7.27-38.26-10.99-20.43-38.63-29.84-53.17-10.07-7.56,10.28-10.46,22.6-12.04,35.58-1.88,15.43-1.12,30.98,2.88,46.17.46,1.75,2.05,2.46,3.48,2.3,3.57,7.5,8.76,13.98,15.63,18.42,8.88,5.73,18.79,7.37,28.05,2.77,8.79-4.37,13.97-13.61,17.16-23.1Zm-37.45,16.24c-9.75-2.66-17.56-12.09-21.4-21.79-2.42-20.24-1.98-42.26,6.28-60.38,3.18-6.99,8.44-13.44,16.27-13.81,7.69-.36,14.38,4.65,19.33,10.78,5.92,7.35,7.86,17.37,8.3,26.65.47,9.99-.22,20.03-1.69,29.82-1.14,7.58-3.02,15.65-7.45,21.73-4.6,6.3-12.15,9.02-19.63,6.98Z"/>
        <path class="cls-1" d="m168.56,507.77c3.09-4.12,7.38-8.48,8.08-13.95,5.12-8.11,7.44-17.36,5.65-27.59-1.85-10.54-8.21-20.03-16.46-26.07-9.46-6.92-21-8.39-31.81-6.53-21.1,3.63-40.65,22.2-42.91,45.72-1.14,11.88,1.84,24.2,9.57,33.37,6.34,7.53,15.41,12.42,24.56,13.99,11.01,1.89,21.78-.32,30.86-6.92,4.73-3.44,8.89-7.25,12.48-12.04Zm-64.07-18.07c-1.52-17.46,10.56-32.68,25.04-38.37,13.55-5.33,31.9-2.29,39.65,13.07,4.11,8.14,2.72,17.73-.43,25.69-3.21,8.08-9.41,13.99-14.77,20.43-5.82,3.17-12.45,4.98-19.02,5.12-14.37.32-29.02-9.37-30.47-25.93Z"/>
        <path class="cls-1" d="m278.92,1163.33c.13-1.21.23-2.41.3-3.62,2.9-8.84,3.9-18.85,3.14-27.62-1.13-12.99-6.64-25.6-16.94-33.27-10.88-8.11-26.13-10.96-38.88-10.31-12.95.66-25.62,5.49-34.83,15.15-9.61,10.08-13.33,23.74-12.85,38.25.45,13.34,3.25,27.47,9.81,39.19,6.77,12.08,17.99,20.36,30.78,22.67,13.21,2.39,28.21.72,39.92-5.84,12-6.72,17.98-20.55,19.54-34.6Zm-74.4,15.97c-6.05-7.05-8.99-17.21-10.27-26.37-1.6-11.34-1.94-22.72,3.29-32.74,10.73-20.57,34.81-24.83,54.93-17.69,7.75,2.75,13.62,7.99,17.41,14.93,2.37,12.17,4.23,25.25,1.97,37.12-1.84,9.71-5.7,19.47-12.61,26.12-7.64,7.34-18.38,9.46-28.55,9.46-9.67,0-19.29-2.83-26.16-10.83Z"/>
      </g>
    </g>
  </g>
</svg>