<?xml version="1.0" encoding="UTF-8"?>
<svg id="_圖層_2" data-name="圖層 2" xmlns="http://www.w3.org/2000/svg" viewBox="0 0 50.89 45.26">
  <defs>
    <style>
      .cls-1 {
        fill: #59bfc7;
      }

      .cls-1, .cls-2 {
        stroke-width: 0px;
      }

      .cls-2 {
        fill: #1d1d1b;
      }
    </style>
  </defs>
  <g id="OBJECTS">
    <g>
      <path class="cls-1" d="m45.54,21.82c-4.35,1.8-8.7,3.59-13.04,5.39.62-1.5,1.33-2.99,2.13-4.54,1.48-2.84,2.19-5.3.5-8.22-.84-1.45-2.98-2.53-4.64-1.89-2.96,1.13-5.91,2.26-8.86,3.41,1.19-3.67,2.65-7.24,4.36-10.76,1.52-3.13-1.57-6.42-4.76-4.76C15.02,3.67,8.81,6.64,3.28,10.99c-2,1.58.55,4.4,2.6,3.37,3.38-1.7,6.73-3.44,10.2-4.91-1.66,3.86-2.99,7.86-4.05,11.96-.71,2.74,1.91,5.84,4.83,4.83,2.72-.94,5.42-1.92,8.11-2.91-.27.57-.48,1.01-.55,1.19-1.12,2.81-1.81,5.65-2.22,8.64-.37,2.71,1.81,6.51,5.14,5.14,4.05-1.66,8.1-3.33,12.16-4.99-.72,2.18-1.31,4.39-1.61,6.65-.52,3.98,5.34,4.91,7.14,1.93,2.71-4.47,3.96-9.99,5.67-14.92.98-2.82-2.24-6.38-5.17-5.17Z"/>
      <path class="cls-2" d="m46.58,24.19c-6.81,3.7-13.62,7.39-20.43,11.1,2.59-6.04,4.83-12.2,6.66-18.53.25-.87-.79-1.73-1.58-1.22-4.96,3.23-10.1,6.11-15.42,8.68,2.62-7.27,5.08-14.6,7.21-22.03.22-.78-.64-1.37-1.32-1.01C14.58,4.96,7.34,8.53.26,12.37c-.59.32-.07,1.17.52.89,6.67-3.09,13.24-6.41,19.87-9.6-2.4,7.48-4.88,14.92-7.63,22.29-.35.93.78,1.48,1.5,1.15,5.31-2.41,10.41-5.15,15.36-8.2-1.96,6.26-4.27,12.38-7.02,18.35-.46,1,.49,2.11,1.54,1.54,6.8-3.63,13.58-7.29,20.37-10.95-2.05,5.21-3.32,10.58-3.76,16.23-.12,1.57,2.31,1.55,2.44,0,.53-6.41,2.07-12.43,4.75-18.27.48-1.05-.52-2.23-1.63-1.63Z"/>
    </g>
  </g>
</svg>