<?xml version="1.0" encoding="utf-8"?>
<!-- Generator: Adobe Illustrator 28.1.0, SVG Export Plug-In . SVG Version: 6.00 Build 0)  -->
<svg version="1.1" xmlns="http://www.w3.org/2000/svg" xmlns:xlink="http://www.w3.org/1999/xlink" x="0px" y="0px"
	 viewBox="0 0 50.9 45.3" style="enable-background:new 0 0 50.9 45.3;" xml:space="preserve">
<style type="text/css">
	.st0{fill:#FFFFFF;stroke:#543C1A;stroke-miterlimit:10;}
	.st1{fill:#59BFC7;}
	.st2{fill:#1D1D1B;}
</style>
<g id="outer">
</g>
<g id="main">
	<g>
		<path class="st0" d="M57.9,18.2c-2.7-3.8-7-6.1-11.4-6.1c-0.6,0-1.2,0-1.9,0.1c-0.3-0.7-0.7-1.5-1.1-2.3c-1.7-2.9-4.3-5-7.4-6.2
			C36,1.4,35.3-1,34-3.1c-2.5-4-6.7-6.3-11.4-6.3c-2.2,0-4.4,0.5-6.3,1.6l-2.2,1.1C9-4.1,3.7-1.4-1.3,2.3c-1.2,0.6-2.4,1.2-3.5,1.9
			c-4.2,2.3-6.3,7.1-5.2,11.8c1.1,4.3,4.7,7.4,9.1,7.9c0.8,0.4,1.7,0.8,2.6,1c0.2,1.3,0.5,2.5,1,3.7C3,30.1,3.6,31.7,4.5,33
			c1.8,2.6,4.6,4.2,7.7,4.7c0.1,0.3,0.1,0.6,0.2,0.9c0,2.1,0.6,4.1,1.8,5.9c2.1,3.2,5.5,5.1,9.3,5.1c1,0,1.9-0.1,2.9-0.4
			c1.2-0.1,2.4-0.3,3.5-0.7c0.1,0.2,0.3,0.4,0.4,0.5c0.8,1.1,1.8,2,2.9,2.7c0.2,0.2,0.3,0.4,0.5,0.5c2.1,2.3,5.1,3.5,8.2,3.5
			c4.6,0,8.5-2.6,10.3-6.6c0.4-0.5,0.8-1,1.2-1.6c2.6-4.3,4.1-9,5.4-13.1c0.4-1.3,0.8-2.5,1.2-3.7C61.3,26.7,60.5,22,57.9,18.2z"/>
		<g id="OBJECTS">
			<g>
				<path class="st1" d="M45.2,22.4c-4.3,1.8-8.7,3.6-13,5.4c0.6-1.5,1.3-3,2.1-4.5c1.5-2.8,2.2-5.3,0.5-8.2c-0.8-1.4-3-2.5-4.6-1.9
					c-3,1.1-5.9,2.3-8.9,3.4c1.2-3.7,2.6-7.2,4.4-10.8c1.5-3.1-1.6-6.4-4.8-4.8c-6.2,3.2-12.4,6.2-18,10.5c-2,1.6,0.5,4.4,2.6,3.4
					c3.4-1.7,6.7-3.4,10.2-4.9c-1.7,3.9-3,7.9-4.1,12c-0.7,2.7,1.9,5.8,4.8,4.8c2.7-0.9,5.4-1.9,8.1-2.9c-0.3,0.6-0.5,1-0.5,1.2
					c-1.1,2.8-1.8,5.6-2.2,8.6c-0.4,2.7,1.8,6.5,5.1,5.1c4.1-1.7,8.1-3.3,12.2-5c-0.7,2.2-1.3,4.4-1.6,6.7c-0.5,4,5.3,4.9,7.1,1.9
					c2.7-4.5,4-10,5.7-14.9C51.3,24.7,48.1,21.2,45.2,22.4L45.2,22.4z"/>
				<path class="st2" d="M46.2,24.8c-6.8,3.7-13.6,7.4-20.4,11.1c2.6-6,4.8-12.2,6.7-18.5c0.2-0.9-0.8-1.7-1.6-1.2
					c-5,3.2-10.1,6.1-15.4,8.7c2.6-7.3,5.1-14.6,7.2-22c0.2-0.8-0.6-1.4-1.3-1C14.2,5.5,7,9.1-0.1,13c-0.6,0.3-0.1,1.2,0.5,0.9
					c6.7-3.1,13.2-6.4,19.9-9.6c-2.4,7.5-4.9,14.9-7.6,22.3c-0.4,0.9,0.8,1.5,1.5,1.1c5.3-2.4,10.4-5.1,15.4-8.2
					c-2,6.3-4.3,12.4-7,18.3c-0.5,1,0.5,2.1,1.5,1.5c6.8-3.6,13.6-7.3,20.4-11c-2,5.2-3.3,10.6-3.8,16.2c-0.1,1.6,2.3,1.5,2.4,0
					c0.5-6.4,2.1-12.4,4.8-18.3C48.3,25.3,47.3,24.2,46.2,24.8L46.2,24.8z"/>
			</g>
		</g>
	</g>
</g>
</svg>
