<?xml version="1.0" encoding="UTF-8"?>
<svg id="_圖層_2" data-name="圖層 2" xmlns="http://www.w3.org/2000/svg" viewBox="0 0 17.92 17.61">
  <defs>
    <style>
      .cls-1 {
        fill: #543c1b;
        stroke-width: 0px;
      }
    </style>
  </defs>
  <g id="OBJECTS">
    <path class="cls-1" d="m5.86,6.83c0-.82,0-1.64,0-2.46,0-1.02.25-1.48,1.2-1.82C9.92,1.54,12.85.73,15.82.06c.94-.21,1.48.17,1.61,1.14.12.89.14,1.79.16,2.69.06,2.27.12,4.55.31,6.82.13,1.5-.45,2.74-1.73,3.6-.28.19-.54.42-.81.64-.39.32-.79.62-1.27.8-.92.35-1.83.39-2.6-.31-.76-.69-.91-1.58-.62-2.55.51-1.73,2.86-3.67,4.67-3.83.39-.04.66-.09.65-.58-.02-1.11-.02-2.22-.01-3.33,0-.39-.09-.47-.5-.37-2.69.67-5.32,1.6-8.08,2-.46.07-.42.36-.44.68-.12,2.19-.13,4.39-.41,6.57-.21,1.65-1.33,2.94-2.96,3.31-.41.09-.83.17-1.25.23-1.61.24-2.81-.93-2.46-2.52.42-1.84,1.59-3.13,3.32-3.88.52-.22,1.1-.27,1.62,0,.5.26.57.05.59-.39.07-1.32.17-2.64.26-3.96Z"/>
  </g>
</svg>