<?xml version="1.0" encoding="UTF-8"?>
<svg id="_圖層_2" data-name="圖層 2" xmlns="http://www.w3.org/2000/svg" viewBox="0 0 16.6 14.39">
  <defs>
    <style>
      .cls-1 {
        fill: #543c1b;
        stroke-width: 0px;
      }
    </style>
  </defs>
  <g id="OBJECTS">
    <path class="cls-1" d="m7.18,12.23c-1.23,1.62-2.92,2.35-4.96,2.12-1.98-.23-2.81-2.15-1.77-3.87.98-1.61,4.37-3.28,6.17-1.92.4.3.42-.11.51-.31.83-1.78,1.35-3.67,1.94-5.53.12-.38.21-.76.33-1.14C9.81.2,10.22-.09,11.63.02c1.13.09,2.27.13,3.4.27,1.19.15,1.59.66,1.57,1.87,0,.9-.16,1.79-.4,2.66-.33,1.21-1.03,1.7-2.28,1.59-1.19-.11-2.33-.46-3.47-.8-.42-.13-.59-.11-.71.36-.52,2-1.58,3.8-2.28,5.74-.06.17-.17.33-.28.53Z"/>
  </g>
</svg>