<?xml version="1.0" encoding="UTF-8"?>
<svg id="_圖層_2" data-name="圖層 2" xmlns="http://www.w3.org/2000/svg" viewBox="0 0 77.39 54.9">
  <defs>
    <style>
      .cls-1 {
        fill: none;
        stroke: #543c1a;
        stroke-linecap: round;
        stroke-linejoin: round;
        stroke-width: 1.89px;
      }

      .cls-2 {
        fill: #543c1a;
      }

      .cls-2, .cls-3, .cls-4, .cls-5, .cls-6 {
        stroke-width: 0px;
      }

      .cls-3 {
        fill: #b4d1e2;
      }

      .cls-4 {
        fill: #fff;
      }

      .cls-5 {
        fill: #efd472;
      }

      .cls-6 {
        fill: #efb072;
      }
    </style>
  </defs>
  <g id="OBJECTS">
    <g>
      <path class="cls-4" d="m2.35,38.23h25c0-.23-.02-.46-.06-.69-.01-.07-.03-.14-.05-.21.02-.07.04-.14.05-.21.71-3.68-4.57-7.8-11.81-9.21-7.24-1.4-13.68.44-14.4,4.12-.35,1.78,1.27,4.03,1.27,6.19,0,0,.07-.29,0,0Z"/>
      <path class="cls-1" d="m3.9,38.23h23.45c0-.23-.02-.46-.06-.69-.01-.07-.03-.14-.05-.21.02-.07.04-.14.05-.21.71-3.68-4.57-7.8-11.81-9.21-7.24-1.4-13.68.44-14.4,4.12-.53,2.72.52,6.19,2.82,6.19h0Z"/>
      <g>
        <path class="cls-4" d="m42.71.99c-1.78-.35-3.13,1.39-5.29,1.39-1.93,0-3.51-1.74-5.29-1.39-3.68.71-5.53,7.16-4.12,14.4,1.41,7.24,5.53,12.52,9.21,11.81.07-.01.14-.03.21-.05.07.02.14.04.21.05,3.68.71,7.8-4.57,9.21-11.81,1.41-7.24-.44-13.68-4.12-14.4Z"/>
        <path class="cls-1" d="m42.71.99c-1.78-.35-3.13,1.39-5.29,1.39-1.93,0-3.51-1.74-5.29-1.39-3.68.71-5.53,7.16-4.12,14.4,1.41,7.24,5.53,12.52,9.21,11.81.07-.01.14-.03.21-.05.07.02.14.04.21.05,3.68.71,7.8-4.57,9.21-11.81,1.41-7.24-.44-13.68-4.12-14.4Z"/>
        <g>
          <path class="cls-3" d="m35.76,19.34c.68,4.54.48,8.33-.45,8.47-.93.14-2.23-3.43-2.91-7.97-.68-4.54-.48-8.33.45-8.47.93-.14,2.23,3.43,2.91,7.97Z"/>
          <path class="cls-3" d="m39.08,19.34c-.68,4.54-.48,8.33.45,8.47.93.14,2.23-3.43,2.91-7.97.68-4.54.48-8.33-.45-8.47-.93-.14-2.23,3.43-2.91,7.97Z"/>
        </g>
      </g>
      <path class="cls-3" d="m19.43,35.67c4.54.68,8.33.48,8.47-.45.14-.93-3.43-2.23-7.97-2.91-4.54-.68-8.33-.48-8.47.45-.14.93,3.43,2.23,7.97,2.91Z"/>
      <path class="cls-4" d="m75.04,38.23h-25c0-.23.02-.46.06-.69.01-.07.03-.14.05-.21-.02-.07-.04-.14-.05-.21-.71-3.68,4.57-7.8,11.81-9.21,7.24-1.4,13.68.44,14.4,4.12.35,1.78-1.27,4.03-1.27,6.19,0,0-.07-.29,0,0Z"/>
      <path class="cls-1" d="m73.5,38.23h-23.45c0-.23.02-.46.06-.69.01-.07.03-.14.05-.21-.02-.07-.04-.14-.05-.21-.71-3.68,4.57-7.8,11.81-9.21,7.24-1.4,13.68.44,14.4,4.12.53,2.72-.52,6.19-2.82,6.19h0Z"/>
      <path class="cls-3" d="m57.96,35.67c-4.54.68-8.33.48-8.47-.45-.14-.93,3.43-2.23,7.97-2.91s8.33-.48,8.47.45c.14.93-3.43,2.23-7.97,2.91Z"/>
      <path class="cls-4" d="m66.86,15.38c-1.01-1.5-3.2-1.23-4.73-2.76-1.37-1.37-1.25-3.71-2.76-4.73-3.11-2.1-8.97,1.15-13.09,7.26-4.12,6.11-4.95,12.76-1.84,14.86.06.04.12.07.18.11.04.06.07.12.11.18,2.1,3.11,8.75,2.28,14.86-1.84,6.11-4.12,9.36-9.99,7.26-13.1Z"/>
      <path class="cls-1" d="m66.86,15.38c-1.01-1.5-3.2-1.23-4.73-2.76-1.37-1.37-1.25-3.71-2.76-4.73-3.11-2.1-8.97,1.15-13.09,7.26-4.12,6.11-4.95,12.76-1.84,14.86.06.04.12.07.18.11.04.06.07.12.11.18,2.1,3.11,8.75,2.28,14.86-1.84,6.11-4.12,9.36-9.99,7.26-13.1Z"/>
      <g>
        <path class="cls-3" d="m48.97,23.44c-2.73,3.69-5.55,6.23-6.31,5.67-.75-.56.85-4,3.58-7.69,2.73-3.69,5.55-6.23,6.31-5.67.75.56-.85,4-3.58,7.69Z"/>
        <path class="cls-3" d="m51.31,25.78c-3.69,2.73-6.23,5.55-5.67,6.31.56.75,4-.85,7.69-3.58,3.69-2.73,6.23-5.55,5.68-6.31-.56-.75-4,.85-7.69,3.58Z"/>
      </g>
      <g>
        <path class="cls-4" d="m15.46,7.89c-1.5,1.02-1.22,3.2-2.76,4.73-1.37,1.37-3.71,1.25-4.73,2.76-2.1,3.11,1.15,8.97,7.27,13.1,6.11,4.12,12.76,4.95,14.86,1.84.04-.06.08-.12.11-.19.06-.04.12-.07.18-.11,3.11-2.1,2.29-8.75-1.84-14.86-4.12-6.11-9.99-9.36-13.1-7.26Z"/>
        <path class="cls-1" d="m15.46,7.89c-1.5,1.02-1.22,3.2-2.76,4.73-1.37,1.37-3.71,1.25-4.73,2.76-2.1,3.11,1.15,8.97,7.27,13.1,6.11,4.12,12.76,4.95,14.86,1.84.04-.06.08-.12.11-.19.06-.04.12-.07.18-.11,3.11-2.1,2.29-8.75-1.84-14.86-4.12-6.11-9.99-9.36-13.1-7.26Z"/>
        <g>
          <path class="cls-3" d="m23.53,25.78c3.69,2.73,6.23,5.55,5.67,6.31-.56.75-4-.85-7.69-3.58-3.69-2.73-6.23-5.55-5.67-6.31.56-.75,4,.85,7.69,3.58Z"/>
          <path class="cls-3" d="m25.87,23.44c2.73,3.69,5.55,6.23,6.31,5.67.75-.56-.85-4-3.58-7.69-2.73-3.69-5.55-6.23-6.31-5.67-.75.56.85,4,3.58,7.69Z"/>
        </g>
      </g>
      <path class="cls-5" d="m55.44,38.23c.02-.3.05-.6.05-.9,0-10-8.11-18.11-18.11-18.11s-18.11,8.11-18.11,18.11c0,.3.03.6.05.9h36.13Z"/>
      <path class="cls-6" d="m30.39,38.23h25.06c.02-.3.05-.6.05-.9,0-4.15-1.41-7.96-3.76-11.02-1.34-.31-2.73-.5-4.16-.5-8.01,0-14.79,5.21-17.18,12.41Z"/>
      <path class="cls-4" d="m39.38,21.92c5.36,0,10.17,2.35,13.48,6.05-3.17-5.24-8.91-8.75-15.48-8.75-10,0-18.11,8.11-18.11,18.11,0,.3.03.6.05.9h2.04c.9-9.16,8.62-16.31,18.02-16.31Z"/>
      <path class="cls-1" d="m55.44,38.23c.02-.3.05-.6.05-.9,0-10-8.11-18.11-18.11-18.11s-18.11,8.11-18.11,18.11c0,.3.03.6.05.9h36.13Z"/>
      <path class="cls-2" d="m70.17,48.75c0,1.15-2.43,2.09-5.43,2.09s-5.43-.94-5.43-2.09,2.43-2.09,5.43-2.09,5.43.94,5.43,2.09Z"/>
      <path class="cls-2" d="m1.32,38.12s.43,4.78,9.45,4.78h10.17c1.47,0,2.66,1.29,2.66,2.88,0,.99-.46,1.86-1.16,2.38h-3c-1.72,0-3.12,1.51-3.12,3.38s1.4,3.38,3.12,3.38h33.93c1.72,0,3.12-1.51,3.12-3.38s-1.4-3.38-3.12-3.38h-4.5c-.7-.52-1.16-1.39-1.16-2.38,0-1.59,1.19-2.88,2.66-2.88h18.48c4.08-.83,6.23-2.44,6.23-4.78H1.32Z"/>
    </g>
  </g>
</svg>