<?xml version="1.0" encoding="UTF-8"?>
<svg id="_圖層_2" data-name="圖層 2" xmlns="http://www.w3.org/2000/svg" viewBox="0 0 84.72 58.63">
  <defs>
    <style>
      .cls-1 {
        fill: none;
        stroke: #543c1a;
        stroke-linecap: round;
        stroke-linejoin: round;
        stroke-width: 1.89px;
      }

      .cls-2 {
        fill: #543c1a;
      }

      .cls-2, .cls-3, .cls-4, .cls-5, .cls-6 {
        stroke-width: 0px;
      }

      .cls-3 {
        fill: #b4d1e2;
      }

      .cls-4 {
        fill: #fff;
      }

      .cls-5 {
        fill: #efd472;
      }

      .cls-6 {
        fill: #efb072;
      }
    </style>
  </defs>
  <g id="OBJECTS">
    <g>
      <path class="cls-4" d="m2.48,41.85h27.43c0-.25-.02-.51-.07-.76-.01-.08-.04-.15-.06-.23.02-.08.04-.15.06-.23.78-4.04-5.02-8.56-12.95-10.1-7.94-1.54-15.01.48-15.79,4.53-.38,1.95,1.39,4.42,1.39,6.79,0,0,.08-.32,0,0Z"/>
      <path class="cls-1" d="m4.18,41.85h25.73c0-.25-.02-.51-.07-.76-.01-.08-.04-.15-.06-.23.02-.08.04-.15.06-.23.78-4.04-5.02-8.56-12.95-10.1-7.94-1.54-15.01.48-15.79,4.53-.58,2.98.57,6.79,3.09,6.79h0Z"/>
      <g>
        <path class="cls-4" d="m46.77.99c-1.95-.38-3.43,1.53-5.81,1.53-2.12,0-3.85-1.91-5.81-1.53-4.04.78-6.07,7.85-4.53,15.8,1.54,7.94,6.07,13.74,10.1,12.96.08-.02.15-.04.23-.06.08.02.15.04.23.06,4.04.78,8.56-5.02,10.1-12.96,1.54-7.94-.48-15.01-4.52-15.8Z"/>
        <path class="cls-1" d="m46.77.99c-1.95-.38-3.43,1.53-5.81,1.53-2.12,0-3.85-1.91-5.81-1.53-4.04.78-6.07,7.85-4.53,15.8,1.54,7.94,6.07,13.74,10.1,12.96.08-.02.15-.04.23-.06.08.02.15.04.23.06,4.04.78,8.56-5.02,10.1-12.96,1.54-7.94-.48-15.01-4.52-15.8Z"/>
        <g>
          <path class="cls-3" d="m39.14,21.13c.75,4.98.53,9.14-.49,9.3-1.02.15-2.45-3.76-3.19-8.74-.75-4.98-.53-9.14.49-9.29,1.02-.15,2.45,3.76,3.19,8.74Z"/>
          <path class="cls-3" d="m42.78,21.13c-.75,4.98-.53,9.14.49,9.3,1.02.15,2.45-3.76,3.19-8.74.75-4.98.53-9.14-.49-9.29-1.02-.15-2.45,3.76-3.19,8.74Z"/>
        </g>
      </g>
      <path class="cls-3" d="m21.23,39.04c4.98.75,9.14.53,9.3-.49.15-1.02-3.76-2.45-8.74-3.19-4.98-.75-9.14-.53-9.3.49-.15,1.02,3.76,2.45,8.74,3.19Z"/>
      <path class="cls-4" d="m82.24,41.85h-27.43c0-.25.02-.51.07-.76.01-.08.04-.15.06-.23-.02-.08-.04-.15-.06-.23-.78-4.04,5.02-8.56,12.96-10.1,7.94-1.54,15.01.48,15.79,4.53.38,1.95-1.39,4.42-1.39,6.79,0,0-.08-.32,0,0Z"/>
      <path class="cls-1" d="m80.54,41.85h-25.73c0-.25.02-.51.07-.76.01-.08.04-.15.06-.23-.02-.08-.04-.15-.06-.23-.78-4.04,5.02-8.56,12.96-10.1,7.94-1.54,15.01.48,15.79,4.53.58,2.98-.57,6.79-3.09,6.79h0Z"/>
      <path class="cls-3" d="m63.5,39.04c-4.98.75-9.14.53-9.3-.49-.15-1.02,3.76-2.45,8.74-3.19,4.98-.75,9.14-.53,9.3.49.15,1.02-3.76,2.45-8.74,3.19Z"/>
      <g>
        <path class="cls-4" d="m73.26,16.78c-1.11-1.65-3.51-1.34-5.19-3.03-1.5-1.5-1.38-4.08-3.03-5.19-3.41-2.3-9.84,1.27-14.37,7.97-4.52,6.7-5.43,14-2.02,16.31.07.04.14.08.2.12.04.07.08.13.12.2,2.3,3.41,9.6,2.51,16.31-2.02,6.7-4.53,10.27-10.96,7.97-14.37Z"/>
        <path class="cls-1" d="m73.26,16.78c-1.11-1.65-3.51-1.34-5.19-3.03-1.5-1.5-1.38-4.08-3.03-5.19-3.41-2.3-9.84,1.27-14.37,7.97-4.52,6.7-5.43,14-2.02,16.31.07.04.14.08.2.12.04.07.08.13.12.2,2.3,3.41,9.6,2.51,16.31-2.02,6.7-4.53,10.27-10.96,7.97-14.37Z"/>
        <g>
          <path class="cls-3" d="m53.63,25.63c-3,4.05-6.09,6.84-6.92,6.23-.83-.61.93-4.39,3.93-8.44s6.09-6.84,6.92-6.23c.83.61-.93,4.39-3.92,8.44Z"/>
          <path class="cls-3" d="m56.2,28.2c-4.05,3-6.84,6.09-6.22,6.92.61.83,4.39-.93,8.44-3.92,4.05-3,6.84-6.09,6.23-6.92-.61-.83-4.39.93-8.44,3.92Z"/>
        </g>
      </g>
      <g>
        <path class="cls-4" d="m16.88,8.57c-1.65,1.11-1.34,3.51-3.02,5.19-1.5,1.5-4.08,1.38-5.19,3.03-2.3,3.41,1.27,9.84,7.97,14.37,6.7,4.52,14,5.43,16.3,2.02.04-.07.08-.13.12-.2.07-.04.14-.08.2-.12,3.41-2.3,2.51-9.6-2.02-16.31-4.52-6.7-10.96-10.27-14.37-7.97Z"/>
        <path class="cls-1" d="m16.88,8.57c-1.65,1.11-1.34,3.51-3.02,5.19-1.5,1.5-4.08,1.38-5.19,3.03-2.3,3.41,1.27,9.84,7.97,14.37,6.7,4.52,14,5.43,16.3,2.02.04-.07.08-.13.12-.2.07-.04.14-.08.2-.12,3.41-2.3,2.51-9.6-2.02-16.31-4.52-6.7-10.96-10.27-14.37-7.97Z"/>
        <g>
          <path class="cls-3" d="m25.72,28.2c4.05,2.99,6.84,6.09,6.23,6.92-.61.83-4.39-.93-8.44-3.92-4.05-3-6.84-6.09-6.22-6.92.61-.83,4.39.93,8.44,3.93Z"/>
          <path class="cls-3" d="m28.29,25.63c3,4.05,6.09,6.84,6.92,6.22.83-.61-.93-4.39-3.92-8.44-3-4.05-6.09-6.84-6.92-6.23-.83.61.93,4.39,3.93,8.44Z"/>
        </g>
      </g>
      <path class="cls-5" d="m60.74,41.85c.02-.33.05-.65.05-.99,0-10.97-8.9-19.87-19.87-19.87s-19.87,8.9-19.87,19.87c0,.33.03.66.05.99h39.64Z"/>
      <path class="cls-6" d="m33.25,41.85h27.49c.02-.33.05-.65.05-.99,0-4.55-1.55-8.74-4.13-12.09-1.47-.35-2.99-.55-4.57-.55-8.79,0-16.23,5.71-18.85,13.62Z"/>
      <path class="cls-4" d="m43.11,23.95c5.88,0,11.15,2.57,14.79,6.64-3.48-5.74-9.78-9.6-16.98-9.6-10.97,0-19.87,8.9-19.87,19.87,0,.33.03.66.05.99h2.24c.99-10.05,9.46-17.9,19.77-17.9Z"/>
      <path class="cls-1" d="m60.74,41.85c.02-.33.05-.65.05-.99,0-10.97-8.9-19.87-19.87-19.87s-19.87,8.9-19.87,19.87c0,.33.03.66.05.99h39.64Z"/>
    </g>
    <ellipse class="cls-2" cx="58.08" cy="52.15" rx="5.88" ry="2.09"/>
    <path class="cls-2" d="m2.48,41.85s.47,4.78,10.22,4.78h11c1.59,0,2.88,1.29,2.88,2.88,0,.99-.5,1.86-1.26,2.38h-3.25c-1.86,0-3.38,1.51-3.38,3.38s1.51,3.38,3.38,3.38h23c1.86,0,3.38-1.51,3.38-3.38s-1.51-3.38-3.38-3.38h-4.87c-.76-.52-1.26-1.39-1.26-2.38,0-1.59,1.29-2.88,2.88-2.88h33.68c4.41-.83,6.74-2.44,6.74-4.78H2.48Z"/>
  </g>
</svg>