<?xml version="1.0" encoding="UTF-8"?>
<svg id="_圖層_2" data-name="圖層 2" xmlns="http://www.w3.org/2000/svg" viewBox="0 0 71.95 32.24">
  <defs>
    <style>
      .cls-1 {
        fill: #b4d1e2;
      }

      .cls-1, .cls-2 {
        stroke-width: 0px;
      }

      .cls-2 {
        fill: #fff;
      }

      .cls-3 {
        fill: none;
        stroke: #543c1a;
        stroke-linecap: round;
        stroke-linejoin: round;
        stroke-width: 2.25px;
      }
    </style>
  </defs>
  <g id="OBJECTS">
    <g>
      <g>
        <path class="cls-2" d="m1.49,31.11h69.33s-.33-15.33-12.67-13.67c0,0,3.33-12.33-9.67-15.67-14.33-3.67-17.67,9.33-17.67,9.33,0,0-11.33-6-15.67,6,0,0-16.67-3-13.67,14Z"/>
        <path class="cls-1" d="m27.4,31.11h43.42s-.33-15.33-12.67-13.67c0,0,.38-1.42.38-3.43-1.27,2.03-1.71,3.77-1.71,3.77,0,0-11.33-6-15.67,6,0,0-11.8-2.12-13.75,7.33Z"/>
      </g>
      <path class="cls-3" d="m1.49,31.11h69.33s-.33-15.33-12.67-13.67c0,0,3.33-12.33-9.67-15.67-14.33-3.67-17.67,9.33-17.67,9.33,0,0-11.33-6-15.67,6,0,0-16.67-3-13.67,14Z"/>
    </g>
  </g>
</svg>