<?xml version="1.0" encoding="UTF-8"?>
<svg id="_圖層_2" data-name="圖層 2" xmlns="http://www.w3.org/2000/svg" viewBox="0 0 85.55 64.16">
  <defs>
    <style>
      .cls-1 {
        fill: none;
        stroke: #543c1a;
        stroke-linecap: round;
        stroke-linejoin: round;
        stroke-width: 1.89px;
      }

      .cls-2 {
        fill: #543c1a;
      }

      .cls-2, .cls-3, .cls-4, .cls-5, .cls-6 {
        stroke-width: 0px;
      }

      .cls-3 {
        fill: #b4d1e2;
      }

      .cls-4 {
        fill: #fff;
      }

      .cls-5 {
        fill: #efd472;
      }

      .cls-6 {
        fill: #efb072;
      }
    </style>
  </defs>
  <g id="_圖層_2-2" data-name=" 圖層 2">
    <path class="cls-4" d="M85.34,35.23c-.8-4.25-4.51-7.22-10-8.25,1.68-3.71,1.7-7.41-.25-10.3-1.42-2.13-3.45-2.87-4.67-3.31-.17-.06-.39-.14-.55-.21-.06-.15-.14-.36-.2-.52-.47-1.29-1.26-3.43-3.52-4.88-1.44-.95-3.16-1.45-4.98-1.45s-3.83.52-5.77,1.5c-1.35-4.12-4-6.94-7.58-7.65-.5-.11-1.02-.16-1.53-.16-1.88,0-3.32.7-4.27,1.17-.14.07-.32.16-.47.22-.16-.07-.35-.15-.5-.22-1.07-.48-2.53-1.14-4.41-1.14-.42,0-.84.04-1.26.1-.04,0-.07.01-.11.02-3.64.69-6.32,3.55-7.67,7.73-1.99-1.01-3.99-1.55-5.88-1.55s-3.58.52-4.99,1.47c-2.13,1.42-2.87,3.45-3.31,4.67-.06.17-.14.39-.21.55-.15.06-.36.14-.52.2-1.29.47-3.43,1.26-4.88,3.52-2.01,3.03-1.86,6.94.1,10.81-4.2,1.38-7.05,4.12-7.73,7.71-.32,1.7-.32,3.92.32,6.01-.09.46-.12.94-.08,1.41.03.38.94,9.39,14.48,9.39h1.43c-.53,1.12-.83,2.37-.83,3.7,0,4.63,3.63,8.4,8.1,8.4h33.9c3.16,0,5.9-1.89,7.23-4.64,1.17.28,2.51.44,4.07.44,7.68,0,10.4-3.82,10.4-7.1,0-.79-.16-1.62-.52-2.41,4.02-1.97,5.2-4.91,5.46-7.14,1.46-2.6,1.6-5.79,1.17-8.08Z"/>
    <g id="OBJECTS">
      <g>
        <path class="cls-4" d="M6.42,42.36h25c0-.2,0-.5-.1-.7v-.4c.7-3.7-4.6-7.8-11.8-9.2-7.2-1.5-13.7.4-14.4,4.1-.3,1.7,1.3,4,1.3,6.2,0,0,.1-.3,0,0h0Z"/>
        <path class="cls-1" d="M7.92,42.36h23.4c0-.2,0-.5-.1-.7v-.4c.7-3.7-4.6-7.8-11.8-9.2-7.1-1.5-13.6.4-14.3,4.1-.5,2.7.5,6.2,2.8,6.2h0Z"/>
        <g>
          <path class="cls-4" d="M46.82,5.06c-1.8-.4-3.1,1.4-5.3,1.4-1.9,0-3.5-1.7-5.3-1.4-3.7.7-5.5,7.2-4.1,14.4s5.5,12.5,9.2,11.8h.4c3.7.7,7.8-4.6,9.2-11.8s-.4-13.7-4.1-14.4h0Z"/>
          <path class="cls-1" d="M46.82,5.06c-1.8-.4-3.1,1.4-5.3,1.4-1.9,0-3.5-1.7-5.3-1.4-3.7.7-5.5,7.2-4.1,14.4s5.5,12.5,9.2,11.8h.4c3.7.7,7.8-4.6,9.2-11.8s-.4-13.7-4.1-14.4h0Z"/>
          <g>
            <path class="cls-3" d="M39.82,23.46c.7,4.5.5,8.3-.5,8.5s-2.2-3.4-2.9-8-.5-8.3.5-8.5,2.2,3.4,2.9,8Z"/>
            <path class="cls-3" d="M43.12,23.46c-.7,4.5-.5,8.3.5,8.5s2.2-3.4,2.9-8,.5-8.3-.5-8.5-2.2,3.4-2.9,8Z"/>
          </g>
        </g>
        <path class="cls-3" d="M23.52,39.76c4.5.7,8.3.5,8.5-.5s-3.4-2.2-8-2.9-8.3-.5-8.5.5,3.4,2.2,8,2.9Z"/>
        <path class="cls-4" d="M79.12,42.36h-25c0-.2,0-.5.1-.7v-.4c-.7-3.7,4.6-7.8,11.8-9.2,7.2-1.4,13.7.4,14.4,4.1.3,1.7-1.3,4-1.3,6.2,0,0-.1-.3,0,0h0Z"/>
        <path class="cls-1" d="M77.62,42.36h-23.5c0-.2,0-.5.1-.7v-.4c-.7-3.7,4.6-7.8,11.8-9.2,7.2-1.4,13.7.4,14.4,4.1.5,2.7-.5,6.2-2.8,6.2h0Z"/>
        <path class="cls-3" d="M62.02,39.76c-4.5.7-8.3.5-8.5-.5s3.4-2.2,8-2.9,8.3-.5,8.5.5-3.4,2.2-8,2.9Z"/>
        <path class="cls-4" d="M70.92,19.46c-1-1.5-3.2-1.2-4.7-2.8-1.4-1.4-1.2-3.7-2.8-4.7-3.1-2.1-9,1.1-13.1,7.3s-5,12.8-1.8,14.9c.1,0,.1.1.2.1,0,.1.1.1.1.2,2.1,3.1,8.8,2.3,14.9-1.8,6.1-4.1,9.3-10.1,7.2-13.2h0Z"/>
        <path class="cls-1" d="M70.92,19.46c-1-1.5-3.2-1.2-4.7-2.8-1.4-1.4-1.2-3.7-2.8-4.7-3.1-2.1-9,1.1-13.1,7.3s-5,12.8-1.8,14.9c.1,0,.1.1.2.1,0,.1.1.1.1.2,2.1,3.1,8.8,2.3,14.9-1.8,6.1-4.1,9.3-10.1,7.2-13.2h0Z"/>
        <g>
          <path class="cls-3" d="M53.02,27.56c-2.7,3.7-5.5,6.2-6.3,5.7-.8-.6.8-4,3.6-7.7s5.5-6.2,6.3-5.7c.7.5-.8,4-3.6,7.7Z"/>
          <path class="cls-3" d="M55.42,29.86c-3.7,2.7-6.2,5.5-5.7,6.3.6.8,4-.8,7.7-3.6,3.7-2.8,6.2-5.5,5.7-6.3-.6-.7-4,.9-7.7,3.6h0Z"/>
        </g>
        <g>
          <path class="cls-4" d="M19.52,11.96c-1.5,1-1.2,3.2-2.8,4.7-1.4,1.4-3.7,1.2-4.7,2.8-2.1,3.1,1.1,9,7.3,13.1,6.1,4.1,12.8,5,14.9,1.8,0-.1.1-.1.1-.2.1,0,.1-.1.2-.1,3.1-2.1,2.3-8.8-1.8-14.9-4.2-6-10.1-9.3-13.2-7.2h0Z"/>
          <path class="cls-1" d="M19.52,11.96c-1.5,1-1.2,3.2-2.8,4.7-1.4,1.4-3.7,1.2-4.7,2.8-2.1,3.1,1.1,9,7.3,13.1,6.1,4.1,12.8,5,14.9,1.8,0-.1.1-.1.1-.2.1,0,.1-.1.2-.1,3.1-2.1,2.3-8.8-1.8-14.9-4.2-6-10.1-9.3-13.2-7.2h0Z"/>
          <g>
            <path class="cls-3" d="M27.62,29.86c3.7,2.7,6.2,5.5,5.7,6.3-.6.8-4-.8-7.7-3.6s-6.2-5.5-5.7-6.3c.5-.7,4,.9,7.7,3.6Z"/>
            <path class="cls-3" d="M29.92,27.56c2.7,3.7,5.5,6.2,6.3,5.7.8-.6-.8-4-3.6-7.7s-5.5-6.2-6.3-5.7c-.7.5.9,4,3.6,7.7Z"/>
          </g>
        </g>
        <path class="cls-5" d="M59.52,42.36c0-.3.1-.6.1-.9,0-10-8.1-18.1-18.1-18.1s-18.2,8.1-18.2,18.1v.9h36.2Z"/>
        <path class="cls-6" d="M34.42,42.36h25.1c0-.3.1-.6.1-.9,0-4.2-1.4-8-3.8-11-1.3-.3-2.7-.5-4.2-.5-8-.1-14.8,5.1-17.2,12.4h0Z"/>
        <path class="cls-4" d="M43.42,25.96c5.4,0,10.2,2.3,13.5,6-3.2-5.2-8.9-8.8-15.5-8.8-10,0-18.1,8.1-18.1,18.1v.9h2c1-9,8.7-16.1,18.1-16.2Z"/>
        <path class="cls-1" d="M59.52,42.36c0-.3.1-.6.1-.9,0-10-8.1-18.1-18.1-18.1s-18.2,8.1-18.2,18.1v.9h36.2Z"/>
        <path class="cls-2" d="M74.22,52.86c0,1.2-2.4,2.1-5.4,2.1s-5.4-.9-5.4-2.1,2.4-2.1,5.4-2.1,5.4.9,5.4,2.1Z"/>
        <path class="cls-2" d="M5.42,42.26s.4,4.8,9.5,4.8h10.2c1.5,0,2.7,1.3,2.7,2.9,0,1-.5,1.9-1.2,2.4h-3c-1.7,0-3.1,1.5-3.1,3.4s1.4,3.4,3.1,3.4h33.9c1.7,0,3.1-1.5,3.1-3.4s-1.4-3.4-3.1-3.4h-4.5c-.7-.5-1.2-1.4-1.2-2.4,0-1.6,1.2-2.9,2.7-2.9h18.5c4.1-.8,6.2-2.4,6.2-4.8H5.42Z"/>
      </g>
    </g>
  </g>
</svg>