<?xml version="1.0" encoding="UTF-8"?>
<svg id="_圖層_2" data-name="圖層 2" xmlns="http://www.w3.org/2000/svg" viewBox="0 0 92.92 67.75">
  <defs>
    <style>
      .cls-1 {
        fill: none;
        stroke: #543c1a;
        stroke-linecap: round;
        stroke-linejoin: round;
        stroke-width: 1.89px;
      }

      .cls-2 {
        fill: #543c1a;
      }

      .cls-2, .cls-3, .cls-4, .cls-5, .cls-6 {
        stroke-width: 0px;
      }

      .cls-3 {
        fill: #b4d1e2;
      }

      .cls-4 {
        fill: #fff;
      }

      .cls-5 {
        fill: #efd472;
      }

      .cls-6 {
        fill: #efb072;
      }
    </style>
  </defs>
  <g id="_圖層_2-2" data-name=" 圖層 2">
    <path class="cls-4" d="M92.74,38.23c0-.05-.02-.11-.03-.16-.91-4.54-5.1-7.7-11.23-8.69,2.06-4.1,2.2-8.18.05-11.36-1.48-2.16-3.62-2.91-4.89-3.37-.27-.1-.65-.23-.82-.3-.1-.21-.23-.56-.32-.81-.52-1.4-1.3-3.53-3.49-5.03-1.5-1.02-3.31-1.55-5.23-1.55-2.17,0-4.47.68-6.75,1.95-1.35-4.72-4.21-7.97-8.14-8.76-.51-.1-1.02-.15-1.54-.15-1.93,0-3.45.72-4.45,1.19-.24.12-.56.27-.72.33-.2-.08-.49-.21-.72-.31-1.12-.51-2.64-1.21-4.6-1.21-.52,0-1.04.05-1.54.15-3.9.78-6.77,4.05-8.15,8.72-2.26-1.25-4.55-1.92-6.71-1.92-1.93,0-3.75.54-5.29,1.58-2.16,1.48-2.91,3.62-3.37,4.89-.09.27-.23.65-.3.82-.21.1-.56.23-.81.32-1.4.52-3.53,1.3-5.03,3.49-2.23,3.29-1.98,7.58.34,11.86C4.2,31.26.99,34.14.2,38.07c-.01.05-.02.11-.03.16-.41,2.47-.18,6,1.57,8.78.48,2.2,2.92,8.64,15.07,8.64h1.86c-.55,1.12-.86,2.37-.86,3.7,0,4.63,3.77,8.4,8.4,8.4h23c3.5,0,6.51-2.16,7.77-5.21,1.5.46,3.26.71,5.23.71,6.62,0,10.9-2.79,10.9-7.1,0-.17-.02-.33-.03-.5h6.53c.3,0,.6-.03.89-.08,7.9-1.44,10.15-5.28,10.67-8.19.06-.18.1-.36.14-.54,1.63-2.74,1.83-6.19,1.43-8.61Z"/>
    <g id="OBJECTS">
      <g>
        <path class="cls-4" d="M6.61,45.86h27.4c0-.2,0-.5-.1-.8,0-.1,0-.2-.1-.2,0-.1,0-.2.1-.2.8-4-5-8.6-13-10.1-7.9-1.5-15,.5-15.8,4.5-.3,2,1.5,4.5,1.5,6.8,0,0,.1-.3,0,0h0Z"/>
        <path class="cls-1" d="M8.31,45.86h25.7c0-.2,0-.5-.1-.8,0-.1,0-.2-.1-.2,0-.1,0-.2.1-.2.8-4-5-8.6-13-10.1-7.9-1.5-15,.5-15.8,4.5-.5,3,.7,6.8,3.2,6.8h0Z"/>
        <g>
          <path class="cls-4" d="M50.91,5.06c-2-.4-3.4,1.5-5.8,1.5-2.1,0-3.8-1.9-5.8-1.5-4,.8-6.1,7.9-4.5,15.8,1.5,7.9,6.1,13.7,10.1,13,.1,0,.2,0,.2-.1.1,0,.2,0,.2.1,4,.8,8.6-5,10.1-13,1.5-8-.5-15-4.5-15.8h0Z"/>
          <path class="cls-1" d="M50.91,5.06c-2-.4-3.4,1.5-5.8,1.5-2.1,0-3.8-1.9-5.8-1.5-4,.8-6.1,7.9-4.5,15.8,1.5,7.9,6.1,13.7,10.1,13,.1,0,.2,0,.2-.1.1,0,.2,0,.2.1,4,.8,8.6-5,10.1-13,1.5-8-.5-15-4.5-15.8h0Z"/>
          <g>
            <path class="cls-3" d="M43.21,25.16c.8,5,.5,9.1-.5,9.3s-2.5-3.8-3.2-8.7c-.8-5-.5-9.1.5-9.3s2.5,3.8,3.2,8.7h0Z"/>
            <path class="cls-3" d="M46.91,25.16c-.8,5-.5,9.1.5,9.3s2.5-3.8,3.2-8.7c.8-5,.5-9.1-.5-9.3s-2.5,3.8-3.2,8.7h0Z"/>
          </g>
        </g>
        <path class="cls-3" d="M25.31,43.06c5,.8,9.1.5,9.3-.5s-3.8-2.5-8.7-3.2c-5-.8-9.1-.5-9.3.5-.2,1.1,3.8,2.5,8.7,3.2Z"/>
        <path class="cls-4" d="M86.41,45.86h-27.5c0-.2,0-.5.1-.8,0-.1,0-.2.1-.2,0-.1,0-.2-.1-.2-.8-4,5-8.6,13-10.1,7.9-1.5,15,.5,15.8,4.5.3,2-1.4,4.5-1.4,6.8,0,0-.1-.3,0,0Z"/>
        <path class="cls-1" d="M84.61,45.86h-25.7c0-.2,0-.5.1-.8,0-.1,0-.2.1-.2,0-.1,0-.2-.1-.2-.8-4,5-8.6,13-10.1,8-1.5,15,.5,15.8,4.5.5,3-.6,6.8-3.2,6.8q.1,0,0,0Z"/>
        <path class="cls-3" d="M67.61,43.06c-5,.8-9.1.5-9.3-.5-.2-1,3.8-2.5,8.7-3.2,5-.8,9.1-.5,9.3.5.2,1.1-3.7,2.5-8.7,3.2Z"/>
        <g>
          <path class="cls-4" d="M77.41,20.86c-1.1-1.6-3.5-1.3-5.2-3-1.5-1.5-1.4-4.1-3-5.2-3.4-2.3-9.8,1.3-14.4,8-4.5,6.7-5.4,14-2,16.3.1,0,.1.1.2.1,0,.1.1.1.1.2,2.3,3.4,9.6,2.5,16.3-2,6.7-4.6,10.3-11,8-14.4h0Z"/>
          <path class="cls-1" d="M77.41,20.86c-1.1-1.6-3.5-1.3-5.2-3-1.5-1.5-1.4-4.1-3-5.2-3.4-2.3-9.8,1.3-14.4,8-4.5,6.7-5.4,14-2,16.3.1,0,.1.1.2.1,0,.1.1.1.1.2,2.3,3.4,9.6,2.5,16.3-2,6.7-4.6,10.3-11,8-14.4h0Z"/>
          <g>
            <path class="cls-3" d="M57.71,29.66c-3,4-6.1,6.8-6.9,6.2-.8-.6.9-4.4,3.9-8.4s6.1-6.8,6.9-6.2-.9,4.4-3.9,8.4h0Z"/>
            <path class="cls-3" d="M60.31,32.26c-4,3-6.8,6.1-6.2,6.9.6.8,4.4-.9,8.4-3.9,4.1-3,6.8-6.1,6.2-6.9-.5-.9-4.3.9-8.4,3.9h0Z"/>
          </g>
        </g>
        <g>
          <path class="cls-4" d="M21.01,12.66c-1.6,1.1-1.3,3.5-3,5.2-1.5,1.5-4.1,1.4-5.2,3-2.3,3.4,1.3,9.8,8,14.4,6.7,4.5,14,5.4,16.3,2,0-.1.1-.1.1-.2.1,0,.1-.1.2-.1,3.4-2.3,2.5-9.6-2-16.3-4.6-6.8-11-10.3-14.4-8h0Z"/>
          <path class="cls-1" d="M21.01,12.66c-1.6,1.1-1.3,3.5-3,5.2-1.5,1.5-4.1,1.4-5.2,3-2.3,3.4,1.3,9.8,8,14.4,6.7,4.5,14,5.4,16.3,2,0-.1.1-.1.1-.2.1,0,.1-.1.2-.1,3.4-2.3,2.5-9.6-2-16.3-4.6-6.8-11-10.3-14.4-8h0Z"/>
          <g>
            <path class="cls-3" d="M29.81,32.26c4,3,6.8,6.1,6.2,6.9s-4.4-.9-8.4-3.9c-4-3-6.8-6.1-6.2-6.9.6-.9,4.4.9,8.4,3.9h0Z"/>
            <path class="cls-3" d="M32.41,29.66c3,4,6.1,6.8,6.9,6.2.8-.6-.9-4.4-3.9-8.4-3-4-6.1-6.8-6.9-6.2s.9,4.4,3.9,8.4h0Z"/>
          </g>
        </g>
        <path class="cls-5" d="M64.91,45.86c0-.3.1-.7.1-1,0-11-8.9-19.9-19.9-19.9s-19.9,9-19.9,19.9v1h39.7Z"/>
        <path class="cls-6" d="M37.41,45.86h27.5c0-.3.1-.7.1-1,0-4.5-1.6-8.7-4.1-12.1-1.5-.3-3-.5-4.6-.5-8.9,0-16.3,5.7-18.9,13.6h0Z"/>
        <path class="cls-4" d="M47.21,27.96c5.9,0,11.1,2.6,14.8,6.6-3.5-5.7-9.8-9.6-17-9.6-11,0-19.9,8.9-19.9,19.9v1h2.2c1.1-10,9.6-17.9,19.9-17.9Z"/>
        <path class="cls-1" d="M64.91,45.86c0-.3.1-.7.1-1,0-11-8.9-19.9-19.9-19.9s-19.9,9-19.9,19.9v1h39.7Z"/>
      </g>
      <ellipse class="cls-2" cx="62.21" cy="56.16" rx="5.9" ry="2.1"/>
      <path class="cls-2" d="M6.61,45.86s.5,4.8,10.2,4.8h11c1.6,0,2.9,1.3,2.9,2.9,0,1-.5,1.9-1.3,2.4h-3.2c-1.9,0-3.4,1.5-3.4,3.4s1.5,3.4,3.4,3.4h23c1.9,0,3.4-1.5,3.4-3.4s-1.5-3.4-3.4-3.4h-4.9c-.8-.5-1.3-1.4-1.3-2.4,0-1.6,1.3-2.9,2.9-2.9h33.7c4.4-.8,6.7-2.4,6.7-4.8H6.61Z"/>
    </g>
  </g>
</svg>