<?xml version="1.0" encoding="UTF-8"?>
<svg id="_圖層_2" data-name="圖層 2" xmlns="http://www.w3.org/2000/svg" viewBox="0 0 54.93 62.31">
  <defs>
    <style>
      .cls-1 {
        fill: #f2eadb;
      }

      .cls-1, .cls-2, .cls-3, .cls-4, .cls-5, .cls-6, .cls-7, .cls-8, .cls-9, .cls-10, .cls-11, .cls-12, .cls-13, .cls-14, .cls-15, .cls-16, .cls-17, .cls-18, .cls-19, .cls-20, .cls-21, .cls-22, .cls-23, .cls-24, .cls-25, .cls-26, .cls-27, .cls-28, .cls-29, .cls-30, .cls-31, .cls-32, .cls-33, .cls-34, .cls-35, .cls-36, .cls-37, .cls-38, .cls-39, .cls-40, .cls-41, .cls-42, .cls-43, .cls-44, .cls-45, .cls-46, .cls-47, .cls-48, .cls-49, .cls-50, .cls-51, .cls-52, .cls-53, .cls-54, .cls-55, .cls-56, .cls-57, .cls-58, .cls-59, .cls-60, .cls-61, .cls-62, .cls-63, .cls-64, .cls-65, .cls-66, .cls-67, .cls-68, .cls-69, .cls-70, .cls-71, .cls-72, .cls-73, .cls-74, .cls-75, .cls-76, .cls-77, .cls-78, .cls-79, .cls-80, .cls-81, .cls-82, .cls-83, .cls-84, .cls-85, .cls-86, .cls-87, .cls-88, .cls-89, .cls-90, .cls-91, .cls-92, .cls-93, .cls-94, .cls-95, .cls-96, .cls-97, .cls-98, .cls-99, .cls-100, .cls-101, .cls-102, .cls-103, .cls-104, .cls-105, .cls-106, .cls-107, .cls-108, .cls-109, .cls-110, .cls-111, .cls-112, .cls-113, .cls-114, .cls-115, .cls-116, .cls-117, .cls-118, .cls-119, .cls-120, .cls-121, .cls-122, .cls-123, .cls-124, .cls-125, .cls-126, .cls-127, .cls-128, .cls-129, .cls-130, .cls-131, .cls-132, .cls-133, .cls-134, .cls-135, .cls-136, .cls-137, .cls-138, .cls-139, .cls-140, .cls-141, .cls-142, .cls-143, .cls-144, .cls-145, .cls-146, .cls-147, .cls-148, .cls-149, .cls-150, .cls-151, .cls-152, .cls-153, .cls-154, .cls-155, .cls-156, .cls-157, .cls-158, .cls-159, .cls-160, .cls-161, .cls-162, .cls-163, .cls-164, .cls-165, .cls-166, .cls-167, .cls-168, .cls-169, .cls-170, .cls-171, .cls-172, .cls-173, .cls-174, .cls-175, .cls-176, .cls-177, .cls-178, .cls-179, .cls-180, .cls-181, .cls-182, .cls-183, .cls-184, .cls-185, .cls-186, .cls-187, .cls-188, .cls-189, .cls-190, .cls-191, .cls-192, .cls-193, .cls-194, .cls-195, .cls-196, .cls-197 {
        stroke-width: 0px;
      }

      .cls-2 {
        fill: #f8f1e4;
      }

      .cls-3 {
        fill: #543c1a;
      }

      .cls-4 {
        fill: #c77406;
      }

      .cls-5 {
        fill: #c77707;
      }

      .cls-6 {
        fill: #e38304;
      }

      .cls-7 {
        fill: #e38203;
      }

      .cls-8 {
        fill: #e08002;
      }

      .cls-9 {
        fill: #e3870a;
      }

      .cls-10 {
        fill: #de8005;
      }

      .cls-11 {
        fill: #ddae58;
      }

      .cls-12 {
        fill: #df9e34;
      }

      .cls-13 {
        fill: #de8307;
      }

      .cls-14 {
        fill: #cb8716;
      }

      .cls-15 {
        fill: #cd973a;
      }

      .cls-16 {
        fill: #e0870c;
      }

      .cls-17 {
        fill: #e18b0d;
      }

      .cls-18 {
        fill: #e18b0a;
      }

      .cls-19 {
        fill: #df8104;
      }

      .cls-20 {
        fill: #df8207;
      }

      .cls-21 {
        fill: #e28305;
      }

      .cls-22 {
        fill: #e28406;
      }

      .cls-23 {
        fill: #e28e0f;
      }

      .cls-24 {
        fill: #e29013;
      }

      .cls-25 {
        fill: #e29217;
      }

      .cls-26 {
        fill: #c97b0f;
      }

      .cls-27 {
        fill: #e29b27;
      }

      .cls-28 {
        fill: #d77d05;
      }

      .cls-29 {
        fill: #e18407;
      }

      .cls-30 {
        fill: #e09f2f;
      }

      .cls-31 {
        fill: #d68f1d;
      }

      .cls-32 {
        fill: #e18808;
      }

      .cls-33 {
        fill: #dc8f14;
      }

      .cls-34 {
        fill: #da830c;
      }

      .cls-35 {
        fill: #da840a;
      }

      .cls-36 {
        fill: #bd8217;
      }

      .cls-37 {
        fill: #b27203;
      }

      .cls-38 {
        fill: #d98204;
      }

      .cls-39 {
        fill: #a57e23;
      }

      .cls-40 {
        fill: #af811f;
      }

      .cls-41 {
        fill: #a9852d;
      }

      .cls-42 {
        fill: #d39937;
      }

      .cls-43 {
        fill: #ce7900;
      }

      .cls-44 {
        fill: #b57b10;
      }

      .cls-45 {
        fill: #c27905;
      }

      .cls-46 {
        fill: #c2871c;
      }

      .cls-47 {
        fill: #b77515;
      }

      .cls-48 {
        fill: #edac3e;
      }

      .cls-49 {
        fill: #f2b84d;
      }

      .cls-50 {
        fill: #f2b64b;
      }

      .cls-51 {
        fill: #f2b74b;
      }

      .cls-52 {
        fill: #f2b74c;
      }

      .cls-53 {
        fill: #f2b64a;
      }

      .cls-54 {
        fill: #f1b244;
      }

      .cls-55 {
        fill: #fff;
      }

      .cls-56 {
        fill: #e48507;
      }

      .cls-57 {
        fill: #eea126;
      }

      .cls-58 {
        fill: #ec9613;
      }

      .cls-59 {
        fill: #eeb247;
      }

      .cls-60 {
        fill: #ee9f26;
      }

      .cls-61 {
        fill: #eb900d;
      }

      .cls-62 {
        fill: #eb8805;
      }

      .cls-63 {
        fill: #eb8e0d;
      }

      .cls-64 {
        fill: #eb8e0c;
      }

      .cls-65 {
        fill: #eb8e0b;
      }

      .cls-66 {
        fill: #eb8905;
      }

      .cls-67 {
        fill: #eb8906;
      }

      .cls-68 {
        fill: #eb8907;
      }

      .cls-69 {
        fill: #eb9514;
      }

      .cls-70 {
        fill: #e9ad43;
      }

      .cls-71 {
        fill: #eb910c;
      }

      .cls-72 {
        fill: #e88b07;
      }

      .cls-73 {
        fill: #e88808;
      }

      .cls-74 {
        fill: #e88604;
      }

      .cls-75 {
        fill: #e88603;
      }

      .cls-76 {
        fill: #e88806;
      }

      .cls-77 {
        fill: #e88908;
      }

      .cls-78 {
        fill: #e88706;
      }

      .cls-79 {
        fill: #e7ad45;
      }

      .cls-80 {
        fill: #ea8501;
      }

      .cls-81 {
        fill: #ea8603;
      }

      .cls-82 {
        fill: #ea8703;
      }

      .cls-83 {
        fill: #ea8704;
      }

      .cls-84 {
        fill: #ea8805;
      }

      .cls-85 {
        fill: #ea8806;
      }

      .cls-86 {
        fill: #ea8803;
      }

      .cls-87 {
        fill: #ea8906;
      }

      .cls-88 {
        fill: #ea8400;
      }

      .cls-89 {
        fill: #ea8602;
      }

      .cls-90 {
        fill: #ea8804;
      }

      .cls-91 {
        fill: #e9ae45;
      }

      .cls-92 {
        fill: #e9b963;
      }

      .cls-93 {
        fill: #ea8d0c;
      }

      .cls-94 {
        fill: #ea8d0b;
      }

      .cls-95 {
        fill: #ea8a06;
      }

      .cls-96 {
        fill: #e9af48;
      }

      .cls-97 {
        fill: #ec9415;
      }

      .cls-98 {
        fill: #ec9211;
      }

      .cls-99 {
        fill: #ec9313;
      }

      .cls-100 {
        fill: #ea9210;
      }

      .cls-101 {
        fill: #ea8b09;
      }

      .cls-102 {
        fill: #ea8b08;
      }

      .cls-103 {
        fill: #ea8f0d;
      }

      .cls-104 {
        fill: #e58d0d;
      }

      .cls-105 {
        fill: #ea9316;
      }

      .cls-106 {
        fill: #ea9c23;
      }

      .cls-107 {
        fill: #f0b142;
      }

      .cls-108 {
        fill: #e5a83f;
      }

      .cls-109 {
        fill: #e68807;
      }

      .cls-110 {
        fill: #f0b347;
      }

      .cls-111 {
        fill: #e68707;
      }

      .cls-112 {
        fill: #f0ad3c;
      }

      .cls-113 {
        fill: #f0b449;
      }

      .cls-114 {
        fill: #f0af3f;
      }

      .cls-115 {
        fill: #f0ae3e;
      }

      .cls-116 {
        fill: #f0b143;
      }

      .cls-117 {
        fill: #efb449;
      }

      .cls-118 {
        fill: #ec910a;
      }

      .cls-119 {
        fill: #ec9717;
      }

      .cls-120 {
        fill: #ec910f;
      }

      .cls-121 {
        fill: #ec9111;
      }

      .cls-122 {
        fill: #ec9110;
      }

      .cls-123 {
        fill: #ec900d;
      }

      .cls-124 {
        fill: #ec900f;
      }

      .cls-125 {
        fill: #e6aa42;
      }

      .cls-126 {
        fill: #e79216;
      }

      .cls-127 {
        fill: #e7991d;
      }

      .cls-128 {
        fill: #e7971b;
      }

      .cls-129 {
        fill: #e78802;
      }

      .cls-130 {
        fill: #e78908;
      }

      .cls-131 {
        fill: #e78a0b;
      }

      .cls-132 {
        fill: #e6b151;
      }

      .cls-133 {
        fill: #e78f10;
      }

      .cls-134 {
        fill: #e68d0c;
      }

      .cls-135 {
        fill: #e68e12;
      }

      .cls-136 {
        fill: #e68505;
      }

      .cls-137 {
        fill: #eba230;
      }

      .cls-138 {
        fill: #ebb148;
      }

      .cls-139 {
        fill: #ebb047;
      }

      .cls-140 {
        fill: #ebb656;
      }

      .cls-141 {
        fill: #efb54b;
      }

      .cls-142 {
        fill: #efa32a;
      }

      .cls-143 {
        fill: #efb347;
      }

      .cls-144 {
        fill: #efb244;
      }

      .cls-145 {
        fill: #ecab3d;
      }

      .cls-146 {
        fill: #ebe5da;
      }

      .cls-147 {
        fill: #eca029;
      }

      .cls-148 {
        fill: #ed9719;
      }

      .cls-149 {
        fill: #ed991c;
      }

      .cls-150 {
        fill: #ed991b;
      }

      .cls-151 {
        fill: #efa733;
      }

      .cls-152 {
        fill: #efb143;
      }

      .cls-153 {
        fill: #efb146;
      }

      .cls-154 {
        fill: #ecb34a;
      }

      .cls-155 {
        fill: #ed9a1f;
      }

      .cls-156 {
        fill: #ed9b1c;
      }

      .cls-157 {
        fill: #ed9b1f;
      }

      .cls-158 {
        fill: #f1af3f;
      }

      .cls-159 {
        fill: #f1b549;
      }

      .cls-160 {
        fill: #f1b548;
      }

      .cls-161 {
        fill: #f1b141;
      }

      .cls-162 {
        fill: #f1b142;
      }

      .cls-163 {
        fill: #f1b74c;
      }

      .cls-164 {
        fill: #f1b447;
      }

      .cls-165 {
        fill: #f1b448;
      }

      .cls-166 {
        fill: #f1b041;
      }

      .cls-167 {
        fill: #f1b346;
      }

      .cls-168 {
        fill: #f1b345;
      }

      .cls-169 {
        fill: #e99516;
      }

      .cls-170 {
        fill: #e98f12;
      }

      .cls-171 {
        fill: #e7a436;
      }

      .cls-172 {
        fill: #f5f3ef;
      }

      .cls-173 {
        fill: #f5ecdc;
      }

      .cls-174 {
        fill: #e99316;
      }

      .cls-175 {
        fill: #e98907;
      }

      .cls-176 {
        fill: #e98a09;
      }

      .cls-177 {
        fill: #e98a08;
      }

      .cls-178 {
        fill: #e98d0f;
      }

      .cls-179 {
        fill: #e98603;
      }

      .cls-180 {
        fill: #eb8b09;
      }

      .cls-181 {
        fill: #eb8b08;
      }

      .cls-182 {
        fill: #eab659;
      }

      .cls-183 {
        fill: #eb8d0a;
      }

      .cls-184 {
        fill: #eb8d0c;
      }

      .cls-185 {
        fill: #eb8d0b;
      }

      .cls-186 {
        fill: #eb8c0b;
      }

      .cls-187 {
        fill: #eb8c09;
      }

      .cls-188 {
        fill: #eb8c08;
      }

      .cls-189 {
        fill: #eb8a08;
      }

      .cls-190 {
        fill: #eb8a07;
      }

      .cls-191 {
        fill: #e8971c;
      }

      .cls-192 {
        fill: #e89b1f;
      }

      .cls-193 {
        fill: #eaa434;
      }

      .cls-194 {
        fill: #eaa433;
      }

      .cls-195 {
        fill: #f4f0ea;
      }

      .cls-196 {
        fill: #e88d0e;
      }

      .cls-197 {
        fill: #eb991c;
      }
    </style>
  </defs>
  <g id="_圖層_2-2" data-name=" 圖層 2">
    <path class="cls-55" d="M50.59,39.59c-.22-.62-.44-1.26-.67-1.9.49-.66.9-1.32,1.28-1.93,6.78-10.24,4.16-23.23-6.41-31.63C41.92,1.86,36.99.3,32,.07c-.7-.04-1.41-.07-2.11-.07-4.99,0-9.77,1.1-14.13,3.23-6.28,2.96-10.87,7.63-13.64,13.89-5.58,12.52.21,27.37,12.92,33.1,3.48,1.56,6.76,2.5,9.98,2.87.43.81.89,1.5,1.31,2.13.23.35.47.71.7,1.09,1.12,2.07,3.42,4.67,8.06,5.63.49.12,1.18.28,2,.32.43.04.87.06,1.3.06h0c7.72,0,13.74-5.62,14-13,.14-2.84-.22-5.38-1.11-7.8-.24-.64-.46-1.28-.68-1.92Z"/>
    <g id="_圖層_2-2" data-name=" 圖層 2-2">
      <path class="cls-3" d="M41.69,8.06c8.8,7,10.5,17.2,5.3,25-.5.8-1,1.6-1.6,2.3-.8,1-.9,2-.5,3.2.6,1.5,1.1,3.1,1.7,4.7.7,1.9.9,3.8.8,5.8-.2,5.6-5.3,8.7-10,8.2-.4,0-.8-.1-1.2-.2-2-.4-3.8-1.3-4.8-3.2-.7-1.2-1.5-2.2-2.1-3.4-.7-1.4-1.7-2.1-3.3-2.3-3.1-.3-6-1.2-8.9-2.5C6.89,41.06,2.19,29.26,6.69,19.16c2.3-5.2,6.1-9,11.2-11.4,4.3-2.1,9-3,13.8-2.7,4.2.2,8.1,1.5,10,3h0Z"/>
      <path class="cls-49" d="M30.19,17.16c-.3.2-.6.4-.8.5-1.2-.1-1.2.4-.5,1.1-.1.7-.2,1.5-.1,2.2.2.8-.2,1.3-1,1.4-1,.2-.7.8-.3,1.3.1.2.1.4.1.6-.3.7,0,1.3.3,1.9,0,.4-.2.8-.4,1.2l-.3.3c-.2.1-.4.1-.6.1-.5,0-1-.3-1.1.5-.1.4,1,1.1-.2,1.3-.4-.2-.8-.2-1.1-.5-.3-1-1-.7-1.6-.5-.8,0-1.5-.2-2.3,0-1.8.5-2.3,2.3-1,3.6,1.3,1.4,2.9,2.1,4.8,1.9.2,0,.4.1.5.3,0,.8-.1,1.6,1.2,1,.9-.4,1.5.1,1.6,1,.1.4-.1.8.5,1.1.1-1-.9-2.1.3-2.9.5.4,1,.8,1.2,1.4.1.8.4,1.3,1.1,1.6.1.2.3.3.4.5-1,1.1.3.8.7,1.1l.7,1.2c0,.6-.6.5-.9.6-.7.1-.7.6-.5,1.2.3,1-.1,1.6-1.1,1.7-.2.1-.8-.1-.4.5.2,0,.3-.1.5-.2.2-.1.4-.1.6-.1.4.1.7.3.9.7.1.1.1.3.1.5-.3.8-.7,1.2-1.6.7-.3-.2-.7-.2-1-.2-.5-.1-1.1-.1-1.6-.3-.2-.6-.3-1.2-.5-1.8,0-.6.3-1,.7-1.3s1.1-.1,1.3-.7c-.2-.5-.5-.2-.7-.1-.5.3-.9.3-1.4,0-.1-.1-.2-.2-.2-.3s-.1-.2-.1-.3v-.5c0-.2-.1-.3-.3-.4-.1-.1-.3-.1-.5-.1-.3.1-.5.3-.8.4-.2.1-.4.1-.6.1-.8,0-1,.5-.8,1.2v.6c-.1.4-.2.7-.5,1-.2.2-.4.2-.6.1-.2-.1-.4-.2-.5-.4-.5-.5-.1-1.1-.2-1.6-.2-.6-.6-1.1-.6-1.8,0-.6-.4-.6-.8-.4-.5.1-1.1.1-1.6.3.7,0,1.5-.5,2,.4.3.5.3,1-.2,1.4-.4.2-.9.1-1.4.2-.3.2-.5.5,0,.7.3,0,.4-.2.5-.5,0,0,.1-.1.1-.2.1-.1.2-.1.3-.2.3,0,.5.1.6.3s.3.4.5.5c.1.1.2.1.2.2.1.2.1.3,0,.5-.1.1-.1.2-.2.2s-.2.1-.2.1c0,.1.2.1.2.2.2.3.4.7.4,1,0,.1-.1.2-.2.3-.4-.1-.9-.2-1.2-.4-.4-.5-.9-.6-1.5-.5-.5-.2-1-.3-1.5-.7-.1-.8-.8-.6-1.4-.7-.6-.3-1.1-.7-1.5-1.2-.2-.6-.4-1.1-1.2-1-.9-.7-1.6-1.7-2.3-2.6-.3-.5.1-1.3-.9-1.4-2.6-4.1-3.1-8.5-2.1-13.2.6-3,2-5.7,4.1-8,1.4-1.6,3-3.1,4.9-4.2.6-.1,1.3,0,1.4-.8,4.1-2,8.4-3,12.9-2.8.4.8,1,1,2,.7.7,0,1.3,0,1.9-.2.7.1,1.3.3,1.9.6-.3.9-.5,1.6.9,1,.7-.3,1.3.3,2,.2.2.1.4.2.6.4.7.5.4.8-.2,1-.4.1-.9.1-.9.8q.1,2-2,2.1c-.6.1-1.2.4-1.7-.2-.1-.2-.2-.3-.2-.5.1-1.4-.6-1.2-1.5-.8-.4.1-.8-.2-1.2-.2-.8.5-.1.9.1,1.3.1.1.1.3.2.4v.4c-.2.6-.2,1.1.6.9.6-.1,1.2-.6,1.7.1.4.7,0,1.3-.4,1.8-.1.1-.2.1-.4.1-1.5-.3-2.8.3-4.1.2h0Z"/>
      <path class="cls-88" d="M36.89,13.06c.3-.2.7-.1,1,0,.8.1,1.2-.6.8-1.2-.3-.5-.6-.9-.2-1.4.3-.5.8-.4,1.2-.2.7.2.5-.3.3-.6.8.2,1.4.8,2,1.4,0,.4-.2.5-.4.7-.4.1-.8-.2-1.3,0,.3.4.6.1.9.1.7-.3,1.4-.1,2,.2.4.2.6.6.8.9-.1.4-.5.3-.7.6-.4.9.5,2-.5,2.8-.5.3-1,0-1.8.2.9.3,1.5-.2,2.1.1.4.2.7.6.7,1,0,.7.1,1.2,1,.6.2-.1.3-.2.5-.3h.4c.5.2.9.5,1.2,1,.1.2.1.4,0,.6,0,.2-.1.4,0,.6.1.5.4.5.8.5.2.4.2.8.2,1.2-.2.2-.4.3-.6.5-1.5.8-2,.5-2.4-1.2,0-.1,0-.2-.1-.3-.1.1,0,.3,0,.4.1.6.2,1.2.1,1.9,0,.3.2.6.3.9,0,.1.1.2,0,.4,0,.3-.2.6,0,.9.4.4.8.2,1.1.1.5-.1.9-.2,1.1.4,0,1.3-.5,2.4-1,3.6-.6.2-1,.9-1.7.8-.2,0-.3-.1-.4-.1-.3-.2-.4-.4-.5-.7,0-1.3,1.1-1.2,1.9-1.4-2,0-2.2.2-2,1.3.1.5-.2.8-.2,1.3.1.2.2.2.4.2s.4-.2.6-.3c.1-.1.2-.1.4-.2.3,0,.7,0,.8.4-.4.6-.5,1.3-1.1,1.8-.8.5-1.8.6-3,.7.9.6,1.7-.9,2.3.3-.4.5-.7,1-1.1,1.5-.5.2-.9.9-1.4.8-1.6-.2-1.5.6-1.1,1.6-.2.6-.5,1-1.1,1.3-.2,0-.3,0-.4-.2-.4-.3-.7-.8-.9-1.3-.1-.5-.1-1-.7-1-.9-1.1-1.7-2.3-2.4-3.5.5-.8,1.3-.4,1.9-.5.7-.1,1.3-.6,2-.7-.8-.1-1.8.6-2-.8,0-.4.2-.7.5-.9.1-.1.2-.1.4-.2.3,0,.5,0,.8-.1.5-.2.5-.6.2-1-.2-.4-.3-.8,0-1.2s.6-.6,1.1-.7c.4,0,.8.1,1-.2.1-.2.1-.3,0-.4s-.2-.3-.3-.4-.1-.2-.2-.4c0-.1,0-.3.1-.4.2-.5.6-.8,1.1-1,.2-.1.5,0,.7-.1-.2,0-.5,0-.7.1-1.5.3-1.6-.8-1.8-1.9-.4.7.3,1.5-.3,2.1-.2.3-.6.5-1,.5-.3,0-.5-.1-.8-.1-.5-.1-.8.5-1.2.5-.3,0-.5-.1-.8-.3-.1-.1-.2-.2-.3-.3-.1-.2-.1-.4-.1-.6,0-.3.1-.6.1-1,0-.3-.3-.4-.5-.6,0,0-.1-.1-.2-.1l-.1-.1q0-.1-.1-.2c0-.1,0-.2.1-.4.1-.2.2-.3.2-.5.1-.2,0-.4-.1-.6-.3-.4-.4-.9-.2-1.4.2-.4.6-.7,1.1-.7.2,0,.3.1.4.1.5.3.4.9.4,1.3.1.3.2.5.5.6.4-.2.2-.5.1-.7-.2-.4-.5-.7-.4-1.2.1-.2.3-.4.5-.5.7-.1,1.2.2,1.6.8.3.4-.1.9.3,1.2.3-.3,0-.5-.1-.8s-.2-.6-.1-1c0-.3.2-.6.1-.9-.1-.2-.3-.4-.4-.6-.1-.3-.2-.6-.1-1,0-.3.1-.6-.4-.8-.3,0-.5.2-.8.3-.5.2-1,.1-1.3-.4.4-.8.7-1.2,1.2-1.5h0Z"/>
      <path class="cls-75" d="M36.09,37.36c.3.4.6.7.7,1.2-.2.2-.5.2-.6.6.3.2.6-.2.9-.2.5.5.9,1,1.1,1.7-.2,1-1.3.2-1.9.8,1,.1,1.9-.7,2.6.2.2.3.1.6-.2.7-.4.3-.8.6-1.1.9-.7-.2-1.1,1-2,.5-.4-.5-.5-1.1-.7-1.7.1-.3-.2-.4-.3-.7-.3-.4-.5-.8-.6-1.2.2-.7-.5-1.2-.7-1.8,1-1.4,1.4-1.6,2.8-1h0Z"/>
      <path class="cls-101" d="M27.99,34.76c-.1.7-.8,1.4.1,2.1.4.3.4.8,0,1.2-.2.2-.5.3-.7.1-.4-.3-1-.5-.8-1.1.1-.2.2-.4.2-.6,0-.6-.8-.9-1.3-.5s-.9.4-1.4,0c-.6-.5-.2-1,.1-1.5,1-.2,2-.7,3.1-.5.4.2.6.5.7.8h0Z"/>
      <path class="cls-143" d="M44.89,23.36c-.3-.7,0-1.3,0-2,0-.3.2-.5.4-.5v.5c.2,1.2.7,1.4,1.6.8.3-.2.6-.6,1-.3.2,1.3.2,2.5-.2,3.8-.4-.2-.7-.2-1.1,0q-1,.5-1.6-.5c-.1-.4.4-.5.3-.9h0c0-.2.1-.2.3-.3.4-.1.8.6,1.3.2.1-.1.1-.2,0-.3-.5-.5-.9.2-1.4.1-.2-.1-.5-.3-.6-.6h0Z"/>
      <path class="cls-59" d="M30.59,34.36c-.5-.3-.8-.9-1.2-1.4,0-.7-.4-1.3-.5-2,.3-.4.7-.8,1-1.2.6,0,1.1-.3,1.7-.2.7,1,1.2,2.1,1.7,3.3-.2.8-.8.5-1.2.4-.1-.1-.3-.1-.4-.2-.5-.4,0-1.2-.7-1.6-.2.7.6,1.1.4,1.7-.2.6-.3,1-.8,1.2Z"/>
      <path class="cls-179" d="M34.69,31.36c-.2-.2-.3-.3-.3-.6.4-.7,0-1-.7-1.1-.3-.5-.6-1-.7-1.6.5-.4,1.2-.1,1.7-.4.4-.2.8-.3,1.3-.2.3.1.5.3.7.6.1.2.1.5.1.7,0,.4,0,.8.2,1.2.3.7.4,1.4-.3,1.9-.9.4-1.5,0-2-.5h0Z"/>
      <path class="cls-110" d="M34.69,31.36c.3-.1.6.1.8.3.4.2.8.1,1.1-.3s.4-.8,0-1.1c-.6-.6-.6-1.1-.1-1.8.8-.4,1.7,0,2.5-.5.4.5,0,.9-.3,1.3-.2.1-.3.1-.5.2h0c-.4.2-.7.5-.8.9.2.6.6.8,1.2.6.3-.1.5-.3.8-.4.4-.2.6.1.7.4.2.3,0,.7-.3.7-.9,0-1.7.2-2.4.8-.1.1-.3,0-.4-.1-.6-.4-1.1,0-1.6.1-.3-.3-.6-.7-.7-1.1h0Z"/>
      <path class="cls-113" d="M35.09,18.76c-.2.6.2.9.6,1.2.1.2-.2.4-.1.7l-.4.5c-.3.1-.5.1-.8.1-.5-.1-1,.4-1.6,0v-1.2c.2-.5.9-.2,1-.8-.3-.6-.8-.1-1.2-.3-.3-.5-.5-1-.8-1.4.7-.7,1.8-.2,2.5-.7h0c.5-.1.9.2,1.3.5.1.1.1.2.1.4-.1.3-.5.5-.6,1h0c.1,0,0,0,0,0Z"/>
      <path class="cls-145" d="M27.19,24.36v-.5c.2-.6.4-1.1.2-1.8.8.1,1.1-.4,1.3-1.1.4,1,.4,2,.8,3-.2.7.2,1.2.6,1.7h0c-.8,1.6-1.1,1.6-2,.4.1-.8-.4-1.2-.9-1.7h0Z"/>
      <path class="cls-171" d="M26.49,27.66h.5c.1,0,.2,0,.3.1.2.1.3.3.6.3.2,0,.4-.1.7-.1.2,0,.4,0,.5.1-.2,1-1.1,1.7-1.7,2.4-.2.3-.5.2-.8.1-.5-.3-1-.6-1.5-.9.3-.2.5-.3.1-.6-.2-.2-.4-.3-.3-.6.6-.2,1.2-.3,1.6-.8h0Z"/>
      <path class="cls-163" d="M26.29,40.86c.5.4.9.7,1.5.1.6-.5.9-.3,1.3.6-.7-.1-1.1.2-1.6.6-.3.5-.9.8-.7,1.4-.5.5-1,1-1.3,1.7-.2,0-.5-.1-.7-.1,0-.1-.1-.2-.1-.3-.1-.2-.2-.3-.3-.5-.1-.1-.1-.2-.2-.3-.1-.8.4-1.2,1.1-1.4,1,0,1.5-.3.9-1.3-.1-.2-.1-.4.1-.5h0Z"/>
      <path class="cls-152" d="M39.59,38.46c.4-.5.8-.9,1.2-1.4q0-.2.2-.3c.6.3,1.2.6,1.7.9,0,.2.1.3.1.5-.4.5-.8,1.1-.8,1.8-.4.3-.7,1.2-1.2.2,0-.9-.9-1.1-1.2-1.7h0Z"/>
      <path class="cls-139" d="M31.09,48.76c-.3-.7-.6-1.3-.9-2,.1-.5.5-.3.8-.4.3,0,.6,0,1-.1.5-.2,1-.4,1.5-.3.3,0,.5.1.7.4-.4.6-1,1-1.5,1.5-.7.1-1.1.7-1.6.9h0Z"/>
      <path class="cls-79" d="M21.99,30.76c1.1.2,2,.6,3,1.3-1.1.7-2,.9-3,.3-.5-.4-.3-.9-.2-1.4,0-.1.1-.2.2-.2Z"/>
      <path class="cls-131" d="M39.49,9.26c-.4.2-.7.5-1.1.2-.5-.3-.8-.1-1.2.1-.5.3-1,.3-1.3-.2-.3-.6,0-.9.5-1.2.1,0,.2-.1.3-.1.1-.1.2,0,.4.1.1.2.3.3.5.3.7.1,1.3.4,1.9.8h0Z"/>
      <path class="cls-143" d="M40.99,36.76c-.1.1-.1.2-.2.3-.2-.2-.6-.5-.7-.8-.3-.5.2-1.3.7-1.1.9.4,1.5,0,2.2-.4.1-.1.3,0,.5,0-.1.5-.4,1-.7,1.4-.6.3-1.2.5-1.8.6h0Z"/>
      <path class="cls-1" d="M37.79,51.26c-.5.4-1,.8-1.6,1.2-.5-.1-1.1-.1-1.4-.7,1.2-1,2.7-1.4,3.8-2.5.4.2.4.5.2.9-.3.3-.7.6-1,1.1h0Z"/>
      <path class="cls-144" d="M44.49,33.26c-.6-.4-1-.1-1.4.4-.3.3-.6.4-.9.1-.4-.3-.4-.7-.2-1.1.2-.4.5-.5.9-.3.5.3.9.3,1.4-.1.3-.3.7-.2,1,0-.2.4-.5.7-.8,1h0Z"/>
      <path class="cls-82" d="M34.29,16.86c-.4.6-.9,1.1-1.8.6-.2-.1-.5,0-.7.1-.5-.4-1.1-.4-1.6-.5.3-.5.6-.6,1.1-.4s.8.2,1.3-.3c.6-.7,1.2.1,1.7.5h0Z"/>
      <path class="cls-179" d="M30.39,42.16c-.5-1.1-.4-1.4.8-1.5.3,0,.7.1,1-.2.3.5.6,1,.8,1.5-.2.2-.5,0-.7,0s-.3.1-.5.2c-.2.2-.3.3-.4.3-.4.2-.8.2-1-.3h0Z"/>
      <path class="cls-173" d="M40.89,49.36c-.2.1-.4.3-.5.4-.5-.2-.8-.6-.9-1.1.9-1,2.2-1.3,3.1-2.2.4-.1.7.1.9.5-.1.8-1.2.4-1.4,1.1-.4.4-.9.7-1.2,1.3h0Z"/>
      <path class="cls-125" d="M27.39,33.96c-.2,0-.5,0-.6.1-.8.8-1.7.5-2.6.4-.1-.1-.3-.2-.5-.3.6-.2,1.2-.4,1.7-.7.9-.4,1.5-.2,2,.5h0Z"/>
      <path class="cls-56" d="M43.29,12.96c.3,0,.6-.1.8-.1.8.5,1.2,1.3,1.6,2.1,0,.4-.2.6-.5.8-.3.1-.7,0-1-.1-.5-.3-.9-.9-.6-1.2.7-.9-.3-1-.3-1.5h0Z"/>
      <path class="cls-48" d="M39.09,41.66c-.7-.1-1.4-.5-1.9.4-.3.5-.7.2-1-.1-.3-.2-.4-.5-.2-.8s.5-.8,1-.5.9.4,1.4,0c.3.2.4.6.7,1-.1,0,0,0,0,0Z"/>
      <path class="cls-182" d="M43.49,47.06l-.8-.7c.5-.4,1-.8,1.6-1.1.4-.1.7.1,1,.3-.1,1-.8,1.5-1.5,2-.4-.2-.3-.3-.3-.5h0Z"/>
      <path class="cls-135" d="M32.79,7.86c-.3.1-.6.4-.9.6-.7.5-1.1.3-1.2-.5v-.9c.7-.1,1.5-.1,2.2.2.1.2.1.4-.1.6h0Z"/>
      <path class="cls-136" d="M25.49,45.36c0-.9.5-1.4,1.3-1.7.2.6.9,1.1.2,1.8-.4.1-.9,0-1.5-.1h0Z"/>
      <path class="cls-78" d="M30.59,34.36c.1-.4.2-.8.5-1.1.3-.2.5-.1.8-.1h0c.5.1.8.4.9,1,0,.3-.2.6-.4.8-.5.3-1,.3-1.5,0,0-.2-.2-.4-.3-.6h0Z"/>
      <path class="cls-178" d="M32.89,21.26c.6,0,1-.7,1.7-.3.3,0,.5.1.5.4h0c0,.2.2.4.1.6-.1.3-.3.5-.5.6s-.4.1-.6.1c-.5,0-.9-.3-1.2-.7-.1-.2-.2-.4,0-.7h0Z"/>
      <path class="cls-155" d="M30.39,42.16c.4.3.7.1,1.1.1.5.3,1,.2,1.5.1.1.1.2.2.1.4-.1.5.2,1,.1,1.5-.4.3-.7.1-1-.1-.3-.2-.6-.6-1-.4-.5.2,0,.7,0,1,0,.2-.1.2-.3.3l-1-.8c-.4,0-.7-.2-.8-.6,1.4-.1,1.5-.4,1.3-1.5h0Z"/>
      <path class="cls-74" d="M32.59,19.06c.3-.3.5-.6,1-.5s.9.4.8,1c0,.5-.4.7-.8.7h-.8c-.1-.5-.3-.9-.2-1.2h0Z"/>
      <path class="cls-81" d="M32.19,25.46q0-.1.1-.2c0-.2.3-.4.2-.7h0c0-.2.2-.4.2-.7h0c0-.2.1-.3.3-.3.2.1.4.2.5.4-.2.9.2,1.7.5,2.5-.1.5-.4.9-.9,1.1-.2,0-.3,0-.4-.2h0c0-.3-.2-.4-.3-.6h0c0-.2-.3-.4-.2-.6h0c-.2-.3.1-.5,0-.7h0Z"/>
      <path class="cls-107" d="M32.79,27.56c.3-.4.7-.8,1-1.2h.2c.5.1.9.4,1,1,0,.2-.2.4-.5.5-.5.6-1.2.2-1.8.2-.1-.1-.1-.2-.2-.3v-.1l.3-.1h0Z"/>
      <path class="cls-73" d="M40.99,36.76c.4-.7,1-.9,1.7-.6,0,.5,0,1-.1,1.5-.8.2-1.3-.1-1.6-.9Z"/>
      <path class="cls-151" d="M25.39,42.96c-1,.5-1.1.6-.7,1.4-.3.5-.9.4-1.3.6-.1,0-.2,0-.4-.1-.1-.4.1-.7.4-1,.5-.5.6-1.1.4-1.8.5-.5,1.3-.5,1.7-1.2.3-.2.5-.3.8-.1h0v.4c-.2.8-.7,1.2-.9,1.8h0Z"/>
      <path class="cls-7" d="M34.39,34.66c.4.5.8,1,1,1.6-.6,1.2-1.3.6-1.9,0-.2-.2-.2-.5-.1-.8.2-.4.5-.7,1-.8h0Z"/>
      <path class="cls-137" d="M29.09,27.96c-.2,0-.3.1-.5.1-.2-.8-.7-1-1.4-.7-.1-.5.3-.8.5-1.1.1-.5.2-.9.8-.6-.3.4-.2.8.3,1,.3.2.6-.1.8-.3l.5-.6c-.1.9-.5,1.6-1,2.2h0Z"/>
      <path class="cls-132" d="M39.49,48.56c.4.3.8.6.9,1.1-.4.2-.7.6-1.1.6-.3,0-.4-.1-.4-.4-.1-.3-.1-.5-.2-.8.2-.2.5-.3.8-.5h0c0,.1,0,0,0,0Z"/>
      <path class="cls-175" d="M28.79,18.86c-1.2-.5-1.4-.9-.8-1.5.6-.5.9,0,1.3.4-.2.3-.3.7-.5,1.1Z"/>
      <path class="cls-146" d="M34.89,53.26c-.3.2-.5.5-.8.6-.3.2-.6.2-.7-.2.1-.5-.1-1,.3-1.4.3-.2.7-.4,1-.5.5.4.2,1,.2,1.5h0Z"/>
      <path class="cls-28" d="M28.89,31.06c.7.6.8,1.3.5,2-.3-.2-.6-.4-.8-.6-.6-.6-.5-1.1.3-1.4h0Z"/>
      <path class="cls-111" d="M31.59,29.76c-.5.5-1.1.6-1.7.2.3-.5.7-1.1,1-1.7.5.4.7.9.7,1.5h0Z"/>
      <path class="cls-13" d="M21.89,31.06c.3.4,0,.9.1,1.3-.8-.1-1.3-.6-1.6-1.3-.2-.5.2-.4.5-.4.2.1.3.1.5,0h0c.2,0,.3.3.5.4h0Z"/>
      <path class="cls-194" d="M33.59,36.06c.6.4,1.1,1,1.8.2.4.3.5.7.7,1.1-1.1-.2-1.9.1-2.5,1.1h-.2c-.2-.1-.3-.2-.3-.4h0c0-.1,0-.2.1-.4.5-.4.3-.9.1-1.3.1-.1.2-.2.3-.3h0Z"/>
      <path class="cls-194" d="M34.39,34.66c-.3.3-.5.6-.8.9-.5-.4-.3-1.1-.8-1.4-.1-.4-.4-.8-.7-1,.4-.2,1,.4,1.3-.2.3.6.6,1.2,1,1.7h0Z"/>
      <path class="cls-154" d="M33.39,24.06c-.2-.1-.3-.2-.5-.4q-.1,0-.2-.1c-.1-.1,0-.1,0-.1.1-.5.1-.9.2-1.4.5,0,.8.4,1.2.5h.2c.1.1.1.3.1.4-.1.4-.4.8-.8,1-.1,0-.2.1-.2.1h0Z"/>
      <path class="cls-10" d="M41.89,39.96c-.5-1.1-.4-1.2.8-1.8.6,1.5.5,1.3-.8,1.8Z"/>
      <path class="cls-116" d="M37.19,38.96c-.2.2-.3.4-.5.6-.3.3-.6.4-.9.1-.5-.4-.2-.7.1-1,.3-.4.6-.3,1-.1.1.1.2.3.3.4Z"/>
      <path class="cls-22" d="M32.69,37.26c-.5-.5-.8-1-1.1-1.6.3-1,.8-.5,1.3-.2.2.2.3.4.3.6v.7c-.1.2-.2.4-.4.5h-.1Z"/>
      <path class="cls-9" d="M31.39,39.36h-.3c-.5.2-1.1.5-1.4-.3-.3-.9.5-.7,1-.9.3.4.7.7.7,1.2h0Z"/>
      <path class="cls-96" d="M46.69,19.66l.4-.5c.3,0,.4.1.6.4.2.3.3.7.2,1.1-.7.6-.8.5-1.2-.6v-.4h0Z"/>
      <path class="cls-155" d="M31.09,46.66c-.3,0-.6.1-.9.1-.4-.5-.9-.8-1.5-1,.3-.3.7-.4,1.1-.2.7.5,1,0,1.4-.5.1,0,.2.1.3.2,0,.6-.2,1-.4,1.4h0Z"/>
      <path class="cls-12" d="M35.79,43.76c.4,0,.6-.2.8-.5.4-.5.8-.3,1.1,0-.3.5-.8.8-1.2,1.1-.7.5-.6-.2-.7-.6h0Z"/>
      <path class="cls-170" d="M22.29,28.56c.2-.2.4-.5.6-.6.3-.2.6-.3,1,0,.4.4.2.7,0,1.1-.5-.1-1.1-.3-1.6-.5Z"/>
      <path class="cls-6" d="M34.09,46.36c-.2,0-.4-.1-.6-.1-.9-.3-.4-.8-.1-1.3.1-.1.2-.2.4-.3h.2c.3.5,1,1,.1,1.7h0Z"/>
      <path class="cls-2" d="M43.49,47.06c.2.1.2.3.2.4-.3.3-.6.7-1.1.8-.2,0-.4-.1-.5-.3q.1-1.1,1.4-.9h0Z"/>
      <path class="cls-92" d="M34.89,53.26c-.5-.4,0-1-.2-1.5,0-.1.1-.2.2-.1.5.1,1,.3,1.4.7-.5.3-.9.6-1.4.9h0Z"/>
      <path class="cls-141" d="M23.79,43.96l-.7.9c-.3,0-.6,0-.9-.2-.2,0-.3-.1-.3-.3s0-.3.1-.5c.4-.7,1-.7,1.6-.3.1.2.2.3.2.4h0Z"/>
      <path class="cls-143" d="M33.69,29.66c.5-.4.9-.5,1.2.1.3.5.1,1-.6,1-.3-.3-.5-.7-.6-1.1h0Z"/>
      <path class="cls-153" d="M32.99,42.36c-.9,1-1,.9-1.5-.1l.2-.2c0-.3.1-.4.4-.5.3.2.5.3.8.5,0,.1,0,.2.1.3h0Z"/>
      <path class="cls-16" d="M32.79,7.86c-.1-.3,0-.5.1-.7.6-.1,1.2.1,1.7.3-.4.6-1,.8-1.8.4h0Z"/>
      <path class="cls-21" d="M30.39,37.66c-1.3-.1-1.6-.4-1.1-1.6.5.5.8,1.1,1.1,1.6Z"/>
      <path class="cls-138" d="M46.69,16.76c.4.5.6,1,.7,1.7-.8.6-1-.3-1.5-.5-.1-.3,0-.5.1-.8.1-.3.3-.4.7-.4q-.1,0,0,0Z"/>
      <path class="cls-140" d="M42.09,47.96c.2.1.3.2.5.3-.4.5-1,.8-1.6,1.1,0-.8.3-1.3,1.1-1.4Z"/>
      <path class="cls-106" d="M9.69,35.96q1.1-.4,1,.6c0,.2-.1.5-.2.7-.3-.3-.7-.7-.8-1.3Z"/>
      <path class="cls-193" d="M45.19,29.86c.3-.2.6-.3.8-.6s.5-.3.8-.1c-.2.4-.2.9-.6,1.2-.3-.1-.6-.1-.8-.3-.1,0-.2,0-.2-.1v-.1h0Z"/>
      <path class="cls-20" d="M39.59,38.46c.2.1.4.2.6.3.7.3.9.7.5,1.4-.6-.5-1.1-1.1-1.4-1.8.1-.1.2,0,.3.1h0Z"/>
      <path class="cls-108" d="M43.29,11.96c-.2.2-.4.3-.7.1-.4-.3-.8-.2-1.3-.2,0-.1,0-.2.2-.2l.5-.7c.6.3,1,.6,1.3,1h0Z"/>
      <path class="cls-8" d="M33.29,44.06c-.6-.4-.6-.9-.1-1.3.4.6.7,1.2.9,1.9h0c-.5,0-.8-.2-.8-.6h0Z"/>
      <path class="cls-126" d="M12.79,39.96c.3-.3.7-.5,1-.2.5.3.2.8.1,1.2-.3-.3-.8-.6-1.1-1h0Z"/>
      <path class="cls-35" d="M15.49,42.06s.1,0,.1-.1c.8-.4,1.2-.2,1.2.8-.4-.1-.9-.2-1.3-.7h0Z"/>
      <path class="cls-172" d="M38.89,49.96l.4.4c-.4.4-.9.7-1.4.9-.1-.8.2-1.2,1-1.3h0Z"/>
      <path class="cls-34" d="M29.99,25.66c-.8-.5-1-1-.6-1.7.4.6.5,1.1.6,1.7Z"/>
      <path class="cls-19" d="M23.39,44.96c.3-.6.8-.6,1.3-.6l.2.2c0,.1.1.3.1.4-.1.1-.1.2-.2.2-.5.2-.9.1-1.4-.2h0Z"/>
      <path class="cls-70" d="M33.69,38.46c.7.6.9,1.1.6,1.7-.4-.4-.6-.9-.8-1.5,0-.1,0-.2.2-.2h0Z"/>
      <path class="cls-143" d="M45.09,15.66c.2-.2.4-.4.6-.6.4.4.6.9.8,1.4-.1.3-.3.2-.6.2-.2-.1-.4-.2-.6-.4-.1-.2-.2-.4-.2-.6h0Z"/>
      <path class="cls-91" d="M37.69,35.96c.3-.3.7-.2.9.1.3.4,0,.6-.2.9-.3-.2-.5-.6-.7-1h0Z"/>
      <path class="cls-109" d="M18.29,43.56c1.2-.5,1.3-.5,1.5.5-.5,0-1-.3-1.5-.5Z"/>
      <path class="cls-194" d="M32.99,35.96c-.4-.3-.8-.8-1.4-.2-.2-.2-.4-.5-.6-.7.4-.1.8-.2,1.2-.1.6.1,1.1.2.8,1h0Z"/>
      <path class="cls-174" d="M45.79,17.76c.5.3.8.9,1.5.7.2.3.4.7.3,1.1l-.5-.4-1.5-1.2c0-.1.1-.2.2-.2h0Z"/>
      <path class="cls-42" d="M30.99,20.56c.1.3.1.6.1.9s-.1.5-.4.5c-.2-.6-.3-1.1-.2-1.7.3-.1.5,0,.5.3.1,0,0,0,0,0Z"/>
      <path class="cls-26" d="M31.09,48.76c.4-.5.7-1.2,1.5-1-.4.5-.7,1.2-1.5,1Z"/>
      <path class="cls-40" d="M17.89,9.76c-.3.3-.2.7-.2,1.2-.4-.1-.8-.2-1.2-.3.4-.4.8-.8,1.4-.9Z"/>
      <path class="cls-11" d="M33.69,52.36c-.1.5.2,1-.3,1.4-.4-.7-.3-1.1.3-1.4Z"/>
      <path class="cls-4" d="M30.99,20.56c-.2-.1-.4-.3-.6-.4v-.4c0-.1.1-.3.2-.5.5.3.4.8.4,1.3h0Z"/>
      <path class="cls-195" d="M45.19,45.46c-.5.3-.7,0-1-.3l.3-.3s.1,0,.1-.1c.8-.2.5.4.6.7h0Z"/>
      <path class="cls-47" d="M30.69,21.96c.1-.2.3-.3.4-.5.1.5,0,.9-.1,1.3-.4-.2-.4-.5-.3-.8Z"/>
      <path class="cls-151" d="M21.89,44.46c.1.1.2.2.3.3-.4.1-.7,0-1.1-.2l.1-.2c.3-.4.5-.3.7.1h0Z"/>
      <path class="cls-174" d="M46.09,16.46h.4c.1.1.2.2.1.4-.2.2-.3.4-.5.5-.3-.3-.4-.6,0-.9h0Z"/>
      <path class="cls-75" d="M33.39,37.86c-.1.1-.1.2-.2.2-.3-.2-.5-.4-.5-.8h.1c.3,0,.5.2.6.6h0Z"/>
      <path class="cls-5" d="M21.89,31.06c-.4.2-.4-.2-.5-.4.2-.1.5,0,.7.1-.1.1-.2.2-.2.3h0Z"/>
      <path class="cls-49" d="M37.49,8.36c-.3.2-.5,0-.5-.3.1.1.3.2.5.3Z"/>
      <path class="cls-15" d="M34.89,41.46c.2.2.4.3.3.7-.2-.3-.4-.5-.3-.7Z"/>
      <path class="cls-75" d="M33.69,38.46l-.2.3c-.2-.2-.4-.3-.3-.6.1.1.3.2.5.3h0Z"/>
      <path class="cls-29" d="M32.69,23.86c.1.3,0,.5-.2.7-.1-.2,0-.5.2-.7Z"/>
      <path class="cls-29" d="M32.49,24.56c.2.3,0,.5-.2.7,0-.3.1-.5.2-.7Z"/>
      <path class="cls-29" d="M32.19,25.46c.1.2,0,.5-.1.6-.1-.2,0-.4.1-.6Z"/>
      <path class="cls-29" d="M32.09,26.16c.2.2.3.4.2.6-.1-.2-.3-.4-.2-.6Z"/>
      <path class="cls-29" d="M32.39,26.76c.2.2.3.3.3.6-.2-.1-.4-.3-.3-.6Z"/>
      <path class="cls-29" d="M32.79,27.56v.1l-.1.1c-.1-.1-.1-.2-.1-.3.1,0,.2,0,.2.1q.1,0,0,0Z"/>
      <polygon class="cls-182" points="44.59 44.86 44.59 44.96 44.49 44.96 44.49 44.86 44.59 44.86"/>
      <path class="cls-29" d="M32.69,23.46q.1.1.2.2-.1.1-.2.2c-.1-.1-.1-.2,0-.4h0Z"/>
      <path class="cls-5" d="M21.39,30.66c-.2.1-.3.1-.5,0h.5Z"/>
      <path class="cls-82" d="M35.69,17.56c-.6-.1-1-.4-1.4-.7.2-.4.3-.8.5-1.1.1-.3,0-.6-.2-.8-.2-.2-.5-.1-.7.1-.1.1-.2.1-.2.2-.5.4-1,.4-1.5-.1-.5-.6.1-.9.3-1.3.1,0,.2-.1.3-.2,0,0,.1,0,.2-.1.2,0,.4-.1.5-.1.2-.1.4-.2.5-.5,0-.4-.5-.6-.4-1.1.2-.2.3-.4.5-.6.3-.3.7-.4,1.1-.1.3.2.5.5.4.9,0,.3-.3.5-.2.9,1.2.9.8,2.4,1.2,3.5.1.6-.3,1-.9,1.1h0Z"/>
      <path class="cls-166" d="M35.69,17.56c.6-.6.9-1.2.1-2-.2-.2-.2-.5-.1-.7.5-.8-.1-1.3-.3-1.9.5.6,1,.1,1.5,0-.3.4-.7.9-.1,1.3.5.4,1,.2,1.3-.3.2-.3.5-.5.9-.2-.1.5-.2.9.2,1.3.1.3.1.6.1.9,0,.5.1.8.7.6.2.4-.1.6-.3.9-.6,1.1-1-.1-1.5-.2-.1-.1-.1-.3-.2-.4-.1-.4.4-.9-.1-1.2-.1-.1-.3-.1-.4.1-.3.6.4.8.5,1.3,0,.2-.1.4-.4.5l-.4.5c-.3.6-.6,0-.9.1-.1-.1-.2-.1-.3-.2-.1.1-.3-.1-.3-.4h0Z"/>
      <path class="cls-66" d="M19.89,38.56c.3-.4.6-.5,1.1-.3.4.2.5.6.3.9-.4.8.6,1.1.7,1.7-.1.5-.4,1-1,1.2h0c-.3,0-.4-.1-.5-.4-.2-.2-.5-.4-.7-.6,0-.1,0-.2.2-.2.4-.4.3-.9.3-1.3-.2-.3-.6-.6-.4-1h0Z"/>
      <path class="cls-87" d="M22.69,25.06c-.3-.2-.6-.5-.9-.8-.3-.4-.2-.7.1-1.1.3-.4.7-.3,1.1-.1.4.2.4.6.2.9-.2.3-.3.7-.5,1.1h0Z"/>
      <path class="cls-184" d="M23.39,37.56c.3.3.2,1-.1,1.3-.4.2-.8.2-1.1-.1-.4-.3-.3-.7,0-1.1.3-.4,1-.4,1.2-.1h0Z"/>
      <path class="cls-122" d="M19.89,38.56c.1.3.4.7.3,1-.3-.2-.5-.5-.9-.3-.2.1-.4.3-.6.4-.5.2-.9.1-1-.4-.2-.5.3-.7.7-.8.4-.2,1,.5,1.5.1h0Z"/>
      <path class="cls-190" d="M37.39,10.76c.4.4.5.8.2,1.2-.4.6-.9.2-1.3,0-.4-.2-.3-.6-.1-.9.3-.5.7-.6,1.2-.3h0Z"/>
      <path class="cls-121" d="M21.69,26.26c-.2.4-.3.9-.8,1-.4.1-.7.1-1-.2-.2-.2-.2-.5-.2-.7.1-.4.4-.5.8-.5.5,0,.9.1,1.2.4h0Z"/>
      <path class="cls-85" d="M34.69,8.96c.3.4.5.7.1,1.1-.4.3-.8.5-1.2,0-.3-.3-.4-.7-.1-1.1.5-.4.9-.3,1.2,0h0Z"/>
      <path class="cls-52" d="M27.09,15.46c.1-.6,0-1.2-.2-1.7h1c.2-.1.3-.1.5-.2.1-.1.2-.1.3-.2h.4c.1,0,.3.1.4.1.6.5.5.9,0,1.4-.1.1-.2.1-.3.2h-1c-.2,0-.3.1-.4.2-.1.1-.2.1-.3.2h-.4c0,.1,0,0,0,0Z"/>
      <path class="cls-77" d="M27.69,11.66c-.4.3-.8.2-1.1-.1-.4-.4-.5-.8,0-1.2.3-.3.7-.2,1.1.1.4.4.2.8,0,1.2Z"/>
      <path class="cls-80" d="M27.09,27.36c.4-.3.5-1,1.2-.6.5.3.6.8.2,1.3-.2.2-.4.3-.6.3-.4,0-.6-.2-.7-.6l-.2-.2s.1-.1.1-.2h0Z"/>
      <path class="cls-179" d="M30.49,14.26c.3.3,1,.5.6,1.2-.5.7-1,.5-1.5,0h-.2c-.1-.2-.1-.3,0-.5.3-.2.3-1.1,1.1-.7h0Z"/>
      <path class="cls-67" d="M23.79,20.56c.3-.5.7-.5,1.1-.2.5.3.3.7.1,1-.2.4-.7.5-1.1.2-.3-.1-.4-.5-.1-1h0Z"/>
      <path class="cls-84" d="M26.49,27.66c-.4,1.4-.5,1.4-1.7.7.4-1.3.6-1.3,1.7-.7Z"/>
      <path class="cls-117" d="M33.29,44.06l.7.6-.1.1-.1.1c-.6.3-.9,1.2-1.8.7-.2,0-.4-.1-.6-.3-.1-.1-.2-.1-.2-.2l-.2-.2.2-.2c.1-.2.3-.2.4-.3.2-.1.3-.3.5-.5.1-.1.2-.1.3-.1.2.1.4.4.9.3h0Z"/>
      <path class="cls-81" d="M32.29,13.36c-1.2-1-1.2-1.2,0-1.9,1.4.8,1.4,1.1,0,1.9Z"/>
      <path class="cls-51" d="M25.69,41.16c-.4.7-1,1.2-1.9.9l-.1.1c-.1,0-.2.1-.3.1h-.1c-.1,0-.2-.1-.1-.2v-.5c.3-.6.9-.7,1.4-.9.4,0,.7.1,1,.3,0,0,.1.1.1.2h0Z"/>
      <path class="cls-196" d="M20.19,17.36c.5-.8.8-1.4,1.5-.9.3.2.5.7.1,1.1-.6.8-1-.1-1.6-.2h0Z"/>
      <path class="cls-186" d="M28.49,25.66c-.4,0-.6.3-.8.6-.8-.5-1-1.1-.4-1.9.7.1,1.4.3,1.2,1.3h0Z"/>
      <path class="cls-189" d="M22.79,35.36c.3.4.4.8.1,1.2s-.7.2-1.1-.1-.3-.7,0-1.1c.3-.2.6-.3,1,0h0Z"/>
      <path class="cls-175" d="M29.69,11.66c-.3-.2-.6-.5-.8-.7-.2-.3-.2-.6.1-.9.2-.2.5-.3.8-.2.4.2.5.5.4.9,0,.4-.2.6-.5.9h0Z"/>
      <path class="cls-177" d="M25.79,13.26c.4.3.5.7.2,1.1s-.7.4-1.1.2c-.4-.3-.4-.7-.1-1.1.3-.4.6-.4,1-.2h0Z"/>
      <path class="cls-185" d="M24.49,40.66c-.3.6-.9.7-1.4.8-.2-.5-.6-.9-.1-1.4.4-.4.8-.3,1.2-.1.2.2.3.4.3.7h0Z"/>
      <path class="cls-190" d="M25.69,38.16c-.3.3-.6.6-1,.3-.5-.3-.4-.8-.1-1.2.2-.3.6-.3.9-.1.5.2.5.6.2,1Z"/>
      <path class="cls-87" d="M27.39,22.06c.8.9.7,1.1-.2,1.8-1.1-1-1.1-1.3.2-1.8Z"/>
      <path class="cls-104" d="M24.89,8.66c.3.4.3.8,0,1.1-.4.4-.8.3-1.1-.1-.3-.3-.3-.7,0-1,.5-.3.8-.2,1.1,0h0Z"/>
      <path class="cls-190" d="M21.89,44.46c-.2-.2-.4-.2-.7-.1l-.6-1.2c0-.1,0-.2.2-.3q.1-.1.2-.2c.3-.2.6-.1.9-.1.1.1.3.2.4.4.2.5-.2.9-.3,1.3l-.1.2h0Z"/>
      <path class="cls-63" d="M25.29,22.76c.4.3.4.7.1,1.1-.2.3-.6.3-1,.1s-.4-1-.1-1.2c.3-.3.7-.3,1,0h0Z"/>
      <path class="cls-90" d="M29.69,8.86c-.3.4-.7.4-1,.1-.4-.4-.2-.9.1-1.2.2-.3.6-.2.8,0,.4.3.4.7.1,1.1h0Z"/>
      <path class="cls-130" d="M23.19,18.56c.3-.4.7-.4,1.1-.1.3.2.5.5.2.9s-.6.6-1,.3c-.3-.3-.5-.7-.3-1.1h0Z"/>
      <path class="cls-176" d="M26.19,16.66c-.2.3-.5.5-.8.2-.4-.3-.4-.8-.2-1.2.2-.3.5-.3.8-.1.5.3.4.7.2,1.1h0Z"/>
      <path class="cls-95" d="M26.99,8.06c.4.4.4.8.2,1.3-.2.3-.5.3-.8.1-.5-.3-.5-.7-.2-1.2.2-.3.5-.3.8-.2h0Z"/>
      <path class="cls-82" d="M30.19,12.06c.3.2.6.4.5.8-.2,1.1-.9,1-1.7.6h-.2c-.1-.1-.1-.3,0-.4.5-.4.6-1.1,1.4-1h0Z"/>
      <path class="cls-69" d="M10.59,23.36c.2.4.6.7.2,1.2-.2.3-.5.3-.8.2-.3-.1-.5-1.1-.3-1.3.2-.3.6-.3.9-.1h0Z"/>
      <path class="cls-65" d="M15.19,39.26c.3-.5.6-.4,1-.1.4.3.4.6.1.9-.4.4-.9.3-1.2,0-.4-.2-.2-.5.1-.8h0Z"/>
      <path class="cls-186" d="M26.99,39.46c.2-.3.4-.6.8-.6s.7.2.8.6c.1.5-.2.7-.6.7h-.7c-.1,0-.2,0-.2-.1v-.1h0c-.1-.2-.1-.3-.1-.5h0Z"/>
      <path class="cls-97" d="M15.69,36.86c.4.3.3.8.1,1.1-.2.4-.6.2-.9,0-.2-.2-.7-.4-.2-.8.3-.3.6-.5,1-.3h0c.1,0,0,0,0,0Z"/>
      <path class="cls-63" d="M18.59,37.16c-.4.5-.7.5-1.1.3s-.4-.6-.2-.9c.3-.5.7-.1,1.1,0,.3,0,.3.3.2.6h0Z"/>
      <path class="cls-67" d="M27.29,15.26c.1-.1.1-.2.2-.2.2,0,.4-.3.6-.3.1,0,.2.1.2.1.2,0,.4.2.7.2h.2v.1h0c0,.1,0,.2-.2.2l-.5.8c-.1,0-.3.1-.4.1-.5.2-.6-.3-.7-.6-.1-.1-.1-.3-.1-.4h0Z"/>
      <path class="cls-123" d="M13.09,34.86c.4.3.2.6,0,.8-.2.3-.5.5-.9.2-.4-.2-.4-.5-.1-.9.2-.3.6-.2,1-.1h0Z"/>
      <path class="cls-62" d="M25.69,41.16c-.1-.1-.2-.1-.3-.2-.2,0-.3-.1-.4-.2-.4-.6-.1-1,.4-1.3.4-.1.6.2.9.4,0,.1,0,.3.1.4h0v.4l-.2.2c-.2,0-.4.1-.5.3h0Z"/>
      <path class="cls-181" d="M14.99,32.16c.2.4.4.7,0,1-.3.2-.7.2-1-.1-.2-.3-.3-.6,0-.8.3-.3.7-.4,1-.1Z"/>
      <path class="cls-183" d="M18.79,42.36c-.8-.4-.8-1-.2-1.7.5.1.8.3,1,.8h0c-.1.4-.4.8-.8.9h0Z"/>
      <path class="cls-180" d="M26.09,20.26c.4-.3.8-.2,1.2.1.2.2.2.5,0,.7-.3.3-.7.3-1.1,0-.3-.2-.4-.5-.1-.8h0Z"/>
      <path class="cls-95" d="M25.39,11.06c.3.3.3.7,0,1.1-.2.3-.5.3-.8,0s-.5-.7-.2-1.1c.3-.4.7-.2,1,0h0Z"/>
      <path class="cls-189" d="M27.39,14.16c-.2-.1-.3-.2-.5-.4.1-.4.1-1,.8-1h.4c.1,0,.2.1.2.2.3,0,.4.1.5.4h0c0,.1,0,.2-.2.2q-.1.1-.2.2c-.2,0-.4.3-.6.3h0c-.1.1-.3.1-.4.1h0Z"/>
      <path class="cls-187" d="M25.89,25.86c-.3.2-.7.6-1.2.3-.3-.2-.4-.5-.1-.8s.8-.5,1.2-.2c.3.2.3.5.1.7h0Z"/>
      <path class="cls-102" d="M21.89,18.96c.2.3.3.6.1,1-.4.4-.8.1-1.1-.1-.3-.1-.3-.4,0-.6.3-.3.5-.7,1-.3Z"/>
      <path class="cls-133" d="M14.09,27.66c.3.3.2.6,0,.8-.3.3-.6.5-.9.2s-.2-.7,0-.9c.2-.3.5-.3.9-.1h0Z"/>
      <path class="cls-180" d="M19.99,35.86c.3.3.6.5.3,1-.3.3-.6.3-1,.1-.4-.3-.2-.7-.1-1,.4-.4.6-.1.8-.1h0Z"/>
      <path class="cls-183" d="M19.09,33.76c.3-.4.7-.2,1-.1.3.2.4.5.2.8-.2.4-.6.4-.9.2-.5-.1-.4-.5-.3-.9h0Z"/>
      <path class="cls-187" d="M31.39,9.66c.2-.3.5-.4.8-.2.5.3.3.7.1,1.1-.2.3-.5.4-.8.1-.3-.3-.3-.6-.1-1h0Z"/>
      <path class="cls-185" d="M29.19,43.56c.2.2.5.4.8.6-.1.2-.3.3-.4.5-.2,0-.3,0-.4.1-.5.1-.8-.2-.8-.7,0-.6.4-.6.8-.5h0Z"/>
      <path class="cls-124" d="M26.69,18.86c-.3.2-.7.2-1-.1-.2-.3-.3-.6,0-.8.3-.3.7-.2.9.1.3.2.3.5.1.8h0Z"/>
      <path class="cls-100" d="M16.49,19.96c.2-.1.3-.5.6-.2s.7.6.3,1c-.2.2-.6.3-.8.1-.5-.3-.3-.6-.1-.9h0Z"/>
      <path class="cls-134" d="M22.79,9.36c.3.3.1.6-.1.8-.3.3-.7.3-1,0-.2-.2-.2-.5,0-.7.3-.3.7-.4,1.1-.1h0Z"/>
      <path class="cls-103" d="M13.49,37.06c.3.2.4.5.2.7-.2.4-.6.5-1,.3-.3-.1-.3-.4-.2-.7.2-.4.6-.4,1-.3Z"/>
      <path class="cls-76" d="M22.89,25.26c1,.9,1,1,0,1.5-1.3-.5-.6-1,0-1.5Z"/>
      <path class="cls-68" d="M27.59,42.26c.4-1.2.5-1.3,1.6-.6-.4.5-.9,1-1.6.6Z"/>
      <path class="cls-33" d="M11.39,19.46c-.3-.3-.3-.6-.1-1,.1-.2.3-.5.6-.3.4.2.6.6.3,1-.1.4-.4.5-.8.3h0Z"/>
      <path class="cls-45" d="M22.29,14.06c.2-.3.5-.5.9-.3s.4.7.1,1c-.2.2-.4.4-.6.1-.2-.2-.7-.2-.4-.8h0Z"/>
      <path class="cls-18" d="M10.79,28.16c.3-.4.6-.3.9,0,.2.2.3.4.1.7-.3.3-.6.4-1,.1-.3-.3-.2-.5,0-.8Z"/>
      <path class="cls-30" d="M13.59,16.66c-.8,0-.6-.5-.4-.9s.6-.4,1,0c.5.4.1.6-.1.8-.1,0-.3,0-.5.1h0Z"/>
      <path class="cls-93" d="M17.59,22.96c-.2.3-.5.4-.8.1s-.3-.6,0-.9c.2-.2.4-.2.7,0,.3.2.4.5.1.8h0Z"/>
      <path class="cls-98" d="M18.69,19.66c.3-.3.7-.3,1-.1s.2.5,0,.8-.5.3-.8,0-.4-.4-.2-.7h0Z"/>
      <path class="cls-37" d="M13.49,26.36c-.2.2-.5.3-.7.1-.3-.3-.5-.6-.2-1,.2-.2.5-.3.6-.2.3.3.4.7.3,1.1h0Z"/>
      <path class="cls-71" d="M17.29,31.96c.1.4.1.9-.4,1.2-.2.1-.4,0-.5-.2-.2-.4-.2-.9.3-1.2.2-.1.4-.1.6.2Z"/>
      <path class="cls-127" d="M11.79,20.96c.3-.3.6-.4.9-.1s.1.5-.1.8-.4.5-.7.3c-.4-.4-.3-.7-.1-1h0Z"/>
      <path class="cls-105" d="M18.59,27.66c-.2.2-.5.3-.8.1s-.3-.6,0-.8.6-.5.9-.1c.3.1.2.5-.1.8h0Z"/>
      <path class="cls-86" d="M22.89,16.36c.3-.3.6-.4.9-.1.3.2.2.6,0,.8-.2.3-.6.2-.8.1-.3-.2-.3-.5-.1-.8h0Z"/>
      <path class="cls-94" d="M20.09,21.66c.2.4.1.7-.2.9-.3.2-.5.2-.8,0-.2-.2-.3-.6,0-.8.3-.3.7-.3,1-.1h0Z"/>
      <path class="cls-17" d="M18.99,15.66c-.3.3-.7.2-1,0s-.2-.6,0-.8c.2-.3.5-.2.8,0s.3.5.2.8Z"/>
      <path class="cls-46" d="M15.09,21.46c-.1.2-.4.2-.5.1-.2-.3-.7-.6-.4-1,.1-.3.4-.2.7-.1.4.2.4.6.2,1h0Z"/>
      <path class="cls-38" d="M22.09,11.56c.2-.3.5-.3.8-.1.3.2.4.5.1.8-.2.2-.5.4-.8.2-.2-.3-.3-.6-.1-.9h0Z"/>
      <path class="cls-188" d="M17.69,34.76c-.2.2-.4.3-.7.2-.4-.2-.4-.5-.2-.9.2-.3.5-.5.8-.2.2.2.2.6.1.9h0Z"/>
      <path class="cls-64" d="M22.39,22.16c-.3.2-.6.2-.8,0-.2-.2-.4-.5-.1-.8.3-.2.6-.4.9,0,.3.2.1.5,0,.8h0Z"/>
      <path class="cls-87" d="M20.49,24.06c.2.2.2.5,0,.7-.3.3-.6.3-.9.1-.2-.2-.3-.4-.1-.6.3-.4.7-.4,1-.2h0Z"/>
      <path class="cls-60" d="M32.29,13.36c.8-.8,1.1-1.3,0-1.9.5-.1.8.3,1.2.5.3.4,1,.5,1,1.2-.6-.1-1.2.1-1.7.4h-.2c-.1-.1-.2-.1-.3-.2h0Z"/>
      <path class="cls-150" d="M29.29,15.26l-.2-.2c.4-.5.9-1,0-1.5.7.1,1.3.2,1.7-.6.2.5-.3.9-.3,1.3-.7,0-.8.6-1.2,1h0Z"/>
      <path class="cls-120" d="M14.39,30.86c-.2.1-.5.4-.8.1-.3-.2-.2-.5,0-.8s.5-.2.8,0c.1.2.2.5,0,.7h0Z"/>
      <path class="cls-24" d="M18.49,13.36c-.4.2-.7.2-.9,0-.3-.3-.2-.6,0-.9.1-.2.4-.1.5.1.2.2.5.5.4.8h0Z"/>
      <path class="cls-128" d="M11.89,30.66c.2.2.3.5,0,.8-.2.1-.5.3-.7.1-.2-.3-.1-.6.1-.8.2-.4.4-.3.6-.1Z"/>
      <path class="cls-119" d="M16.39,15.86c-.3.2-.6.3-.8.1s-.1-.5,0-.7c.2-.2.4-.3.7,0,.1.1.2.3.1.6Z"/>
      <path class="cls-156" d="M11.29,25.96c.1.3,0,.5-.2.7-.3.3-.6.2-.7-.1-.1-.2,0-.5.3-.6.2-.1.4-.1.6,0h0Z"/>
      <path class="cls-197" d="M12.09,23.26c.2-.3.5-.2.7-.1.3.1.4.4.2.6-.1.2-.4.4-.6.3-.4-.2-.3-.5-.3-.8h0Z"/>
      <path class="cls-191" d="M16.79,18.36c-.3.2-.5,0-.7-.1-.2-.2-.2-.4,0-.7.2-.2.4-.1.5,0,.3.2.4.5.2.8h0Z"/>
      <path class="cls-99" d="M15.49,35.06c-.2.3-.4.3-.7.2-.2-.2-.3-.4-.2-.6.1-.3.4-.2.6-.1.3.1.4.3.3.5h0Z"/>
      <path class="cls-151" d="M21.99,44.26c-.1-.5,0-.9.3-1.3.1,0,.3,0,.4-.1h.2c.3.2.6.5.6,1-.5,0-1.1-.4-1.5.4h0Z"/>
      <path class="cls-169" d="M14.59,18.66c-.2.2-.5.2-.8.1-.2-.1-.3-.3-.2-.5.2-.3.5-.2.8-.1.2.1.4.2.2.5h0Z"/>
      <path class="cls-142" d="M10.09,33.36c.2.1.2.3.1.4-.2.3-.5.4-.9.5,0,0-.2-.3-.1-.4.2-.5.5-.5.9-.5h0Z"/>
      <path class="cls-72" d="M17.69,25.76l-.3-.3c-.1-.3-.5-.6-.1-.9.3-.3.6-.1,1,.1,0,.5-.2.8-.6,1.1h0Z"/>
      <path class="cls-39" d="M8.89,26.66c.2.3,0,.4-.2.5s-.5.2-.7-.1c-.1-.2-.1-.4.1-.5.4-.1.6,0,.8.1h0Z"/>
      <path class="cls-23" d="M19.09,17.96c-.2.1-.4.2-.5,0-.2-.2-.2-.5-.1-.7.1-.3.3-.1.5,0,.2.2.3.4.1.7h0Z"/>
      <path class="cls-147" d="M15.09,25.86c-.1-.2-.2-.5,0-.7.1-.2.4-.1.6,0s.3.4.1.5c-.2.1-.4.3-.7.2h0Z"/>
      <path class="cls-112" d="M21.89,42.46c-.3.1-.6.2-.9.1v-.4c.3-.4.6-.8,1-1.2.1.2,0,.5-.1.7-.3.3-.3.6,0,.8h0Z"/>
      <path class="cls-25" d="M19.99,9.96c.1.1.2.3,0,.4-.2.2-.5.3-.7,0-.2-.2-.1-.4.1-.5.3-.1.4-.1.6.1h0Z"/>
      <path class="cls-44" d="M15.89,13.06c.2.2.1.4,0,.5-.2.2-.4.1-.5,0-.2-.2-.2-.4,0-.5.1-.1.3-.1.5,0h0Z"/>
      <path class="cls-121" d="M22.89,25.26c-.5.5-.8,1,0,1.5-.5.1-.8-.3-1.2-.6h0c.3-.4.6-.8,1-1.2h0c.1.1.2.2.2.3h0Z"/>
      <path class="cls-150" d="M28.79,13.36l-.5-.4c.7-.2,1-.8,1.4-1.3h0c.2.1.3.3.5.4-.6.2-1,.8-1.4,1.3Z"/>
      <path class="cls-58" d="M15.89,29.76c.2-.1.5-.2.7,0,.1.1,0,.3-.1.4-.2.1-.4.1-.6,0-.1-.1-.1-.2,0-.4h0Z"/>
      <path class="cls-61" d="M12.59,33.46c.1.2,0,.3-.1.4-.2.2-.4.3-.7.2-.1-.1-.2-.3-.1-.4.3-.4.6-.4.9-.2Z"/>
      <path class="cls-14" d="M17.69,25.76c.1-.4.2-.8.5-1.1.5.8.4.9-.5,1.1Z"/>
      <path class="cls-27" d="M10.29,21.36c.1.1.1.2,0,.4-.1.2-.3.4-.6.3-.1-.1-.1-.2,0-.4s.3-.3.6-.3h0Z"/>
      <path class="cls-192" d="M8.29,24.96c-.2.1-.4.3-.6.1-.2-.1-.1-.4,0-.6s.3-.4.5-.1c.1.2.3.4.1.6h0Z"/>
      <path class="cls-129" d="M20.39,15.16c-.2-.2-.1-.4,0-.5s.3-.2.4,0c.2.1.2.4.1.5s-.4.1-.5,0h0Z"/>
      <path class="cls-31" d="M9.39,29.16c-.2.4-.5.3-.8.2-.1,0-.1-.2-.1-.2.2-.2.5-.4.8-.3.1,0,.1.2.1.3h0Z"/>
      <path class="cls-57" d="M9.79,31.26c.1.1.1.2.1.2-.2.2-.4.2-.7.1-.1,0-.1-.2-.1-.2.3-.3.5-.2.7-.1h0Z"/>
      <path class="cls-150" d="M16.19,27.96c-.1.1-.3.1-.5,0-.1-.1-.2-.3,0-.4.1-.2.4-.2.5,0,.1.1.1.3,0,.4h0Z"/>
      <path class="cls-185" d="M25.49,39.36c-.4.4-.4.9-.3,1.4-.4-.1-1-.2-.6-.8.3-.3.5-.6.9-.6Z"/>
      <path class="cls-151" d="M24.59,39.96c0,.4.3.6.6.8.1.1.1.2.2.2-.4.1-.6-.2-.9-.4-.2-.2-.3-.3-.3-.6h.4Z"/>
      <path class="cls-32" d="M15.09,22.96c.1.1.2.3,0,.4-.1.1-.3.1-.4,0s-.1-.3,0-.4c.2-.2.3-.1.4,0h0Z"/>
      <path class="cls-41" d="M11.29,16.56c.1-.1.3-.2.4,0v.4c-.1.1-.3.1-.4,0-.1-.1-.1-.3,0-.4h0Z"/>
      <path class="cls-112" d="M19.49,41.46l-1-.8c.5-.2.9.3,1.4.3l-.1.1-.1.1c0,.1-.1.2-.2.3h0Z"/>
      <path class="cls-112" d="M18.79,42.36l.8-1c0,.7-.2,1-.8,1Z"/>
      <path class="cls-36" d="M9.89,19.06c.1.1.2.2.1.4s-.2.1-.4,0c-.1-.1-.1-.2-.1-.2.1-.3.3-.3.4-.2h0Z"/>
      <path class="cls-151" d="M23.09,41.86l.2.2c0,.4-.2.6-.6.7h0c-.1-.4.2-.6.4-.9h0Z"/>
      <path class="cls-118" d="M20.39,12.26v.1h-.1c-.1-.1,0-.2.1-.2q-.1,0,0,.1c-.1,0,0,0,0,0Z"/>
      <path class="cls-112" d="M20.49,41.76c.2.1.3.2.5.4-.4.1-.6,0-.5-.4Z"/>
      <path class="cls-112" d="M20.79,42.76c0,.1-.1.2-.2.3-.1-.2,0-.3.2-.3Z"/>
      <path class="cls-151" d="M26.39,40.16c0-.1,0-.3-.1-.4.1.2.1.3.1.4Z"/>
      <path class="cls-151" d="M26.99,39.46v.4c.1-.1,0-.2,0-.4Z"/>
      <path class="cls-151" d="M27.09,39.86c.1.1.2.1.2.2-.2.1-.3.1-.2-.2Z"/>
      <path class="cls-155" d="M29.19,44.76c.2,0,.3,0,.4-.1-.2,0-.3.1-.4.1Z"/>
      <path class="cls-150" d="M27.29,15.26v.4l-.2-.2c.1,0,.2-.1.2-.2h0Z"/>
      <path class="cls-60" d="M32.79,13.76c-.2,0-.3,0-.4.1l.2-.2h.2c.1,0,.1.1,0,.1h0Z"/>
      <path class="cls-150" d="M28.09,16.26c.1,0,.3,0,.4-.1-.1.2-.3.2-.4.1Z"/>
      <path class="cls-150" d="M29.09,15.46l.2-.2c.1.1.2.1.2.2h-.4Z"/>
      <path class="cls-68" d="M38.89,27.96c-.6,1.3-1.5.7-2.4.5v-.4c-.1-.3.1-.6.2-.9.1-.4-.2-.5-.5-.6q-.1,0-.2-.1c-.1-.1-.3-.1-.4-.2-.4-.3-.9-.6-.7-1.2.4-.2.7,0,1,.1s.5,0,.6-.3c0,0,.1-.1.1-.2.1-.1.2-.1.3-.2.4-.3.5-1,1.2-1,0,.3-.1.6-.2.9,0,.5.5.7.6,1.2-.1.9.4,1.6.4,2.4h0Z"/>
      <path class="cls-168" d="M42.09,23.46l-1.2,1.5c-.9,0-1.6-.2-1.2-1.4.5-.6.1-1-.2-1.5-.2-.4,0-.7.2-1,.2-.2.4-.2.7-.1.3.2.6.3.6.8q-.1,1.3,1.1,1.7h0Z"/>
      <path class="cls-143" d="M43.29,12.96c.4.4,1.3.5.6,1.4-.3.4.2.8.5,1.1.3,0,.5.2.5.5-.3.9-.7,1.5-1.7.7-.2-.2-.5-.3-.5-.6.5-.5.7-1.1.2-1.7-.4-.6,0-.9.4-1.4h0Z"/>
      <path class="cls-165" d="M38.89,27.96c-.4-.7-1.2-1.4-.5-2.4l.1-.2c.1-.1.3-.1.5-.1.5.2.8.4,1,.9,0,.4-.4.6-.4,1-.2.4,0,.8.3,1s.5.5.2.9-.6.7-1.1.4c-.3,0-.4-.1-.5-.4.1-.2.5-.5.4-1.1q0,.1,0,0Z"/>
      <path class="cls-161" d="M44.29,29.16c-.1-.1-.2-.1-.2-.2-.3-.3-.9-.5-.7-1,.2-.6.7-.4,1.2-.3.4.1.8-.1,1.1-.4.4-.4.7-.4,1-.1.2.2.3.4.2.7-.2.4-.4.8-.9.6-1-.6-1.3.2-1.7.7h0Z"/>
      <path class="cls-67" d="M43.29,16.56c1,.8,1.2-.3,1.7-.7.2-.1.4.2.6.1l.5.4c-.1.3,0,.6.1.8-.1.2-.2.3-.4.5l-.1.1-.1.1h0c-.2,0-.4.2-.6.2-.4,0-.8-.1-1.2-.4-.2-.4-.4-.8-.8-1,0-.1.1-.1.3-.1h0Z"/>
      <path class="cls-189" d="M39.79,26.36l-1.2-1c-.1-.5,0-1,.3-1.4.3-.1.6-.2.8-.5-.1.9.9.9,1.2,1.4h0c0,.8-.4,1.3-1.1,1.5h0Z"/>
      <path class="cls-114" d="M43.29,16.56c-.1.1-.2.1-.2.2-.5-.2-.8.2-1.2.4-.4.2-.7,0-.9-.3-.2-.2-.2-.5,0-.7.2-.4.5-.5.9-.3.3.1.6.4,1,.3,0,.1.2.3.4.4h0Z"/>
      <path class="cls-160" d="M34.49,22.56c.2-.2.4-.5.6-.7,0-.1.1-.2.2-.2h0c.5.1.8.3,1,.8-.1.3-.2.6-.3.9v.4q.1.1.2.2c0,.1,0,.2-.1.3-.1,0-.3,0-.4-.1-.1-.1-.2-.1-.3-.2s-.2-.2-.2-.3c-.2-.3-.4-.4-.7-.6-.1-.1-.1-.2-.1-.3h0c-.1-.1,0-.2.1-.2h0Z"/>
      <path class="cls-53" d="M41.59,11.66l-.1.1-.1.1c-.2.3-.5.6-1,.5-.3-.1-.8-.1-.7-.6.1-.4.4-.7.9-.7.4,0,.7.4,1,.6h0Z"/>
      <path class="cls-52" d="M39.69,18.46c.5.4.9.7.4,1.4-.3.3-.6.3-.9.1-.6-.5-.2-1,.1-1.4.1-.2.3-.1.4-.1h0Z"/>
      <path class="cls-166" d="M43.79,17.76c.5-.1,1,0,1.4.3.1.1,0,.3,0,.5-.2.3-.4.5-.8.5-.8-.1-1-.4-.6-1.3h0Z"/>
      <path class="cls-115" d="M41.69,14.56c-.3.4-.6.6-1,.2-.3-.2-.3-.5-.2-.8.3-.4.8-.5,1.2-.2.2.3.1.5,0,.8-.1,0,0,0,0,0Z"/>
      <path class="cls-164" d="M38.89,24.06c.3.5,0,1-.3,1.4h0c-.5-.1-1-.5-1.2-1,.3-.3.5-.6.8-.9.2.1.4.3.7.5h0Z"/>
      <path class="cls-52" d="M42.59,19.36c-.2.3-.5.5-.9.2-.3-.3-.4-.5-.1-.9.3-.4.8-.3,1.1-.1.3.3,0,.5-.1.8h0Z"/>
      <path class="cls-160" d="M41.19,25.16c.2.1.3.2.5.4,0,.2.3.4.3.6-.4.6-.8,1-1.5.4-.4-.9.2-1.1.7-1.4h0Z"/>
      <path class="cls-158" d="M38.29,21.66c.3.3.4.6.1.9-.3.4-.6.2-.9,0-.3-.2-.5-.5-.2-.9.3-.3.6-.2,1,0Z"/>
      <path class="cls-162" d="M42.99,21.26c-.3.4-.7.4-1.1.2s-.3-.5-.1-.7c.2-.4.5-.6,1-.3.3.3.4.5.2.8h0Z"/>
      <path class="cls-167" d="M38.09,33.36c.3.2.4.5.2.8-.3.4-.6.5-1,.2-.3-.2-.2-.5,0-.8.2-.3.5-.5.8-.2h0Z"/>
      <path class="cls-49" d="M41.09,27.86c.4-.3.7,0,.9.3.2.2.3.4.1.7-.3.3-.7.2-1,0-.4-.3-.1-.7,0-1Z"/>
      <path class="cls-54" d="M43.79,25.26c.3.3.2.6,0,.9-.3.3-.5.2-.8,0-.3-.3-.2-.6,0-.9.3-.3.6-.2.8,0h0Z"/>
      <path class="cls-149" d="M36.39,18.16c.3,0,.6,0,.9-.1.2.2.3.5.5.8.8.9.7,1-.4,1.6.1-.6-.1-1-.8-1-.2-.4.4-.9-.2-1.3h0Z"/>
      <path class="cls-52" d="M36.49,19.46c.3-.3.6-.8,1.1-.3.6.6,0,.9-.3,1.2-.3-.2-.8-.3-.8-.9Z"/>
      <path class="cls-52" d="M42.49,30.46c.3.2.3.5,0,.8s-.6.3-.9,0c-.2-.2-.2-.5,0-.7.2-.4.5-.4.9-.1h0Z"/>
      <path class="cls-53" d="M40.49,34.06c-.3.4-.6.3-.8.1s-.4-.5-.2-.8.5-.3.8-.2c.5.2.3.6.2.9h0Z"/>
      <path class="cls-161" d="M42.09,23.46c.2-.3.4-.6.8-.6.3,0,.5,0,.6.3.1.2,0,.4-.1.5-.2.2-.4.4-.6.2s-.5-.2-.7-.4h0Z"/>
      <path class="cls-51" d="M39.19,15.26c-.5.1-.8-.1-.9-.5-.1-.5.4-.6.7-.8.6.3.7.7.2,1.3h0Z"/>
      <path class="cls-51" d="M45.19,29.86l.2.2-.1.1-.1.1c-.4,0-.4.5-.8.6-.4.1-.6-.1-.9-.4.2-.8.6-1.2,1.4-.8.2.1.3.2.3.2h0Z"/>
      <path class="cls-52" d="M39.99,16.66l-.3.3c-.2.2-.4.5-.7.3-.4-.3-.1-.6,0-.9.1-.1.2-.2.3-.3.2.2.4.4.7.6Z"/>
      <path class="cls-159" d="M45.29,20.86c-.1.2-.3.3-.4.5-.2-.2-.5-.4-.5-.7s.2-.6.6-.6c.5.1.5.4.3.8h0Z"/>
      <path class="cls-83" d="M39.69,18.46h-.4c-.5-.4-1-.9-1.6-.9.1-.2.2-.3.4-.5h0c.5.2.8,1.1,1.6.5v.9h0Z"/>
      <path class="cls-157" d="M41.19,25.16c-.3.4-.9.7-.7,1.4-.4.2-.8.4-1,.8-.1-.4.2-.6.4-.9l1.2-1.5c-.1,0,0,.1.1.2Z"/>
      <path class="cls-193" d="M44.99,29.76c-.7-.1-1.1.3-1.4.8-.2-.7.5-1,.7-1.4h0l.7.6h0Z"/>
      <path class="cls-82" d="M35.69,17.56c.2.1.3.3.5.4-.4.2-.8.4-1,.8-.2-.5.3-.8.5-1.2h0Z"/>
      <path class="cls-148" d="M36.19,22.36l-1-.8c.7,0,1,.2,1,.8Z"/>
      <path class="cls-68" d="M37.39,30.36c-.1-.6.2-.9.8-.9l-.8.9Z"/>
      <path class="cls-193" d="M44.49,30.86c.2-.3.4-.6.8-.6-.2.3-.4.7-.8.6Z"/>
      <path class="cls-186" d="M45.49,24.16c.2.4-.1.6-.3.9-.2-.4.1-.6.3-.9Z"/>
      <path class="cls-186" d="M44.89,23.36c.2.2.5.4.7.6h0q-.1.1-.2.2c-.2-.2-.5-.4-.5-.8h0Z"/>
      <path class="cls-148" d="M35.99,24.16c.1-.1.1-.2.2-.2.2.2.5.4.8.6l-.2.2c-.5,0-.7-.2-.8-.6h0Z"/>
      <path class="cls-157" d="M41.89,26.06c-.2-.2-.3-.4-.3-.6.2.2.4.4.3.6Z"/>
      <path class="cls-68" d="M38.29,29.16l.5.4c-.2.1-.5,0-.7-.1l.2-.3h0Z"/>
      <path class="cls-174" d="M45.19,18.46v-.5h.4c-.1.2-.2.4-.4.5h0Z"/>
      <path class="cls-148" d="M34.99,21.46c-.2-.1-.3-.3-.5-.4.2-.1.5,0,.7.1,0,.1-.1.2-.2.3h0Z"/>
      <path class="cls-148" d="M35.59,20.66c-.1-.3,0-.5.1-.7.2.3.1.5-.1.7Z"/>
      <path class="cls-148" d="M35.99,23.66c-.1-.1-.1-.3,0-.4v.4Z"/>
      <path class="cls-148" d="M35.29,21.56c-.1.1-.1.2-.2.2v-.4c-.1.1.2.2.2.2Z"/>
      <path class="cls-43" d="M24.59,35.46v-.2c.1-.1.2-.1.3,0,0,.1,0,.2-.1.2,0,.1-.1,0-.2,0h0Z"/>
      <path class="cls-186" d="M45.69,23.96c.2-.2.4-.5.6-.7.5-.3.9-.2,1.2.2.3.4.2.8-.1,1.1s-.8.3-1.1,0c-.3-.1-.5-.4-.6-.6h0c-.1-.1-.1,0,0,0Z"/>
      <path class="cls-180" d="M31.99,33.16c-.3.1-.5.2-.8.1,0-.4-.3-.6-.6-.8-.3-.3-.5-.7-.2-1,.2-.3.6-.4.9-.3.4.2.7.5.6,1-.1.3-.3.7.1,1h0Z"/>
      <path class="cls-53" d="M37.19,27.06l-.8,1c-.2-.2-.5-.4-.7-.5-.5-.7,0-1,.5-1.2h0c.5.1.9.3,1,.7Z"/>
      <path class="cls-148" d="M36.29,26.36c-.2.4-.7.6-.5,1.2-.3.1-.6.4-1,.3.1-.2.2-.3.4-.5,0-.7.3-1.1,1-1.2l.1.2h0Z"/>
      <path class="cls-137" d="M27.19,27.86l.7.6c-.5,0-.7-.1-.7-.6Z"/>
      <path class="cls-83" d="M25.39,42.96c-.3-.9-.2-1,.9-1.7.5.3.9.7.5,1.3-.3.7-.8.7-1.4.4h0Z"/>
      <path class="cls-151" d="M24.99,44.96c0-.2,0-.3-.1-.4.1.1.1.3.1.4Z"/>
      <path class="cls-80" d="M31.39,45.26h.4c1,.3,1,.8.2,1.3-.3.2-.6.2-.9.1-.6-.6.1-.9.3-1.4h0Z"/>
      <path class="cls-155" d="M31.99,46.66c.5-.5.4-1-.2-1.3.7.1.9.1,1.9-.4-.2.4-.9.8-.3,1.3-.4-.1-.9.2-1.4.4h0Z"/>
      <path class="cls-155" d="M32.09,41.56c-.1.2-.3.3-.4.5-.1-.4,0-.6.4-.5Z"/>
      <path class="cls-174" d="M45.59,16.06c-.2.1-.5,0-.6-.1l-.5-.5c.2-.1.5,0,.7.1.1.2.3.3.4.5h0Z"/>
      <path class="cls-49" d="M32.99,35.96c0-.5-.5-.7-.8-1,.2-.2.4-.5.6-.7.7.2.9.6.8,1.4v.5c-.1.1-.1.2-.2.2q0,.2-.2.3c-.2,0-.2-.1-.2-.2,0-.3,0-.4,0-.5h0Z"/>
      <path class="cls-148" d="M34.49,22.56l-.2.2-.2-.2h.4Z"/>
      <path class="cls-88" d="M31.59,44.66c-.2,0-.3,0-.4.1-.2-.2-.5-.4-.6-.7-.2-.3,0-.6.2-.8.2-.3.5-.4.8-.2s.6.4.9.6l-.1.1-.1.1c-.2.4-.4.7-.7.8h0Z"/>
      <path class="cls-164" d="M33.89,26.36c-1.4-1-1.1-.9-.5-2.4h0c1.3.8,1.4,1.3.5,2.4h0Z"/>
      <path class="cls-81" d="M33.79,26.36c.7-1,.2-1.7-.5-2.4l1-1.2.2.2c.4,0,.6.3.8.6q.1.1.2.2c.1.3,0,.6-.2.9-.1.1-.2.2-.3.2,0,.7.6.8,1,1.2l-1,1.2c-.3-.2-.7-.5-1.2-.9h0Z"/>
      <path class="cls-89" d="M22.79,42.76l.6-.7h.4c.6.5.6,1.2,0,2-.1-.1-.2-.1-.2-.2-.4-.3-.6-.6-.8-1.1h0Z"/>
      <path class="cls-49" d="M33.29,36.56l.2-.2c1,.9,1,1-.1,1.5-.2-.2-.4-.4-.7-.6.1-.2.2-.3.3-.5,0-.1.1-.2.3-.2h0Z"/>
      <path class="cls-194" d="M33.29,36.56c-.1.1-.1.2-.2.2v-.4c0,.1.1.1.2.2-.1,0,0,0,0,0Z"/>
      <path class="cls-52" d="M32.79,13.76c-.1-.1-.2-.1-.2-.2.6-.7,1.3-.9,1.9-.4-.3.4-.5,1-1.2.6-.2,0-.3-.1-.5,0h0Z"/>
      <path class="cls-83" d="M38.09,17.06c-.3-.1-.6-.1-.8-.3-.4-.4-.4-1-.1-1.4.4-.4.8-.3,1.2,0,.6.4.5.8.1,1.3-.2.1-.3.3-.4.4h0Z"/>
      <path class="cls-150" d="M28.99,15.06c-.3.1-.5,0-.7-.2.3-.1.5,0,.7.2Z"/>
      <path class="cls-150" d="M28.09,14.76c-.2.2-.3.3-.6.3.2-.2.3-.4.6-.3Z"/>
      <path class="cls-150" d="M27.79,14.16c.2-.2.3-.3.6-.3-.1.2-.3.3-.6.3Z"/>
      <path class="cls-150" d="M28.59,13.56l.2-.2.2.2h-.4Z"/>
      <path class="cls-155" d="M31.59,44.66l.6-.7c.1.5-.1.7-.6.7Z"/>
      <path class="cls-50" d="M34.99,24.96q.1-.1.2-.2c0-.4.2-.6.6-.7l.3.2.7.6h0c-.1.5-.3.8-.8,1-.4-.4-.7-.7-1-.9h0Z"/>
      <path class="cls-148" d="M37.39,24.46l1.2,1c-.1.1-.2.1-.2.2-.4-.4-1-.6-1-1.2h0Z"/>
      <path class="cls-148" d="M35.99,25.66l.8-1c0,.7-.2,1-.8,1Z"/>
      <path class="cls-148" d="M37.19,27.06c-.3-.2-.6-.5-.9-.8.6,0,.9.2.9.8Z"/>
      <path class="cls-148" d="M35.79,23.96l-.6.7c-.1-.4.1-.6.3-.9l.3.2h0Z"/>
      <path class="cls-148" d="M35.29,23.56c-.2-.2-.5-.4-.8-.6.5-.1.8.1.8.6Z"/>
    </g>
  </g>
</svg>