<?xml version="1.0" encoding="UTF-8"?>
<svg id="_圖層_2" data-name="圖層 2" xmlns="http://www.w3.org/2000/svg" viewBox="0 0 96.08 85.97">
  <defs>
    <style>
      .cls-1 {
        fill: #543c1b;
      }

      .cls-1, .cls-2 {
        stroke-width: 0px;
      }

      .cls-2 {
        fill: #fff;
      }
    </style>
  </defs>
  <g id="_圖層_2-2" data-name=" 圖層 2">
    <g>
      <g id="OBJECTS">
        <path class="cls-2" d="M23.47,85.97c-1.45,0-2.94-.08-4.42-.25-7.63-.89-13.8-5.09-16.96-11.53-3.22-6.57-2.69-14.53,1.41-21.32,5.44-8.94,18.3-15.92,29.3-15.92,1.19,0,2.35.08,3.48.24,1.54-4.11,2.86-8.4,4.24-12.85.5-1.63,1.01-3.26,1.52-4.88.23-.74.44-1.49.65-2.24.27-.96.54-1.93.84-2.89C47.81,0,57.46,0,61.1,0c.91,0,1.88.04,2.98.13,1.7.14,3.39.24,5.08.35,3.55.23,7.22.47,10.95.93,10.45,1.32,16.11,7.91,15.97,18.57,0,4.62-.73,9.45-2.19,14.77-2.54,9.33-9.32,14.7-18.59,14.7h0c-.77,0-1.56-.04-2.37-.11-3.88-.36-7.51-1.14-10.99-2.06-1.3,3.46-2.78,6.75-4.22,9.98-1.52,3.39-2.96,6.59-4.12,9.81-.49,1.38-1.14,2.49-1.61,3.31-.1.17-.21.35-.31.54-.38.7-.84,1.34-1.36,1.91-6.83,8.6-16.09,13.14-26.83,13.14Z"/>
        <path class="cls-2" d="M42.9,66.06c-5.64,7.43-13.38,10.77-22.73,9.72-9.08-1.05-12.88-9.85-8.11-17.74,4.49-7.38,20.03-15.03,28.28-8.8,1.83,1.38,1.93-.5,2.34-1.42,3.8-8.16,6.19-16.82,8.89-25.35.55-1.74.96-3.48,1.51-5.23,1.88-6.33,3.76-7.65,10.22-7.15,5.18.41,10.4.6,15.58,1.24,5.45.69,7.29,3.03,7.2,8.57,0,4.13-.73,8.2-1.83,12.19-1.51,5.55-4.72,7.79-10.45,7.29-5.45-.5-10.68-2.11-15.91-3.67-1.93-.6-2.7-.5-3.25,1.65-2.38,9.17-7.24,17.42-10.45,26.31-.28.78-.78,1.51-1.28,2.43v-.05Z"/>
      </g>
      <g id="OBJECTS-2" data-name="OBJECTS">
        <path class="cls-1" d="M42.9,66.06c-5.64,7.43-13.38,10.77-22.73,9.72-9.08-1.05-12.88-9.85-8.11-17.74,4.49-7.38,20.03-15.03,28.28-8.8,1.83,1.38,1.93-.5,2.34-1.42,3.8-8.16,6.19-16.82,8.89-25.35.55-1.74.96-3.48,1.51-5.23,1.88-6.33,3.76-7.65,10.22-7.15,5.18.41,10.4.6,15.58,1.24,5.45.69,7.29,3.03,7.2,8.57,0,4.13-.73,8.2-1.83,12.19-1.51,5.55-4.72,7.79-10.45,7.29-5.45-.5-10.68-2.11-15.91-3.67-1.93-.6-2.7-.5-3.25,1.65-2.38,9.17-7.24,17.42-10.45,26.31-.28.78-.78,1.51-1.28,2.43v-.05Z"/>
      </g>
    </g>
  </g>
</svg>