<?xml version="1.0" encoding="UTF-8"?>
<svg id="_圖層_2" data-name="圖層 2" xmlns="http://www.w3.org/2000/svg" viewBox="0 0 99.79 98.45">
  <defs>
    <style>
      .cls-1 {
        fill: #543c1b;
      }

      .cls-1, .cls-2 {
        stroke-width: 0px;
      }

      .cls-2 {
        fill: #fff;
      }
    </style>
  </defs>
  <g id="_圖層_2-2" data-name=" 圖層 2">
    <g>
      <path class="cls-2" d="M19.39,98.45c-6.1,0-11.67-2.58-15.29-7.08-3.6-4.48-4.91-10.47-3.6-16.44,2.56-11.2,9.67-19.59,20.59-24.32,1.46-.62,2.9-1.06,4.35-1.33.12-1.75.24-3.48.36-5.19l.24-3.44c0-.07,0-11.19,0-11.19,0-8.91,3.92-14.64,11.98-17.53C50.51,7.52,63.65,3.79,78.24.5c1.48-.33,2.91-.5,4.27-.5,7.98,0,13.88,5.5,15.02,14,.61,4.52.71,8.88.8,13.1.26,9.83.53,19.98,1.35,29.79.9,10.38-3.4,19.33-12.1,25.18-.5.34-1.19.91-1.92,1.52-.32.26-.63.53-.95.79-2.32,1.91-4.98,3.87-8.47,5.18-3.04,1.16-5.93,1.73-8.78,1.73h0c-4.88,0-9.4-1.75-13.05-5.08-2.51-2.28-4.33-4.97-5.42-7.93-2.77,9.4-10.23,16.55-19.96,18.76-2.32.51-4.38.89-6.37,1.17-1.05.16-2.16.24-3.26.24ZM51.44,52.14c-.09,2.32-.19,4.67-.31,7.04,2.84-4.98,7.37-9.64,12.49-13.08-3.94,1.07-7.95,2.07-12.05,2.9-.04,1.04-.09,2.09-.13,3.14Z"/>
      <path class="cls-2" d="M89.71,57.73c-.85-10.12-1.11-20.28-1.38-30.41-.09-4.01-.18-8.02-.71-11.99-.58-4.32-2.99-6.02-7.18-5.08-13.24,2.99-26.3,6.6-39.05,11.1-4.24,1.52-5.35,3.57-5.35,8.11v10.97l.04-.04c-.4,5.88-.85,11.77-1.16,17.65-.09,1.96-.4,2.9-2.63,1.74-2.32-1.2-4.9-.98-7.22,0-7.71,3.34-12.93,9.09-14.8,17.3-1.56,7.09,3.79,12.3,10.97,11.23,1.87-.27,3.74-.62,5.57-1.03,7.27-1.65,12.26-7.4,13.2-14.76,1.25-9.72,1.29-19.53,1.83-29.29.09-1.43-.09-2.72,1.96-3.03,12.3-1.78,24.03-5.93,36.02-8.92,1.83-.45,2.23-.09,2.23,1.65-.04,4.95-.04,9.9.04,14.85.04,2.18-1.16,2.41-2.9,2.59-8.07.71-18.55,9.36-20.82,17.08-1.29,4.32-.62,8.29,2.76,11.37,3.43,3.12,7.49,2.94,11.59,1.38,2.14-.8,3.92-2.14,5.66-3.57,1.2-.98,2.36-2.01,3.61-2.85,5.71-3.83,8.29-9.36,7.71-16.05Z"/>
      <g id="OBJECTS">
        <path class="cls-1" d="M36.03,40.43v-10.97c0-4.55,1.11-6.6,5.35-8.11,12.75-4.5,25.81-8.11,39.05-11.1,4.19-.94,6.6.76,7.18,5.08.53,3.97.62,7.98.71,11.99.27,10.12.53,20.28,1.38,30.41.58,6.69-2.01,12.22-7.71,16.05-1.25.85-2.41,1.87-3.61,2.85-1.74,1.43-3.52,2.76-5.66,3.57-4.1,1.56-8.16,1.74-11.59-1.38-3.39-3.08-4.06-7.04-2.76-11.37,2.27-7.71,12.75-16.36,20.82-17.07,1.74-.18,2.94-.4,2.9-2.59-.09-4.95-.09-9.9-.04-14.85,0-1.74-.4-2.1-2.23-1.65-11.99,2.99-23.72,7.13-36.02,8.92-2.05.31-1.87,1.6-1.96,3.03-.53,9.76-.58,19.57-1.83,29.29-.94,7.36-5.93,13.11-13.2,14.76-1.83.4-3.7.76-5.57,1.03-7.18,1.07-12.53-4.15-10.97-11.23,1.87-8.2,7.09-13.95,14.8-17.3,2.32-.98,4.9-1.2,7.22,0,2.23,1.16,2.54.22,2.63-1.74.31-5.88.76-11.77,1.16-17.65l-.04.04Z"/>
      </g>
    </g>
  </g>
</svg>