<?xml version="1.0" encoding="UTF-8"?>
<svg id="_圖層_2" data-name="圖層 2" xmlns="http://www.w3.org/2000/svg" viewBox="0 0 70.87 65.24">
  <defs>
    <style>
      .cls-1 {
        fill: #1d1d1b;
      }

      .cls-1, .cls-2, .cls-3 {
        stroke-width: 0px;
      }

      .cls-2 {
        fill: #fff;
      }

      .cls-3 {
        fill: #ec6408;
      }
    </style>
  </defs>
  <g id="_圖層_2-2" data-name=" 圖層 2">
    <g>
      <path class="cls-2" d="M68.19,27.63c-2.71-3.81-6.99-6.08-11.45-6.08-.62,0-1.24.04-1.86.13-.3-.74-.67-1.49-1.11-2.25-1.65-2.85-4.33-5.03-7.39-6.17-.05-2.42-.74-4.81-2.07-6.94-2.48-3.96-6.72-6.32-11.36-6.32-2.18,0-4.37.54-6.34,1.57l-2.17,1.12c-5.11,2.63-10.38,5.34-15.44,9.01-1.18.62-2.35,1.24-3.53,1.88C1.27,15.87-.86,20.71.32,25.35c1.1,4.31,4.74,7.43,9.07,7.9.84.42,1.72.75,2.65.98.18,1.28.53,2.54,1.05,3.73.25,1.58.85,3.11,1.78,4.46,1.78,2.57,4.56,4.25,7.65,4.67.06.29.13.57.21.85.03,2.06.63,4.09,1.78,5.89,2.05,3.2,5.53,5.11,9.31,5.11.97,0,1.94-.13,2.87-.38,1.18-.06,2.35-.29,3.5-.67.12.18.25.35.39.52.82,1.05,1.79,1.96,2.88,2.72.15.19.31.37.47.55,2.09,2.25,5.08,3.55,8.2,3.55,4.58,0,8.51-2.64,10.3-6.55.42-.51.81-1.05,1.15-1.61,2.62-4.33,4.08-8.99,5.37-13.11.39-1.26.78-2.51,1.2-3.71,1.44-4.15.71-8.87-1.95-12.62Z"/>
      <g id="OBJECTS">
        <g>
          <path class="cls-3" d="M55.54,31.82c-4.35,1.8-8.7,3.59-13.04,5.39.62-1.5,1.33-2.99,2.13-4.54,1.48-2.84,2.19-5.3.5-8.22-.84-1.45-2.98-2.53-4.64-1.89-2.96,1.13-5.91,2.26-8.86,3.41,1.19-3.67,2.65-7.24,4.36-10.76,1.52-3.13-1.57-6.42-4.76-4.76-6.21,3.22-12.42,6.19-17.95,10.54-2,1.58.55,4.4,2.6,3.37,3.38-1.7,6.73-3.44,10.2-4.91-1.66,3.86-2.99,7.86-4.05,11.96-.71,2.74,1.91,5.84,4.83,4.83,2.72-.94,5.42-1.92,8.11-2.91-.27.57-.48,1.01-.55,1.19-1.12,2.81-1.81,5.65-2.22,8.64-.37,2.71,1.81,6.51,5.14,5.14,4.05-1.66,8.1-3.33,12.16-4.99-.72,2.18-1.31,4.39-1.61,6.65-.52,3.98,5.34,4.91,7.14,1.93,2.71-4.47,3.96-9.99,5.67-14.92.98-2.82-2.24-6.38-5.17-5.17v.02Z"/>
          <path class="cls-1" d="M56.58,34.19c-6.81,3.7-13.62,7.39-20.43,11.1,2.59-6.04,4.83-12.2,6.66-18.53.25-.87-.79-1.73-1.58-1.22-4.96,3.23-10.1,6.11-15.42,8.68,2.62-7.27,5.08-14.6,7.21-22.03.22-.78-.64-1.37-1.32-1.01-7.12,3.78-14.36,7.35-21.44,11.19-.59.32-.07,1.17.52.89,6.67-3.09,13.24-6.41,19.87-9.6-2.4,7.48-4.88,14.92-7.63,22.29-.35.93.78,1.48,1.5,1.15,5.31-2.41,10.41-5.15,15.36-8.2-1.96,6.26-4.27,12.38-7.02,18.35-.46,1,.49,2.11,1.54,1.54,6.8-3.63,13.58-7.29,20.37-10.95-2.05,5.21-3.32,10.58-3.76,16.23-.12,1.57,2.31,1.55,2.44,0,.53-6.41,2.07-12.43,4.75-18.27.48-1.05-.52-2.23-1.63-1.63v.02Z"/>
        </g>
      </g>
    </g>
  </g>
</svg>