<?xml version="1.0" encoding="UTF-8"?>
<svg id="_圖層_2" data-name="圖層 2" xmlns="http://www.w3.org/2000/svg" viewBox="0 0 43.1 38.3">
  <defs>
    <style>
      .cls-1 {
        fill: #f2b84d;
      }

      .cls-1, .cls-2 {
        stroke: #543c1b;
        stroke-linecap: round;
        stroke-linejoin: round;
      }

      .cls-2 {
        fill: #98b2b6;
      }

      .cls-3 {
        fill: #fff;
        stroke-width: 0px;
      }
    </style>
  </defs>
  <g id="_圖層_2-2" data-name=" 圖層 2">
    <g>
      <path class="cls-3" d="M40.49,23.81l-1.98-1.08-1.1-2.07c-.87-1.64-2.57-2.66-4.42-2.66s-3.55,1.02-4.42,2.66l-1.1,2.07-1.98,1.08c-1.61.88-2.61,2.56-2.61,4.39s1,3.51,2.6,4.39l2.01,1.1,1.1,2.01c.88,1.61,2.56,2.61,4.39,2.61h0c1.83,0,3.51-1,4.39-2.6l1.1-2.01,2.01-1.1c1.61-.88,2.6-2.56,2.6-4.39s-1-3.51-2.61-4.39Z"/>
      <path class="cls-3" d="M28,14c0-1.82-.99-3.5-2.58-4.38l-4.54-2.5-2.5-4.53c-.88-1.59-2.56-2.58-4.38-2.58s-3.5.99-4.38,2.58l-2.5,4.54-4.54,2.5c-1.59.88-2.58,2.56-2.58,4.38s.99,3.5,2.58,4.38l4.54,2.5,2.5,4.54c.88,1.59,2.56,2.58,4.38,2.58s3.5-.99,4.38-2.58l2.5-4.54,4.54-2.5c1.59-.88,2.58-2.56,2.58-4.38Z"/>
    </g>
    <g>
      <g id="OBJECTS">
        <polygon class="cls-1" points="33 23 34.8 26.4 38.1 28.2 34.8 30 33 33.3 31.2 30 27.9 28.2 31.2 26.4 33 23"/>
      </g>
      <g id="OBJECTS-2">
        <polygon class="cls-2" points="14 5 17.2 10.8 23 14 17.2 17.2 14 23 10.8 17.2 5 14 10.8 10.8 14 5"/>
      </g>
    </g>
  </g>
</svg>