<?xml version="1.0" encoding="UTF-8"?>
<svg id="_圖層_2" data-name="圖層 2" xmlns="http://www.w3.org/2000/svg" viewBox="0 0 1123.1 1091.39">
  <defs>
    <style>
      .cls-1 {
        fill: #231815;
      }

      .cls-1, .cls-2, .cls-3, .cls-4, .cls-5, .cls-6, .cls-7, .cls-8 {
        stroke-width: 0px;
      }

      .cls-2 {
        fill: #e20011;
      }

      .cls-3 {
        fill: #d7000f;
      }

      .cls-4 {
        fill: #db0010;
      }

      .cls-5 {
        fill: #fff;
      }

      .cls-6 {
        fill: #e94528;
      }

      .cls-7 {
        fill: #ec6640;
      }

      .cls-8 {
        fill: #ed7054;
      }
    </style>
  </defs>
  <g id="_圖層_2-2" data-name=" 圖層 2">
    <g>
      <path class="cls-5" d="M1121.32,597.17c-.85-3.99-2.09-9.2-4.16-14.38-.3-.75-.64-1.5-1-2.24-.68-1.78-1.35-3.41-2.06-4.93-19.86-43.3-71.12-50.75-87.98-53.2-15.54-2.25-32.4-3.34-51.54-3.34s-36.38.97-53.96,1.91c-3.46.18-6.91.37-10.37.55l-3.93.21c-16.26.86-33.07,1.74-49.34,1.74-7.98,0-15.77-.29-23.74-.89-14.62-1.14-24.92-3.14-31.1-9.57-.03-.03-.07-.07-.1-.1-3.27-3.36-5.75-8.63-3.89-11.79,2.71-4.6,12.47-7.6,15.77-8.61,6.08-1.9,12.67-3.15,19.64-4.48,4.41-.84,8.97-1.7,13.62-2.78,16.59-3.73,33.05-9.38,48.92-16.79,20.8-9.69,64.08-29.84,66.24-70.99.77-14.49-4.02-27.64-13.85-38.01-11.08-11.69-27.95-18.66-45.13-18.66-.77,0-1.53.01-2.22.04-29.88,1-49.52,21.96-65.3,38.79-2.84,3.03-5.52,5.89-8.17,8.55-8.85,8.77-16.21,13.39-23.81,14.96-1.32.27-2.63.41-3.88.41-5.48,0-6.96-2.44-7.61-3.49-2.91-4.76-2.31-13.44,1.39-20.62,4.42-8.52,13.7-15.29,23.06-21.34,18.34-11.83,37.55-23.31,56.14-34.4,9.76-5.83,19.86-11.86,29.74-17.88,26.54-16.11,53.99-34.3,72.35-63.63,18.49-29.48,22.43-67.65,10.07-97.2-3.02-7.29-7.05-13.97-11.86-19.96,2.15.51,4.32.89,6.51,1.1,7.92,2.85,16.26,4.35,24.36,4.35.94,0,1.88-.02,2.87-.06,34.2-1.53,63.25-28.02,67.58-61.67,2.55-20.17-3.4-38.96-16.32-51.55-.02-.02-.05-.05-.07-.07-11.19-10.79-26.5-16.53-45.46-17.06-1.25-.04-2.51-.06-3.78-.06-32.42,0-58.52,12.52-71.66,34.42-10.27,17.28-10.92,40.67-1.62,59.63.93,1.89,1.96,3.72,3.07,5.48-10.34-4.19-21.64-6.5-33.41-6.57h-.52c-29.2,0-58.09,13.9-85.89,41.32-21.08,20.21-41.19,45.92-61.48,78.6-6.41,10.35-12,21.09-17.41,31.49-7.73,14.85-15.02,28.88-24.16,40.99-8.93,11.81-21.14,20.58-26.29,21.74-.23-.34-.5-.81-.82-1.45-4.38-8.78-2.62-19.98-.58-32.95,2.51-15.98,5.36-34.09-2.36-53.04-8.27-20.3-29.65-35.6-49.73-35.6-15.24,0-28.02,8.29-35.1,22.79-2.49,5.13-3.76,10.24-4.46,15.04-.4-1.9-.77-3.86-1.15-5.85-1.18-6.17-2.4-12.55-4.56-18.99-6.94-20.69-20.37-35.79-36.85-41.43-4.5-1.53-9.16-2.31-13.87-2.31-13.86,0-27.09,6.88-35.42,18.46-7.81,10.91-11.97,25.15-12.73,43.55-.54,13.07.84,25.72,2.17,37.96.42,3.82.81,7.43,1.14,10.96.27,3.07.56,6.12.85,9.18.56,5.93,1.09,11.52,1.49,17.2,0,.05,0,.09.01.14.23,2.9.82,10.6-.47,12.95-.21.21-1.71,1.05-4.78,1.05-.57,0-1.15-.03-1.72-.09-.04,0-.08,0-.12-.01-5.83-.58-11.83-4.63-17.79-12.01-6.4-7.94-11.5-17.86-16.91-28.35-1.38-2.68-2.76-5.35-4.15-7.98-7.51-14.21-15.28-26.68-23.73-38.11-20.71-28.05-43.73-48.07-68.42-59.48-.05-.02-.1-.05-.15-.07-9.23-4.17-27.48-11.17-46.07-11.17-19.91,0-35.99,8.24-45.25,23.18-11.11,17.85-7.46,38.9-3.03,55.28,1.96,7.18,4.59,14.53,7.82,21.86,1.45,3.61,3,6.93,4.75,10.12.03.06.06.11.09.17.43.78.87,1.55,1.31,2.32,13.55,25.23,31.56,45.92,48.98,65.94,12.95,14.88,25.18,28.94,35.48,44.51,11.74,17.77,17.83,33.92,18.61,49.31.46,9.5-1.37,14.91-2.62,16.66-.15.01-.34.02-.56.02-5.46,0-14.62-3.81-20.68-6.32-.86-.36-1.69-.7-2.43-1.01-6.32-2.62-12.6-5.56-19.24-8.67-21.72-10.18-44.18-20.71-70.75-21h-.85c-19.42,0-45.1,7.1-60.54,26.82-10.28,9.09-15.12,23.75-12.36,37.67.03.17.07.33.1.5,1.22,32.2,30.28,52.48,78.33,54.45,6.23.28,12.36.3,18.29.32,8.23.03,16,.06,23.66.73,10.61.91,18.6,3.02,23.81,6.3-7.49,5.64-24.36,13.25-38.69,17.04-23.39,6.1-47.94,6.93-68.87,6.93-4.55,0-9.48-.04-15.46-.14-6.41-.12-12.97-.29-19.31-.46-11.78-.31-23.97-.63-36.06-.63-13.79,0-25.87.43-36.89,1.3-32.45,2.48-66.06,7.93-92.08,30.77-12.99,11.41-22.43,27.06-26.58,44.08-4.62,18.96-2.17,38.34,6.88,54.53,13.34,23.95,39.61,38.67,74,41.44,3.8.3,7.73.46,11.69.46,28.94,0,57.19-8.06,81.4-15.61,16.51-5.15,32.87-11.04,48.68-16.73,13.98-5.03,28.43-10.23,42.65-14.79,9.95-3.2,20.12-6.38,29.95-9.46,3.51-1.1,7.03-2.2,10.6-3.32,9.86-3.12,20.35-6.31,30.65-8.03,4.88-.8,9.55-1.21,13.87-1.21s8.61.43,12.35,1.29c.06.01.12.03.18.04,5.45,1.19,11.17,3.49,17.48,7.02,12.17,8.12,23.59,20.9,31.4,35.14,13.46,24.6,6.85,41.8,1.7,49.88-9.25,14.54-26.81,23.52-41.1,29.73-7.62,3.33-15.33,6.33-23.5,9.5-13.09,5.09-26.62,10.35-39.81,17.1-13.23,6.75-53.51,27.29-58.81,66.89-.63,4.75-.69,9.54-.25,14.3-3.01-4.16-6.56-7.84-10.62-10.87-14.25-10.59-31.02-12.17-39.75-12.17-1.35,0-2.7.04-4.02.11-16.08.87-30.62,7.34-40.93,18.21-10.76,11.32-16.19,26.74-15.69,44.66.32,10.57,2.37,26.12,10.3,40.19,8.33,14.82,22.27,24.96,38.21,27.83,4.17.76,8.47,1.14,12.78,1.14h0c11.64,0,22.73-2.74,32.06-7.92.1-.06.2-.11.3-.17,5.83-3.37,10.83-7.96,14.87-13.66,6.3-7.75,9.84-17.65,10.54-29.47,0-.01.06-.74.06-.74,2.4-8.34,3.34-17.52,2.7-26.24,1.03,1.62,2.12,3.22,3.29,4.79,9.66,12.92,23.22,23.07,38.23,28.6,7.82,2.87,16.02,4.32,24.36,4.32,28.64,0,52.87-16.72,68.15-30.74,13.37-12.28,23.98-26.44,34.25-40.13,7.56-10.08,14.7-19.61,22.61-28.03,10.44-11.1,20.8-17.44,25.38-18.41.27.45.6,1.09.98,1.99,5.68,13.6,1.14,28.5-4.12,45.75-1.4,4.6-2.85,9.37-4.11,14.15-3.67,13.84-7.26,32.16-2.42,51.17,4.82,18.94,18.16,34.64,35.73,42,7.51,3.12,15.31,4.71,23.18,4.71,26.4,0,51.08-18.43,61.42-45.87,6.07-16.16,6.2-32.93,5.52-47.28-.13-2.58-.31-5.19-.48-7.82-.69-10.37-1.35-20.16.77-27.93,1.4-5.18,3.55-6.92,8.55-6.92,5.34,0,11.7,2.48,16.61,6.48,15.13,12.29,19.53,39.04,23.41,62.63.45,2.75.9,5.46,1.36,8.15,3.38,19.33,7.37,38,11.86,55.41,4.03,15.86,8.18,31.34,14.62,46.24,14.47,33.56,40.64,53.59,70,53.59,3.11,0,6.29-.22,9.45-.67,17.03-2.42,32.69-10.49,45.3-23.34,11.09-11.31,19.62-26.11,24.63-42.75,8.59-28.28,8.86-62.06.81-103.27-6.51-33.22-18.29-65.08-35-94.67-7.77-13.83-17-27.45-27.43-40.49-2.38-2.98-4.82-5.87-7.18-8.66-6.93-8.2-13.47-15.95-17.21-24.3-2.58-5.81-3.06-11.58-1.34-15.9.94.51,2.14,1.28,3.52,2.41,5.33,4.38,10.62,9.45,16.21,14.83,16.19,15.56,34.55,33.2,60.42,38.55,4.55.94,9.27,1.42,14.03,1.42,23.94,0,45-11.56,55.99-29.77-.49,2.78-.82,5.6-.92,8.44-.36.98-.69,2.06-.98,3.22-1.85,7.38-.9,14.23.13,19.38.01.05.02.1.03.16,2.44,11.7,10.18,23.3,20.69,31,9.71,7.16,21.18,10.94,33.15,10.94h0c14.88,0,28.93-5.78,39.54-16.26,10.22-10.04,16.4-23.88,17.4-38.96,1.01-15.19-3.38-29.95-12.32-41.49-11.16-14.52-28.12-23.19-45.37-23.19-9.13,0-17.98,2.5-25.66,7.26-7.5,4.67-13.74,11.42-18.3,19.3,2.28-13.91-.72-27.89-8.89-40.9-.53-1-1.06-1.95-1.6-2.87-2.16-3.7-4.85-6.9-8.02-9.53-6.21-6.65-13.78-12.83-22.51-18.4-4.85-3.09-9.93-5.9-14.84-8.62-18.18-10.08-29.47-17.12-32.89-29.84-.12-.44-.16-.74-.17-.93.28-.2.9-.53,1.96-.7,1.33-.22,2.8-.33,4.37-.33,8.57,0,18.87,3.16,28.02,5.98,19.33,5.86,37.92,14.43,57.62,23.51,9.43,4.35,19.19,8.84,29.06,13.03,26.62,11.21,50.73,18.63,73.69,22.69,12.65,2.24,23.72,3.33,33.83,3.33h0c13.94,0,26.21-2.01,37.49-6.14,26.14-9.57,45.19-31.34,50.96-58.26.67-3.14,1.2-6.38,1.58-9.65.17-.74.32-1.47.46-2.19,1.72-8.63,1.5-17.91-.63-27.58Z"/>
      <path class="cls-5" d="M469.59,120.6c1.32,4.77,4.04,8.78,7.65,11.65,4.25,6.62,9.66,12.14,15.94,16.21,7.62,4.88,15.98,7.46,24.17,7.46,6.13,0,12.04-1.39,17.58-4.14,10.86-5.29,18.84-15.33,23.73-29.84,3.68-10.93,4.7-22.34,5.21-32.05,0-.04,0-.08,0-.12.73-15.71-2.02-29.42-8.15-40.7-8.87-16.44-25.79-27.07-43.12-27.07-13.06,0-24.65,5.92-32.63,16.7-9.34,12.65-11.99,26.76-13.25,37.65-1.85,15.07-.9,29.87,2.81,43.99.02.09.05.18.07.26Z"/>
      <path class="cls-5" d="M115.58,456.12c3.12.54,6.27.81,9.36.81,10.94,0,21.39-3.38,30.22-9.79.05-.04.1-.07.14-.11,5.64-4.17,10.2-8.61,13.87-13.51.33-.44.69-.88,1.05-1.34,2.44-3.06,6.22-7.79,8.19-14.33,5.49-10.18,7.34-21.44,5.32-32.85-2.37-13.08-9.98-25.18-20.88-33.19-.03-.02-.06-.04-.09-.07-7.28-5.29-15.91-8.47-25.15-9.32-1.94-.55-3.91-.83-5.89-.83-2.37,0-4.64.39-6.75,1.1-.84.11-1.68.24-2.52.38-26.72,4.58-47.92,27.27-50.42,54-1.44,15.55,2.91,30.17,12.19,41.11,7.79,9.27,19.21,15.8,31.36,17.91Z"/>
    </g>
    <g id="_群組" data-name="群組">
      <g>
        <path class="cls-5" d="M733.65,963.47c-1.74,6.17-2.45,12.81-1.74,19.21.95,8.14,6.64,14.71,15.58,13.44s13.13-9.01,11.39-17.16c-.08-.32-.55-3.72-.4-2.13s-.08-2.29,0-2.21c0-.87,0-1.74.08-2.61.16-3.95-.55,2.13.24-1.74,1.19-6.64-1.82-14.31-9.09-15.97-6.96-1.42-14.07,2.21-16.05,9.17h0Z"/>
        <g>
          <path class="cls-2" d="M131.08,362.33s-53.37,18.74-23.96,58.59,62.62-20.24,42.93-42.38c-19.69-22.14-18.98-16.21-18.98-16.21h0Z"/>
          <path class="cls-2" d="M174.65,898.79s-18.5,47.6,8.46,60.41c26.96,12.81,55.82,12.33,57.32-19.45,1.58-31.71-7.27-78.67-65.78-40.96h0Z"/>
          <path class="cls-2" d="M521.51,47.41s26.33,20,15.1,57.72c-11.23,37.71-35.18,29.73-44.44,3.8-9.17-25.93-.32-68.39,29.33-61.51"/>
          <path class="cls-2" d="M987.45,27.64s52.34-9.65,60.01,22.53-16.21,52.82-45.31,55.11c-29.1,2.37-44.44-12.97-49.73-32.5-5.3-19.53,18.11-43.8,35.03-45.15Z"/>
          <path class="cls-2" d="M904.11,782.33s-5.77-27.59,20.48-38.03c26.33-10.44,50.84,14.63,35.82,47.36-15.02,32.81-59.3,28.23-56.3-9.33Z"/>
          <path class="cls-2" d="M714.43,719.23s18.82-24.12,51.16,10.75,66.34,50.92,94.8,25.93c28.46-25.06-17-59.93-40.01-73.85-23.01-13.92-56.53-34.63-40.24-61.91,16.21-27.36,65.55-8.38,106.82,10.91,41.19,19.29,175.45,86.97,207.55,1.98,32.1-85-104.29-87.76-126.66-88.95s-157.9,20.56-185.73-17.39c-27.83-37.95,4.27-57.17,37.64-60.64,33.37-3.48,120.97-31.07,118.36-76.62,0,0-7.12-33.68-49.42-23.32-15.58,3.8-27.83,17-39.85,30.05-20.64,22.45-40.64,44.67-75.51,18.5,0,0-29.57-37.87,19.21-70.84,48.78-32.97,153.63-83.97,171.5-146.83,17.87-62.86-47.12-90.61-91.88-69.26-44.75,21.35-86.34,95.12-115.91,143.9-29.57,48.78-55.74,73.85-81.6,57.32s5.06-80.41-13.28-104.37c-18.34-23.96-39.14-24.19-41.27,1.66-2.13,25.85-8.54,42.85-29.89,31.39s-22.93-86.66-55.03-78.75c-16.13,3.95-14.39,38.66-13.44,73.69.95,34.71,1.11,69.74-17.63,75.51-37.71,11.54-57.8-22.53-70.45-53.61-12.65-30.99-64.99-103.81-121.05-100.97s-10.67,81.44,6.56,106.74,100.49,92.75,85.63,154.26c-14.86,61.51-94.96.24-94.96.24,0,0-67.52-35.58-92.43,19.06-24.91,54.63,115.36,43.96,115.36,43.96,0,0,58.03,17.16,18.82,51.71-39.22,34.55-160.11,26.49-195.37,27.04s-138.21,2.93-129.19,76.14c9.01,73.22,142.64,33.84,191.66,11.39,49.02-22.53,146.51-51.79,184.94-15.18,38.43,36.61,61.99,88.24,18.9,126.27-13.13,11.62-35.58,20.56-58.83,29.81-52.9,21.03-110.14,43.96-73.45,104.84,0,0,45.38,36.29,94.09-9.41,48.63-45.7,67.52-110.22,107.53-85.47,40.01,24.83-24.99,117.41,18.42,148.8,43.41,31.39,61.36-19.77,59.3-73.85-2.13-54,24.91-64.2,56.61-52.03,31.71,12.1,42.7,52.5,42.38,80.96-.32,28.46,24.51,145.01,74.88,145.48s64.91-53.45,50.68-141.85c-14.23-88.48-58.11-125.24-71.48-140.11s-22.22-47.28-8.22-63.09"/>
          <path class="cls-3" d="M490.2,645.07c1.19-3.16,2.06-6.4,2.85-9.73.16-.71.4-1.5.55-2.21-.08.4-.16.71-.16,1.03-1.58,2.93-.47.71-.16.16,1.66-2.85,3.4-5.69,3.8-9.09.55-4.82-1.27-10.2-2.53-14.79-1.11-3.87-2.21-7.67-3.72-11.46-2.93-7.27-6.88-14.39-11.39-20.79-4.11-5.85-9.17-10.75-13.44-16.37,1.34,3.08,2.61,6.25,3.95,9.33-.16-1.66-.32-3.32-.32-5.06,0,1.98.08,3.87.08,5.85,0-3,.4-6.01,1.03-8.86-.55,2.37-1.11,4.66-1.66,7.04.08-.4.16-.79.32-1.19-1.19,2.13-2.29,4.35-3.4,6.48,3.24-5.22,4.82-8.86,5.61-15.1-.63,2.45-1.19,4.9-1.74,7.43.32-.87.71-1.66,1.11-2.45-1.27,2.29-2.45,4.66-3.72,6.96.63-1.11,1.34-2.06,2.21-3-1.98,2.06-3.87,4.11-5.85,6.17.71-.71,1.42-1.34,2.21-1.9-8.62,2.29-17.16,4.59-25.78,6.88h.24c11.7,1.9,26.17-3.08,32.5-13.68.24-.47.47-.79.87-1.11-2.13,2.21-4.19,4.43-6.25,6.72.71-.71,1.5-1.34,2.37-1.9-2.77,1.66-5.46,3.24-8.22,4.9,1.9-1.11,3.8-1.82,5.93-2.37-3.16.87-6.33,1.66-9.57,2.53,6.72-1.74,13.76-2.77,20.16-5.61,6.01-2.69,12.02-6.17,17-10.59,7.51-6.72,12.49-15.02,16.6-24.35,2.69-6.09,4.19-12.97,5.14-19.61,2.13-14.15-1.11-27.04-5.38-40.56-1.03-3.16-1.98-6.48-3.56-9.49-1.58-3.08-3-6.17-3.95-9.41.95,3.56,1.98,7.12,2.93,10.59-.55-1.98-.95-3.95-.95-5.93.08,3.48.16,6.88.16,10.36,0-1.34.16-2.61.4-3.87-.79,3.24-1.58,6.48-2.29,9.65.4-1.42.87-2.69,1.5-3.95-1.5,2.85-3,5.69-4.59,8.54.87-1.5,1.98-2.77,3.16-4.11-2.13,2.29-4.35,4.59-6.48,6.88.95-.71,1.9-1.34,2.93-1.98-2.77,1.66-5.53,3.32-8.3,4.98,9.73-5.77,20-10.67,28.15-18.82,11.54-11.46,23.01-25.14,25.7-42.3,1.98-12.81-4.66-25.62-14.15-33.68-.24-.16-.4-.32-.63-.47-4.43,18.58-8.78,37.16-13.2,55.74.16,0,.24-.08.4-.08-10.91-8.78-21.82-17.55-32.73-26.33,2.21,11.62,6.96,23.09,14.71,32.1,3.95,4.66,8.46,9.33,13.36,12.89,3.8,2.77,7.99,5.06,12.02,7.35,1.58.87,3.16,1.74,4.74,2.45,3,1.27,6.17,2.06,9.25,3,3.16.95,6.33,1.98,9.49,2.53,6.64,1.11,13.52,1.19,20.08.47,3.48-.4,6.8-1.5,10.12-2.37,3.4-.87,6.96-1.58,10.2-3.08,3.95-1.74,7.51-4.35,11.78-5.53-4.43,1.19-8.86,2.37-13.28,3.48.95-.24,1.82-.24,2.77-.4-4.51-.08-9.09-.16-13.6-.24.63.16,1.19.24,1.74.4-4.43-1.27-8.86-2.61-13.28-3.87.79.24,1.58.55,2.37.79,4.9,1.5,9.73,2.93,14.63,4.27,4.82.08,9.65.16,14.39.24,2.06-.16,4.11-.32,6.17-.4,4.51-.24,9.01-.4,13.52-.63,2.13-.08,4.35-.24,6.48-.32,1.11-.08,2.13-.08,3.24-.16.55,0,1.11-.08,1.58-.08,7.91-.63,15.02-3.24,21.35-7.83,4.03-2.45,7.04-4.27,10.44-7.12,1.5-1.27,3-2.61,4.66-3.8-3.87,2.29-7.75,4.59-11.54,6.96,2.77-1.03,5.46-2.13,8.14-3.16.63-.24,1.27-.47,1.9-.79,2.06-1.03,4.03-2.13,5.93-3.48,3.95-1.66,7.12-4.27,9.65-7.75,5.3-5.61,3.95-3.64,7.51-10.44,2.37-3.32,3.8-7.12,4.27-11.31,1.03-3,1.58-6.09,1.74-9.33-21.74,2.69-43.57,5.3-65.31,7.99,4.27,9.49,9.01,18.98,12.73,28.7-.71-2.53-1.42-4.98-2.06-7.51,3.4,12.65,6.72,25.38,10.28,38.03-.63-2.37-1.34-4.74-1.98-7.04,2.06,7.91,4.19,16.13,7.51,23.64,4.03,9.09,9.25,16.52,16.37,23.25-1.5-1.58-3-3.08-4.59-4.59,3,3.24,6.09,6.64,9.8,8.93,5.85,3.64,9.96,5.38,16.52,7.12,4.35,1.19,8.86,1.5,13.2,2.77-2.06-.63-4.11-1.19-6.17-1.82,1.42.47,2.77,1.03,4.11,1.74-1.82-1.11-3.72-2.21-5.53-3.32.71.47,1.34.95,1.98,1.5-1.58-1.58-3.16-3.16-4.66-4.74.63.63,1.11,1.27,1.58,1.98-1.19-1.98-2.29-4.03-3.48-6.01.47.87.87,1.66,1.19,2.53-.63-2.21-1.27-4.51-1.9-6.72.32,1.11.4,2.21.47,3.4,0-2.21-.08-4.51-.16-6.72-.08,1.42-.24,2.77-.55,4.19.47-2.13,1.03-4.27,1.5-6.4-.4,1.66-.95,3.32-1.5,4.98,1.03-1.9,2.06-3.8,3.08-5.77-.16.24-.24.4-.4.63,3.4-2.77,6.88-5.53,10.28-8.3-3.24,1.74-6.4,3.64-9.57,5.61,2.21-1.34,4.43-2.61,6.64-3.95-5.61,2.77-10.36,6.25-13.6,11.78-3.4,5.69-6.25,11.31-7.04,18.19-1.27,11.62,3.72,23.01,10.12,32.42,6.17,8.93,16.45,16.29,27.04,16.92,7.91.47,14.55.08,21.98-2.77-2.13.55-4.27,1.11-6.33,1.66,4.74-.24,9.88-1.34,13.92-3.72,3.64-2.13,7.12-4.35,10.59-6.72,8.14-5.69,6.4-18.58-.71-24.51-2.13-1.74-4.19-3.48-6.17-5.38-2.13-1.98-4.51-3.56-6.88-5.38,1.58,1.58,3.08,3.16,4.66,4.74-.71-1.11-1.5-2.21-2.21-3.32,1.27,2.21,2.53,4.43,3.8,6.56-.95-1.74-1.66-3.48-2.21-5.3.79,2.77,1.58,5.61,2.37,8.38-.08-.24-.08-.4-.16-.63-.47-4.59-2.06-8.7-4.59-12.33-1.19-2.13-1.9-3.56-3.24-5.22-.95-1.11-1.82-2.21-2.61-3.48,1.5,2.61,3,5.14,4.51,7.75-.87-1.5-1.58-3-2.06-4.66.79,2.93,1.58,5.77,2.37,8.62-1.82-7.12-3-13.44-7.91-19.53,1.5,2.53,3,5.14,4.43,7.67-.55-1.11-.95-2.13-1.34-3.32.79,2.69,1.5,5.38,2.29,8.14-.47-1.82-.95-3.56-1.42-5.38-1.19-4.19-2.93-8.06-5.53-11.54,1.34,2.37,2.69,4.66,4.11,7.04-.71-1.19-1.27-2.45-1.9-3.72.63,4.59,1.34,9.09,2.06,13.68,0-.24,0-.47.08-.79-.55,2.13-1.03,4.27-1.5,6.4,2.13-7.83,3.95-14.79,3.08-23.09-1.03-9.65-6.56-19.37-14.23-25.22-6.01-4.51-12.97-6.96-20.08-8.14-3.8-.63-7.59-.87-11.31-1.9,1.98.55,4.03,1.19,6.09,1.74-1.66-.47-3.24-1.19-4.74-1.98,1.82,1.11,3.64,2.21,5.46,3.24-1.5-.95-2.93-1.98-4.19-3.24,1.5,1.58,3,3.08,4.59,4.59-1.27-1.27-2.21-2.85-3.16-4.43,1.19,1.98,2.29,3.95,3.4,5.93-1.98-3.56-3.4-7.43-4.51-11.39.63,2.29,1.27,4.51,1.9,6.8-1.9-7.12-2.77-14.47-4.03-21.66-.71-4.27-1.42-8.54-2.21-12.89-.79-4.43-1.9-8.93-2.21-13.44,0,2.53.08,4.98.16,7.51-.08-8.3-.16-16.52-.32-24.75v-4.35c.71-4.74.24-9.33-1.42-13.84-1.98-7.04-4.98-13.44-9.17-19.37-2.77-3.64-5.93-6.72-9.49-9.41-3.56-2.13-7.12-4.27-10.67-6.4-7.04-3.48-15.66-4.11-23.25-5.22,4.19,1.19,8.38,2.45,12.57,3.64-2.06-.79-4.03-1.98-6.09-2.93-6.17-3.08-10.91-5.06-18.58-6.25-9.73-1.5-18.34.32-27.59,1.9-4.59.79-9.17,1.5-13.68,2.29-10.99,1.9-22.3,4.66-30.99,12.18-3.95,3.4-7.59,7.59-11.07,11.46-.71.79-1.42,1.66-2.06,2.53,3.08-3.32,6.17-6.64,9.33-9.88-.24.16-.47.4-.79.63-3.08,3.32-6.17,6.56-9.25,9.88-.4.47-.71.95-1.11,1.42-.87,1.11-1.66,2.21-2.37,3.48-3.32,5.69-6.17,11.62-9.25,17.47,1.98-3.64,3.87-7.35,5.85-10.99-1.34,2.37-2.77,4.59-4.59,6.64,2.69-2.85,5.38-5.77,8.14-8.62-2.06,2.13-4.27,3.95-6.8,5.46,3.32-1.98,6.56-3.95,9.88-5.93-2.77,1.58-5.61,2.77-8.7,3.64,3.48-.87,6.88-1.82,10.36-2.77-3.32.87-6.72,1.27-10.2,1.27,3.24.08,6.4.16,9.65.16-3.24-.08-6.4-.47-9.57-1.34,2.85.79,5.69,1.66,8.54,2.45-2.85-.87-5.61-1.98-8.3-3.48,2.37,1.42,4.74,2.85,7.12,4.27-2.37-1.42-4.59-3.16-6.56-5.14,1.82,1.9,3.72,3.72,5.53,5.61-.32-.32-.63-.71-1.03-1.11.4,12.1.71,24.27,1.11,36.37l.24-.24c-1.74,1.82-3.48,3.72-5.22,5.53.08,0,.08-.08.16-.08,1.82-1.9,3.56-3.8,5.38-5.69,1.19-2.29,2.45-4.59,3.72-6.88,2.37-6.33,2.37-13.28.55-19.85-1.58-5.61-4.19-10.12-8.22-14.23-1.66-2.21-3.8-3.8-6.25-4.9-3.32-2.37-6.88-3.72-10.91-4.19-.32-.08-.55-.16-.87-.24,2.69.79,5.46,1.58,8.14,2.37-2.21-.71-6.48-2.13-8.78-2.53-9.33-1.9-18.5,1.58-25.85,6.96-4.11,3-6.33,6.64-9.01,10.67-2.13,3.16-4.51,6.17-7.12,8.93,2.13-2.21,4.19-4.43,6.33-6.72-4.19,4.43-8.93,8.22-14.15,11.31,2.77-1.66,5.46-3.24,8.22-4.9-2.45,1.42-4.98,2.69-7.59,3.87-5.22,2.37-10.2,5.3-14.94,8.54,2.77-1.66,5.53-3.32,8.38-4.98-3.72,1.66-7.35,3.95-10.67,6.25-.95.63-1.82,1.42-2.61,2.21-6.4,6.25-9.96,10.99-13.76,19.29-1.98,4.35-2.93,9.41-3.72,14.15-.87,4.98-.4,10.91-.16,15.66.16,3.95.71,7.83,1.66,11.7,1.42,5.69,3.16,11.07,5.14,16.6.71,2.06,1.42,4.11,2.06,6.17-1.03-3.72-2.06-7.35-3.08-11.07.87,3.08,1.34,6.17,1.42,9.33-.08-3.64-.16-7.35-.16-10.99,0,3-.32,5.85-1.03,8.78.79-3.48,1.66-6.96,2.53-10.44-.71,2.85-1.74,5.53-3.08,8.14,1.66-3.08,3.32-6.17,4.98-9.33-.55,1.03-1.19,2.06-1.82,3.08-2.45,3.64-4.43,7.67-6.4,11.54,1.66-3.08,3.32-6.17,4.9-9.25-1.27,2.29-2.77,4.35-4.51,6.25,2.29-2.45,4.66-4.9,6.96-7.43-2.93,3.08-6.48,5.14-9.8,7.59-3.95,2.93-7.43,6.72-10.44,10.59-2.93,3.64-4.59,8.22-6.72,12.41-2.21,5.93-2.85,12.02-1.98,18.42,1.03,6.64,3.56,12.65,7.59,18.03.08.08.16.16.16.24-2.45-5.93-4.98-11.78-7.43-17.71.08.87.32,1.74.47,2.53.87,3.64,1.74,7.51,3.24,10.99,1.74,4.03,4.11,8.06,6.8,11.62-1.34-2.37-2.69-4.66-4.03-7.04,2.77,5.53,5.3,9.73,10.28,13.44-1.74-1.82-3.56-3.56-5.38-5.38,4.9,5.61,9.25,9.49,15.81,12.81,4.03,2.06,8.62,3.16,12.97,4.19-2.93-1.27-5.77-2.53-8.7-3.8,3.56,3.4,7.2,6.8,10.67,10.28-1.11-1.11-2.21-2.21-3.32-3.32,4.98,5.14,9.33,10.75,12.97,17-.79-1.34-1.58-2.69-2.29-3.95,3.56,6.25,6.33,12.81,8.3,19.77-.4-1.42-.79-2.77-1.19-4.19.63,2.45,1.19,4.74,2.53,6.96,1.27,2.13,2.77,3.64,4.59,5.22.87.79,1.74,1.5,2.61,2.29-1.27-1.66-2.53-3.4-3.87-5.06.71,1.19,1.34,2.37,2.06,3.56-.79-1.34-.87-1.42-.32-.24.32.87.71,1.74,1.03,2.53.79,1.98,1.42,3.95,2.06,5.93,1.42,6.48,10.75,5.77,12.73.24"/>
          <path class="cls-4" d="M504.51,723.98c2.13,3.64,4.82,7.04,7.83,9.88,3.32,3.16,7.51,4.9,11.31,7.27,1.11.63,2.85,2.21,4.35,3.4,1.82,1.42,3.72,3,5.61,4.35.4.24.71.55,1.11.79,2.13,1.27-.79-.55-.79-.95,0,.55,1.19,1.66,1.5,2.21,2.13,3.08,4.82,5.3,7.91,7.2,1.74,1.11,3.48,2.13,5.06,3.48.79.63,1.58,1.34,2.37,1.98,4.19,3.24,8.78,4.35,13.68,5.53,4.59,1.11,9.25,2.13,13.92,3,4.66.87,9.25,1.42,13.92,1.58,6.33.24,13.52,1.03,19.85,0,4.11-.71,8.22-2.13,12.26-3.32,2.37-.71,4.82-1.42,7.04-2.53,6.8-3.48,13.44-7.43,17.95-13.84,5.77-8.22,2.61-21.35-7.2-25.3-6.01-2.37-12.89-3.72-19.37-4.27-2.69-.24-5.38-.55-7.99-.95-4.9-.79-9.73-.79-14.63-.79,2.13,0,4.35.08,6.48.16-7.75-.16-15.5-.95-23.17-1.5-3.8-.32-7.51-.71-11.23-1.19-3.64-.47-7.27-1.03-10.91-.79-3.4.24-7.27,2.06-10.67,3.08,1.82-.47,3.64-.95,5.46-1.42-5.46.71-11.54.63-16.05,4.11-1.34.63-.87.63,1.42,0-.55.08-1.19.16-1.74.16-1.19.16-2.29.32-3.48.47-2.13.4-4.27.71-6.48,1.11-3.72.63-7.35.32-11.7-.16-4.59-.55-8.62-.71-12.57-3.64-.79-.63-1.42.24-1.03.87h0Z"/>
          <path class="cls-6" d="M571.88,619.37c-.08.16-.24.32-.32.47.16-.16.32-.32.4-.47t-.08,0M572.11,618.9v.08h0v-.08M500.08,670.69s.4-.47,1.34-1.42h0c-.87,1.03-1.34,1.5-1.34,1.42M515.82,653.85c.16-.71.32-1.34.47-2.06-.16.63-.32,1.34-.47,2.06M555.35,596.76c.08-6.09,1.19-12.1,3.32-17.79,3.16-8.3,8.14-15.26,14.86-20.72.95-.79,1.9-1.58,2.85-2.29,4.11-3.08,8.3-6.17,12.97-8.14.47-.16.95-.4,1.42-.55,4.9-1.74,10.44-3,15.58-3.95,1.34-.24,2.69-.63,4.03-.79,4.82-.16,9.73-.16,14.63.24,9.09,1.42,17.32,5.06,24.75,10.83,11.86,7.83,19.77,21.98,21.82,36.05,1.19,8.22.55,19.45-3.08,26.88-2.06,4.27-4.35,9.09-6.96,13.05-4.51,6.96-12.49,13.44-20.32,16.68-.95.4-1.9.79-2.85,1.03-5.38,1.74-10.99,3-16.52,4.35-3.4.87-5.93.4-9.88.4-4.51-.08-6.09.08-9.73-.87-5.14-1.42-10.36-2.37-15.26-4.59-7.67-3.4-14.15-8.3-19.53-14.86-.95,1.11-2.21,2.06-3.64,2.61-2.93,1.19-6.33,1.03-9.01-1.27-2.93-2.53-5.46-5.69-6.72-9.49-1.74-5.06-1.5-9.49-.16-14.47.95-3.4,2.61-6.72,4.74-9.41.95-.95,1.82-1.98,2.69-2.93M540.09,541.33c-2.69,1.11-5.38,2.53-8.54,4.43-2.53,1.5-5.46,3-7.83,4.98-1.82,1.58-3.64,3.72-5.14,5.38-1.9,1.34-3.32,3-4.35,4.9-1.82,3.4-3.64,6.8-5.46,10.2-.95,3.8-1.82,7.59-2.77,11.39-.08.32-.16.63-.16.87-.08.55-.16,1.03-.24,1.58-.08,1.19,0,2.45-.24,3.56-.79,7.51.32,14.79,3.24,21.9.95,2.29,2.13,4.51,3.4,6.56.4,2.53.95,5.14,1.66,7.83,1.5,5.61,3.08,10.99,3.64,16.68-.16,2.77-.47,5.46-1.03,8.14.16-.55.24-1.11.4-1.74-.47,2.21-.79,4.51-1.19,6.72,0,.08-.08.24-.08.32-.95,1.5-1.98,2.93-3.08,4.35-.55.71-1.11,1.34-1.74,2.06-.47.47-.95.87-1.42,1.34-1.9,1.74-3.87,3.08-5.85,4.66-.71.4-1.34.95-1.82,1.66l-1.19,1.19c-.95.95-1.9,1.82-3.08,2.53-1.98,1.27-3.16,3.32-3.8,5.53-1.11.24-2.21.4-3.32.55-.55.08-1.03.24-1.5.4-5.46,2.29-5.3,12.26,1.74,12.81,1.58.16,3.16.16,4.74.16h1.58c.16.16.4.24.55.32,2.61,2.29,6.33,3.48,9.65,3,4.03-.55,7.75-.32,11.7-1.9.08,0,.16-.08.24-.08,3.56-1.5,6.88-3.56,10.12-5.61,4.98-3.16,9.17-7.12,13.13-11.46,3.48-2.93,6.64-6.33,9.57-9.8-.32.4-.63.71-1.03,1.03.79-.95,1.5-1.98,2.13-3l.08.08c-.16.24-.24.47-.4.63.16-.24.24-.4.4-.63,5.14,4.98,7.43,6.17,18.26,12.02,1.03.55,1.98,1.03,3.08,1.42,5.06,1.82,11.78,3.8,17,4.9.55.08,1.11.24,1.66.32,6.56.79,13.28.79,19.77.4,1.19-.08,2.29-.24,3.48-.47,5.77-1.19,12.1-2.93,17.71-4.66.71-.24,1.34-.4,2.06-.63.4-.16.71-.24,1.11-.4.71-.32,1.5-.63,2.21-1.03,1.34-.71,2.69-1.42,4.11-2.21,1.42,1.42,2.93,2.85,4.35,4.19,3.24,3,7.43,5.22,11.23,7.12,3.72,1.9,7.99,3.32,12.02,3.8,9.17,1.03,18.34-.55,27.44-1.5,7.35-.79,14.79-1.5,22.14-2.29,1.98-.24,3.95-.47,5.93-.63,3.95-.47,8.14-1.03,11.78-2.53.08,0,.16-.08.16-.08,6.8-2.93,13.2-6.96,17.71-13.13,3.16-4.27,4.51-9.73,4.43-15.1-.08-5.46-1.66-11.54-5.3-15.81-4.43-5.22-8.3-8.14-14.39-11.07-4.19-1.98-8.62-3.64-13.2-4.19-4.66-.55-9.41-.79-14.07-1.11-4.66-.32-9.41-.71-14.07-1.03-.87-.08-1.74-.08-2.61-.16,0-.16-.08-.24-.08-.4-.08-2.37-.24-4.74-.4-6.17-.4-3.8-1.66-7.83-3-11.78,0-1.5,0-3-.08-4.51,0-.87,0-1.74-.08-2.61.08-2.21,0-4.51-.16-6.72h0c-.55-5.38-1.98-10.67-4.43-15.81-2.77-4.74-5.46-9.49-8.22-14.15-6.56-8.46-14.63-14.86-24.27-19.06-4.98-2.93-11.94-4.27-18.03-5.14-5.69-.79-15.18-.87-17.71-.47-3.08.55-6.09,1.34-9.01,2.29-2.53.16-4.9.71-7.12,1.66-.63.24-1.27.55-1.9.95-1.58.79-3.16,1.74-4.66,2.61-.08.08-.16.08-.24.16-4.03-1.27-8.22-2.29-10.83-3-5.93-1.58-11.78-1.74-17.79-1.66-3.56-.16-7.2-.24-10.75-.16-1.27,0-2.45.08-3.64.32-6.09,1.19-10.28,2.29-14.31,4.03"/>
          <path class="cls-7" d="M571.56,619.77c.16-.16.24-.32.32-.47h.08c-.08.24-.24.4-.4.47M572.11,618.98v-.08.08h0M627.22,623.56c-1.19.47-2.45.95-3.8,1.27-5.22,1.42-11.78,2.61-17.16,1.5-5.38-1.03-12.81-3.56-16.92-7.43-3.72-2.93-6.48-6.56-8.3-10.91-.63-2.29-1.27-4.51-1.9-6.8-1.27-6.64,1.11-13.6,4.51-18.98,2.77-4.43,9.65-9.41,14.39-11.46,3.95-1.66,8.7-2.29,12.97-2.61,4.98-.4,8.3.24,12.81,1.5,2.77.79,5.61,1.34,8.3,2.37,5.85,2.21,12.18,8.38,14.07,14.63,2.13,6.88,2.93,13.05.4,19.77-2.69,7.12-7.51,10.75-13.76,14.23-1.9,1.19-3.72,2.13-5.61,2.93M589.51,547.74c-4.66,1.98-8.93,5.06-12.97,8.14-.95.71-1.98,1.5-2.85,2.29-6.72,5.53-11.7,12.41-14.86,20.72-2.13,5.77-3.24,11.7-3.32,17.79-.87.95-1.74,1.98-2.53,2.93-2.13,2.69-3.8,6.01-4.74,9.41-1.34,4.98-1.58,9.41.16,14.47,1.34,3.8,3.8,6.96,6.72,9.49,2.69,2.29,6.09,2.45,9.01,1.27,1.42-.55,2.61-1.5,3.64-2.61,5.38,6.48,11.86,11.46,19.53,14.86,4.9,2.21,10.12,3.16,15.26,4.59,3.56.95,5.22.79,9.73.87,3.95.08,6.48.47,9.88-.4,5.53-1.42,11.15-2.61,16.52-4.35.95-.32,1.9-.63,2.85-1.03,7.83-3.32,15.81-9.73,20.32-16.68,2.53-3.95,4.9-8.78,6.96-13.05,3.56-7.51,4.27-18.66,3.08-26.88-2.06-14.07-9.96-28.23-21.82-36.05-7.43-5.77-15.66-9.33-24.75-10.83-4.9-.32-9.73-.4-14.63-.24-1.34.24-2.69.55-4.03.79-5.14.95-10.67,2.21-15.58,3.95-.63.16-1.11.4-1.58.55"/>
          <path class="cls-8" d="M598.05,570.83c-4.74,1.98-11.62,6.96-14.39,11.46-3.4,5.38-5.77,12.26-4.51,18.98.63,2.29,1.27,4.51,1.9,6.8,1.82,4.35,4.59,7.99,8.3,10.91,4.11,3.87,11.54,6.33,16.92,7.43,5.46,1.11,11.94-.16,17.16-1.5,1.34-.4,2.61-.79,3.8-1.27,1.9-.79,3.72-1.74,5.61-2.85,6.25-3.48,11.07-7.12,13.76-14.23,2.53-6.72,1.74-12.81-.4-19.77-1.9-6.25-8.3-12.33-14.07-14.63-2.69-1.03-5.53-1.66-8.3-2.37-4.51-1.27-7.83-1.9-12.81-1.5-4.27.24-9.01.87-12.97,2.53"/>
          <path class="cls-4" d="M132.82,682.39c-.71.16-1.58.24-2.29.47-1.58.47.55.63-.71.24-1.66-.55-3.32-1.34-5.14-1.11-3.08.24-6.17,1.03-9.25,1.27-5.77.4-10.99,0-17.24-1.34,1.34.55,2.61,1.11,3.95,1.74-2.61-2.06-5.61-2.77-8.62-3.87-2.61-.95-5.14-2.06-7.59-3.32-1.11-.55-2.21-1.19-3.32-1.82-1.27-.63,1.82,1.19,0,0-.55-.4-1.19-.71-1.74-1.11-2.29-1.58-4.66-3-6.96-4.59-2.21-1.5-4.35-3.16-6.4-4.98-.55-.47-1.11-1.03-1.66-1.5-1.27-1.19-1.03-.79.08.16-1.11-.95-2.13-2.21-3.08-3.32-1.98-2.29-3.87-4.66-5.85-6.96-2.21-2.45-4.35-4.66-7.51-5.53-1.66-.47-3.08-.63-4.82-.4-1.27.16-4.9,1.19-1.66.4,2.06.87,4.03,1.74,6.09,2.69-3-3.95-4.35-9.49-5.14-14.31-.4-2.37-.71-4.74-.79-7.12-.08-3.24.63-6.4.16-9.65-.79-6.56-9.41-7.27-11.78-1.82-1.42,3.4-1.27,7.51-1.11,11.23.08,3.08.47,6.17,1.11,9.25,1.34,6.72,4.27,12.65,6.33,19.13.63-2.69,1.27-5.38,1.9-8.06-14.15,13.28,8.7,33.37,19.92,40.64,6.48,4.19,12.97,6.72,20.4,8.54,6.17,1.58,14.63,3.48,20.56,1.03-1.42.16-2.85.32-4.27.55,6.4.4,12.89.32,19.13-.71,3.24-.55,6.48-1.34,9.73-2.29,1.5-.47,3.24-.87,4.59-1.9,1.27-1.03,2.21-2.61,3.16-3.95-.55.47-1.11.87-1.66,1.34,1.42-.87,2.85-1.74,4.27-2.61,2.69-1.9.47-7.12-2.77-6.4h0Z"/>
          <path class="cls-4" d="M289.85,484.64c-1.34-2.37-2.53-3.8-4.98-4.9-1.34-.63-2.69-1.11-4.11-1.58-3.16-1.11-6.4-1.98-9.57-2.77-.71-.16-1.42-.4-2.13-.55-.32-.08-.55-.16-.87-.24-1.11-.32-.63-.08,1.5.71-.08-.55-2.61-2.06-3.16-2.53-1.03-.87-2.06-1.82-3.08-2.77-1.98-1.74-4.03-2.45-6.33-3.32-1.42-.55-2.77-1.19-4.03-1.82-.55-.24-1.03-.55-1.58-.79-1.42-.71-.71-.24,0,.16s1.5.87.16,0c-2.37-1.58-4.66-3.24-6.8-5.14-.47-.4-1.11-1.27-1.66-1.58,1.98,2.06,2.06,2.06.08.16-.55-.63-1.11-1.19-1.74-1.74-.47-.4-1.11-1.27-1.66-1.5,1.58,1.66,1.98,2.06,1.19,1.19-.24-.24-.4-.47-.63-.71-.55-.63-1.03-1.27-1.58-1.9-.95-1.03-.63-.4-.16.24.4.55.87,1.11.47.32-.47-1.19-.32-.55.47,1.74,0,.79.08,1.5.08,2.29-.16.71-.32,1.42-.55,2.13.24-.47.4-.87.55-1.34,1.98-5.77.4-13.28-4.82-17-5.14-3.64-12.02-4.11-16.92-.08-5.3,4.43-7.75,12.02-6.33,19.13,1.11,5.69,4.03,10.67,7.75,15.1,5.85,7.04,13.6,12.33,21.66,15.97,4.19,1.9,9.17,3.95,13.68,4.03,3.72.08,8.93-1.34,12.41-3.08,2.21-1.11-3.16-.16-.55,0,.87.08,1.74.08,2.69.16,1.74.08,3.56.16,5.3.32,3.87.4,8.3,2.06,11.94.55,3-1.34,5.14-5.69,3.32-8.86"/>
          <path class="cls-4" d="M376.03,329.28c-3.24-4.82-6.33-9.96-10.04-14.39-.87-1.03-1.66-2.06-2.61-3-1.03-1.11-2.45-1.9-3.4-3.08-1.9-2.13-3.24-5.3-4.74-7.75-3.08-4.98-6.17-10.04-9.25-15.02-2.93-4.74-5.14-10.44-8.14-15.58-1.42-2.37-2.85-4.74-4.27-7.12-.79-1.27.16.32.24.47-.4-.63-.71-1.27-1.11-1.9-.79-1.42-1.58-2.85-2.37-4.27-2.69-4.9-5.14-9.96-7.27-15.1-2.21-5.14-3.87-10.44-5.61-15.73-.55-1.66.4,1.42.4,1.42-.08-.63-.4-1.42-.55-2.06-.32-1.42-.63-2.77-.87-4.19-.4-2.29-.71-4.59-.87-6.96,0-.24,0-1.58-.08-1.66.16.16,0,3.95.08,1.66.08-1.19.08-2.45.24-3.64s.32-2.37.55-3.56c.24-1.27.95-1.98-.4,1.66.16-.47.32-1.03.47-1.5.4-1.11.79-2.13,1.27-3.16.71-1.74-2.06,3.08-.87,1.66.4-.47.63-1.03,1.03-1.5.16-.16.79-1.19.87-1.19s-3.08,2.93-1.34,1.42c.95-.79,1.9-1.58,3-2.21-1.27.71-2.45,1.5-3.72,2.21,1.58-.87,3.24-1.58,4.98-2.06-1.42.4-2.77.71-4.19,1.11,2.85-.71,5.06-1.19,7.51-2.69,1.19-.71,2.37-1.5,3.56-2.21-1.19.71-2.37,1.42-3.48,2.06,2.45-1.42,4.82-2.93,7.2-4.43-2.06.87-4.11,1.74-6.17,2.61,2.06-.16,4.19-.24,6.25-.47,1.74-.24-.4-.16-.4-.08,0-.08,1.5.16,1.66.16,1.11.16,2.21.24,3.32.4,2.69.32,5.69.95,8.3.71,4.51-.55,8.86-4.27,8.7-9.33-.16-4.43-3.08-8.22-7.12-9.8-2.06-.79-4.27-1.42-6.33-2.13-5.06-1.74-9.73-3.95-14.94-5.3,1.98.87,3.95,1.74,5.93,2.61-7.43-5.85-16.84-7.75-25.22-3.8-7.67,3.64-13.13,9.41-17,17-5.53,10.83-5.3,24.91-2.29,36.77,1.98,7.67,4.43,15.02,8.22,21.98,3.8,6.8,7.91,13.36,12.65,19.53,4.19,5.53,8.54,10.91,13.2,15.97,2.53,2.77,5.46,5.22,8.22,7.83,2.45,2.29,4.51,4.66,6.88,7.27,2.77,3.08,5.53,6.17,8.3,9.25,2.29,2.53,5.38,5.22,7.04,8.14,1.11,1.98,1.98,4.03,3.24,6.01,1.19,1.74,2.29,3.4,3.64,5.06,2.61,3.16,5.22,6.4,7.91,9.57,5.46,6.8,14.55-.71,9.8-7.67h0Z"/>
          <path class="cls-4" d="M832.09,308.96c3.48-1.66,7.04-3.64,10.75-4.74,1.5-.47,3.08-.87,4.59-1.27,2.21-.63,4.27-1.98,6.33-3,3.16-1.66,6.33-3.4,9.49-5.06,3.48-1.74,7.12-3.16,10.67-4.66,7.43-3.24,14.39-7.99,21.19-12.49,6.48-4.27,12.65-8.86,18.66-13.76,11.78-9.65,23.32-20.24,33.13-32.1,4.19-5.06,7.91-10.44,11.07-16.29,4.19-7.67,6.8-15.66,8.3-24.43.63-3.56.95-7.12.87-10.75,0-6.4-.95-11.7-2.69-17.87-3-10.36-12.18-23.96-24.12-21.9,2.06.63,4.11,1.19,6.17,1.82-.71-.63-.79-.71-.16-.24-.24-.32-.47-.71-.71-1.03-.47-.71-1.03-1.34-1.5-2.06-1.11-1.42-2.37-2.85-3.64-4.19-2.77-2.93-5.69-5.77-8.86-8.3-3.24-2.53-6.64-4.74-10.12-6.8-3.24-1.9-7.99-3.8-11.62-3.95-2.85-.16-6.09.47-7.67,3.24-.16.24-.24.47-.47.71.79-.63,1.58-1.27,2.37-1.9-.55.32-1.11.63-1.74.95-2.53,1.42-3.08,3.95-1.5,6.56.79,1.5.71.71-.24-2.53-.08.79-.08,1.58,0,2.37.47,2.29,1.5,4.27,3.32,5.85,1.82,1.5,4.27,2.53,6.33,3.64.24.16.47.32.71.4-1.27-.79-.79-.47,1.5.87.71.4,1.5.79,2.29,1.11,1.03.47,1.98,1.03,3,1.58,1.66.87-.87-.63.95.55,3.08,1.98,6.09,4.19,8.86,6.64.71.63,1.42,1.34,2.21,2.06.47.4.4.4-.08-.08.4.4.79.79,1.19,1.27.55.63,1.11,1.27,1.66,1.9.4.47.71.87,1.11,1.34-.4-.79-.4-.71,0,.24.32-2.85.55-5.77.87-8.62-2.77,4.19-3.4,8.46-2.69,13.52.4,2.53.4,5.22,1.03,7.67,1.27,5.14,1.5,10.36,1.66,15.5,0-1.5-.08-2.93-.08-4.43,0,2.53-.16,4.98-.4,7.43-.16,1.34-.4,2.77-.63,4.11-.08.55-.24,1.11-.32,1.66.87-4.98.55-2.13.16-.95-1.34,4.98-3.24,9.88-5.14,14.63-.95,2.37-2.06,4.66-3.16,6.88-.32.63-.71,1.27-.95,1.9.08-.16,1.82-3.32.63-1.19-.71,1.27-1.42,2.45-2.13,3.72-2.93,4.82-6.09,9.49-9.49,13.99-3.8,4.98-7.83,9.8-12.1,14.31,1.74-1.9-.87.87-1.34,1.34-1.03,1.11-2.06,2.13-3.16,3.16-2.21,2.21-4.51,4.43-6.8,6.56-9.25,8.62-18.82,16.76-27.67,25.78-4.82,4.9-10.12,9.01-15.42,13.28-2.77,2.13-4.82,4.66-7.12,7.27-2.45,2.77-5.69,4.98-8.46,7.27-.55.55.16,1.98,1.11,1.5h0Z"/>
          <path class="cls-4" d="M894.15,127.97c.24-.08.08-.47-.16-.4-.24.16-.08.55.16.4Z"/>
          <path class="cls-4" d="M835.41,609.33c-.63-.55-1.34-1.03-1.98-1.5-.63-.47-1.58.4-.95,1.03.55.63,1.19,1.19,1.74,1.82.4.4.95.55,1.34.08.32-.4.32-1.03-.16-1.42h0Z"/>
          <path class="cls-4" d="M829.16,607.67c1.11.32,3,.4,3.87,1.11.71.55.87,1.42,1.42,2.06.63.87,1.11,1.03,1.74,1.58-.79-.71-.24-.16.4.4.4.4.79.71.79.71,1.11.87,2.37,1.34,3.64,1.58,1.5.32,3,.55,4.43.87,5.06,1.19,7.51,1.74,12.49,3.87,9.33,4.03,18.9,7.27,28.31,11.23,9.96,4.11,19.77,8.38,29.81,12.18,11.39,4.35,23.17,7.75,34.87,11.07,21.74,6.17,43.8,11.46,65.94,14.94,11.39,1.82,23.56,2.61,34.71.16s21.51-6.8,30.44-14.07c10.75-8.7,17.63-20.64,20.32-34.47,1.27-6.33.87-13.05-.55-19.45-.79-3.72-1.74-7.59-3.16-11.15-1.82-4.51-5.77-7.99-9.96-9.96-3.4-1.58-6.4-1.66-9.96-1.34,2.69,1.66,5.38,3.24,8.06,4.9-1.27-2.61-2.69-5.22-4.19-7.75s-3.32-4.43-5.38-6.48c-5.3-5.14-14.07,2.21-10.83,8.7,1.19,2.29,2.45,4.59,3.87,6.72.55.87,1.11,1.74,1.66,2.61-.47-.79.95,1.74,1.03,2.06.71-3.08,1.42-6.09,2.13-9.17-5.69,4.9-8.86,11.7-7.2,19.69.63,3.08,1.03,6.25,1.11,9.41,0-1.5-.08-3-.08-4.59.08,4.82-.24,9.65-1.34,14.31.32-1.42.71-2.93,1.03-4.35-.79,3-1.82,5.77-3.24,8.46.71-1.27,1.34-2.53,2.06-3.87-1.82,3.32-4.03,6.4-6.56,9.17.95-1.03,1.98-2.06,2.93-3.16-3,3.16-6.4,5.77-10.12,8.06,1.27-.71,2.45-1.5,3.72-2.21-4.51,2.61-9.25,4.59-14.23,6.01,1.34-.4,2.77-.71,4.11-1.11-7.04,1.82-14.39,2.77-21.74,2.77-.95,0-4.27-.24,0,0-.63-.08-1.34,0-1.98-.08-1.98-.08-3.95-.16-5.93-.4-3.8-.32-7.51-.79-11.23-1.5-15.26-2.61-30.44-5.93-45.46-9.73-3.48-.87-6.96-1.82-10.44-2.77-1.82-.47-3.64-1.03-5.46-1.5-.95-.24-1.98-.55-3-.87.47.16.95.32,1.42.4-.63-.16-1.34-.4-1.98-.55-3.64-1.11-7.27-2.21-10.83-3.32-2.61-.79-5.22-1.5-7.83-2.21-.79-.24-1.66-.47-2.45-.71,3.32,1.03-1.03-.32-1.66-.47-14.31-4.27-28.38-9.17-42.77-13.05-3.87-1.03-7.67-1.9-11.62-2.21-3.64-.32-7.27-.55-10.83-.79-4.19-.32-8.78-.79-12.89-.32-2.06.24-5.22,2.06-6.48,3.95-1.03,1.42-.63,1.5-2.06,2.21-.95.47-2.13.79-3.16,1.27-.4.32-.24,1.11.32,1.19"/>
          <path class="cls-4" d="M762.11,723.82c1.11,2.29,2.21,4.9,3.8,6.96,1.74,2.13,4.43,3.87,6.56,5.53,4.35,3.4,8.93,6.64,13.52,9.65,4.74,3.08,9.57,5.93,14.47,8.7,4.51,2.53,8.54,5.69,13.36,8.38,1.98,1.11,4.03,2.13,6.09,3,1.19.47,9.01,2.53,9.01,2.69,0,0-.32-.08-.63-.24-.63-.24-1.19-.4.16.16,1.19.47,2.93,1.03,3.87,1.19,1.74.32,3.64.16,5.38,0,3.16-.32,6.33-1.19,9.25-2.21,4.9-1.74,9.49-4.82,13.2-8.54,3.08-3.08,5.22-5.93,6.96-10.04,1.34-3,2.13-6.33,2.69-9.49,1.19-6.8.16-13.84-1.9-20.48-.95-2.93-2.21-5.46-3.8-8.14-2.85-4.9-6.88-6.88-12.02-8.06-4.98-1.19-10.44,3.32-10.75,8.46-.24,3.4-.55,6.4.79,9.8.32.79.63,1.58.95,2.37.4.95.16,1.98-.16-.95.08.55.24,1.11.4,1.66.16.95.32,1.98.47,2.93,0,.32,0,.95.08,1.27v-.95c0-.71,0-1.34-.08-.47-.08.95-.08,1.98-.16,2.93-.08.4-.08.87-.16,1.27-.4,2.21-.32.32.24-.63-.4.63-.47,1.66-.79,2.37-.16.47-1.66,3.56-.55,1.42,1.03-2.06-.47.63-.87,1.19-.63.95-1.19,1.9-1.74,2.77-.47.71-.95,1.34-1.5,1.98-.71.95-.16.4.32-.08.4-.47.71-.87-.4.16-.71.63-1.42,1.27-2.21,1.82-.32.24-.71.47-.95.71-.79.63.32,0,.95-.4.4-.24.63-.47,0-.16-.87.4-1.66.87-2.53,1.19-.47.16-3.48,1.42-1.42.55,1.42-.55.71-.4-.24-.08s-2.13.71-2.13.71c-.4.16-.79.24-1.19.4-.16.08-.4.16-.55.24-.55.16-.95.24.16.24,1.66-.08-.24-.08-.63,0-1.03.08-1.98.16-3,.16,2.06-.08-.47-.08-1.27-.16-2.06-.16-4.11-.55-6.17-.95-4.27-.87-7.35-1.82-11.23-3.64-4.27-1.98-8.46-4.03-12.57-6.17-4.43-2.37-8.7-4.82-12.89-7.51-2.13-1.34-4.19-2.85-6.25-4.27-2.45-1.66-5.38-2.13-8.06-3-2.37-.79-5.14,1.26-3.87,3.8"/>
          <path class="cls-4" d="M674.58,960.86c.4,1.58,1.03,3.32,1.11,4.9.08,1.58-.4,3.24-.47,4.82-.16,4.51,1.9,8.86,3.4,13.05,2.29,6.4,4.51,12.81,6.8,19.21,4.03,11.15,9.65,22.38,17,31.63,8.14,10.2,18.74,17.87,31.23,20.56,13.05,2.85,27.04-2.37,37.32-9.96,5.46-4.03,10.28-9.33,13.99-15.18,2.06-3.24,3.87-6.64,5.38-10.2,2.13-4.98,3.4-9.41,1.27-14.94.24,1.5.47,3,.63,4.43.87-7.12,1.74-14.23,3.48-21.19,1.98-8.14,4.03-16.13,5.14-24.43.47-3.72,1.03-7.43,1.5-11.23.47-3.87,1.11-7.83.08-11.7-1.58-5.93.87-16.84-6.4-19.45-.87-.32-1.98-.32-2.69.32-1.11,1.11-1.98,2.13-2.37,3.8-.4,1.74.08,3.64.08,5.46.08,3,0,6.09-1.11,8.93-1.42,3.64-1.82,7.51-2.61,11.31-.71,3.56-1.58,7.04-2.37,10.59-1.66,7.51-2.53,15.1-3.4,22.77-.4,3.64-1.03,7.12-1.82,10.67-.79,3.4-1.9,6.25-3.32,9.41.79-1.19,1.66-2.29,2.45-3.48-3.48,2.29-4.59,5.69-6.17,9.41-.47,1.11-.95,2.21-1.5,3.32-.16.32-.87,1.66-.08.16-.4.79-.87,1.58-1.34,2.29-1.27,2.06-2.61,4.03-4.11,5.85-.47.55-.95,1.11-1.42,1.66-.55.63-.16.32.08.08s.4-.47-.16,0c-1.11.95-2.13,2.06-3.24,3-.95.71-1.82,1.42-2.77,2.13-.63.4-1.19.87-1.82,1.19.4-.24,1.74-.87,0-.08-1.03.47-2.06.95-3.16,1.42-.55.24-1.11.4-1.58.63-.32.08-3.08.87-.63.32-2.37.55-4.74.95-7.2,1.11-.55,0-1.19,0-1.74.08-.71.08-.4.08.08.16.55,0,1.27,0-.32-.16-1.27-.16-2.53-.24-3.87-.47-1.27-.16-2.53-.32-3.87-.63-.55-.16-1.11-.24-1.66-.4,2.06.47.63.16.16,0-1.03-.4-2.06-.79-3.08-1.27-.63-.32-1.19-.55-1.82-.87-1.03-.55-1.34-.71-.16,0-2.06-1.34-3.95-2.77-5.85-4.43-.4-.32-1.42-1.42.16.16-.4-.4-.79-.79-1.11-1.19-.95-1.03-1.82-2.06-2.69-3.16-1.42-1.74-2.69-3.64-3.95-5.53-.4-.63-.79-1.19-1.11-1.82-.16-.32-1.11-1.9-.4-.63s-.16-.32-.4-.63c-.4-.79-.87-1.5-1.27-2.29-2.37-4.51-4.43-9.17-6.56-13.76-3-6.33-5.93-12.65-8.86-18.98-1.58-3.48-3-7.67-5.38-10.67-1.27-1.58-2.93-2.85-4.43-4.11-1.42-1.27-2.13-2.53-3.08-4.27-1.11-1.9-2.77-3.16-4.9-2.53-1.9.71-3.64,2.69-3.08,4.82"/>
          <path class="cls-4" d="M504.12,899.43c-1.27,7.59-2.53,15.26-2.37,23.09.08,1.98.24,4.03.4,6.01.16,1.9-.32,3.72-.47,5.53-.32,3.48,1.42,6.17,3.32,9.01,0-1.19-.08-2.37-.08-3.48-8.3,9.65,6.56,20.72,14.79,23.32,9.96,3.16,20,.32,28.07-5.69,7.43-5.53,12.49-14.07,15.02-23.17.79-2.93,1.66-5.77,1.27-8.86-.32-2.29-.95-4.59-1.19-6.88-.47-4.51.24-9.65-2.21-13.6-1.42-2.29-4.9-1.98-6.25,0-2.21,3.16-1.66,7.43-2.85,11.07-1.03,3.32-3.56,6.01-4.51,9.49-.47,1.82-1.11,3.72-1.82,5.46-.4.95-.79,1.9-1.19,2.85-.4.79-.24.63-.16.55.08-.16.08-.24-.4.55-.87,1.42-1.82,2.69-2.77,4.03-.63.87-.4.63-.24.4.16-.16.24-.32-.4.24-.71.63-1.34,1.27-2.13,1.9-.63.47-1.27.95-1.9,1.42-.32.24-.63.47-1.03.63q.95-.55,0-.08c-1.42.63-2.85,1.19-4.35,1.82,1.82-.71-.16,0-.63.08-.79.16-1.5.16-2.29.24-1.03,0-1.03.08.08.08-.79,0-1.58,0-2.37-.08,2.13.16-.71-.16-1.11-.24-.32-.08-2.45-.63-1.58-.32s-1.58-.71-1.82-.87c-.79-.32-.63-.16-.47-.08.24.16.47.24-.32-.4-.63-.47-1.27-.95-1.9-1.42-.08-.08-2.06-1.74-.79-.63-1.74-1.66-3.16-2.85-5.53-3.32-1.98-.4-3.87-.16-5.85.4,1.19.55,2.45,1.03,3.72,1.58-.63-1.42-1.11-2.85-1.66-4.27-.55-1.5-1.42-2.53-2.37-3.72-2.37-3.08-2.77-6.64-2.85-10.36-.24-7.51.87-14.94,2.06-22.3-.08-.4-.79-.47-.87,0"/>
          <path class="cls-4" d="M305.19,844c-2.53.79-4.9,1.9-7.2,3.4-1.03.63-1.9,1.5-3,1.98-.79.32-1.58.16-2.45.55s-1.66,1.03-2.37,1.66c-2.29,1.98-4.43,4.11-6.25,6.56-2.69,3.4-3.64,7.59-4.19,11.94-1.98,15.81,4.59,30.6,16.05,41.35,10.67,9.96,27.36,16.29,41.27,13.44,7.91-1.58,15.26-4.51,22.38-8.22,3.56-1.9,7.04-3.95,10.44-6.17.79-.47,1.5-1.03,2.29-1.5.24-.16,2.53-2.06.71-.71,1.9-1.42,4.19-2.53,6.17-3.8,6.72-4.35,12.89-9.49,18.58-15.18,1.66-1.66,3.32-3.4,4.9-5.22,1.03-1.11,1.74-1.98,2.37-3.56.16-.4.87-4.82.79-4.74-.32.08-.95,1.66,0,.16.63-1.03,1.27-2.13,1.9-3.24,1.98-3.64,2.06-6.01,0-9.73-.08.47-.08.95-.16,1.34.79-1.42,1.58-2.93,2.29-4.43.47-.95-.95-1.74-1.58-.95-.95,1.27-1.9,2.45-2.85,3.64.4-.16.79-.32,1.27-.55-2.69-.63-4.98-.71-7.2.95-.95.71-2.61,2.13-3.24,3.16-.24.24-.47.4-.71.63,1.5-.32,1.82-.47,1.03-.32,0-.32-4.98,1.34-3.4.71-2.21.87-3.56,2.21-5.22,3.87-4.43,4.51-9.25,8.62-14.39,12.26-1.27.87-2.53,1.74-3.8,2.61-.47.32-1.03.63-1.58,1.03.08-.08-2.45,1.58-1.19.79s-1.34.79-1.27.71c-.55.32-1.03.63-1.58.87-1.66.79-3.4,1.42-5.14,2.06-2.85,1.03-5.85,1.98-8.78,2.85-.32.08-1.5.63-1.82.47.4-.08.87-.24,1.27-.32-.47.08-.87.24-1.34.32-1.58.4-3.24.71-4.9,1.03-3.4.63-6.8,1.27-10.2,1.5-.71.08-1.42.08-2.13.08h-.79c3.16.08,2.61.08-1.58,0-.47,0-1.03,0-1.58.08-2.61.16,3.32.24,0,0-2.45-.16-4.9-.55-7.35-1.11-2.77-.63,2.85,1.03.16.08-.47-.16-1.03-.32-1.5-.55-1.5-.55-2.93-1.19-4.35-1.9-.47-.24-.95-.47-1.42-.71-2.37-1.27,1.9,1.27.4.24-1.11-.79-2.21-1.5-3.24-2.29-.24-.24-2.53-2.45-2.69-2.37l1.19,1.19c-.4-.4-.71-.79-1.11-1.19-.55-.63-1.03-1.19-1.58-1.82-.79-1.03-1.58-2.21-2.29-3.32-1.34-1.9.47.71.4.71s-1.03-1.98-1.11-2.13c-.47-1.11-.95-2.21-1.34-3.32s-.08-2.06,0,.32c0-.71-.4-1.66-.55-2.37-.32-1.58-.47-3.16-.55-4.74-.16-1.98-.08.16,0,.4-.16-.79.08-1.98.08-2.77.16-2.06.16-4.03-.08-6.09-.08-.71-.16-1.42-.24-2.13-.16-1.66-.08,1.11,0-.87.08-1.34.24-2.69.4-4.03.16-1.82-.63-2.93-.08-3.8,1.66-2.69,3.56-5.06,5.93-7.12.87-.71.08-1.98-.87-1.66h0Z"/>
          <path class="cls-6" d="M879.45,152.64c-.08.08-.16.08-.32.08-5.85,2.53-8.54,5.38-12.81,10.04-1.27,1.42-2.53,2.85-3.72,4.27-4.66,5.77-7.04,13.05-6.72,20.48-4.43,7.12-8.78,14.31-13.52,21.27-3.08,4.51-5.53,9.17-7.67,14.23-.79,1.9-1.66,3.72-2.53,5.53-.4.4-.79.79-1.27,1.11-.87.79-1.82,1.58-2.77,2.29-5.53,4.59-.16,14.94,6.56,12.1.16-.08.24-.08.4-.16,1.03-.55,2.13-1.03,3.16-1.58.47-.24,1.11-.47,1.5-.87.16-.08,1.03-.79.47-.55h-.08c.16-.08.24-.08.4-.16,2.29-.95,5.14-1.19,7.51-1.9,1.82-.55,3.48-1.11,5.14-1.82,3.56-1.5,6.8-3.4,9.96-5.93,6.48-5.06,12.65-10.52,19.13-15.5,4.19.32,8.3-.16,12.18-1.82.87-.4,1.74-.79,2.61-1.27,1.66-.95,3.32-1.74,4.98-2.69,5.61-2.93,8.54-5.61,12.57-10.2.79-.87,1.5-1.74,2.21-2.61,1.19-2.21,2.29-4.35,3.48-6.48,1.5-3.56,2.06-7.27,1.66-11.15-.08-6.4-1.98-13.36-6.25-18.42-3.32-3.95-7.27-7.04-11.78-9.33-6.96-3.4-14.94-2.61-21.82-.24-.71.47-1.74.87-2.69,1.27"/>
          <path class="cls-6" d="M963.41,576.12c-1.42.63-2.93,1.34-4.35,2.13-3.16,1.82-6.48,3.4-9.01,6.09-1.5,1.58-2.45,3.24-3.24,5.06-1.42.63-2.93,1.03-4.59,1.42-.16,0-.24.08-.32.08-1.5.63-2.45,3-.63,4.19,1.58,1.03,3.08,1.9,4.51,3.08.71,5.22,3.72,8.86,7.27,12.41,1.9,1.9,3.87,4.19,6.01,5.77,2.06,1.58,4.43,2.77,6.56,4.03,2.37,1.42,4.66,2.85,7.04,4.27,2.37,1.5,4.74,2.93,7.2,4.27,2.85,1.03,5.69,1.82,8.54,2.37,1.34.32,2.69.55,4.03.87,2.69.55,5.38,1.11,8.14,1.66,5.53,1.11,10.83,1.42,16.37,1.58,1.34,0,2.77.08,4.11.16,3.08.08,6.17.16,9.33.16,3.08-.47,6.17-1.27,9.17-2.29,2.45-.63,4.82-1.34,7.2-1.98.63-.16,1.19-.4,1.74-.63,1.74-.71,3.32-1.74,4.98-2.69,3.4-1.98,7.75-3.8,10.59-6.4,1.58-1.42,3-3,4.11-4.74v-.08c.55-3,.71-6.01.79-9.01-.16-2.61-.47-5.14-1.03-7.75-.63-2.93-.55-5.69,0-8.22-1.34-2.06-3-3.95-4.98-5.77-2.53-2.37-6.09-4.03-8.93-5.85-4.03-2.53-6.88-4.11-10.91-5.61-3-1.11-5.85-2.21-8.93-3.08-11.54-3.32-24.04-3.16-35.74-3-4.03.08-8.06-.08-12.1.08-3.72.16-8.3,2.29-12.1,3.56-1.74.55-3.4,1.19-5.14,1.74-2.06.79-3.87,1.42-5.69,2.13"/>
          <path class="cls-6" d="M714.43,858.07c-1.19.47-2.06,1.82-1.42,3.4,1.34,3.8,2.69,7.67,3.95,11.54,1.19,3.48,2.85,7.2,2.77,10.83-.24,7.91.16,15.5,1.74,23.32.71,3.8,1.42,7.51,2.13,11.31.32,1.82.63,3.64.95,5.38,0,.08.32,1.98.4,2.13,0,.55-.16,1.19-.16,1.74-.4,6.17-.79,12.33-1.74,18.42-.4.87-.71,1.82-1.11,2.69-.32.87-.71,1.66-1.03,2.53-1.5,4.19-1.58,8.38-1.42,12.89.16,3.8.79,7.67,1.19,11.46.63,6.48,2.06,13.44,5.38,19.06,4.11,7.12,10.91,12.41,18.98,13.52,4.27.55,8.54-.08,12.33-1.66,3.95-1.66,7.43-4.35,10.04-7.91,8.06-11.07,4.74-24.59,1.66-37-1.34-5.53-2.53-11.23-6.17-15.81-1.11-1.42-2.45-2.61-3.64-3.95-1.9-2.06-3.48-4.43-4.98-6.88-1.82-3.16-3.64-6.33-5.46-9.41-.87-1.42-1.74-2.93-2.61-4.35-.32-.55-.87-1.11-1.03-1.74.4.55.63.87.63.87,0,0,0-.16-.16-.55-.16-.55-.4-1.03-.55-1.58-2.37-6.72-4.9-13.36-7.51-20-1.27-3.24-3.08-5.93-4.98-9.25-1.9-3.32-4.66-5.77-6.64-8.93-1.9-3-2.77-7.2-4.03-10.44-1.34-3.4-2.69-6.88-4.03-10.28-.87-1.58-2.37-1.9-3.48-1.34"/>
          <path class="cls-6" d="M781.17,690.93c-.63.32-1.27.63-1.74,1.11-.08,0-.24.08-.32.16-3.95,1.66-6.48,5.69-4.51,10.44.08.24.16.4.24.63,0,.08,0,.16.08.32,0,.24.08.4.08.63.87,4.51,3.24,7.67,6.64,10.59,2.69,2.37,5.53,4.98,8.54,6.88,3.8,2.45,7.83,4.51,11.78,6.72,2.13,1.19,4.03,2.37,6.4,3,3,.87,6.72.95,9.8.4,1.27-.24,2.45-.55,3.56-1.03,2.77-1.19,4.98-3.08,6.56-6.09,1.98-3.64,2.61-8.7.55-12.65-1.19-2.29-2.53-4.82-4.19-6.8-2.61-3.16-6.09-4.98-9.65-6.72-3.32-1.58-6.56-3.32-9.96-4.74-3.95-1.66-8.3-2.45-12.49-3.56-2.93-.79-5.61-.95-8.46-.24-.79.32-1.9.55-2.93.95"/>
          <path class="cls-6" d="M517.4,885.83c.4-.71.63-1.27.79-1.58-.24.63-.55,1.42-.79,1.58M529.26,867.25c-2.85,1.19-5.14,3.48-6.48,6.64-1.42,3.24-2.85,6.48-4.35,9.65,0,.08-.08.16-.16.32h0s-.16.16-.4.47c-.16.24-.4.47-.55.71-1.03,1.34-2.13,2.69-3.16,4.11-3,3.8-4.9,7.91-6.88,12.33-1.11,2.53-1.98,4.74-2.61,7.51-1.03,4.27-.63,8.22.32,12.41,1.66,7.43,5.46,13.6,12.57,16.68,1.58.71,3.24,1.19,4.98,1.42h-.08.16c3.48.47,7.12.16,10.28-1.19,1.58-.63,3.08-1.58,4.35-2.77h0c.4-.4.79-.71,1.27-1.11,1.74-1.66,3.8-3.4,5.14-5.3,2.37-3.32,3.72-7.51,4.35-11.62.79-5.38,1.5-11.23.55-16.6-.71-3.8-1.82-7.75-1.98-11.54-.16-3.95-.32-7.91-.55-11.94-.32-5.3-5.61-10.44-10.59-10.99-2.21-.32-4.35,0-6.17.79"/>
          <path class="cls-6" d="M327.88,834.2c-3.87,1.66-7.51,3.8-9.96,6.17-3.87,3.8-6.64,7.59-7.91,13.05-1.19,5.06-1.19,10.99,1.19,15.97,4.74,10.04,14.71,16.68,25.46,15.5,3.16-.32,6.64-1.34,10.04-2.77,4.66-1.98,9.17-4.74,12.1-7.91.87-.87,1.66-1.74,2.53-2.61,1.27-1.42,2.61-2.77,3.95-4.19,1.27-1.58,2.29-3.32,3.08-5.3.55-.4,1.11-.87,1.66-1.27,5.38-4.11,7.59-13.13,4.59-19.61-1.27-2.69-3.08-5.06-5.38-7.04-2.77-2.37-8.38-4.27-11.86-3.4-.95.24-1.98.47-2.93.71-1.11-.24-2.21-.47-3.24-.63-3.72-.55-7.43-.16-11.07.08-3.64.32-8.06,1.5-12.26,3.24"/>
          <path class="cls-6" d="M87.12,602.45c-1.19.47-2.29,1.03-3.48,1.74-2.06,1.19-3.56,2.21-5.3,3.64-8.14,6.64-11.31,17.95-8.38,28.38,1.34,4.9,3.64,8.86,7.2,12.49,4.43,4.43,9.01,6.48,14.94,7.99,9.41,2.29,20.16-1.03,28.94-4.35,2.69-1.03,5.3-1.98,7.99-2.93.32-.16.71-.24,1.03-.4,2.29-.95,4.35-2.29,6.64-3.24.08,0,.16-.08.32-.16,4.9-2.06,10.2-3.4,15.18-5.38,4.74-1.9,9.57-3.64,14.39-5.22,3.64-.79,7.2-1.58,10.83-2.29,2.69-.55,5.38-.95,7.83-1.98.95-.4,1.98-.95,2.85-1.58,1.19-.87,2.13-1.98,2.93-3.24,6.4-1.42,12.73-2.77,19.13-4.43.08,0,.24-.08.32-.16,1.66-.71,2.61-3.08,2.37-4.9-.32-2.21-2.06-3.72-4.03-4.19-6.4-1.66-12.73-2.69-19.21-3.56-.71-.71-1.42-1.42-2.21-2.06-3.24-2.53-6.8-2.85-10.52-3.16-3.87-.24-7.75-.47-11.62-.63-7.83-.4-15.66-2.13-23.4-2.77-3.8-.32-7.67-.16-11.46-.4-1.82-.16-3.64-.47-5.38-.71-3.87-.47-7.75-.4-11.62-.32-4.11,0-8.3-.16-12.33.4-2.06.32-4.03.63-6.09,1.03-2.93.71-5.38,1.34-7.83,2.37"/>
          <path class="cls-6" d="M264.55,436.25c-8.54,3.56-14.23,11.62-14.07,21.9,0,1.9.24,3.87.71,5.85.08,0,.08.08.16.08,0,0,.08,0,.08.08.55.24,1.03.55,1.58.79,1.34.63,2.69,1.27,4.03,1.82,2.29.87,4.35,1.66,6.33,3.32,1.03.95,1.98,1.82,3.08,2.77.4.32,2.13,1.42,2.77,2.06.63.16,1.27.32,1.9.47,3.24.79,6.48,1.66,9.57,2.77,1.34.47,2.77.95,4.11,1.58.71.32,1.27.63,1.82,1.03.32-.08.55-.24.87-.32.47-.16.95-.4,1.42-.63,5.38-2.45,9.09-6.25,11.39-11.23,3.32-2.69,5.38-7.27,4.59-11.7-.71-3.8-2.53-6.56-5.14-8.54-2.61-4.66-7.2-8.46-11.7-10.52-5.69-2.69-11.7-4.35-17.87-3.24-2.06.32-3.87.87-5.61,1.66"/>
          <path class="cls-6" d="M349.7,219.38c-.87.4-1.74.79-2.61,1.34-3.56,2.13-7.43,5.69-8.54,9.96-1.19,4.59-1.98,7.91-1.19,12.73.47,2.61,1.19,6.01,2.13,8.06,1.66,3.8,4.19,7.27,6.56,10.59,2.93,4.03,5.93,8.06,8.93,12.02,5.85,7.67,11.86,15.18,17.79,22.69,3,3.8,6.25,7.43,9.41,11.15,4.03,4.66,7.99,10.2,12.89,13.84,7.75,5.77,15.97,10.75,23.72,16.68,3.56,2.77,7.75,3,11.15,1.5,5.46-2.29,9.09-8.7,6.17-15.42-3.72-8.62-6.88-17.47-10.04-26.33-2.13-5.93-6.4-11.23-9.96-16.37-2.85-4.19-5.69-8.38-8.7-12.41-5.77-7.67-11.54-15.42-17.16-23.25-7.99-11.07-15.5-26.57-30.2-28.23-3.72-.4-7.12.08-10.36,1.42"/>
          <path class="cls-6" d="M536.46,198.58c-2.53,1.03-4.66,2.77-6.25,5.3-2.77,4.43-3.8,9.01-4.11,14.23-.32,5.61,1.66,11.23,3.64,16.52,2.06,5.53,5.46,10.75,8.38,15.81,1.98,3.48,4.11,6.64,7.99,8.14,3.08,1.19,6.09,1.42,9.17.63.63-.16,1.34-.4,1.9-.63,5.93-2.45,8.78-8.54,8.3-15.34-.32-4.82-.47-9.65-.55-14.47,0,1.34.08,2.69.08,4.03-.08-4.59-.4-8.93-1.11-13.44-1.03-6.4-5.53-14.71-10.59-18.5-4.66-3.56-11.46-4.51-16.84-2.29"/>
          <path class="cls-6" d="M509.49,74.21c-.16.08-.4.16-.55.24-1.58.95-3.08,1.82-4.66,2.77-1.19,1.27-2.37,2.53-3.64,3.87-2.06,2.93-3.32,6.17-3.72,9.8,0,.16-.08.32-.08.47-.4,3.64.16,7.12,1.58,10.52s3.56,6.25,6.48,8.46c.16.08.24.16.4.24,2.13,1.82,4.51,2.93,7.12,3.48,1.66.71,3.4,1.03,5.14.79,2.53.24,4.98-.08,7.27-1.11.16-.08.4-.16.55-.24,1.58-.95,3.08-1.82,4.66-2.77,1.19-1.27,2.37-2.53,3.64-3.87,1.66-2.13,2.69-4.59,3.08-7.2.63-1.74.79-3.48.55-5.3.16-2.85-.32-5.53-1.58-8.22-.95-1.66-1.9-3.24-2.85-4.9-1.27-1.27-2.53-2.61-3.87-3.87-2.13-1.82-4.51-2.93-7.12-3.48-1.66-.71-3.4-.95-5.14-.79-2.45-.24-4.9.16-7.27,1.11"/>
          <path class="cls-5" d="M516.21,85.2c4.03-1.74,6.33-7.12,4.35-11.39-2.06-4.35-6.8-6.72-11.15-4.9-4.03,1.74-6.33,7.12-4.35,11.39,2.06,4.35,6.88,6.72,11.15,4.9Z"/>
          <path class="cls-5" d="M1018.68,83.14c9.09-3.87,14.31-15.97,9.73-25.7-4.59-9.8-15.42-15.1-25.14-10.99-9.09,3.87-14.31,15.97-9.73,25.7,4.59,9.8,15.34,15.18,25.14,10.99Z"/>
          <path class="cls-5" d="M948.71,768.41c-.32-.08-.63-.16-.95-.32-.79-.24-1.58-.47-2.29-.63-.79,0-1.58,0-2.45-.08-1.27.08-2.45.55-3.48,1.27-.79.32-1.42.79-1.9,1.5-.63.55-1.11,1.19-1.42,1.98-.47.63-.79,1.42-.87,2.21-.32.79-.4,1.58-.24,2.45-.08,1.27.16,2.53.71,3.8.47.79.87,1.5,1.34,2.29.55.63,1.19,1.19,1.74,1.74.71.4,1.42.87,2.13,1.27.79.24,1.58.47,2.29.71.79,0,1.58,0,2.45.08,1.27-.08,2.45-.55,3.48-1.27.79-.32,1.42-.79,1.9-1.5.95-.79,1.58-1.82,1.98-3,.16-.32.32-.63.47-.87.47-1.03.63-2.13.47-3.32.08-1.19-.16-2.29-.63-3.4-.4-.71-.79-1.34-1.19-2.06-.95-1.34-2.13-2.29-3.56-2.85h0Z"/>
          <path class="cls-5" d="M183.9,931.37c-.08.71-.16,1.34-.24,2.06,0,1.42.08,2.85.08,4.27.24,2.29,1.03,4.43,2.29,6.25.63,1.42,1.5,2.53,2.61,3.48,1.42,1.66,3.08,2.93,5.14,3.72,1.34.4,2.69.79,3.95,1.19,1.42,0,2.77.08,4.19.08,2.21-.16,4.19-.95,6.01-2.21,1.9-.95,3.48-2.29,4.66-4.11.4-.55.79-1.11,1.19-1.66,1.66-2.37,2.69-5.06,3-7.99.32-3.08-.08-6.01-1.34-8.93-.79-1.34-1.58-2.69-2.29-4.03-1.9-2.37-4.11-4.19-6.88-5.38-2.06-.95-4.11-1.42-6.25-1.27-2.21-.24-4.35.16-6.4,1.11-5.3,2.21-9.01,7.43-9.73,13.44h0Z"/>
          <path class="cls-5" d="M122.3,623.33c-1.66-.16-3.32-.32-5.06-.4,1.42,1.42,2.85,2.93,4.27,4.43-.79-5.85-5.3-8.22-9.88-10.59-4.35-2.21-8.93-1.98-13.52-1.9-3.16.08-6.4.24-9.41.95-3.72.95-6.8,1.66-9.88,4.03-3.95,3-6.01,7.91-5.93,12.97.16,10.91,10.91,17.71,20.56,15.18,3.64-.95,6.88-2.45,10.36-3.8,3.56-1.42,7.2-2.29,10.36-4.66,3.56-2.69,7.35-6.01,7.51-10.91-1.34,1.42-2.69,2.85-4.11,4.27,1.66-.16,3.32-.24,4.98-.24,4.98-.24,4.82-8.78-.24-9.33h0Z"/>
          <path class="cls-5" d="M352.07,850.72c-.71-.32-1.34-.63-2.06-.87-3-1.19.95.79,1.03,1.58-.16-1.27-4.19-3.4-4.82-3.64-1.27-.47-2.69-.87-3.95-1.19-3-.79-6.25-1.11-9.09.24-4.03,1.9-7.43,5.85-7.91,10.59-.79,8.22,5.61,14.47,13.28,14.63,5.69.08,10.12-4.03,13.6-8.14-1.27,1.03-2.53,2.06-3.8,3,1.03-.32,1.11-.32.24-.16.55-.16,1.19-.24,1.74-.32,7.67-1.5,9.25-12.18,1.74-15.73h0Z"/>
          <path class="cls-5" d="M516.37,909.23c0,.71-.08,1.42-.24,2.13-.4,2.45.47-1.58,0,.24.95-1.34,1.9-2.69,2.93-4.03,1.34-.55,2.77-1.11,4.11-1.66-.95.24-1.9.47-2.85.79-.95.4-2.13,1.19-3,1.74-1.74,1.27-3.16,2.77-4.19,4.74-1.66,3.16-2.21,7.27-1.34,10.91.71,2.85,1.82,5.69,4.35,7.51,2.29,1.66,4.98,2.61,7.83,2.21,5.69-.71,10.75-4.9,12.18-10.67,1.34-5.61-.87-11.39-5.06-15.26,1.11,1.42,2.21,2.93,3.32,4.35-.08-.16-.16-.32-.24-.47.24,1.74.55,3.48.79,5.22,0-2.53,0-4.98-.55-7.43-1.03-4.59-4.35-8.14-9.09-8.22-4.35-.08-8.7,3.24-8.93,7.91h0Z"/>
          <path class="cls-5" d="M986.03,608.46c5.69,1.66,11.54,3.87,17.39,4.51,3.64.4,7.59,1.27,11.15.79,6.33-.71,12.02-4.98,11.94-12.1-.16-6.88-5.69-11.31-11.78-12.41-3.64-.63-7.51,0-11.15.24-6.09.4-11.94,2.37-17.79,3.8-8.3,2.13-8.06,12.81.24,15.18h0Z"/>
          <path class="cls-5" d="M793.82,711.72c2.53,1.66,1.9,2.53,2.77,4.51,1.03,2.53,3.87,4.43,5.77,6.25,3.8,3.56,9.33,7.12,14.39,7.91,9.96,1.74,15.89-12.73,7.2-18.98-4.27-3.08-10.44-4.59-15.58-4.74-2.37-.08-5.14-.55-7.35,0-2.69.71-2.93,2.21-5.93,1.66-1.74-.24-2.85,2.37-1.27,3.4Z"/>
          <path class="cls-5" d="M870.04,221.67h.63c-2.13-.32-4.35-.63-6.48-.95,3.08.87,5.3,1.5,8.62,1.42,1.27-.08,2.21-.32,3.56-.63,3.48-.95,6.25-2.85,9.25-4.74-1.34.79-2.77,1.66-4.11,2.45,3.72-2.21,7.67-3.87,11.07-6.56,2.29-1.9,4.74-3.64,7.27-5.14-1.5.87-3,1.82-4.51,2.69,3.08-1.82,6.01-3.4,8.54-6.09,1.34-1.42,2.69-2.85,3.87-4.51,3.8-5.06,4.35-12.33,1.82-18.26-2.37-5.53-8.22-11.23-14.39-11.46-2.69-.08-5.53-.32-8.22.08-4.82.63-8.06,2.77-12.02,5.22-2.77,1.74-5.53,3.56-8.06,5.77-4.43,3.95-6.96,8.86-9.73,14.15-3,5.93-3.64,15.89,1.66,21.27-.95-2.29-1.98-4.59-2.93-6.96.08.47.24.95.32,1.42,1.9,6.8,6.64,11.07,13.84,10.83h0Z"/>
          <path class="cls-5" d="M606.59,617.95c5.77,1.34,10.04,0,15.5-1.58-1.98.55-3.87,1.03-5.85,1.58.55-.16,1.03-.24,1.58-.4,1.27-.16,2.45-.47,3.72-.87,2.06-.24,3.87-1.03,5.46-2.29,4.51-2.69,7.59-6.64,9.57-11.62,2.06-5.3,1.82-11.31-.4-16.68-1.66-4.03-4.43-7.43-7.67-10.28-5.06-4.35-11.62-4.98-17.71-4.74-2.93.16-5.93.79-8.7,1.82-4.35,1.66-7.91,5.14-10.67,8.86-4.66,6.09-5.3,15.02-2.21,22.22,3.24,7.91,9.73,12.18,17.39,13.99h0Z"/>
        </g>
        <g>
          <path class="cls-1" d="M774.45,223.41c-14.94,24.12-25.62,51.47-42.62,74.01-12.02,15.89-45.86,47.44-60.96,17.16-13.99-28.07,8.06-58.83-3.56-87.37-7.83-19.21-37.08-34.63-48.31-11.62-5.3,10.91-1.66,24.19-6.01,35.26-5.22,13.28-21.11,6.17-27.59-2.77-9.01-12.57-8.7-30.28-13.52-44.67-4.11-12.26-12.33-24.75-24.35-28.86-9.96-3.4-20.48.4-26.57,8.86-6.56,9.17-8.54,21.27-9.01,32.73-.63,15.34,1.82,30.99,3.24,46.33.79,8.93,1.74,17.79,2.37,26.72.63,8.14,1.03,17.08-2.93,24.19-5.22,9.41-16.37,12.18-26.09,11.15-12.73-1.27-23.09-9.09-31.39-19.37-9.49-11.78-16.05-26.09-23.17-39.53-6.56-12.41-13.84-24.35-22.14-35.58-16.29-22.06-36.45-41.98-60.72-53.21-19.06-8.62-52.42-17.71-66.1,4.35-7.04,11.31-4.11,26.88-.71,39.45,2.85,10.44,7.12,20.56,12.18,30.05,22.06,41.19,58.19,70.61,83.65,109.11,11.7,17.71,20.79,37.64,21.9,59.38.55,11.54-1.19,25.85-10.12,33.37-11.54,9.73-31.47.47-43.8-4.59-27.12-11.23-52.97-27.83-82.55-28.15-23.32-.24-52.1,12.33-53.45,41.11-1.5,31.31,38.03,37.48,59.22,38.35,14.23.63,28.46-.16,42.77,1.11,12.89,1.11,28.07,4.11,38.43,13.6,26.72,24.43-36.53,45.46-49.97,49.02-29.1,7.59-59.62,7.91-89.74,7.43-30.12-.55-60.41-2.21-90.37.16-27.91,2.13-58.43,6.56-80.41,25.85-19.45,17.08-29.65,48.39-15.42,73.85,12.02,21.59,36.53,29.49,58.11,31.23,28.86,2.29,58.43-5.85,85.55-14.31,30.68-9.57,60.56-21.66,91.16-31.47,13.52-4.35,27.04-8.54,40.64-12.81,10.99-3.48,22.06-6.8,33.45-8.7,11.07-1.82,22.85-2.21,33.92.32,8.3,1.82,16.13,5.22,23.64,9.49,15.81,10.36,29.49,26.17,38.51,42.62,12.41,22.69,14.79,48.63,1.03,70.21-11.62,18.26-31.23,29.18-49.97,37.32-20.64,9.01-42.14,15.81-62.23,26.09-19.53,9.96-44.67,26.33-48.07,51.71-3.48,26.17,17.24,49.1,39.14,57.17,26.33,9.65,52.9-4.74,72.11-22.38,21.35-19.61,35.98-46.02,55.82-67.13,13.68-14.55,46.33-41.67,59.38-10.44,10.44,24.98-1.19,49.26-7.35,72.74-3.48,13.13-5.85,27.44-2.37,41.11,3.32,13.05,12.33,23.56,24.04,28.46,24.51,10.2,49.02-5.38,58.19-29.73,4.66-12.41,4.9-25.85,4.27-39.22-.71-13.84-2.69-28.62.95-41.98,7.51-27.83,38.35-26.01,57.09-10.75,23.17,18.82,27.04,54.79,31.86,82.86,3.16,18.11,6.96,36.13,11.54,53.92,3.72,14.63,7.59,29.33,13.6,43.25,10.91,25.3,31.39,44.83,58.27,41.04,26.72-3.8,45.62-25.62,53.61-52.1,8.93-29.41,6.25-63.25.32-93.61-6.09-31.07-17.32-61.28-32.81-88.71-7.51-13.36-16.13-25.93-25.62-37.79-9.49-11.86-20.64-23.01-27.04-37.32-5.14-11.54-5.93-24.83.4-35.66,7.91-13.68,21.82-10.44,32.73-1.42,21.59,17.71,40.09,43.49,68,49.26,20.24,4.19,45.38-4.74,52.34-26.8,7.91-25.06-12.26-45.23-30.76-57.01-20.48-13.05-48.86-22.45-56.3-50.13-3.8-14.07,5.46-24.59,17.87-26.57,13.52-2.21,28.31,2.21,41.43,6.25,30.52,9.25,59.14,24.75,88.63,37.24,22.53,9.49,45.7,17.24,69.42,21.43,20.08,3.56,41.75,5.14,60.96-1.9,18.58-6.8,33.76-22.61,38.27-43.64,3.32-15.58,2.37-33.68-4.43-48.47-13.2-28.78-46.02-37.87-72.66-41.75-37.16-5.38-74.88-2.61-111.96-.71-18.11.95-36.21,1.98-54.32,1.98-8.46,0-16.84-.32-25.3-.95-15.18-1.19-32.26-3.48-43.96-15.66-9.25-9.49-13.84-23.96-6.8-35.9,5.77-9.8,17-14.47,27.04-17.55,11.39-3.56,23.17-4.98,34.79-7.67,15.5-3.48,30.52-8.7,44.91-15.42,20.72-9.65,53.21-25.38,54.71-53.92,1.27-23.72-21.35-36.29-40.56-35.58-25.93.87-42.77,24.19-60.01,41.51-9.73,9.65-20.56,17.63-33.92,20.4-11.94,2.45-25.3-.32-32.58-12.26-7.43-12.18-5.38-28.46.71-40.24,6.64-12.81,18.58-21.59,29.97-28.94,28.31-18.26,57.56-35.03,86.34-52.58,24.75-15.02,49.65-31.39,65.78-57.17,13.84-22.06,19.29-53.21,8.54-78.91-10.83-26.09-36.13-39.53-61.43-39.69-28.23-.16-52.58,16.13-72.35,35.66-22.46,21.51-41.59,47.68-58.43,74.8h0ZM913.37,126.63c11.78,1.5,23.56,6.56,32.18,15.73,9.17,9.73,13.44,23.17,13.84,36.53.87,29.97-15.89,54.48-36.61,71.95-24.12,20.32-52.03,35.9-78.35,52.74-13.68,8.7-27.44,17.32-40.96,26.25-11.23,7.43-22.3,15.66-30.36,27.04-13.52,19.13-16.84,52.26,5.38,67.6,20.24,13.92,46.02,3.08,62.15-11.31,18.66-16.68,35.34-45.07,62.62-45.23,9.73-.08,21.11,3.16,27.52,11.94,8.54,11.46,3.64,25.78-4.35,35.03-9.8,11.54-23.8,18.9-36.84,25.38-13.92,6.96-28.62,12.26-43.72,15.97-21.66,5.38-47.6,5.69-65.23,21.66-7.43,6.72-11.94,16.84-11.23,27.67.87,13.13,8.78,24.75,18.58,32.26,19.21,14.79,46.1,14.63,68.39,14.94,17.32.32,34.63-.4,51.87-1.03,36.53-1.34,73.69-3.64,110.3,1.58,24.04,3.4,57.4,10.36,67.92,38.03,5.77,15.18,4.82,34.31-2.13,48.31-8.93,18.03-26.96,25.54-45.31,27.28-20.32,1.98-41.04-1.66-60.96-6.72-27.44-7.04-53.53-18.42-79.7-29.89-26.96-11.86-55.43-24.98-84.44-27.75-12.1-1.19-25.78.79-34,10.99-6.96,8.62-8.14,20.24-4.35,31.15,4.19,12.02,12.65,22.3,21.9,30.2,9.65,8.14,20.64,13.05,31.31,19.29,16.92,9.96,45.15,31.63,29.1,54.79-6.01,8.7-16.76,13.13-26.72,13.76-12.81.79-24.59-4.59-35.42-12.18-12.02-8.46-22.38-19.37-33.21-29.33-9.88-9.09-21.82-18.19-35.26-15.58-23.56,4.66-27.75,37.24-19.13,57.56,5.61,13.28,14.86,24.43,23.64,35.42,9.65,12.02,18.5,24.67,26.17,38.27,15.66,27.67,26.65,58.11,32.42,89.66,5.3,29.1,8.06,62.07-1.03,89.98-7.91,24.35-30.84,46.81-57.01,39.69-26.01-7.04-35.26-40.88-42.22-64.83-5.14-17.71-9.65-35.66-13.28-53.77-3.16-15.34-5.53-30.84-9.8-45.94-7.43-26.41-21.59-51.31-47.2-60.33-21.9-7.75-44.75.87-52.03,24.83-7.99,26.25,4.66,55.98-5.61,81.68-4.9,12.18-14.23,22.61-26.65,25.38-11.54,2.61-24.99-1.5-32.34-12.26-16.92-24.83,3.64-57.17,8.06-81.83,3.48-19.06,2.21-45.46-13.52-58.98-22.3-19.29-50.76,5.06-66.26,21.35-19.53,20.64-34,46.25-54.79,65.7-19.53,18.34-47.44,31.86-72.74,15.5-9.8-6.33-18.74-16.84-20.87-29.18-2.61-14.79,6.48-26.72,16.21-35.42,16.52-14.79,37.24-23.09,57.32-30.91,37.08-14.39,87.29-31.39,93.93-80.49,6.01-44.51-28.62-84.84-65.63-101.36-13.6-7.12-28.31-10.75-43.8-9.57-25.7,1.98-50.37,11.46-75.11,17.79-30.52,7.83-59.93,19.29-89.9,29.02-27.91,9.01-57.96,18.03-87.68,16.6-20.08-.95-45.86-7.91-54.32-30.68-5.14-13.84-1.66-29.02,5.53-40.72,7.59-12.18,19.77-20.08,32.5-24.98,26.88-10.28,57.09-11.07,85.63-11.15,30.05-.08,60.25,1.9,90.29.71,28.62-1.11,57.48-5.14,83.81-16.76,12.1-5.38,25.06-11.7,32.73-23.56,7.27-11.23,6.25-25.46-3.64-35.34-20.48-20.56-53.05-17.71-78.12-17.47-18.58.16-71.48-1.19-60.88-35.03,9.41-30.12,47.2-28.23,70.53-20.4,28.15,9.41,54,30.44,83.65,33.6,28.31,3.08,38.58-26.8,36.37-52.5-1.9-21.35-10.36-41.27-21.66-59.06-24.59-38.58-60.41-67.76-83.26-107.69-5.3-9.33-9.8-19.13-12.73-29.49-3.24-11.39-7.43-28.31,3.4-35.82,9.8-6.8,23.72-4.43,34.63-1.42,12.89,3.56,24.99,9.96,36.05,18.19,21.82,16.21,39.38,39.3,52.97,63.57,13.2,23.56,24.35,54.56,49.26,66.89,18.26,9.01,44.67,7.51,53.84-13.76,6.4-14.86,2.45-33.6,1.11-49.5s-3.8-32.1-3.56-47.91c.16-10.04,1.5-23.17,8.46-30.36,9.01-9.33,21.03-1.27,26.96,8.54,8.3,13.68,8.06,30.76,13.76,45.54,4.51,11.78,12.65,21.59,24.35,25.06,10.44,3.16,21.11-1.03,25.54-11.62,4.59-11.07.71-24.75,5.93-35.34,5.38-10.83,18.11-5.77,24.98,1.27,10.91,11.23,8.93,28.38,6.8,42.54-2.06,13.92-4.51,27.52-1.58,41.75,2.29,11.31,8.22,23.09,18.26,28.54,12.18,6.64,25.62,1.98,36.61-4.19,10.67-6.01,19.85-14.86,27.59-24.67,17.24-21.82,29.18-48.23,43.72-72.11,16.37-26.96,35.34-52.74,57.09-74.8,19.29-19.69,44.04-36.13,72.35-32.5h0Z"/>
          <path class="cls-1" d="M903.56,777.35c-.63,1.27-1.27,2.53-1.58,3.87-.87,3.4-.4,7.12.32,10.67,1.58,7.59,7.04,14.63,12.97,18.98,14.71,10.83,34.39,8.78,46.81-3.48,13.76-13.52,15.73-37.87,3.24-54-10.75-13.99-30.05-20.16-44.59-11.15-10.91,6.8-17.95,21.19-17.16,35.11h0ZM952.74,755.37c4.66,4.51,8.38,10.12,9.88,16.6,1.74,7.59,0,15.89-3.48,22.38-3.32,6.09-8.86,10.67-15.02,13.13-6.01,2.37-13.28,3.72-19.69,2.13-7.35-1.82-13.2-6.88-16.84-13.99-1.98-3.87-3.48-8.7-3.4-13.2.4,2.13,1.03,4.27,1.9,6.33.16.32.55.16.47-.16-1.03-3.56-1.66-7.35-1.58-11.07.47-1.58,1.19-3,2.29-4.27.24-.24-.16-.63-.4-.4-.63.71-1.19,1.5-1.74,2.29.24-2.77.87-5.46,1.9-7.99,2.69-6.4,5.77-11.94,11.31-15.81,10.44-7.51,24.75-5.3,34.39,4.03h0Z"/>
          <path class="cls-1" d="M954.48,44.64c-6.96,11.7-7.04,27.99-.87,40.56,5.77,11.7,17.24,20.56,29.49,21.11.24,0,.47,0,.71-.08,7.12,3,14.79,4.51,22.3,4.19,23.01-1.03,45.38-18.98,48.63-44.2,1.58-12.49-1.27-25.78-10.44-34.71-8.86-8.54-20.87-11.15-32.18-11.46-20.87-.63-45.78,4.82-57.64,24.59h0ZM1005.4,31.59c8.7.08,18.19.63,26.17,5.22,7.99,4.59,12.18,12.65,12.26,22.22.16,20.08-15.58,37.08-32.58,42.22-10.52,3.16-21.59,2.45-31.78-2.53-8.06-3.87-15.26-10.04-20.79-17.55-3.87-8.78-4.03-19.45-.08-27.91,8.54-18.5,29.02-21.82,46.81-21.66h0Z"/>
          <path class="cls-1" d="M539.7,115.56c2.85-8.46,3.72-17.71,4.19-26.72.47-10.2-.79-21.11-5.77-30.28-8.7-16.13-30.52-23.56-42.06-7.99-6.01,8.14-8.3,17.87-9.49,28.15-1.5,12.18-.87,24.51,2.29,36.53.4,1.42,1.58,1.98,2.77,1.82,2.85,5.93,6.96,11.07,12.33,14.55,7.04,4.51,14.86,5.85,22.14,2.21,7.04-3.4,11.07-10.75,13.6-18.26h0ZM510.13,128.45c-7.75-2.13-13.92-9.57-16.92-17.24-1.9-15.97-1.58-33.45,4.98-47.76,2.53-5.53,6.64-10.59,12.89-10.91,6.09-.32,11.39,3.72,15.26,8.54,4.66,5.77,6.25,13.76,6.56,21.11.4,7.91-.16,15.81-1.34,23.56-.87,6.01-2.37,12.41-5.93,17.16-3.64,4.98-9.57,7.12-15.5,5.53h0Z"/>
          <path class="cls-1" d="M153.22,421.47c2.45-3.24,5.85-6.72,6.4-11.07,4.03-6.4,5.85-13.76,4.43-21.82-1.5-8.3-6.48-15.81-13.05-20.64-7.51-5.46-16.6-6.64-25.14-5.14-16.68,2.85-32.18,17.55-33.92,36.13-.87,9.41,1.42,19.13,7.59,26.41,4.98,5.93,12.18,9.8,19.45,11.07,8.7,1.5,17.24-.24,24.43-5.46,3.64-2.69,6.96-5.69,9.8-9.49h0ZM102.54,407.16c-1.19-13.84,8.38-25.85,19.77-30.36,10.75-4.19,25.22-1.82,31.31,10.36,3.24,6.4,2.13,13.99-.32,20.32-2.53,6.4-7.43,11.07-11.7,16.13-4.59,2.53-9.8,3.95-15.02,4.03-11.31.32-22.85-7.35-24.04-20.48h0Z"/>
          <path class="cls-1" d="M240.43,939.83c.08-.95.16-1.9.24-2.85,2.29-6.96,3.08-14.86,2.45-21.82-.87-10.28-5.22-20.24-13.36-26.33-8.62-6.4-20.64-8.7-30.76-8.14-10.2.55-20.24,4.35-27.52,12.02-7.59,7.99-10.52,18.74-10.2,30.28.32,10.52,2.53,21.74,7.75,30.99,5.38,9.57,14.23,16.13,24.35,17.95,10.44,1.9,22.3.55,31.55-4.59,9.57-5.53,14.31-16.45,15.5-27.52h0ZM181.6,952.4c-4.82-5.61-7.12-13.6-8.14-20.87-1.27-8.93-1.5-17.95,2.61-25.85,8.46-16.29,27.52-19.61,43.41-13.99,6.17,2.21,10.75,6.33,13.76,11.78,1.9,9.65,3.32,20,1.58,29.33-1.42,7.67-4.51,15.42-9.96,20.64-6.01,5.77-14.55,7.51-22.61,7.51-7.59.08-15.18-2.21-20.64-8.54h0Z"/>
        </g>
      </g>
    </g>
  </g>
</svg>