<?xml version="1.0" encoding="UTF-8"?>
<svg id="_圖層_2" data-name="圖層 2" xmlns="http://www.w3.org/2000/svg" viewBox="0 0 60.3 127.51">
  <defs>
    <style>
      .cls-1 {
        fill: #1d1d1b;
      }

      .cls-1, .cls-2, .cls-3 {
        stroke-width: 0px;
      }

      .cls-2 {
        fill: #f09c26;
      }

      .cls-3 {
        fill: #fff;
      }
    </style>
  </defs>
  <g id="_圖層_2-2" data-name=" 圖層 2">
    <g>
      <path class="cls-3" d="M56.06,73.07c-.1-.14-.2-.28-.31-.42-1.95-2.69-4.16-4.7-6.45-6.25,3.09-3.01,6.04-6.84,7.73-11.8,3.09-9.03.88-19.06-5.75-26.19-1.17-1.26-2.47-2.42-3.85-3.49,3.16-3.06,4.77-7.38,4.27-11.75-.61-5.27-4.14-9.78-9.23-11.76-2.42-.94-5.02-1.41-7.75-1.41C25.76,0,15.75,5.43,9.81,13.52c-4.86,6.62-6.36,14.01-4.23,20.8,2.02,6.44,6.5,10.39,10.85,13.11-3.61,3.19-7.06,7.17-9.18,12.66-2.59,6.74-2.23,13.89.72,19.97-.2.17-.39.36-.58.55-1.64,1.67-2.68,3.77-3.02,6.02-.84,1.18-1.51,2.49-1.97,3.89-1.02,3.07-1.32,6.05-1.55,8.44-.05.5-.1.99-.16,1.5-.06.5-.12,1-.18,1.51-.29,2.36-.61,5.04-.51,7.92.36,9.71,8.2,17.61,17.48,17.61h0c.39,0,.79-.01,1.2-.04,1.44-.11,2.89-.2,4.33-.29,2.94-.19,5.97-.39,9.02-.68,5.62-.54,10.63-2.99,14.06-6.7,3.95-1.36,6.83-4.88,7.36-9.2.28-2.28-.13-4.51-1.11-6.43,2.13-2.42,4.12-5.15,5.56-8.15,3.71-7.74,3.04-15.88-1.87-22.94Z"/>
      <g id="OBJECTS">
        <g>
          <path class="cls-2" d="M47.84,78.78c-3.66-5.26-9.06-6.6-14.69-8.71-.69-.26-1.59-.44-2.15-.96,0-.02.01-.03.02-.05.77-2.04,3.48-3.61,5.15-4.83,4.67-3.43,9.45-7.17,11.4-12.87,1.93-5.64.43-11.8-3.61-16.14-3.49-3.75-9.29-6.85-14.2-8.32-.24-.19-.43-.34-.61-.46.15-.26.29-.53.44-.79,1.03-1.03,1.64-2.23,2.81-3.2,2.25-1.87,5.08-2.59,7.44-4.2,3.07-2.1,2.36-6.22-.98-7.52-10.42-4.04-27.26,9.39-23.74,20.59,1.92,6.11,8.27,8.57,13.43,11.26.96.5,4.43,2.03,4.53,3.46.1,1.41-3.15,3.55-4.18,4.31-5.02,3.72-9.97,7.26-12.31,13.33-2.33,6.06-.8,12.64,4.17,16.89,2.41,2.06,5.33,3.25,8.32,4.24.26.09,3.02,1.23,4.9,2.05-.17.17-.33.35-.51.52-1.13,1.14-2.26,2.27-3.39,3.41-2.45,2.46-4.89,4.92-7.34,7.38-.83-2.01-1.78-3.93-2.81-5.55-2.08-3.27-6.84-2.57-8.03,1.05-.84,2.53-.96,5.26-1.26,7.9-.29,2.61-.73,5.33-.63,7.96.15,4.06,3.53,8.28,7.96,7.96,4.37-.32,8.76-.54,13.13-.96,6.06-.58,11.2-4.87,9.52-11.5-.22-.87-.58-1.62-1.03-2.28,7.48-6.68,14.62-14.84,8.26-23.97h-.01Z"/>
          <path class="cls-1" d="M43.01,108.24c-3.57-1.59-7.21-2.95-10.94-4.09,3.47-3.04,6.75-6.27,9.77-9.77,2.13-2.48,5.6-5.86,5.26-9.48-.36-3.75-4.71-5.06-7.55-6.46-2.6-1.29-5.19-2.57-7.79-3.86-2.16-1.07-7.64-2.78-8.19-5.18-.55-2.45,3.04-4.8,4.75-6.63,2.11-2.25,4.17-4.54,6.19-6.87,2.57-2.97,7.51-7.11,8.45-11.07.86-3.65-2.76-5.81-5.19-7.89-4.38-3.74-8.78-7.48-13.17-11.2,4.07-4.27,8.38-8.25,13-11.93,1.27-1.02-.53-2.79-1.79-1.79-5,3.96-9.64,8.24-13.99,12.91-.44.48-.54,1.35,0,1.81,3.77,3.2,7.54,6.41,11.33,9.6,1.53,1.29,4.7,3.06,5.68,4.78,2.43,4.28-1.39,7.52-3.66,10.23-3.16,3.78-6.45,7.46-9.86,11.03-1.62,1.7-5.5,4.2-5.47,6.96.02,2.48,2.84,3.47,4.62,4.37,4.6,2.33,9.26,4.52,13.89,6.79,3.29,1.61,7.61,2.38,5.21,8.02-.89,2.09-3.47,4.41-5.02,6.11-2.99,3.3-6.22,6.35-9.62,9.23-.68.58-.27,1.71.51,1.93,3.09.87,6.09,1.88,9.05,3.05-6.76,1.37-13.4,3.16-19.95,5.36-1.01-7.28-1.62-14.57-1.96-21.9,2.01,3.32,3.83,6.75,5.53,10.25.35.72,1.59.21,1.3-.55-1.88-5.01-4.29-9.67-7.14-14.2-.55-.88-2.02-.55-2,.54.1,9.27.94,18.49,2.25,27.66.08.58.87.97,1.39.79,8.12-2.77,16.38-4.91,24.83-6.43.93-.17,1.16-1.71.28-2.11h0Z"/>
        </g>
      </g>
    </g>
  </g>
</svg>