<?xml version="1.0" encoding="UTF-8"?>
<svg id="_圖層_2" data-name="圖層 2" xmlns="http://www.w3.org/2000/svg" viewBox="0 0 157.91 65.12">
  <defs>
    <style>
      .cls-1 {
        fill: #f7be29;
      }

      .cls-1, .cls-2, .cls-3 {
        stroke-width: 0px;
      }

      .cls-2 {
        fill: #1d1d1b;
      }

      .cls-3 {
        fill: #fff;
      }
    </style>
  </defs>
  <g id="_圖層_2-2" data-name=" 圖層 2">
    <path class="cls-3" d="M156.06,7.36c-2.62-4.47-7.63-7.36-12.74-7.36-4.82,0-9.01,2.53-11.51,6.96-1.72,3.09-3.39,6.23-4.98,9.42-.56-.62-1.12-1.25-1.68-1.87-2.21-2.46-4.43-4.92-6.67-7.47-2.49-2.73-5.9-4.24-9.59-4.24-4.84,0-9.54,2.54-12.25,6.61l-7.23,10.71c-2.34-2.71-4.6-5.57-6.77-8.54-2.87-3.98-7.74-6.55-12.39-6.55-3.72,0-7.1,1.59-9.5,4.47-2.59,3.08-5.2,6.15-7.81,9.21-1.36,1.6-2.73,3.2-4.09,4.8-1.22-1.43-2.45-2.88-3.69-4.36-3.48-4.03-8.95-9.38-16.17-9.38-2.68,0-5.34.75-7.91,2.22-5.66,3.27-8.86,9.78-11.43,15.01-.45.91-.88,1.8-1.33,2.66C5.06,36.04,1.37,43.31.14,50.89c-.55,3.39.56,7.11,2.97,9.95,2.31,2.72,5.46,4.28,8.65,4.28,3.01,0,5.83-1.39,7.97-3.95,3.07-3.73,5.45-7.75,7.75-11.63.68-1.15,1.36-2.29,2.03-3.39.31-.5.62-.99.91-1.47l8.35,9.67c2.38,2.78,6.06,4.37,10.1,4.37s7.71-1.59,10.11-4.39c3.79-4.45,7.67-9.02,11.58-13.57,3.71,4.19,7.37,7.95,11.1,11.39,2.7,2.51,6.12,3.9,9.64,3.9,4.69,0,9.15-2.45,11.93-6.58,1.7-2.54,3.42-5.09,5.14-7.63.52-.77,1.04-1.54,1.56-2.31l10.71,11.99c2.51,2.82,5.88,4.37,9.49,4.37h0c5.88,0,11.59-4.05,13.89-9.85,3.48-8.76,7.52-17.16,12.02-25.01,2.49-4.46,2.5-9.44.02-13.67Z"/>
    <g id="OBJECTS">
      <g>
        <path class="cls-1" d="M136.17,9.4c-2.9,5.2-5.6,10.5-8.1,15.9-4.4-5-8.9-9.9-13.3-14.9-4.1-4.5-11-2.7-14,1.8l-10.8,16c-4.1-4.3-7.9-8.9-11.4-13.7-3.1-4.3-10-6.6-14-1.8-5.2,6.2-10.5,12.3-15.7,18.5-2.5-2.9-5-5.8-7.5-8.8-4.5-5.2-10.5-10.3-17.8-6.1-5.2,3-8.1,10.4-10.8,15.6-3.1,6.1-6.6,13-7.7,19.8-.9,5.5,6.2,11.8,10.8,6.3,3.7-4.5,6.4-9.6,9.4-14.5,1.5-2.4,2.9-4.7,4.3-7.1.1-.2.2-.3.3-.5,1.2,1.5,2.3,3.1,3.2,4.2,3.2,3.7,6.3,7.3,9.5,11,3,3.5,9.6,3.5,12.6,0,5.1-6,10.2-12,15.4-18,4.5,5.4,9.3,10.6,14.5,15.4,4.4,4.1,10.7,3.1,14-1.8,3.4-5.1,6.9-10.2,10.3-15.3,5,5.6,10,11.2,15,16.8,4.9,5.5,12.7,1.8,15-4,3.5-8.8,7.6-17.4,12.3-25.6,5.7-10.2-9.8-19.3-15.5-9.2h0Z"/>
        <path class="cls-2" d="M141.87,15.9c-6.3,7.3-11.2,15.4-14.8,24.2-5-7.4-10.3-14.5-16.2-21.2-.4-.5-1.4-.5-1.8,0-6.3,7.3-12.6,14.5-18.8,21.8-5.3-7.4-11-14.6-16.8-21.6-.4-.5-1.3-.4-1.7,0-7.4,8.4-14.9,16.7-22.3,25.1-6-8.2-13.1-15.5-21.5-21.2-.3-.2-.9-.1-1.1.3-4.5,9.2-9.2,18.2-13.8,27.3-.2.5.5.9.8.4,4.7-8.7,9.2-17.5,14-26.1,7.8,6.3,14.7,13.3,20.5,21.6.4.6,1.2.8,1.8.2,7.5-8.3,15-16.7,22.4-25,5.8,7,11.2,14.2,16.5,21.7.4.6,1.4.9,2,.3,6.3-7.3,12.6-14.6,18.9-21.8,5.9,6.9,11.3,14.1,16.3,21.7.6,1,1.9.7,2.3-.3,3.5-9.4,8.5-17.9,15.1-25.5,1.1-1.3-.7-3.1-1.8-1.9h0Z"/>
      </g>
    </g>
  </g>
</svg>