<?xml version="1.0" encoding="UTF-8"?>
<svg id="_圖層_2" data-name="圖層 2" xmlns="http://www.w3.org/2000/svg" viewBox="0 0 100.93 68.68">
  <defs>
    <style>
      .cls-1 {
        fill: #543c1a;
      }

      .cls-1, .cls-2 {
        stroke-width: 0px;
      }

      .cls-2 {
        fill: #fff;
      }
    </style>
  </defs>
  <g id="OBJECTS">
    <g>
      <path class="cls-2" d="M93.78,22.81c-3.46-2.79-7.32-4.44-11.38-5.36,1.06-4.74-.14-9.41-4.96-12.75-11.56-8.02-28.74-5.4-37.73,5.25-1.17,1.39-2.21,2.86-3.11,4.39-1.59-1.46-3.52-2.44-5.92-2.46-2.79-.03-5.31,1.17-6.98,3.17-1.16-.29-2.32-.57-3.48-.86-6.35-1.61-14.03-2.28-18.14,4.08-4.62,7.15-.99,12.76,5.1,16.46-4.08,5.1-5.96,11.1-2.35,17.11,4.78,7.95,12.58,7.87,19.58,4.46,4.68,8.39,13.56,14.03,24.1,11.97,7.18-1.41,12.38-5.98,15.14-11.71,1.71.66,3.47,1.2,5.3,1.59,10.53,2.25,22.36,0,28.66-9.48,5.59-8.41,4.01-19.52-3.83-25.84Z"/>
      <path class="cls-1" d="M92.74,24.06c4.91,4.43,6.93,11.3,3.58,17.28-5.94,10.59-23.24,13.36-33.32,6.64.95,6.91-6.15,13.62-13.54,14.46-8.77,1-17.81-3.17-19.9-11.05-3.85,5.02-12.16,6.44-18.1,3.52-3.6-1.77-5.96-5.08-5.51-9.2.54-4.89,4.33-8.11,8.19-10.69-4.97-2.64-10.01-7.12-6.51-13.16,3.26-5.65,9.74-5.59,14.82-2.96.63-3.85,3.92-7.04,7.86-7.57,3.99-.54,7.38,2.02,9.28,5.35C39.91,6.78,50.89-.3,60.47,0c10.01.33,14.52,10.78,10,18.55,7.83-.36,16.18.01,22.27,5.5ZM94.21,40.11c3.72-6.7-1-13.92-7.21-16.9-5.88-2.82-12.76-2.37-19.09-2-1.15.07-1.58-1.39-.89-2.15,3.33-3.65,4.04-8.73.97-12.76-3.11-4.06-7.88-4.36-12.54-3.21-7.58,1.89-14.65,7.79-13.34,16.29.22,1.44-1.94,2.1-2.24.61,0-.07-.02-.13-.03-.21-.08-.04-.16-.09-.21-.17-2.06-2.82-4.35-6.48-8.36-6.29-3.67.17-6.53,3.28-6.81,6.81.15.11.31.21.46.32.69.53.07,1.71-.7,1.21-.15-.1-.31-.19-.46-.28-.55.19-1.25-.07-1.38-.76-4.4-2.16-10.34-2.79-12.99,2.27-3.09,5.89,3.27,9.17,7.48,11.07.78.36.62,1.47,0,1.87-2.75,1.75-5.73,3.61-7.44,6.49-2.63,4.45-.78,8.93,3.66,10.85,5.77,2.51,14.28.39,16.03-5.83.04-.94.15-1.92.37-2.94.27-1.27,2.15-.91,2.18.3.03,1.12-.1,2.16-.36,3.12-.07,8.35,8.2,12.86,16.35,12.55,8-.31,18.24-9.07,10.55-16.85-1.03-1.04.58-2.66,1.61-1.61,1.01,1.03,1.77,2.1,2.29,3.18,8.89,7.45,26.47,5.14,32.1-4.98Z"/>
    </g>
  </g>
</svg>