<?xml version="1.0" encoding="UTF-8"?>
<svg id="_圖層_2" data-name="圖層 2" xmlns="http://www.w3.org/2000/svg" viewBox="0 0 163.75 83.05">
  <defs>
    <style>
      .cls-1 {
        fill: #543c1a;
      }

      .cls-1, .cls-2 {
        stroke-width: 0px;
      }

      .cls-2 {
        fill: #fff;
      }
    </style>
  </defs>
  <g id="OBJECTS">
    <g>
      <path class="cls-2" d="M145.84,29.99c-3.11-.94-6.32-1.42-9.53-1.47-1.48-7.95-8.17-12.76-16.32-12.35-5.28.26-10.82,1.31-15.59,3.76-1.17-7.35-6.52-13.54-13.39-16.87-14.39-6.96-31.04-1.35-41.16,10-4.91-2.07-10.59-2.51-15.81-.59-4.98,1.84-8.93,5.34-11.37,9.78-2.87-1.04-5.84-1.64-9.02-1.31-5.79.61-11.51,4.11-13.13,10-2.24,8.13,3.1,12.33,9.87,14.02-1.87,5.89-1.61,12.04,3.28,17.46,5.64,6.25,14.84,7.11,22.26,3.93,4.92,22.3,41.98,20.62,55.03,4.64.58-.71,1.1-1.47,1.6-2.24,4.73.69,9.73-.16,14.01-2.29,3.58,2.84,8.31,4.31,13.25,3.37,5.93-1.13,10.03-4.3,12.67-8.51.4.12.8.25,1.22.35,8.74,2.12,24.06-1.13,28.66-9.7,5.82-10.86-7.86-19.37-16.51-21.98Z"/>
      <path class="cls-1" d="M157.4,50.66c.2,7.95-7.91,10.56-14.43,11.76-4.7.86-9.48.49-13.4-1.72.04.74-.05,1.5-.31,2.26-1.11,3.29-4.55,5.01-7.66,5.89-5.86,1.65-14.26.07-15.9-5.94-1.38,2.07-3.58,3.59-6.23,4.13-4.21.86-8-.96-10.95-3.73.41,12.04-12.66,19.19-24.13,18.01-10.95-1.13-21.99-8.31-23.44-19.17-3.83,5.41-11.5,8.03-17.84,4.93-8.45-4.14-9.7-15.15-5.46-22.7-6.27.59-12.94-4.52-12.14-11.32.87-7.48,10.24-10.96,16.19-7.07.16.1.25.25.26.4.05.41-.36.84-.83.58-4.8-2.69-12.28-.31-13.58,5.46-1.51,6.73,6.33,11.54,12.04,9.43,1.07-.39,1.55,1.01.99,1.71-4.84,6.11-4.6,16.72,2.57,21.12,6.77,4.14,16.81-.43,17.93-8.28.03-.15.05-.3.07-.45.23-1.2,2.29-.92,2.14.29-.01.09-.03.19-.05.29h.01c-5.38,28.37,49.43,29.87,42.46,3.44-.35-1.34,1.37-1.89,2.1-.89,2.19,3,5.07,5.38,8.86,5.74,4.5.43,8.48-2.95,8.38-7.49-.03-1.47,2.23-1.46,2.27,0,.01.43-.02.85-.07,1.27.24.18.41.44.4.79-.3,6.16,5.37,8.44,10.64,7.83,1.95-.23,3.97-.65,5.72-1.57,2.11-1.12,4.47-3.85,3.63-6.26-1.01-.8-1.94-1.75-2.76-2.86-.75-1.02.97-2.32,1.74-1.35,4.08,5.17,10.44,6.1,16.6,4.77,6.9-1.49,13.94-4.94,10.81-13.17-3.65-9.56-16-13.33-24.94-9.48-1.2.52-2.46-.84-1.46-1.88,6.78-7.06-1-16.29-8.93-16.82-6.61-.44-13.58,2.68-17.09,8.3-.09.91-.22,1.82-.41,2.74-.32,1.48-2.61.85-2.28-.63,2.66-12.1-6.29-23.55-18.58-24.14-11.92-.57-28.98,5.87-27.31,20.38.13,1.21-1.83,1.43-2.1.28-1.5-6.38-7.07-11.42-13.85-11.32-6.92.11-11.98,5.75-13.5,12.08-.15.64-1.13.58-1.26.03-.01-.06-.02-.13-.01-.2.81-7.17,6.8-13.22,14.08-13.83,6.11-.5,11.6,2.89,14.62,7.9,2.19-12.79,19.1-18.67,31-17.41,11.11,1.17,19.16,10.48,19.66,21.09,5.07-6.45,14.69-9.42,22.41-6.38,6.63,2.61,10.22,10.41,7.32,16.61,11.12-2.45,25.66,3.8,26,16.55Z"/>
    </g>
  </g>
</svg>