<?xml version="1.0" encoding="UTF-8"?>
<svg id="_圖層_2" data-name="圖層 2" xmlns="http://www.w3.org/2000/svg" viewBox="0 0 112.96 108.15">
  <defs>
    <style>
      .cls-1 {
        fill: #e2c108;
        stroke: #000;
        stroke-miterlimit: 10;
        stroke-width: 2px;
      }

      .cls-2, .cls-3, .cls-4 {
        stroke-width: 0px;
      }

      .cls-3 {
        fill: #3c3c3c;
      }

      .cls-4 {
        fill: #fff;
      }
    </style>
  </defs>
  <g id="_圖層_2-2" data-name=" 圖層 2">
    <path class="cls-4" d="M97.65,25.91h.01c1-3.44.89-6.94-.99-10.15-3.32-5.68-11.06-6.53-16.84-4.92-.59.16-1.17.36-1.74.57-.62-1.07-1.32-2.1-2.11-3.07C70.02,1.09,60.43-.93,51.48.37c-9.98,1.45-19.88,7.12-24.94,15.25-7.16-.9-14.72,1.21-20.8,6.37-6.99,5.94-8.4,16.42.34,21.56,1.47.87,3.06,1.54,4.73,2.06-1.77,6.93-.25,14.47,6.46,18.47,6.67,3.98,14.07,3.22,20.34-.19,1.24,1.79,2.71,3.43,4.34,4.92l-2.43,3.26c-1.02,1.38-1.27,3.18-.66,4.78s2.01,2.77,3.69,3.11l7.96,1.59-11.28,19.05c-1.19,2.02-.83,4.59.88,6.2.96.89,2.18,1.35,3.42,1.35.98,0,1.97-.29,2.82-.87l38.67-26.44c1.59-1.09,2.42-3,2.12-4.9-.3-1.91-1.67-3.47-3.51-4.02l-2.97-.88c3.36-2.24,6.26-5.14,8.35-8.68.67-1.14,1.21-2.3,1.64-3.48.54,0,1.08-.03,1.62-.07,8.51-.68,17.37-6.35,20.04-14.78,3.23-10.18-6.08-16.19-14.66-18.11Z"/>
    <g>
      <path class="cls-3" d="M107.82,36.38h0c-3.84-4.57-9.95-5.66-15.58-6.32,0-.04-.02-.08-.02-.11.13-.05.26-.12.38-.23,4.56-4.42,3.49-12.72-1.51-16.42-5.15-3.82-12.16-1.83-15.94,2.79C72.7,7.12,64.56-.06,54.88.17c-10.4.25-18.91,9.12-19.62,19.25-.05-.05-.1-.1-.17-.14-8.39-4.49-22.43-5.34-26.15,5.82-3.51,10.52,6.31,14.97,15.04,15.39-3.56,2.91-6.76,6.35-7.9,10.92-1.21,4.83.17,10.14,4.57,12.84,4.58,2.81,11.36,3.05,16.03.36,3.73-2.15,6.01-6.04,7.37-10.15,1.47,12.63,12.31,23.39,25.69,22.47,11.3-.77,19.99-12.18,16.32-22.58,7.41,3.55,17.03,2.2,22.21-4.74,3.14-4.19,2.92-9.22-.45-13.23ZM105.09,49.63c-5.75,5.69-15.48,5.52-21.42.31-.97-.85-2.78.29-1.92,1.48,8.02,11.05-2.77,23.91-14.9,23.16-12.78-.78-21.21-12.57-21.38-24.69,0-.22-.08-.37-.18-.49.11-1.19-1.51-1.63-1.92-.44-1.4,3.99-2.21,8.36-5.18,11.58-3.64,3.92-9.73,4.49-14.52,2.53-5.14-2.09-6.76-7.32-4.93-12.37,1.64-4.5,5.64-7.7,9.36-10.42.84-.62.7-2.31-.6-2.21-7.85.64-21.69-3.17-15.63-13.9,4.69-8.3,15.41-6.52,22.67-3.57.34.14.62-.04.77-.31.32.55,1.34.39,1.43-.4,0-.09.02-.18.04-.27,1.12-9.02,8.69-17.08,18.1-17.27,9.37-.18,17.47,7.56,18.59,16.66.12,1,1.56,1.71,2.12.58,2.45-4.98,9.28-8.14,14.15-4.31,4.3,3.38,4.1,9,1.21,13.18-.13.19-.17.39-.16.57-.3.27-.51.77-.51,1.36,0,.45.12.86.32,1.14.1.31.32.58.71.64,3.98.61,8.25,1.06,11.76,3.2,5.5,3.35,6.69,9.65,2.02,14.26ZM105.09,49.63c-5.75,5.69-15.48,5.52-21.42.31-.97-.85-2.78.29-1.92,1.48,8.02,11.05-2.77,23.91-14.9,23.16-12.78-.78-21.21-12.57-21.38-24.69,0-.22-.08-.37-.18-.49.11-1.19-1.51-1.63-1.92-.44-1.4,3.99-2.21,8.36-5.18,11.58-3.64,3.92-9.73,4.49-14.52,2.53-5.14-2.09-6.76-7.32-4.93-12.37,1.64-4.5,5.64-7.7,9.36-10.42.84-.62.7-2.31-.6-2.21-7.85.64-21.69-3.17-15.63-13.9,4.69-8.3,15.41-6.52,22.67-3.57.34.14.62-.04.77-.31.32.55,1.34.39,1.43-.4,0-.09.02-.18.04-.27,1.12-9.02,8.69-17.08,18.1-17.27,9.37-.18,17.47,7.56,18.59,16.66.12,1,1.56,1.71,2.12.58,2.45-4.98,9.28-8.14,14.15-4.31,4.3,3.38,4.1,9,1.21,13.18-.13.19-.17.39-.16.57-.3.27-.51.77-.51,1.36,0,.45.12.86.32,1.14.1.31.32.58.71.64,3.98.61,8.25,1.06,11.76,3.2,5.5,3.35,6.69,9.65,2.02,14.26Z"/>
      <path class="cls-2" d="M107.82,36.38h0c-3.96-4.72-10.35-5.73-16.13-6.38h-.09c-1.22-.13-1.52,1.98-.29,2.17,3.98.61,8.25,1.06,11.76,3.2,5.5,3.35,6.69,9.65,2.02,14.26-5.75,5.69-15.48,5.52-21.42.31-.97-.85-2.78.29-1.92,1.48,8.02,11.05-2.77,23.91-14.9,23.16-12.78-.78-21.21-12.57-21.38-24.69,0-.22-.08-.37-.18-.49.11-1.19-1.51-1.63-1.92-.44-1.4,3.99-2.21,8.36-5.18,11.58-3.64,3.92-9.73,4.49-14.52,2.53-5.14-2.09-6.76-7.32-4.93-12.37,1.64-4.5,5.64-7.7,9.36-10.42.84-.62.7-2.31-.6-2.21-7.85.64-21.69-3.17-15.63-13.9,4.69-8.3,15.41-6.52,22.67-3.57.34.14.62-.04.77-.31.32.55,1.34.39,1.43-.4,0-.09.02-.18.04-.27,1.12-9.02,8.69-17.08,18.1-17.27,9.37-.18,17.47,7.56,18.59,16.66.12,1,1.56,1.71,2.12.58,2.45-4.98,9.28-8.14,14.15-4.31,4.3,3.38,4.1,9,1.21,13.18-.46.68.08,1.39.74,1.53.3.06.64,0,.9-.27,4.56-4.42,3.49-12.72-1.51-16.42-5.15-3.82-12.16-1.83-15.94,2.79C72.7,7.12,64.56-.06,54.88.17c-10.4.25-18.91,9.12-19.62,19.25-.05-.05-.1-.1-.17-.14-8.39-4.49-22.43-5.34-26.15,5.82-3.51,10.52,6.31,14.97,15.04,15.39-3.56,2.91-6.76,6.35-7.9,10.92-1.21,4.83.17,10.14,4.57,12.84,4.58,2.81,11.36,3.05,16.03.36,3.73-2.15,6.01-6.04,7.37-10.15,1.47,12.63,12.31,23.39,25.69,22.47,11.3-.77,19.99-12.18,16.32-22.58,7.41,3.55,17.03,2.2,22.21-4.74,3.14-4.19,2.92-9.22-.45-13.23Z"/>
    </g>
    <polyline class="cls-1" points="57.31 56.55 43.52 75.05 58.4 78.03 43.52 103.15 82.2 76.71 57.74 69.44 62.86 56.24"/>
  </g>
</svg>