<?xml version="1.0" encoding="UTF-8"?>
<svg id="_圖層_2" data-name="圖層 2" xmlns="http://www.w3.org/2000/svg" viewBox="0 0 112.96 76.99">
  <defs>
    <style>
      .cls-1 {
        fill: #543c1a;
      }

      .cls-1, .cls-2 {
        stroke-width: 0px;
      }

      .cls-2 {
        fill: #fff;
      }
    </style>
  </defs>
  <g id="OBJECTS">
    <g>
      <path class="cls-2" d="M97.65,25.91c1-3.44.89-6.94-.99-10.15-3.32-5.68-11.06-6.53-16.84-4.92-.59.16-1.17.36-1.74.57-.62-1.07-1.32-2.1-2.11-3.07C70.01,1.09,60.42-.93,51.47.37c-9.98,1.45-19.88,7.12-24.94,15.25-7.16-.9-14.72,1.21-20.8,6.37-6.99,5.94-8.4,16.42.34,21.56,1.47.87,3.06,1.54,4.73,2.06-1.77,6.93-.25,14.47,6.46,18.47,6.67,3.98,14.07,3.22,20.34-.19,5.85,8.43,16.45,13.81,27.36,12.68,9.52-.99,19.05-5.77,24.04-14.22.67-1.14,1.21-2.3,1.64-3.48.54,0,1.08-.03,1.62-.07,8.51-.68,17.37-6.35,20.04-14.78,3.23-10.18-6.08-16.19-14.66-18.11Z"/>
      <path class="cls-1" d="M107.81,36.38c3.37,4.01,3.59,9.04.45,13.23-5.18,6.94-14.8,8.29-22.21,4.74,3.67,10.4-5.02,21.81-16.32,22.58-13.38.92-24.22-9.84-25.69-22.47-1.36,4.11-3.64,8-7.37,10.15-4.67,2.69-11.45,2.45-16.03-.36-4.4-2.7-5.78-8.01-4.57-12.84,1.14-4.57,4.34-8.01,7.9-10.92-8.73-.42-18.55-4.87-15.04-15.39,3.72-11.16,17.76-10.31,26.15-5.82.07.04.12.09.17.14l1.52.2c-.02.09-.03.18-.04.27-.09.79-1.11.95-1.43.4-.15.27-.43.45-.77.31-7.26-2.95-17.98-4.73-22.67,3.57-6.06,10.73,7.78,14.54,15.63,13.9,1.3-.1,1.44,1.59.6,2.21-3.72,2.72-7.72,5.92-9.36,10.42-1.83,5.05-.21,10.28,4.93,12.37,4.79,1.96,10.88,1.39,14.52-2.53,2.97-3.22,3.78-7.59,5.18-11.58.41-1.19,2.03-.75,1.92.44.1.12.18.27.18.49.17,12.12,8.6,23.91,21.38,24.69,12.13.75,22.92-12.11,14.9-23.16-.86-1.19.95-2.33,1.92-1.48,5.94,5.21,15.67,5.38,21.42-.31,4.67-4.61,3.48-10.91-2.02-14.26-3.51-2.14-7.78-2.59-11.76-3.2-1.23-.19-.93-2.3.29-2.17.03,0,.06,0,.09,0,5.78.65,12.17,1.66,16.13,6.37Z"/>
      <path class="cls-1" d="M91.07,13.3c5,3.7,6.07,12,1.51,16.42-.26.26-.6.33-.9.27-.66-.14-1.2-.85-.74-1.53,2.89-4.18,3.09-9.8-1.21-13.18-4.87-3.83-11.7-.67-14.15,4.31-.56,1.13-2,.42-2.12-.58-1.12-9.1-9.22-16.84-18.59-16.66-9.41.19-16.98,8.25-18.1,17.27l-1.52-.2C35.96,9.29,44.47.42,54.87.17c9.68-.23,17.82,6.95,20.26,15.92,3.78-4.62,10.79-6.61,15.94-2.79Z"/>
    </g>
  </g>
</svg>