<?xml version="1.0" encoding="UTF-8"?>
<svg id="_圖層_2" data-name="圖層 2" xmlns="http://www.w3.org/2000/svg" viewBox="0 0 133.08 81.21">
  <defs>
    <style>
      .cls-1 {
        fill: #543c1a;
      }

      .cls-1, .cls-2 {
        stroke-width: 0px;
      }

      .cls-2 {
        fill: #fff;
      }
    </style>
  </defs>
  <g id="OBJECTS">
    <g>
      <path class="cls-2" d="M118.79,22.28c-5.93-2.72-11.89-3.09-17.74-2.1-.05-.71-.12-1.43-.24-2.16-1.42-8.17-7.97-14.81-15.91-17.03-10.67-2.99-19.49,1.16-26.12,8.17-4.61-3.43-10.71-4.83-17.31-2.5-6.59,2.33-11.83,7.68-13.95,14.2-2.44.02-4.9,1.16-6.48,3.09-8.28-1.92-16.66-.77-20.11,7.86-2.79,6.97.95,14.16,7.33,17.49,1.55.81,3.06,1.28,4.56,1.52-.01.53,0,1.07.03,1.62.44,6.53,4.33,12.66,10.7,14.81,5.22,1.76,9.71,1.07,13.49-1.07.11.14.22.28.33.42,6.54,8.14,16.05,14.58,26.81,14.63,9.88.05,20.02-5.52,23.21-15.25,0-.02.01-.05.02-.08,5.03,1.43,10.29,2.11,15.69,1.87,11.13-.5,23.36-5.49,28.15-16.23,5.2-11.63-1.38-24.17-12.48-29.26Z"/>
      <path class="cls-1" d="M112.07,22.13c8.53,2.06,17.44,7.13,16.53,17.16-.86,9.51-9.29,16.57-17.86,19.3-7.85,2.5-16.37,1.88-23.77-1.45,1.02,2.6,1.07,5.6.18,8.5-1.78,5.85-6.96,9.3-12.79,10.37-9.94,1.82-25.72-2.35-28.99-12.66-4.32,5.7-14.43,6.65-20.85,3.79-8.04-3.58-12.73-14.34-6.61-20.85-4.07.06-8.21-.4-11.5-2.99-3.2-2.53-4.78-6.53-3.23-10.44,3.48-8.75,12.98-7.65,20.49-5.06l-.46,1.41c-5.82-1.86-12.37-2.84-16.64,2.34-3.85,4.66-.52,10.04,4.51,11.71,3.28,1.08,6.9.8,10.29.61,1.16-.07,1.52,1.58.57,2.13-10,5.86-2.16,17.5,6.03,19.89,5.93,1.72,15.08-.3,16.78-6.8.02-.91.13-1.84.33-2.82.28-1.37,2.32-.98,2.35.32.03,1.08-.07,2.08-.29,3.01.14,10.6,14.92,14.84,23.86,14.37,5.1-.27,10.59-2.22,13.04-7.04,2.19-4.29,1.83-9.94-2.39-12.8-1.27-.88-.07-2.97,1.23-2.09,13.05,9.13,37.82,7.6,42.83-10.44,2.87-10.34-6.51-15.34-14.98-17.28-7.7-1.77-17.19-2.82-23.17,3.45-.46.49-1.05.42-1.46.11-.06.08-.13.16-.19.24-.55.65-1.69-.24-1.18-.91,1.14-1.51,2.27-3.15,3.18-4.89l1.71.55c-.1.17-.19.34-.29.5,6.6-4.04,15.38-3.01,22.74-1.24Z"/>
      <path class="cls-1" d="M91.69,12.17c.83,3.82-.24,7.43-2.07,10.7l-1.71-.55c1.56-2.96,2.47-6.2,1.71-9.58-1.25-5.51-6.62-9.37-12.11-9.67-12.09-.65-18.79,11.36-19.9,21.79-.15,1.38-1.86,1.6-2.36.32-2.45-6.19-7.2-14.89-15.31-11.62-5.92,2.38-6.89,10.08-7.64,15.57-.14,1-1.78,1.17-2.18.28-.22-1.35-1.09-1.84-2.61-1.47.87.19.92,1.05.5,1.59,0,0,.02.01.03.01.68.31.18,1.45-.51,1.2-1.36-.51-2.82-1.05-4.32-1.53l.46-1.41.6.21c-.59-1.1-.57-2.46.54-3.52,2.03-1.93,4.15-.68,5.65,1.07,1.2-6.62,3.78-14.03,11.25-15.11,6.99-1.01,11.4,4.62,14.2,10.33,2.64-11.2,11.16-22.4,24.08-19.72,5.51,1.14,10.48,5.5,11.7,11.11Z"/>
    </g>
  </g>
</svg>