<?xml version="1.0" encoding="UTF-8"?>
<svg id="_圖層_2" data-name="圖層 2" xmlns="http://www.w3.org/2000/svg" viewBox="0 0 175.23 186.22">
  <defs>
    <style>
      .cls-1 {
        fill: #e2c108;
        stroke: #000;
        stroke-miterlimit: 10;
        stroke-width: 2px;
      }

      .cls-2, .cls-3, .cls-4 {
        stroke-width: 0px;
      }

      .cls-3 {
        fill: #3c3c3c;
      }

      .cls-4 {
        fill: #fff;
      }
    </style>
  </defs>
  <g id="_圖層_2-2" data-name=" 圖層 2">
    <g>
      <path class="cls-4" d="M172.21,46.02s0,0,0,0c0,0,.01.02.02.03l-.02-.03Z"/>
      <path class="cls-4" d="M172.21,46.02c-1.55-2.5-3.45-4.55-5.61-6.21,2.21-9.37-5.76-14.89-14.26-15.21-.47-.02-.94-.02-1.4,0-.22-3.05-1.67-6.1-4.84-8.98-4.74-4.31-11.84-5.41-17.71-3.06-1.98-3.18-4.95-5.71-8.33-7.47C110.71.22,98.57-.59,88.45,2.01c-9.09,2.34-16.97,8.58-21.74,16.44-3.58-4.66-9.41-7.63-15.47-7.21-4.3.3-8.04,2.04-10.94,4.67-4.75,1.1-9.1,3.97-11.93,8.52-7.75-.52-15.56,1.18-21.95,5.54-4.84,3.3-7.61,8.89-5.93,14.74,1.56,5.46,6.54,9.01,11.59,10.92-.02.05-.05.11-.08.16-3.69,8.29-.91,17.89,8.34,20.77,6.52,2.03,12.95.52,18.45-2.97,1.31,3.65,3.49,7.09,6.81,10.18,3.67,3.41,8.09,6.18,12.86,8.18l-12.83,23.36c-.9,1.64-.81,3.64.23,5.19,1.04,1.55,2.86,2.39,4.71,2.19l42.1-4.68-16.85,60.39c-.67,2.4.53,4.92,2.81,5.92.65.29,1.33.42,2.01.42,1.68,0,3.31-.85,4.25-2.36l56.53-91.07c1.03-1.66,1-3.78-.08-5.4-1.08-1.63-3.02-2.48-4.95-2.17l-15.3,2.44c1.63-.81,3.19-1.84,4.61-3.09,2.4-2.11,4.22-4.48,5.53-7.02,11.15,6.39,26.12,5.86,36.1-2.68,7.97-6.81,10.5-18.25,4.89-27.36ZM96.16,90.14c2.3-1.39,4.43-3.05,6.33-4.98,2.17,1.51,4.55,2.44,6.99,2.86l-13.32,2.12Z"/>
    </g>
    <g>
      <path class="cls-3" d="M164.09,45.8c10.34,3.25,12.12,16.74,4.77,24.69-10.05,10.89-25.73,6.35-36.9-.2.36,6.82-4.9,13.15-11.84,14.24-7.16,1.13-13.91-3.38-17.39-9.43-1.94,14.74-16.89,23.92-31.34,21.75-11.71-1.76-28.76-12.83-27.55-26.13-5.75,5.65-14.57,7.54-21.72,2.3-7.44-5.46-7.69-16.18-1.05-21.9-8.3-1.13-18.35-5.37-13.78-15.56,4.09-9.13,15.84-10.27,23.31-5.03-.86-7.56,4.69-14.77,12.04-16.65,7.73-1.98,15.33,2.11,19.9,8.21C64,7.59,79.68-.09,93.36,0c7.08.05,14.57,2.07,19.68,7.21,5.05,5.08,6.74,12.19,7.85,19.07,2.2-5.8,10.4-9.16,16.16-8.76,8.85.61,9.72,8.1,7.73,14.81,5.24-2.31,11.57-3.13,16.24.77,3.6,3.01,5.44,8.52,3.07,12.7ZM171.28,59.71c.24-5.98-4.05-11.43-10.04-12.19-1.47-.18-1.49-2.5,0-2.33l.6.09c2.09-4.49.26-9.38-4.26-11.56-4.71-2.28-9.96-.56-14.23,1.84-.77.43-2.06-.32-1.66-1.28,2.68-6.34,3.17-15.08-6.29-14.6-5.26.28-13.18,3.68-13.44,9.77-.04.87-1.12,1.01-1.5.44-.58.24-1.29.09-1.42-.71-1.07-6.65-2.12-13.95-6.62-19.28-4.3-5.1-11.08-7.32-17.56-7.63-13.93-.68-31.07,7.13-30.31,23.26.05,1.04-1.47,1.44-1.96.53-3.5-6.56-10.43-11.56-18.15-10.46-7.77,1.1-12.87,8.16-12.36,15.79,0,.12-.02.22-.07.31.19.44-.45.93-.91.57-6.65-5.2-18.27-4.47-21.95,4.07-4.39,10.19,7.71,12.59,14.8,12.96,1.01.05,1.48,1.42.53,1.96-8.26,4.65-7.89,16.11.12,20.82,7.84,4.59,16.83.26,20.91-7.11.68-1.23,2.48-.14,1.87,1.1-7.33,14.79,13.76,27.66,25.88,28.83,13.46,1.31,26.9-8.01,27.52-22.13.02-.44.27-.73.58-.89.13-.47.91-.66,1.19-.15,3.19,5.64,8.34,10.79,15.27,10.83,7.26.04,13.46-7.09,11.53-14.23-.26-.95.83-1.85,1.69-1.3,8.68,5.52,19.29,10.16,29.57,6.2,5.54-2.14,10.42-7.3,10.67-13.52h0ZM171.28,59.71c.24-5.98-4.05-11.43-10.04-12.19-1.47-.18-1.49-2.5,0-2.33l.6.09c2.09-4.49.26-9.38-4.26-11.56-4.71-2.28-9.96-.56-14.23,1.84-.77.43-2.06-.32-1.66-1.28,2.68-6.34,3.17-15.08-6.29-14.6-5.26.28-13.18,3.68-13.44,9.77-.04.87-1.12,1.01-1.5.44-.58.24-1.29.09-1.42-.71-1.07-6.65-2.12-13.95-6.62-19.28-4.3-5.1-11.08-7.32-17.56-7.63-13.93-.68-31.07,7.13-30.31,23.26.05,1.04-1.47,1.44-1.96.53-3.5-6.56-10.43-11.56-18.15-10.46-7.77,1.1-12.87,8.16-12.36,15.79,0,.12-.02.22-.07.31.19.44-.45.93-.91.57-6.65-5.2-18.27-4.47-21.95,4.07-4.39,10.19,7.71,12.59,14.8,12.96,1.01.05,1.48,1.42.53,1.96-8.26,4.65-7.89,16.11.12,20.82,7.84,4.59,16.83.26,20.91-7.11.68-1.23,2.48-.14,1.87,1.1-7.33,14.79,13.76,27.66,25.88,28.83,13.46,1.31,26.9-8.01,27.52-22.13.02-.44.27-.73.58-.89.13-.47.91-.66,1.19-.15,3.19,5.64,8.34,10.79,15.27,10.83,7.26.04,13.46-7.09,11.53-14.23-.26-.95.83-1.85,1.69-1.3,8.68,5.52,19.29,10.16,29.57,6.2,5.54-2.14,10.42-7.3,10.67-13.52h0Z"/>
      <path class="cls-2" d="M164.09,45.8c10.34,3.25,12.12,16.74,4.77,24.69-10.05,10.89-25.73,6.35-36.9-.2.36,6.82-4.9,13.15-11.84,14.24-7.16,1.13-13.91-3.38-17.39-9.43-1.94,14.74-16.89,23.92-31.34,21.75-11.71-1.76-28.76-12.83-27.55-26.13-5.75,5.65-14.57,7.54-21.72,2.3-7.44-5.46-7.69-16.18-1.05-21.9-8.3-1.13-18.35-5.37-13.78-15.56,4.09-9.13,15.84-10.27,23.31-5.03-.86-7.56,4.69-14.77,12.04-16.65,7.73-1.98,15.33,2.11,19.9,8.21C64,7.59,79.68-.09,93.36,0c7.08.05,14.57,2.07,19.68,7.21,5.05,5.08,6.74,12.19,7.85,19.07,2.2-5.8,10.4-9.16,16.16-8.76,8.85.61,9.72,8.1,7.73,14.81,5.24-2.31,11.57-3.13,16.24.77,3.6,3.01,5.44,8.52,3.07,12.7ZM171.28,59.71c.24-5.98-4.05-11.43-10.04-12.19-1.47-.18-1.49-2.5,0-2.33l.6.09c2.09-4.49.26-9.38-4.26-11.56-4.71-2.28-9.96-.56-14.23,1.84-.77.43-2.06-.32-1.66-1.28,2.68-6.34,3.17-15.08-6.29-14.6-5.26.28-13.18,3.68-13.44,9.77-.04.87-1.12,1.01-1.5.44-.58.24-1.29.09-1.42-.71-1.07-6.65-2.12-13.95-6.62-19.28-4.3-5.1-11.08-7.32-17.56-7.63-13.93-.68-31.07,7.13-30.31,23.26.05,1.04-1.47,1.44-1.96.53-3.5-6.56-10.43-11.56-18.15-10.46-7.77,1.1-12.87,8.16-12.36,15.79,0,.12-.02.22-.07.31.19.44-.45.93-.91.57-6.65-5.2-18.27-4.47-21.95,4.07-4.39,10.19,7.71,12.59,14.8,12.96,1.01.05,1.48,1.42.53,1.96-8.26,4.65-7.89,16.11.12,20.82,7.84,4.59,16.83.26,20.91-7.11.68-1.23,2.48-.14,1.87,1.1-7.33,14.79,13.76,27.66,25.88,28.83,13.46,1.31,26.9-8.01,27.52-22.13.02-.44.27-.73.58-.89.13-.47.91-.66,1.19-.15,3.19,5.64,8.34,10.79,15.27,10.83,7.26.04,13.46-7.09,11.53-14.23-.26-.95.83-1.85,1.69-1.3,8.68,5.52,19.29,10.16,29.57,6.2,5.54-2.14,10.42-7.3,10.67-13.52h0Z"/>
    </g>
    <polyline class="cls-1" points="74.52 73.09 50.02 117.72 99.48 112.22 80.64 179.74 137.17 88.67 82.99 97.3 87.97 70.27"/>
  </g>
</svg>