<?xml version="1.0" encoding="UTF-8"?>
<svg id="_圖層_2" data-name="圖層 2" xmlns="http://www.w3.org/2000/svg" viewBox="0 0 100.26 56.87">
  <defs>
    <style>
      .cls-1 {
        fill: #543c1a;
      }

      .cls-1, .cls-2 {
        stroke-width: 0px;
      }

      .cls-2 {
        fill: #fff;
      }
    </style>
  </defs>
  <g id="OBJECTS">
    <g>
      <path class="cls-2" d="M94.12,5.07C87.51-.57,77.75-.77,69.65.95c-4.02.85-7.82,2.49-11.17,4.78-8.33-8.43-19.75-3.21-24.99,5.7-8.77-2.92-18.89-2.02-27.42,1.48C1.42,14.82-.59,18.31.15,23.35c1,6.78,7.87,9.4,13.78,10.21,2.2.3,4.39.51,6.59.65-1.53,5.49-1.05,11.03,3.68,14.85,5.02,4.05,10.37,2.72,15.23-.65.21.28.42.57.65.85,4.96,6.02,13.09,8.81,20.74,7.16,9.09-1.95,14.53-10.17,14.94-18.45.4-.08.79-.14,1.19-.23,7.42-1.63,16.48-4.8,20.84-11.47,4.57-6.99,2.49-15.96-3.67-21.2Z"/>
      <path class="cls-1" d="M85.91,11.39c9.29,11.41-1.81,23.45-14.04,23.36,4.45,6.83-2.89,17.16-10.42,18.84-7.97,1.79-14.68-4.09-16.33-11.29-2.7,4.54-7.55,7.57-13.21,5.4-7.59-2.91-6.24-11.6-3.69-17.69-4.46-.06-9.32-.63-12.13-4.49-1.88-2.59-2.03-5.77-.31-8.49,4.49-7.08,15.24-6.49,21.47-2.13-.03-4.43,2.99-8.73,7.81-8.97,4.26-.2,7.49,3.01,8.44,6.82,7.29-9.88,24.36-11.27,32.41-1.36ZM84.07,27.85c4.42-4.62,3.47-11.82-.86-16.17-8.33-8.37-24.37-5.76-29.58,4.67-.43.86-1.95.48-1.85-.5.97-10.43-14.14-9.77-12.96.38.1.79-1.16.98-1.4.3-5.1-3.05-11.28-4.37-16.76-1.28-4.65,2.62-5.1,8.56-.37,11.18,2.85,1.58,6.43,1.45,9.59,1.42.87-.01,1.28.91.94,1.62-2.45,5.09-4.94,14.66,3.03,16.48,6.36,1.46,10.25-4.55,11.16-9.85.29-1.45,2.44-.82,2.2.6-1.37,6.95,3.72,14.8,11.22,14.9,7.33.09,17.89-11.28,9.65-17.52-1.15-.88-.07-2.85,1.17-1.99.17.13.34.26.5.39.1-.02.19-.06.3-.05,5.04.09,10.37-.76,14.02-4.58Z"/>
    </g>
  </g>
</svg>