<?xml version="1.0" encoding="UTF-8"?>
<svg id="_圖層_2" data-name="圖層 2" xmlns="http://www.w3.org/2000/svg" viewBox="0 0 133.07 146.34">
  <defs>
    <style>
      .cls-1 {
        fill: #e2c108;
        stroke: #000;
        stroke-miterlimit: 10;
        stroke-width: 2px;
      }

      .cls-2, .cls-3, .cls-4 {
        stroke-width: 0px;
      }

      .cls-3 {
        fill: #3c3c3c;
      }

      .cls-4 {
        fill: #fff;
      }
    </style>
  </defs>
  <g id="_圖層_2-2" data-name=" 圖層 2">
    <path class="cls-4" d="M118.78,22.27h.02c-5.93-2.72-11.89-3.09-17.74-2.1-.05-.71-.12-1.43-.24-2.16-1.42-8.17-7.97-14.81-15.91-17.03-10.67-2.99-19.49,1.16-26.12,8.17-4.61-3.43-10.71-4.83-17.31-2.5-6.59,2.33-11.83,7.68-13.95,14.2-2.44.02-4.9,1.16-6.48,3.09-8.28-1.92-16.66-.77-20.11,7.86-2.79,6.97.95,14.16,7.33,17.49,1.55.81,3.06,1.28,4.56,1.52-.01.53,0,1.07.03,1.62.44,6.53,4.33,12.66,10.7,14.81,5.22,1.76,9.71,1.07,13.49-1.07.11.14.22.28.33.42,2.44,3.04,5.3,5.85,8.49,8.17l-9.73,12.25c-1.04,1.3-1.35,3.04-.85,4.63s1.77,2.82,3.37,3.28l22.29,6.47-25.04,37.16c-1.36,2.02-1.07,4.72.68,6.4.96.92,2.21,1.39,3.46,1.39,1.04,0,2.08-.32,2.96-.97l63.33-46.57c1.54-1.13,2.3-3.04,1.96-4.92-.34-1.88-1.72-3.4-3.56-3.92l-33.89-9.57c7.45-1.87,14.08-6.9,16.55-14.42,0-.02.01-.05.02-.08,5.03,1.43,10.29,2.11,15.69,1.87,11.13-.5,23.36-5.49,28.15-16.23,5.2-11.63-1.38-24.17-12.48-29.26Z"/>
    <g>
      <path class="cls-3" d="M112.08,22.12c-7.36-1.77-16.14-2.8-22.74,1.24.1-.16.19-.33.29-.5,1.83-3.27,2.9-6.88,2.07-10.7-1.22-5.61-6.19-9.97-11.7-11.11-12.92-2.68-21.44,8.52-24.08,19.72-2.8-5.71-7.21-11.34-14.2-10.33-7.47,1.08-10.05,8.49-11.25,15.11-1.5-1.75-3.62-3-5.65-1.07-1.11,1.06-1.13,2.42-.54,3.52l-.6-.21c-7.51-2.59-17.01-3.69-20.49,5.06-1.55,3.91.03,7.91,3.23,10.44,3.29,2.59,7.43,3.05,11.5,2.99-6.12,6.51-1.43,17.27,6.61,20.85,6.42,2.86,16.53,1.91,20.85-3.79,3.27,10.31,19.05,14.48,28.99,12.66,5.83-1.07,11.01-4.52,12.79-10.37.89-2.9.84-5.9-.18-8.5,7.4,3.33,15.92,3.95,23.77,1.45,8.57-2.73,17-9.79,17.86-19.3.91-10.03-8-15.1-16.53-17.16ZM125.72,41.59c-5.01,18.04-29.78,19.57-42.83,10.44-1.3-.88-2.5,1.21-1.23,2.09,4.22,2.86,4.58,8.51,2.39,12.8-2.45,4.82-7.94,6.77-13.04,7.04-8.94.47-23.72-3.77-23.86-14.37.22-.93.32-1.93.29-3.01-.03-1.3-2.07-1.69-2.35-.32-.2.98-.31,1.91-.33,2.82-1.7,6.5-10.85,8.52-16.78,6.8-8.19-2.39-16.03-14.03-6.03-19.89.95-.55.59-2.2-.57-2.13-3.39.19-7.01.47-10.29-.61-5.03-1.67-8.36-7.05-4.51-11.71,4.27-5.18,10.82-4.2,16.64-2.34h0c1.5.48,2.96,1.02,4.32,1.53.69.25,1.19-.89.51-1.2-.01,0-.03-.01-.03-.01.42-.54.37-1.4-.5-1.59,1.52-.37,2.39.12,2.61,1.47.4.89,2.04.72,2.18-.28.75-5.49,1.72-13.19,7.64-15.57,8.11-3.27,12.86,5.43,15.31,11.62.5,1.28,2.21,1.06,2.36-.32,1.11-10.43,7.81-22.44,19.9-21.79,5.49.3,10.86,4.16,12.11,9.67.76,3.38-.15,6.62-1.71,9.58-.91,1.74-2.04,3.38-3.18,4.89-.51.67.63,1.56,1.18.91.06-.08.13-.16.19-.24.41.31,1,.38,1.46-.11,5.98-6.27,15.47-5.22,23.17-3.45,8.47,1.94,17.85,6.94,14.98,17.28ZM125.72,41.59c-5.01,18.04-29.78,19.57-42.83,10.44-1.3-.88-2.5,1.21-1.23,2.09,4.22,2.86,4.58,8.51,2.39,12.8-2.45,4.82-7.94,6.77-13.04,7.04-8.94.47-23.72-3.77-23.86-14.37.22-.93.32-1.93.29-3.01-.03-1.3-2.07-1.69-2.35-.32-.2.98-.31,1.91-.33,2.82-1.7,6.5-10.85,8.52-16.78,6.8-8.19-2.39-16.03-14.03-6.03-19.89.95-.55.59-2.2-.57-2.13-3.39.19-7.01.47-10.29-.61-5.03-1.67-8.36-7.05-4.51-11.71,4.27-5.18,10.82-4.2,16.64-2.34h0c1.5.48,2.96,1.02,4.32,1.53.69.25,1.19-.89.51-1.2-.01,0-.03-.01-.03-.01.42-.54.37-1.4-.5-1.59,1.52-.37,2.39.12,2.61,1.47.4.89,2.04.72,2.18-.28.75-5.49,1.72-13.19,7.64-15.57,8.11-3.27,12.86,5.43,15.31,11.62.5,1.28,2.21,1.06,2.36-.32,1.11-10.43,7.81-22.44,19.9-21.79,5.49.3,10.86,4.16,12.11,9.67.76,3.38-.15,6.62-1.71,9.58-.91,1.74-2.04,3.38-3.18,4.89-.51.67.63,1.56,1.18.91.06-.08.13-.16.19-.24.41.31,1,.38,1.46-.11,5.98-6.27,15.47-5.22,23.17-3.45,8.47,1.94,17.85,6.94,14.98,17.28Z"/>
      <path class="cls-2" d="M112.08,22.12c-7.36-1.77-16.14-2.8-22.74,1.24.1-.16.19-.33.29-.5,1.83-3.27,2.9-6.88,2.07-10.7-1.22-5.61-6.19-9.97-11.7-11.11-12.92-2.68-21.44,8.52-24.08,19.72-2.8-5.71-7.21-11.34-14.2-10.33-7.47,1.08-10.05,8.49-11.25,15.11-1.5-1.75-3.62-3-5.65-1.07-1.11,1.06-1.13,2.42-.54,3.52l-.6-.21c-7.51-2.59-17.01-3.69-20.49,5.06-1.55,3.91.03,7.91,3.23,10.44,3.29,2.59,7.43,3.05,11.5,2.99-6.12,6.51-1.43,17.27,6.61,20.85,6.42,2.86,16.53,1.91,20.85-3.79,3.27,10.31,19.05,14.48,28.99,12.66,5.83-1.07,11.01-4.52,12.79-10.37.89-2.9.84-5.9-.18-8.5,7.4,3.33,15.92,3.95,23.77,1.45,8.57-2.73,17-9.79,17.86-19.3.91-10.03-8-15.1-16.53-17.16ZM125.72,41.59c-5.01,18.04-29.78,19.57-42.83,10.44-1.3-.88-2.5,1.21-1.23,2.09,4.22,2.86,4.58,8.51,2.39,12.8-2.45,4.82-7.94,6.77-13.04,7.04-8.94.47-23.72-3.77-23.86-14.37.22-.93.32-1.93.29-3.01-.03-1.3-2.07-1.69-2.35-.32-.2.98-.31,1.91-.33,2.82-1.7,6.5-10.85,8.52-16.78,6.8-8.19-2.39-16.03-14.03-6.03-19.89.95-.55.59-2.2-.57-2.13-3.39.19-7.01.47-10.29-.61-5.03-1.67-8.36-7.05-4.51-11.71,4.27-5.18,10.82-4.2,16.64-2.34h0c1.5.48,2.96,1.02,4.32,1.53.69.25,1.19-.89.51-1.2-.01,0-.03-.01-.03-.01.42-.54.37-1.4-.5-1.59,1.52-.37,2.39.12,2.61,1.47.4.89,2.04.72,2.18-.28.75-5.49,1.72-13.19,7.64-15.57,8.11-3.27,12.86,5.43,15.31,11.62.5,1.28,2.21,1.06,2.36-.32,1.11-10.43,7.81-22.44,19.9-21.79,5.49.3,10.86,4.16,12.11,9.67.76,3.38-.15,6.62-1.71,9.58-.91,1.74-2.04,3.38-3.18,4.89-.51.67.63,1.56,1.18.91.06-.08.13-.16.19-.24.41.31,1,.38,1.46-.11,5.98-6.27,15.47-5.22,23.17-3.45,8.47,1.94,17.85,6.94,14.98,17.28Z"/>
    </g>
    <polyline class="cls-1" points="63.63 60.43 40.05 90.12 68.92 98.5 40.05 141.34 103.38 94.78 63.8 83.6 72.63 61.39"/>
  </g>
</svg>