<?xml version="1.0" encoding="UTF-8"?>
<svg id="_圖層_2" data-name="圖層 2" xmlns="http://www.w3.org/2000/svg" viewBox="0 0 100.95 86.91">
  <defs>
    <style>
      .cls-1 {
        fill: #e2c108;
        stroke: #000;
        stroke-miterlimit: 10;
        stroke-width: 2px;
      }

      .cls-2, .cls-3, .cls-4 {
        stroke-width: 0px;
      }

      .cls-3 {
        fill: #3c3c3c;
      }

      .cls-4 {
        fill: #fff;
      }
    </style>
  </defs>
  <g id="_圖層_2-2" data-name=" 圖層 2">
    <g>
      <path class="cls-4" d="M97.62,48.68c5.59-8.41,4.01-19.52-3.83-25.84v-.02c-3.46-2.79-7.32-4.44-11.38-5.36,1.06-4.74-.14-9.41-4.96-12.75-11.56-8.02-28.74-5.4-37.73,5.25-1.17,1.39-2.21,2.86-3.11,4.39-1.59-1.46-3.52-2.44-5.92-2.46-2.79-.03-5.31,1.17-6.98,3.17-1.16-.29-2.32-.57-3.48-.86-6.35-1.61-14.03-2.28-18.14,4.08-4.62,7.15-.99,12.76,5.1,16.46-4.08,5.1-5.96,11.1-2.35,17.11.77,1.29,1.63,2.34,2.55,3.23-.05.62.02,1.25.21,1.86.51,1.66,1.85,2.93,3.54,3.37l7.73,1.98-3.32,8.29c-.92,2.3-.01,4.93,2.13,6.18.79.46,1.65.68,2.51.68,1.48,0,2.94-.66,3.92-1.89l8.32-10.45c4.49,2.99,10.01,4.38,16.1,3.19,4.78-.94,8.68-3.29,11.57-6.44.63.64,1.42,1.12,2.32,1.35l12.14,3.11-5.12,12.81c-.92,2.3-.01,4.93,2.13,6.18.79.46,1.65.68,2.51.68,1.48,0,2.94-.66,3.92-1.89l17.64-22.17c.98-1.24,1.33-2.87.92-4.4-.41-1.53-1.51-2.77-2.98-3.36l-.79-.31c1.82-1.41,3.46-3.1,4.83-5.16Z"/>
      <g>
        <path class="cls-3" d="M92.75,24.07c4.91,4.43,6.93,11.3,3.58,17.28-5.94,10.59-23.24,13.36-33.32,6.64.95,6.91-6.15,13.62-13.54,14.46-8.77,1-17.81-3.17-19.9-11.05-3.85,5.02-12.16,6.44-18.1,3.52-3.6-1.77-5.96-5.08-5.51-9.2.54-4.89,4.33-8.11,8.19-10.69-4.97-2.64-10.01-7.12-6.51-13.16,3.26-5.65,9.74-5.59,14.82-2.96.63-3.85,3.92-7.04,7.86-7.57,3.99-.54,7.38,2.02,9.28,5.35C39.92,6.79,50.9-.29,60.48,0c10.01.33,14.52,10.78,10,18.55,7.83-.36,16.18.01,22.27,5.5h0ZM94.22,40.12c3.72-6.7-1-13.92-7.21-16.9-5.88-2.82-12.76-2.37-19.09-2-1.15.07-1.58-1.39-.89-2.15,3.33-3.65,4.04-8.73.97-12.76-3.11-4.06-7.88-4.36-12.54-3.21-7.58,1.89-14.65,7.79-13.34,16.29.22,1.44-1.94,2.1-2.24.61,0-.07-.02-.13-.03-.21-.08-.04-.16-.09-.21-.17-2.06-2.82-4.35-6.48-8.36-6.29-3.67.17-6.53,3.28-6.81,6.81.15.11.31.21.46.32.69.53.07,1.71-.7,1.21-.15-.1-.31-.19-.46-.28-.55.19-1.25-.07-1.38-.76-4.4-2.16-10.34-2.79-12.99,2.27-3.09,5.89,3.27,9.17,7.48,11.07.78.36.62,1.47,0,1.87-2.75,1.75-5.73,3.61-7.44,6.49-2.63,4.45-.78,8.93,3.66,10.85,5.77,2.51,14.28.39,16.03-5.83.04-.94.15-1.92.37-2.94.27-1.27,2.15-.91,2.18.3.03,1.12-.1,2.16-.36,3.12-.07,8.35,8.2,12.86,16.35,12.55,8-.31,18.24-9.07,10.55-16.85-1.03-1.04.58-2.66,1.61-1.61,1.01,1.03,1.77,2.1,2.29,3.18,8.89,7.45,26.47,5.14,32.1-4.98ZM94.22,40.12c3.72-6.7-1-13.92-7.21-16.9-5.88-2.82-12.76-2.37-19.09-2-1.15.07-1.58-1.39-.89-2.15,3.33-3.65,4.04-8.73.97-12.76-3.11-4.06-7.88-4.36-12.54-3.21-7.58,1.89-14.65,7.79-13.34,16.29.22,1.44-1.94,2.1-2.24.61,0-.07-.02-.13-.03-.21-.08-.04-.16-.09-.21-.17-2.06-2.82-4.35-6.48-8.36-6.29-3.67.17-6.53,3.28-6.81,6.81.15.11.31.21.46.32.69.53.07,1.71-.7,1.21-.15-.1-.31-.19-.46-.28-.55.19-1.25-.07-1.38-.76-4.4-2.16-10.34-2.79-12.99,2.27-3.09,5.89,3.27,9.17,7.48,11.07.78.36.62,1.47,0,1.87-2.75,1.75-5.73,3.61-7.44,6.49-2.63,4.45-.78,8.93,3.66,10.85,5.77,2.51,14.28.39,16.03-5.83.04-.94.15-1.92.37-2.94.27-1.27,2.15-.91,2.18.3.03,1.12-.1,2.16-.36,3.12-.07,8.35,8.2,12.86,16.35,12.55,8-.31,18.24-9.07,10.55-16.85-1.03-1.04.58-2.66,1.61-1.61,1.01,1.03,1.77,2.1,2.29,3.18,8.89,7.45,26.47,5.14,32.1-4.98Z"/>
        <path class="cls-2" d="M92.75,24.07c4.91,4.43,6.93,11.3,3.58,17.28-5.94,10.59-23.24,13.36-33.32,6.64.95,6.91-6.15,13.62-13.54,14.46-8.77,1-17.81-3.17-19.9-11.05-3.85,5.02-12.16,6.44-18.1,3.52-3.6-1.77-5.96-5.08-5.51-9.2.54-4.89,4.33-8.11,8.19-10.69-4.97-2.64-10.01-7.12-6.51-13.16,3.26-5.65,9.74-5.59,14.82-2.96.63-3.85,3.92-7.04,7.86-7.57,3.99-.54,7.38,2.02,9.28,5.35C39.92,6.79,50.9-.29,60.48,0c10.01.33,14.52,10.78,10,18.55,7.83-.36,16.18.01,22.27,5.5h0ZM94.22,40.12c3.72-6.7-1-13.92-7.21-16.9-5.88-2.82-12.76-2.37-19.09-2-1.15.07-1.58-1.39-.89-2.15,3.33-3.65,4.04-8.73.97-12.76-3.11-4.06-7.88-4.36-12.54-3.21-7.58,1.89-14.65,7.79-13.34,16.29.22,1.44-1.94,2.1-2.24.61,0-.07-.02-.13-.03-.21-.08-.04-.16-.09-.21-.17-2.06-2.82-4.35-6.48-8.36-6.29-3.67.17-6.53,3.28-6.81,6.81.15.11.31.21.46.32.69.53.07,1.71-.7,1.21-.15-.1-.31-.19-.46-.28-.55.19-1.25-.07-1.38-.76-4.4-2.16-10.34-2.79-12.99,2.27-3.09,5.89,3.27,9.17,7.48,11.07.78.36.62,1.47,0,1.87-2.75,1.75-5.73,3.61-7.44,6.49-2.63,4.45-.78,8.93,3.66,10.85,5.77,2.51,14.28.39,16.03-5.83.04-.94.15-1.92.37-2.94.27-1.27,2.15-.91,2.18.3.03,1.12-.1,2.16-.36,3.12-.07,8.35,8.2,12.86,16.35,12.55,8-.31,18.24-9.07,10.55-16.85-1.03-1.04.58-2.66,1.61-1.61,1.01,1.03,1.77,2.1,2.29,3.18,8.89,7.45,26.47,5.14,32.1-4.98Z"/>
      </g>
      <g>
        <polyline class="cls-1" points="79.27 40.53 63.66 58.35 81.32 62.87 74.08 80.96 91.72 58.8 79.27 53.82 86.3 39.82"/>
        <polyline class="cls-1" points="21.5 45.05 12.37 55.46 25.62 58.86 20.19 72.43 33.43 55.8 24.09 52.07 27.17 45.94"/>
      </g>
    </g>
  </g>
</svg>