<?xml version="1.0" encoding="UTF-8"?>
<svg id="_圖層_2" data-name="圖層 2" xmlns="http://www.w3.org/2000/svg" viewBox="0 0 163.77 169.94">
  <defs>
    <style>
      .cls-1 {
        fill: #e2c108;
        stroke: #000;
        stroke-miterlimit: 10;
        stroke-width: 2px;
      }

      .cls-2, .cls-3, .cls-4 {
        stroke-width: 0px;
      }

      .cls-3 {
        fill: #3c3c3c;
      }

      .cls-4 {
        fill: #fff;
      }
    </style>
  </defs>
  <g id="_圖層_2-2" data-name=" 圖層 2">
    <path class="cls-4" d="M145.86,29.98h-.02c-3.11-.94-6.32-1.42-9.53-1.47-1.48-7.95-8.17-12.76-16.32-12.35-5.28.26-10.82,1.31-15.59,3.76-1.17-7.35-6.52-13.54-13.39-16.87-14.39-6.96-31.04-1.35-41.16,10-4.91-2.07-10.59-2.51-15.81-.59-4.98,1.84-8.93,5.34-11.37,9.78-2.87-1.04-5.84-1.64-9.02-1.31-5.79.61-11.51,4.11-13.13,10-2.24,8.13,3.1,12.33,9.87,14.02-1.87,5.89-1.61,12.04,3.28,17.46,5.64,6.25,14.84,7.11,22.26,3.93.93,4.2,3,7.55,5.83,10.11l-2.21,2.14c-1.22,1.19-1.76,2.91-1.42,4.58.34,1.67,1.5,3.05,3.09,3.67l27.11,10.53-51.35,64.48c-1.56,1.99-1.38,4.84.41,6.63.97.96,2.25,1.46,3.53,1.46,1.09,0,2.19-.36,3.1-1.08l101.4-81c1.56-1.24,2.24-3.28,1.73-5.2s-2.11-3.36-4.08-3.66l-34.73-5.27c.95-.86,1.84-1.78,2.63-2.74.58-.71,1.1-1.47,1.6-2.24,4.73.69,9.73-.16,14.01-2.29,3.58,2.84,8.31,4.31,13.25,3.37,5.93-1.13,10.03-4.3,12.67-8.51.4.12.8.25,1.22.35,8.74,2.12,24.06-1.13,28.66-9.7,5.82-10.86-7.86-19.37-16.51-21.98Z"/>
    <path class="cls-3" d="M131.4,34.1c2.9-6.2-.69-14-7.32-16.61-7.72-3.04-17.34-.07-22.41,6.38-.5-10.61-8.55-19.92-19.66-21.09-11.9-1.26-28.81,4.62-31,17.41-3.02-5.01-8.51-8.4-14.62-7.9-6.86.57-12.57,5.98-13.88,12.6,0,0,0-.02,0-.02,0,0-.09.26-.08.52-.03.17-.06.34-.08.51-.05.1-.11.17-.19.2-.06.02-.11,0-.33-.07-.04-.01-.06-.02-.1-.03-.01,0-.02-.02-.03-.03-5.95-3.89-15.32-.41-16.19,7.07-.8,6.8,5.87,11.91,12.14,11.32-4.24,7.55-2.99,18.56,5.46,22.7,6.34,3.1,14.01.48,17.84-4.93,1.45,10.86,12.49,18.04,23.44,19.17,11.47,1.18,24.54-5.97,24.13-18.01,2.95,2.77,6.74,4.59,10.95,3.73,2.65-.54,4.85-2.06,6.23-4.13,1.64,6.01,10.04,7.59,15.9,5.94,3.11-.88,6.55-2.6,7.66-5.89.26-.76.35-1.52.31-2.26,3.92,2.21,8.7,2.58,13.4,1.72,6.52-1.2,14.63-3.81,14.43-11.76-.34-12.75-14.88-19-26-16.55ZM143.22,59.95c-6.16,1.33-12.52.4-16.6-4.77-.77-.97-2.49.33-1.74,1.35.82,1.11,1.75,2.06,2.76,2.86.84,2.41-1.52,5.14-3.63,6.26-1.75.92-3.77,1.34-5.72,1.57-5.27.61-10.94-1.67-10.64-7.83,0-.35-.16-.61-.4-.79.05-.42.08-.84.07-1.27-.04-1.46-2.3-1.47-2.27,0,.1,4.54-3.88,7.92-8.38,7.49-3.79-.36-6.67-2.74-8.86-5.74-.73-1-2.45-.45-2.1.89,6.97,26.43-47.84,24.93-42.46-3.44h-.01c.02-.1.04-.2.05-.29.15-1.21-1.91-1.49-2.14-.29-.02.15-.04.3-.07.45-1.12,7.85-11.16,12.42-17.93,8.28-7.17-4.4-7.41-15.01-2.57-21.12.56-.7.08-2.1-.99-1.71-5.71,2.11-13.55-2.7-12.04-9.43,1.3-5.77,8.78-8.15,13.58-5.46.06.03.12.06.18.07,0,0,0,0,0,0,.34.19.66.2.87.21.33,0,.67,0,.95-.21.21-.16.35-.42.41-.65.01-.03.03-.05.03-.08,1.52-6.33,6.58-11.97,13.5-12.08,6.78-.1,12.35,4.94,13.85,11.32.27,1.15,2.23.93,2.1-.28-1.67-14.51,15.39-20.95,27.31-20.38,12.29.59,21.24,12.04,18.58,24.14-.33,1.48,1.96,2.11,2.28.63.19-.92.32-1.83.41-2.74,3.51-5.62,10.48-8.74,17.09-8.3,7.93.53,15.71,9.76,8.93,16.82-1,1.04.26,2.4,1.46,1.88,8.94-3.85,21.29-.08,24.94,9.48,3.13,8.23-3.91,11.68-10.81,13.17ZM143.22,59.95c-6.16,1.33-12.52.4-16.6-4.77-.77-.97-2.49.33-1.74,1.35.82,1.11,1.75,2.06,2.76,2.86.84,2.41-1.52,5.14-3.63,6.26-1.75.92-3.77,1.34-5.72,1.57-5.27.61-10.94-1.67-10.64-7.83,0-.35-.16-.61-.4-.79.05-.42.08-.84.07-1.27-.04-1.46-2.3-1.47-2.27,0,.1,4.54-3.88,7.92-8.38,7.49-3.79-.36-6.67-2.74-8.86-5.74-.73-1-2.45-.45-2.1.89,6.97,26.43-47.84,24.93-42.46-3.44h-.01c.02-.1.04-.2.05-.29.15-1.21-1.91-1.49-2.14-.29-.02.15-.04.3-.07.45-1.12,7.85-11.16,12.42-17.93,8.28-7.17-4.4-7.41-15.01-2.57-21.12.56-.7.08-2.1-.99-1.71-5.71,2.11-13.55-2.7-12.04-9.43,1.3-5.77,8.78-8.15,13.58-5.46.06.03.12.06.18.07,0,0,0,0,0,0,.34.19.66.2.87.21.33,0,.67,0,.95-.21.21-.16.35-.42.41-.65.01-.03.03-.05.03-.08,1.52-6.33,6.58-11.97,13.5-12.08,6.78-.1,12.35,4.94,13.85,11.32.27,1.15,2.23.93,2.1-.28-1.67-14.51,15.39-20.95,27.31-20.38,12.29.59,21.24,12.04,18.58,24.14-.33,1.48,1.96,2.11,2.28.63.19-.92.32-1.83.41-2.74,3.51-5.62,10.48-8.74,17.09-8.3,7.93.53,15.71,9.76,8.93,16.82-1,1.04.26,2.4,1.46,1.88,8.94-3.85,21.29-.08,24.94,9.48,3.13,8.23-3.91,11.68-10.81,13.17Z"/>
    <path class="cls-2" d="M157.4,50.65c.2,7.95-7.91,10.56-14.43,11.76-4.7.86-9.48.49-13.4-1.72.04.74-.05,1.5-.31,2.26-1.11,3.29-4.55,5.01-7.66,5.89-5.86,1.65-14.26.07-15.9-5.94-1.38,2.07-3.58,3.59-6.23,4.13-4.21.86-8-.96-10.95-3.73.41,12.04-12.66,19.19-24.13,18.01-10.95-1.13-21.99-8.31-23.44-19.17-3.83,5.41-11.5,8.03-17.84,4.93-8.45-4.14-9.7-15.15-5.46-22.7-6.27.59-12.94-4.52-12.14-11.32.87-7.48,10.24-10.96,16.19-7.07.16.1.25.25.26.4.05.41-.36.84-.83.58-4.8-2.69-12.28-.31-13.58,5.46-1.51,6.73,6.33,11.54,12.04,9.43,1.07-.39,1.55,1.01.99,1.71-4.84,6.11-4.6,16.72,2.57,21.12,6.77,4.14,16.81-.43,17.93-8.28.03-.15.05-.3.07-.45.23-1.2,2.29-.92,2.14.29,0,.09-.03.19-.05.29h0c-5.38,28.37,49.43,29.87,42.46,3.44-.35-1.34,1.37-1.89,2.1-.89,2.19,3,5.07,5.38,8.86,5.74,4.5.43,8.48-2.95,8.38-7.49-.03-1.47,2.23-1.46,2.27,0,.01.43-.02.85-.07,1.27.24.18.41.44.4.79-.3,6.16,5.37,8.44,10.64,7.83,1.95-.23,3.97-.65,5.72-1.57,2.11-1.12,4.47-3.85,3.63-6.26-1.01-.8-1.94-1.75-2.76-2.86-.75-1.02.97-2.32,1.74-1.35,4.08,5.17,10.44,6.1,16.6,4.77,6.9-1.49,13.94-4.94,10.81-13.17-3.65-9.56-16-13.33-24.94-9.48-1.2.52-2.46-.84-1.46-1.88,6.78-7.06-1-16.29-8.93-16.82-6.61-.44-13.58,2.68-17.09,8.3-.09.91-.22,1.82-.41,2.74-.32,1.48-2.61.85-2.28-.63,2.66-12.1-6.29-23.55-18.58-24.14-11.92-.57-28.98,5.87-27.31,20.38.13,1.21-1.83,1.43-2.1.28-1.5-6.38-7.07-11.42-13.85-11.32-6.92.11-11.98,5.75-13.5,12.08-.15.64-1.13.58-1.26.03-.01-.06-.02-.13-.01-.2.81-7.17,6.8-13.22,14.08-13.83,6.11-.5,11.6,2.89,14.62,7.9,2.19-12.79,19.1-18.67,31-17.41,11.11,1.17,19.16,10.48,19.66,21.09,5.07-6.45,14.69-9.42,22.41-6.38,6.63,2.61,10.22,10.41,7.32,16.61,11.12-2.45,25.66,3.8,26,16.55Z"/>
    <path class="cls-1" d="M69.3,56.71l-26.27,25.48,33.39,12.96-51.45,65.75,97.34-76.96-52.96-8.04,11.92-18.86"/>
  </g>
</svg>