<?xml version="1.0" encoding="UTF-8"?>
<svg id="_圖層_2" data-name="圖層 2" xmlns="http://www.w3.org/2000/svg" viewBox="0 0 197.05 105.04">
  <defs>
    <style>
      .cls-1 {
        fill: none;
        stroke: #e83331;
        stroke-linecap: round;
        stroke-linejoin: round;
        stroke-width: 2.4px;
      }
    </style>
  </defs>
  <g id="svg5364">
    <g id="layer1">
      <path id="path12" class="cls-1" d="m1.55,17.3c-.2,10,1.6,20,.7,29.9-.2,6.5-.3,13,.1,19.5,0,10.2-.5,19.5.1,29.7,2.6,4.6,8.1,6.1,12.8,6.6,3.6-.1,7.3-.6,10.9,0,5.4.6,11.2,1.2,16.6.6,6.7-.4,11-.1,17.7,0,.9-.1,4.5-.3,5.7-.4"/>
      <path id="path14" class="cls-1" d="m65.55,103.2c11.4-.5,22.9-.2,34.3-.3,11.3-.6,22.6.8,33.8-.4,10.7-.8,21.4.1,32.1-.4,5.7-.6,11.5.1,17.3-.4,5.5-.3,9.5-.1,10.5-4.8.3-3.8.4-7.7,1-11.5"/>
      <path id="path16" class="cls-1" d="m194.55,85.1c.4-5.6.5-11.2,1.1-16.8.6-8.5-.3-17-.6-25.5-.5-10.8-.9-21.6-.7-32.5,1.3-5.9-3.5-10.3-9.3-8.8-6.5.4-13.1.8-19.6,1.2-4.8.7-9.6-.1-14.4.3-5.2-.4-10.5-1.3-15.7-.1-8.5.5-17.1-.8-25.6-.3-6.8.1-13.7.7-20.5,0h-4"/>
      <path id="path18" class="cls-1" d="m85.15,2.7c-6.6,0-13.3,0-19.9-1-9.3-.7-18.5,1.1-27.7,1.1-6.5.2-13,0-19.5-.3-4.8-.3-9.6-1-14.4-.9C.65,3.1,1.25,7.1,1.25,9.9c.1,2.4.2,4.7.3,7.1"/>
    </g>
  </g>
</svg>