<?xml version="1.0" encoding="utf-8"?>
<!-- Generator: Adobe Illustrator 28.0.0, SVG Export Plug-In . SVG Version: 6.00 Build 0)  -->
<svg version="1.1"
	 id="svg5364" xmlns:cc="http://creativecommons.org/ns#" xmlns:inkscape="http://www.inkscape.org/namespaces/inkscape" xmlns:rdf="http://www.w3.org/1999/02/22-rdf-syntax-ns#" xmlns:sodipodi="http://sodipodi.sourceforge.net/DTD/sodipodi-0.dtd" xmlns:dc="http://purl.org/dc/elements/1.1/" xmlns:svg="http://www.w3.org/2000/svg" inkscape:version="0.91 r13725" sodipodi:docname="border.svg"
	 xmlns="http://www.w3.org/2000/svg" xmlns:xlink="http://www.w3.org/1999/xlink" x="0px" y="0px" viewBox="0 0 197.4 105.1"
	 style="enable-background:new 0 0 197.4 105.1;" xml:space="preserve">
<style type="text/css">
	.st0{fill:none;stroke:#543C1A;stroke-width:2.4;stroke-linecap:round;stroke-linejoin:round;stroke-miterlimit:8;}
</style>
<sodipodi:namedview  bordercolor="#666666" borderopacity="1.0" fit-margin-bottom="0" fit-margin-left="0" fit-margin-right="0" fit-margin-top="0" id="base" inkscape:current-layer="layer1" inkscape:cx="132.63492" inkscape:cy="93.634247" inkscape:document-units="px" inkscape:pageopacity="0.0" inkscape:pageshadow="2" inkscape:window-height="1080" inkscape:window-maximized="1" inkscape:window-width="1920" inkscape:window-x="0" inkscape:window-y="0" inkscape:zoom="2.8" pagecolor="#ffffff" showgrid="false">
	</sodipodi:namedview>
<g id="layer1" transform="translate(0,-921.01239)" inkscape:groupmode="layer" inkscape:label="Layer 1">
	<path id="path12" inkscape:connector-curvature="0" sodipodi:nodetypes="ccccccccc" class="st0" d="M1.7,938.3
		c-0.2,10,1.6,20,0.7,29.9c-0.2,6.5-0.3,13,0.1,19.5c0,10.2-0.5,19.5,0.1,29.7c2.6,4.6,8.1,6.1,12.8,6.6c3.6-0.1,7.3-0.6,10.9,0
		c5.4,0.6,11.2,1.2,16.6,0.6c6.7-0.4,11-0.1,17.7,0c0.9-0.1,4.5-0.3,5.7-0.4"/>
	<path id="path14" inkscape:connector-curvature="0" sodipodi:nodetypes="ccccccc" class="st0" d="M65.7,1024.2
		c11.4-0.5,22.9-0.2,34.3-0.3c11.3-0.6,22.6,0.8,33.8-0.4c10.7-0.8,21.4,0.1,32.1-0.4c5.7-0.6,11.5,0.1,17.3-0.4
		c5.5-0.3,9.5-0.1,10.5-4.8c0.3-3.8,0.4-7.7,1-11.5"/>
	<path id="path16" inkscape:connector-curvature="0" class="st0" d="M194.7,1006.1c0.4-5.6,0.5-11.2,1.1-16.8
		c0.6-8.5-0.3-17-0.6-25.5c-0.5-10.8-0.9-21.6-0.7-32.5c1.3-5.9-3.5-10.3-9.3-8.8c-6.5,0.4-13.1,0.8-19.6,1.2
		c-4.8,0.7-9.6-0.1-14.4,0.3c-5.2-0.4-10.5-1.3-15.7-0.1c-8.5,0.5-17.1-0.8-25.6-0.3c-6.8,0.1-13.7,0.7-20.5,0c-1.3,0-2.7,0-4,0"/>
	<path id="path18" inkscape:connector-curvature="0" class="st0" d="M85.3,923.7c-6.6,0-13.3,0-19.9-1c-9.3-0.7-18.5,1.1-27.7,1.1
		c-6.5,0.2-13,0-19.5-0.3c-4.8-0.3-9.6-1-14.4-0.9c-3,1.5-2.4,5.5-2.4,8.3c0.1,2.4,0.2,4.7,0.3,7.1"/>
</g>
</svg>
