<?xml version="1.0" encoding="utf-8"?>
<!-- Generator: Adobe Illustrator 28.0.0, SVG Export Plug-In . SVG Version: 6.00 Build 0)  -->
<svg version="1.1"
	 id="svg6626" xmlns:cc="http://creativecommons.org/ns#" xmlns:inkscape="http://www.inkscape.org/namespaces/inkscape" xmlns:rdf="http://www.w3.org/1999/02/22-rdf-syntax-ns#" xmlns:sodipodi="http://sodipodi.sourceforge.net/DTD/sodipodi-0.dtd" xmlns:dc="http://purl.org/dc/elements/1.1/" xmlns:svg="http://www.w3.org/2000/svg" inkscape:version="0.91 r13725" sodipodi:docname="button.svg"
	 xmlns="http://www.w3.org/2000/svg" xmlns:xlink="http://www.w3.org/1999/xlink" x="0px" y="0px" viewBox="0 0 90.1 46"
	 style="enable-background:new 0 0 90.1 46;" xml:space="preserve">
<style type="text/css">
	.st0{fill:none;stroke:#543C1A;stroke-width:2.4;stroke-linecap:round;stroke-linejoin:round;stroke-miterlimit:8;}
</style>
<sodipodi:namedview  bordercolor="#666666" borderopacity="1.0" fit-margin-bottom="0" fit-margin-left="0" fit-margin-right="0" fit-margin-top="0" id="base" inkscape:current-layer="layer1" inkscape:cx="67.240825" inkscape:cy="25.93048" inkscape:document-units="px" inkscape:pageopacity="0.0" inkscape:pageshadow="2" inkscape:window-height="1080" inkscape:window-maximized="1" inkscape:window-width="1920" inkscape:window-x="0" inkscape:window-y="0" inkscape:zoom="5.6" pagecolor="#ffffff" showgrid="false">
	</sodipodi:namedview>
<g id="layer1" transform="translate(-7.6331e-7,-994.84816)" inkscape:groupmode="layer" inkscape:label="Layer 1">
	<path id="path242" inkscape:connector-curvature="0" sodipodi:nodetypes="ccccccccccccccccccccc" class="st0" d="M12.4,996.4
		c4.5-0.1,8.9,0,13.4,0.1c4,0.1,10.2,0.7,15.3,0.5c3.4,0.4,6.9-0.2,10.3,0.2c4.9-0.1,9.8-0.8,14.8-0.5c4.6,0.3,8,0.4,14,0.3
		c5.9-0.4,8.6,0.1,8.2,5.8c-0.2,4.9-0.1,9.1-0.1,12.8c0,6.9,1.1,20-0.5,22.1c-2.4,3-8,0.9-11.4,0.9c-3.2-0.1-7.7,0.9-10.8,0
		c-3.9-0.5-6.6,0.5-10.5,0.2c-4,0-7.8-0.7-11.7,0.2c-4.7,0.6-10.7,0.5-15.4-0.4c-4.7-0.7-8-0.1-12.7-0.1c-3.8,0-12,1.4-13.3,0
		c-1.4-1.5-0.3-9.4-0.4-12.5c-0.3-7.4-0.4-12.5,0.1-19.9c0.1-1.3-0.9-6.7,0-8.2C3.8,995.2,9.3,996.8,12.4,996.4L12.4,996.4z"/>
</g>
</svg>
