<?xml version="1.0" encoding="utf-8"?>
<!-- Generator: Adobe Illustrator 28.0.0, SVG Export Plug-In . SVG Version: 6.00 Build 0)  -->
<svg version="1.1"
	 id="svg4368" xmlns:cc="http://creativecommons.org/ns#" xmlns:inkscape="http://www.inkscape.org/namespaces/inkscape" xmlns:rdf="http://www.w3.org/1999/02/22-rdf-syntax-ns#" xmlns:sodipodi="http://sodipodi.sourceforge.net/DTD/sodipodi-0.dtd" xmlns:dc="http://purl.org/dc/elements/1.1/" xmlns:svg="http://www.w3.org/2000/svg" inkscape:version="0.91 r13725" sodipodi:docname="checkbox.svg"
	 xmlns="http://www.w3.org/2000/svg" xmlns:xlink="http://www.w3.org/1999/xlink" x="0px" y="0px" viewBox="0 0 45.4 46.6"
	 style="enable-background:new 0 0 45.4 46.6;" xml:space="preserve">
<style type="text/css">
	.st0{fill:none;stroke:#543C1A;stroke-width:2.4;stroke-linecap:round;stroke-linejoin:round;stroke-miterlimit:8;}
</style>
<sodipodi:namedview  bordercolor="#666666" borderopacity="1.0" fit-margin-bottom="0" fit-margin-left="0" fit-margin-right="0" fit-margin-top="0" id="base" inkscape:current-layer="layer1" inkscape:cx="-17.513223" inkscape:cy="55.921856" inkscape:document-units="px" inkscape:pageopacity="0.0" inkscape:pageshadow="2" inkscape:window-height="1080" inkscape:window-maximized="1" inkscape:window-width="1920" inkscape:window-x="0" inkscape:window-y="0" inkscape:zoom="5.6" pagecolor="#ffffff" showgrid="false">
	</sodipodi:namedview>
<g id="layer1" transform="translate(-0.08716101,-994.25595)" inkscape:groupmode="layer" inkscape:label="Layer 1">
	<path id="path382" inkscape:connector-curvature="0" sodipodi:nodetypes="cccccccccccccccc" class="st0" d="M3.9,995.8
		c2.3-0.4,4.4,0.1,6.6,0.1c2.4,0,4.7,0,7.1-0.1c4.9,0.3,10.1,0.7,15,0.3c3.3-0.2,8.4-1.3,10.9,1.3c1.1,2.2-0.8,5.8,0,8.3
		c0.9,5.3,0.2,10.6,0.7,15.9c0.1,3.3-0.9,6.5-0.5,9.8c0,2,1.1,6.6-1.3,7.4c-4.3,0.9-9.3,0.9-13.7,0.1c-6.1-0.5-12-0.2-18.1,0.4
		c-2.3-0.2-5.9,0.5-7.8-0.9c-1.4-2.8-1.7-6.2-1.4-9.3c0.2-6.4,0.1-12.8,0.2-19.2c0.4-4.4,0.2-4.8,0-9.2
		C1.3,997.6,3.1,995.7,3.9,995.8"/>
</g>
</svg>
