<?xml version="1.0" encoding="utf-8"?>
<!-- Generator: Adobe Illustrator 28.0.0, SVG Export Plug-In . SVG Version: 6.00 Build 0)  -->
<svg version="1.1"
	 id="svg4966" xmlns:cc="http://creativecommons.org/ns#" xmlns:inkscape="http://www.inkscape.org/namespaces/inkscape" xmlns:rdf="http://www.w3.org/1999/02/22-rdf-syntax-ns#" xmlns:sodipodi="http://sodipodi.sourceforge.net/DTD/sodipodi-0.dtd" xmlns:dc="http://purl.org/dc/elements/1.1/" xmlns:svg="http://www.w3.org/2000/svg" inkscape:version="0.91 r13725" sodipodi:docname="radio.svg"
	 xmlns="http://www.w3.org/2000/svg" xmlns:xlink="http://www.w3.org/1999/xlink" x="0px" y="0px" viewBox="0 0 39.9 39.9"
	 style="enable-background:new 0 0 39.9 39.9;" xml:space="preserve">
<style type="text/css">
	.st0{fill:none;stroke:#543C1A;stroke-width:3;stroke-linecap:round;stroke-linejoin:round;stroke-miterlimit:10;}
</style>
<sodipodi:namedview  bordercolor="#666666" borderopacity="1.0" fit-margin-bottom="0" fit-margin-left="0" fit-margin-right="0" fit-margin-top="0" id="base" inkscape:current-layer="layer1" inkscape:cx="18.25668" inkscape:cy="38.444759" inkscape:document-units="px" inkscape:pageopacity="0.0" inkscape:pageshadow="2" inkscape:window-height="1080" inkscape:window-maximized="1" inkscape:window-width="1920" inkscape:window-x="0" inkscape:window-y="0" inkscape:zoom="7.9195959" pagecolor="#ffffff" showgrid="false" units="px">
	</sodipodi:namedview>
<g id="layer1" transform="translate(-1.5039738,-1011.0869)" inkscape:groupmode="layer" inkscape:label="Layer 1">
	<path id="path250" inkscape:connector-curvature="0" sodipodi:nodetypes="cccccccccccc" class="st0" d="M13.7,1012.8
		c-2.1,0.6-6.4,2.8-7.4,4.8c-2.4,4-2.4,7.4-2.8,12.8c0,4.7,0,8.2,2.7,12.1c3.1,4.5,8.7,6.6,14.1,6.8c4.2,0.4,8.7-0.2,12.3-2.5
		c2.2-1.3,4.3-3.2,5-5.7c1.3-3.7,1.5-5.7,1.8-9.6c0.3-3.3-1.2-9.5-3.1-12.1c-2.3-2.6-3.6-3.7-6.5-5.3c-3.1-1.6-6.9-1.1-10.4-1.4
		c-2.9-0.3-7.5-0.2-9.8,1.9"/>
</g>
</svg>
